<svg xmlns="http://www.w3.org/2000/svg" viewBox="0 0 820 392" style="font-family:system-ui,-apple-system,sans-serif">
  <defs>
    <clipPath id="u28"><rect x="34" y="16" width="766" height="360"/></clipPath>
  </defs>
  <text x="800" y="11" text-anchor="end" font-size="11" fill="#6b7280" font-weight="600">Bitcrusher — 4-bit depth, quarter sample rate</text>
  <line x1="34" y1="16" x2="34" y2="376" stroke="#d1d5db" stroke-width="1"/>
  <line x1="34" y1="376" x2="800" y2="376" stroke="#d1d5db" stroke-width="1"/>
  <line x1="34" y1="16" x2="34" y2="376" stroke="#e5e7eb" stroke-width="0.5"/>
  <text x="34" y="388" text-anchor="middle" font-size="8" fill="#6b7280">0</text>
  <line x1="198.9" y1="16" x2="198.9" y2="376" stroke="#e5e7eb" stroke-width="0.5"/>
  <text x="198.9" y="388" text-anchor="middle" font-size="8" fill="#6b7280">5</text>
  <line x1="363.9" y1="16" x2="363.9" y2="376" stroke="#e5e7eb" stroke-width="0.5"/>
  <text x="363.9" y="388" text-anchor="middle" font-size="8" fill="#6b7280">10</text>
  <line x1="528.8" y1="16" x2="528.8" y2="376" stroke="#e5e7eb" stroke-width="0.5"/>
  <text x="528.8" y="388" text-anchor="middle" font-size="8" fill="#6b7280">15</text>
  <line x1="693.8" y1="16" x2="693.8" y2="376" stroke="#e5e7eb" stroke-width="0.5"/>
  <text x="693.8" y="388" text-anchor="middle" font-size="8" fill="#6b7280">20</text>
  <line x1="34" y1="346" x2="800" y2="346" stroke="#e5e7eb" stroke-width="0.5"/>
  <text x="30" y="349" text-anchor="end" font-size="8" fill="#6b7280">-1</text>
  <line x1="34" y1="271" x2="800" y2="271" stroke="#e5e7eb" stroke-width="0.5"/>
  <text x="30" y="274" text-anchor="end" font-size="8" fill="#6b7280">-0.5</text>
  <line x1="34" y1="196" x2="800" y2="196" stroke="#e5e7eb" stroke-width="0.5"/>
  <text x="30" y="199" text-anchor="end" font-size="8" fill="#6b7280">0</text>
  <line x1="34" y1="121" x2="800" y2="121" stroke="#e5e7eb" stroke-width="0.5"/>
  <text x="30" y="124" text-anchor="end" font-size="8" fill="#6b7280">0.5</text>
  <line x1="34" y1="46" x2="800" y2="46" stroke="#e5e7eb" stroke-width="0.5"/>
  <text x="30" y="49" text-anchor="end" font-size="8" fill="#6b7280">1</text>
  <line x1="34" y1="196" x2="800" y2="196" stroke="#d1d5db" stroke-width="0.5"/>
  <text x="417" y="402" text-anchor="middle" font-size="9" fill="#6b7280">ms</text>
  <text x="12" y="196" text-anchor="middle" font-size="9" fill="#6b7280">amp</text>
  <polyline clip-path="url(#u28)" points="34.5,196.0 34.5,196.0 35.5,186.6 35.5,186.6 36.5,177.2 36.5,168.0 37.5,158.8 37.5,158.8 38.5,149.7 38.5,149.7 39.5,140.9 39.5,132.3 40.5,123.9 40.5,123.9 41.5,115.8 41.5,115.8 42.5,108.0 42.5,100.6 43.5,93.5 43.5,93.5 44.5,86.8 44.5,86.8 45.5,80.6 45.5,74.8 46.5,69.5 46.5,69.5 47.5,64.7 47.5,64.7 48.5,60.4 48.5,56.7 49.5,53.5 49.5,53.5 50.5,50.8 50.5,50.8 51.5,48.7 51.5,47.2 52.5,46.3 52.5,46.3 53.5,46.0 53.5,46.0 54.5,47.1 54.5,46.3 55.5,48.5 55.5,48.5 56.5,50.6 56.5,50.6 57.5,56.3 57.5,53.1 58.5,60.0 58.5,60.0 59.5,64.2 59.5,64.2 60.5,74.2 60.5,69.0 61.5,79.9 61.5,79.9 62.5,86.1 62.5,86.1 63.5,99.7 63.5,92.7 64.5,107.1 64.5,107.1 65.5,114.9 65.5,114.9 66.5,131.3 66.5,123.0 67.5,139.9 67.5,139.9 68.5,148.7 68.5,148.7 69.5,166.9 69.5,157.7 70.5,176.2 70.5,176.2 71.5,185.5 71.5,185.5 72.5,204.3 72.5,194.9 73.5,213.7 73.5,213.7 74.5,223.0 74.5,223.0 75.5,241.2 75.5,232.2 76.5,250.1 76.5,250.1 77.5,258.8 77.5,258.8 78.5,275.3 78.5,267.2 79.5,283.1 79.5,283.1 80.5,290.6 80.5,290.6 81.5,304.4 81.5,297.7 82.5,310.7 82.5,310.7 83.5,316.5 83.5,316.5 84.5,326.8 84.5,321.9 85.5,331.1 85.5,331.1 86.5,334.9 86.5,334.9 87.5,340.9 87.5,338.2 88.5,343.0 88.5,343.0 89.5,344.6 89.5,344.6 90.5,346.0 90.5,345.6 91.5,345.8 91.5,345.8 92.5,345.0 92.5,345.0 93.5,343.6 93.5,341.7 94.5,339.2 94.5,339.2 95.5,336.1 95.5,336.1 96.5,332.5 96.5,328.3 97.5,323.6 97.5,323.6 98.5,318.4 98.5,318.4 99.5,312.7 99.5,306.6 100.5,300.0 100.5,300.0 101.5,293.1 101.5,293.1 102.5,285.7 102.5,278.0 103.5,270.0 103.5,270.0 104.5,261.7 104.5,261.7 105.5,253.1 105.5,244.3 106.5,235.3 106.5,235.3 107.5,226.1 107.5,226.1 108.5,216.9 108.5,207.5 109.5,198.1 109.5,198.1 110.5,188.7 110.5,188.7 111.5,179.4 111.5,170.1 112.5,160.9 112.5,160.9 113.5,151.8 113.5,151.8 114.5,142.9 114.5,134.2 115.5,125.8 115.5,125.8 116.5,117.6 116.5,117.6 117.5,109.7 117.5,102.2 118.5,95.1 118.5,95.1 119.5,88.3 119.5,88.3 120.5,82.0 120.5,76.1 121.5,70.7 121.5,70.7 122.5,65.8 122.5,65.8 123.5,61.4 123.5,57.5 124.5,54.2 124.5,54.2 125.5,51.4 125.5,51.4 126.5,49.2 126.5,47.5 127.5,46.5 127.5,46.5 128.5,46.0 128.5,46.0 129.5,46.9 129.5,46.2 130.5,48.2 130.5,48.2 131.5,52.5 131.5,50.1 132.5,55.5 132.5,55.5 133.5,59.1 133.5,59.1 134.5,67.8 134.5,63.2 135.5,73.0 135.5,73.0 136.5,78.6 136.5,78.6 137.5,91.2 137.5,84.7 138.5,98.1 138.5,98.1 139.5,105.4 139.5,105.4 140.5,121.1 140.5,113.1 141.5,129.4 141.5,129.4 142.5,137.9 142.5,137.9 143.5,155.7 143.5,146.7 144.5,164.8 144.5,164.8 145.5,174.1 145.5,174.1 146.5,192.8 146.5,183.4 147.5,202.2 147.5,202.2 148.5,211.6 148.5,211.6 149.5,230.1 149.5,220.9 150.5,239.2 150.5,239.2 151.5,248.1 151.5,248.1 152.5,265.3 152.5,256.8 153.5,273.5 153.5,273.5 154.5,281.4 154.5,281.4 155.5,296.1 155.5,288.9 156.5,302.9 156.5,302.9 157.5,309.3 157.5,309.3 158.5,320.7 158.5,315.2 159.5,325.7 159.5,325.7 160.5,330.2 160.5,330.2 161.5,337.5 161.5,334.1 162.5,340.3 162.5,340.3 163.5,342.6 163.5,342.6 164.5,345.4 164.5,344.3 165.5,346.0 165.5,346.0 166.5,345.9 166.5,345.9 167.5,345.2 167.5,344.0 168.5,342.2 168.5,342.2 169.5,339.8 169.5,339.8 170.5,336.8 170.5,333.3 171.5,329.3 171.5,329.3 172.5,324.7 172.5,324.7 173.5,319.6 173.5,314.1 174.5,308.0 174.5,308.0 175.5,301.6 175.5,301.6 176.5,294.7 176.5,287.4 177.5,279.8 177.5,279.8 178.5,271.8 178.5,271.8 179.5,263.6 179.5,255.1 180.5,246.3 180.5,246.3 181.5,237.3 181.5,237.3 182.5,228.2 182.5,219.0 183.5,209.7 183.5,209.7 184.5,200.3 184.5,200.3 185.5,190.9 185.5,181.5 186.5,172.2 186.5,172.2 187.5,162.9 187.5,162.9 188.5,153.8 188.5,144.9 189.5,136.2 189.5,136.2 190.5,127.7 190.5,127.7 191.5,119.4 191.5,111.5 192.5,103.9 192.5,103.9 193.5,96.7 193.5,96.7 194.5,89.8 194.5,83.4 195.5,77.4 195.5,77.4 196.5,71.9 196.5,71.9 197.5,66.9 197.5,62.3 198.5,58.3 198.5,58.3 199.5,54.9 199.5,54.9 200.5,52.0 200.5,49.6 201.5,47.9 201.5,47.9 202.5,46.7 202.5,46.7 203.5,46.1 203.5,46.1 204.5,46.7 204.5,46.7 205.5,47.8 205.5,47.8 206.5,51.9 206.5,49.6 207.5,54.8 207.5,54.8 208.5,58.2 208.5,58.2 209.5,66.7 209.5,62.2 210.5,71.8 210.5,71.8 211.5,77.3 211.5,77.3 212.5,89.7 212.5,83.3 213.5,96.5 213.5,96.5 214.5,103.7 214.5,103.7 215.5,119.2 215.5,111.3 216.5,127.5 216.5,127.5 217.5,136.0 217.5,136.0 218.5,153.6 218.5,144.7 219.5,162.7 219.5,162.7 220.5,172.0 220.5,172.0 221.5,190.7 221.5,181.3 222.5,200.1 222.5,200.1 223.5,209.4 223.5,209.4 224.5,228.0 224.5,218.8 225.5,237.1 225.5,237.1 226.5,254.9 226.5,246.1 227.5,263.4 227.5,263.4 228.5,271.6 228.5,271.6 229.5,287.3 229.5,279.6 230.5,294.5 230.5,294.5 231.5,301.4 231.5,301.4 232.5,313.9 232.5,307.9 233.5,319.5 233.5,319.5 234.5,324.6 234.5,324.6 235.5,333.2 235.5,329.2 236.5,336.8 236.5,336.8 237.5,339.7 237.5,339.7 238.5,344.0 238.5,342.1 239.5,345.2 239.5,345.2 240.5,345.9 240.5,345.9 241.5,346.0 241.5,345.4 242.5,344.3 242.5,344.3 243.5,342.7 243.5,342.7 244.5,340.4 244.5,337.6 245.5,334.2 245.5,334.2 246.5,330.3 246.5,330.3 247.5,325.8 247.5,320.8 248.5,315.4 248.5,315.4 249.5,309.5 249.5,309.5 250.5,303.1 250.5,296.3 251.5,289.1 251.5,289.1 252.5,281.6 252.5,281.6 253.5,273.7 253.5,265.5 254.5,257.0 254.5,257.0 255.5,248.3 255.5,248.3 256.5,239.4 256.5,230.3 257.5,221.1 257.5,221.1 258.5,211.8 258.5,211.8 259.5,202.4 259.5,193.0 260.5,183.6 260.5,183.6 261.5,174.3 261.5,174.3 262.5,165.0 262.5,155.9 263.5,146.9 263.5,146.9 264.5,138.1 264.5,138.1 265.5,129.6 265.5,121.3 266.5,113.3 266.5,113.3 267.5,105.6 267.5,105.6 268.5,98.3 268.5,91.3 269.5,84.8 269.5,84.8 270.5,78.7 270.5,78.7 271.5,73.1 271.5,68.0 272.5,63.3 272.5,63.3 273.5,59.2 273.5,59.2 274.5,55.6 274.5,52.6 275.5,50.1 275.5,50.1 276.5,48.2 276.5,48.2 277.5,46.9 277.5,46.2 278.5,46.0 278.5,46.0 279.5,46.5 279.5,46.5 280.5,49.1 280.5,47.5 281.5,51.3 281.5,51.3 282.5,54.1 282.5,54.1 283.5,61.3 283.5,57.4 284.5,65.7 284.5,65.7 285.5,70.6 285.5,70.6 286.5,81.9 286.5,76.0 287.5,88.2 287.5,88.2 288.5,94.9 288.5,94.9 289.5,109.6 289.5,102.1 290.5,117.4 290.5,117.4 291.5,125.6 291.5,125.6 292.5,142.7 292.5,134.0 293.5,151.6 293.5,151.6 294.5,160.6 294.5,160.6 295.5,179.2 295.5,169.8 296.5,188.5 296.5,188.5 297.5,197.9 297.5,197.9 298.5,216.7 298.5,207.3 299.5,225.9 299.5,225.9 300.5,235.1 300.5,235.1 301.5,252.9 301.5,244.1 302.5,261.5 302.5,261.5 303.5,269.8 303.5,269.8 304.5,285.5 304.5,277.8 305.5,292.9 305.5,292.9 306.5,299.9 306.5,299.9 307.5,312.6 307.5,306.5 308.5,318.3 308.5,318.3 309.5,323.5 309.5,323.5 310.5,332.4 310.5,328.2 311.5,336.0 311.5,336.0 312.5,339.1 312.5,339.1 313.5,343.6 313.5,341.6 314.5,345.0 314.5,345.0 315.5,345.8 315.5,345.8 316.5,346.0 316.5,345.6 317.5,344.6 317.5,344.6 318.5,343.1 318.5,343.1 319.5,341.0 319.5,338.3 320.5,335.0 320.5,335.0 321.5,331.2 321.5,326.9 322.5,322.0 322.5,322.0 323.5,316.7 323.5,316.7 324.5,310.8 324.5,304.6 325.5,297.9 325.5,297.9 326.5,290.8 326.5,290.8 327.5,283.3 327.5,275.5 328.5,267.4 328.5,267.4 329.5,259.0 329.5,259.0 330.5,250.3 330.5,241.4 331.5,232.4 331.5,232.4 332.5,223.2 332.5,223.2 333.5,213.9 333.5,204.5 334.5,195.1 334.5,195.1 335.5,185.7 335.5,185.7 336.5,176.4 336.5,167.1 337.5,158.0 337.5,158.0 338.5,148.9 338.5,148.9 339.5,140.1 339.5,131.5 340.5,123.1 340.5,123.1 341.5,115.1 341.5,115.1 342.5,107.3 342.5,99.9 343.5,92.9 343.5,92.9 344.5,86.3 344.5,86.3 345.5,80.1 345.5,74.3 346.5,69.1 346.5,69.1 347.5,64.3 347.5,64.3 348.5,60.1 348.5,56.4 349.5,53.2 349.5,53.2 350.5,50.6 350.5,50.6 351.5,48.6 351.5,47.1 352.5,46.3 352.5,46.3 353.5,46.0 353.5,46.0 354.5,47.2 354.5,46.3 355.5,48.7 355.5,48.7 356.5,50.8 356.5,50.8 357.5,56.6 357.5,53.4 358.5,60.3 358.5,60.3 359.5,64.6 359.5,64.6 360.5,74.7 360.5,69.4 361.5,80.5 361.5,80.5 362.5,86.7 362.5,86.7 363.5,100.4 363.5,93.3 364.5,107.8 364.5,107.8 365.5,115.6 365.5,115.6 366.5,132.1 366.5,123.7 367.5,140.7 367.5,140.7 368.5,149.5 368.5,149.5 369.5,167.7 369.5,158.6 370.5,177.0 370.5,177.0 371.5,186.4 371.5,186.4 372.5,205.2 372.5,195.8 373.5,214.5 373.5,214.5 374.5,223.8 374.5,223.8 375.5,242.0 375.5,233.0 376.5,250.9 376.5,250.9 377.5,259.5 377.5,259.5 378.5,276.0 378.5,267.9 379.5,283.8 379.5,283.8 380.5,291.3 380.5,291.3 381.5,305.0 381.5,298.3 382.5,311.2 382.5,311.2 383.5,317.0 383.5,317.0 384.5,327.2 384.5,322.4 385.5,331.5 385.5,331.5 386.5,335.2 386.5,335.2 387.5,341.1 387.5,338.5 388.5,343.2 388.5,343.2 389.5,344.7 389.5,344.7 390.5,346.0 390.5,345.7 391.5,345.8 391.5,345.8 392.5,344.9 392.5,344.9 393.5,343.5 393.5,341.5 394.5,338.9 394.5,338.9 395.5,335.8 395.5,335.8 396.5,332.1 396.5,327.9 397.5,323.2 397.5,323.2 398.5,317.9 398.5,317.9 399.5,312.2 399.5,306.0 400.5,299.4 400.5,299.4 401.5,292.4 401.5,292.4 402.5,285.0 402.5,277.3 403.5,269.2 403.5,269.2 404.5,260.9 404.5,260.9 405.5,252.3 405.5,243.5 406.5,234.5 406.5,234.5 407.5,225.3 407.5,225.3 408.5,216.0 408.5,206.7 409.5,197.3 409.5,197.3 410.5,187.9 410.5,187.9 411.5,178.5 411.5,169.2 412.5,160.0 412.5,160.0 413.5,151.0 413.5,151.0 414.5,142.1 414.5,133.4 415.5,125.0 415.5,125.0 416.5,116.9 416.5,109.0 417.5,101.6 417.5,101.6 418.5,94.4 418.5,94.4 419.5,87.7 419.5,81.4 420.5,75.6 420.5,75.6 421.5,70.2 421.5,70.2 422.5,65.4 422.5,61.0 423.5,57.2 423.5,57.2 424.5,53.9 424.5,53.9 425.5,51.2 425.5,49.0 426.5,47.4 426.5,47.4 427.5,46.4 427.5,46.4 428.5,46.2 428.5,46.0 429.5,47.0 429.5,47.0 430.5,48.3 430.5,48.3 431.5,52.8 431.5,50.3 432.5,55.8 432.5,55.8 433.5,59.5 433.5,59.5 434.5,68.3 434.5,63.6 435.5,73.5 435.5,73.5 436.5,79.1 436.5,79.1 437.5,91.8 437.5,85.2 438.5,98.8 438.5,98.8 439.5,106.1 439.5,106.1 440.5,121.8 440.5,113.8 441.5,130.1 441.5,130.1 442.5,138.7 442.5,138.7 443.5,156.5 443.5,147.5 444.5,165.6 444.5,165.6 445.5,174.9 445.5,174.9 446.5,193.6 446.5,184.3 447.5,203.0 447.5,203.0 448.5,212.4 448.5,212.4 449.5,230.9 449.5,221.7 450.5,240.0 450.5,240.0 451.5,248.9 451.5,248.9 452.5,266.0 452.5,257.6 453.5,274.2 453.5,274.2 454.5,282.1 454.5,282.1 455.5,296.8 455.5,289.6 456.5,303.5 456.5,303.5 457.5,309.9 457.5,309.9 458.5,321.2 458.5,315.8 459.5,326.1 459.5,326.1 460.5,330.5 460.5,330.5 461.5,337.8 461.5,334.4 462.5,340.6 462.5,340.6 463.5,342.8 463.5,342.8 464.5,345.5 464.5,344.4 465.5,346.0 465.5,346.0 466.5,345.9 466.5,345.9 467.5,345.2 467.5,343.9 468.5,342.0 468.5,342.0 469.5,339.6 469.5,339.6 470.5,336.5 470.5,333.0 471.5,328.9 471.5,328.9 472.5,324.3 472.5,324.3 473.5,319.1 473.5,313.5 474.5,307.5 474.5,307.5 475.5,301.0 475.5,301.0 476.5,294.0 476.5,286.7 477.5,279.1 477.5,279.1 478.5,271.1 478.5,271.1 479.5,262.8 479.5,254.3 480.5,245.5 480.5,245.5 481.5,236.5 481.5,236.5 482.5,227.4 482.5,218.1 483.5,208.8 483.5,208.8 484.5,199.4 484.5,199.4 485.5,190.0 485.5,180.6 486.5,171.3 486.5,171.3 487.5,162.1 487.5,162.1 488.5,153.0 488.5,144.1 489.5,135.4 489.5,135.4 490.5,126.9 490.5,126.9 491.5,118.7 491.5,110.8 492.5,103.2 492.5,103.2 493.5,96.0 493.5,96.0 494.5,89.2 494.5,82.8 495.5,76.9 495.5,76.9 496.5,71.4 496.5,71.4 497.5,66.4 497.5,61.9 498.5,58.0 498.5,58.0 499.5,54.6 499.5,54.6 500.5,51.7 500.5,49.4 501.5,47.7 501.5,47.7 502.5,46.6 502.5,46.6 503.5,46.1 503.5,46.1 504.5,46.7 504.5,46.7 505.5,48.0 505.5,48.0 506.5,52.1 506.5,49.8 507.5,55.1 507.5,55.1 508.5,58.6 508.5,58.6 509.5,67.2 509.5,62.6 510.5,72.2 510.5,72.2 511.5,77.8 511.5,77.8 512.5,90.3 512.5,83.8 513.5,97.1 513.5,97.1 514.5,112.0 514.5,104.4 515.5,120.0 515.5,120.0 516.5,128.2 516.5,128.2 517.5,145.5 517.5,136.8 518.5,154.4 518.5,154.4 519.5,163.6 519.5,163.6 520.5,182.1 520.5,172.8 521.5,191.5 521.5,191.5 522.5,200.9 522.5,200.9 523.5,219.6 523.5,210.3 524.5,228.9 524.5,228.9 525.5,238.0 525.5,238.0 526.5,255.6 526.5,246.9 527.5,264.1 527.5,264.1 528.5,272.4 528.5,272.4 529.5,287.9 529.5,280.3 530.5,295.2 530.5,295.2 531.5,302.0 531.5,302.0 532.5,314.5 532.5,308.5 533.5,320.0 533.5,320.0 534.5,325.0 534.5,325.0 535.5,333.6 535.5,329.6 536.5,337.1 536.5,337.1 537.5,340.0 537.5,340.0 538.5,344.1 538.5,342.3 539.5,345.3 539.5,345.3 540.5,345.9 540.5,345.9 541.5,345.9 541.5,345.4 542.5,344.2 542.5,344.2 543.5,342.5 543.5,342.5 544.5,340.2 544.5,337.3 545.5,333.8 545.5,333.8 546.5,329.9 546.5,329.9 547.5,325.4 547.5,320.4 548.5,314.9 548.5,314.9 549.5,308.9 549.5,308.9 550.5,302.5 550.5,295.7 551.5,288.4 551.5,288.4 552.5,280.9 552.5,280.9 553.5,272.9 553.5,264.7 554.5,256.2 554.5,256.2 555.5,247.5 555.5,247.5 556.5,238.6 556.5,229.5 557.5,220.3 557.5,220.3 558.5,210.9 558.5,210.9 559.5,201.6 559.5,192.2 560.5,182.8 560.5,182.8 561.5,173.4 561.5,173.4 562.5,164.2 562.5,155.1 563.5,146.1 563.5,146.1 564.5,137.3 564.5,137.3 565.5,128.8 565.5,120.5 566.5,112.6 566.5,112.6 567.5,104.9 567.5,104.9 568.5,97.6 568.5,90.7 569.5,84.2 569.5,84.2 570.5,78.2 570.5,78.2 571.5,72.6 571.5,67.5 572.5,62.9 572.5,62.9 573.5,58.8 573.5,58.8 574.5,55.3 574.5,52.3 575.5,49.9 575.5,49.9 576.5,48.1 576.5,48.1 577.5,46.8 577.5,46.1 578.5,46.0 578.5,46.0 579.5,46.5 579.5,46.5 580.5,49.3 580.5,47.6 581.5,51.5 581.5,51.5 582.5,54.4 582.5,54.4 583.5,61.7 583.5,57.7 584.5,66.1 584.5,66.1 585.5,71.0 585.5,71.0 586.5,82.4 586.5,76.5 587.5,88.8 587.5,88.8 588.5,95.6 588.5,95.6 589.5,110.3 589.5,102.7 590.5,118.1 590.5,118.1 591.5,126.3 591.5,126.3 592.5,143.5 592.5,134.8 593.5,152.4 593.5,152.4 594.5,161.5 594.5,161.5 595.5,180.0 595.5,170.7 596.5,189.4 596.5,189.4 597.5,198.8 597.5,198.8 598.5,217.5 598.5,208.2 599.5,226.8 599.5,226.8 600.5,235.9 600.5,235.9 601.5,253.7 601.5,244.9 602.5,262.2 602.5,262.2 603.5,270.5 603.5,270.5 604.5,286.2 604.5,278.5 605.5,293.6 605.5,293.6 606.5,300.5 606.5,300.5 607.5,313.1 607.5,307.0 608.5,318.8 608.5,318.8 609.5,328.6 609.5,323.9 610.5,332.7 610.5,332.7 611.5,336.3 611.5,336.3 612.5,341.8 612.5,339.4 613.5,343.8 613.5,343.8 614.5,345.1 614.5,345.1 615.5,346.0 615.5,345.8 616.5,345.5 616.5,345.5 617.5,344.5 617.5,344.5 618.5,342.9 618.5,340.7 619.5,338.0 619.5,338.0 620.5,334.7 620.5,334.7 621.5,330.8 621.5,326.4 622.5,321.5 622.5,321.5 623.5,316.1 623.5,316.1 624.5,310.3 624.5,304.0 625.5,297.2 625.5,297.2 626.5,290.1 626.5,290.1 627.5,282.6 627.5,274.8 628.5,266.6 628.5,266.6 629.5,258.2 629.5,258.2 630.5,249.5 630.5,240.6 631.5,231.6 631.5,231.6 632.5,222.4 632.5,222.4 633.5,213.1 633.5,203.7 634.5,194.3 634.5,194.3 635.5,184.9 635.5,184.9 636.5,175.5 636.5,166.3 637.5,157.1 637.5,157.1 638.5,148.1 638.5,148.1 639.5,139.3 639.5,130.7 640.5,122.4 640.5,122.4 641.5,114.3 641.5,114.3 642.5,106.6 642.5,99.3 643.5,92.3 643.5,92.3 644.5,85.7 644.5,85.7 645.5,79.5 645.5,73.8 646.5,68.6 646.5,68.6 647.5,63.9 647.5,63.9 648.5,59.7 648.5,56.1 649.5,53.0 649.5,53.0 650.5,50.4 650.5,50.4 651.5,48.4 651.5,47.0 652.5,46.2 652.5,46.2 653.5,46.0 653.5,46.0 654.5,47.3 654.5,46.4 655.5,48.9 655.5,48.9 656.5,51.0 656.5,51.0 657.5,56.9 657.5,53.7 658.5,60.7 658.5,60.7 659.5,65.0 659.5,65.0 660.5,75.2 660.5,69.9 661.5,81.0 661.5,81.0 662.5,87.3 662.5,87.3 663.5,101.1 663.5,94.0 664.5,108.5 664.5,108.5 665.5,116.3 665.5,116.3 666.5,132.8 666.5,124.4 667.5,141.5 667.5,141.5 668.5,150.4 668.5,150.4 669.5,168.6 669.5,159.4 670.5,177.9 670.5,177.9 671.5,187.2 671.5,187.2 672.5,206.0 672.5,196.6 673.5,215.4 673.5,215.4 674.5,224.7 674.5,224.7 675.5,242.9 675.5,233.8 676.5,251.7 676.5,251.7 677.5,260.3 677.5,260.3 678.5,276.8 678.5,268.7 679.5,284.5 679.5,284.5 680.5,291.9 680.5,291.9 681.5,305.6 681.5,299.0 682.5,311.8 682.5,311.8 683.5,317.5 683.5,317.5 684.5,327.6 684.5,322.8 685.5,331.8 685.5,331.8 686.5,335.6 686.5,335.6 687.5,341.3 687.5,338.7 688.5,343.4 688.5,343.4 689.5,344.8 689.5,344.8 690.5,346.0 690.5,345.7 691.5,345.7 691.5,345.7 692.5,344.8 692.5,344.8 693.5,343.3 693.5,341.3 694.5,338.7 694.5,338.7 695.5,335.5 695.5,335.5 696.5,331.7 696.5,327.5 697.5,322.7 697.5,322.7 698.5,317.4 698.5,317.4 699.5,311.7 699.5,305.4 700.5,298.8 700.5,298.8 701.5,291.8 701.5,291.8 702.5,284.3 702.5,276.6 703.5,268.5 703.5,268.5 704.5,260.1 704.5,251.5 705.5,242.7 705.5,242.7 706.5,233.6 706.5,233.6 707.5,224.5 707.5,215.2 708.5,205.8 708.5,205.8 709.5,196.4 709.5,196.4 710.5,187.0 710.5,177.7 711.5,168.4 711.5,168.4 712.5,159.2 712.5,159.2 713.5,150.2 713.5,141.3 714.5,132.7 714.5,132.7 715.5,124.3 715.5,124.3 716.5,116.1 716.5,108.4 717.5,100.9 717.5,100.9 718.5,93.8 718.5,93.8 719.5,87.1 719.5,80.9 720.5,75.1 720.5,75.1 721.5,69.8 721.5,69.8 722.5,64.9 722.5,60.6 723.5,56.8 723.5,56.8 724.5,53.6 724.5,53.6 725.5,50.9 725.5,48.8 726.5,47.3 726.5,47.3 727.5,46.4 727.5,46.4 728.5,46.2 728.5,46.0 729.5,47.1 729.5,47.1 730.5,48.5 730.5,48.5 731.5,53.0 731.5,50.5 732.5,56.1 732.5,56.1 733.5,59.8 733.5,59.8 734.5,68.7 734.5,64.0 735.5,74.0 735.5,74.0 736.5,79.7 736.5,79.7 737.5,92.4 737.5,85.8 738.5,99.4 738.5,99.4 739.5,106.8 739.5,106.8 740.5,122.6 740.5,114.5 741.5,130.9 741.5,130.9 742.5,139.5 742.5,139.5 743.5,157.3 743.5,148.3 744.5,166.5 744.5,166.5 745.5,175.8 745.5,175.8 746.5,194.5 746.5,185.1 747.5,203.9 747.5,203.9 748.5,213.3 748.5,213.3 749.5,231.8 749.5,222.6 750.5,240.8 750.5,240.8 751.5,249.7 751.5,249.7 752.5,266.8 752.5,258.4 753.5,274.9 753.5,274.9 754.5,282.8 754.5,282.8 755.5,297.4 755.5,290.3 756.5,304.1 756.5,304.1 757.5,310.4 757.5,310.4 758.5,321.7 758.5,316.3 759.5,326.5 759.5,326.5 760.5,330.9 760.5,330.9 761.5,338.1 761.5,334.8 762.5,340.8 762.5,340.8 763.5,343.0 763.5,343.0 764.5,345.6 764.5,344.6 765.5,346.0 765.5,346.0 766.5,345.8 766.5,345.8 767.5,345.1 767.5,343.7 768.5,341.8 768.5,341.8 769.5,339.3 769.5,339.3 770.5,336.2 770.5,332.6 771.5,328.5 771.5,328.5 772.5,323.8 772.5,323.8 773.5,318.7 773.5,313.0 774.5,306.9 774.5,306.9 775.5,300.4 775.5,300.4 776.5,293.4 776.5,286.1 777.5,278.4 777.5,278.4 778.5,270.4 778.5,270.4 779.5,262.0 779.5,253.5 780.5,244.7 780.5,244.7 781.5,235.7 781.5,235.7 782.5,226.6 782.5,217.3 783.5,208.0 783.5,208.0 784.5,198.6 784.5,198.6 785.5,189.2 785.5,179.8 786.5,170.5 786.5,170.5 787.5,161.3 787.5,161.3 788.5,152.2 788.5,143.3 789.5,134.6 789.5,134.6 790.5,126.1 790.5,126.1 791.5,118.0 791.5,110.1 792.5,102.6 792.5,102.6 793.5,95.4 793.5,95.4 794.5,88.6 794.5,82.3 795.5,76.4 795.5,76.4 796.5,70.9 796.5,70.9 797.5,66.0 797.5,61.6 798.5,57.7 798.5,57.7 799.5,54.3 799.5,51.5" fill="none" stroke="#d1d5db" stroke-width="1.5" stroke-linejoin="round"/>
  <polyline clip-path="url(#u28)" points="34.5,196.0 34.5,196.0 35.5,196.0 35.5,196.0 36.5,196.0 36.5,177.3 37.5,177.3 37.5,177.3 38.5,177.3 38.5,177.3 39.5,177.3 39.5,139.8 40.5,139.8 40.5,139.8 41.5,139.8 41.5,139.8 42.5,139.8 42.5,102.3 43.5,102.3 43.5,102.3 44.5,102.3 44.5,102.3 45.5,102.3 45.5,83.5 46.5,83.5 46.5,83.5 47.5,83.5 47.5,83.5 48.5,83.5 48.5,64.7 49.5,64.7 49.5,64.7 50.5,64.7 50.5,64.7 51.5,64.7 51.5,46.0 52.5,46.0 52.5,46.0 53.5,46.0 53.5,46.0 54.5,46.0 54.5,46.0 55.5,46.0 55.5,46.0 56.5,46.0 56.5,46.0 57.5,64.7 57.5,46.0 58.5,64.7 58.5,64.7 59.5,64.7 59.5,64.7 60.5,83.5 60.5,64.7 61.5,83.5 61.5,83.5 62.5,83.5 62.5,83.5 63.5,102.3 63.5,83.5 64.5,102.3 64.5,102.3 65.5,102.3 65.5,102.3 66.5,139.8 66.5,102.3 67.5,139.8 67.5,139.8 68.5,139.8 68.5,139.8 69.5,158.5 69.5,139.8 70.5,158.5 70.5,158.5 71.5,158.5 71.5,158.5 72.5,196.0 72.5,158.5 73.5,196.0 73.5,196.0 74.5,196.0 74.5,196.0 75.5,233.5 75.5,196.0 76.5,233.5 76.5,233.5 77.5,233.5 77.5,233.5 78.5,271.0 78.5,233.5 79.5,271.0 79.5,271.0 80.5,271.0 80.5,271.0 81.5,308.5 81.5,271.0 82.5,308.5 82.5,308.5 83.5,308.5 83.5,308.5 84.5,327.3 84.5,308.5 85.5,327.3 85.5,327.3 86.5,327.3 86.5,327.3 87.5,346.0 87.5,327.3 88.5,346.0 88.5,346.0 89.5,346.0 89.5,346.0 90.5,346.0 90.5,346.0 91.5,346.0 91.5,346.0 92.5,346.0 92.5,346.0 93.5,346.0 93.5,346.0 94.5,346.0 94.5,346.0 95.5,346.0 95.5,346.0 96.5,346.0 96.5,327.3 97.5,327.3 97.5,327.3 98.5,327.3 98.5,327.3 99.5,327.3 99.5,308.5 100.5,308.5 100.5,308.5 101.5,308.5 101.5,308.5 102.5,308.5 102.5,271.0 103.5,271.0 103.5,271.0 104.5,271.0 104.5,271.0 105.5,271.0 105.5,252.3 106.5,252.3 106.5,252.3 107.5,252.3 107.5,252.3 108.5,252.3 108.5,214.8 109.5,214.8 109.5,214.8 110.5,214.8 110.5,214.8 111.5,214.8 111.5,177.3 112.5,177.3 112.5,177.3 113.5,177.3 113.5,177.3 114.5,177.3 114.5,139.8 115.5,139.8 115.5,139.8 116.5,139.8 116.5,139.8 117.5,139.8 117.5,102.3 118.5,102.3 118.5,102.3 119.5,102.3 119.5,102.3 120.5,102.3 120.5,83.5 121.5,83.5 121.5,83.5 122.5,83.5 122.5,83.5 123.5,83.5 123.5,64.7 124.5,64.7 124.5,64.7 125.5,64.7 125.5,64.7 126.5,64.7 126.5,46.0 127.5,46.0 127.5,46.0 128.5,46.0 128.5,46.0 129.5,46.0 129.5,46.0 130.5,46.0 130.5,46.0 131.5,46.0 131.5,46.0 132.5,64.7 132.5,64.7 133.5,64.7 133.5,64.7 134.5,64.7 134.5,64.7 135.5,64.7 135.5,64.7 136.5,64.7 136.5,64.7 137.5,64.7 137.5,64.7 138.5,102.3 138.5,102.3 139.5,102.3 139.5,102.3 140.5,102.3 140.5,102.3 141.5,121.0 141.5,121.0 142.5,121.0 142.5,121.0 143.5,121.0 143.5,121.0 144.5,158.5 144.5,158.5 145.5,158.5 145.5,158.5 146.5,158.5 146.5,158.5 147.5,196.0 147.5,196.0 148.5,196.0 148.5,196.0 149.5,196.0 149.5,196.0 150.5,233.5 150.5,233.5 151.5,233.5 151.5,233.5 152.5,233.5 152.5,233.5 153.5,271.0 153.5,271.0 154.5,271.0 154.5,271.0 155.5,271.0 155.5,271.0 156.5,308.5 156.5,308.5 157.5,308.5 157.5,308.5 158.5,308.5 158.5,308.5 159.5,327.3 159.5,327.3 160.5,327.3 160.5,327.3 161.5,327.3 161.5,327.3 162.5,346.0 162.5,346.0 163.5,346.0 163.5,346.0 164.5,346.0 164.5,346.0 165.5,346.0 165.5,346.0 166.5,346.0 166.5,346.0 167.5,346.0 167.5,346.0 168.5,346.0 168.5,346.0 169.5,346.0 169.5,346.0 170.5,346.0 170.5,346.0 171.5,327.3 171.5,327.3 172.5,327.3 172.5,327.3 173.5,327.3 173.5,327.3 174.5,308.5 174.5,308.5 175.5,308.5 175.5,308.5 176.5,308.5 176.5,308.5 177.5,271.0 177.5,271.0 178.5,271.0 178.5,271.0 179.5,271.0 179.5,271.0 180.5,252.3 180.5,252.3 181.5,252.3 181.5,252.3 182.5,252.3 182.5,252.3 183.5,214.8 183.5,214.8 184.5,214.8 184.5,214.8 185.5,214.8 185.5,214.8 186.5,177.3 186.5,177.3 187.5,177.3 187.5,177.3 188.5,177.3 188.5,177.3 189.5,139.8 189.5,139.8 190.5,139.8 190.5,139.8 191.5,139.8 191.5,139.8 192.5,102.3 192.5,102.3 193.5,102.3 193.5,102.3 194.5,102.3 194.5,102.3 195.5,83.5 195.5,83.5 196.5,83.5 196.5,83.5 197.5,83.5 197.5,83.5 198.5,64.7 198.5,64.7 199.5,64.7 199.5,64.7 200.5,64.7 200.5,64.7 201.5,46.0 201.5,46.0 202.5,46.0 202.5,46.0 203.5,46.0 203.5,46.0 204.5,46.0 204.5,46.0 205.5,46.0 205.5,46.0 206.5,46.0 206.5,46.0 207.5,46.0 207.5,46.0 208.5,46.0 208.5,46.0 209.5,46.0 209.5,46.0 210.5,64.7 210.5,64.7 211.5,64.7 211.5,64.7 212.5,64.7 212.5,64.7 213.5,102.3 213.5,102.3 214.5,102.3 214.5,102.3 215.5,102.3 215.5,102.3 216.5,121.0 216.5,121.0 217.5,121.0 217.5,121.0 218.5,121.0 218.5,121.0 219.5,158.5 219.5,158.5 220.5,158.5 220.5,158.5 221.5,158.5 221.5,158.5 222.5,196.0 222.5,196.0 223.5,196.0 223.5,196.0 224.5,196.0 224.5,196.0 225.5,233.5 225.5,233.5 226.5,233.5 226.5,233.5 227.5,233.5 227.5,233.5 228.5,271.0 228.5,271.0 229.5,271.0 229.5,271.0 230.5,271.0 230.5,271.0 231.5,308.5 231.5,308.5 232.5,308.5 232.5,308.5 233.5,308.5 233.5,308.5 234.5,327.3 234.5,327.3 235.5,327.3 235.5,327.3 236.5,327.3 236.5,327.3 237.5,346.0 237.5,346.0 238.5,346.0 238.5,346.0 239.5,346.0 239.5,346.0 240.5,346.0 240.5,346.0 241.5,346.0 241.5,346.0 242.5,346.0 242.5,346.0 243.5,346.0 243.5,346.0 244.5,346.0 244.5,346.0 245.5,346.0 245.5,346.0 246.5,327.3 246.5,327.3 247.5,327.3 247.5,327.3 248.5,327.3 248.5,327.3 249.5,308.5 249.5,308.5 250.5,308.5 250.5,308.5 251.5,308.5 251.5,308.5 252.5,289.8 252.5,289.8 253.5,289.8 253.5,289.8 254.5,289.8 254.5,289.8 255.5,252.3 255.5,252.3 256.5,252.3 256.5,252.3 257.5,252.3 257.5,252.3 258.5,214.8 258.5,214.8 259.5,214.8 259.5,214.8 260.5,214.8 260.5,214.8 261.5,177.3 261.5,177.3 262.5,177.3 262.5,177.3 263.5,177.3 263.5,177.3 264.5,139.8 264.5,139.8 265.5,139.8 265.5,139.8 266.5,139.8 266.5,139.8 267.5,102.3 267.5,102.3 268.5,102.3 268.5,102.3 269.5,102.3 269.5,102.3 270.5,83.5 270.5,83.5 271.5,83.5 271.5,83.5 272.5,83.5 272.5,83.5 273.5,64.7 273.5,64.7 274.5,64.7 274.5,64.7 275.5,64.7 275.5,64.7 276.5,46.0 276.5,46.0 277.5,46.0 277.5,46.0 278.5,46.0 278.5,46.0 279.5,46.0 279.5,46.0 280.5,46.0 280.5,46.0 281.5,46.0 281.5,46.0 282.5,46.0 282.5,46.0 283.5,46.0 283.5,46.0 284.5,46.0 284.5,46.0 285.5,64.7 285.5,64.7 286.5,64.7 286.5,64.7 287.5,64.7 287.5,64.7 288.5,102.3 288.5,102.3 289.5,102.3 289.5,102.3 290.5,102.3 290.5,102.3 291.5,121.0 291.5,121.0 292.5,121.0 292.5,121.0 293.5,121.0 293.5,121.0 294.5,158.5 294.5,158.5 295.5,158.5 295.5,158.5 296.5,158.5 296.5,158.5 297.5,196.0 297.5,196.0 298.5,196.0 298.5,196.0 299.5,196.0 299.5,196.0 300.5,233.5 300.5,233.5 301.5,233.5 301.5,233.5 302.5,233.5 302.5,233.5 303.5,271.0 303.5,271.0 304.5,271.0 304.5,271.0 305.5,271.0 305.5,271.0 306.5,308.5 306.5,308.5 307.5,308.5 307.5,308.5 308.5,308.5 308.5,308.5 309.5,327.3 309.5,327.3 310.5,327.3 310.5,327.3 311.5,327.3 311.5,327.3 312.5,346.0 312.5,346.0 313.5,346.0 313.5,346.0 314.5,346.0 314.5,346.0 315.5,346.0 315.5,346.0 316.5,346.0 316.5,346.0 317.5,346.0 317.5,346.0 318.5,346.0 318.5,346.0 319.5,346.0 319.5,346.0 320.5,346.0 320.5,346.0 321.5,327.3 321.5,327.3 322.5,327.3 322.5,327.3 323.5,327.3 323.5,327.3 324.5,308.5 324.5,308.5 325.5,308.5 325.5,308.5 326.5,308.5 326.5,308.5 327.5,289.8 327.5,289.8 328.5,289.8 328.5,289.8 329.5,289.8 329.5,289.8 330.5,252.3 330.5,252.3 331.5,252.3 331.5,252.3 332.5,252.3 332.5,252.3 333.5,214.8 333.5,214.8 334.5,214.8 334.5,214.8 335.5,214.8 335.5,214.8 336.5,177.3 336.5,177.3 337.5,177.3 337.5,177.3 338.5,177.3 338.5,177.3 339.5,139.8 339.5,139.8 340.5,139.8 340.5,139.8 341.5,139.8 341.5,139.8 342.5,102.3 342.5,102.3 343.5,102.3 343.5,102.3 344.5,102.3 344.5,102.3 345.5,83.5 345.5,83.5 346.5,83.5 346.5,83.5 347.5,83.5 347.5,83.5 348.5,64.7 348.5,64.7 349.5,64.7 349.5,64.7 350.5,64.7 350.5,64.7 351.5,46.0 351.5,46.0 352.5,46.0 352.5,46.0 353.5,46.0 353.5,46.0 354.5,46.0 354.5,46.0 355.5,46.0 355.5,46.0 356.5,46.0 356.5,46.0 357.5,46.0 357.5,46.0 358.5,46.0 358.5,46.0 359.5,46.0 359.5,46.0 360.5,64.7 360.5,64.7 361.5,64.7 361.5,64.7 362.5,64.7 362.5,64.7 363.5,102.3 363.5,102.3 364.5,102.3 364.5,102.3 365.5,102.3 365.5,102.3 366.5,121.0 366.5,121.0 367.5,121.0 367.5,121.0 368.5,121.0 368.5,121.0 369.5,158.5 369.5,158.5 370.5,158.5 370.5,158.5 371.5,158.5 371.5,158.5 372.5,196.0 372.5,196.0 373.5,196.0 373.5,196.0 374.5,196.0 374.5,196.0 375.5,233.5 375.5,233.5 376.5,233.5 376.5,233.5 377.5,233.5 377.5,233.5 378.5,271.0 378.5,271.0 379.5,271.0 379.5,271.0 380.5,271.0 380.5,271.0 381.5,289.8 381.5,289.8 382.5,289.8 382.5,289.8 383.5,289.8 383.5,289.8 384.5,327.3 384.5,327.3 385.5,327.3 385.5,327.3 386.5,327.3 386.5,327.3 387.5,346.0 387.5,346.0 388.5,346.0 388.5,346.0 389.5,346.0 389.5,346.0 390.5,346.0 390.5,346.0 391.5,346.0 391.5,346.0 392.5,346.0 392.5,346.0 393.5,346.0 393.5,346.0 394.5,346.0 394.5,346.0 395.5,346.0 395.5,346.0 396.5,327.3 396.5,327.3 397.5,327.3 397.5,327.3 398.5,327.3 398.5,327.3 399.5,308.5 399.5,308.5 400.5,308.5 400.5,308.5 401.5,308.5 401.5,308.5 402.5,289.8 402.5,289.8 403.5,289.8 403.5,289.8 404.5,289.8 404.5,289.8 405.5,252.3 405.5,252.3 406.5,252.3 406.5,252.3 407.5,252.3 407.5,252.3 408.5,214.8 408.5,214.8 409.5,214.8 409.5,214.8 410.5,214.8 410.5,214.8 411.5,177.3 411.5,177.3 412.5,177.3 412.5,177.3 413.5,177.3 413.5,177.3 414.5,139.8 414.5,139.8 415.5,139.8 415.5,139.8 416.5,139.8 416.5,102.3 417.5,102.3 417.5,102.3 418.5,102.3 418.5,102.3 419.5,102.3 419.5,83.5 420.5,83.5 420.5,83.5 421.5,83.5 421.5,83.5 422.5,83.5 422.5,64.7 423.5,64.7 423.5,64.7 424.5,64.7 424.5,64.7 425.5,64.7 425.5,46.0 426.5,46.0 426.5,46.0 427.5,46.0 427.5,46.0 428.5,46.0 428.5,46.0 429.5,46.0 429.5,46.0 430.5,46.0 430.5,46.0 431.5,46.0 431.5,46.0 432.5,46.0 432.5,46.0 433.5,46.0 433.5,46.0 434.5,64.7 434.5,46.0 435.5,64.7 435.5,64.7 436.5,64.7 436.5,64.7 437.5,83.5 437.5,64.7 438.5,83.5 438.5,83.5 439.5,83.5 439.5,83.5 440.5,121.0 440.5,83.5 441.5,121.0 441.5,121.0 442.5,121.0 442.5,121.0 443.5,158.5 443.5,121.0 444.5,158.5 444.5,158.5 445.5,158.5 445.5,158.5 446.5,196.0 446.5,158.5 447.5,196.0 447.5,196.0 448.5,196.0 448.5,196.0 449.5,233.5 449.5,196.0 450.5,233.5 450.5,233.5 451.5,233.5 451.5,233.5 452.5,271.0 452.5,233.5 453.5,271.0 453.5,271.0 454.5,271.0 454.5,271.0 455.5,289.8 455.5,271.0 456.5,289.8 456.5,289.8 457.5,289.8 457.5,289.8 458.5,327.3 458.5,289.8 459.5,327.3 459.5,327.3 460.5,327.3 460.5,327.3 461.5,346.0 461.5,327.3 462.5,346.0 462.5,346.0 463.5,346.0 463.5,346.0 464.5,346.0 464.5,346.0 465.5,346.0 465.5,346.0 466.5,346.0 466.5,346.0 467.5,346.0 467.5,346.0 468.5,346.0 468.5,346.0 469.5,346.0 469.5,346.0 470.5,346.0 470.5,327.3 471.5,327.3 471.5,327.3 472.5,327.3 472.5,327.3 473.5,327.3 473.5,308.5 474.5,308.5 474.5,308.5 475.5,308.5 475.5,308.5 476.5,308.5 476.5,289.8 477.5,289.8 477.5,289.8 478.5,289.8 478.5,289.8 479.5,289.8 479.5,252.3 480.5,252.3 480.5,252.3 481.5,252.3 481.5,252.3 482.5,252.3 482.5,214.8 483.5,214.8 483.5,214.8 484.5,214.8 484.5,214.8 485.5,214.8 485.5,177.3 486.5,177.3 486.5,177.3 487.5,177.3 487.5,177.3 488.5,177.3 488.5,139.8 489.5,139.8 489.5,139.8 490.5,139.8 490.5,139.8 491.5,139.8 491.5,102.3 492.5,102.3 492.5,102.3 493.5,102.3 493.5,102.3 494.5,102.3 494.5,83.5 495.5,83.5 495.5,83.5 496.5,83.5 496.5,83.5 497.5,83.5 497.5,64.7 498.5,64.7 498.5,64.7 499.5,64.7 499.5,64.7 500.5,64.7 500.5,46.0 501.5,46.0 501.5,46.0 502.5,46.0 502.5,46.0 503.5,46.0 503.5,46.0 504.5,46.0 504.5,46.0 505.5,46.0 505.5,46.0 506.5,46.0 506.5,46.0 507.5,46.0 507.5,46.0 508.5,46.0 508.5,46.0 509.5,64.7 509.5,46.0 510.5,64.7 510.5,64.7 511.5,64.7 511.5,64.7 512.5,83.5 512.5,64.7 513.5,83.5 513.5,83.5 514.5,83.5 514.5,83.5 515.5,121.0 515.5,121.0 516.5,121.0 516.5,121.0 517.5,121.0 517.5,121.0 518.5,158.5 518.5,158.5 519.5,158.5 519.5,158.5 520.5,158.5 520.5,158.5 521.5,196.0 521.5,196.0 522.5,196.0 522.5,196.0 523.5,196.0 523.5,196.0 524.5,233.5 524.5,233.5 525.5,233.5 525.5,233.5 526.5,233.5 526.5,233.5 527.5,271.0 527.5,271.0 528.5,271.0 528.5,271.0 529.5,271.0 529.5,271.0 530.5,289.8 530.5,289.8 531.5,289.8 531.5,289.8 532.5,289.8 532.5,289.8 533.5,327.3 533.5,327.3 534.5,327.3 534.5,327.3 535.5,327.3 535.5,327.3 536.5,346.0 536.5,346.0 537.5,346.0 537.5,346.0 538.5,346.0 538.5,346.0 539.5,346.0 539.5,346.0 540.5,346.0 540.5,346.0 541.5,346.0 541.5,346.0 542.5,346.0 542.5,346.0 543.5,346.0 543.5,346.0 544.5,346.0 544.5,346.0 545.5,327.3 545.5,327.3 546.5,327.3 546.5,327.3 547.5,327.3 547.5,327.3 548.5,308.5 548.5,308.5 549.5,308.5 549.5,308.5 550.5,308.5 550.5,308.5 551.5,289.8 551.5,289.8 552.5,289.8 552.5,289.8 553.5,289.8 553.5,289.8 554.5,252.3 554.5,252.3 555.5,252.3 555.5,252.3 556.5,252.3 556.5,252.3 557.5,214.8 557.5,214.8 558.5,214.8 558.5,214.8 559.5,214.8 559.5,214.8 560.5,177.3 560.5,177.3 561.5,177.3 561.5,177.3 562.5,177.3 562.5,177.3 563.5,139.8 563.5,139.8 564.5,139.8 564.5,139.8 565.5,139.8 565.5,139.8 566.5,121.0 566.5,121.0 567.5,121.0 567.5,121.0 568.5,121.0 568.5,121.0 569.5,83.5 569.5,83.5 570.5,83.5 570.5,83.5 571.5,83.5 571.5,83.5 572.5,64.7 572.5,64.7 573.5,64.7 573.5,64.7 574.5,64.7 574.5,64.7 575.5,46.0 575.5,46.0 576.5,46.0 576.5,46.0 577.5,46.0 577.5,46.0 578.5,46.0 578.5,46.0 579.5,46.0 579.5,46.0 580.5,46.0 580.5,46.0 581.5,46.0 581.5,46.0 582.5,46.0 582.5,46.0 583.5,46.0 583.5,46.0 584.5,64.7 584.5,64.7 585.5,64.7 585.5,64.7 586.5,64.7 586.5,64.7 587.5,83.5 587.5,83.5 588.5,83.5 588.5,83.5 589.5,83.5 589.5,83.5 590.5,121.0 590.5,121.0 591.5,121.0 591.5,121.0 592.5,121.0 592.5,121.0 593.5,158.5 593.5,158.5 594.5,158.5 594.5,158.5 595.5,158.5 595.5,158.5 596.5,196.0 596.5,196.0 597.5,196.0 597.5,196.0 598.5,196.0 598.5,196.0 599.5,233.5 599.5,233.5 600.5,233.5 600.5,233.5 601.5,233.5 601.5,233.5 602.5,271.0 602.5,271.0 603.5,271.0 603.5,271.0 604.5,271.0 604.5,271.0 605.5,289.8 605.5,289.8 606.5,289.8 606.5,289.8 607.5,289.8 607.5,289.8 608.5,327.3 608.5,327.3 609.5,327.3 609.5,327.3 610.5,327.3 610.5,327.3 611.5,327.3 611.5,327.3 612.5,327.3 612.5,327.3 613.5,327.3 613.5,327.3 614.5,346.0 614.5,346.0 615.5,346.0 615.5,346.0 616.5,346.0 616.5,346.0 617.5,346.0 617.5,346.0 618.5,346.0 618.5,346.0 619.5,346.0 619.5,346.0 620.5,327.3 620.5,327.3 621.5,327.3 621.5,327.3 622.5,327.3 622.5,327.3 623.5,308.5 623.5,308.5 624.5,308.5 624.5,308.5 625.5,308.5 625.5,308.5 626.5,289.8 626.5,289.8 627.5,289.8 627.5,289.8 628.5,289.8 628.5,289.8 629.5,252.3 629.5,252.3 630.5,252.3 630.5,252.3 631.5,252.3 631.5,252.3 632.5,214.8 632.5,214.8 633.5,214.8 633.5,214.8 634.5,214.8 634.5,214.8 635.5,177.3 635.5,177.3 636.5,177.3 636.5,177.3 637.5,177.3 637.5,177.3 638.5,139.8 638.5,139.8 639.5,139.8 639.5,139.8 640.5,139.8 640.5,139.8 641.5,121.0 641.5,121.0 642.5,121.0 642.5,121.0 643.5,121.0 643.5,121.0 644.5,83.5 644.5,83.5 645.5,83.5 645.5,83.5 646.5,83.5 646.5,83.5 647.5,64.7 647.5,64.7 648.5,64.7 648.5,64.7 649.5,64.7 649.5,64.7 650.5,46.0 650.5,46.0 651.5,46.0 651.5,46.0 652.5,46.0 652.5,46.0 653.5,46.0 653.5,46.0 654.5,46.0 654.5,46.0 655.5,46.0 655.5,46.0 656.5,46.0 656.5,46.0 657.5,46.0 657.5,46.0 658.5,46.0 658.5,46.0 659.5,64.7 659.5,64.7 660.5,64.7 660.5,64.7 661.5,64.7 661.5,64.7 662.5,83.5 662.5,83.5 663.5,83.5 663.5,83.5 664.5,83.5 664.5,83.5 665.5,121.0 665.5,121.0 666.5,121.0 666.5,121.0 667.5,121.0 667.5,121.0 668.5,158.5 668.5,158.5 669.5,158.5 669.5,158.5 670.5,158.5 670.5,158.5 671.5,196.0 671.5,196.0 672.5,196.0 672.5,196.0 673.5,196.0 673.5,196.0 674.5,233.5 674.5,233.5 675.5,233.5 675.5,233.5 676.5,233.5 676.5,233.5 677.5,252.3 677.5,252.3 678.5,252.3 678.5,252.3 679.5,252.3 679.5,252.3 680.5,289.8 680.5,289.8 681.5,289.8 681.5,289.8 682.5,289.8 682.5,289.8 683.5,308.5 683.5,308.5 684.5,308.5 684.5,308.5 685.5,308.5 685.5,308.5 686.5,327.3 686.5,327.3 687.5,327.3 687.5,327.3 688.5,327.3 688.5,327.3 689.5,346.0 689.5,346.0 690.5,346.0 690.5,346.0 691.5,346.0 691.5,346.0 692.5,346.0 692.5,346.0 693.5,346.0 693.5,346.0 694.5,346.0 694.5,346.0 695.5,327.3 695.5,327.3 696.5,327.3 696.5,327.3 697.5,327.3 697.5,327.3 698.5,308.5 698.5,308.5 699.5,308.5 699.5,308.5 700.5,308.5 700.5,308.5 701.5,289.8 701.5,289.8 702.5,289.8 702.5,289.8 703.5,289.8 703.5,289.8 704.5,252.3 704.5,252.3 705.5,252.3 705.5,252.3 706.5,252.3 706.5,252.3 707.5,233.5 707.5,233.5 708.5,233.5 708.5,233.5 709.5,233.5 709.5,233.5 710.5,196.0 710.5,196.0 711.5,196.0 711.5,196.0 712.5,196.0 712.5,196.0 713.5,158.5 713.5,158.5 714.5,158.5 714.5,158.5 715.5,158.5 715.5,158.5 716.5,121.0 716.5,121.0 717.5,121.0 717.5,121.0 718.5,121.0 718.5,121.0 719.5,83.5 719.5,83.5 720.5,83.5 720.5,83.5 721.5,83.5 721.5,83.5 722.5,64.7 722.5,64.7 723.5,64.7 723.5,64.7 724.5,64.7 724.5,64.7 725.5,46.0 725.5,46.0 726.5,46.0 726.5,46.0 727.5,46.0 727.5,46.0 728.5,46.0 728.5,46.0 729.5,46.0 729.5,46.0 730.5,46.0 730.5,46.0 731.5,46.0 731.5,46.0 732.5,46.0 732.5,46.0 733.5,46.0 733.5,46.0 734.5,64.7 734.5,64.7 735.5,64.7 735.5,64.7 736.5,64.7 736.5,64.7 737.5,83.5 737.5,83.5 738.5,83.5 738.5,83.5 739.5,83.5 739.5,83.5 740.5,121.0 740.5,121.0 741.5,121.0 741.5,121.0 742.5,121.0 742.5,121.0 743.5,139.8 743.5,139.8 744.5,139.8 744.5,139.8 745.5,139.8 745.5,139.8 746.5,177.3 746.5,177.3 747.5,177.3 747.5,177.3 748.5,177.3 748.5,177.3 749.5,214.8 749.5,214.8 750.5,214.8 750.5,214.8 751.5,214.8 751.5,214.8 752.5,252.3 752.5,252.3 753.5,252.3 753.5,252.3 754.5,252.3 754.5,252.3 755.5,289.8 755.5,289.8 756.5,289.8 756.5,289.8 757.5,289.8 757.5,289.8 758.5,308.5 758.5,308.5 759.5,308.5 759.5,308.5 760.5,308.5 760.5,308.5 761.5,327.3 761.5,327.3 762.5,327.3 762.5,327.3 763.5,327.3 763.5,327.3 764.5,346.0 764.5,346.0 765.5,346.0 765.5,346.0 766.5,346.0 766.5,346.0 767.5,346.0 767.5,346.0 768.5,346.0 768.5,346.0 769.5,346.0 769.5,346.0 770.5,327.3 770.5,327.3 771.5,327.3 771.5,327.3 772.5,327.3 772.5,327.3 773.5,327.3 773.5,327.3 774.5,327.3 774.5,327.3 775.5,327.3 775.5,327.3 776.5,289.8 776.5,289.8 777.5,289.8 777.5,289.8 778.5,289.8 778.5,289.8 779.5,271.0 779.5,271.0 780.5,271.0 780.5,271.0 781.5,271.0 781.5,271.0 782.5,233.5 782.5,233.5 783.5,233.5 783.5,233.5 784.5,233.5 784.5,233.5 785.5,196.0 785.5,196.0 786.5,196.0 786.5,196.0 787.5,196.0 787.5,196.0 788.5,158.5 788.5,158.5 789.5,158.5 789.5,158.5 790.5,158.5 790.5,158.5 791.5,121.0 791.5,121.0 792.5,121.0 792.5,121.0 793.5,121.0 793.5,121.0 794.5,83.5 794.5,83.5 795.5,83.5 795.5,83.5 796.5,83.5 796.5,83.5 797.5,64.7 797.5,64.7 798.5,64.7 798.5,64.7 799.5,64.7 799.5,46.0" fill="none" stroke="#3b82f6" stroke-width="1.5" stroke-linejoin="round"/>
  <line x1="34" y1="8" x2="46" y2="8" stroke="#d1d5db" stroke-width="2"/>
  <text x="49" y="11" text-anchor="start" font-size="11" fill="#6b7280">input</text>
  <line x1="88" y1="8" x2="100" y2="8" stroke="#3b82f6" stroke-width="2"/>
  <text x="103" y="11" text-anchor="start" font-size="11" fill="#6b7280">4-bit, rate=¼</text>
</svg>
