<svg xmlns="http://www.w3.org/2000/svg" viewBox="0 0 820 392" style="font-family:system-ui,-apple-system,sans-serif">
  <defs>
    <clipPath id="u8"><rect x="34" y="16" width="358" height="360"/></clipPath>

    <clipPath id="u9"><rect x="442" y="16" width="358" height="360"/></clipPath>
  </defs>
  <text x="800" y="11" text-anchor="end" font-size="11" fill="#6b7280" font-weight="600">Compressor — threshold=−18dB</text>
  <line x1="34" y1="16" x2="34" y2="376" stroke="#d1d5db" stroke-width="1"/>
  <line x1="34" y1="376" x2="392" y2="376" stroke="#d1d5db" stroke-width="1"/>
  <line x1="34" y1="376" x2="392" y2="376" stroke="#e5e7eb" stroke-width="0.5"/>
  <text x="30" y="379" text-anchor="end" font-size="8" fill="#6b7280">-60</text>
  <line x1="34" y1="316" x2="392" y2="316" stroke="#e5e7eb" stroke-width="0.5"/>
  <text x="30" y="319" text-anchor="end" font-size="8" fill="#6b7280">-50</text>
  <line x1="34" y1="256" x2="392" y2="256" stroke="#e5e7eb" stroke-width="0.5"/>
  <text x="30" y="259" text-anchor="end" font-size="8" fill="#6b7280">-40</text>
  <line x1="34" y1="196" x2="392" y2="196" stroke="#e5e7eb" stroke-width="0.5"/>
  <text x="30" y="199" text-anchor="end" font-size="8" fill="#6b7280">-30</text>
  <line x1="34" y1="136" x2="392" y2="136" stroke="#e5e7eb" stroke-width="0.5"/>
  <text x="30" y="139" text-anchor="end" font-size="8" fill="#6b7280">-20</text>
  <line x1="34" y1="76" x2="392" y2="76" stroke="#e5e7eb" stroke-width="0.5"/>
  <text x="30" y="79" text-anchor="end" font-size="8" fill="#6b7280">-10</text>
  <line x1="34" y1="16" x2="392" y2="16" stroke="#e5e7eb" stroke-width="0.5"/>
  <text x="30" y="19" text-anchor="end" font-size="8" fill="#6b7280">0</text>
  <line x1="34" y1="16" x2="34" y2="376" stroke="#e5e7eb" stroke-width="0.5"/>
  <text x="34" y="388" text-anchor="middle" font-size="8" fill="#6b7280">-60</text>
  <line x1="93.7" y1="16" x2="93.7" y2="376" stroke="#e5e7eb" stroke-width="0.5"/>
  <text x="93.7" y="388" text-anchor="middle" font-size="8" fill="#6b7280">-50</text>
  <line x1="153.3" y1="16" x2="153.3" y2="376" stroke="#e5e7eb" stroke-width="0.5"/>
  <text x="153.3" y="388" text-anchor="middle" font-size="8" fill="#6b7280">-40</text>
  <line x1="213" y1="16" x2="213" y2="376" stroke="#e5e7eb" stroke-width="0.5"/>
  <text x="213" y="388" text-anchor="middle" font-size="8" fill="#6b7280">-30</text>
  <line x1="272.7" y1="16" x2="272.7" y2="376" stroke="#e5e7eb" stroke-width="0.5"/>
  <text x="272.7" y="388" text-anchor="middle" font-size="8" fill="#6b7280">-20</text>
  <line x1="332.3" y1="16" x2="332.3" y2="376" stroke="#e5e7eb" stroke-width="0.5"/>
  <text x="332.3" y="388" text-anchor="middle" font-size="8" fill="#6b7280">-10</text>
  <line x1="392" y1="16" x2="392" y2="376" stroke="#e5e7eb" stroke-width="0.5"/>
  <text x="392" y="388" text-anchor="middle" font-size="8" fill="#6b7280">0</text>
  <polyline points="34.0,376.0 NaN,16.0" fill="none" stroke="#d1d5db" stroke-width="0.8" stroke-linejoin="round"/>
  <text x="213" y="402" text-anchor="middle" font-size="9" fill="#6b7280">input (dB)</text>
  <text x="12" y="196" text-anchor="middle" font-size="9" fill="#6b7280">output (dB)</text>
  <line x1="284.6" y1="16" x2="284.6" y2="376" stroke="#eab308" stroke-width="1"/>
  <text x="287.6" y="28" text-anchor="start" font-size="7" fill="#6b7280">threshold</text>
  <polyline clip-path="url(#u8)" points="34.0,376.0 37.0,373.1 40.0,370.1 43.0,367.1 45.9,364.1 48.9,361.1 51.9,358.1 54.9,355.1 57.9,352.1 60.8,349.1 63.8,346.1 66.8,343.1 69.8,340.1 72.8,337.1 75.8,334.1 78.8,331.1 81.7,328.1 84.7,325.1 87.7,322.1 90.7,319.1 93.7,316.1 96.7,313.1 99.6,310.1 102.6,307.1 105.6,304.1 108.6,301.1 111.6,298.1 114.5,295.1 117.5,292.1 120.5,289.1 123.5,286.1 126.5,283.1 129.5,280.1 132.4,277.1 135.4,274.1 138.4,271.1 141.4,268.1 144.4,265.1 147.4,262.1 150.4,259.1 153.3,256.1 156.3,253.1 159.3,250.1 162.3,247.1 165.3,244.1 168.3,241.1 171.2,238.1 174.2,235.1 177.2,232.1 180.2,229.1 183.2,226.1 186.2,223.1 189.1,220.1 192.1,217.1 195.1,214.1 198.1,211.1 201.1,208.1 204.0,205.2 207.0,202.2 210.0,199.3 213.0,196.4 216.0,193.6 219.0,190.7 222.0,187.8 224.9,185.0 227.9,182.2 230.9,179.4 233.9,176.7 236.9,173.9 239.8,171.2 242.8,168.5 245.8,165.8 248.8,163.1 251.8,160.5 254.8,157.8 257.8,155.2 260.7,152.6 263.7,150.0 266.7,147.5 269.7,144.9 272.7,142.4 275.6,139.9 278.6,137.4 281.6,134.9 284.6,132.5 287.6,130.1 290.6,127.7 293.6,125.3 296.5,122.9 299.5,120.5 302.5,118.2 305.5,115.9 308.5,113.6 311.4,111.3 314.4,109.0 317.4,106.8 320.4,104.6 323.4,102.4 326.4,100.2 329.3,98.0 332.3,95.9 335.3,93.7 338.3,91.6 341.3,89.5 344.3,87.5 347.3,85.4 350.2,83.4 353.2,81.3 356.2,79.3 359.2,77.4 362.2,75.4 365.2,73.5 368.1,71.5 371.1,69.6 374.1,67.7 377.1,100.6 380.1,99.9 383.1,99.1 386.0,98.4 389.0,97.6 392.0,96.9" fill="none" stroke="#3b82f6" stroke-width="1.8" stroke-linejoin="round"/>
  <polyline clip-path="url(#u8)" points="34.0,376.0 37.0,373.1 40.0,370.1 43.0,367.1 45.9,364.1 48.9,361.1 51.9,358.1 54.9,355.1 57.9,352.1 60.8,349.1 63.8,346.1 66.8,343.1 69.8,340.1 72.8,337.1 75.8,334.1 78.8,331.1 81.7,328.1 84.7,325.1 87.7,322.1 90.7,319.1 93.7,316.1 96.7,313.1 99.6,310.1 102.6,307.1 105.6,304.1 108.6,301.1 111.6,298.1 114.5,295.1 117.5,292.1 120.5,289.1 123.5,286.1 126.5,283.1 129.5,280.1 132.4,277.1 135.4,274.1 138.4,271.1 141.4,268.1 144.4,265.1 147.4,262.1 150.4,259.1 153.3,256.1 156.3,253.1 159.3,250.1 162.3,247.1 165.3,244.1 168.3,241.1 171.2,238.1 174.2,235.1 177.2,232.1 180.2,229.1 183.2,226.1 186.2,223.1 189.1,220.1 192.1,217.1 195.1,214.1 198.1,211.1 201.1,208.1 204.0,205.2 207.0,202.3 210.0,199.4 213.0,196.5 216.0,193.6 219.0,190.8 222.0,188.0 224.9,185.2 227.9,182.4 230.9,179.7 233.9,176.9 236.9,174.2 239.8,171.5 242.8,168.9 245.8,166.2 248.8,163.6 251.8,161.0 254.8,158.4 257.8,155.9 260.7,153.4 263.7,150.8 266.7,148.4 269.7,145.9 272.7,143.5 275.6,141.0 278.6,138.6 281.6,136.2 284.6,133.9 287.6,131.6 290.6,129.2 293.6,127.0 296.5,124.7 299.5,122.4 302.5,120.2 305.5,118.0 308.5,115.8 311.4,113.7 314.4,111.5 317.4,109.4 320.4,107.3 323.4,105.2 326.4,103.2 329.3,101.2 332.3,99.2 335.3,97.2 338.3,95.2 341.3,93.3 344.3,91.3 347.3,89.5 350.2,87.6 353.2,85.7 356.2,83.9 359.2,82.1 362.2,80.3 365.2,78.5 368.1,76.8 371.1,75.1 374.1,73.4 377.1,112.2 380.1,111.9 383.1,111.5 386.0,111.1 389.0,110.7 392.0,110.4" fill="none" stroke="#ef4444" stroke-width="1.8" stroke-linejoin="round"/>
  <line x1="442" y1="16" x2="442" y2="376" stroke="#d1d5db" stroke-width="1"/>
  <line x1="442" y1="376" x2="800" y2="376" stroke="#d1d5db" stroke-width="1"/>
  <line x1="442" y1="16" x2="442" y2="376" stroke="#e5e7eb" stroke-width="0.5"/>
  <text x="442" y="388" text-anchor="middle" font-size="8" fill="#6b7280">0ms</text>
  <line x1="557.6" y1="16" x2="557.6" y2="376" stroke="#e5e7eb" stroke-width="0.5"/>
  <text x="557.6" y="388" text-anchor="middle" font-size="8" fill="#6b7280">30ms</text>
  <line x1="673.3" y1="16" x2="673.3" y2="376" stroke="#e5e7eb" stroke-width="0.5"/>
  <text x="673.3" y="388" text-anchor="middle" font-size="8" fill="#6b7280">60ms</text>
  <line x1="788.9" y1="16" x2="788.9" y2="376" stroke="#e5e7eb" stroke-width="0.5"/>
  <text x="788.9" y="388" text-anchor="middle" font-size="8" fill="#6b7280">90ms</text>
  <line x1="442" y1="346" x2="800" y2="346" stroke="#e5e7eb" stroke-width="0.5"/>
  <text x="438" y="349" text-anchor="end" font-size="8" fill="#6b7280">-1</text>
  <line x1="442" y1="196" x2="800" y2="196" stroke="#e5e7eb" stroke-width="0.5"/>
  <text x="438" y="199" text-anchor="end" font-size="8" fill="#6b7280">0</text>
  <line x1="442" y1="46" x2="800" y2="46" stroke="#e5e7eb" stroke-width="0.5"/>
  <text x="438" y="49" text-anchor="end" font-size="8" fill="#6b7280">1</text>
  <line x1="442" y1="196" x2="800" y2="196" stroke="#d1d5db" stroke-width="0.5"/>
  <text x="621" y="402" text-anchor="middle" font-size="9" fill="#6b7280">time</text>
  <polyline clip-path="url(#u9)" points="442.5,196.0 442.5,195.6 443.5,195.5 443.5,194.5 444.5,194.4 444.5,193.9 445.5,194.8 445.5,193.9 446.5,197.5 446.5,195.0 447.5,200.3 447.5,197.7 448.5,201.6 448.5,200.5 449.5,201.6 449.5,199.9 450.5,199.6 450.5,195.6 451.5,195.2 451.5,190.1 452.5,189.7 452.5,186.9 453.5,188.2 453.5,186.8 454.5,193.8 454.5,188.6 455.5,202.0 455.5,194.4 456.5,207.7 456.5,202.7 457.5,208.9 457.5,208.1 458.5,207.9 458.5,202.4 459.5,201.6 459.5,192.7 460.5,191.8 460.5,182.9 461.5,182.3 461.5,179.4 462.5,184.4 462.5,179.5 463.5,195.3 463.5,185.2 464.5,208.6 464.5,196.5 465.5,215.7 465.5,209.5 466.5,216.2 466.5,213.4 467.5,212.7 467.5,202.3 468.5,201.0 468.5,187.3 469.5,186.0 469.5,174.7 470.5,174.1 470.5,172.1 471.5,182.9 471.5,173.1 472.5,199.6 472.5,184.2 473.5,216.8 473.5,201.2 474.5,223.5 474.5,217.9 475.5,223.5 475.5,216.6 476.5,215.3 476.5,199.5 477.5,197.7 477.5,179.8 478.5,178.2 478.5,166.0 479.5,167.3 479.5,164.8 480.5,184.0 480.5,168.2 481.5,206.3 481.5,185.9 482.5,226.0 482.5,208.3 483.5,230.9 483.5,227.0 484.5,230.1 484.5,219.1 485.5,217.3 485.5,194.0 486.5,191.7 486.5,170.6 487.5,168.8 487.5,157.7 488.5,163.9 488.5,157.5 489.5,187.9 489.5,165.4 490.5,215.1 490.5,190.3 491.5,235.5 491.5,217.4 492.5,238.2 492.5,235.9 493.5,235.0 493.5,217.7 494.5,215.4 494.5,186.0 495.5,183.3 495.5,160.2 496.5,158.5 496.5,150.1 497.5,163.0 497.5,150.5 498.5,194.6 498.5,165.1 499.5,225.7 499.5,197.6 500.5,244.7 500.5,228.1 501.5,245.6 501.5,239.3 502.5,237.7 502.5,213.5 503.5,210.5 503.5,175.7 504.5,172.7 504.5,149.3 505.5,147.8 505.5,142.8 506.5,164.9 506.5,145.4 507.5,203.9 507.5,167.8 508.5,237.5 508.5,207.3 509.5,252.9 509.5,239.8 510.5,252.8 510.5,240.0 511.5,237.6 511.5,206.3 512.5,202.7 512.5,163.7 513.5,160.6 513.5,138.6 514.5,140.9 514.5,135.4 515.5,169.9 515.5,142.6 516.5,215.6 516.5,173.5 517.5,249.7 517.5,219.3 518.5,260.2 518.5,251.8 519.5,259.3 519.5,237.7 520.5,234.5 520.5,196.2 521.5,192.0 521.5,150.4 522.5,147.4 522.5,128.8 523.5,140.2 523.5,128.1 524.5,178.1 524.5,142.7 525.5,229.2 525.5,182.3 526.5,261.8 526.5,233.0 527.5,267.6 527.5,263.4 528.5,263.3 528.5,232.1 529.5,228.1 529.5,183.5 530.5,178.9 530.5,136.6 531.5,133.8 531.5,120.8 532.5,142.6 532.5,121.0 533.5,189.3 533.5,146.1 534.5,244.1 534.5,194.1 535.5,272.8 535.5,247.9 536.5,274.9 536.5,266.7 537.5,264.4 537.5,223.2 538.5,218.4 538.5,168.6 539.5,163.8 539.5,123.0 540.5,120.7 540.5,113.4 541.5,148.5 541.5,116.3 542.5,203.3 542.5,152.9 543.5,259.5 543.5,208.6 544.5,282.1 544.5,263.1 545.5,282.3 545.5,265.4 546.5,262.0 546.5,211.0 547.5,205.5 547.5,152.0 548.5,147.3 548.5,110.4 549.5,112.4 549.5,106.1 550.5,158.1 550.5,114.6 551.5,219.7 551.5,163.3 552.5,271.6 552.5,225.3 553.5,289.6 553.5,274.9 554.5,288.1 554.5,260.4 555.5,256.0 555.5,195.7 556.5,189.7 556.5,134.6 557.5,130.0 557.5,99.7 558.5,113.2 558.5,98.7 559.5,171.1 559.5,116.6 560.5,237.9 560.5,177.1 561.5,286.6 561.5,243.5 562.5,296.9 562.5,289.2 563.5,290.6 563.5,251.6 564.5,246.1 564.5,177.9 565.5,171.6 565.5,116.9 566.5,112.8 566.5,91.4 567.5,117.9 567.5,91.9 568.5,187.4 568.5,122.5 569.5,257.2 569.5,194.0 570.5,300.0 570.5,262.7 571.5,304.2 571.5,292.6 572.5,289.3 572.5,238.9 573.5,232.5 573.5,158.1 574.5,151.6 574.5,100.0 575.5,96.6 575.5,84.1 576.5,126.7 576.5,88.2 577.5,206.5 577.5,132.4 578.5,276.8 578.5,213.6 579.5,310.9 579.5,281.8 580.5,311.6 580.5,288.4 581.5,283.9 581.5,222.5 582.5,215.3 582.5,136.9 583.5,130.6 583.5,84.6 584.5,85.5 584.5,76.7 585.5,139.7 585.5,88.5 586.5,220.6 586.5,146.5 587.5,295.9 587.5,228.0 588.5,319.0 588.5,300.1 589.5,318.0 589.5,279.9 590.5,274.1 590.5,202.7 591.5,194.9 591.5,115.3 592.5,109.3 592.5,71.7 593.5,88.8 593.5,69.4 594.5,156.7 594.5,93.2 595.5,243.5 595.5,164.4 596.5,313.4 596.5,251.0 597.5,326.3 597.5,316.7 598.5,320.4 598.5,266.9 599.5,259.9 599.5,180.2 600.5,172.0 600.5,94.1 601.5,88.8 601.5,62.0 602.5,96.7 602.5,62.2 603.5,177.3 603.5,102.6 604.5,267.5 604.5,185.8 605.5,328.5 605.5,274.7 606.5,333.6 606.5,322.0 607.5,318.3 607.5,249.6 608.5,241.5 608.5,155.5 609.5,147.2 609.5,74.3 610.5,70.0 610.5,54.8 611.5,109.4 611.5,58.1 612.5,201.1 612.5,116.6 613.5,291.5 613.5,210.1 614.5,340.2 614.5,298.1 615.5,340.9 615.5,316.5 616.5,311.2 616.5,228.3 617.5,219.3 617.5,129.6 618.5,121.5 618.5,56.8 619.5,55.4 619.5,47.4 620.5,126.7 620.5,58.7 621.5,227.0 621.5,135.2 622.5,312.2 622.5,236.1 623.5,343.6 623.5,317.7 624.5,342.0 624.5,301.4 625.5,294.7 625.5,203.1 626.5,193.9 626.5,109.2 627.5,102.2 627.5,54.0 628.5,71.0 628.5,52.0 629.5,144.6 629.5,75.7 630.5,249.0 630.5,153.0 631.5,319.8 631.5,257.1 632.5,336.3 632.5,323.7 633.5,329.0 633.5,277.7 634.5,270.4 634.5,178.7 635.5,170.1 635.5,95.9 636.5,90.2 636.5,59.3 637.5,90.9 637.5,59.6 638.5,169.8 638.5,96.5 639.5,266.9 639.5,178.2 640.5,322.4 640.5,273.9 641.5,329.0 641.5,316.5 642.5,312.8 642.5,253.6 643.5,246.1 643.5,157.4 644.5,149.7 644.5,87.4 645.5,83.2 645.5,66.7 646.5,112.3 646.5,70.4 647.5,193.3 647.5,118.6 648.5,280.5 648.5,201.3 649.5,320.4 649.5,286.2 650.5,321.6 650.5,299.0 651.5,294.3 651.5,230.2 652.5,222.7 652.5,139.8 653.5,133.1 653.5,83.6 654.5,81.5 654.5,74.0 655.5,134.2 655.5,84.4 656.5,214.2 656.5,140.9 657.5,289.6 657.5,221.6 658.5,314.3 658.5,294.0 659.5,313.8 659.5,279.8 660.5,274.4 660.5,208.3 661.5,201.0 661.5,126.3 662.5,120.7 662.5,84.2 663.5,93.5 663.5,81.4 664.5,155.8 664.5,96.9 665.5,232.0 665.5,162.5 666.5,294.3 666.5,238.6 667.5,307.0 667.5,297.3 668.5,302.9 668.5,259.9 669.5,254.2 669.5,188.5 670.5,181.8 670.5,116.9 671.5,112.4 671.5,88.8 672.5,109.8 672.5,88.7 673.5,176.1 673.5,114.0 674.5,246.3 674.5,182.6 675.5,294.8 675.5,251.9 676.5,299.6 676.5,292.2 677.5,289.6 677.5,240.3 678.5,234.4 678.5,171.7 679.5,165.5 679.5,111.6 680.5,108.4 680.5,96.0 681.5,127.2 681.5,97.8 682.5,194.5 682.5,131.9 683.5,256.7 683.5,200.6 684.5,291.5 684.5,261.3 685.5,292.3 685.5,277.8 686.5,274.5 686.5,221.6 687.5,215.8 687.5,158.0 688.5,152.7 688.5,110.3 689.5,108.3 689.5,103.4 690.5,144.8 690.5,109.4 691.5,210.3 691.5,149.7 692.5,263.3 692.5,215.8 693.5,284.9 693.5,266.9 694.5,284.5 694.5,262.3 695.5,258.5 695.5,204.7 696.5,199.2 696.5,147.9 697.5,143.6 697.5,114.0 698.5,120.1 698.5,110.7 699.5,161.8 699.5,122.7 700.5,223.1 700.5,166.6 701.5,266.2 701.5,227.9 702.5,277.6 702.5,268.6 703.5,274.4 703.5,246.5 704.5,242.5 704.5,190.1 705.5,185.1 705.5,141.4 706.5,138.0 706.5,118.5 707.5,133.8 707.5,118.1 708.5,177.4 708.5,136.9 709.5,232.6 709.5,182.1 710.5,265.5 710.5,236.6 711.5,270.3 711.5,264.6 712.5,262.7 712.5,231.3 713.5,227.2 713.5,178.3 714.5,174.0 714.5,138.5 715.5,136.0 715.5,125.4 716.5,147.9 716.5,126.0 717.5,191.0 717.5,151.2 718.5,238.7 718.5,195.3 719.5,261.8 719.5,241.9 720.5,262.9 720.5,252.5 721.5,250.1 721.5,217.3 722.5,213.3 722.5,169.6 723.5,166.0 723.5,138.8 724.5,137.2 724.5,132.7 725.5,161.5 725.5,135.8 726.5,202.2 726.5,164.9 727.5,241.5 727.5,206.0 728.5,255.6 728.5,243.9 729.5,255.5 729.5,240.0 730.5,237.4 730.5,205.0 731.5,201.4 731.5,167.0 732.5,164.0 732.5,142.0 733.5,145.0 733.5,140.1 734.5,174.0 734.5,146.5 735.5,210.6 735.5,177.2 736.5,241.3 736.5,213.8 737.5,248.2 737.5,242.8 738.5,246.9 738.5,227.9 739.5,225.3 739.5,195.1 740.5,192.0 740.5,163.8 741.5,161.6 741.5,147.6 742.5,155.9 742.5,147.4 743.5,184.8 743.5,157.7 744.5,216.1 744.5,187.7 745.5,238.3 745.5,218.6 746.5,240.9 746.5,238.3 747.5,237.2 747.5,216.9 748.5,214.4 748.5,187.9 749.5,185.3 749.5,163.6 750.5,162.0 750.5,154.8 751.5,166.5 751.5,155.2 752.5,193.4 752.5,168.3 753.5,218.6 753.5,195.8 754.5,233.1 754.5,220.4 755.5,233.6 755.5,228.6 756.5,227.3 756.5,207.5 757.5,205.3 757.5,183.4 758.5,181.4 758.5,166.0 759.5,165.1 759.5,162.1 760.5,176.3 760.5,163.9 761.5,199.4 761.5,178.0 762.5,218.3 762.5,201.4 763.5,226.2 763.5,219.5 764.5,226.2 764.5,219.1 765.5,217.9 765.5,202.1 766.5,200.3 766.5,181.8 767.5,180.3 767.5,170.6 768.5,172.1 768.5,169.4 769.5,184.5 769.5,172.8 770.5,202.8 770.5,186.0 771.5,215.5 771.5,204.2 772.5,218.9 772.5,216.2 773.5,218.1 773.5,210.6 774.5,209.5 774.5,196.8 775.5,195.5 775.5,182.8 776.5,181.9 776.5,176.9 777.5,180.5 777.5,176.8 778.5,190.8 778.5,181.3 779.5,203.4 779.5,191.9 780.5,210.6 780.5,204.3 781.5,211.6 781.5,210.4 782.5,210.0 782.5,203.6 783.5,202.8 783.5,194.2 784.5,193.4 784.5,186.2 785.5,185.8 785.5,184.1 786.5,188.0 786.5,184.2 787.5,194.7 787.5,188.6 788.5,201.5 788.5,195.4 789.5,204.2 789.5,201.9 790.5,204.3 790.5,202.7 791.5,202.4 791.5,198.5 792.5,198.1 792.5,194.2 793.5,193.9 793.5,191.5 794.5,191.7 794.5,191.3 795.5,193.9 795.5,191.9 796.5,196.1 796.5,194.2 797.5,197.3 797.5,196.3 798.5,197.3 798.5,196.9 799.5,196.9 799.5,196.1" fill="none" stroke="#d1d5db" stroke-width="1" stroke-linejoin="round"/>
  <polyline clip-path="url(#u9)" points="442.5,196.0 442.5,195.6 443.5,195.5 443.5,194.5 444.5,194.4 444.5,193.9 445.5,194.8 445.5,193.9 446.5,197.5 446.5,195.0 447.5,200.3 447.5,197.7 448.5,201.6 448.5,200.5 449.5,201.6 449.5,199.9 450.5,199.6 450.5,195.6 451.5,195.2 451.5,190.1 452.5,189.7 452.5,186.9 453.5,188.2 453.5,186.8 454.5,193.8 454.5,188.6 455.5,202.0 455.5,194.4 456.5,207.7 456.5,202.7 457.5,208.9 457.5,208.1 458.5,207.9 458.5,202.4 459.5,201.6 459.5,192.7 460.5,191.8 460.5,182.9 461.5,182.3 461.5,179.4 462.5,184.4 462.5,179.5 463.5,195.3 463.5,185.2 464.5,208.6 464.5,196.5 465.5,215.7 465.5,209.5 466.5,216.2 466.5,213.4 467.5,212.7 467.5,202.3 468.5,201.0 468.5,187.3 469.5,186.0 469.5,174.7 470.5,174.1 470.5,172.1 471.5,182.9 471.5,173.1 472.5,199.6 472.5,184.2 473.5,216.7 473.5,201.2 474.5,223.3 474.5,217.8 475.5,223.3 475.5,216.3 476.5,215.1 476.5,199.4 477.5,197.6 477.5,180.1 478.5,178.6 478.5,166.9 479.5,168.4 479.5,165.8 480.5,184.5 480.5,169.2 481.5,205.8 481.5,186.3 482.5,224.4 482.5,207.7 483.5,228.7 483.5,225.4 484.5,227.9 484.5,217.4 485.5,215.8 485.5,194.2 486.5,192.0 486.5,172.6 487.5,171.0 487.5,161.1 488.5,167.2 488.5,161.0 489.5,188.7 489.5,168.5 490.5,213.1 490.5,190.9 491.5,230.9 491.5,215.1 492.5,233.1 492.5,230.8 493.5,230.0 493.5,214.8 494.5,212.8 494.5,187.3 495.5,185.0 495.5,165.2 496.5,163.7 496.5,157.0 497.5,168.3 497.5,157.5 498.5,194.8 498.5,170.1 499.5,220.9 499.5,197.3 500.5,236.3 500.5,222.9 501.5,236.8 501.5,231.3 502.5,230.0 502.5,210.2 503.5,207.8 503.5,179.5 504.5,177.1 504.5,158.2 505.5,157.1 505.5,153.4 506.5,171.5 506.5,155.7 507.5,202.3 507.5,173.7 508.5,228.7 508.5,205.0 509.5,240.3 509.5,230.6 510.5,240.2 510.5,229.9 511.5,228.0 511.5,203.9 512.5,201.1 512.5,171.1 513.5,168.7 513.5,152.1 514.5,154.5 514.5,150.0 515.5,176.5 515.5,155.8 516.5,210.7 516.5,179.1 517.5,236.2 517.5,213.5 518.5,243.6 518.5,237.8 519.5,242.8 519.5,226.5 520.5,224.2 520.5,196.1 521.5,193.1 521.5,162.5 522.5,160.3 522.5,147.2 523.5,155.9 523.5,146.8 524.5,183.2 524.5,157.8 525.5,219.8 525.5,186.2 526.5,243.0 526.5,222.6 527.5,246.7 527.5,244.1 528.5,243.4 528.5,221.3 529.5,218.5 529.5,187.2 530.5,184.0 530.5,154.3 531.5,152.4 531.5,143.8 532.5,159.3 532.5,144.1 533.5,191.4 533.5,161.7 534.5,229.1 534.5,194.7 535.5,248.5 535.5,231.7 536.5,249.7 536.5,243.8 537.5,242.2 537.5,214.3 538.5,211.1 538.5,177.5 539.5,174.3 539.5,146.9 540.5,145.4 540.5,140.9 541.5,164.6 541.5,143.0 542.5,200.9 542.5,167.5 543.5,238.1 543.5,204.4 544.5,252.5 544.5,240.4 545.5,252.6 545.5,241.1 546.5,238.9 546.5,205.7 547.5,202.2 547.5,167.4 548.5,164.2 548.5,140.6 549.5,142.4 549.5,138.0 550.5,171.8 550.5,143.9 551.5,211.2 551.5,175.1 552.5,244.3 552.5,214.8 553.5,255.3 553.5,246.4 554.5,254.2 554.5,236.5 555.5,233.7 555.5,195.8 556.5,192.1 556.5,157.3 557.5,154.4 557.5,135.8 558.5,144.7 558.5,135.3 559.5,180.6 559.5,146.9 560.5,222.0 560.5,184.3 561.5,252.0 561.5,225.5 562.5,258.0 562.5,253.6 563.5,253.8 563.5,229.9 564.5,226.5 564.5,184.9 565.5,181.1 565.5,147.7 566.5,145.2 566.5,132.7 567.5,149.1 567.5,133.1 568.5,190.8 568.5,151.9 569.5,232.9 569.5,194.8 570.5,258.3 570.5,236.1 571.5,260.6 571.5,253.2 572.5,251.2 572.5,221.4 573.5,217.6 573.5,173.5 574.5,169.7 574.5,139.1 575.5,137.2 575.5,130.2 576.5,155.6 576.5,132.9 577.5,202.2 577.5,158.9 578.5,243.3 578.5,206.3 579.5,262.7 579.5,246.2 580.5,263.0 580.5,249.2 581.5,246.5 581.5,211.2 582.5,207.1 582.5,161.9 583.5,158.2 583.5,132.0 584.5,133.1 584.5,127.8 585.5,164.0 585.5,134.9 586.5,210.0 586.5,167.9 587.5,252.8 587.5,214.2 588.5,265.4 588.5,255.2 589.5,264.7 589.5,243.0 590.5,239.8 590.5,199.8 591.5,195.4 591.5,150.6 592.5,147.3 592.5,126.5 593.5,136.6 593.5,125.4 594.5,174.2 594.5,139.1 595.5,222.4 595.5,178.5 596.5,261.1 596.5,226.5 597.5,267.8 597.5,262.8 598.5,264.2 598.5,234.8 599.5,230.9 599.5,187.3 600.5,182.8 600.5,140.1 601.5,137.2 601.5,123.1 602.5,142.3 602.5,123.2 603.5,185.9 603.5,145.5 604.5,234.8 604.5,190.5 605.5,267.5 605.5,238.7 606.5,270.0 606.5,263.4 607.5,261.4 607.5,224.7 608.5,220.3 608.5,174.3 609.5,169.9 609.5,130.8 610.5,128.6 610.5,120.9 611.5,150.3 611.5,122.9 612.5,198.7 612.5,154.1 613.5,246.6 613.5,203.4 614.5,271.9 614.5,250.1 615.5,272.2 615.5,228.9 616.5,227.4 616.5,204.8 617.5,202.4 617.5,161.2 618.5,160.0 618.5,129.5 619.5,158.4 619.5,155.8 620.5,177.5 620.5,159.3 621.5,204.3 621.5,179.8 622.5,227.2 622.5,206.8 623.5,235.1 623.5,228.7 624.5,234.5 624.5,223.6 625.5,221.9 625.5,197.9 626.5,195.5 626.5,173.1 627.5,171.2 627.5,158.8 628.5,163.6 628.5,158.4 629.5,182.7 629.5,164.8 630.5,209.8 630.5,184.9 631.5,228.3 631.5,212.0 632.5,232.3 632.5,229.3 633.5,230.3 633.5,217.0 634.5,215.2 634.5,191.5 635.5,189.2 635.5,169.8 636.5,168.3 636.5,160.4 637.5,168.8 637.5,160.6 638.5,189.2 638.5,170.3 639.5,214.5 639.5,191.4 640.5,229.0 640.5,216.3 641.5,230.5 641.5,227.2 642.5,226.2 642.5,210.9 643.5,209.0 643.5,185.9 644.5,183.9 644.5,167.6 645.5,166.5 645.5,162.4 646.5,174.3 646.5,163.4 647.5,195.3 647.5,175.9 648.5,218.1 648.5,197.4 649.5,228.5 649.5,219.6 650.5,228.8 650.5,222.8 651.5,221.6 651.5,204.9 652.5,203.0 652.5,181.2 653.5,179.5 653.5,166.4 654.5,166.0 654.5,164.0 655.5,179.8 655.5,166.8 656.5,200.8 656.5,181.5 657.5,220.8 657.5,202.8 658.5,227.3 658.5,221.9 659.5,227.1 659.5,218.1 660.5,216.7 660.5,199.3 661.5,197.3 661.5,177.4 662.5,175.9 662.5,166.2 663.5,168.7 663.5,165.4 664.5,185.3 664.5,169.6 665.5,205.7 665.5,187.0 666.5,222.5 666.5,207.5 667.5,225.9 667.5,223.3 668.5,224.8 668.5,213.2 669.5,211.7 669.5,194.0 670.5,192.1 670.5,174.4 671.5,173.2 671.5,166.8 672.5,172.5 672.5,166.8 673.5,190.6 673.5,173.6 674.5,222.4 674.5,192.3 675.5,247.9 675.5,225.4 676.5,250.4 676.5,246.5 677.5,245.2 677.5,219.3 678.5,216.2 678.5,183.1 679.5,179.9 679.5,151.4 680.5,149.7 680.5,143.2 681.5,159.6 681.5,144.1 682.5,195.2 682.5,162.1 683.5,228.3 683.5,198.4 684.5,246.8 684.5,230.7 685.5,247.2 685.5,239.5 686.5,237.7 686.5,209.6 687.5,206.6 687.5,175.7 688.5,172.9 688.5,150.2 689.5,149.1 689.5,146.4 690.5,168.6 690.5,149.6 691.5,203.7 691.5,171.2 692.5,232.3 692.5,206.7 693.5,243.9 693.5,234.2 694.5,243.7 694.5,231.7 695.5,229.7 695.5,200.7 696.5,197.7 696.5,170.0 697.5,167.6 697.5,151.5 698.5,154.8 698.5,149.8 699.5,177.4 699.5,156.2 700.5,210.8 700.5,180.1 701.5,234.3 701.5,213.4 702.5,240.5 702.5,235.6 703.5,238.8 703.5,223.6 704.5,221.4 704.5,192.8 705.5,190.0 705.5,166.0 706.5,164.2 706.5,153.4 707.5,161.8 707.5,153.2 708.5,185.7 708.5,163.5 709.5,216.2 709.5,188.3 710.5,234.5 710.5,218.5 711.5,237.1 711.5,234.0 712.5,233.0 712.5,215.6 713.5,213.3 713.5,186.1 714.5,183.7 714.5,163.9 715.5,162.5 715.5,156.6 716.5,169.1 716.5,157.0 717.5,193.2 717.5,171.0 718.5,220.0 718.5,195.6 719.5,233.0 719.5,221.8 720.5,233.6 720.5,227.8 721.5,226.5 721.5,208.0 722.5,205.8 722.5,181.0 723.5,179.0 723.5,163.6 724.5,162.7 724.5,160.2 725.5,176.4 725.5,161.9 726.5,199.5 726.5,178.3 727.5,222.0 727.5,201.7 728.5,230.0 728.5,223.3 729.5,230.0 729.5,221.1 730.5,219.7 730.5,201.2 731.5,199.1 731.5,179.3 732.5,177.6 732.5,164.9 733.5,166.6 733.5,163.8 734.5,183.3 734.5,167.5 735.5,204.5 735.5,185.2 736.5,222.3 736.5,206.3 737.5,226.3 737.5,223.2 738.5,225.6 738.5,214.5 739.5,213.0 739.5,195.5 740.5,193.7 740.5,177.2 741.5,175.8 741.5,167.6 742.5,172.5 742.5,167.5 743.5,189.4 743.5,173.5 744.5,207.8 744.5,191.1 745.5,221.0 745.5,209.3 746.5,222.5 746.5,221.0 747.5,220.4 747.5,208.4 748.5,206.9 748.5,191.2 749.5,189.6 749.5,176.7 750.5,175.7 750.5,171.4 751.5,178.4 751.5,171.7 752.5,194.4 752.5,179.5 753.5,209.6 753.5,195.9 754.5,218.3 754.5,210.7 755.5,218.7 755.5,215.7 756.5,214.9 756.5,203.0 757.5,201.6 757.5,188.4 758.5,187.1 758.5,177.7 759.5,177.2 759.5,175.3 760.5,184.0 760.5,176.5 761.5,198.1 761.5,185.0 762.5,209.7 762.5,199.3 763.5,214.6 763.5,210.5 764.5,214.6 764.5,210.3 765.5,209.5 765.5,199.8 766.5,198.7 766.5,187.2 767.5,186.3 767.5,180.2 768.5,181.1 768.5,179.5 769.5,188.8 769.5,181.6 770.5,200.2 770.5,189.7 771.5,208.2 771.5,201.1 772.5,210.4 772.5,208.7 773.5,209.9 773.5,205.2 774.5,204.5 774.5,196.5 775.5,195.7 775.5,187.6 776.5,187.0 776.5,183.8 777.5,186.1 777.5,183.7 778.5,192.7 778.5,186.6 779.5,200.8 779.5,193.4 780.5,205.4 780.5,201.3 781.5,206.1 781.5,205.3 782.5,205.0 782.5,200.9 783.5,200.4 783.5,194.8 784.5,194.3 784.5,189.6 785.5,189.3 785.5,188.2 786.5,190.7 786.5,188.3 787.5,195.2 787.5,191.1 788.5,199.6 788.5,195.6 789.5,201.5 789.5,199.9 790.5,201.5 790.5,200.5 791.5,200.3 791.5,197.7 792.5,197.4 792.5,194.8 793.5,194.6 793.5,193.0 794.5,193.1 794.5,192.8 795.5,194.6 795.5,193.2 796.5,196.1 796.5,194.7 797.5,196.9 797.5,196.2 798.5,196.9 798.5,196.7 799.5,196.6 799.5,196.0" fill="none" stroke="#3b82f6" stroke-width="1.5" stroke-linejoin="round"/>
  <line x1="442" y1="8" x2="454" y2="8" stroke="#d1d5db" stroke-width="2"/>
  <text x="457" y="11" text-anchor="start" font-size="11" fill="#6b7280">input</text>
  <line x1="496" y1="8" x2="508" y2="8" stroke="#3b82f6" stroke-width="2"/>
  <text x="511" y="11" text-anchor="start" font-size="11" fill="#6b7280">output</text>
  <line x1="34" y1="10" x2="46" y2="10" stroke="#3b82f6" stroke-width="2"/>
  <text x="49" y="13" text-anchor="start" font-size="11" fill="#6b7280">4:1</text>
  <line x1="76.4" y1="10" x2="88.4" y2="10" stroke="#ef4444" stroke-width="2"/>
  <text x="91.4" y="13" text-anchor="start" font-size="11" fill="#6b7280">8:1</text>
</svg>
