<svg xmlns="http://www.w3.org/2000/svg" viewBox="0 0 820 392" style="font-family:system-ui,-apple-system,sans-serif">
  <defs>
    <clipPath id="u26"><rect x="34" y="16" width="358" height="360"/></clipPath>

    <clipPath id="u27"><rect x="442" y="16" width="358" height="360"/></clipPath>
  </defs>
  <text x="800" y="11" text-anchor="end" font-size="11" fill="#6b7280" font-weight="600">Distortion — transfer curves (drive=0.6)</text>
  <line x1="34" y1="16" x2="34" y2="376" stroke="#d1d5db" stroke-width="1"/>
  <line x1="34" y1="376" x2="392" y2="376" stroke="#d1d5db" stroke-width="1"/>
  <line x1="34" y1="316" x2="392" y2="316" stroke="#e5e7eb" stroke-width="0.5"/>
  <text x="30" y="319" text-anchor="end" font-size="8" fill="#6b7280">-1</text>
  <line x1="34" y1="196" x2="392" y2="196" stroke="#e5e7eb" stroke-width="0.5"/>
  <text x="30" y="199" text-anchor="end" font-size="8" fill="#6b7280">0</text>
  <line x1="34" y1="76" x2="392" y2="76" stroke="#e5e7eb" stroke-width="0.5"/>
  <text x="30" y="79" text-anchor="end" font-size="8" fill="#6b7280">1</text>
  <line x1="34" y1="16" x2="34" y2="376" stroke="#e5e7eb" stroke-width="0.5"/>
  <text x="34" y="388" text-anchor="middle" font-size="8" fill="#6b7280">-2</text>
  <line x1="123.5" y1="16" x2="123.5" y2="376" stroke="#e5e7eb" stroke-width="0.5"/>
  <text x="123.5" y="388" text-anchor="middle" font-size="8" fill="#6b7280">-1</text>
  <line x1="213" y1="16" x2="213" y2="376" stroke="#e5e7eb" stroke-width="0.5"/>
  <text x="213" y="388" text-anchor="middle" font-size="8" fill="#6b7280">0</text>
  <line x1="302.5" y1="16" x2="302.5" y2="376" stroke="#e5e7eb" stroke-width="0.5"/>
  <text x="302.5" y="388" text-anchor="middle" font-size="8" fill="#6b7280">1</text>
  <line x1="392" y1="16" x2="392" y2="376" stroke="#e5e7eb" stroke-width="0.5"/>
  <text x="392" y="388" text-anchor="middle" font-size="8" fill="#6b7280">2</text>
  <polyline points="34.0,136.0 392.0,-44.0" fill="none" stroke="#d1d5db" stroke-width="0.8" stroke-dasharray="4 3"/>
  <text x="213" y="402" text-anchor="middle" font-size="9" fill="#6b7280">input</text>
  <text x="12" y="196" text-anchor="middle" font-size="9" fill="#6b7280">output</text>
  <polyline clip-path="url(#u26)" points="34.5,316.0 34.5,316.0 35.5,316.0 35.5,316.0 36.5,316.0 36.5,316.0 37.5,316.0 37.5,316.0 38.5,316.0 38.5,316.0 39.5,316.0 39.5,316.0 40.5,316.0 40.5,316.0 41.5,316.0 41.5,316.0 42.5,316.0 42.5,316.0 43.5,316.0 43.5,316.0 44.5,316.0 44.5,316.0 45.5,316.0 45.5,316.0 46.5,316.0 46.5,316.0 47.5,316.0 47.5,316.0 48.5,316.0 48.5,316.0 49.5,316.0 49.5,316.0 50.5,316.0 50.5,316.0 51.5,316.0 51.5,316.0 52.5,316.0 52.5,316.0 53.5,316.0 53.5,316.0 54.5,316.0 54.5,316.0 55.5,316.0 55.5,316.0 56.5,316.0 56.5,316.0 57.5,316.0 57.5,316.0 58.5,316.0 58.5,316.0 59.5,316.0 59.5,316.0 60.5,316.0 60.5,316.0 61.5,316.0 61.5,316.0 62.5,316.0 62.5,316.0 63.5,316.0 63.5,316.0 64.5,316.0 64.5,316.0 65.5,316.0 65.5,316.0 66.5,316.0 66.5,316.0 67.5,316.0 67.5,316.0 68.5,316.0 68.5,316.0 69.5,316.0 69.5,316.0 70.5,316.0 70.5,316.0 71.5,316.0 71.5,316.0 72.5,316.0 72.5,316.0 73.5,316.0 73.5,316.0 74.5,316.0 74.5,316.0 75.5,316.0 75.5,316.0 76.5,316.0 76.5,316.0 77.5,316.0 77.5,316.0 78.5,316.0 78.5,316.0 79.5,316.0 79.5,316.0 80.5,316.0 80.5,316.0 81.5,316.0 81.5,316.0 82.5,316.0 82.5,316.0 83.5,316.0 83.5,316.0 84.5,316.0 84.5,316.0 85.5,316.0 85.5,316.0 86.5,316.0 86.5,316.0 87.5,316.0 87.5,316.0 88.5,316.0 88.5,316.0 89.5,316.0 89.5,316.0 90.5,316.0 90.5,316.0 91.5,316.0 91.5,316.0 92.5,316.0 92.5,316.0 93.5,316.0 93.5,316.0 94.5,316.0 94.5,316.0 95.5,316.0 95.5,316.0 96.5,316.0 96.5,316.0 97.5,316.0 97.5,316.0 98.5,316.0 98.5,316.0 99.5,316.0 99.5,316.0 100.5,316.0 100.5,316.0 101.5,316.0 101.5,316.0 102.5,316.0 102.5,316.0 103.5,316.0 103.5,316.0 104.5,316.0 104.5,316.0 105.5,316.0 105.5,316.0 106.5,316.0 106.5,316.0 107.5,316.0 107.5,316.0 108.5,316.0 108.5,316.0 109.5,316.0 109.5,316.0 110.5,316.0 110.5,316.0 111.5,316.0 111.5,316.0 112.5,316.0 112.5,316.0 113.5,316.0 113.5,316.0 114.5,316.0 114.5,316.0 115.5,316.0 115.5,316.0 116.5,316.0 116.5,316.0 117.5,316.0 117.5,316.0 118.5,316.0 118.5,316.0 119.5,316.0 119.5,316.0 120.5,316.0 120.5,316.0 121.5,316.0 121.5,316.0 122.5,316.0 122.5,316.0 123.5,316.0 123.5,316.0 124.5,316.0 124.5,316.0 125.5,316.0 125.5,316.0 126.5,316.0 126.5,316.0 127.5,316.0 127.5,316.0 128.5,316.0 128.5,316.0 129.5,316.0 129.5,316.0 130.5,316.0 130.5,316.0 131.5,316.0 131.5,316.0 132.5,316.0 132.5,316.0 133.5,316.0 133.5,316.0 134.5,316.0 134.5,316.0 135.5,316.0 135.5,316.0 136.5,316.0 136.5,316.0 137.5,316.0 137.5,316.0 138.5,316.0 138.5,316.0 139.5,316.0 139.5,316.0 140.5,316.0 140.5,316.0 141.5,316.0 141.5,316.0 142.5,316.0 142.5,316.0 143.5,316.0 143.5,316.0 144.5,316.0 144.5,316.0 145.5,316.0 145.5,316.0 146.5,316.0 146.5,316.0 147.5,316.0 147.5,316.0 148.5,316.0 148.5,316.0 149.5,316.0 149.5,316.0 150.5,316.0 150.5,316.0 151.5,316.0 151.5,316.0 152.5,316.0 152.5,316.0 153.5,316.0 153.5,316.0 154.5,316.0 154.5,316.0 155.5,316.0 155.5,316.0 156.5,316.0 156.5,316.0 157.5,316.0 157.5,316.0 158.5,316.0 158.5,316.0 159.5,316.0 159.5,316.0 160.5,316.0 160.5,316.0 161.5,316.0 161.5,316.0 162.5,316.0 162.5,316.0 163.5,316.0 163.5,316.0 164.5,316.0 164.5,316.0 165.5,316.0 165.5,316.0 166.5,316.0 166.5,316.0 167.5,316.0 167.5,316.0 168.5,316.0 168.5,316.0 169.5,316.0 169.5,316.0 170.5,316.0 170.5,316.0 171.5,316.0 171.5,316.0 172.5,316.0 172.5,316.0 173.5,316.0 173.5,316.0 174.5,316.0 174.5,316.0 175.5,316.0 175.5,316.0 176.5,316.0 176.5,316.0 177.5,316.0 177.5,316.0 178.5,316.0 178.5,316.0 179.5,316.0 179.5,316.0 180.5,316.0 180.5,316.0 181.5,316.0 181.5,316.0 182.5,316.0 182.5,316.0 183.5,316.0 183.5,316.0 184.5,316.0 184.5,316.0 185.5,316.0 185.5,316.0 186.5,316.0 186.5,316.0 187.5,316.0 187.5,316.0 188.5,316.0 188.5,316.0 189.5,316.0 189.5,316.0 190.5,316.0 190.5,316.0 191.5,316.0 191.5,316.0 192.5,316.0 192.5,316.0 193.5,316.0 193.5,316.0 194.5,316.0 194.5,316.0 195.5,316.0 195.5,316.0 196.5,316.0 196.5,316.0 197.5,316.0 197.5,316.0 198.5,316.0 198.5,316.0 199.5,316.0 199.5,316.0 200.5,315.1 200.5,315.1 201.5,312.9 201.5,312.9 202.5,309.4 202.5,309.4 203.5,304.7 203.5,304.7 204.5,298.9 204.5,292.1 205.5,284.4 205.5,284.4 206.5,275.9 206.5,275.9 207.5,266.7 207.5,266.7 208.5,256.9 208.5,256.9 209.5,246.5 209.5,246.5 210.5,235.7 210.5,235.7 211.5,224.6 211.5,224.6 212.5,213.3 212.5,201.8 213.5,190.2 213.5,190.2 214.5,178.7 214.5,178.7 215.5,167.4 215.5,167.4 216.5,156.3 216.5,156.3 217.5,145.5 217.5,145.5 218.5,135.1 218.5,135.1 219.5,125.3 219.5,125.3 220.5,116.1 220.5,116.1 221.5,107.6 221.5,99.9 222.5,93.1 222.5,93.1 223.5,87.3 223.5,87.3 224.5,82.6 224.5,82.6 225.5,79.1 225.5,79.1 226.5,76.9 226.5,76.9 227.5,76.0 227.5,76.0 228.5,76.0 228.5,76.0 229.5,76.0 229.5,76.0 230.5,76.0 230.5,76.0 231.5,76.0 231.5,76.0 232.5,76.0 232.5,76.0 233.5,76.0 233.5,76.0 234.5,76.0 234.5,76.0 235.5,76.0 235.5,76.0 236.5,76.0 236.5,76.0 237.5,76.0 237.5,76.0 238.5,76.0 238.5,76.0 239.5,76.0 239.5,76.0 240.5,76.0 240.5,76.0 241.5,76.0 241.5,76.0 242.5,76.0 242.5,76.0 243.5,76.0 243.5,76.0 244.5,76.0 244.5,76.0 245.5,76.0 245.5,76.0 246.5,76.0 246.5,76.0 247.5,76.0 247.5,76.0 248.5,76.0 248.5,76.0 249.5,76.0 249.5,76.0 250.5,76.0 250.5,76.0 251.5,76.0 251.5,76.0 252.5,76.0 252.5,76.0 253.5,76.0 253.5,76.0 254.5,76.0 254.5,76.0 255.5,76.0 255.5,76.0 256.5,76.0 256.5,76.0 257.5,76.0 257.5,76.0 258.5,76.0 258.5,76.0 259.5,76.0 259.5,76.0 260.5,76.0 260.5,76.0 261.5,76.0 261.5,76.0 262.5,76.0 262.5,76.0 263.5,76.0 263.5,76.0 264.5,76.0 264.5,76.0 265.5,76.0 265.5,76.0 266.5,76.0 266.5,76.0 267.5,76.0 267.5,76.0 268.5,76.0 268.5,76.0 269.5,76.0 269.5,76.0 270.5,76.0 270.5,76.0 271.5,76.0 271.5,76.0 272.5,76.0 272.5,76.0 273.5,76.0 273.5,76.0 274.5,76.0 274.5,76.0 275.5,76.0 275.5,76.0 276.5,76.0 276.5,76.0 277.5,76.0 277.5,76.0 278.5,76.0 278.5,76.0 279.5,76.0 279.5,76.0 280.5,76.0 280.5,76.0 281.5,76.0 281.5,76.0 282.5,76.0 282.5,76.0 283.5,76.0 283.5,76.0 284.5,76.0 284.5,76.0 285.5,76.0 285.5,76.0 286.5,76.0 286.5,76.0 287.5,76.0 287.5,76.0 288.5,76.0 288.5,76.0 289.5,76.0 289.5,76.0 290.5,76.0 290.5,76.0 291.5,76.0 291.5,76.0 292.5,76.0 292.5,76.0 293.5,76.0 293.5,76.0 294.5,76.0 294.5,76.0 295.5,76.0 295.5,76.0 296.5,76.0 296.5,76.0 297.5,76.0 297.5,76.0 298.5,76.0 298.5,76.0 299.5,76.0 299.5,76.0 300.5,76.0 300.5,76.0 301.5,76.0 301.5,76.0 302.5,76.0 302.5,76.0 303.5,76.0 303.5,76.0 304.5,76.0 304.5,76.0 305.5,76.0 305.5,76.0 306.5,76.0 306.5,76.0 307.5,76.0 307.5,76.0 308.5,76.0 308.5,76.0 309.5,76.0 309.5,76.0 310.5,76.0 310.5,76.0 311.5,76.0 311.5,76.0 312.5,76.0 312.5,76.0 313.5,76.0 313.5,76.0 314.5,76.0 314.5,76.0 315.5,76.0 315.5,76.0 316.5,76.0 316.5,76.0 317.5,76.0 317.5,76.0 318.5,76.0 318.5,76.0 319.5,76.0 319.5,76.0 320.5,76.0 320.5,76.0 321.5,76.0 321.5,76.0 322.5,76.0 322.5,76.0 323.5,76.0 323.5,76.0 324.5,76.0 324.5,76.0 325.5,76.0 325.5,76.0 326.5,76.0 326.5,76.0 327.5,76.0 327.5,76.0 328.5,76.0 328.5,76.0 329.5,76.0 329.5,76.0 330.5,76.0 330.5,76.0 331.5,76.0 331.5,76.0 332.5,76.0 332.5,76.0 333.5,76.0 333.5,76.0 334.5,76.0 334.5,76.0 335.5,76.0 335.5,76.0 336.5,76.0 336.5,76.0 337.5,76.0 337.5,76.0 338.5,76.0 338.5,76.0 339.5,76.0 339.5,76.0 340.5,76.0 340.5,76.0 341.5,76.0 341.5,76.0 342.5,76.0 342.5,76.0 343.5,76.0 343.5,76.0 344.5,76.0 344.5,76.0 345.5,76.0 345.5,76.0 346.5,76.0 346.5,76.0 347.5,76.0 347.5,76.0 348.5,76.0 348.5,76.0 349.5,76.0 349.5,76.0 350.5,76.0 350.5,76.0 351.5,76.0 351.5,76.0 352.5,76.0 352.5,76.0 353.5,76.0 353.5,76.0 354.5,76.0 354.5,76.0 355.5,76.0 355.5,76.0 356.5,76.0 356.5,76.0 357.5,76.0 357.5,76.0 358.5,76.0 358.5,76.0 359.5,76.0 359.5,76.0 360.5,76.0 360.5,76.0 361.5,76.0 361.5,76.0 362.5,76.0 362.5,76.0 363.5,76.0 363.5,76.0 364.5,76.0 364.5,76.0 365.5,76.0 365.5,76.0 366.5,76.0 366.5,76.0 367.5,76.0 367.5,76.0 368.5,76.0 368.5,76.0 369.5,76.0 369.5,76.0 370.5,76.0 370.5,76.0 371.5,76.0 371.5,76.0 372.5,76.0 372.5,76.0 373.5,76.0 373.5,76.0 374.5,76.0 374.5,76.0 375.5,76.0 375.5,76.0 376.5,76.0 376.5,76.0 377.5,76.0 377.5,76.0 378.5,76.0 378.5,76.0 379.5,76.0 379.5,76.0 380.5,76.0 380.5,76.0 381.5,76.0 381.5,76.0 382.5,76.0 382.5,76.0 383.5,76.0 383.5,76.0 384.5,76.0 384.5,76.0 385.5,76.0 385.5,76.0 386.5,76.0 386.5,76.0 387.5,76.0 387.5,76.0 388.5,76.0 388.5,76.0 389.5,76.0 389.5,76.0 390.5,76.0 390.5,76.0 391.5,76.0 391.5,76.0" fill="none" stroke="#3b82f6" stroke-width="1.8" stroke-linejoin="round"/>
  <polyline clip-path="url(#u26)" points="34.5,316.0 34.5,316.0 35.5,316.0 35.5,316.0 36.5,316.0 36.5,316.0 37.5,316.0 37.5,316.0 38.5,316.0 38.5,316.0 39.5,316.0 39.5,316.0 40.5,316.0 40.5,316.0 41.5,316.0 41.5,316.0 42.5,316.0 42.5,316.0 43.5,316.0 43.5,316.0 44.5,316.0 44.5,316.0 45.5,316.0 45.5,316.0 46.5,316.0 46.5,316.0 47.5,316.0 47.5,316.0 48.5,316.0 48.5,316.0 49.5,316.0 49.5,316.0 50.5,316.0 50.5,316.0 51.5,316.0 51.5,316.0 52.5,316.0 52.5,316.0 53.5,316.0 53.5,316.0 54.5,316.0 54.5,316.0 55.5,316.0 55.5,316.0 56.5,316.0 56.5,316.0 57.5,316.0 57.5,316.0 58.5,316.0 58.5,316.0 59.5,316.0 59.5,316.0 60.5,316.0 60.5,316.0 61.5,316.0 61.5,316.0 62.5,316.0 62.5,316.0 63.5,316.0 63.5,316.0 64.5,316.0 64.5,316.0 65.5,316.0 65.5,316.0 66.5,316.0 66.5,316.0 67.5,316.0 67.5,316.0 68.5,316.0 68.5,316.0 69.5,316.0 69.5,316.0 70.5,316.0 70.5,316.0 71.5,316.0 71.5,316.0 72.5,316.0 72.5,316.0 73.5,316.0 73.5,316.0 74.5,316.0 74.5,316.0 75.5,316.0 75.5,316.0 76.5,316.0 76.5,316.0 77.5,316.0 77.5,316.0 78.5,316.0 78.5,316.0 79.5,316.0 79.5,316.0 80.5,316.0 80.5,316.0 81.5,316.0 81.5,316.0 82.5,316.0 82.5,316.0 83.5,316.0 83.5,316.0 84.5,316.0 84.5,316.0 85.5,316.0 85.5,316.0 86.5,316.0 86.5,316.0 87.5,316.0 87.5,316.0 88.5,316.0 88.5,316.0 89.5,316.0 89.5,316.0 90.5,316.0 90.5,316.0 91.5,316.0 91.5,316.0 92.5,316.0 92.5,316.0 93.5,316.0 93.5,316.0 94.5,316.0 94.5,316.0 95.5,316.0 95.5,316.0 96.5,316.0 96.5,316.0 97.5,316.0 97.5,316.0 98.5,316.0 98.5,316.0 99.5,316.0 99.5,316.0 100.5,316.0 100.5,316.0 101.5,316.0 101.5,316.0 102.5,316.0 102.5,316.0 103.5,316.0 103.5,316.0 104.5,316.0 104.5,316.0 105.5,316.0 105.5,316.0 106.5,316.0 106.5,316.0 107.5,316.0 107.5,316.0 108.5,316.0 108.5,316.0 109.5,316.0 109.5,316.0 110.5,316.0 110.5,316.0 111.5,316.0 111.5,316.0 112.5,316.0 112.5,316.0 113.5,316.0 113.5,316.0 114.5,316.0 114.5,316.0 115.5,316.0 115.5,316.0 116.5,316.0 116.5,316.0 117.5,316.0 117.5,316.0 118.5,316.0 118.5,316.0 119.5,316.0 119.5,316.0 120.5,316.0 120.5,316.0 121.5,316.0 121.5,316.0 122.5,316.0 122.5,316.0 123.5,316.0 123.5,316.0 124.5,316.0 124.5,316.0 125.5,316.0 125.5,316.0 126.5,316.0 126.5,316.0 127.5,316.0 127.5,316.0 128.5,316.0 128.5,316.0 129.5,316.0 129.5,316.0 130.5,316.0 130.5,316.0 131.5,316.0 131.5,316.0 132.5,316.0 132.5,316.0 133.5,316.0 133.5,316.0 134.5,316.0 134.5,316.0 135.5,316.0 135.5,316.0 136.5,316.0 136.5,316.0 137.5,316.0 137.5,316.0 138.5,316.0 138.5,316.0 139.5,316.0 139.5,316.0 140.5,316.0 140.5,316.0 141.5,316.0 141.5,316.0 142.5,316.0 142.5,316.0 143.5,316.0 143.5,316.0 144.5,316.0 144.5,316.0 145.5,316.0 145.5,316.0 146.5,316.0 146.5,316.0 147.5,316.0 147.5,316.0 148.5,316.0 148.5,316.0 149.5,316.0 149.5,316.0 150.5,316.0 150.5,316.0 151.5,316.0 151.5,316.0 152.5,316.0 152.5,316.0 153.5,316.0 153.5,316.0 154.5,316.0 154.5,316.0 155.5,316.0 155.5,316.0 156.5,316.0 156.5,316.0 157.5,316.0 157.5,316.0 158.5,316.0 158.5,316.0 159.5,316.0 159.5,316.0 160.5,316.0 160.5,316.0 161.5,316.0 161.5,316.0 162.5,316.0 162.5,316.0 163.5,316.0 163.5,316.0 164.5,316.0 164.5,316.0 165.5,316.0 165.5,316.0 166.5,316.0 166.5,316.0 167.5,316.0 167.5,316.0 168.5,316.0 168.5,316.0 169.5,316.0 169.5,316.0 170.5,316.0 170.5,316.0 171.5,316.0 171.5,316.0 172.5,316.0 172.5,316.0 173.5,316.0 173.5,316.0 174.5,316.0 174.5,316.0 175.5,316.0 175.5,316.0 176.5,316.0 176.5,316.0 177.5,316.0 177.5,316.0 178.5,316.0 178.5,316.0 179.5,316.0 179.5,316.0 180.5,316.0 180.5,316.0 181.5,316.0 181.5,316.0 182.5,316.0 182.5,316.0 183.5,316.0 183.5,316.0 184.5,316.0 184.5,316.0 185.5,316.0 185.5,316.0 186.5,316.0 186.5,316.0 187.5,316.0 187.5,316.0 188.5,316.0 188.5,316.0 189.5,316.0 189.5,316.0 190.5,316.0 190.5,316.0 191.5,316.0 191.5,316.0 192.5,316.0 192.5,316.0 193.5,316.0 193.5,316.0 194.5,316.0 194.5,316.0 195.5,316.0 195.5,316.0 196.5,316.0 196.5,316.0 197.5,316.0 197.5,316.0 198.5,316.0 198.5,316.0 199.5,315.3 199.5,315.3 200.5,307.6 200.5,307.6 201.5,299.9 201.5,299.9 202.5,292.2 202.5,292.2 203.5,284.5 203.5,284.5 204.5,276.8 204.5,269.1 205.5,261.4 205.5,261.4 206.5,253.7 206.5,253.7 207.5,246.0 207.5,246.0 208.5,238.3 208.5,238.3 209.5,230.6 209.5,230.6 210.5,222.9 210.5,222.9 211.5,215.2 211.5,215.2 212.5,207.5 212.5,199.8 213.5,192.2 213.5,192.2 214.5,184.5 214.5,184.5 215.5,176.8 215.5,176.8 216.5,169.1 216.5,169.1 217.5,161.4 217.5,161.4 218.5,153.7 218.5,153.7 219.5,146.0 219.5,146.0 220.5,138.3 220.5,138.3 221.5,130.6 221.5,122.9 222.5,115.2 222.5,115.2 223.5,107.5 223.5,107.5 224.5,99.8 224.5,99.8 225.5,92.1 225.5,92.1 226.5,84.4 226.5,84.4 227.5,76.7 227.5,76.7 228.5,76.0 228.5,76.0 229.5,76.0 229.5,76.0 230.5,76.0 230.5,76.0 231.5,76.0 231.5,76.0 232.5,76.0 232.5,76.0 233.5,76.0 233.5,76.0 234.5,76.0 234.5,76.0 235.5,76.0 235.5,76.0 236.5,76.0 236.5,76.0 237.5,76.0 237.5,76.0 238.5,76.0 238.5,76.0 239.5,76.0 239.5,76.0 240.5,76.0 240.5,76.0 241.5,76.0 241.5,76.0 242.5,76.0 242.5,76.0 243.5,76.0 243.5,76.0 244.5,76.0 244.5,76.0 245.5,76.0 245.5,76.0 246.5,76.0 246.5,76.0 247.5,76.0 247.5,76.0 248.5,76.0 248.5,76.0 249.5,76.0 249.5,76.0 250.5,76.0 250.5,76.0 251.5,76.0 251.5,76.0 252.5,76.0 252.5,76.0 253.5,76.0 253.5,76.0 254.5,76.0 254.5,76.0 255.5,76.0 255.5,76.0 256.5,76.0 256.5,76.0 257.5,76.0 257.5,76.0 258.5,76.0 258.5,76.0 259.5,76.0 259.5,76.0 260.5,76.0 260.5,76.0 261.5,76.0 261.5,76.0 262.5,76.0 262.5,76.0 263.5,76.0 263.5,76.0 264.5,76.0 264.5,76.0 265.5,76.0 265.5,76.0 266.5,76.0 266.5,76.0 267.5,76.0 267.5,76.0 268.5,76.0 268.5,76.0 269.5,76.0 269.5,76.0 270.5,76.0 270.5,76.0 271.5,76.0 271.5,76.0 272.5,76.0 272.5,76.0 273.5,76.0 273.5,76.0 274.5,76.0 274.5,76.0 275.5,76.0 275.5,76.0 276.5,76.0 276.5,76.0 277.5,76.0 277.5,76.0 278.5,76.0 278.5,76.0 279.5,76.0 279.5,76.0 280.5,76.0 280.5,76.0 281.5,76.0 281.5,76.0 282.5,76.0 282.5,76.0 283.5,76.0 283.5,76.0 284.5,76.0 284.5,76.0 285.5,76.0 285.5,76.0 286.5,76.0 286.5,76.0 287.5,76.0 287.5,76.0 288.5,76.0 288.5,76.0 289.5,76.0 289.5,76.0 290.5,76.0 290.5,76.0 291.5,76.0 291.5,76.0 292.5,76.0 292.5,76.0 293.5,76.0 293.5,76.0 294.5,76.0 294.5,76.0 295.5,76.0 295.5,76.0 296.5,76.0 296.5,76.0 297.5,76.0 297.5,76.0 298.5,76.0 298.5,76.0 299.5,76.0 299.5,76.0 300.5,76.0 300.5,76.0 301.5,76.0 301.5,76.0 302.5,76.0 302.5,76.0 303.5,76.0 303.5,76.0 304.5,76.0 304.5,76.0 305.5,76.0 305.5,76.0 306.5,76.0 306.5,76.0 307.5,76.0 307.5,76.0 308.5,76.0 308.5,76.0 309.5,76.0 309.5,76.0 310.5,76.0 310.5,76.0 311.5,76.0 311.5,76.0 312.5,76.0 312.5,76.0 313.5,76.0 313.5,76.0 314.5,76.0 314.5,76.0 315.5,76.0 315.5,76.0 316.5,76.0 316.5,76.0 317.5,76.0 317.5,76.0 318.5,76.0 318.5,76.0 319.5,76.0 319.5,76.0 320.5,76.0 320.5,76.0 321.5,76.0 321.5,76.0 322.5,76.0 322.5,76.0 323.5,76.0 323.5,76.0 324.5,76.0 324.5,76.0 325.5,76.0 325.5,76.0 326.5,76.0 326.5,76.0 327.5,76.0 327.5,76.0 328.5,76.0 328.5,76.0 329.5,76.0 329.5,76.0 330.5,76.0 330.5,76.0 331.5,76.0 331.5,76.0 332.5,76.0 332.5,76.0 333.5,76.0 333.5,76.0 334.5,76.0 334.5,76.0 335.5,76.0 335.5,76.0 336.5,76.0 336.5,76.0 337.5,76.0 337.5,76.0 338.5,76.0 338.5,76.0 339.5,76.0 339.5,76.0 340.5,76.0 340.5,76.0 341.5,76.0 341.5,76.0 342.5,76.0 342.5,76.0 343.5,76.0 343.5,76.0 344.5,76.0 344.5,76.0 345.5,76.0 345.5,76.0 346.5,76.0 346.5,76.0 347.5,76.0 347.5,76.0 348.5,76.0 348.5,76.0 349.5,76.0 349.5,76.0 350.5,76.0 350.5,76.0 351.5,76.0 351.5,76.0 352.5,76.0 352.5,76.0 353.5,76.0 353.5,76.0 354.5,76.0 354.5,76.0 355.5,76.0 355.5,76.0 356.5,76.0 356.5,76.0 357.5,76.0 357.5,76.0 358.5,76.0 358.5,76.0 359.5,76.0 359.5,76.0 360.5,76.0 360.5,76.0 361.5,76.0 361.5,76.0 362.5,76.0 362.5,76.0 363.5,76.0 363.5,76.0 364.5,76.0 364.5,76.0 365.5,76.0 365.5,76.0 366.5,76.0 366.5,76.0 367.5,76.0 367.5,76.0 368.5,76.0 368.5,76.0 369.5,76.0 369.5,76.0 370.5,76.0 370.5,76.0 371.5,76.0 371.5,76.0 372.5,76.0 372.5,76.0 373.5,76.0 373.5,76.0 374.5,76.0 374.5,76.0 375.5,76.0 375.5,76.0 376.5,76.0 376.5,76.0 377.5,76.0 377.5,76.0 378.5,76.0 378.5,76.0 379.5,76.0 379.5,76.0 380.5,76.0 380.5,76.0 381.5,76.0 381.5,76.0 382.5,76.0 382.5,76.0 383.5,76.0 383.5,76.0 384.5,76.0 384.5,76.0 385.5,76.0 385.5,76.0 386.5,76.0 386.5,76.0 387.5,76.0 387.5,76.0 388.5,76.0 388.5,76.0 389.5,76.0 389.5,76.0 390.5,76.0 390.5,76.0 391.5,76.0 391.5,76.0" fill="none" stroke="#ef4444" stroke-width="1.8" stroke-linejoin="round"/>
  <polyline clip-path="url(#u26)" points="34.5,316.0 34.5,316.0 35.5,316.0 35.5,316.0 36.5,316.0 36.5,316.0 37.5,316.0 37.5,316.0 38.5,316.0 38.5,316.0 39.5,316.0 39.5,316.0 40.5,316.0 40.5,316.0 41.5,316.0 41.5,316.0 42.5,316.0 42.5,316.0 43.5,316.0 43.5,316.0 44.5,316.0 44.5,316.0 45.5,316.0 45.5,316.0 46.5,316.0 46.5,316.0 47.5,316.0 47.5,316.0 48.5,316.0 48.5,316.0 49.5,316.0 49.5,316.0 50.5,316.0 50.5,316.0 51.5,316.0 51.5,316.0 52.5,316.0 52.5,316.0 53.5,316.0 53.5,316.0 54.5,316.0 54.5,316.0 55.5,316.0 55.5,316.0 56.5,316.0 56.5,316.0 57.5,316.0 57.5,316.0 58.5,316.0 58.5,316.0 59.5,316.0 59.5,316.0 60.5,316.0 60.5,316.0 61.5,316.0 61.5,316.0 62.5,316.0 62.5,316.0 63.5,316.0 63.5,316.0 64.5,316.0 64.5,316.0 65.5,316.0 65.5,316.0 66.5,316.0 66.5,316.0 67.5,316.0 67.5,316.0 68.5,316.0 68.5,316.0 69.5,316.0 69.5,316.0 70.5,316.0 70.5,316.0 71.5,316.0 71.5,316.0 72.5,316.0 72.5,316.0 73.5,316.0 73.5,316.0 74.5,316.0 74.5,316.0 75.5,316.0 75.5,316.0 76.5,316.0 76.5,316.0 77.5,316.0 77.5,316.0 78.5,316.0 78.5,316.0 79.5,316.0 79.5,316.0 80.5,316.0 80.5,316.0 81.5,316.0 81.5,316.0 82.5,316.0 82.5,316.0 83.5,316.0 83.5,316.0 84.5,316.0 84.5,316.0 85.5,316.0 85.5,316.0 86.5,316.0 86.5,316.0 87.5,316.0 87.5,316.0 88.5,316.0 88.5,316.0 89.5,316.0 89.5,316.0 90.5,316.0 90.5,316.0 91.5,316.0 91.5,316.0 92.5,316.0 92.5,316.0 93.5,316.0 93.5,316.0 94.5,316.0 94.5,316.0 95.5,316.0 95.5,316.0 96.5,316.0 96.5,316.0 97.5,316.0 97.5,316.0 98.5,316.0 98.5,316.0 99.5,316.0 99.5,316.0 100.5,316.0 100.5,316.0 101.5,316.0 101.5,316.0 102.5,316.0 102.5,316.0 103.5,316.0 103.5,316.0 104.5,316.0 104.5,316.0 105.5,316.0 105.5,316.0 106.5,316.0 106.5,316.0 107.5,316.0 107.5,316.0 108.5,316.0 108.5,316.0 109.5,316.0 109.5,316.0 110.5,316.0 110.5,316.0 111.5,316.0 111.5,316.0 112.5,316.0 112.5,316.0 113.5,316.0 113.5,316.0 114.5,316.0 114.5,316.0 115.5,316.0 115.5,316.0 116.5,316.0 116.5,316.0 117.5,316.0 117.5,316.0 118.5,316.0 118.5,316.0 119.5,316.0 119.5,316.0 120.5,316.0 120.5,316.0 121.5,316.0 121.5,316.0 122.5,316.0 122.5,316.0 123.5,316.0 123.5,316.0 124.5,316.0 124.5,316.0 125.5,316.0 125.5,316.0 126.5,316.0 126.5,316.0 127.5,316.0 127.5,316.0 128.5,316.0 128.5,316.0 129.5,316.0 129.5,316.0 130.5,316.0 130.5,316.0 131.5,316.0 131.5,316.0 132.5,316.0 132.5,316.0 133.5,316.0 133.5,316.0 134.5,316.0 134.5,316.0 135.5,316.0 135.5,316.0 136.5,316.0 136.5,316.0 137.5,316.0 137.5,316.0 138.5,316.0 138.5,316.0 139.5,316.0 139.5,316.0 140.5,316.0 140.5,316.0 141.5,316.0 141.5,316.0 142.5,316.0 142.5,316.0 143.5,316.0 143.5,316.0 144.5,316.0 144.5,316.0 145.5,316.0 145.5,316.0 146.5,316.0 146.5,316.0 147.5,316.0 147.5,316.0 148.5,316.0 148.5,316.0 149.5,316.0 149.5,316.0 150.5,316.0 150.5,316.0 151.5,316.0 151.5,316.0 152.5,316.0 152.5,316.0 153.5,316.0 153.5,316.0 154.5,315.9 154.5,315.9 155.5,315.9 155.5,315.9 156.5,315.9 156.5,315.9 157.5,315.9 157.5,315.9 158.5,315.9 158.5,315.9 159.5,315.9 159.5,315.9 160.5,315.9 160.5,315.9 161.5,315.9 161.5,315.9 162.5,315.8 162.5,315.8 163.5,315.8 163.5,315.8 164.5,315.8 164.5,315.8 165.5,315.7 165.5,315.7 166.5,315.7 166.5,315.7 167.5,315.7 167.5,315.7 168.5,315.6 168.5,315.6 169.5,315.6 169.5,315.6 170.5,315.5 170.5,315.5 171.5,315.4 171.5,315.4 172.5,315.3 172.5,315.3 173.5,315.2 173.5,315.2 174.5,315.1 174.5,315.1 175.5,315.0 175.5,315.0 176.5,314.8 176.5,314.8 177.5,314.7 177.5,314.7 178.5,314.5 178.5,314.3 179.5,314.1 179.5,314.1 180.5,313.8 180.5,313.8 181.5,313.5 181.5,313.5 182.5,313.2 182.5,313.2 183.5,312.8 183.5,312.8 184.5,312.3 184.5,312.3 185.5,311.9 185.5,311.9 186.5,311.3 186.5,311.3 187.5,310.7 187.5,310.0 188.5,309.2 188.5,309.2 189.5,308.3 189.5,308.3 190.5,307.2 190.5,307.2 191.5,306.1 191.5,306.1 192.5,304.8 192.5,304.8 193.5,303.3 193.5,303.3 194.5,301.7 194.5,301.7 195.5,299.9 195.5,297.8 196.5,295.6 196.5,295.6 197.5,293.0 197.5,293.0 198.5,290.2 198.5,290.2 199.5,287.1 199.5,287.1 200.5,283.7 200.5,283.7 201.5,279.9 201.5,279.9 202.5,275.8 202.5,275.8 203.5,271.3 203.5,271.3 204.5,266.5 204.5,261.3 205.5,255.6 205.5,255.6 206.5,249.7 206.5,249.7 207.5,243.3 207.5,243.3 208.5,236.7 208.5,236.7 209.5,229.7 209.5,229.7 210.5,222.5 210.5,222.5 211.5,215.1 211.5,215.1 212.5,207.5 212.5,199.8 213.5,192.2 213.5,192.2 214.5,184.5 214.5,184.5 215.5,176.9 215.5,176.9 216.5,169.5 216.5,169.5 217.5,162.3 217.5,162.3 218.5,155.3 218.5,155.3 219.5,148.7 219.5,148.7 220.5,142.3 220.5,142.3 221.5,136.4 221.5,130.7 222.5,125.5 222.5,125.5 223.5,120.7 223.5,120.7 224.5,116.2 224.5,116.2 225.5,112.1 225.5,112.1 226.5,108.3 226.5,108.3 227.5,104.9 227.5,104.9 228.5,101.8 228.5,101.8 229.5,99.0 229.5,99.0 230.5,96.4 230.5,94.2 231.5,92.1 231.5,92.1 232.5,90.3 232.5,90.3 233.5,88.7 233.5,88.7 234.5,87.2 234.5,87.2 235.5,85.9 235.5,85.9 236.5,84.8 236.5,84.8 237.5,83.7 237.5,83.7 238.5,82.8 238.5,82.0 239.5,81.3 239.5,81.3 240.5,80.7 240.5,80.7 241.5,80.1 241.5,80.1 242.5,79.7 242.5,79.7 243.5,79.2 243.5,79.2 244.5,78.8 244.5,78.8 245.5,78.5 245.5,78.5 246.5,78.2 246.5,78.2 247.5,77.9 247.5,77.7 248.5,77.5 248.5,77.5 249.5,77.3 249.5,77.3 250.5,77.2 250.5,77.2 251.5,77.0 251.5,77.0 252.5,76.9 252.5,76.9 253.5,76.8 253.5,76.8 254.5,76.7 254.5,76.7 255.5,76.6 255.5,76.5 256.5,76.5 256.5,76.5 257.5,76.4 257.5,76.4 258.5,76.4 258.5,76.4 259.5,76.3 259.5,76.3 260.5,76.3 260.5,76.3 261.5,76.3 261.5,76.3 262.5,76.2 262.5,76.2 263.5,76.2 263.5,76.2 264.5,76.2 264.5,76.1 265.5,76.1 265.5,76.1 266.5,76.1 266.5,76.1 267.5,76.1 267.5,76.1 268.5,76.1 268.5,76.1 269.5,76.1 269.5,76.1 270.5,76.1 270.5,76.1 271.5,76.1 271.5,76.1 272.5,76.1 272.5,76.0 273.5,76.0 273.5,76.0 274.5,76.0 274.5,76.0 275.5,76.0 275.5,76.0 276.5,76.0 276.5,76.0 277.5,76.0 277.5,76.0 278.5,76.0 278.5,76.0 279.5,76.0 279.5,76.0 280.5,76.0 280.5,76.0 281.5,76.0 281.5,76.0 282.5,76.0 282.5,76.0 283.5,76.0 283.5,76.0 284.5,76.0 284.5,76.0 285.5,76.0 285.5,76.0 286.5,76.0 286.5,76.0 287.5,76.0 287.5,76.0 288.5,76.0 288.5,76.0 289.5,76.0 289.5,76.0 290.5,76.0 290.5,76.0 291.5,76.0 291.5,76.0 292.5,76.0 292.5,76.0 293.5,76.0 293.5,76.0 294.5,76.0 294.5,76.0 295.5,76.0 295.5,76.0 296.5,76.0 296.5,76.0 297.5,76.0 297.5,76.0 298.5,76.0 298.5,76.0 299.5,76.0 299.5,76.0 300.5,76.0 300.5,76.0 301.5,76.0 301.5,76.0 302.5,76.0 302.5,76.0 303.5,76.0 303.5,76.0 304.5,76.0 304.5,76.0 305.5,76.0 305.5,76.0 306.5,76.0 306.5,76.0 307.5,76.0 307.5,76.0 308.5,76.0 308.5,76.0 309.5,76.0 309.5,76.0 310.5,76.0 310.5,76.0 311.5,76.0 311.5,76.0 312.5,76.0 312.5,76.0 313.5,76.0 313.5,76.0 314.5,76.0 314.5,76.0 315.5,76.0 315.5,76.0 316.5,76.0 316.5,76.0 317.5,76.0 317.5,76.0 318.5,76.0 318.5,76.0 319.5,76.0 319.5,76.0 320.5,76.0 320.5,76.0 321.5,76.0 321.5,76.0 322.5,76.0 322.5,76.0 323.5,76.0 323.5,76.0 324.5,76.0 324.5,76.0 325.5,76.0 325.5,76.0 326.5,76.0 326.5,76.0 327.5,76.0 327.5,76.0 328.5,76.0 328.5,76.0 329.5,76.0 329.5,76.0 330.5,76.0 330.5,76.0 331.5,76.0 331.5,76.0 332.5,76.0 332.5,76.0 333.5,76.0 333.5,76.0 334.5,76.0 334.5,76.0 335.5,76.0 335.5,76.0 336.5,76.0 336.5,76.0 337.5,76.0 337.5,76.0 338.5,76.0 338.5,76.0 339.5,76.0 339.5,76.0 340.5,76.0 340.5,76.0 341.5,76.0 341.5,76.0 342.5,76.0 342.5,76.0 343.5,76.0 343.5,76.0 344.5,76.0 344.5,76.0 345.5,76.0 345.5,76.0 346.5,76.0 346.5,76.0 347.5,76.0 347.5,76.0 348.5,76.0 348.5,76.0 349.5,76.0 349.5,76.0 350.5,76.0 350.5,76.0 351.5,76.0 351.5,76.0 352.5,76.0 352.5,76.0 353.5,76.0 353.5,76.0 354.5,76.0 354.5,76.0 355.5,76.0 355.5,76.0 356.5,76.0 356.5,76.0 357.5,76.0 357.5,76.0 358.5,76.0 358.5,76.0 359.5,76.0 359.5,76.0 360.5,76.0 360.5,76.0 361.5,76.0 361.5,76.0 362.5,76.0 362.5,76.0 363.5,76.0 363.5,76.0 364.5,76.0 364.5,76.0 365.5,76.0 365.5,76.0 366.5,76.0 366.5,76.0 367.5,76.0 367.5,76.0 368.5,76.0 368.5,76.0 369.5,76.0 369.5,76.0 370.5,76.0 370.5,76.0 371.5,76.0 371.5,76.0 372.5,76.0 372.5,76.0 373.5,76.0 373.5,76.0 374.5,76.0 374.5,76.0 375.5,76.0 375.5,76.0 376.5,76.0 376.5,76.0 377.5,76.0 377.5,76.0 378.5,76.0 378.5,76.0 379.5,76.0 379.5,76.0 380.5,76.0 380.5,76.0 381.5,76.0 381.5,76.0 382.5,76.0 382.5,76.0 383.5,76.0 383.5,76.0 384.5,76.0 384.5,76.0 385.5,76.0 385.5,76.0 386.5,76.0 386.5,76.0 387.5,76.0 387.5,76.0 388.5,76.0 388.5,76.0 389.5,76.0 389.5,76.0 390.5,76.0 390.5,76.0 391.5,76.0 391.5,76.0" fill="none" stroke="#22c55e" stroke-width="1.8" stroke-linejoin="round"/>
  <polyline clip-path="url(#u26)" points="34.5,292.0 34.5,292.0 35.5,284.3 35.5,284.3 36.5,276.6 36.5,276.6 37.5,268.9 37.5,268.9 38.5,261.2 38.5,261.2 39.5,253.5 39.5,253.5 40.5,245.8 40.5,245.8 41.5,238.1 41.5,238.1 42.5,230.4 42.5,222.7 43.5,215.0 43.5,215.0 44.5,207.3 44.5,207.3 45.5,199.6 45.5,199.6 46.5,191.9 46.5,191.9 47.5,184.2 47.5,184.2 48.5,176.5 48.5,176.5 49.5,168.8 49.5,168.8 50.5,161.1 50.5,161.1 51.5,153.4 51.5,145.7 52.5,138.0 52.5,138.0 53.5,130.3 53.5,130.3 54.5,122.6 54.5,122.6 55.5,114.9 55.5,114.9 56.5,107.2 56.5,107.2 57.5,99.5 57.5,99.5 58.5,91.8 58.5,91.8 59.5,84.1 59.5,76.4 60.5,83.3 60.5,83.3 61.5,91.0 61.5,91.0 62.5,98.7 62.5,98.7 63.5,106.4 63.5,106.4 64.5,114.1 64.5,114.1 65.5,121.8 65.5,121.8 66.5,129.5 66.5,129.5 67.5,137.2 67.5,137.2 68.5,152.6 68.5,144.9 69.5,160.3 69.5,160.3 70.5,168.0 70.5,168.0 71.5,175.7 71.5,175.7 72.5,183.4 72.5,183.4 73.5,191.1 73.5,191.1 74.5,198.8 74.5,198.8 75.5,206.5 75.5,206.5 76.5,221.9 76.5,214.2 77.5,229.6 77.5,229.6 78.5,237.3 78.5,237.3 79.5,245.0 79.5,245.0 80.5,252.7 80.5,252.7 81.5,260.4 81.5,260.4 82.5,268.1 82.5,268.1 83.5,275.8 83.5,275.8 84.5,283.5 84.5,283.5 85.5,298.9 85.5,291.2 86.5,306.6 86.5,306.6 87.5,314.3 87.5,314.3 88.5,310.0 88.5,310.0 89.5,302.3 89.5,302.3 90.5,294.6 90.5,294.6 91.5,286.9 91.5,286.9 92.5,279.2 92.5,279.2 93.5,271.5 93.5,263.8 94.5,256.2 94.5,256.2 95.5,248.5 95.5,248.5 96.5,240.8 96.5,240.8 97.5,233.1 97.5,233.1 98.5,225.4 98.5,225.4 99.5,217.7 99.5,217.7 100.5,210.0 100.5,210.0 101.5,202.3 101.5,202.3 102.5,194.6 102.5,186.9 103.5,179.2 103.5,179.2 104.5,171.5 104.5,171.5 105.5,163.8 105.5,163.8 106.5,156.1 106.5,156.1 107.5,148.4 107.5,148.4 108.5,140.7 108.5,140.7 109.5,133.0 109.5,133.0 110.5,125.3 110.5,117.6 111.5,109.9 111.5,109.9 112.5,102.2 112.5,102.2 113.5,94.5 113.5,94.5 114.5,86.8 114.5,86.8 115.5,79.1 115.5,79.1 116.5,80.6 116.5,80.6 117.5,88.3 117.5,88.3 118.5,96.0 118.5,96.0 119.5,111.4 119.5,103.7 120.5,119.1 120.5,119.1 121.5,126.8 121.5,126.8 122.5,134.5 122.5,134.5 123.5,142.2 123.5,142.2 124.5,149.9 124.5,149.9 125.5,157.6 125.5,157.6 126.5,165.3 126.5,165.3 127.5,180.7 127.5,173.0 128.5,188.4 128.5,188.4 129.5,196.1 129.5,196.1 130.5,203.8 130.5,203.8 131.5,211.5 131.5,211.5 132.5,219.2 132.5,219.2 133.5,226.9 133.5,226.9 134.5,234.6 134.5,234.6 135.5,242.3 135.5,242.3 136.5,257.7 136.5,250.0 137.5,265.4 137.5,265.4 138.5,273.1 138.5,273.1 139.5,280.8 139.5,280.8 140.5,288.5 140.5,288.5 141.5,296.2 141.5,296.2 142.5,303.9 142.5,303.9 143.5,311.6 143.5,311.6 144.5,312.7 144.5,305.0 145.5,297.3 145.5,297.3 146.5,289.6 146.5,289.6 147.5,281.9 147.5,281.9 148.5,274.2 148.5,274.2 149.5,266.5 149.5,266.5 150.5,258.8 150.5,258.8 151.5,251.1 151.5,251.1 152.5,243.4 152.5,243.4 153.5,235.7 153.5,228.0 154.5,220.3 154.5,220.3 155.5,212.6 155.5,212.6 156.5,204.9 156.5,204.9 157.5,197.2 157.5,197.2 158.5,189.5 158.5,189.5 159.5,181.8 159.5,181.8 160.5,174.1 160.5,174.1 161.5,166.4 161.5,158.7 162.5,151.0 162.5,151.0 163.5,143.3 163.5,143.3 164.5,135.6 164.5,135.6 165.5,127.9 165.5,127.9 166.5,120.2 166.5,120.2 167.5,112.5 167.5,112.5 168.5,104.8 168.5,104.8 169.5,97.1 169.5,97.1 170.5,89.4 170.5,81.7 171.5,78.0 171.5,78.0 172.5,85.7 172.5,85.7 173.5,93.4 173.5,93.4 174.5,101.1 174.5,101.1 175.5,108.8 175.5,108.8 176.5,116.5 176.5,116.5 177.5,124.2 177.5,124.2 178.5,139.6 178.5,131.9 179.5,147.3 179.5,147.3 180.5,155.0 180.5,155.0 181.5,162.7 181.5,162.7 182.5,170.4 182.5,170.4 183.5,178.1 183.5,178.1 184.5,185.8 184.5,185.8 185.5,193.5 185.5,193.5 186.5,201.2 186.5,201.2 187.5,216.6 187.5,208.9 188.5,224.3 188.5,224.3 189.5,232.0 189.5,232.0 190.5,239.7 190.5,239.7 191.5,247.4 191.5,247.4 192.5,255.1 192.5,255.1 193.5,262.8 193.5,262.8 194.5,270.5 194.5,270.5 195.5,285.9 195.5,278.2 196.5,293.6 196.5,293.6 197.5,301.3 197.5,301.3 198.5,309.0 198.5,309.0 199.5,315.3 199.5,315.3 200.5,307.6 200.5,307.6 201.5,299.9 201.5,299.9 202.5,292.2 202.5,292.2 203.5,284.5 203.5,284.5 204.5,276.8 204.5,269.1 205.5,261.4 205.5,261.4 206.5,253.7 206.5,253.7 207.5,246.0 207.5,246.0 208.5,238.3 208.5,238.3 209.5,230.6 209.5,230.6 210.5,222.9 210.5,222.9 211.5,215.2 211.5,215.2 212.5,207.5 212.5,199.8 213.5,192.2 213.5,192.2 214.5,184.5 214.5,184.5 215.5,176.8 215.5,176.8 216.5,169.1 216.5,169.1 217.5,161.4 217.5,161.4 218.5,153.7 218.5,153.7 219.5,146.0 219.5,146.0 220.5,138.3 220.5,138.3 221.5,130.6 221.5,122.9 222.5,115.2 222.5,115.2 223.5,107.5 223.5,107.5 224.5,99.8 224.5,99.8 225.5,92.1 225.5,92.1 226.5,84.4 226.5,84.4 227.5,76.7 227.5,76.7 228.5,83.0 228.5,83.0 229.5,90.7 229.5,90.7 230.5,106.1 230.5,98.4 231.5,113.8 231.5,113.8 232.5,121.5 232.5,121.5 233.5,129.2 233.5,129.2 234.5,136.9 234.5,136.9 235.5,144.6 235.5,144.6 236.5,152.3 236.5,152.3 237.5,160.0 237.5,160.0 238.5,175.4 238.5,167.7 239.5,183.1 239.5,183.1 240.5,190.8 240.5,190.8 241.5,198.5 241.5,198.5 242.5,206.2 242.5,206.2 243.5,213.9 243.5,213.9 244.5,221.6 244.5,221.6 245.5,229.3 245.5,229.3 246.5,237.0 246.5,237.0 247.5,252.4 247.5,244.7 248.5,260.1 248.5,260.1 249.5,267.8 249.5,267.8 250.5,275.5 250.5,275.5 251.5,283.2 251.5,283.2 252.5,290.9 252.5,290.9 253.5,298.6 253.5,298.6 254.5,306.3 254.5,306.3 255.5,314.0 255.5,310.3 256.5,302.6 256.5,302.6 257.5,294.9 257.5,294.9 258.5,287.2 258.5,287.2 259.5,279.5 259.5,279.5 260.5,271.8 260.5,271.8 261.5,264.1 261.5,264.1 262.5,256.4 262.5,256.4 263.5,248.7 263.5,248.7 264.5,241.0 264.5,233.3 265.5,225.6 265.5,225.6 266.5,217.9 266.5,217.9 267.5,210.2 267.5,210.2 268.5,202.5 268.5,202.5 269.5,194.8 269.5,194.8 270.5,187.1 270.5,187.1 271.5,179.4 271.5,179.4 272.5,171.7 272.5,164.0 273.5,156.3 273.5,156.3 274.5,148.6 274.5,148.6 275.5,140.9 275.5,140.9 276.5,133.2 276.5,133.2 277.5,125.5 277.5,125.5 278.5,117.8 278.5,117.8 279.5,110.1 279.5,110.1 280.5,102.4 280.5,102.4 281.5,94.7 281.5,87.0 282.5,79.3 282.5,79.3 283.5,80.4 283.5,80.4 284.5,88.1 284.5,88.1 285.5,95.8 285.5,95.8 286.5,103.5 286.5,103.5 287.5,111.2 287.5,111.2 288.5,118.9 288.5,118.9 289.5,134.3 289.5,126.6 290.5,142.0 290.5,142.0 291.5,149.7 291.5,149.7 292.5,157.4 292.5,157.4 293.5,165.1 293.5,165.1 294.5,172.8 294.5,172.8 295.5,180.5 295.5,180.5 296.5,188.2 296.5,188.2 297.5,195.9 297.5,195.9 298.5,211.3 298.5,203.6 299.5,219.0 299.5,219.0 300.5,226.7 300.5,226.7 301.5,234.4 301.5,234.4 302.5,242.1 302.5,242.1 303.5,249.8 303.5,249.8 304.5,257.5 304.5,257.5 305.5,265.2 305.5,265.2 306.5,280.6 306.5,272.9 307.5,288.3 307.5,288.3 308.5,296.0 308.5,296.0 309.5,303.7 309.5,303.7 310.5,311.4 310.5,311.4 311.5,312.9 311.5,312.9 312.5,305.2 312.5,305.2 313.5,297.5 313.5,297.5 314.5,289.8 314.5,289.8 315.5,282.1 315.5,274.4 316.5,266.7 316.5,266.7 317.5,259.0 317.5,259.0 318.5,251.3 318.5,251.3 319.5,243.6 319.5,243.6 320.5,235.9 320.5,235.9 321.5,228.2 321.5,228.2 322.5,220.5 322.5,220.5 323.5,212.8 323.5,205.1 324.5,197.4 324.5,197.4 325.5,189.7 325.5,189.7 326.5,182.0 326.5,182.0 327.5,174.3 327.5,174.3 328.5,166.6 328.5,166.6 329.5,158.9 329.5,158.9 330.5,151.2 330.5,151.2 331.5,143.5 331.5,143.5 332.5,135.8 332.5,128.2 333.5,120.5 333.5,120.5 334.5,112.8 334.5,112.8 335.5,105.1 335.5,105.1 336.5,97.4 336.5,97.4 337.5,89.7 337.5,89.7 338.5,82.0 338.5,82.0 339.5,77.7 339.5,77.7 340.5,93.1 340.5,85.4 341.5,100.8 341.5,100.8 342.5,108.5 342.5,108.5 343.5,116.2 343.5,116.2 344.5,123.9 344.5,123.9 345.5,131.6 345.5,131.6 346.5,139.3 346.5,139.3 347.5,147.0 347.5,147.0 348.5,154.7 348.5,154.7 349.5,170.1 349.5,162.4 350.5,177.8 350.5,177.8 351.5,185.5 351.5,185.5 352.5,193.2 352.5,193.2 353.5,200.9 353.5,200.9 354.5,208.6 354.5,208.6 355.5,216.3 355.5,216.3 356.5,224.0 356.5,224.0 357.5,239.4 357.5,231.7 358.5,247.1 358.5,247.1 359.5,254.8 359.5,254.8 360.5,262.5 360.5,262.5 361.5,270.2 361.5,270.2 362.5,277.9 362.5,277.9 363.5,285.6 363.5,285.6 364.5,293.3 364.5,293.3 365.5,301.0 365.5,301.0 366.5,315.6 366.5,308.7 367.5,307.9 367.5,307.9 368.5,300.2 368.5,300.2 369.5,292.5 369.5,292.5 370.5,284.8 370.5,284.8 371.5,277.1 371.5,277.1 372.5,269.4 372.5,269.4 373.5,261.7 373.5,261.7 374.5,254.0 374.5,246.3 375.5,238.6 375.5,238.6 376.5,230.9 376.5,230.9 377.5,223.2 377.5,223.2 378.5,215.5 378.5,215.5 379.5,207.8 379.5,207.8 380.5,200.1 380.5,200.1 381.5,192.4 381.5,192.4 382.5,184.7 382.5,184.7 383.5,177.0 383.5,169.3 384.5,161.6 384.5,161.6 385.5,153.9 385.5,153.9 386.5,146.2 386.5,146.2 387.5,138.5 387.5,138.5 388.5,130.8 388.5,130.8 389.5,123.1 389.5,123.1 390.5,115.4 390.5,115.4 391.5,107.7 391.5,100.0" fill="none" stroke="#eab308" stroke-width="1.8" stroke-linejoin="round"/>
  <line x1="34" y1="8" x2="46" y2="8" stroke="#3b82f6" stroke-width="2"/>
  <text x="49" y="11" text-anchor="start" font-size="11" fill="#6b7280">soft (cubic)</text>
  <line x1="128.6" y1="8" x2="140.6" y2="8" stroke="#ef4444" stroke-width="2"/>
  <text x="143.6" y="11" text-anchor="start" font-size="11" fill="#6b7280">hard (clip)</text>
  <line x1="217.4" y1="8" x2="229.4" y2="8" stroke="#22c55e" stroke-width="2"/>
  <text x="232.4" y="11" text-anchor="start" font-size="11" fill="#6b7280">tanh</text>
  <line x1="265.6" y1="8" x2="277.6" y2="8" stroke="#eab308" stroke-width="2"/>
  <text x="280.6" y="11" text-anchor="start" font-size="11" fill="#6b7280">foldback</text>
  <line x1="442" y1="16" x2="442" y2="376" stroke="#d1d5db" stroke-width="1"/>
  <line x1="442" y1="376" x2="800" y2="376" stroke="#d1d5db" stroke-width="1"/>
  <line x1="442" y1="316" x2="800" y2="316" stroke="#e5e7eb" stroke-width="0.5"/>
  <text x="438" y="319" text-anchor="end" font-size="8" fill="#6b7280">-1</text>
  <line x1="442" y1="196" x2="800" y2="196" stroke="#e5e7eb" stroke-width="0.5"/>
  <text x="438" y="199" text-anchor="end" font-size="8" fill="#6b7280">0</text>
  <line x1="442" y1="76" x2="800" y2="76" stroke="#e5e7eb" stroke-width="0.5"/>
  <text x="438" y="79" text-anchor="end" font-size="8" fill="#6b7280">1</text>
  <line x1="442" y1="16" x2="442" y2="376" stroke="#e5e7eb" stroke-width="0.5"/>
  <text x="442" y="388" text-anchor="middle" font-size="8" fill="#6b7280">0</text>
  <line x1="531.5" y1="16" x2="531.5" y2="376" stroke="#e5e7eb" stroke-width="0.5"/>
  <text x="531.5" y="388" text-anchor="middle" font-size="8" fill="#6b7280">128</text>
  <line x1="621" y1="16" x2="621" y2="376" stroke="#e5e7eb" stroke-width="0.5"/>
  <text x="621" y="388" text-anchor="middle" font-size="8" fill="#6b7280">256</text>
  <line x1="710.5" y1="16" x2="710.5" y2="376" stroke="#e5e7eb" stroke-width="0.5"/>
  <text x="710.5" y="388" text-anchor="middle" font-size="8" fill="#6b7280">384</text>
  <line x1="800" y1="16" x2="800" y2="376" stroke="#e5e7eb" stroke-width="0.5"/>
  <text x="800" y="388" text-anchor="middle" font-size="8" fill="#6b7280">512</text>
  <line x1="442" y1="196" x2="800" y2="196" stroke="#d1d5db" stroke-width="0.5"/>
  <text x="621" y="402" text-anchor="middle" font-size="9" fill="#6b7280">samples</text>
  <polyline clip-path="url(#u27)" points="442.5,196.0 442.5,196.0 443.5,184.7 443.5,184.7 444.5,173.5 444.5,162.3 445.5,151.3 445.5,151.3 446.5,140.5 446.5,129.9 447.5,119.5 447.5,119.5 448.5,109.5 448.5,99.7 449.5,90.4 449.5,90.4 450.5,81.5 450.5,81.5 451.5,73.0 451.5,65.0 452.5,57.5 452.5,57.5 453.5,50.6 453.5,44.2 454.5,38.5 454.5,38.5 455.5,33.3 455.5,28.8 456.5,25.0 456.5,25.0 457.5,21.8 457.5,21.8 458.5,19.3 458.5,17.5 459.5,16.4 459.5,16.4 460.5,16.3 460.5,16.0 461.5,17.3 461.5,17.3 462.5,21.5 462.5,19.1 463.5,24.6 463.5,24.6 464.5,28.3 464.5,28.3 465.5,37.9 465.5,32.8 466.5,43.6 466.5,43.6 467.5,56.7 467.5,49.9 468.5,64.1 468.5,64.1 469.5,80.5 469.5,72.1 470.5,89.4 470.5,89.4 471.5,98.7 471.5,98.7 472.5,118.4 472.5,108.3 473.5,128.7 473.5,128.7 474.5,150.1 474.5,139.3 475.5,161.1 475.5,161.1 476.5,183.4 476.5,172.2 477.5,194.7 477.5,194.7 478.5,206.0 478.5,206.0 479.5,228.4 479.5,217.2 480.5,239.4 480.5,239.4 481.5,260.9 481.5,250.3 482.5,271.3 482.5,271.3 483.5,291.2 483.5,281.4 484.5,300.6 484.5,300.6 485.5,309.5 485.5,309.5 486.5,326.1 486.5,318.1 487.5,333.6 487.5,333.6 488.5,347.1 488.5,340.6 489.5,352.9 489.5,352.9 490.5,362.7 490.5,358.1 491.5,366.6 491.5,366.6 492.5,369.9 492.5,369.9 493.5,374.3 493.5,372.5 494.5,375.5 494.5,375.5 495.5,376.0 495.5,375.8 496.5,374.8 496.5,374.8 497.5,373.2 497.5,370.8 498.5,367.8 498.5,367.8 499.5,364.1 499.5,364.1 500.5,359.8 500.5,354.7 501.5,349.1 501.5,349.1 502.5,342.9 502.5,336.1 503.5,328.7 503.5,328.7 504.5,320.9 504.5,312.5 505.5,303.7 505.5,303.7 506.5,294.4 506.5,294.4 507.5,284.8 507.5,274.8 508.5,264.5 508.5,264.5 509.5,253.9 509.5,243.1 510.5,232.2 510.5,232.2 511.5,221.1 511.5,209.8 512.5,198.6 512.5,198.6 513.5,187.3 513.5,187.3 514.5,176.0 514.5,164.9 515.5,153.8 515.5,153.8 516.5,142.9 516.5,132.3 517.5,121.9 517.5,121.9 518.5,111.7 518.5,101.9 519.5,92.5 519.5,92.5 520.5,83.5 520.5,83.5 521.5,74.9 521.5,66.8 522.5,59.2 522.5,59.2 523.5,52.1 523.5,45.6 524.5,39.7 524.5,39.7 525.5,34.4 525.5,29.8 526.5,25.8 526.5,25.8 527.5,22.5 527.5,22.5 528.5,19.8 528.5,17.8 529.5,16.6 529.5,16.6 530.5,16.2 530.5,16.0 531.5,17.0 531.5,17.0 532.5,20.9 532.5,18.6 533.5,23.8 533.5,23.8 534.5,31.7 534.5,27.4 535.5,36.7 535.5,36.7 536.5,42.2 536.5,42.2 537.5,55.1 537.5,48.4 538.5,62.4 538.5,62.4 539.5,78.5 539.5,70.2 540.5,87.3 540.5,87.3 541.5,106.1 541.5,96.5 542.5,116.1 542.5,116.1 543.5,126.3 543.5,126.3 544.5,147.6 544.5,136.9 545.5,158.6 545.5,158.6 546.5,180.9 546.5,169.7 547.5,192.2 547.5,192.2 548.5,214.7 548.5,203.4 549.5,225.9 549.5,225.9 550.5,236.9 550.5,236.9 551.5,258.5 551.5,247.8 552.5,269.0 552.5,269.0 553.5,289.0 553.5,279.1 554.5,298.5 554.5,298.5 555.5,316.2 555.5,307.5 556.5,324.3 556.5,324.3 557.5,332.0 557.5,332.0 558.5,345.7 558.5,339.1 559.5,351.6 559.5,351.6 560.5,361.7 560.5,357.0 561.5,365.8 561.5,365.8 562.5,371.9 562.5,369.2 563.5,374.0 563.5,374.0 564.5,375.3 564.5,375.3 565.5,375.9 565.5,375.9 566.5,375.1 566.5,375.1 567.5,373.6 567.5,371.4 568.5,368.6 568.5,368.6 569.5,365.0 569.5,360.8 570.5,355.9 570.5,355.9 571.5,350.5 571.5,350.5 572.5,344.4 572.5,337.7 573.5,330.5 573.5,330.5 574.5,322.7 574.5,314.4 575.5,305.7 575.5,305.7 576.5,296.5 576.5,287.0 577.5,277.1 577.5,277.1 578.5,266.9 578.5,266.9 579.5,256.4 579.5,245.6 580.5,234.7 580.5,234.7 581.5,223.6 581.5,212.4 582.5,201.1 582.5,201.1 583.5,189.8 583.5,178.6 584.5,167.4 584.5,167.4 585.5,156.3 585.5,156.3 586.5,145.4 586.5,134.7 587.5,124.2 587.5,124.2 588.5,114.0 588.5,104.1 589.5,94.6 589.5,94.6 590.5,85.5 590.5,76.8 591.5,68.6 591.5,68.6 592.5,60.9 592.5,60.9 593.5,53.7 593.5,47.1 594.5,41.0 594.5,41.0 595.5,35.6 595.5,30.8 596.5,26.6 596.5,26.6 597.5,23.2 597.5,20.3 598.5,18.2 598.5,18.2 599.5,16.8 599.5,16.8 600.5,16.1 600.5,16.1 601.5,16.8 601.5,16.8 602.5,20.3 602.5,18.2 603.5,23.1 603.5,23.1 604.5,30.7 604.5,26.6 605.5,35.5 605.5,35.5 606.5,40.9 606.5,40.9 607.5,53.5 607.5,46.9 608.5,60.7 608.5,60.7 609.5,76.6 609.5,68.4 610.5,85.3 610.5,85.3 611.5,103.9 611.5,94.4 612.5,113.8 612.5,113.8 613.5,124.0 613.5,124.0 614.5,145.2 614.5,134.4 615.5,156.1 615.5,156.1 616.5,178.3 616.5,167.1 617.5,189.6 617.5,189.6 618.5,212.1 618.5,200.9 619.5,223.3 619.5,223.3 620.5,245.4 620.5,234.4 621.5,256.1 621.5,256.1 622.5,266.6 622.5,266.6 623.5,286.8 623.5,276.9 624.5,296.3 624.5,296.3 625.5,314.2 625.5,305.5 626.5,322.5 626.5,322.5 627.5,337.5 627.5,330.3 628.5,344.2 628.5,344.2 629.5,350.3 629.5,350.3 630.5,360.7 630.5,355.8 631.5,364.9 631.5,364.9 632.5,371.4 632.5,368.5 633.5,373.6 633.5,373.6 634.5,375.9 634.5,375.1 635.5,376.0 635.5,376.0 636.5,375.3 636.5,375.3 637.5,374.0 637.5,372.0 638.5,369.3 638.5,369.3 639.5,365.9 639.5,361.8 640.5,357.1 640.5,357.1 641.5,351.8 641.5,345.8 642.5,339.3 642.5,339.3 643.5,332.1 643.5,332.1 644.5,324.5 644.5,316.3 645.5,307.7 645.5,307.7 646.5,298.7 646.5,289.2 647.5,279.4 647.5,279.4 648.5,269.2 648.5,258.8 649.5,248.1 649.5,248.1 650.5,237.2 650.5,237.2 651.5,226.1 651.5,214.9 652.5,203.7 652.5,203.7 653.5,192.4 653.5,181.1 654.5,169.9 654.5,169.9 655.5,158.8 655.5,147.9 656.5,137.1 656.5,137.1 657.5,126.6 657.5,126.6 658.5,116.3 658.5,106.3 659.5,96.7 659.5,96.7 660.5,87.5 660.5,78.7 661.5,70.4 661.5,70.4 662.5,62.6 662.5,55.3 663.5,48.5 663.5,48.5 664.5,42.3 664.5,42.3 665.5,36.8 665.5,31.8 666.5,27.5 666.5,27.5 667.5,23.9 667.5,20.9 668.5,18.6 668.5,18.6 669.5,17.1 669.5,16.2 670.5,16.0 670.5,16.0 671.5,16.6 671.5,16.6 672.5,19.7 672.5,17.8 673.5,22.4 673.5,22.4 674.5,29.7 674.5,25.7 675.5,34.3 675.5,34.3 676.5,45.5 676.5,39.6 677.5,52.0 677.5,52.0 678.5,59.0 678.5,59.0 679.5,74.7 679.5,66.6 680.5,83.3 680.5,83.3 681.5,101.7 681.5,92.3 682.5,111.5 682.5,111.5 683.5,132.0 683.5,121.6 684.5,142.7 684.5,142.7 685.5,153.6 685.5,153.6 686.5,175.8 686.5,164.6 687.5,187.0 687.5,187.0 688.5,209.6 688.5,198.3 689.5,220.8 689.5,220.8 690.5,242.9 690.5,231.9 691.5,253.7 691.5,253.7 692.5,264.3 692.5,264.3 693.5,284.6 693.5,274.6 694.5,294.2 694.5,294.2 695.5,312.3 695.5,303.5 696.5,320.7 696.5,320.7 697.5,335.9 697.5,328.6 698.5,342.7 698.5,342.7 699.5,349.0 699.5,349.0 700.5,359.6 700.5,354.6 701.5,364.0 701.5,364.0 702.5,370.8 702.5,367.7 703.5,373.1 703.5,373.1 704.5,375.7 704.5,374.8 705.5,376.0 705.5,376.0 706.5,375.5 706.5,375.5 707.5,374.4 707.5,372.5 708.5,369.9 708.5,369.9 709.5,366.7 709.5,362.8 710.5,358.2 710.5,358.2 711.5,353.0 711.5,347.2 712.5,340.8 712.5,340.8 713.5,333.8 713.5,326.3 714.5,318.2 714.5,318.2 715.5,309.7 715.5,309.7 716.5,300.8 716.5,291.4 717.5,281.6 717.5,281.6 718.5,271.5 718.5,261.2 719.5,250.5 719.5,250.5 720.5,239.7 720.5,228.6 721.5,217.5 721.5,217.5 722.5,206.3 722.5,206.3 723.5,195.0 723.5,183.7 724.5,172.5 724.5,172.5 725.5,161.3 725.5,150.3 726.5,139.5 726.5,139.5 727.5,128.9 727.5,118.6 728.5,108.6 728.5,108.6 729.5,98.9 729.5,98.9 730.5,89.6 730.5,80.7 731.5,72.3 731.5,72.3 732.5,64.3 732.5,56.9 733.5,50.0 733.5,50.0 734.5,43.7 734.5,38.0 735.5,32.9 735.5,32.9 736.5,28.4 736.5,28.4 737.5,24.7 737.5,21.5 738.5,19.1 738.5,19.1 739.5,17.4 739.5,16.3 740.5,16.0 740.5,16.0 741.5,17.5 741.5,16.4 742.5,19.2 742.5,19.2 743.5,21.7 743.5,21.7 744.5,28.7 744.5,24.9 745.5,33.2 745.5,33.2 746.5,44.1 746.5,38.4 747.5,50.5 747.5,50.5 748.5,64.8 748.5,57.4 749.5,72.8 749.5,72.8 750.5,81.3 750.5,81.3 751.5,99.5 751.5,90.2 752.5,109.2 752.5,109.2 753.5,129.6 753.5,119.3 754.5,140.3 754.5,140.3 755.5,162.1 755.5,151.1 756.5,173.2 756.5,173.2 757.5,184.5 757.5,184.5 758.5,207.0 758.5,195.7 759.5,218.3 759.5,218.3 760.5,240.4 760.5,229.4 761.5,251.3 761.5,251.3 762.5,272.2 762.5,261.9 763.5,282.3 763.5,282.3 764.5,292.0 764.5,292.0 765.5,310.3 765.5,301.4 766.5,318.8 766.5,318.8 767.5,334.3 767.5,326.8 768.5,341.2 768.5,341.2 769.5,353.4 769.5,347.6 770.5,358.6 770.5,358.6 771.5,363.1 771.5,363.1 772.5,370.1 772.5,367.0 773.5,372.7 773.5,372.7 774.5,375.6 774.5,374.5 775.5,376.0 775.5,376.0 776.5,375.7 776.5,374.7 777.5,373.0 777.5,373.0 778.5,370.6 778.5,370.6 779.5,367.5 779.5,363.7 780.5,359.3 780.5,359.3 781.5,354.3 781.5,348.6 782.5,342.3 782.5,342.3 783.5,335.4 783.5,328.0 784.5,320.1 784.5,320.1 785.5,311.7 785.5,311.7 786.5,302.8 786.5,293.6 787.5,283.9 787.5,283.9 788.5,273.9 788.5,263.5 789.5,253.0 789.5,253.0 790.5,242.2 790.5,231.2 791.5,220.0 791.5,220.0 792.5,208.8 792.5,208.8 793.5,197.5 793.5,186.3 794.5,175.0 794.5,175.0 795.5,163.9 795.5,152.8 796.5,142.0 796.5,142.0 797.5,131.3 797.5,120.9 798.5,110.8 798.5,110.8 799.5,101.0 799.5,91.7" fill="none" stroke="#d1d5db" stroke-width="1" stroke-linejoin="round"/>
  <polyline clip-path="url(#u27)" points="442.5,196.0 442.5,196.0 443.5,100.8 443.5,100.8 444.5,76.0 444.5,76.0 445.5,76.0 445.5,76.0 446.5,76.0 446.5,76.0 447.5,76.0 447.5,76.0 448.5,76.0 448.5,76.0 449.5,76.0 449.5,76.0 450.5,76.0 450.5,76.0 451.5,76.0 451.5,76.0 452.5,76.0 452.5,76.0 453.5,76.0 453.5,76.0 454.5,76.0 454.5,76.0 455.5,76.0 455.5,76.0 456.5,76.0 456.5,76.0 457.5,76.0 457.5,76.0 458.5,76.0 458.5,76.0 459.5,76.0 459.5,76.0 460.5,76.0 460.5,76.0 461.5,76.0 461.5,76.0 462.5,76.0 462.5,76.0 463.5,76.0 463.5,76.0 464.5,76.0 464.5,76.0 465.5,76.0 465.5,76.0 466.5,76.0 466.5,76.0 467.5,76.0 467.5,76.0 468.5,76.0 468.5,76.0 469.5,76.0 469.5,76.0 470.5,76.0 470.5,76.0 471.5,76.0 471.5,76.0 472.5,76.0 472.5,76.0 473.5,76.0 473.5,76.0 474.5,76.0 474.5,76.0 475.5,76.0 475.5,76.0 476.5,93.5 476.5,76.0 477.5,183.7 477.5,183.7 478.5,282.9 478.5,282.9 479.5,316.0 479.5,316.0 480.5,316.0 480.5,316.0 481.5,316.0 481.5,316.0 482.5,316.0 482.5,316.0 483.5,316.0 483.5,316.0 484.5,316.0 484.5,316.0 485.5,316.0 485.5,316.0 486.5,316.0 486.5,316.0 487.5,316.0 487.5,316.0 488.5,316.0 488.5,316.0 489.5,316.0 489.5,316.0 490.5,316.0 490.5,316.0 491.5,316.0 491.5,316.0 492.5,316.0 492.5,316.0 493.5,316.0 493.5,316.0 494.5,316.0 494.5,316.0 495.5,316.0 495.5,316.0 496.5,316.0 496.5,316.0 497.5,316.0 497.5,316.0 498.5,316.0 498.5,316.0 499.5,316.0 499.5,316.0 500.5,316.0 500.5,316.0 501.5,316.0 501.5,316.0 502.5,316.0 502.5,316.0 503.5,316.0 503.5,316.0 504.5,316.0 504.5,316.0 505.5,316.0 505.5,316.0 506.5,316.0 506.5,316.0 507.5,316.0 507.5,316.0 508.5,316.0 508.5,316.0 509.5,316.0 509.5,316.0 510.5,316.0 510.5,316.0 511.5,316.0 511.5,304.7 512.5,220.5 512.5,220.5 513.5,118.4 513.5,118.4 514.5,76.0 514.5,76.0 515.5,76.0 515.5,76.0 516.5,76.0 516.5,76.0 517.5,76.0 517.5,76.0 518.5,76.0 518.5,76.0 519.5,76.0 519.5,76.0 520.5,76.0 520.5,76.0 521.5,76.0 521.5,76.0 522.5,76.0 522.5,76.0 523.5,76.0 523.5,76.0 524.5,76.0 524.5,76.0 525.5,76.0 525.5,76.0 526.5,76.0 526.5,76.0 527.5,76.0 527.5,76.0 528.5,76.0 528.5,76.0 529.5,76.0 529.5,76.0 530.5,76.0 530.5,76.0 531.5,76.0 531.5,76.0 532.5,76.0 532.5,76.0 533.5,76.0 533.5,76.0 534.5,76.0 534.5,76.0 535.5,76.0 535.5,76.0 536.5,76.0 536.5,76.0 537.5,76.0 537.5,76.0 538.5,76.0 538.5,76.0 539.5,76.0 539.5,76.0 540.5,76.0 540.5,76.0 541.5,76.0 541.5,76.0 542.5,76.0 542.5,76.0 543.5,76.0 543.5,76.0 544.5,76.0 544.5,76.0 545.5,76.0 545.5,76.0 546.5,82.3 546.5,76.0 547.5,159.6 547.5,159.6 548.5,316.0 548.5,263.6 549.5,316.0 549.5,316.0 550.5,316.0 550.5,316.0 551.5,316.0 551.5,316.0 552.5,316.0 552.5,316.0 553.5,316.0 553.5,316.0 554.5,316.0 554.5,316.0 555.5,316.0 555.5,316.0 556.5,316.0 556.5,316.0 557.5,316.0 557.5,316.0 558.5,316.0 558.5,316.0 559.5,316.0 559.5,316.0 560.5,316.0 560.5,316.0 561.5,316.0 561.5,316.0 562.5,316.0 562.5,316.0 563.5,316.0 563.5,316.0 564.5,316.0 564.5,316.0 565.5,316.0 565.5,316.0 566.5,316.0 566.5,316.0 567.5,316.0 567.5,316.0 568.5,316.0 568.5,316.0 569.5,316.0 569.5,316.0 570.5,316.0 570.5,316.0 571.5,316.0 571.5,316.0 572.5,316.0 572.5,316.0 573.5,316.0 573.5,316.0 574.5,316.0 574.5,316.0 575.5,316.0 575.5,316.0 576.5,316.0 576.5,316.0 577.5,316.0 577.5,316.0 578.5,316.0 578.5,316.0 579.5,316.0 579.5,316.0 580.5,316.0 580.5,316.0 581.5,316.0 581.5,313.3 582.5,244.0 582.5,244.0 583.5,139.0 583.5,76.9 584.5,76.0 584.5,76.0 585.5,76.0 585.5,76.0 586.5,76.0 586.5,76.0 587.5,76.0 587.5,76.0 588.5,76.0 588.5,76.0 589.5,76.0 589.5,76.0 590.5,76.0 590.5,76.0 591.5,76.0 591.5,76.0 592.5,76.0 592.5,76.0 593.5,76.0 593.5,76.0 594.5,76.0 594.5,76.0 595.5,76.0 595.5,76.0 596.5,76.0 596.5,76.0 597.5,76.0 597.5,76.0 598.5,76.0 598.5,76.0 599.5,76.0 599.5,76.0 600.5,76.0 600.5,76.0 601.5,76.0 601.5,76.0 602.5,76.0 602.5,76.0 603.5,76.0 603.5,76.0 604.5,76.0 604.5,76.0 605.5,76.0 605.5,76.0 606.5,76.0 606.5,76.0 607.5,76.0 607.5,76.0 608.5,76.0 608.5,76.0 609.5,76.0 609.5,76.0 610.5,76.0 610.5,76.0 611.5,76.0 611.5,76.0 612.5,76.0 612.5,76.0 613.5,76.0 613.5,76.0 614.5,76.0 614.5,76.0 615.5,76.0 615.5,76.0 616.5,76.6 616.5,76.0 617.5,136.9 617.5,136.9 618.5,312.7 618.5,241.7 619.5,316.0 619.5,316.0 620.5,316.0 620.5,316.0 621.5,316.0 621.5,316.0 622.5,316.0 622.5,316.0 623.5,316.0 623.5,316.0 624.5,316.0 624.5,316.0 625.5,316.0 625.5,316.0 626.5,316.0 626.5,316.0 627.5,316.0 627.5,316.0 628.5,316.0 628.5,316.0 629.5,316.0 629.5,316.0 630.5,316.0 630.5,316.0 631.5,316.0 631.5,316.0 632.5,316.0 632.5,316.0 633.5,316.0 633.5,316.0 634.5,316.0 634.5,316.0 635.5,316.0 635.5,316.0 636.5,316.0 636.5,316.0 637.5,316.0 637.5,316.0 638.5,316.0 638.5,316.0 639.5,316.0 639.5,316.0 640.5,316.0 640.5,316.0 641.5,316.0 641.5,316.0 642.5,316.0 642.5,316.0 643.5,316.0 643.5,316.0 644.5,316.0 644.5,316.0 645.5,316.0 645.5,316.0 646.5,316.0 646.5,316.0 647.5,316.0 647.5,316.0 648.5,316.0 648.5,316.0 649.5,316.0 649.5,316.0 650.5,316.0 650.5,316.0 651.5,316.0 651.5,316.0 652.5,265.7 652.5,265.7 653.5,162.0 653.5,83.2 654.5,76.0 654.5,76.0 655.5,76.0 655.5,76.0 656.5,76.0 656.5,76.0 657.5,76.0 657.5,76.0 658.5,76.0 658.5,76.0 659.5,76.0 659.5,76.0 660.5,76.0 660.5,76.0 661.5,76.0 661.5,76.0 662.5,76.0 662.5,76.0 663.5,76.0 663.5,76.0 664.5,76.0 664.5,76.0 665.5,76.0 665.5,76.0 666.5,76.0 666.5,76.0 667.5,76.0 667.5,76.0 668.5,76.0 668.5,76.0 669.5,76.0 669.5,76.0 670.5,76.0 670.5,76.0 671.5,76.0 671.5,76.0 672.5,76.0 672.5,76.0 673.5,76.0 673.5,76.0 674.5,76.0 674.5,76.0 675.5,76.0 675.5,76.0 676.5,76.0 676.5,76.0 677.5,76.0 677.5,76.0 678.5,76.0 678.5,76.0 679.5,76.0 679.5,76.0 680.5,76.0 680.5,76.0 681.5,76.0 681.5,76.0 682.5,76.0 682.5,76.0 683.5,76.0 683.5,76.0 684.5,76.0 684.5,76.0 685.5,76.0 685.5,76.0 686.5,76.0 686.5,76.0 687.5,116.4 687.5,116.4 688.5,303.6 688.5,218.0 689.5,316.0 689.5,316.0 690.5,316.0 690.5,316.0 691.5,316.0 691.5,316.0 692.5,316.0 692.5,316.0 693.5,316.0 693.5,316.0 694.5,316.0 694.5,316.0 695.5,316.0 695.5,316.0 696.5,316.0 696.5,316.0 697.5,316.0 697.5,316.0 698.5,316.0 698.5,316.0 699.5,316.0 699.5,316.0 700.5,316.0 700.5,316.0 701.5,316.0 701.5,316.0 702.5,316.0 702.5,316.0 703.5,316.0 703.5,316.0 704.5,316.0 704.5,316.0 705.5,316.0 705.5,316.0 706.5,316.0 706.5,316.0 707.5,316.0 707.5,316.0 708.5,316.0 708.5,316.0 709.5,316.0 709.5,316.0 710.5,316.0 710.5,316.0 711.5,316.0 711.5,316.0 712.5,316.0 712.5,316.0 713.5,316.0 713.5,316.0 714.5,316.0 714.5,316.0 715.5,316.0 715.5,316.0 716.5,316.0 716.5,316.0 717.5,316.0 717.5,316.0 718.5,316.0 718.5,316.0 719.5,316.0 719.5,316.0 720.5,316.0 720.5,316.0 721.5,316.0 721.5,316.0 722.5,284.6 722.5,284.6 723.5,186.2 723.5,94.9 724.5,76.0 724.5,76.0 725.5,76.0 725.5,76.0 726.5,76.0 726.5,76.0 727.5,76.0 727.5,76.0 728.5,76.0 728.5,76.0 729.5,76.0 729.5,76.0 730.5,76.0 730.5,76.0 731.5,76.0 731.5,76.0 732.5,76.0 732.5,76.0 733.5,76.0 733.5,76.0 734.5,76.0 734.5,76.0 735.5,76.0 735.5,76.0 736.5,76.0 736.5,76.0 737.5,76.0 737.5,76.0 738.5,76.0 738.5,76.0 739.5,76.0 739.5,76.0 740.5,76.0 740.5,76.0 741.5,76.0 741.5,76.0 742.5,76.0 742.5,76.0 743.5,76.0 743.5,76.0 744.5,76.0 744.5,76.0 745.5,76.0 745.5,76.0 746.5,76.0 746.5,76.0 747.5,76.0 747.5,76.0 748.5,76.0 748.5,76.0 749.5,76.0 749.5,76.0 750.5,76.0 750.5,76.0 751.5,76.0 751.5,76.0 752.5,76.0 752.5,76.0 753.5,76.0 753.5,76.0 754.5,76.0 754.5,76.0 755.5,76.0 755.5,76.0 756.5,76.0 756.5,76.0 757.5,99.2 757.5,99.2 758.5,289.6 758.5,193.5 759.5,316.0 759.5,316.0 760.5,316.0 760.5,316.0 761.5,316.0 761.5,316.0 762.5,316.0 762.5,316.0 763.5,316.0 763.5,316.0 764.5,316.0 764.5,316.0 765.5,316.0 765.5,316.0 766.5,316.0 766.5,316.0 767.5,316.0 767.5,316.0 768.5,316.0 768.5,316.0 769.5,316.0 769.5,316.0 770.5,316.0 770.5,316.0 771.5,316.0 771.5,316.0 772.5,316.0 772.5,316.0 773.5,316.0 773.5,316.0 774.5,316.0 774.5,316.0 775.5,316.0 775.5,316.0 776.5,316.0 776.5,316.0 777.5,316.0 777.5,316.0 778.5,316.0 778.5,316.0 779.5,316.0 779.5,316.0 780.5,316.0 780.5,316.0 781.5,316.0 781.5,316.0 782.5,316.0 782.5,316.0 783.5,316.0 783.5,316.0 784.5,316.0 784.5,316.0 785.5,316.0 785.5,316.0 786.5,316.0 786.5,316.0 787.5,316.0 787.5,316.0 788.5,316.0 788.5,316.0 789.5,316.0 789.5,316.0 790.5,316.0 790.5,316.0 791.5,316.0 791.5,316.0 792.5,299.9 792.5,299.9 793.5,210.7 793.5,110.9 794.5,76.0 794.5,76.0 795.5,76.0 795.5,76.0 796.5,76.0 796.5,76.0 797.5,76.0 797.5,76.0 798.5,76.0 798.5,76.0 799.5,76.0 799.5,76.0" fill="none" stroke="#3b82f6" stroke-width="1.5" stroke-linejoin="round"/>
  <polyline clip-path="url(#u27)" points="442.5,196.0 442.5,196.0 443.5,123.8 443.5,123.8 444.5,76.0 444.5,76.0 445.5,76.0 445.5,76.0 446.5,76.0 446.5,76.0 447.5,76.0 447.5,76.0 448.5,76.0 448.5,76.0 449.5,76.0 449.5,76.0 450.5,76.0 450.5,76.0 451.5,76.0 451.5,76.0 452.5,76.0 452.5,76.0 453.5,76.0 453.5,76.0 454.5,76.0 454.5,76.0 455.5,76.0 455.5,76.0 456.5,76.0 456.5,76.0 457.5,76.0 457.5,76.0 458.5,76.0 458.5,76.0 459.5,76.0 459.5,76.0 460.5,76.0 460.5,76.0 461.5,76.0 461.5,76.0 462.5,76.0 462.5,76.0 463.5,76.0 463.5,76.0 464.5,76.0 464.5,76.0 465.5,76.0 465.5,76.0 466.5,76.0 466.5,76.0 467.5,76.0 467.5,76.0 468.5,76.0 468.5,76.0 469.5,76.0 469.5,76.0 470.5,76.0 470.5,76.0 471.5,76.0 471.5,76.0 472.5,76.0 472.5,76.0 473.5,76.0 473.5,76.0 474.5,76.0 474.5,76.0 475.5,76.0 475.5,76.0 476.5,115.6 476.5,76.0 477.5,187.8 477.5,187.8 478.5,260.0 478.5,260.0 479.5,316.0 479.5,316.0 480.5,316.0 480.5,316.0 481.5,316.0 481.5,316.0 482.5,316.0 482.5,316.0 483.5,316.0 483.5,316.0 484.5,316.0 484.5,316.0 485.5,316.0 485.5,316.0 486.5,316.0 486.5,316.0 487.5,316.0 487.5,316.0 488.5,316.0 488.5,316.0 489.5,316.0 489.5,316.0 490.5,316.0 490.5,316.0 491.5,316.0 491.5,316.0 492.5,316.0 492.5,316.0 493.5,316.0 493.5,316.0 494.5,316.0 494.5,316.0 495.5,316.0 495.5,316.0 496.5,316.0 496.5,316.0 497.5,316.0 497.5,316.0 498.5,316.0 498.5,316.0 499.5,316.0 499.5,316.0 500.5,316.0 500.5,316.0 501.5,316.0 501.5,316.0 502.5,316.0 502.5,316.0 503.5,316.0 503.5,316.0 504.5,316.0 504.5,316.0 505.5,316.0 505.5,316.0 506.5,316.0 506.5,316.0 507.5,316.0 507.5,316.0 508.5,316.0 508.5,316.0 509.5,316.0 509.5,316.0 510.5,316.0 510.5,316.0 511.5,316.0 511.5,284.5 512.5,212.4 512.5,212.4 513.5,140.2 513.5,140.2 514.5,76.0 514.5,76.0 515.5,76.0 515.5,76.0 516.5,76.0 516.5,76.0 517.5,76.0 517.5,76.0 518.5,76.0 518.5,76.0 519.5,76.0 519.5,76.0 520.5,76.0 520.5,76.0 521.5,76.0 521.5,76.0 522.5,76.0 522.5,76.0 523.5,76.0 523.5,76.0 524.5,76.0 524.5,76.0 525.5,76.0 525.5,76.0 526.5,76.0 526.5,76.0 527.5,76.0 527.5,76.0 528.5,76.0 528.5,76.0 529.5,76.0 529.5,76.0 530.5,76.0 530.5,76.0 531.5,76.0 531.5,76.0 532.5,76.0 532.5,76.0 533.5,76.0 533.5,76.0 534.5,76.0 534.5,76.0 535.5,76.0 535.5,76.0 536.5,76.0 536.5,76.0 537.5,76.0 537.5,76.0 538.5,76.0 538.5,76.0 539.5,76.0 539.5,76.0 540.5,76.0 540.5,76.0 541.5,76.0 541.5,76.0 542.5,76.0 542.5,76.0 543.5,76.0 543.5,76.0 544.5,76.0 544.5,76.0 545.5,76.0 545.5,76.0 546.5,99.3 546.5,76.0 547.5,171.4 547.5,171.4 548.5,315.6 548.5,243.6 549.5,316.0 549.5,316.0 550.5,316.0 550.5,316.0 551.5,316.0 551.5,316.0 552.5,316.0 552.5,316.0 553.5,316.0 553.5,316.0 554.5,316.0 554.5,316.0 555.5,316.0 555.5,316.0 556.5,316.0 556.5,316.0 557.5,316.0 557.5,316.0 558.5,316.0 558.5,316.0 559.5,316.0 559.5,316.0 560.5,316.0 560.5,316.0 561.5,316.0 561.5,316.0 562.5,316.0 562.5,316.0 563.5,316.0 563.5,316.0 564.5,316.0 564.5,316.0 565.5,316.0 565.5,316.0 566.5,316.0 566.5,316.0 567.5,316.0 567.5,316.0 568.5,316.0 568.5,316.0 569.5,316.0 569.5,316.0 570.5,316.0 570.5,316.0 571.5,316.0 571.5,316.0 572.5,316.0 572.5,316.0 573.5,316.0 573.5,316.0 574.5,316.0 574.5,316.0 575.5,316.0 575.5,316.0 576.5,316.0 576.5,316.0 577.5,316.0 577.5,316.0 578.5,316.0 578.5,316.0 579.5,316.0 579.5,316.0 580.5,316.0 580.5,316.0 581.5,316.0 581.5,300.9 582.5,228.8 582.5,228.8 583.5,156.6 583.5,84.6 584.5,76.0 584.5,76.0 585.5,76.0 585.5,76.0 586.5,76.0 586.5,76.0 587.5,76.0 587.5,76.0 588.5,76.0 588.5,76.0 589.5,76.0 589.5,76.0 590.5,76.0 590.5,76.0 591.5,76.0 591.5,76.0 592.5,76.0 592.5,76.0 593.5,76.0 593.5,76.0 594.5,76.0 594.5,76.0 595.5,76.0 595.5,76.0 596.5,76.0 596.5,76.0 597.5,76.0 597.5,76.0 598.5,76.0 598.5,76.0 599.5,76.0 599.5,76.0 600.5,76.0 600.5,76.0 601.5,76.0 601.5,76.0 602.5,76.0 602.5,76.0 603.5,76.0 603.5,76.0 604.5,76.0 604.5,76.0 605.5,76.0 605.5,76.0 606.5,76.0 606.5,76.0 607.5,76.0 607.5,76.0 608.5,76.0 608.5,76.0 609.5,76.0 609.5,76.0 610.5,76.0 610.5,76.0 611.5,76.0 611.5,76.0 612.5,76.0 612.5,76.0 613.5,76.0 613.5,76.0 614.5,76.0 614.5,76.0 615.5,76.0 615.5,76.0 616.5,82.9 616.5,76.0 617.5,155.0 617.5,155.0 618.5,299.3 618.5,227.2 619.5,316.0 619.5,316.0 620.5,316.0 620.5,316.0 621.5,316.0 621.5,316.0 622.5,316.0 622.5,316.0 623.5,316.0 623.5,316.0 624.5,316.0 624.5,316.0 625.5,316.0 625.5,316.0 626.5,316.0 626.5,316.0 627.5,316.0 627.5,316.0 628.5,316.0 628.5,316.0 629.5,316.0 629.5,316.0 630.5,316.0 630.5,316.0 631.5,316.0 631.5,316.0 632.5,316.0 632.5,316.0 633.5,316.0 633.5,316.0 634.5,316.0 634.5,316.0 635.5,316.0 635.5,316.0 636.5,316.0 636.5,316.0 637.5,316.0 637.5,316.0 638.5,316.0 638.5,316.0 639.5,316.0 639.5,316.0 640.5,316.0 640.5,316.0 641.5,316.0 641.5,316.0 642.5,316.0 642.5,316.0 643.5,316.0 643.5,316.0 644.5,316.0 644.5,316.0 645.5,316.0 645.5,316.0 646.5,316.0 646.5,316.0 647.5,316.0 647.5,316.0 648.5,316.0 648.5,316.0 649.5,316.0 649.5,316.0 650.5,316.0 650.5,316.0 651.5,316.0 651.5,316.0 652.5,245.2 652.5,245.2 653.5,173.0 653.5,100.9 654.5,76.0 654.5,76.0 655.5,76.0 655.5,76.0 656.5,76.0 656.5,76.0 657.5,76.0 657.5,76.0 658.5,76.0 658.5,76.0 659.5,76.0 659.5,76.0 660.5,76.0 660.5,76.0 661.5,76.0 661.5,76.0 662.5,76.0 662.5,76.0 663.5,76.0 663.5,76.0 664.5,76.0 664.5,76.0 665.5,76.0 665.5,76.0 666.5,76.0 666.5,76.0 667.5,76.0 667.5,76.0 668.5,76.0 668.5,76.0 669.5,76.0 669.5,76.0 670.5,76.0 670.5,76.0 671.5,76.0 671.5,76.0 672.5,76.0 672.5,76.0 673.5,76.0 673.5,76.0 674.5,76.0 674.5,76.0 675.5,76.0 675.5,76.0 676.5,76.0 676.5,76.0 677.5,76.0 677.5,76.0 678.5,76.0 678.5,76.0 679.5,76.0 679.5,76.0 680.5,76.0 680.5,76.0 681.5,76.0 681.5,76.0 682.5,76.0 682.5,76.0 683.5,76.0 683.5,76.0 684.5,76.0 684.5,76.0 685.5,76.0 685.5,76.0 686.5,76.0 686.5,76.0 687.5,138.6 687.5,138.6 688.5,282.9 688.5,210.8 689.5,316.0 689.5,316.0 690.5,316.0 690.5,316.0 691.5,316.0 691.5,316.0 692.5,316.0 692.5,316.0 693.5,316.0 693.5,316.0 694.5,316.0 694.5,316.0 695.5,316.0 695.5,316.0 696.5,316.0 696.5,316.0 697.5,316.0 697.5,316.0 698.5,316.0 698.5,316.0 699.5,316.0 699.5,316.0 700.5,316.0 700.5,316.0 701.5,316.0 701.5,316.0 702.5,316.0 702.5,316.0 703.5,316.0 703.5,316.0 704.5,316.0 704.5,316.0 705.5,316.0 705.5,316.0 706.5,316.0 706.5,316.0 707.5,316.0 707.5,316.0 708.5,316.0 708.5,316.0 709.5,316.0 709.5,316.0 710.5,316.0 710.5,316.0 711.5,316.0 711.5,316.0 712.5,316.0 712.5,316.0 713.5,316.0 713.5,316.0 714.5,316.0 714.5,316.0 715.5,316.0 715.5,316.0 716.5,316.0 716.5,316.0 717.5,316.0 717.5,316.0 718.5,316.0 718.5,316.0 719.5,316.0 719.5,316.0 720.5,316.0 720.5,316.0 721.5,316.0 721.5,316.0 722.5,261.6 722.5,261.6 723.5,189.4 723.5,117.3 724.5,76.0 724.5,76.0 725.5,76.0 725.5,76.0 726.5,76.0 726.5,76.0 727.5,76.0 727.5,76.0 728.5,76.0 728.5,76.0 729.5,76.0 729.5,76.0 730.5,76.0 730.5,76.0 731.5,76.0 731.5,76.0 732.5,76.0 732.5,76.0 733.5,76.0 733.5,76.0 734.5,76.0 734.5,76.0 735.5,76.0 735.5,76.0 736.5,76.0 736.5,76.0 737.5,76.0 737.5,76.0 738.5,76.0 738.5,76.0 739.5,76.0 739.5,76.0 740.5,76.0 740.5,76.0 741.5,76.0 741.5,76.0 742.5,76.0 742.5,76.0 743.5,76.0 743.5,76.0 744.5,76.0 744.5,76.0 745.5,76.0 745.5,76.0 746.5,76.0 746.5,76.0 747.5,76.0 747.5,76.0 748.5,76.0 748.5,76.0 749.5,76.0 749.5,76.0 750.5,76.0 750.5,76.0 751.5,76.0 751.5,76.0 752.5,76.0 752.5,76.0 753.5,76.0 753.5,76.0 754.5,76.0 754.5,76.0 755.5,76.0 755.5,76.0 756.5,76.0 756.5,76.0 757.5,122.2 757.5,122.2 758.5,266.5 758.5,194.4 759.5,316.0 759.5,316.0 760.5,316.0 760.5,316.0 761.5,316.0 761.5,316.0 762.5,316.0 762.5,316.0 763.5,316.0 763.5,316.0 764.5,316.0 764.5,316.0 765.5,316.0 765.5,316.0 766.5,316.0 766.5,316.0 767.5,316.0 767.5,316.0 768.5,316.0 768.5,316.0 769.5,316.0 769.5,316.0 770.5,316.0 770.5,316.0 771.5,316.0 771.5,316.0 772.5,316.0 772.5,316.0 773.5,316.0 773.5,316.0 774.5,316.0 774.5,316.0 775.5,316.0 775.5,316.0 776.5,316.0 776.5,316.0 777.5,316.0 777.5,316.0 778.5,316.0 778.5,316.0 779.5,316.0 779.5,316.0 780.5,316.0 780.5,316.0 781.5,316.0 781.5,316.0 782.5,316.0 782.5,316.0 783.5,316.0 783.5,316.0 784.5,316.0 784.5,316.0 785.5,316.0 785.5,316.0 786.5,316.0 786.5,316.0 787.5,316.0 787.5,316.0 788.5,316.0 788.5,316.0 789.5,316.0 789.5,316.0 790.5,316.0 790.5,316.0 791.5,316.0 791.5,316.0 792.5,278.0 792.5,278.0 793.5,205.8 793.5,133.7 794.5,76.0 794.5,76.0 795.5,76.0 795.5,76.0 796.5,76.0 796.5,76.0 797.5,76.0 797.5,76.0 798.5,76.0 798.5,76.0 799.5,76.0 799.5,76.0" fill="none" stroke="#ef4444" stroke-width="1.5" stroke-linejoin="round"/>
  <polyline clip-path="url(#u27)" points="442.5,196.0 442.5,196.0 443.5,131.4 443.5,131.4 444.5,95.9 444.5,82.4 445.5,78.0 445.5,78.0 446.5,76.6 446.5,76.2 447.5,76.1 447.5,76.1 448.5,76.0 448.5,76.0 449.5,76.0 449.5,76.0 450.5,76.0 450.5,76.0 451.5,76.0 451.5,76.0 452.5,76.0 452.5,76.0 453.5,76.0 453.5,76.0 454.5,76.0 454.5,76.0 455.5,76.0 455.5,76.0 456.5,76.0 456.5,76.0 457.5,76.0 457.5,76.0 458.5,76.0 458.5,76.0 459.5,76.0 459.5,76.0 460.5,76.0 460.5,76.0 461.5,76.0 461.5,76.0 462.5,76.0 462.5,76.0 463.5,76.0 463.5,76.0 464.5,76.0 464.5,76.0 465.5,76.0 465.5,76.0 466.5,76.0 466.5,76.0 467.5,76.0 467.5,76.0 468.5,76.0 468.5,76.0 469.5,76.0 469.5,76.0 470.5,76.0 470.5,76.0 471.5,76.0 471.5,76.0 472.5,76.1 472.5,76.0 473.5,76.2 473.5,76.2 474.5,77.8 474.5,76.6 475.5,81.7 475.5,81.7 476.5,125.8 476.5,93.6 477.5,187.8 477.5,187.8 478.5,254.5 478.5,254.5 479.5,308.7 479.5,293.4 480.5,313.7 480.5,313.7 481.5,315.8 481.5,315.3 482.5,315.9 482.5,315.9 483.5,316.0 483.5,316.0 484.5,316.0 484.5,316.0 485.5,316.0 485.5,316.0 486.5,316.0 486.5,316.0 487.5,316.0 487.5,316.0 488.5,316.0 488.5,316.0 489.5,316.0 489.5,316.0 490.5,316.0 490.5,316.0 491.5,316.0 491.5,316.0 492.5,316.0 492.5,316.0 493.5,316.0 493.5,316.0 494.5,316.0 494.5,316.0 495.5,316.0 495.5,316.0 496.5,316.0 496.5,316.0 497.5,316.0 497.5,316.0 498.5,316.0 498.5,316.0 499.5,316.0 499.5,316.0 500.5,316.0 500.5,316.0 501.5,316.0 501.5,316.0 502.5,316.0 502.5,316.0 503.5,316.0 503.5,316.0 504.5,316.0 504.5,316.0 505.5,316.0 505.5,316.0 506.5,316.0 506.5,316.0 507.5,316.0 507.5,315.9 508.5,315.8 508.5,315.8 509.5,315.5 509.5,314.4 510.5,311.0 510.5,311.0 511.5,300.5 511.5,271.3 512.5,212.3 512.5,212.3 513.5,143.9 513.5,143.9 514.5,101.5 514.5,84.4 515.5,78.6 515.5,78.6 516.5,76.8 516.5,76.3 517.5,76.1 517.5,76.1 518.5,76.0 518.5,76.0 519.5,76.0 519.5,76.0 520.5,76.0 520.5,76.0 521.5,76.0 521.5,76.0 522.5,76.0 522.5,76.0 523.5,76.0 523.5,76.0 524.5,76.0 524.5,76.0 525.5,76.0 525.5,76.0 526.5,76.0 526.5,76.0 527.5,76.0 527.5,76.0 528.5,76.0 528.5,76.0 529.5,76.0 529.5,76.0 530.5,76.0 530.5,76.0 531.5,76.0 531.5,76.0 532.5,76.0 532.5,76.0 533.5,76.0 533.5,76.0 534.5,76.0 534.5,76.0 535.5,76.0 535.5,76.0 536.5,76.0 536.5,76.0 537.5,76.0 537.5,76.0 538.5,76.0 538.5,76.0 539.5,76.0 539.5,76.0 540.5,76.0 540.5,76.0 541.5,76.0 541.5,76.0 542.5,76.0 542.5,76.0 543.5,76.1 543.5,76.1 544.5,77.4 544.5,76.4 545.5,80.4 545.5,80.4 546.5,115.9 546.5,89.7 547.5,171.7 547.5,171.7 548.5,287.2 548.5,241.2 549.5,306.5 549.5,306.5 550.5,313.0 550.5,313.0 551.5,315.7 551.5,315.1 552.5,315.9 552.5,315.9 553.5,316.0 553.5,316.0 554.5,316.0 554.5,316.0 555.5,316.0 555.5,316.0 556.5,316.0 556.5,316.0 557.5,316.0 557.5,316.0 558.5,316.0 558.5,316.0 559.5,316.0 559.5,316.0 560.5,316.0 560.5,316.0 561.5,316.0 561.5,316.0 562.5,316.0 562.5,316.0 563.5,316.0 563.5,316.0 564.5,316.0 564.5,316.0 565.5,316.0 565.5,316.0 566.5,316.0 566.5,316.0 567.5,316.0 567.5,316.0 568.5,316.0 568.5,316.0 569.5,316.0 569.5,316.0 570.5,316.0 570.5,316.0 571.5,316.0 571.5,316.0 572.5,316.0 572.5,316.0 573.5,316.0 573.5,316.0 574.5,316.0 574.5,316.0 575.5,316.0 575.5,316.0 576.5,316.0 576.5,316.0 577.5,316.0 577.5,316.0 578.5,315.9 578.5,315.9 579.5,315.6 579.5,314.8 580.5,312.2 580.5,312.2 581.5,304.0 581.5,280.4 582.5,228.0 582.5,228.0 583.5,158.0 583.5,108.4 584.5,86.8 584.5,86.8 585.5,79.4 585.5,79.4 586.5,77.1 586.5,76.3 587.5,76.1 587.5,76.1 588.5,76.0 588.5,76.0 589.5,76.0 589.5,76.0 590.5,76.0 590.5,76.0 591.5,76.0 591.5,76.0 592.5,76.0 592.5,76.0 593.5,76.0 593.5,76.0 594.5,76.0 594.5,76.0 595.5,76.0 595.5,76.0 596.5,76.0 596.5,76.0 597.5,76.0 597.5,76.0 598.5,76.0 598.5,76.0 599.5,76.0 599.5,76.0 600.5,76.0 600.5,76.0 601.5,76.0 601.5,76.0 602.5,76.0 602.5,76.0 603.5,76.0 603.5,76.0 604.5,76.0 604.5,76.0 605.5,76.0 605.5,76.0 606.5,76.0 606.5,76.0 607.5,76.0 607.5,76.0 608.5,76.0 608.5,76.0 609.5,76.0 609.5,76.0 610.5,76.0 610.5,76.0 611.5,76.0 611.5,76.0 612.5,76.0 612.5,76.0 613.5,76.1 613.5,76.1 614.5,77.1 614.5,76.3 615.5,79.3 615.5,79.3 616.5,107.6 616.5,86.6 617.5,156.5 617.5,156.5 618.5,279.6 618.5,226.5 619.5,303.7 619.5,303.7 620.5,314.8 620.5,312.1 621.5,315.6 621.5,315.6 622.5,315.9 622.5,315.9 623.5,316.0 623.5,316.0 624.5,316.0 624.5,316.0 625.5,316.0 625.5,316.0 626.5,316.0 626.5,316.0 627.5,316.0 627.5,316.0 628.5,316.0 628.5,316.0 629.5,316.0 629.5,316.0 630.5,316.0 630.5,316.0 631.5,316.0 631.5,316.0 632.5,316.0 632.5,316.0 633.5,316.0 633.5,316.0 634.5,316.0 634.5,316.0 635.5,316.0 635.5,316.0 636.5,316.0 636.5,316.0 637.5,316.0 637.5,316.0 638.5,316.0 638.5,316.0 639.5,316.0 639.5,316.0 640.5,316.0 640.5,316.0 641.5,316.0 641.5,316.0 642.5,316.0 642.5,316.0 643.5,316.0 643.5,316.0 644.5,316.0 644.5,316.0 645.5,316.0 645.5,316.0 646.5,316.0 646.5,316.0 647.5,316.0 647.5,316.0 648.5,315.9 648.5,315.7 649.5,315.1 649.5,315.1 650.5,313.1 650.5,313.1 651.5,306.7 651.5,287.9 652.5,242.6 652.5,242.6 653.5,173.3 653.5,116.8 654.5,90.0 654.5,90.0 655.5,80.5 655.5,77.4 656.5,76.4 656.5,76.4 657.5,76.1 657.5,76.1 658.5,76.0 658.5,76.0 659.5,76.0 659.5,76.0 660.5,76.0 660.5,76.0 661.5,76.0 661.5,76.0 662.5,76.0 662.5,76.0 663.5,76.0 663.5,76.0 664.5,76.0 664.5,76.0 665.5,76.0 665.5,76.0 666.5,76.0 666.5,76.0 667.5,76.0 667.5,76.0 668.5,76.0 668.5,76.0 669.5,76.0 669.5,76.0 670.5,76.0 670.5,76.0 671.5,76.0 671.5,76.0 672.5,76.0 672.5,76.0 673.5,76.0 673.5,76.0 674.5,76.0 674.5,76.0 675.5,76.0 675.5,76.0 676.5,76.0 676.5,76.0 677.5,76.0 677.5,76.0 678.5,76.0 678.5,76.0 679.5,76.0 679.5,76.0 680.5,76.0 680.5,76.0 681.5,76.0 681.5,76.0 682.5,76.0 682.5,76.0 683.5,76.3 683.5,76.1 684.5,76.8 684.5,76.8 685.5,78.6 685.5,78.6 686.5,100.9 686.5,84.2 687.5,142.6 687.5,142.6 688.5,270.3 688.5,210.7 689.5,300.1 689.5,300.1 690.5,314.4 690.5,310.9 691.5,315.5 691.5,315.5 692.5,315.8 692.5,315.8 693.5,316.0 693.5,315.9 694.5,316.0 694.5,316.0 695.5,316.0 695.5,316.0 696.5,316.0 696.5,316.0 697.5,316.0 697.5,316.0 698.5,316.0 698.5,316.0 699.5,316.0 699.5,316.0 700.5,316.0 700.5,316.0 701.5,316.0 701.5,316.0 702.5,316.0 702.5,316.0 703.5,316.0 703.5,316.0 704.5,316.0 704.5,316.0 705.5,316.0 705.5,316.0 706.5,316.0 706.5,316.0 707.5,316.0 707.5,316.0 708.5,316.0 708.5,316.0 709.5,316.0 709.5,316.0 710.5,316.0 710.5,316.0 711.5,316.0 711.5,316.0 712.5,316.0 712.5,316.0 713.5,316.0 713.5,316.0 714.5,316.0 714.5,316.0 715.5,316.0 715.5,316.0 716.5,316.0 716.5,316.0 717.5,316.0 717.5,316.0 718.5,315.9 718.5,315.8 719.5,315.3 719.5,315.3 720.5,313.7 720.5,308.8 721.5,294.0 721.5,294.0 722.5,255.8 722.5,255.8 723.5,189.4 723.5,126.9 724.5,94.0 724.5,94.0 725.5,81.8 725.5,77.8 726.5,76.6 726.5,76.6 727.5,76.2 727.5,76.1 728.5,76.0 728.5,76.0 729.5,76.0 729.5,76.0 730.5,76.0 730.5,76.0 731.5,76.0 731.5,76.0 732.5,76.0 732.5,76.0 733.5,76.0 733.5,76.0 734.5,76.0 734.5,76.0 735.5,76.0 735.5,76.0 736.5,76.0 736.5,76.0 737.5,76.0 737.5,76.0 738.5,76.0 738.5,76.0 739.5,76.0 739.5,76.0 740.5,76.0 740.5,76.0 741.5,76.0 741.5,76.0 742.5,76.0 742.5,76.0 743.5,76.0 743.5,76.0 744.5,76.0 744.5,76.0 745.5,76.0 745.5,76.0 746.5,76.0 746.5,76.0 747.5,76.0 747.5,76.0 748.5,76.0 748.5,76.0 749.5,76.0 749.5,76.0 750.5,76.0 750.5,76.0 751.5,76.0 751.5,76.0 752.5,76.0 752.5,76.0 753.5,76.2 753.5,76.1 754.5,76.6 754.5,76.6 755.5,82.3 755.5,78.0 756.5,95.5 756.5,95.5 757.5,130.3 757.5,130.3 758.5,259.4 758.5,194.4 759.5,295.6 759.5,295.6 760.5,313.9 760.5,309.4 761.5,315.3 761.5,315.3 762.5,315.9 762.5,315.8 763.5,316.0 763.5,316.0 764.5,316.0 764.5,316.0 765.5,316.0 765.5,316.0 766.5,316.0 766.5,316.0 767.5,316.0 767.5,316.0 768.5,316.0 768.5,316.0 769.5,316.0 769.5,316.0 770.5,316.0 770.5,316.0 771.5,316.0 771.5,316.0 772.5,316.0 772.5,316.0 773.5,316.0 773.5,316.0 774.5,316.0 774.5,316.0 775.5,316.0 775.5,316.0 776.5,316.0 776.5,316.0 777.5,316.0 777.5,316.0 778.5,316.0 778.5,316.0 779.5,316.0 779.5,316.0 780.5,316.0 780.5,316.0 781.5,316.0 781.5,316.0 782.5,316.0 782.5,316.0 783.5,316.0 783.5,316.0 784.5,316.0 784.5,316.0 785.5,316.0 785.5,316.0 786.5,316.0 786.5,316.0 787.5,316.0 787.5,316.0 788.5,315.9 788.5,315.8 789.5,315.4 789.5,315.4 790.5,314.3 790.5,310.5 791.5,298.8 791.5,298.8 792.5,267.2 792.5,267.2 793.5,205.8 793.5,138.7 794.5,99.1 794.5,99.1 795.5,83.5 795.5,78.4 796.5,76.8 796.5,76.8 797.5,76.2 797.5,76.1 798.5,76.0 798.5,76.0 799.5,76.0 799.5,76.0" fill="none" stroke="#22c55e" stroke-width="1.5" stroke-linejoin="round"/>
  <polyline clip-path="url(#u27)" points="442.5,196.0 442.5,196.0 443.5,123.8 443.5,123.8 444.5,171.4 444.5,100.1 445.5,241.9 445.5,241.9 446.5,311.2 446.5,252.8 447.5,186.5 447.5,186.5 448.5,122.2 448.5,92.0 449.5,151.8 449.5,151.8 450.5,208.9 450.5,208.9 451.5,314.3 451.5,263.2 452.5,269.8 452.5,269.8 453.5,225.5 453.5,184.7 454.5,147.8 454.5,147.8 455.5,114.9 455.5,86.0 456.5,90.6 456.5,90.6 457.5,110.9 457.5,110.9 458.5,138.4 458.5,126.9 459.5,145.5 459.5,145.5 460.5,148.0 460.5,146.0 461.5,139.5 461.5,139.5 462.5,128.4 462.5,113.0 463.5,93.1 463.5,93.1 464.5,83.0 464.5,83.0 465.5,143.9 465.5,111.4 466.5,180.4 466.5,180.4 467.5,264.6 467.5,220.6 468.5,312.1 468.5,312.1 469.5,269.1 469.5,215.2 470.5,158.4 470.5,158.4 471.5,98.9 471.5,98.9 472.5,179.1 472.5,115.0 473.5,245.2 473.5,245.2 474.5,313.0 474.5,249.8 475.5,179.4 475.5,179.4 476.5,115.6 476.5,108.2 477.5,187.8 477.5,187.8 478.5,260.0 478.5,260.0 479.5,300.1 479.5,228.7 480.5,158.1 480.5,158.1 481.5,131.5 481.5,88.6 482.5,198.0 482.5,198.0 483.5,306.9 483.5,262.6 484.5,246.9 484.5,246.9 485.5,189.4 485.5,189.4 486.5,134.9 486.5,83.3 487.5,116.9 487.5,116.9 488.5,202.8 488.5,161.7 489.5,240.2 489.5,240.2 490.5,302.9 490.5,273.6 491.5,304.0 491.5,304.0 492.5,283.1 492.5,283.1 493.5,266.7 493.5,254.6 494.5,247.1 494.5,247.1 495.5,245.6 495.5,244.1 496.5,251.6 496.5,251.6 497.5,277.0 497.5,262.1 498.5,296.4 498.5,296.4 499.5,311.9 499.5,311.9 500.5,284.0 500.5,252.0 501.5,216.0 501.5,216.0 502.5,176.1 502.5,132.6 503.5,85.5 503.5,85.5 504.5,170.5 504.5,116.9 505.5,227.0 505.5,227.0 506.5,286.2 506.5,286.2 507.5,284.2 507.5,220.3 508.5,154.4 508.5,154.4 509.5,134.3 509.5,86.8 510.5,204.5 510.5,204.5 511.5,284.5 511.5,275.7 512.5,212.4 512.5,212.4 513.5,140.2 513.5,140.2 514.5,155.2 514.5,83.8 515.5,225.9 515.5,225.9 516.5,295.6 516.5,268.1 517.5,201.4 517.5,201.4 518.5,136.6 518.5,78.1 519.5,138.4 519.5,138.4 520.5,196.2 520.5,196.2 521.5,303.0 521.5,251.1 522.5,280.4 522.5,280.4 523.5,235.2 523.5,193.7 524.5,155.9 524.5,155.9 525.5,122.0 525.5,92.2 526.5,85.4 526.5,85.4 527.5,106.7 527.5,106.7 528.5,136.2 528.5,123.7 529.5,144.3 529.5,144.3 530.5,147.8 530.5,146.8 531.5,141.3 531.5,141.3 532.5,131.3 532.5,116.9 533.5,98.0 533.5,98.0 534.5,104.6 534.5,77.2 535.5,136.2 535.5,136.2 536.5,171.7 536.5,171.7 537.5,254.3 537.5,211.2 538.5,301.0 538.5,301.0 539.5,281.0 539.5,227.7 540.5,171.6 540.5,171.6 541.5,112.7 541.5,100.7 542.5,164.4 542.5,164.4 543.5,230.0 543.5,230.0 544.5,297.5 544.5,265.6 545.5,195.5 545.5,195.5 546.5,124.5 546.5,99.3 547.5,171.4 547.5,171.4 548.5,315.6 548.5,243.6 549.5,244.9 549.5,244.9 550.5,174.1 550.5,174.1 551.5,116.2 551.5,104.3 552.5,183.1 552.5,183.1 553.5,311.1 553.5,248.1 554.5,260.3 554.5,260.3 555.5,202.2 555.5,147.0 556.5,94.8 556.5,94.8 557.5,106.2 557.5,106.2 558.5,193.8 558.5,151.8 559.5,232.0 559.5,232.0 560.5,296.6 560.5,266.3 561.5,309.3 561.5,309.3 562.5,287.5 562.5,270.0 563.5,257.0 563.5,257.0 564.5,248.4 564.5,248.4 565.5,244.8 565.5,244.4 566.5,249.8 566.5,249.8 567.5,273.2 567.5,259.3 568.5,291.6 568.5,291.6 569.5,314.3 569.5,290.7 570.5,259.6 570.5,259.6 571.5,224.5 571.5,224.5 572.5,185.5 572.5,142.8 573.5,96.5 573.5,96.5 574.5,158.1 574.5,105.2 575.5,213.9 575.5,213.9 576.5,298.4 576.5,272.5 577.5,235.0 577.5,235.0 578.5,169.5 578.5,169.5 579.5,118.5 579.5,102.3 580.5,188.5 580.5,188.5 581.5,300.9 581.5,259.4 582.5,228.8 582.5,228.8 583.5,156.6 583.5,84.6 584.5,139.0 584.5,139.0 585.5,209.9 585.5,209.9 586.5,283.5 586.5,279.8 587.5,216.5 587.5,216.5 588.5,151.2 588.5,88.0 589.5,124.9 589.5,124.9 590.5,238.9 590.5,183.3 591.5,291.5 591.5,291.5 592.5,291.2 592.5,291.2 593.5,245.2 593.5,202.8 594.5,164.1 594.5,164.1 595.5,129.4 595.5,98.6 596.5,79.9 596.5,79.9 597.5,120.2 597.5,102.2 598.5,133.8 598.5,133.8 599.5,142.8 599.5,142.8 600.5,147.5 600.5,147.4 601.5,143.0 601.5,143.0 602.5,134.0 602.5,120.6 603.5,102.7 603.5,102.7 604.5,98.0 604.5,80.5 605.5,128.6 605.5,128.6 606.5,163.3 606.5,163.3 607.5,244.2 607.5,201.9 608.5,290.1 608.5,290.1 609.5,292.6 609.5,240.1 610.5,184.6 610.5,184.6 611.5,126.3 611.5,86.5 612.5,149.7 612.5,149.7 613.5,214.9 613.5,214.9 614.5,282.0 614.5,281.4 615.5,211.5 615.5,211.5 616.5,140.7 616.5,82.9 617.5,155.0 617.5,155.0 618.5,299.3 618.5,227.2 619.5,261.1 619.5,261.1 620.5,190.1 620.5,120.0 621.5,100.7 621.5,100.7 622.5,168.0 622.5,168.0 623.5,297.0 623.5,233.5 624.5,273.9 624.5,273.9 625.5,215.2 625.5,159.3 626.5,106.4 626.5,106.4 627.5,141.8 627.5,95.4 628.5,184.6 628.5,184.6 629.5,223.7 629.5,223.7 630.5,290.1 630.5,258.9 631.5,314.9 631.5,314.9 632.5,292.1 632.5,273.6 633.5,259.6 633.5,259.6 634.5,250.0 634.5,244.9 635.5,244.3 635.5,244.3 636.5,248.3 636.5,248.3 637.5,269.7 637.5,256.7 638.5,287.1 638.5,287.1 639.5,308.8 639.5,297.2 640.5,267.1 640.5,267.1 641.5,232.8 641.5,194.7 642.5,152.8 642.5,152.8 643.5,107.3 643.5,107.3 644.5,145.8 644.5,93.6 645.5,201.0 645.5,201.0 646.5,312.5 646.5,258.9 647.5,249.6 647.5,249.6 648.5,184.6 648.5,117.7 649.5,102.7 649.5,102.7 650.5,172.5 650.5,172.5 651.5,314.8 651.5,243.2 652.5,245.2 652.5,245.2 653.5,173.0 653.5,100.9 654.5,122.8 654.5,122.8 655.5,264.1 655.5,193.9 656.5,299.0 656.5,299.0 657.5,231.5 657.5,231.5 658.5,165.8 658.5,102.1 659.5,111.3 659.5,111.3 660.5,226.5 660.5,170.3 661.5,279.8 661.5,279.8 662.5,302.1 662.5,255.3 663.5,212.1 663.5,212.1 664.5,172.6 664.5,172.6 665.5,136.9 665.5,105.3 666.5,77.7 666.5,77.7 667.5,116.5 667.5,97.5 668.5,131.1 668.5,131.1 669.5,146.8 669.5,141.2 670.5,147.8 670.5,147.8 671.5,144.4 671.5,144.4 672.5,136.4 672.5,124.0 673.5,107.1 673.5,107.1 674.5,91.6 674.5,85.9 675.5,121.3 675.5,121.3 676.5,192.8 676.5,155.1 677.5,234.2 677.5,234.2 678.5,279.3 678.5,279.3 679.5,304.1 679.5,252.3 680.5,197.5 680.5,197.5 681.5,139.8 681.5,79.5 682.5,135.2 682.5,135.2 683.5,266.6 683.5,200.0 684.5,297.1 684.5,297.1 685.5,227.5 685.5,227.5 686.5,156.9 686.5,85.4 687.5,138.6 687.5,138.6 688.5,282.9 688.5,210.8 689.5,277.3 689.5,277.3 690.5,206.1 690.5,135.9 691.5,85.2 691.5,85.2 692.5,152.9 692.5,152.9 693.5,282.7 693.5,218.8 694.5,287.5 694.5,287.5 695.5,228.3 695.5,171.7 696.5,118.1 696.5,118.1 697.5,131.5 697.5,84.4 698.5,175.2 698.5,175.2 699.5,215.1 699.5,215.1 700.5,283.3 700.5,251.2 701.5,311.3 701.5,311.3 702.5,296.9 702.5,277.4 703.5,262.4 703.5,262.4 704.5,251.8 704.5,245.6 705.5,244.0 705.5,244.0 706.5,247.0 706.5,247.0 707.5,266.4 707.5,254.4 708.5,282.7 708.5,282.7 709.5,303.5 709.5,303.5 710.5,274.3 710.5,274.3 711.5,241.0 711.5,203.7 712.5,162.7 712.5,162.7 713.5,118.0 713.5,82.2 714.5,133.6 714.5,133.6 715.5,188.2 715.5,188.2 716.5,305.5 716.5,245.5 717.5,264.1 717.5,264.1 718.5,199.5 718.5,133.1 719.5,87.0 719.5,87.0 720.5,227.1 720.5,156.5 721.5,298.5 721.5,298.5 722.5,261.6 722.5,261.6 723.5,189.4 723.5,117.3 724.5,106.6 724.5,106.6 725.5,248.2 725.5,177.8 726.5,314.6 726.5,314.6 727.5,246.7 727.5,180.6 728.5,116.4 728.5,116.4 729.5,97.6 729.5,97.6 730.5,214.0 730.5,157.1 731.5,267.9 731.5,267.9 732.5,313.2 732.5,265.7 733.5,221.6 733.5,221.6 734.5,181.2 734.5,144.7 735.5,112.1 735.5,112.1 736.5,83.6 736.5,83.6 737.5,112.6 737.5,92.6 738.5,128.1 738.5,128.1 739.5,145.9 739.5,139.3 740.5,148.0 740.5,148.0 741.5,145.6 741.5,138.6 742.5,127.2 742.5,127.2 743.5,111.4 743.5,111.4 744.5,91.1 744.5,85.4 745.5,114.2 745.5,114.2 746.5,183.9 746.5,147.0 747.5,224.5 747.5,224.5 748.5,315.4 748.5,268.8 749.5,264.4 749.5,264.4 750.5,210.2 750.5,210.2 751.5,153.1 751.5,93.4 752.5,120.7 752.5,120.7 753.5,251.3 753.5,185.1 754.5,312.8 754.5,312.8 755.5,243.4 755.5,173.0 756.5,101.7 756.5,101.7 757.5,122.2 757.5,122.2 758.5,266.5 758.5,194.4 759.5,293.6 759.5,293.6 760.5,222.2 760.5,151.7 761.5,82.4 761.5,82.4 762.5,204.0 762.5,137.6 763.5,268.4 763.5,268.4 764.5,301.4 764.5,301.4 765.5,241.5 765.5,184.3 766.5,130.0 766.5,130.0 767.5,121.1 767.5,78.8 768.5,165.6 768.5,165.6 769.5,243.4 769.5,206.4 770.5,276.4 770.5,276.4 771.5,305.3 771.5,305.3 772.5,301.9 772.5,281.5 773.5,265.4 773.5,265.4 774.5,253.8 774.5,246.6 775.5,244.0 775.5,244.0 776.5,252.3 776.5,245.9 777.5,263.3 777.5,263.3 778.5,278.6 778.5,278.6 779.5,309.6 779.5,298.4 780.5,281.3 780.5,281.3 781.5,248.9 781.5,212.5 782.5,172.3 782.5,172.3 783.5,128.4 783.5,81.0 784.5,121.7 784.5,121.7 785.5,175.5 785.5,175.5 786.5,291.7 786.5,232.2 787.5,278.4 787.5,278.4 788.5,214.4 788.5,148.3 789.5,80.6 789.5,80.6 790.5,211.0 790.5,140.6 791.5,282.2 791.5,282.2 792.5,278.0 792.5,278.0 793.5,205.8 793.5,133.7 794.5,90.3 794.5,90.3 795.5,232.3 795.5,161.7 796.5,301.8 796.5,301.8 797.5,262.0 797.5,195.5 798.5,130.8 798.5,130.8 799.5,143.8 799.5,83.7" fill="none" stroke="#eab308" stroke-width="1.5" stroke-linejoin="round"/>
  <line x1="442" y1="8" x2="454" y2="8" stroke="#d1d5db" stroke-width="2"/>
  <text x="457" y="11" text-anchor="start" font-size="11" fill="#6b7280">input</text>
  <line x1="496" y1="8" x2="508" y2="8" stroke="#3b82f6" stroke-width="2"/>
  <text x="511" y="11" text-anchor="start" font-size="11" fill="#6b7280">soft (cubic)</text>
  <line x1="590.6" y1="8" x2="602.6" y2="8" stroke="#ef4444" stroke-width="2"/>
  <text x="605.6" y="11" text-anchor="start" font-size="11" fill="#6b7280">hard (clip)</text>
  <line x1="679.4" y1="8" x2="691.4" y2="8" stroke="#22c55e" stroke-width="2"/>
  <text x="694.4" y="11" text-anchor="start" font-size="11" fill="#6b7280">tanh</text>
  <line x1="727.6" y1="8" x2="739.6" y2="8" stroke="#eab308" stroke-width="2"/>
  <text x="742.6" y="11" text-anchor="start" font-size="11" fill="#6b7280">foldback</text>
</svg>
