<svg xmlns="http://www.w3.org/2000/svg" viewBox="0 0 820 392" style="font-family:system-ui,-apple-system,sans-serif">
  <defs>
    <clipPath id="u16"><rect x="34" y="16" width="766" height="360"/></clipPath>
  </defs>
  <text x="800" y="11" text-anchor="end" font-size="11" fill="#6b7280" font-weight="600">Envelope follower — attack=5ms, release=80ms</text>
  <line x1="34" y1="16" x2="34" y2="376" stroke="#d1d5db" stroke-width="1"/>
  <line x1="34" y1="376" x2="800" y2="376" stroke="#d1d5db" stroke-width="1"/>
  <line x1="34" y1="16" x2="34" y2="376" stroke="#e5e7eb" stroke-width="0.5"/>
  <text x="34" y="388" text-anchor="middle" font-size="8" fill="#6b7280">0</text>
  <line x1="198.9" y1="16" x2="198.9" y2="376" stroke="#e5e7eb" stroke-width="0.5"/>
  <text x="198.9" y="388" text-anchor="middle" font-size="8" fill="#6b7280">10</text>
  <line x1="363.9" y1="16" x2="363.9" y2="376" stroke="#e5e7eb" stroke-width="0.5"/>
  <text x="363.9" y="388" text-anchor="middle" font-size="8" fill="#6b7280">20</text>
  <line x1="528.8" y1="16" x2="528.8" y2="376" stroke="#e5e7eb" stroke-width="0.5"/>
  <text x="528.8" y="388" text-anchor="middle" font-size="8" fill="#6b7280">30</text>
  <line x1="693.8" y1="16" x2="693.8" y2="376" stroke="#e5e7eb" stroke-width="0.5"/>
  <text x="693.8" y="388" text-anchor="middle" font-size="8" fill="#6b7280">40</text>
  <line x1="34" y1="346" x2="800" y2="346" stroke="#e5e7eb" stroke-width="0.5"/>
  <text x="30" y="349" text-anchor="end" font-size="8" fill="#6b7280">-1</text>
  <line x1="34" y1="271" x2="800" y2="271" stroke="#e5e7eb" stroke-width="0.5"/>
  <text x="30" y="274" text-anchor="end" font-size="8" fill="#6b7280">-0.5</text>
  <line x1="34" y1="196" x2="800" y2="196" stroke="#e5e7eb" stroke-width="0.5"/>
  <text x="30" y="199" text-anchor="end" font-size="8" fill="#6b7280">0</text>
  <line x1="34" y1="121" x2="800" y2="121" stroke="#e5e7eb" stroke-width="0.5"/>
  <text x="30" y="124" text-anchor="end" font-size="8" fill="#6b7280">0.5</text>
  <line x1="34" y1="46" x2="800" y2="46" stroke="#e5e7eb" stroke-width="0.5"/>
  <text x="30" y="49" text-anchor="end" font-size="8" fill="#6b7280">1</text>
  <line x1="34" y1="196" x2="800" y2="196" stroke="#d1d5db" stroke-width="0.5"/>
  <text x="417" y="402" text-anchor="middle" font-size="9" fill="#6b7280">ms</text>
  <text x="12" y="196" text-anchor="middle" font-size="9" fill="#6b7280">amp</text>
  <polyline clip-path="url(#u16)" points="34.5,196.0 34.5,188.5 35.5,181.0 35.5,166.2 36.5,159.0 36.5,145.0 37.5,138.3 37.5,131.8 38.5,125.6 38.5,114.0 39.5,108.7 39.5,99.1 40.5,94.8 40.5,91.0 41.5,87.6 41.5,82.0 42.5,79.9 42.5,77.0 43.5,76.3 43.5,76.0 44.5,78.0 44.5,76.2 45.5,84.2 45.5,79.6 46.5,90.6 46.5,87.2 47.5,103.1 47.5,94.4 48.5,119.0 48.5,108.1 49.5,131.1 49.5,124.9 50.5,151.1 50.5,137.6 51.5,172.7 51.5,158.2 52.5,187.6 52.5,180.1 53.5,210.2 53.5,195.1 54.5,232.2 54.5,217.6 55.5,246.2 55.5,239.3 56.5,265.7 56.5,252.9 57.5,282.7 57.5,271.7 58.5,292.4 58.5,287.8 59.5,304.1 59.5,296.7 60.5,311.9 60.5,307.1 61.5,314.9 61.5,313.6 62.5,316.0 62.5,315.7 63.5,315.2 63.5,312.6 64.5,310.5 64.5,308.1 65.5,305.2 65.5,298.1 66.5,293.9 66.5,284.5 67.5,279.2 67.5,273.7 68.5,267.8 68.5,255.2 69.5,248.5 69.5,234.6 70.5,227.4 70.5,220.1 71.5,212.7 71.5,197.7 72.5,190.2 72.5,175.2 73.5,167.9 73.5,160.6 74.5,153.5 74.5,139.8 75.5,133.3 75.5,121.0 76.5,115.3 76.5,109.9 77.5,104.8 77.5,95.8 78.5,91.8 78.5,85.2 79.5,82.5 79.5,80.3 80.5,78.5 80.5,76.4 81.5,76.7 81.5,76.0 82.5,81.2 82.5,77.7 83.5,86.5 83.5,83.6 84.5,97.6 84.5,89.8 85.5,112.2 85.5,102.1 86.5,123.5 86.5,117.7 87.5,142.7 87.5,129.7 88.5,163.7 88.5,149.5 89.5,178.5 89.5,171.1 90.5,201.0 90.5,185.9 91.5,223.3 91.5,208.5 92.5,237.7 92.5,230.6 93.5,258.0 93.5,244.7 94.5,276.1 94.5,264.3 95.5,286.6 95.5,281.5 96.5,299.8 96.5,291.4 97.5,309.2 97.5,303.3 98.5,313.3 98.5,311.5 99.5,316.0 99.5,314.6 100.5,315.9 100.5,314.4 101.5,313.0 101.5,311.0 102.5,308.7 102.5,302.6 103.5,299.0 103.5,290.5 104.5,285.6 104.5,280.5 105.5,275.0 105.5,263.0 106.5,256.7 106.5,243.2 107.5,236.2 107.5,229.1 108.5,221.8 108.5,206.9 109.5,199.4 109.5,184.4 110.5,176.9 110.5,169.5 111.5,162.3 111.5,148.1 112.5,141.3 112.5,128.4 113.5,122.3 113.5,116.5 114.5,111.1 114.5,101.1 115.5,96.7 115.5,89.1 116.5,85.9 116.5,83.1 117.5,80.8 117.5,77.5 118.5,76.5 118.5,76.1 119.5,77.5 119.5,76.5 120.5,83.0 120.5,78.9 121.5,92.6 121.5,85.8 122.5,101.0 122.5,96.6 123.5,116.4 123.5,105.8 124.5,134.6 124.5,122.2 125.5,148.0 125.5,141.2 126.5,169.4 126.5,155.0 127.5,191.7 127.5,176.8 128.5,206.8 128.5,199.2 129.5,228.9 129.5,214.2 130.5,249.9 130.5,236.1 131.5,269.0 131.5,256.5 132.5,280.3 132.5,274.8 133.5,294.8 133.5,285.5 134.5,305.8 134.5,298.9 135.5,311.0 135.5,308.6 136.5,315.4 136.5,312.9 137.5,316.0 137.5,315.6 138.5,314.7 138.5,313.3 139.5,311.5 139.5,306.5 140.5,303.4 140.5,295.9 141.5,291.5 141.5,286.8 142.5,281.7 142.5,270.5 143.5,264.4 143.5,251.6 144.5,244.8 144.5,237.8 145.5,230.7 145.5,216.1 146.5,208.6 146.5,193.6 147.5,186.1 147.5,178.6 148.5,171.2 148.5,156.7 149.5,149.7 149.5,136.2 150.5,129.8 150.5,123.7 151.5,117.8 151.5,107.1 152.5,102.2 152.5,93.6 153.5,89.8 153.5,86.5 154.5,83.7 154.5,79.3 155.5,77.8 155.5,76.1 156.5,76.4 156.5,76.0 157.5,80.3 157.5,77.2 158.5,88.2 158.5,82.5 159.5,95.7 159.5,91.7 160.5,109.7 160.5,100.0 161.5,126.9 161.5,115.1 162.5,139.7 162.5,133.1 163.5,160.5 163.5,146.4 164.5,182.5 164.5,167.7 165.5,197.5 165.5,190.0 166.5,219.9 166.5,205.1 167.5,241.5 167.5,227.3 168.5,255.0 168.5,248.4 169.5,273.5 169.5,261.5 170.5,289.3 170.5,279.1 171.5,298.0 171.5,293.8 172.5,308.0 172.5,301.8 173.5,314.1 173.5,310.5 174.5,315.8 174.5,315.2 175.5,316.0 175.5,314.9 176.5,313.7 176.5,309.8 177.5,307.2 177.5,300.7 178.5,296.8 178.5,292.5 179.5,287.9 179.5,277.5 180.5,271.8 180.5,259.6 181.5,253.1 181.5,246.4 182.5,239.4 182.5,225.1 183.5,217.8 183.5,202.8 184.5,195.3 184.5,187.8 185.5,180.3 185.5,165.6 186.5,158.3 186.5,144.4 187.5,137.7 187.5,131.3 188.5,125.1 188.5,113.5 189.5,108.2 189.5,98.7 190.5,94.5 190.5,90.7 191.5,87.3 191.5,81.8 192.5,79.7 192.5,76.9 193.5,76.2 193.5,76.0 194.5,78.2 194.5,76.3 195.5,84.5 195.5,79.8 196.5,90.9 196.5,87.5 197.5,103.6 197.5,94.7 198.5,119.5 198.5,108.6 199.5,131.7 199.5,125.5 200.5,151.8 200.5,138.2 201.5,173.4 201.5,158.8 202.5,188.3 202.5,180.8 203.5,210.8 203.5,195.8 204.5,232.8 204.5,218.3 205.5,246.8 205.5,239.9 206.5,266.3 206.5,253.5 207.5,283.2 207.5,272.2 208.5,292.8 208.5,288.2 209.5,304.4 209.5,297.1 210.5,312.1 210.5,307.4 211.5,315.0 211.5,313.8 212.5,316.0 212.5,315.7 213.5,315.1 213.5,312.4 214.5,310.3 214.5,307.8 215.5,304.9 215.5,297.7 216.5,293.5 216.5,284.0 217.5,278.7 217.5,273.1 218.5,267.2 218.5,254.6 219.5,247.9 219.5,234.0 220.5,226.8 220.5,219.4 221.5,212.0 221.5,197.0 222.5,189.5 222.5,174.6 223.5,167.2 223.5,160.0 224.5,152.9 224.5,139.2 225.5,132.7 225.5,120.4 226.5,114.8 226.5,104.3 227.5,99.7 227.5,95.4 228.5,91.5 228.5,84.9 229.5,82.3 229.5,78.4 230.5,77.1 230.5,76.3 231.5,76.8 231.5,76.0 232.5,81.4 232.5,77.9 233.5,86.8 233.5,83.9 234.5,98.0 234.5,90.1 235.5,112.6 235.5,102.5 236.5,124.1 236.5,118.2 237.5,143.3 237.5,130.2 238.5,164.4 238.5,150.2 239.5,179.1 239.5,171.7 240.5,201.6 240.5,186.6 241.5,224.0 241.5,209.1 242.5,238.3 242.5,231.2 243.5,258.6 243.5,245.3 244.5,276.6 244.5,264.9 245.5,287.1 245.5,282.0 246.5,300.1 246.5,291.8 247.5,309.4 247.5,303.6 248.5,313.4 248.5,311.7 249.5,316.0 249.5,314.7 250.5,315.9 250.5,314.3 251.5,312.8 251.5,310.8 252.5,308.4 252.5,302.3 253.5,298.6 253.5,290.0 254.5,285.2 254.5,280.0 255.5,274.4 255.5,262.5 256.5,256.1 256.5,242.6 257.5,235.6 257.5,228.4 258.5,221.1 258.5,206.2 259.5,198.7 259.5,183.7 260.5,176.3 260.5,168.9 261.5,161.6 261.5,147.5 262.5,140.7 262.5,127.8 263.5,121.8 263.5,116.0 264.5,110.6 264.5,100.7 265.5,96.3 265.5,88.8 266.5,85.6 266.5,82.9 267.5,80.6 267.5,77.4 268.5,76.5 268.5,76.0 269.5,77.6 269.5,76.6 270.5,83.3 270.5,79.0 271.5,92.9 271.5,86.1 272.5,101.4 272.5,97.0 273.5,116.9 273.5,106.3 274.5,135.2 274.5,122.7 275.5,155.6 275.5,141.8 276.5,170.0 276.5,162.8 277.5,192.4 277.5,177.4 278.5,214.9 278.5,199.9 279.5,229.6 279.5,222.3 280.5,250.5 280.5,236.7 281.5,269.5 281.5,257.1 282.5,280.8 282.5,275.3 283.5,295.2 283.5,286.0 284.5,306.1 284.5,299.2 285.5,311.2 285.5,308.9 286.5,315.4 286.5,313.1 287.5,315.9 287.5,315.5 288.5,314.6 288.5,313.2 289.5,311.3 289.5,306.3 290.5,303.1 290.5,295.5 291.5,291.1 291.5,286.3 292.5,281.2 292.5,269.9 293.5,263.9 293.5,251.0 294.5,244.2 294.5,237.2 295.5,230.1 295.5,215.4 296.5,207.9 296.5,192.9 297.5,185.4 297.5,177.9 298.5,170.5 298.5,156.1 299.5,149.1 299.5,135.6 300.5,129.3 300.5,123.1 301.5,117.3 301.5,106.6 302.5,101.8 302.5,93.2 303.5,89.5 303.5,86.3 304.5,83.4 304.5,79.1 305.5,77.6 305.5,76.1 306.5,76.4 306.5,76.0 307.5,80.4 307.5,77.3 308.5,88.5 308.5,82.7 309.5,96.0 309.5,92.1 310.5,110.2 310.5,100.4 311.5,127.4 311.5,115.6 312.5,140.3 312.5,133.7 313.5,161.1 313.5,147.0 314.5,183.2 314.5,168.4 315.5,198.2 315.5,190.7 316.5,220.6 316.5,205.7 317.5,242.1 317.5,227.9 318.5,255.6 318.5,249.0 319.5,274.0 319.5,262.0 320.5,289.7 320.5,279.6 321.5,302.1 321.5,294.2 322.5,308.3 322.5,305.4 323.5,314.2 323.5,310.7 324.5,316.0 324.5,315.3 325.5,315.6 325.5,314.8 326.5,313.5 326.5,309.6 327.5,306.9 327.5,300.3 328.5,296.4 328.5,292.1 329.5,287.4 329.5,277.0 330.5,271.3 330.5,259.0 331.5,252.5 331.5,245.7 332.5,238.8 332.5,224.4 333.5,217.1 333.5,202.2 334.5,194.6 334.5,187.1 335.5,179.6 335.5,164.9 336.5,157.7 336.5,143.8 337.5,137.1 337.5,130.7 338.5,124.5 338.5,113.0 339.5,107.7 339.5,98.3 340.5,94.1 340.5,90.3 341.5,87.0 341.5,81.6 342.5,79.5 342.5,76.8 343.5,76.2 343.5,76.0 344.5,78.3 344.5,76.3 345.5,84.7 345.5,80.0 346.5,91.2 346.5,87.8 347.5,104.0 347.5,95.1 348.5,120.1 348.5,109.0 349.5,132.3 349.5,126.0 350.5,152.4 350.5,138.8 351.5,174.1 351.5,159.5 352.5,189.0 352.5,181.5 353.5,211.5 353.5,196.5 354.5,233.5 354.5,218.9 355.5,247.4 355.5,240.6 356.5,266.8 356.5,254.1 357.5,283.7 357.5,272.7 358.5,293.2 358.5,288.6 359.5,304.7 359.5,297.4 360.5,312.3 360.5,307.6 361.5,315.1 361.5,313.9 362.5,316.0 362.5,315.8 363.5,315.0 363.5,312.2 364.5,310.1 364.5,307.6 365.5,304.6 365.5,297.4 366.5,293.1 366.5,283.6 367.5,278.2 367.5,272.6 368.5,266.7 368.5,254.0 369.5,247.3 369.5,233.3 370.5,226.1 370.5,211.3 371.5,203.9 371.5,196.3 372.5,188.8 372.5,173.9 373.5,166.6 373.5,152.2 374.5,145.3 374.5,138.6 375.5,132.1 375.5,119.9 376.5,114.3 376.5,103.9 377.5,99.3 377.5,95.0 378.5,91.1 378.5,84.7 379.5,82.1 379.5,78.3 380.5,77.0 380.5,76.3 381.5,76.8 381.5,76.0 382.5,81.6 382.5,78.0 383.5,87.0 383.5,84.1 384.5,98.4 384.5,90.4 385.5,113.1 385.5,102.9 386.5,124.6 386.5,118.7 387.5,143.9 387.5,130.8 388.5,165.1 388.5,150.8 389.5,179.8 389.5,172.4 390.5,202.3 390.5,187.3 391.5,224.6 391.5,209.8 392.5,239.0 392.5,231.9 393.5,259.2 393.5,245.9 394.5,277.1 394.5,265.4 395.5,287.5 395.5,282.5 396.5,300.4 396.5,292.2 397.5,309.6 397.5,303.9 398.5,313.6 398.5,311.8 399.5,316.0 399.5,314.8 400.5,315.9 400.5,314.2 401.5,312.6 401.5,310.6 402.5,308.2 402.5,302.0 403.5,298.3 403.5,289.6 404.5,284.7 404.5,279.5 405.5,273.9 405.5,261.9 406.5,255.5 406.5,242.0 407.5,234.9 407.5,227.8 408.5,220.4 408.5,205.6 409.5,198.1 409.5,183.0 410.5,175.6 410.5,168.2 411.5,161.0 411.5,146.9 412.5,140.1 412.5,127.3 413.5,121.2 413.5,115.5 414.5,110.1 414.5,100.3 415.5,95.9 415.5,88.4 416.5,85.3 416.5,80.4 417.5,196.0 417.5,196.0 418.5,196.0 418.5,196.0 419.5,196.0 419.5,196.0 420.5,196.0 420.5,196.0 421.5,196.0 421.5,196.0 422.5,196.0 422.5,196.0 423.5,196.0 423.5,196.0 424.5,196.0 424.5,196.0 425.5,196.0 425.5,196.0 426.5,196.0 426.5,196.0 427.5,196.0 427.5,196.0 428.5,196.0 428.5,196.0 429.5,196.0 429.5,196.0 430.5,196.0 430.5,196.0 431.5,196.0 431.5,196.0 432.5,196.0 432.5,196.0 433.5,196.0 433.5,196.0 434.5,196.0 434.5,196.0 435.5,196.0 435.5,196.0 436.5,196.0 436.5,196.0 437.5,196.0 437.5,196.0 438.5,196.0 438.5,196.0 439.5,196.0 439.5,196.0 440.5,196.0 440.5,196.0 441.5,196.0 441.5,196.0 442.5,196.0 442.5,196.0 443.5,196.0 443.5,196.0 444.5,196.0 444.5,196.0 445.5,196.0 445.5,196.0 446.5,196.0 446.5,196.0 447.5,196.0 447.5,196.0 448.5,196.0 448.5,196.0 449.5,196.0 449.5,196.0 450.5,196.0 450.5,196.0 451.5,196.0 451.5,196.0 452.5,196.0 452.5,196.0 453.5,196.0 453.5,196.0 454.5,196.0 454.5,196.0 455.5,196.0 455.5,196.0 456.5,196.0 456.5,196.0 457.5,196.0 457.5,196.0 458.5,196.0 458.5,196.0 459.5,196.0 459.5,196.0 460.5,196.0 460.5,196.0 461.5,196.0 461.5,196.0 462.5,196.0 462.5,196.0 463.5,196.0 463.5,196.0 464.5,196.0 464.5,196.0 465.5,196.0 465.5,196.0 466.5,196.0 466.5,196.0 467.5,196.0 467.5,196.0 468.5,196.0 468.5,196.0 469.5,196.0 469.5,196.0 470.5,196.0 470.5,196.0 471.5,196.0 471.5,196.0 472.5,196.0 472.5,196.0 473.5,196.0 473.5,196.0 474.5,196.0 474.5,196.0 475.5,196.0 475.5,196.0 476.5,196.0 476.5,196.0 477.5,196.0 477.5,196.0 478.5,196.0 478.5,196.0 479.5,196.0 479.5,196.0 480.5,196.0 480.5,196.0 481.5,196.0 481.5,196.0 482.5,196.0 482.5,196.0 483.5,196.0 483.5,196.0 484.5,196.0 484.5,196.0 485.5,196.0 485.5,196.0 486.5,196.0 486.5,196.0 487.5,196.0 487.5,196.0 488.5,196.0 488.5,196.0 489.5,196.0 489.5,196.0 490.5,196.0 490.5,196.0 491.5,196.0 491.5,196.0 492.5,196.0 492.5,196.0 493.5,196.0 493.5,196.0 494.5,196.0 494.5,196.0 495.5,196.0 495.5,196.0 496.5,196.0 496.5,196.0 497.5,196.0 497.5,196.0 498.5,196.0 498.5,196.0 499.5,196.0 499.5,196.0 500.5,196.0 500.5,196.0 501.5,196.0 501.5,196.0 502.5,196.0 502.5,196.0 503.5,196.0 503.5,196.0 504.5,196.0 504.5,196.0 505.5,196.0 505.5,196.0 506.5,196.0 506.5,196.0 507.5,196.0 507.5,196.0 508.5,196.0 508.5,196.0 509.5,196.0 509.5,196.0 510.5,196.0 510.5,196.0 511.5,196.0 511.5,196.0 512.5,196.0 512.5,196.0 513.5,196.0 513.5,196.0 514.5,196.0 514.5,196.0 515.5,196.0 515.5,196.0 516.5,196.0 516.5,196.0 517.5,196.0 517.5,196.0 518.5,196.0 518.5,196.0 519.5,196.0 519.5,196.0 520.5,196.0 520.5,196.0 521.5,196.0 521.5,196.0 522.5,196.0 522.5,196.0 523.5,196.0 523.5,196.0 524.5,196.0 524.5,196.0 525.5,196.0 525.5,196.0 526.5,196.0 526.5,196.0 527.5,196.0 527.5,196.0 528.5,196.0 528.5,196.0 529.5,196.0 529.5,196.0 530.5,196.0 530.5,196.0 531.5,196.0 531.5,196.0 532.5,196.0 532.5,196.0 533.5,196.0 533.5,196.0 534.5,196.0 534.5,196.0 535.5,196.0 535.5,196.0 536.5,196.0 536.5,196.0 537.5,196.0 537.5,196.0 538.5,196.0 538.5,196.0 539.5,196.0 539.5,196.0 540.5,196.0 540.5,196.0 541.5,196.0 541.5,196.0 542.5,196.0 542.5,196.0 543.5,196.0 543.5,196.0 544.5,196.0 544.5,196.0 545.5,196.0 545.5,196.0 546.5,196.0 546.5,196.0 547.5,196.0 547.5,196.0 548.5,196.0 548.5,196.0 549.5,196.0 549.5,196.0 550.5,196.0 550.5,196.0 551.5,196.0 551.5,196.0 552.5,196.0 552.5,196.0 553.5,196.0 553.5,196.0 554.5,196.0 554.5,196.0 555.5,196.0 555.5,196.0 556.5,196.0 556.5,196.0 557.5,196.0 557.5,196.0 558.5,196.0 558.5,196.0 559.5,196.0 559.5,196.0 560.5,196.0 560.5,196.0 561.5,196.0 561.5,196.0 562.5,196.0 562.5,196.0 563.5,196.0 563.5,196.0 564.5,196.0 564.5,196.0 565.5,196.0 565.5,196.0 566.5,196.0 566.5,196.0 567.5,196.0 567.5,196.0 568.5,196.0 568.5,196.0 569.5,196.0 569.5,196.0 570.5,196.0 570.5,196.0 571.5,196.0 571.5,196.0 572.5,196.0 572.5,196.0 573.5,196.0 573.5,196.0 574.5,196.0 574.5,196.0 575.5,196.0 575.5,196.0 576.5,196.0 576.5,196.0 577.5,196.0 577.5,196.0 578.5,196.0 578.5,196.0 579.5,196.0 579.5,196.0 580.5,196.0 580.5,196.0 581.5,196.0 581.5,196.0 582.5,196.0 582.5,196.0 583.5,196.0 583.5,196.0 584.5,196.0 584.5,196.0 585.5,196.0 585.5,196.0 586.5,196.0 586.5,196.0 587.5,196.0 587.5,196.0 588.5,196.0 588.5,196.0 589.5,196.0 589.5,196.0 590.5,196.0 590.5,196.0 591.5,196.0 591.5,196.0 592.5,196.0 592.5,196.0 593.5,196.0 593.5,196.0 594.5,196.0 594.5,196.0 595.5,196.0 595.5,196.0 596.5,196.0 596.5,196.0 597.5,196.0 597.5,196.0 598.5,196.0 598.5,196.0 599.5,196.0 599.5,196.0 600.5,196.0 600.5,196.0 601.5,196.0 601.5,196.0 602.5,196.0 602.5,196.0 603.5,196.0 603.5,196.0 604.5,196.0 604.5,196.0 605.5,196.0 605.5,196.0 606.5,196.0 606.5,196.0 607.5,196.0 607.5,196.0 608.5,196.0 608.5,196.0 609.5,196.0 609.5,196.0 610.5,196.0 610.5,196.0 611.5,196.0 611.5,196.0 612.5,196.0 612.5,196.0 613.5,196.0 613.5,196.0 614.5,196.0 614.5,196.0 615.5,196.0 615.5,196.0 616.5,196.0 616.5,196.0 617.5,196.0 617.5,196.0 618.5,196.0 618.5,196.0 619.5,196.0 619.5,196.0 620.5,196.0 620.5,196.0 621.5,196.0 621.5,196.0 622.5,196.0 622.5,196.0 623.5,196.0 623.5,196.0 624.5,196.0 624.5,196.0 625.5,196.0 625.5,196.0 626.5,196.0 626.5,196.0 627.5,196.0 627.5,196.0 628.5,196.0 628.5,196.0 629.5,196.0 629.5,196.0 630.5,196.0 630.5,196.0 631.5,196.0 631.5,196.0 632.5,196.0 632.5,196.0 633.5,196.0 633.5,196.0 634.5,196.0 634.5,196.0 635.5,196.0 635.5,196.0 636.5,196.0 636.5,196.0 637.5,196.0 637.5,196.0 638.5,196.0 638.5,196.0 639.5,196.0 639.5,196.0 640.5,196.0 640.5,196.0 641.5,196.0 641.5,196.0 642.5,196.0 642.5,196.0 643.5,196.0 643.5,196.0 644.5,196.0 644.5,196.0 645.5,196.0 645.5,196.0 646.5,196.0 646.5,196.0 647.5,196.0 647.5,196.0 648.5,196.0 648.5,196.0 649.5,196.0 649.5,196.0 650.5,196.0 650.5,196.0 651.5,196.0 651.5,196.0 652.5,196.0 652.5,196.0 653.5,196.0 653.5,196.0 654.5,196.0 654.5,196.0 655.5,196.0 655.5,196.0 656.5,196.0 656.5,196.0 657.5,196.0 657.5,196.0 658.5,196.0 658.5,196.0 659.5,196.0 659.5,196.0 660.5,196.0 660.5,196.0 661.5,196.0 661.5,196.0 662.5,196.0 662.5,196.0 663.5,196.0 663.5,196.0 664.5,196.0 664.5,196.0 665.5,196.0 665.5,196.0 666.5,196.0 666.5,196.0 667.5,196.0 667.5,196.0 668.5,196.0 668.5,196.0 669.5,196.0 669.5,196.0 670.5,196.0 670.5,196.0 671.5,196.0 671.5,196.0 672.5,196.0 672.5,196.0 673.5,196.0 673.5,196.0 674.5,196.0 674.5,196.0 675.5,196.0 675.5,196.0 676.5,196.0 676.5,196.0 677.5,196.0 677.5,196.0 678.5,196.0 678.5,196.0 679.5,196.0 679.5,196.0 680.5,196.0 680.5,196.0 681.5,196.0 681.5,196.0 682.5,196.0 682.5,196.0 683.5,196.0 683.5,196.0 684.5,196.0 684.5,196.0 685.5,196.0 685.5,196.0 686.5,196.0 686.5,196.0 687.5,196.0 687.5,196.0 688.5,196.0 688.5,196.0 689.5,196.0 689.5,196.0 690.5,196.0 690.5,196.0 691.5,196.0 691.5,196.0 692.5,196.0 692.5,196.0 693.5,196.0 693.5,196.0 694.5,196.0 694.5,196.0 695.5,196.0 695.5,196.0 696.5,196.0 696.5,196.0 697.5,196.0 697.5,196.0 698.5,196.0 698.5,196.0 699.5,196.0 699.5,196.0 700.5,196.0 700.5,196.0 701.5,196.0 701.5,196.0 702.5,196.0 702.5,196.0 703.5,196.0 703.5,196.0 704.5,196.0 704.5,196.0 705.5,196.0 705.5,196.0 706.5,196.0 706.5,196.0 707.5,196.0 707.5,196.0 708.5,196.0 708.5,196.0 709.5,196.0 709.5,196.0 710.5,196.0 710.5,196.0 711.5,196.0 711.5,196.0 712.5,196.0 712.5,196.0 713.5,196.0 713.5,196.0 714.5,196.0 714.5,196.0 715.5,196.0 715.5,196.0 716.5,196.0 716.5,196.0 717.5,196.0 717.5,196.0 718.5,196.0 718.5,196.0 719.5,196.0 719.5,196.0 720.5,196.0 720.5,196.0 721.5,196.0 721.5,196.0 722.5,196.0 722.5,196.0 723.5,196.0 723.5,196.0 724.5,196.0 724.5,196.0 725.5,196.0 725.5,196.0 726.5,196.0 726.5,196.0 727.5,196.0 727.5,196.0 728.5,196.0 728.5,196.0 729.5,196.0 729.5,196.0 730.5,196.0 730.5,196.0 731.5,196.0 731.5,196.0 732.5,196.0 732.5,196.0 733.5,196.0 733.5,196.0 734.5,196.0 734.5,196.0 735.5,196.0 735.5,196.0 736.5,196.0 736.5,196.0 737.5,196.0 737.5,196.0 738.5,196.0 738.5,196.0 739.5,196.0 739.5,196.0 740.5,196.0 740.5,196.0 741.5,196.0 741.5,196.0 742.5,196.0 742.5,196.0 743.5,196.0 743.5,196.0 744.5,196.0 744.5,196.0 745.5,196.0 745.5,196.0 746.5,196.0 746.5,196.0 747.5,196.0 747.5,196.0 748.5,196.0 748.5,196.0 749.5,196.0 749.5,196.0 750.5,196.0 750.5,196.0 751.5,196.0 751.5,196.0 752.5,196.0 752.5,196.0 753.5,196.0 753.5,196.0 754.5,196.0 754.5,196.0 755.5,196.0 755.5,196.0 756.5,196.0 756.5,196.0 757.5,196.0 757.5,196.0 758.5,196.0 758.5,196.0 759.5,196.0 759.5,196.0 760.5,196.0 760.5,196.0 761.5,196.0 761.5,196.0 762.5,196.0 762.5,196.0 763.5,196.0 763.5,196.0 764.5,196.0 764.5,196.0 765.5,196.0 765.5,196.0 766.5,196.0 766.5,196.0 767.5,196.0 767.5,196.0 768.5,196.0 768.5,196.0 769.5,196.0 769.5,196.0 770.5,196.0 770.5,196.0 771.5,196.0 771.5,196.0 772.5,196.0 772.5,196.0 773.5,196.0 773.5,196.0 774.5,196.0 774.5,196.0 775.5,196.0 775.5,196.0 776.5,196.0 776.5,196.0 777.5,196.0 777.5,196.0 778.5,196.0 778.5,196.0 779.5,196.0 779.5,196.0 780.5,196.0 780.5,196.0 781.5,196.0 781.5,196.0 782.5,196.0 782.5,196.0 783.5,196.0 783.5,196.0 784.5,196.0 784.5,196.0 785.5,196.0 785.5,196.0 786.5,196.0 786.5,196.0 787.5,196.0 787.5,196.0 788.5,196.0 788.5,196.0 789.5,196.0 789.5,196.0 790.5,196.0 790.5,196.0 791.5,196.0 791.5,196.0 792.5,196.0 792.5,196.0 793.5,196.0 793.5,196.0 794.5,196.0 794.5,196.0 795.5,196.0 795.5,196.0 796.5,196.0 796.5,196.0 797.5,196.0 797.5,196.0 798.5,196.0 798.5,196.0 799.5,196.0 799.5,196.0" fill="none" stroke="#d1d5db" stroke-width="1.5" stroke-linejoin="round"/>
  <polyline clip-path="url(#u16)" points="34.5,196.0 34.5,196.0 35.5,195.9 35.5,195.7 36.5,195.5 36.5,195.1 37.5,194.8 37.5,194.5 38.5,194.2 38.5,193.5 39.5,193.1 39.5,192.3 40.5,191.9 40.5,191.4 41.5,190.9 41.5,190.0 42.5,189.5 42.5,188.5 43.5,188.0 43.5,187.4 44.5,186.9 44.5,186.0 45.5,185.5 45.5,184.5 46.5,184.1 46.5,183.7 47.5,183.3 47.5,182.5 48.5,182.2 48.5,181.6 49.5,181.3 49.5,181.1 50.5,180.9 50.5,180.6 51.5,180.5 51.5,180.4 52.5,180.4 52.5,180.4 53.5,180.4 53.5,180.4 54.5,180.4 54.5,180.2 55.5,180.1 55.5,180.0 56.5,179.8 56.5,179.3 57.5,179.1 57.5,178.5 58.5,178.1 58.5,177.8 59.5,177.4 59.5,176.6 60.5,176.2 60.5,175.3 61.5,174.9 61.5,174.4 62.5,174.0 62.5,173.1 63.5,172.7 63.5,171.8 64.5,171.4 64.5,171.0 65.5,170.6 65.5,169.9 66.5,169.6 66.5,169.0 67.5,168.8 67.5,168.5 68.5,168.3 68.5,168.0 69.5,167.9 69.5,167.8 70.5,167.8 70.5,167.8 71.5,167.8 71.5,167.8 72.5,167.8 72.5,167.8 73.5,167.8 73.5,167.8 74.5,167.7 74.5,167.5 75.5,167.3 75.5,166.9 76.5,166.7 76.5,166.4 77.5,166.2 77.5,165.6 78.5,165.2 78.5,164.5 79.5,164.1 79.5,163.8 80.5,163.4 80.5,162.6 81.5,162.2 81.5,161.4 82.5,161.0 82.5,160.3 83.5,160.0 83.5,159.6 84.5,159.3 84.5,158.7 85.5,158.5 85.5,158.0 86.5,157.9 86.5,157.7 87.5,157.6 87.5,157.4 88.5,157.4 88.5,157.4 89.5,157.4 89.5,157.4 90.5,157.4 90.5,157.4 91.5,157.4 91.5,157.4 92.5,157.4 92.5,157.4 93.5,157.4 93.5,157.2 94.5,157.1 94.5,156.7 95.5,156.5 95.5,156.3 96.5,156.0 96.5,155.5 97.5,155.2 97.5,154.5 98.5,154.2 98.5,153.8 99.5,153.5 99.5,152.8 100.5,152.5 100.5,151.8 101.5,151.4 101.5,151.1 102.5,150.8 102.5,150.3 103.5,150.0 103.5,149.5 104.5,149.3 104.5,149.2 105.5,149.0 105.5,148.8 106.5,148.8 106.5,148.7 107.5,148.7 107.5,148.7 108.5,148.8 108.5,148.7 109.5,148.8 109.5,148.8 110.5,148.8 110.5,148.8 111.5,148.8 111.5,148.8 112.5,148.8 112.5,148.6 113.5,148.5 113.5,148.4 114.5,148.2 114.5,147.8 115.5,147.5 115.5,147.0 116.5,146.8 116.5,146.5 117.5,146.2 117.5,145.6 118.5,145.2 118.5,144.6 119.5,144.3 119.5,144.0 120.5,143.7 120.5,143.2 121.5,142.9 121.5,142.4 122.5,142.2 122.5,142.0 123.5,141.9 123.5,141.6 124.5,141.5 124.5,141.4 125.5,141.4 125.5,141.4 126.5,141.5 126.5,141.4 127.5,141.5 127.5,141.5 128.5,141.5 128.5,141.5 129.5,141.5 129.5,141.5 130.5,141.6 130.5,141.5 131.5,141.5 131.5,141.4 132.5,141.3 132.5,141.1 133.5,141.0 133.5,140.6 134.5,140.4 134.5,139.9 135.5,139.7 135.5,139.4 136.5,139.1 136.5,138.6 137.5,138.3 137.5,137.7 138.5,137.4 138.5,137.2 139.5,136.9 139.5,136.4 140.5,136.2 140.5,135.9 141.5,135.7 141.5,135.6 142.5,135.4 142.5,135.3 143.5,135.3 143.5,135.2 144.5,135.3 144.5,135.3 145.5,135.3 145.5,135.3 146.5,135.3 146.5,135.3 147.5,135.4 147.5,135.3 148.5,135.4 148.5,135.4 149.5,135.4 149.5,135.4 150.5,135.4 150.5,135.3 151.5,135.2 151.5,135.0 152.5,134.9 152.5,134.5 153.5,134.3 153.5,134.1 154.5,133.9 154.5,133.4 155.5,133.1 155.5,132.6 156.5,132.3 156.5,132.1 157.5,131.8 157.5,131.4 158.5,131.2 158.5,130.8 159.5,130.6 159.5,130.4 160.5,130.3 160.5,130.1 161.5,130.0 161.5,129.9 162.5,130.0 162.5,129.9 163.5,130.0 163.5,130.0 164.5,130.0 164.5,130.0 165.5,130.0 165.5,130.0 166.5,130.1 166.5,130.1 167.5,130.1 167.5,130.1 168.5,130.1 168.5,130.1 169.5,130.1 169.5,130.0 170.5,130.0 170.5,129.7 171.5,129.6 171.5,129.4 172.5,129.3 172.5,128.9 173.5,128.6 173.5,128.2 174.5,128.0 174.5,127.7 175.5,127.5 175.5,127.0 176.5,126.8 176.5,126.4 177.5,126.2 177.5,125.9 178.5,125.7 178.5,125.6 179.5,125.5 179.5,125.4 180.5,125.4 180.5,125.4 181.5,125.4 181.5,125.4 182.5,125.4 182.5,125.4 183.5,125.5 183.5,125.4 184.5,125.5 184.5,125.5 185.5,125.5 185.5,125.5 186.5,125.6 186.5,125.6 187.5,125.6 187.5,125.6 188.5,125.6 188.5,125.5 189.5,125.4 189.5,125.2 190.5,125.0 190.5,124.9 191.5,124.7 191.5,124.3 192.5,124.1 192.5,123.7 193.5,123.5 193.5,123.3 194.5,123.1 194.5,122.7 195.5,122.5 195.5,122.1 196.5,122.0 196.5,121.8 197.5,121.7 197.5,121.5 198.5,121.5 198.5,121.4 199.5,121.4 199.5,121.4 200.5,121.4 200.5,121.4 201.5,121.5 201.5,121.5 202.5,121.5 202.5,121.5 203.5,121.6 203.5,121.5 204.5,121.6 204.5,121.6 205.5,121.6 205.5,121.6 206.5,121.6 206.5,121.6 207.5,121.6 207.5,121.5 208.5,121.5 208.5,121.4 209.5,121.2 209.5,120.9 210.5,120.8 210.5,120.4 211.5,120.2 211.5,120.0 212.5,119.8 212.5,119.4 213.5,119.2 213.5,118.9 214.5,118.7 214.5,118.6 215.5,118.4 215.5,118.2 216.5,118.1 216.5,118.0 217.5,118.0 217.5,118.0 218.5,118.0 218.5,118.0 219.5,118.0 219.5,118.0 220.5,118.0 220.5,118.0 221.5,118.1 221.5,118.0 222.5,118.1 222.5,118.1 223.5,118.2 223.5,118.2 224.5,118.2 224.5,118.2 225.5,118.2 225.5,118.2 226.5,118.2 226.5,118.1 227.5,118.0 227.5,117.9 228.5,117.8 228.5,117.5 229.5,117.3 229.5,117.0 230.5,116.8 230.5,116.6 231.5,116.4 231.5,116.1 232.5,115.9 232.5,115.6 233.5,115.4 233.5,115.3 234.5,115.2 234.5,115.0 235.5,115.0 235.5,114.9 236.5,114.9 236.5,114.9 237.5,114.9 237.5,114.9 238.5,115.0 238.5,115.0 239.5,115.0 239.5,115.0 240.5,115.1 240.5,115.0 241.5,115.1 241.5,115.1 242.5,115.2 242.5,115.1 243.5,115.2 243.5,115.2 244.5,115.2 244.5,115.2 245.5,115.2 245.5,115.1 246.5,115.0 246.5,114.9 247.5,114.7 247.5,114.5 248.5,114.3 248.5,114.1 249.5,114.0 249.5,113.6 250.5,113.5 250.5,113.1 251.5,113.0 251.5,112.8 252.5,112.7 252.5,112.5 253.5,112.4 253.5,112.3 254.5,112.3 254.5,112.3 255.5,112.3 255.5,112.3 256.5,112.3 256.5,112.3 257.5,112.3 257.5,112.3 258.5,112.4 258.5,112.3 259.5,112.4 259.5,112.4 260.5,112.5 260.5,112.5 261.5,112.5 261.5,112.5 262.5,112.5 262.5,112.5 263.5,112.5 263.5,112.5 264.5,112.5 264.5,112.4 265.5,112.4 265.5,112.2 266.5,112.0 266.5,111.9 267.5,111.8 267.5,111.5 268.5,111.3 268.5,111.0 269.5,110.8 269.5,110.7 270.5,110.5 270.5,110.3 271.5,110.2 271.5,110.0 272.5,109.9 272.5,109.9 273.5,109.9 273.5,109.9 274.5,109.9 274.5,109.9 275.5,109.9 275.5,109.9 276.5,110.0 276.5,110.0 277.5,110.0 277.5,110.0 278.5,110.1 278.5,110.1 279.5,110.1 279.5,110.1 280.5,110.2 280.5,110.1 281.5,110.2 281.5,110.2 282.5,110.2 282.5,110.2 283.5,110.2 283.5,110.1 284.5,110.0 284.5,109.8 285.5,109.7 285.5,109.5 286.5,109.4 286.5,109.1 287.5,108.9 287.5,108.7 288.5,108.5 288.5,108.4 289.5,108.3 289.5,108.0 290.5,108.0 290.5,107.8 291.5,107.8 291.5,107.8 292.5,107.8 292.5,107.8 293.5,107.8 293.5,107.8 294.5,107.8 294.5,107.8 295.5,107.9 295.5,107.9 296.5,108.0 296.5,107.9 297.5,108.0 297.5,108.0 298.5,108.1 298.5,108.0 299.5,108.1 299.5,108.1 300.5,108.1 300.5,108.1 301.5,108.1 301.5,108.1 302.5,108.1 302.5,107.9 303.5,107.9 303.5,107.8 304.5,107.7 304.5,107.4 305.5,107.3 305.5,107.0 306.5,106.9 306.5,106.7 307.5,106.6 307.5,106.3 308.5,106.2 308.5,106.1 309.5,106.0 309.5,105.9 310.5,105.9 310.5,105.9 311.5,105.9 311.5,105.9 312.5,106.0 312.5,105.9 313.5,106.0 313.5,106.0 314.5,106.1 314.5,106.0 315.5,106.1 315.5,106.1 316.5,106.2 316.5,106.1 317.5,106.2 317.5,106.2 318.5,106.2 318.5,106.2 319.5,106.2 319.5,106.2 320.5,106.2 320.5,106.2 321.5,106.2 321.5,106.1 322.5,106.0 322.5,105.9 323.5,105.8 323.5,105.5 324.5,105.4 324.5,105.1 325.5,105.0 325.5,104.9 326.5,104.7 326.5,104.5 327.5,104.4 327.5,104.3 328.5,104.3 328.5,104.2 329.5,104.3 329.5,104.2 330.5,104.3 330.5,104.3 331.5,104.3 331.5,104.3 332.5,104.3 332.5,104.3 333.5,104.4 333.5,104.4 334.5,104.5 334.5,104.4 335.5,104.5 335.5,104.5 336.5,104.6 336.5,104.5 337.5,104.6 337.5,104.6 338.5,104.6 338.5,104.6 339.5,104.6 339.5,104.5 340.5,104.5 340.5,104.4 341.5,104.4 341.5,104.2 342.5,104.1 342.5,103.8 343.5,103.7 343.5,103.6 344.5,103.4 344.5,103.2 345.5,103.1 345.5,102.9 346.5,102.9 346.5,102.8 347.5,102.8 347.5,102.8 348.5,102.8 348.5,102.8 349.5,102.8 349.5,102.8 350.5,102.8 350.5,102.8 351.5,102.9 351.5,102.8 352.5,102.9 352.5,102.9 353.5,103.0 353.5,102.9 354.5,103.0 354.5,103.0 355.5,103.1 355.5,103.1 356.5,103.1 356.5,103.1 357.5,103.1 357.5,103.1 358.5,103.1 358.5,103.1 359.5,103.0 359.5,102.9 360.5,102.8 360.5,102.6 361.5,102.5 361.5,102.4 362.5,102.3 362.5,102.0 363.5,101.9 363.5,101.7 364.5,101.6 364.5,101.6 365.5,101.5 365.5,101.4 366.5,101.4 366.5,101.4 367.5,101.4 367.5,101.4 368.5,101.4 368.5,101.4 369.5,101.5 369.5,101.5 370.5,101.5 370.5,101.5 371.5,101.6 371.5,101.6 372.5,101.7 372.5,101.6 373.5,101.7 373.5,101.7 374.5,101.7 374.5,101.7 375.5,101.8 375.5,101.7 376.5,101.8 376.5,101.8 377.5,101.8 377.5,101.7 378.5,101.7 378.5,101.5 379.5,101.4 379.5,101.2 380.5,101.1 380.5,101.0 381.5,100.9 381.5,100.7 382.5,100.6 382.5,100.4 383.5,100.3 383.5,100.3 384.5,100.2 384.5,100.2 385.5,100.2 385.5,100.2 386.5,100.2 386.5,100.2 387.5,100.2 387.5,100.2 388.5,100.3 388.5,100.3 389.5,100.3 389.5,100.3 390.5,100.4 390.5,100.4 391.5,100.5 391.5,100.4 392.5,100.5 392.5,100.5 393.5,100.5 393.5,100.5 394.5,100.6 394.5,100.5 395.5,100.6 395.5,100.6 396.5,100.6 396.5,100.5 397.5,100.4 397.5,100.3 398.5,100.2 398.5,100.1 399.5,100.0 399.5,99.8 400.5,99.7 400.5,99.5 401.5,99.4 401.5,99.3 402.5,99.2 402.5,99.1 403.5,99.1 403.5,99.1 404.5,99.1 404.5,99.1 405.5,99.1 405.5,99.1 406.5,99.2 406.5,99.1 407.5,99.2 407.5,99.2 408.5,99.3 408.5,99.2 409.5,99.3 409.5,99.3 410.5,99.4 410.5,99.4 411.5,99.4 411.5,99.4 412.5,99.5 412.5,99.4 413.5,99.5 413.5,99.5 414.5,99.5 414.5,99.5 415.5,99.5 415.5,99.4 416.5,99.3 416.5,99.1 417.5,99.2 417.5,99.2 418.5,99.3 418.5,99.2 419.5,99.4 419.5,99.3 420.5,99.4 420.5,99.4 421.5,99.5 421.5,99.5 422.5,99.6 422.5,99.5 423.5,99.6 423.5,99.6 424.5,99.7 424.5,99.7 425.5,99.8 425.5,99.8 426.5,99.9 426.5,99.8 427.5,99.9 427.5,99.9 428.5,100.0 428.5,100.0 429.5,100.1 429.5,100.1 430.5,100.2 430.5,100.1 431.5,100.2 431.5,100.2 432.5,100.3 432.5,100.3 433.5,100.4 433.5,100.3 434.5,100.5 434.5,100.4 435.5,100.5 435.5,100.5 436.5,100.6 436.5,100.5 437.5,100.7 437.5,100.6 438.5,100.7 438.5,100.7 439.5,100.8 439.5,100.8 440.5,100.9 440.5,100.8 441.5,100.9 441.5,100.9 442.5,101.0 442.5,101.0 443.5,101.1 443.5,101.1 444.5,101.2 444.5,101.1 445.5,101.2 445.5,101.2 446.5,101.3 446.5,101.3 447.5,101.4 447.5,101.3 448.5,101.5 448.5,101.4 449.5,101.5 449.5,101.5 450.5,101.6 450.5,101.6 451.5,101.7 451.5,101.6 452.5,101.7 452.5,101.7 453.5,101.8 453.5,101.8 454.5,101.9 454.5,101.8 455.5,102.0 455.5,101.9 456.5,102.0 456.5,102.0 457.5,102.1 457.5,102.0 458.5,102.2 458.5,102.1 459.5,102.2 459.5,102.2 460.5,102.3 460.5,102.3 461.5,102.4 461.5,102.3 462.5,102.4 462.5,102.4 463.5,102.5 463.5,102.5 464.5,102.6 464.5,102.5 465.5,102.7 465.5,102.6 466.5,102.7 466.5,102.7 467.5,102.8 467.5,102.8 468.5,102.9 468.5,102.8 469.5,102.9 469.5,102.9 470.5,103.0 470.5,103.0 471.5,103.1 471.5,103.0 472.5,103.2 472.5,103.1 473.5,103.2 473.5,103.2 474.5,103.3 474.5,103.3 475.5,103.4 475.5,103.3 476.5,103.4 476.5,103.4 477.5,103.5 477.5,103.5 478.5,103.6 478.5,103.5 479.5,103.7 479.5,103.6 480.5,103.7 480.5,103.7 481.5,103.8 481.5,103.8 482.5,103.9 482.5,103.8 483.5,103.9 483.5,103.9 484.5,104.0 484.5,104.0 485.5,104.1 485.5,104.0 486.5,104.1 486.5,104.1 487.5,104.2 487.5,104.2 488.5,104.3 488.5,104.2 489.5,104.4 489.5,104.3 490.5,104.4 490.5,104.4 491.5,104.5 491.5,104.4 492.5,104.6 492.5,104.5 493.5,104.6 493.5,104.6 494.5,104.7 494.5,104.6 495.5,104.8 495.5,104.7 496.5,104.8 496.5,104.8 497.5,104.9 497.5,104.8 498.5,105.0 498.5,104.9 499.5,105.0 499.5,105.0 500.5,105.1 500.5,105.1 501.5,105.2 501.5,105.1 502.5,105.2 502.5,105.2 503.5,105.3 503.5,105.3 504.5,105.4 504.5,105.3 505.5,105.4 505.5,105.4 506.5,105.5 506.5,105.5 507.5,105.6 507.5,105.5 508.5,105.6 508.5,105.6 509.5,105.7 509.5,105.7 510.5,105.8 510.5,105.7 511.5,105.9 511.5,105.8 512.5,105.9 512.5,105.9 513.5,106.0 513.5,106.0 514.5,106.1 514.5,106.0 515.5,106.1 515.5,106.1 516.5,106.2 516.5,106.2 517.5,106.3 517.5,106.2 518.5,106.3 518.5,106.3 519.5,106.4 519.5,106.4 520.5,106.5 520.5,106.4 521.5,106.5 521.5,106.5 522.5,106.6 522.5,106.6 523.5,106.7 523.5,106.6 524.5,106.7 524.5,106.7 525.5,106.8 525.5,106.8 526.5,106.9 526.5,106.8 527.5,106.9 527.5,106.9 528.5,107.0 528.5,107.0 529.5,107.1 529.5,107.0 530.5,107.1 530.5,107.1 531.5,107.2 531.5,107.2 532.5,107.3 532.5,107.2 533.5,107.3 533.5,107.3 534.5,107.4 534.5,107.4 535.5,107.5 535.5,107.4 536.5,107.5 536.5,107.5 537.5,107.6 537.5,107.6 538.5,107.7 538.5,107.6 539.5,107.7 539.5,107.7 540.5,107.8 540.5,107.8 541.5,107.9 541.5,107.8 542.5,107.9 542.5,107.9 543.5,108.0 543.5,108.0 544.5,108.1 544.5,108.0 545.5,108.1 545.5,108.1 546.5,108.2 546.5,108.2 547.5,108.3 547.5,108.2 548.5,108.3 548.5,108.3 549.5,108.4 549.5,108.4 550.5,108.5 550.5,108.4 551.5,108.5 551.5,108.5 552.5,108.6 552.5,108.6 553.5,108.7 553.5,108.6 554.5,108.7 554.5,108.7 555.5,108.8 555.5,108.8 556.5,108.9 556.5,108.8 557.5,108.9 557.5,108.9 558.5,109.0 558.5,109.0 559.5,109.1 559.5,109.0 560.5,109.2 560.5,109.1 561.5,109.2 561.5,109.2 562.5,109.3 562.5,109.2 563.5,109.4 563.5,109.3 564.5,109.4 564.5,109.4 565.5,109.5 565.5,109.4 566.5,109.6 566.5,109.5 567.5,109.6 567.5,109.6 568.5,109.7 568.5,109.6 569.5,109.8 569.5,109.7 570.5,109.8 570.5,109.8 571.5,109.9 571.5,109.8 572.5,109.9 572.5,109.9 573.5,110.0 573.5,110.0 574.5,110.1 574.5,110.0 575.5,110.1 575.5,110.1 576.5,110.2 576.5,110.2 577.5,110.3 577.5,110.2 578.5,110.3 578.5,110.3 579.5,110.4 579.5,110.4 580.5,110.5 580.5,110.4 581.5,110.5 581.5,110.5 582.5,110.6 582.5,110.6 583.5,110.7 583.5,110.6 584.5,110.7 584.5,110.7 585.5,110.8 585.5,110.7 586.5,110.8 586.5,110.8 587.5,110.9 587.5,110.9 588.5,111.0 588.5,110.9 589.5,111.0 589.5,111.0 590.5,111.1 590.5,111.1 591.5,111.2 591.5,111.1 592.5,111.2 592.5,111.2 593.5,111.3 593.5,111.3 594.5,111.3 594.5,111.3 595.5,111.4 595.5,111.4 596.5,111.5 596.5,111.4 597.5,111.5 597.5,111.5 598.5,111.6 598.5,111.6 599.5,111.7 599.5,111.6 600.5,111.7 600.5,111.7 601.5,111.8 601.5,111.8 602.5,111.9 602.5,111.8 603.5,111.9 603.5,111.9 604.5,112.0 604.5,111.9 605.5,112.1 605.5,112.0 606.5,112.1 606.5,112.1 607.5,112.2 607.5,112.1 608.5,112.3 608.5,112.2 609.5,112.3 609.5,112.3 610.5,112.4 610.5,112.4 611.5,112.4 611.5,112.4 612.5,112.5 612.5,112.5 613.5,112.6 613.5,112.5 614.5,112.6 614.5,112.6 615.5,112.7 615.5,112.7 616.5,112.8 616.5,112.7 617.5,112.8 617.5,112.8 618.5,112.9 618.5,112.8 619.5,112.9 619.5,112.9 620.5,113.0 620.5,113.0 621.5,113.1 621.5,113.0 622.5,113.1 622.5,113.1 623.5,113.2 623.5,113.2 624.5,113.3 624.5,113.2 625.5,113.3 625.5,113.3 626.5,113.4 626.5,113.3 627.5,113.5 627.5,113.4 628.5,113.5 628.5,113.5 629.5,113.6 629.5,113.5 630.5,113.6 630.5,113.6 631.5,113.7 631.5,113.7 632.5,113.8 632.5,113.7 633.5,113.8 633.5,113.8 634.5,113.9 634.5,113.9 635.5,113.9 635.5,113.9 636.5,114.0 636.5,114.0 637.5,114.1 637.5,114.0 638.5,114.1 638.5,114.1 639.5,114.2 639.5,114.2 640.5,114.2 640.5,114.2 641.5,114.3 641.5,114.3 642.5,114.4 642.5,114.3 643.5,114.4 643.5,114.4 644.5,114.5 644.5,114.5 645.5,114.6 645.5,114.5 646.5,114.6 646.5,114.6 647.5,114.7 647.5,114.6 648.5,114.8 648.5,114.7 649.5,114.8 649.5,114.8 650.5,114.9 650.5,114.8 651.5,114.9 651.5,114.9 652.5,115.0 652.5,115.0 653.5,115.1 653.5,115.0 654.5,115.1 654.5,115.1 655.5,115.2 655.5,115.1 656.5,115.2 656.5,115.2 657.5,115.3 657.5,115.3 658.5,115.4 658.5,115.3 659.5,115.4 659.5,115.4 660.5,115.5 660.5,115.4 661.5,115.6 661.5,115.5 662.5,115.6 662.5,115.6 663.5,115.7 663.5,115.6 664.5,115.7 664.5,115.7 665.5,115.8 665.5,115.8 666.5,115.9 666.5,115.8 667.5,115.9 667.5,115.9 668.5,116.0 668.5,115.9 669.5,116.0 669.5,116.0 670.5,116.1 670.5,116.1 671.5,116.2 671.5,116.1 672.5,116.2 672.5,116.2 673.5,116.3 673.5,116.2 674.5,116.3 674.5,116.3 675.5,116.4 675.5,116.4 676.5,116.5 676.5,116.4 677.5,116.5 677.5,116.5 678.5,116.6 678.5,116.5 679.5,116.6 679.5,116.6 680.5,116.7 680.5,116.7 681.5,116.8 681.5,116.7 682.5,116.8 682.5,116.8 683.5,116.9 683.5,116.8 684.5,116.9 684.5,116.9 685.5,117.0 685.5,117.0 686.5,117.1 686.5,117.0 687.5,117.1 687.5,117.1 688.5,117.2 688.5,117.1 689.5,117.2 689.5,117.2 690.5,117.3 690.5,117.3 691.5,117.4 691.5,117.3 692.5,117.4 692.5,117.4 693.5,117.5 693.5,117.4 694.5,117.5 694.5,117.5 695.5,117.6 695.5,117.6 696.5,117.7 696.5,117.6 697.5,117.7 697.5,117.7 698.5,117.8 698.5,117.7 699.5,117.8 699.5,117.8 700.5,117.9 700.5,117.9 701.5,117.9 701.5,117.9 702.5,118.0 702.5,118.0 703.5,118.1 703.5,118.0 704.5,118.1 704.5,118.1 705.5,118.2 705.5,118.2 706.5,118.2 706.5,118.2 707.5,118.3 707.5,118.3 708.5,118.4 708.5,118.3 709.5,118.4 709.5,118.4 710.5,118.5 710.5,118.4 711.5,118.5 711.5,118.5 712.5,118.6 712.5,118.6 713.5,118.7 713.5,118.6 714.5,118.7 714.5,118.7 715.5,118.8 715.5,118.7 716.5,118.8 716.5,118.8 717.5,118.9 717.5,118.9 718.5,119.0 718.5,118.9 719.5,119.0 719.5,119.0 720.5,119.1 720.5,119.0 721.5,119.1 721.5,119.1 722.5,119.2 722.5,119.1 723.5,119.2 723.5,119.2 724.5,119.3 724.5,119.3 725.5,119.4 725.5,119.3 726.5,119.4 726.5,119.4 727.5,119.5 727.5,119.4 728.5,119.5 728.5,119.5 729.5,119.6 729.5,119.6 730.5,119.6 730.5,119.6 731.5,119.7 731.5,119.7 732.5,119.8 732.5,119.7 733.5,119.8 733.5,119.8 734.5,119.9 734.5,119.8 735.5,119.9 735.5,119.9 736.5,120.0 736.5,120.0 737.5,120.1 737.5,120.0 738.5,120.1 738.5,120.1 739.5,120.2 739.5,120.1 740.5,120.2 740.5,120.2 741.5,120.3 741.5,120.3 742.5,120.3 742.5,120.3 743.5,120.4 743.5,120.4 744.5,120.4 744.5,120.4 745.5,120.5 745.5,120.5 746.5,120.6 746.5,120.5 747.5,120.6 747.5,120.6 748.5,120.7 748.5,120.6 749.5,120.7 749.5,120.7 750.5,120.8 750.5,120.8 751.5,120.9 751.5,120.8 752.5,120.9 752.5,120.9 753.5,121.0 753.5,120.9 754.5,121.0 754.5,121.0 755.5,121.1 755.5,121.0 756.5,121.1 756.5,121.1 757.5,121.2 757.5,121.2 758.5,121.3 758.5,121.2 759.5,121.3 759.5,121.3 760.5,121.4 760.5,121.3 761.5,121.4 761.5,121.4 762.5,121.5 762.5,121.4 763.5,121.5 763.5,121.5 764.5,121.6 764.5,121.5 765.5,121.7 765.5,121.6 766.5,121.7 766.5,121.7 767.5,121.8 767.5,121.7 768.5,121.8 768.5,121.8 769.5,121.9 769.5,121.8 770.5,121.9 770.5,121.9 771.5,122.0 771.5,121.9 772.5,122.0 772.5,122.0 773.5,122.1 773.5,122.1 774.5,122.2 774.5,122.1 775.5,122.2 775.5,122.2 776.5,122.3 776.5,122.2 777.5,122.3 777.5,122.3 778.5,122.4 778.5,122.3 779.5,122.4 779.5,122.4 780.5,122.5 780.5,122.5 781.5,122.5 781.5,122.5 782.5,122.6 782.5,122.6 783.5,122.7 783.5,122.6 784.5,122.7 784.5,122.7 785.5,122.8 785.5,122.7 786.5,122.8 786.5,122.8 787.5,122.9 787.5,122.8 788.5,122.9 788.5,122.9 789.5,123.0 789.5,123.0 790.5,123.0 790.5,123.0 791.5,123.1 791.5,123.1 792.5,123.2 792.5,123.1 793.5,123.2 793.5,123.2 794.5,123.3 794.5,123.2 795.5,123.3 795.5,123.3 796.5,123.4 796.5,123.3 797.5,123.4 797.5,123.4 798.5,123.5 798.5,123.4 799.5,123.5 799.5,123.5" fill="none" stroke="#3b82f6" stroke-width="1.5" stroke-linejoin="round"/>
  <line x1="34" y1="8" x2="46" y2="8" stroke="#d1d5db" stroke-width="2"/>
  <text x="49" y="11" text-anchor="start" font-size="11" fill="#6b7280">signal</text>
  <line x1="93.8" y1="8" x2="105.8" y2="8" stroke="#3b82f6" stroke-width="2"/>
  <text x="108.8" y="11" text-anchor="start" font-size="11" fill="#6b7280">envelope</text>
</svg>
