<svg xmlns="http://www.w3.org/2000/svg" viewBox="0 0 820 392" style="font-family:system-ui,-apple-system,sans-serif">
  <defs>
    <clipPath id="u12"><rect x="34" y="16" width="358" height="360"/></clipPath>

    <clipPath id="u13"><rect x="442" y="16" width="358" height="360"/></clipPath>
  </defs>
  <text x="800" y="11" text-anchor="end" font-size="11" fill="#6b7280" font-weight="600">Expander — threshold=−30dB</text>
  <line x1="34" y1="16" x2="34" y2="376" stroke="#d1d5db" stroke-width="1"/>
  <line x1="34" y1="376" x2="392" y2="376" stroke="#d1d5db" stroke-width="1"/>
  <line x1="34" y1="376" x2="392" y2="376" stroke="#e5e7eb" stroke-width="0.5"/>
  <text x="30" y="379" text-anchor="end" font-size="8" fill="#6b7280">-60</text>
  <line x1="34" y1="316" x2="392" y2="316" stroke="#e5e7eb" stroke-width="0.5"/>
  <text x="30" y="319" text-anchor="end" font-size="8" fill="#6b7280">-50</text>
  <line x1="34" y1="256" x2="392" y2="256" stroke="#e5e7eb" stroke-width="0.5"/>
  <text x="30" y="259" text-anchor="end" font-size="8" fill="#6b7280">-40</text>
  <line x1="34" y1="196" x2="392" y2="196" stroke="#e5e7eb" stroke-width="0.5"/>
  <text x="30" y="199" text-anchor="end" font-size="8" fill="#6b7280">-30</text>
  <line x1="34" y1="136" x2="392" y2="136" stroke="#e5e7eb" stroke-width="0.5"/>
  <text x="30" y="139" text-anchor="end" font-size="8" fill="#6b7280">-20</text>
  <line x1="34" y1="76" x2="392" y2="76" stroke="#e5e7eb" stroke-width="0.5"/>
  <text x="30" y="79" text-anchor="end" font-size="8" fill="#6b7280">-10</text>
  <line x1="34" y1="16" x2="392" y2="16" stroke="#e5e7eb" stroke-width="0.5"/>
  <text x="30" y="19" text-anchor="end" font-size="8" fill="#6b7280">0</text>
  <line x1="34" y1="16" x2="34" y2="376" stroke="#e5e7eb" stroke-width="0.5"/>
  <text x="34" y="388" text-anchor="middle" font-size="8" fill="#6b7280">-60</text>
  <line x1="93.7" y1="16" x2="93.7" y2="376" stroke="#e5e7eb" stroke-width="0.5"/>
  <text x="93.7" y="388" text-anchor="middle" font-size="8" fill="#6b7280">-50</text>
  <line x1="153.3" y1="16" x2="153.3" y2="376" stroke="#e5e7eb" stroke-width="0.5"/>
  <text x="153.3" y="388" text-anchor="middle" font-size="8" fill="#6b7280">-40</text>
  <line x1="213" y1="16" x2="213" y2="376" stroke="#e5e7eb" stroke-width="0.5"/>
  <text x="213" y="388" text-anchor="middle" font-size="8" fill="#6b7280">-30</text>
  <line x1="272.7" y1="16" x2="272.7" y2="376" stroke="#e5e7eb" stroke-width="0.5"/>
  <text x="272.7" y="388" text-anchor="middle" font-size="8" fill="#6b7280">-20</text>
  <line x1="332.3" y1="16" x2="332.3" y2="376" stroke="#e5e7eb" stroke-width="0.5"/>
  <text x="332.3" y="388" text-anchor="middle" font-size="8" fill="#6b7280">-10</text>
  <line x1="392" y1="16" x2="392" y2="376" stroke="#e5e7eb" stroke-width="0.5"/>
  <text x="392" y="388" text-anchor="middle" font-size="8" fill="#6b7280">0</text>
  <polyline points="34.0,376.0 NaN,16.0" fill="none" stroke="#d1d5db" stroke-width="0.8" stroke-linejoin="round"/>
  <text x="213" y="402" text-anchor="middle" font-size="9" fill="#6b7280">input (dB)</text>
  <text x="12" y="196" text-anchor="middle" font-size="9" fill="#6b7280">output (dB)</text>
  <line x1="213" y1="16" x2="213" y2="376" stroke="#eab308" stroke-width="1"/>
  <text x="216" y="28" text-anchor="start" font-size="7" fill="#6b7280">threshold</text>
  <polyline clip-path="url(#u12)" points="34.0,376.0 37.0,376.0 40.0,376.0 43.0,376.0 45.9,376.0 48.9,376.0 51.9,376.0 54.9,376.0 57.9,376.0 60.8,376.0 63.8,376.0 66.8,376.0 69.8,376.0 72.8,376.0 75.8,376.0 78.8,376.0 81.7,376.0 84.7,376.0 87.7,376.0 90.7,376.0 93.7,376.0 96.7,376.0 99.6,376.0 102.6,376.0 105.6,376.0 108.6,376.0 111.6,376.0 114.5,376.0 117.5,376.0 120.5,376.0 123.5,376.0 126.5,370.1 129.5,364.1 132.4,358.1 135.4,352.1 138.4,346.1 141.4,340.1 144.4,334.1 147.4,328.1 150.4,322.1 153.3,316.1 156.3,310.1 159.3,304.1 162.3,298.1 165.3,292.1 168.3,286.1 171.2,280.1 174.2,274.1 177.2,268.1 180.2,262.1 183.2,256.1 186.2,250.1 189.1,244.1 192.1,238.1 195.1,232.1 198.1,226.1 201.1,220.1 204.0,214.1 207.0,208.1 210.0,202.1 213.0,196.1 216.0,193.1 219.0,190.1 222.0,187.1 224.9,184.1 227.9,181.1 230.9,178.1 233.9,175.1 236.9,172.1 239.8,169.1 242.8,166.1 245.8,163.1 248.8,160.1 251.8,157.1 254.8,154.1 257.8,151.1 260.7,148.1 263.7,145.1 266.7,142.1 269.7,139.1 272.7,136.1 275.6,133.1 278.6,130.1 281.6,127.1 284.6,124.1 287.6,121.1 290.6,118.1 293.6,115.1 296.5,112.1 299.5,109.1 302.5,106.1 305.5,103.1 308.5,100.1 311.4,97.1 314.4,94.1 317.4,91.1 320.4,88.1 323.4,85.1 326.4,82.1 329.3,79.1 332.3,76.1 335.3,73.1 338.3,70.1 341.3,67.1 344.3,64.1 347.3,61.1 350.2,58.1 353.2,55.1 356.2,52.1 359.2,49.1 362.2,46.1 365.2,43.1 368.1,40.1 371.1,37.1 374.1,34.1 377.1,31.1 380.1,28.1 383.1,25.1 386.0,22.1 389.0,19.1 392.0,16.1" fill="none" stroke="#3b82f6" stroke-width="1.8" stroke-linejoin="round"/>
  <polyline clip-path="url(#u12)" points="34.0,376.0 37.0,376.0 40.0,376.0 43.0,376.0 45.9,376.0 48.9,376.0 51.9,376.0 54.9,376.0 57.9,376.0 60.8,376.0 63.8,376.0 66.8,376.0 69.8,376.0 72.8,376.0 75.8,376.0 78.8,376.0 81.7,376.0 84.7,376.0 87.7,376.0 90.7,376.0 93.7,376.0 96.7,376.0 99.6,376.0 102.6,376.0 105.6,376.0 108.6,376.0 111.6,376.0 114.5,376.0 117.5,376.0 120.5,376.0 123.5,376.0 126.5,376.0 129.5,376.0 132.4,376.0 135.4,376.0 138.4,376.0 141.4,376.0 144.4,376.0 147.4,376.0 150.4,376.0 153.3,376.0 156.3,376.0 159.3,376.0 162.3,376.0 165.3,376.0 168.3,376.0 171.2,364.1 174.2,352.1 177.2,340.1 180.2,328.1 183.2,316.1 186.2,304.1 189.1,292.1 192.1,280.1 195.1,268.1 198.1,256.1 201.1,244.1 204.0,232.1 207.0,220.1 210.0,208.1 213.0,196.1 216.0,193.1 219.0,190.1 222.0,187.1 224.9,184.1 227.9,181.1 230.9,178.1 233.9,175.1 236.9,172.1 239.8,169.1 242.8,166.1 245.8,163.1 248.8,160.1 251.8,157.1 254.8,154.1 257.8,151.1 260.7,148.1 263.7,145.1 266.7,142.1 269.7,139.1 272.7,136.1 275.6,133.1 278.6,130.1 281.6,127.1 284.6,124.1 287.6,121.1 290.6,118.1 293.6,115.1 296.5,112.1 299.5,109.1 302.5,106.1 305.5,103.1 308.5,100.1 311.4,97.1 314.4,94.1 317.4,91.1 320.4,88.1 323.4,85.1 326.4,82.1 329.3,79.1 332.3,76.1 335.3,73.1 338.3,70.1 341.3,67.1 344.3,64.1 347.3,61.1 350.2,58.1 353.2,55.1 356.2,52.1 359.2,49.1 362.2,46.1 365.2,43.1 368.1,40.1 371.1,37.1 374.1,34.1 377.1,31.1 380.1,28.1 383.1,25.1 386.0,22.1 389.0,19.1 392.0,16.1" fill="none" stroke="#ef4444" stroke-width="1.8" stroke-linejoin="round"/>
  <line x1="442" y1="16" x2="442" y2="376" stroke="#d1d5db" stroke-width="1"/>
  <line x1="442" y1="376" x2="800" y2="376" stroke="#d1d5db" stroke-width="1"/>
  <line x1="442" y1="16" x2="442" y2="376" stroke="#e5e7eb" stroke-width="0.5"/>
  <text x="442" y="388" text-anchor="middle" font-size="8" fill="#6b7280">0ms</text>
  <line x1="557.6" y1="16" x2="557.6" y2="376" stroke="#e5e7eb" stroke-width="0.5"/>
  <text x="557.6" y="388" text-anchor="middle" font-size="8" fill="#6b7280">30ms</text>
  <line x1="673.3" y1="16" x2="673.3" y2="376" stroke="#e5e7eb" stroke-width="0.5"/>
  <text x="673.3" y="388" text-anchor="middle" font-size="8" fill="#6b7280">60ms</text>
  <line x1="788.9" y1="16" x2="788.9" y2="376" stroke="#e5e7eb" stroke-width="0.5"/>
  <text x="788.9" y="388" text-anchor="middle" font-size="8" fill="#6b7280">90ms</text>
  <line x1="442" y1="346" x2="800" y2="346" stroke="#e5e7eb" stroke-width="0.5"/>
  <text x="438" y="349" text-anchor="end" font-size="8" fill="#6b7280">-1</text>
  <line x1="442" y1="196" x2="800" y2="196" stroke="#e5e7eb" stroke-width="0.5"/>
  <text x="438" y="199" text-anchor="end" font-size="8" fill="#6b7280">0</text>
  <line x1="442" y1="46" x2="800" y2="46" stroke="#e5e7eb" stroke-width="0.5"/>
  <text x="438" y="49" text-anchor="end" font-size="8" fill="#6b7280">1</text>
  <line x1="442" y1="196" x2="800" y2="196" stroke="#d1d5db" stroke-width="0.5"/>
  <text x="621" y="402" text-anchor="middle" font-size="9" fill="#6b7280">time</text>
  <polyline clip-path="url(#u13)" points="442.5,196.0 442.5,195.6 443.5,195.5 443.5,194.5 444.5,194.4 444.5,193.9 445.5,194.8 445.5,193.9 446.5,197.5 446.5,195.0 447.5,200.3 447.5,197.7 448.5,201.6 448.5,200.5 449.5,201.6 449.5,199.9 450.5,199.6 450.5,195.6 451.5,195.2 451.5,190.1 452.5,189.7 452.5,186.9 453.5,188.2 453.5,186.8 454.5,193.8 454.5,188.6 455.5,202.0 455.5,194.4 456.5,207.7 456.5,202.7 457.5,208.9 457.5,208.1 458.5,207.9 458.5,202.4 459.5,201.6 459.5,192.7 460.5,191.8 460.5,182.9 461.5,182.3 461.5,179.4 462.5,184.4 462.5,179.5 463.5,195.3 463.5,185.2 464.5,208.6 464.5,196.5 465.5,215.7 465.5,209.5 466.5,216.2 466.5,213.4 467.5,212.7 467.5,202.3 468.5,201.0 468.5,187.3 469.5,186.0 469.5,174.7 470.5,174.1 470.5,172.1 471.5,182.9 471.5,173.1 472.5,199.6 472.5,184.2 473.5,216.8 473.5,201.2 474.5,223.5 474.5,217.9 475.5,223.5 475.5,216.6 476.5,215.3 476.5,199.5 477.5,197.7 477.5,179.8 478.5,178.2 478.5,166.0 479.5,167.3 479.5,164.8 480.5,184.0 480.5,168.2 481.5,206.3 481.5,185.9 482.5,226.0 482.5,208.3 483.5,230.9 483.5,227.0 484.5,230.1 484.5,219.1 485.5,217.3 485.5,194.0 486.5,191.7 486.5,170.6 487.5,168.8 487.5,157.7 488.5,163.9 488.5,157.5 489.5,187.9 489.5,165.4 490.5,215.1 490.5,190.3 491.5,235.5 491.5,217.4 492.5,238.2 492.5,235.9 493.5,235.0 493.5,217.7 494.5,215.4 494.5,186.0 495.5,183.3 495.5,160.2 496.5,158.5 496.5,150.1 497.5,163.0 497.5,150.5 498.5,194.6 498.5,165.1 499.5,225.7 499.5,197.6 500.5,244.7 500.5,228.1 501.5,245.6 501.5,239.3 502.5,237.7 502.5,213.5 503.5,210.5 503.5,175.7 504.5,172.7 504.5,149.3 505.5,147.8 505.5,142.8 506.5,164.9 506.5,145.4 507.5,203.9 507.5,167.8 508.5,237.5 508.5,207.3 509.5,252.9 509.5,239.8 510.5,252.8 510.5,240.0 511.5,237.6 511.5,206.3 512.5,202.7 512.5,163.7 513.5,160.6 513.5,138.6 514.5,140.9 514.5,135.4 515.5,169.9 515.5,142.6 516.5,215.6 516.5,173.5 517.5,249.7 517.5,219.3 518.5,260.2 518.5,251.8 519.5,259.3 519.5,237.7 520.5,234.5 520.5,196.2 521.5,192.0 521.5,150.4 522.5,147.4 522.5,128.8 523.5,140.2 523.5,128.1 524.5,178.1 524.5,142.7 525.5,229.2 525.5,182.3 526.5,261.8 526.5,233.0 527.5,267.6 527.5,263.4 528.5,263.3 528.5,232.1 529.5,228.1 529.5,183.5 530.5,178.9 530.5,136.6 531.5,133.8 531.5,120.8 532.5,142.6 532.5,121.0 533.5,189.3 533.5,146.1 534.5,244.1 534.5,194.1 535.5,272.8 535.5,247.9 536.5,274.9 536.5,266.7 537.5,264.4 537.5,223.2 538.5,218.4 538.5,168.6 539.5,163.8 539.5,123.0 540.5,120.7 540.5,113.4 541.5,148.5 541.5,116.3 542.5,203.3 542.5,152.9 543.5,259.5 543.5,208.6 544.5,282.1 544.5,263.1 545.5,282.3 545.5,265.4 546.5,262.0 546.5,211.0 547.5,205.5 547.5,152.0 548.5,147.3 548.5,110.4 549.5,112.4 549.5,106.1 550.5,158.1 550.5,114.6 551.5,219.7 551.5,163.3 552.5,271.6 552.5,225.3 553.5,289.6 553.5,274.9 554.5,288.1 554.5,260.4 555.5,256.0 555.5,195.7 556.5,189.7 556.5,134.6 557.5,130.0 557.5,99.7 558.5,113.2 558.5,98.7 559.5,171.1 559.5,116.6 560.5,237.9 560.5,177.1 561.5,286.6 561.5,243.5 562.5,296.9 562.5,289.2 563.5,290.6 563.5,251.6 564.5,246.1 564.5,177.9 565.5,171.6 565.5,116.9 566.5,112.8 566.5,91.4 567.5,117.9 567.5,91.9 568.5,187.4 568.5,122.5 569.5,257.2 569.5,194.0 570.5,300.0 570.5,262.7 571.5,304.2 571.5,292.6 572.5,289.3 572.5,238.9 573.5,232.5 573.5,158.1 574.5,151.6 574.5,100.0 575.5,96.6 575.5,84.1 576.5,126.7 576.5,88.2 577.5,206.5 577.5,132.4 578.5,276.8 578.5,213.6 579.5,310.9 579.5,281.8 580.5,311.6 580.5,288.4 581.5,283.9 581.5,222.5 582.5,215.3 582.5,136.9 583.5,130.6 583.5,84.6 584.5,85.5 584.5,76.7 585.5,139.7 585.5,88.5 586.5,220.6 586.5,146.5 587.5,295.9 587.5,228.0 588.5,319.0 588.5,300.1 589.5,318.0 589.5,279.9 590.5,274.1 590.5,202.7 591.5,194.9 591.5,115.3 592.5,109.3 592.5,71.7 593.5,88.8 593.5,69.4 594.5,156.7 594.5,93.2 595.5,243.5 595.5,164.4 596.5,313.4 596.5,251.0 597.5,326.3 597.5,316.7 598.5,320.4 598.5,266.9 599.5,259.9 599.5,180.2 600.5,172.0 600.5,94.1 601.5,88.8 601.5,62.0 602.5,96.7 602.5,62.2 603.5,177.3 603.5,102.6 604.5,267.5 604.5,185.8 605.5,328.5 605.5,274.7 606.5,333.6 606.5,322.0 607.5,318.3 607.5,249.6 608.5,241.5 608.5,155.5 609.5,147.2 609.5,74.3 610.5,70.0 610.5,54.8 611.5,109.4 611.5,58.1 612.5,201.1 612.5,116.6 613.5,291.5 613.5,210.1 614.5,340.2 614.5,298.1 615.5,340.9 615.5,316.5 616.5,311.2 616.5,228.3 617.5,219.3 617.5,129.6 618.5,121.5 618.5,56.8 619.5,55.4 619.5,47.4 620.5,126.7 620.5,58.7 621.5,227.0 621.5,135.2 622.5,312.2 622.5,236.1 623.5,343.6 623.5,317.7 624.5,342.0 624.5,301.4 625.5,294.7 625.5,203.1 626.5,193.9 626.5,109.2 627.5,102.2 627.5,54.0 628.5,71.0 628.5,52.0 629.5,144.6 629.5,75.7 630.5,249.0 630.5,153.0 631.5,319.8 631.5,257.1 632.5,336.3 632.5,323.7 633.5,329.0 633.5,277.7 634.5,270.4 634.5,178.7 635.5,170.1 635.5,95.9 636.5,90.2 636.5,59.3 637.5,90.9 637.5,59.6 638.5,169.8 638.5,96.5 639.5,266.9 639.5,178.2 640.5,322.4 640.5,273.9 641.5,329.0 641.5,316.5 642.5,312.8 642.5,253.6 643.5,246.1 643.5,157.4 644.5,149.7 644.5,87.4 645.5,83.2 645.5,66.7 646.5,112.3 646.5,70.4 647.5,193.3 647.5,118.6 648.5,280.5 648.5,201.3 649.5,320.4 649.5,286.2 650.5,321.6 650.5,299.0 651.5,294.3 651.5,230.2 652.5,222.7 652.5,139.8 653.5,133.1 653.5,83.6 654.5,81.5 654.5,74.0 655.5,134.2 655.5,84.4 656.5,214.2 656.5,140.9 657.5,289.6 657.5,221.6 658.5,314.3 658.5,294.0 659.5,313.8 659.5,279.8 660.5,274.4 660.5,208.3 661.5,201.0 661.5,126.3 662.5,120.7 662.5,84.2 663.5,93.5 663.5,81.4 664.5,155.8 664.5,96.9 665.5,232.0 665.5,162.5 666.5,294.3 666.5,238.6 667.5,307.0 667.5,297.3 668.5,302.9 668.5,259.9 669.5,254.2 669.5,188.5 670.5,181.8 670.5,116.9 671.5,112.4 671.5,88.8 672.5,109.8 672.5,88.7 673.5,176.1 673.5,114.0 674.5,246.3 674.5,182.6 675.5,294.8 675.5,251.9 676.5,299.6 676.5,292.2 677.5,289.6 677.5,240.3 678.5,234.4 678.5,171.7 679.5,165.5 679.5,111.6 680.5,108.4 680.5,96.0 681.5,127.2 681.5,97.8 682.5,194.5 682.5,131.9 683.5,256.7 683.5,200.6 684.5,291.5 684.5,261.3 685.5,292.3 685.5,277.8 686.5,274.5 686.5,221.6 687.5,215.8 687.5,158.0 688.5,152.7 688.5,110.3 689.5,108.3 689.5,103.4 690.5,144.8 690.5,109.4 691.5,210.3 691.5,149.7 692.5,263.3 692.5,215.8 693.5,284.9 693.5,266.9 694.5,284.5 694.5,262.3 695.5,258.5 695.5,204.7 696.5,199.2 696.5,147.9 697.5,143.6 697.5,114.0 698.5,120.1 698.5,110.7 699.5,161.8 699.5,122.7 700.5,223.1 700.5,166.6 701.5,266.2 701.5,227.9 702.5,277.6 702.5,268.6 703.5,274.4 703.5,246.5 704.5,242.5 704.5,190.1 705.5,185.1 705.5,141.4 706.5,138.0 706.5,118.5 707.5,133.8 707.5,118.1 708.5,177.4 708.5,136.9 709.5,232.6 709.5,182.1 710.5,265.5 710.5,236.6 711.5,270.3 711.5,264.6 712.5,262.7 712.5,231.3 713.5,227.2 713.5,178.3 714.5,174.0 714.5,138.5 715.5,136.0 715.5,125.4 716.5,147.9 716.5,126.0 717.5,191.0 717.5,151.2 718.5,238.7 718.5,195.3 719.5,261.8 719.5,241.9 720.5,262.9 720.5,252.5 721.5,250.1 721.5,217.3 722.5,213.3 722.5,169.6 723.5,166.0 723.5,138.8 724.5,137.2 724.5,132.7 725.5,161.5 725.5,135.8 726.5,202.2 726.5,164.9 727.5,241.5 727.5,206.0 728.5,255.6 728.5,243.9 729.5,255.5 729.5,240.0 730.5,237.4 730.5,205.0 731.5,201.4 731.5,167.0 732.5,164.0 732.5,142.0 733.5,145.0 733.5,140.1 734.5,174.0 734.5,146.5 735.5,210.6 735.5,177.2 736.5,241.3 736.5,213.8 737.5,248.2 737.5,242.8 738.5,246.9 738.5,227.9 739.5,225.3 739.5,195.1 740.5,192.0 740.5,163.8 741.5,161.6 741.5,147.6 742.5,155.9 742.5,147.4 743.5,184.8 743.5,157.7 744.5,216.1 744.5,187.7 745.5,238.3 745.5,218.6 746.5,240.9 746.5,238.3 747.5,237.2 747.5,216.9 748.5,214.4 748.5,187.9 749.5,185.3 749.5,163.6 750.5,162.0 750.5,154.8 751.5,166.5 751.5,155.2 752.5,193.4 752.5,168.3 753.5,218.6 753.5,195.8 754.5,233.1 754.5,220.4 755.5,233.6 755.5,228.6 756.5,227.3 756.5,207.5 757.5,205.3 757.5,183.4 758.5,181.4 758.5,166.0 759.5,165.1 759.5,162.1 760.5,176.3 760.5,163.9 761.5,199.4 761.5,178.0 762.5,218.3 762.5,201.4 763.5,226.2 763.5,219.5 764.5,226.2 764.5,219.1 765.5,217.9 765.5,202.1 766.5,200.3 766.5,181.8 767.5,180.3 767.5,170.6 768.5,172.1 768.5,169.4 769.5,184.5 769.5,172.8 770.5,202.8 770.5,186.0 771.5,215.5 771.5,204.2 772.5,218.9 772.5,216.2 773.5,218.1 773.5,210.6 774.5,209.5 774.5,196.8 775.5,195.5 775.5,182.8 776.5,181.9 776.5,176.9 777.5,180.5 777.5,176.8 778.5,190.8 778.5,181.3 779.5,203.4 779.5,191.9 780.5,210.6 780.5,204.3 781.5,211.6 781.5,210.4 782.5,210.0 782.5,203.6 783.5,202.8 783.5,194.2 784.5,193.4 784.5,186.2 785.5,185.8 785.5,184.1 786.5,188.0 786.5,184.2 787.5,194.7 787.5,188.6 788.5,201.5 788.5,195.4 789.5,204.2 789.5,201.9 790.5,204.3 790.5,202.7 791.5,202.4 791.5,198.5 792.5,198.1 792.5,194.2 793.5,193.9 793.5,191.5 794.5,191.7 794.5,191.3 795.5,193.9 795.5,191.9 796.5,196.1 796.5,194.2 797.5,197.3 797.5,196.3 798.5,197.3 798.5,196.9 799.5,196.9 799.5,196.1" fill="none" stroke="#d1d5db" stroke-width="1" stroke-linejoin="round"/>
  <polyline clip-path="url(#u13)" points="442.5,196.0 442.5,196.0 443.5,196.0 443.5,195.9 444.5,195.9 444.5,195.7 445.5,195.8 445.5,195.7 446.5,196.3 446.5,195.8 447.5,197.3 447.5,196.3 448.5,198.8 448.5,197.4 449.5,198.9 449.5,198.4 450.5,198.2 450.5,195.8 451.5,195.5 451.5,192.0 452.5,191.7 452.5,187.9 453.5,188.2 453.5,186.8 454.5,193.8 454.5,188.6 455.5,202.0 455.5,194.4 456.5,207.7 456.5,202.7 457.5,208.9 457.5,208.1 458.5,207.9 458.5,202.4 459.5,201.6 459.5,192.7 460.5,191.8 460.5,182.9 461.5,182.3 461.5,179.4 462.5,184.4 462.5,179.5 463.5,195.3 463.5,185.2 464.5,208.6 464.5,196.5 465.5,215.7 465.5,209.5 466.5,216.2 466.5,213.4 467.5,212.7 467.5,202.3 468.5,201.0 468.5,187.3 469.5,186.0 469.5,174.7 470.5,174.1 470.5,172.1 471.5,182.9 471.5,173.1 472.5,199.6 472.5,184.2 473.5,216.8 473.5,201.2 474.5,223.5 474.5,217.9 475.5,223.5 475.5,216.6 476.5,215.3 476.5,199.5 477.5,197.7 477.5,179.8 478.5,178.2 478.5,166.0 479.5,167.3 479.5,164.8 480.5,184.0 480.5,168.2 481.5,206.3 481.5,185.9 482.5,226.0 482.5,208.3 483.5,230.9 483.5,227.0 484.5,230.1 484.5,219.1 485.5,217.3 485.5,194.0 486.5,191.7 486.5,170.6 487.5,168.8 487.5,157.7 488.5,163.9 488.5,157.5 489.5,187.9 489.5,165.4 490.5,215.1 490.5,190.3 491.5,235.5 491.5,217.4 492.5,238.2 492.5,235.9 493.5,235.0 493.5,217.7 494.5,215.4 494.5,186.0 495.5,183.3 495.5,160.2 496.5,158.5 496.5,150.1 497.5,163.0 497.5,150.5 498.5,194.6 498.5,165.1 499.5,225.7 499.5,197.6 500.5,244.7 500.5,228.1 501.5,245.6 501.5,239.3 502.5,237.7 502.5,213.5 503.5,210.5 503.5,175.7 504.5,172.7 504.5,149.3 505.5,147.8 505.5,142.8 506.5,164.9 506.5,145.4 507.5,203.9 507.5,167.8 508.5,237.5 508.5,207.3 509.5,252.9 509.5,239.8 510.5,252.8 510.5,240.0 511.5,237.6 511.5,206.3 512.5,202.7 512.5,163.7 513.5,160.6 513.5,138.6 514.5,140.9 514.5,135.4 515.5,169.9 515.5,142.6 516.5,215.6 516.5,173.5 517.5,249.7 517.5,219.3 518.5,260.2 518.5,251.8 519.5,259.3 519.5,237.7 520.5,234.5 520.5,196.2 521.5,192.0 521.5,150.4 522.5,147.4 522.5,128.8 523.5,140.2 523.5,128.1 524.5,178.1 524.5,142.7 525.5,229.2 525.5,182.3 526.5,261.8 526.5,233.0 527.5,267.6 527.5,263.4 528.5,263.3 528.5,232.1 529.5,228.1 529.5,183.5 530.5,178.9 530.5,136.6 531.5,133.8 531.5,120.8 532.5,142.6 532.5,121.0 533.5,189.3 533.5,146.1 534.5,244.1 534.5,194.1 535.5,272.8 535.5,247.9 536.5,274.9 536.5,266.7 537.5,264.4 537.5,223.2 538.5,218.4 538.5,168.6 539.5,163.8 539.5,123.0 540.5,120.7 540.5,113.4 541.5,148.5 541.5,116.3 542.5,203.3 542.5,152.9 543.5,259.5 543.5,208.6 544.5,282.1 544.5,263.1 545.5,282.3 545.5,265.4 546.5,262.0 546.5,211.0 547.5,205.5 547.5,152.0 548.5,147.3 548.5,110.4 549.5,112.4 549.5,106.1 550.5,158.1 550.5,114.6 551.5,219.7 551.5,163.3 552.5,271.6 552.5,225.3 553.5,289.6 553.5,274.9 554.5,288.1 554.5,260.4 555.5,256.0 555.5,195.7 556.5,189.7 556.5,134.6 557.5,130.0 557.5,99.7 558.5,113.2 558.5,98.7 559.5,171.1 559.5,116.6 560.5,237.9 560.5,177.1 561.5,286.6 561.5,243.5 562.5,296.9 562.5,289.2 563.5,290.6 563.5,251.6 564.5,246.1 564.5,177.9 565.5,171.6 565.5,116.9 566.5,112.8 566.5,91.4 567.5,117.9 567.5,91.9 568.5,187.4 568.5,122.5 569.5,257.2 569.5,194.0 570.5,300.0 570.5,262.7 571.5,304.2 571.5,292.6 572.5,289.3 572.5,238.9 573.5,232.5 573.5,158.1 574.5,151.6 574.5,100.0 575.5,96.6 575.5,84.1 576.5,126.7 576.5,88.2 577.5,206.5 577.5,132.4 578.5,276.8 578.5,213.6 579.5,310.9 579.5,281.8 580.5,311.6 580.5,288.4 581.5,283.9 581.5,222.5 582.5,215.3 582.5,136.9 583.5,130.6 583.5,84.6 584.5,85.5 584.5,76.7 585.5,139.7 585.5,88.5 586.5,220.6 586.5,146.5 587.5,295.9 587.5,228.0 588.5,319.0 588.5,300.1 589.5,318.0 589.5,279.9 590.5,274.1 590.5,202.7 591.5,194.9 591.5,115.3 592.5,109.3 592.5,71.7 593.5,88.8 593.5,69.4 594.5,156.7 594.5,93.2 595.5,243.5 595.5,164.4 596.5,313.4 596.5,251.0 597.5,326.3 597.5,316.7 598.5,320.4 598.5,266.9 599.5,259.9 599.5,180.2 600.5,172.0 600.5,94.1 601.5,88.8 601.5,62.0 602.5,96.7 602.5,62.2 603.5,177.3 603.5,102.6 604.5,267.5 604.5,185.8 605.5,328.5 605.5,274.7 606.5,333.6 606.5,322.0 607.5,318.3 607.5,249.6 608.5,241.5 608.5,155.5 609.5,147.2 609.5,74.3 610.5,70.0 610.5,54.8 611.5,109.4 611.5,58.1 612.5,201.1 612.5,116.6 613.5,291.5 613.5,210.1 614.5,340.2 614.5,298.1 615.5,340.9 615.5,316.5 616.5,311.2 616.5,228.3 617.5,219.3 617.5,129.6 618.5,121.5 618.5,56.8 619.5,55.4 619.5,47.4 620.5,126.7 620.5,58.7 621.5,227.0 621.5,135.2 622.5,312.2 622.5,236.1 623.5,343.6 623.5,317.7 624.5,342.0 624.5,301.4 625.5,294.7 625.5,203.1 626.5,193.9 626.5,109.2 627.5,102.2 627.5,54.0 628.5,71.0 628.5,52.0 629.5,144.6 629.5,75.7 630.5,249.0 630.5,153.0 631.5,319.8 631.5,257.1 632.5,336.3 632.5,323.7 633.5,329.0 633.5,277.7 634.5,270.4 634.5,178.7 635.5,170.1 635.5,95.9 636.5,90.2 636.5,59.3 637.5,90.9 637.5,59.6 638.5,169.8 638.5,96.5 639.5,266.9 639.5,178.2 640.5,322.4 640.5,273.9 641.5,329.0 641.5,316.5 642.5,312.8 642.5,253.6 643.5,246.1 643.5,157.4 644.5,149.7 644.5,87.4 645.5,83.2 645.5,66.7 646.5,112.3 646.5,70.4 647.5,193.3 647.5,118.6 648.5,280.5 648.5,201.3 649.5,320.4 649.5,286.2 650.5,321.6 650.5,299.0 651.5,294.3 651.5,230.2 652.5,222.7 652.5,139.8 653.5,133.1 653.5,83.6 654.5,81.5 654.5,74.0 655.5,134.2 655.5,84.4 656.5,214.2 656.5,140.9 657.5,289.6 657.5,221.6 658.5,314.3 658.5,294.0 659.5,313.8 659.5,279.8 660.5,274.4 660.5,208.3 661.5,201.0 661.5,126.3 662.5,120.7 662.5,84.2 663.5,93.5 663.5,81.4 664.5,155.8 664.5,96.9 665.5,232.0 665.5,162.5 666.5,294.3 666.5,238.6 667.5,307.0 667.5,297.3 668.5,302.9 668.5,259.9 669.5,254.2 669.5,188.5 670.5,181.8 670.5,116.9 671.5,112.4 671.5,88.8 672.5,109.8 672.5,88.7 673.5,176.1 673.5,114.0 674.5,246.3 674.5,182.6 675.5,294.8 675.5,251.9 676.5,299.6 676.5,292.2 677.5,289.6 677.5,240.3 678.5,234.4 678.5,171.7 679.5,165.5 679.5,111.6 680.5,108.4 680.5,96.0 681.5,127.2 681.5,97.8 682.5,194.5 682.5,131.9 683.5,256.7 683.5,200.6 684.5,291.5 684.5,261.3 685.5,292.3 685.5,277.8 686.5,274.5 686.5,221.6 687.5,215.8 687.5,158.0 688.5,152.7 688.5,110.3 689.5,108.3 689.5,103.4 690.5,144.8 690.5,109.4 691.5,210.3 691.5,149.7 692.5,263.3 692.5,215.8 693.5,284.9 693.5,266.9 694.5,284.5 694.5,262.3 695.5,258.5 695.5,204.7 696.5,199.2 696.5,147.9 697.5,143.6 697.5,114.0 698.5,120.1 698.5,110.7 699.5,161.8 699.5,122.7 700.5,223.1 700.5,166.6 701.5,266.2 701.5,227.9 702.5,277.6 702.5,268.6 703.5,274.4 703.5,246.5 704.5,242.5 704.5,190.1 705.5,185.1 705.5,141.4 706.5,138.0 706.5,118.5 707.5,133.8 707.5,118.1 708.5,177.4 708.5,136.9 709.5,232.6 709.5,182.1 710.5,265.5 710.5,236.6 711.5,270.3 711.5,264.6 712.5,262.7 712.5,231.3 713.5,227.2 713.5,178.3 714.5,174.0 714.5,138.5 715.5,136.0 715.5,125.4 716.5,147.9 716.5,126.0 717.5,191.0 717.5,151.2 718.5,238.7 718.5,195.3 719.5,261.8 719.5,241.9 720.5,262.9 720.5,252.5 721.5,250.1 721.5,217.3 722.5,213.3 722.5,169.6 723.5,166.0 723.5,138.8 724.5,137.2 724.5,132.7 725.5,161.5 725.5,135.8 726.5,202.2 726.5,164.9 727.5,241.5 727.5,206.0 728.5,255.6 728.5,243.9 729.5,255.5 729.5,240.0 730.5,237.4 730.5,205.0 731.5,201.4 731.5,167.0 732.5,164.0 732.5,142.0 733.5,145.0 733.5,140.1 734.5,174.0 734.5,146.5 735.5,210.6 735.5,177.2 736.5,241.3 736.5,213.8 737.5,248.2 737.5,242.8 738.5,246.9 738.5,227.9 739.5,225.3 739.5,195.1 740.5,192.0 740.5,163.8 741.5,161.6 741.5,147.6 742.5,155.9 742.5,147.4 743.5,184.8 743.5,157.7 744.5,216.1 744.5,187.7 745.5,238.3 745.5,218.6 746.5,240.9 746.5,238.3 747.5,237.2 747.5,216.9 748.5,214.4 748.5,187.9 749.5,185.3 749.5,163.6 750.5,162.0 750.5,154.8 751.5,166.5 751.5,155.2 752.5,193.4 752.5,168.3 753.5,218.6 753.5,195.8 754.5,233.1 754.5,220.4 755.5,233.6 755.5,228.6 756.5,227.3 756.5,207.5 757.5,205.3 757.5,183.4 758.5,181.4 758.5,166.0 759.5,165.1 759.5,162.1 760.5,176.3 760.5,163.9 761.5,199.4 761.5,178.0 762.5,218.3 762.5,201.4 763.5,226.2 763.5,219.5 764.5,226.2 764.5,219.1 765.5,217.9 765.5,202.1 766.5,200.3 766.5,181.8 767.5,180.3 767.5,170.6 768.5,172.1 768.5,169.4 769.5,184.5 769.5,172.8 770.5,202.8 770.5,186.0 771.5,215.5 771.5,204.2 772.5,218.9 772.5,216.2 773.5,218.1 773.5,210.6 774.5,209.5 774.5,196.8 775.5,195.5 775.5,182.8 776.5,181.9 776.5,176.9 777.5,180.5 777.5,176.8 778.5,190.8 778.5,181.3 779.5,203.4 779.5,191.9 780.5,210.6 780.5,204.3 781.5,211.6 781.5,210.4 782.5,210.0 782.5,203.6 783.5,202.8 783.5,194.2 784.5,193.4 784.5,186.2 785.5,185.8 785.5,184.1 786.5,188.0 786.5,184.2 787.5,194.7 787.5,188.6 788.5,201.5 788.5,195.4 789.5,204.2 789.5,201.9 790.5,204.3 790.5,202.7 791.5,202.4 791.5,198.5 792.5,198.1 792.5,194.2 793.5,193.9 793.5,191.5 794.5,191.7 794.5,191.3 795.5,193.9 795.5,191.9 796.5,196.1 796.5,194.2 797.5,197.3 797.5,196.3 798.5,197.3 798.5,196.9 799.5,196.9 799.5,196.1" fill="none" stroke="#3b82f6" stroke-width="1.5" stroke-linejoin="round"/>
  <line x1="442" y1="8" x2="454" y2="8" stroke="#d1d5db" stroke-width="2"/>
  <text x="457" y="11" text-anchor="start" font-size="11" fill="#6b7280">input</text>
  <line x1="496" y1="8" x2="508" y2="8" stroke="#3b82f6" stroke-width="2"/>
  <text x="511" y="11" text-anchor="start" font-size="11" fill="#6b7280">output</text>
  <line x1="34" y1="10" x2="46" y2="10" stroke="#3b82f6" stroke-width="2"/>
  <text x="49" y="13" text-anchor="start" font-size="11" fill="#6b7280">2:1</text>
  <line x1="76.4" y1="10" x2="88.4" y2="10" stroke="#ef4444" stroke-width="2"/>
  <text x="91.4" y="13" text-anchor="start" font-size="11" fill="#6b7280">4:1</text>
</svg>
