<svg xmlns="http://www.w3.org/2000/svg" viewBox="0 0 820 392" style="font-family:system-ui,-apple-system,sans-serif">
  <defs>
    <clipPath id="clip1"><rect x="34" y="16" width="358" height="155"/></clipPath>

    <clipPath id="clip2"><rect x="442" y="16" width="358" height="155"/></clipPath>

    <clipPath id="clip3"><rect x="34" y="221" width="358" height="155"/></clipPath>

    <clipPath id="clip4"><rect x="442" y="221" width="358" height="155"/></clipPath>
  </defs>
  <text x="800" y="11" text-anchor="end" font-size="11" font-weight="600" fill="#6b7280">Flanger — comb sweep at min/center/max delay</text>
  <line x1="34" y1="16" x2="34" y2="171" stroke="#d1d5db"/>
  <line x1="34" y1="47.0" x2="392" y2="47.0" stroke="#d1d5db"/>
  <text x="213" y="197" text-anchor="middle" font-size="9" fill="#6b7280">Hz</text>
  <text x="12" y="93.5" text-anchor="middle" font-size="9" fill="#6b7280" transform="rotate(-90 12 93.5)">dB</text>
  <line x1="66.6" y1="16" x2="66.6" y2="171" stroke="#e5e7eb" stroke-width="0.5"/>
  <line x1="85.7" y1="16" x2="85.7" y2="171" stroke="#e5e7eb" stroke-width="0.5"/>
  <line x1="99.3" y1="16" x2="99.3" y2="171" stroke="#e5e7eb" stroke-width="0.5"/>
  <line x1="109.8" y1="16" x2="109.8" y2="171" stroke="#e5e7eb" stroke-width="0.5"/>
  <line x1="118.4" y1="16" x2="118.4" y2="171" stroke="#e5e7eb" stroke-width="0.5"/>
  <line x1="125.7" y1="16" x2="125.7" y2="171" stroke="#e5e7eb" stroke-width="0.5"/>
  <line x1="131.9" y1="16" x2="131.9" y2="171" stroke="#e5e7eb" stroke-width="0.5"/>
  <line x1="137.5" y1="16" x2="137.5" y2="171" stroke="#e5e7eb" stroke-width="0.5"/>
  <line x1="175.1" y1="16" x2="175.1" y2="171" stroke="#e5e7eb" stroke-width="0.5"/>
  <line x1="194.2" y1="16" x2="194.2" y2="171" stroke="#e5e7eb" stroke-width="0.5"/>
  <line x1="207.7" y1="16" x2="207.7" y2="171" stroke="#e5e7eb" stroke-width="0.5"/>
  <line x1="218.3" y1="16" x2="218.3" y2="171" stroke="#e5e7eb" stroke-width="0.5"/>
  <line x1="226.8" y1="16" x2="226.8" y2="171" stroke="#e5e7eb" stroke-width="0.5"/>
  <line x1="234.1" y1="16" x2="234.1" y2="171" stroke="#e5e7eb" stroke-width="0.5"/>
  <line x1="240.4" y1="16" x2="240.4" y2="171" stroke="#e5e7eb" stroke-width="0.5"/>
  <line x1="245.9" y1="16" x2="245.9" y2="171" stroke="#e5e7eb" stroke-width="0.5"/>
  <line x1="283.5" y1="16" x2="283.5" y2="171" stroke="#e5e7eb" stroke-width="0.5"/>
  <line x1="302.6" y1="16" x2="302.6" y2="171" stroke="#e5e7eb" stroke-width="0.5"/>
  <line x1="316.2" y1="16" x2="316.2" y2="171" stroke="#e5e7eb" stroke-width="0.5"/>
  <line x1="326.7" y1="16" x2="326.7" y2="171" stroke="#e5e7eb" stroke-width="0.5"/>
  <line x1="335.3" y1="16" x2="335.3" y2="171" stroke="#e5e7eb" stroke-width="0.5"/>
  <line x1="342.6" y1="16" x2="342.6" y2="171" stroke="#e5e7eb" stroke-width="0.5"/>
  <line x1="348.8" y1="16" x2="348.8" y2="171" stroke="#e5e7eb" stroke-width="0.5"/>
  <line x1="354.4" y1="16" x2="354.4" y2="171" stroke="#e5e7eb" stroke-width="0.5"/>
  <line x1="392.0" y1="16" x2="392.0" y2="171" stroke="#e5e7eb" stroke-width="0.5"/>
  <line x1="34.0" y1="16" x2="34.0" y2="171" stroke="#e5e7eb" stroke-width="0.5"/>
  <text x="34.0" y="183" text-anchor="middle" font-size="8" fill="#6b7280">10</text>
  <line x1="142.5" y1="16" x2="142.5" y2="171" stroke="#e5e7eb" stroke-width="0.5"/>
  <text x="142.5" y="183" text-anchor="middle" font-size="8" fill="#6b7280">100</text>
  <line x1="250.9" y1="16" x2="250.9" y2="171" stroke="#e5e7eb" stroke-width="0.5"/>
  <text x="250.9" y="183" text-anchor="middle" font-size="8" fill="#6b7280">1k</text>
  <line x1="359.4" y1="16" x2="359.4" y2="171" stroke="#e5e7eb" stroke-width="0.5"/>
  <text x="359.4" y="183" text-anchor="middle" font-size="8" fill="#6b7280">10k</text>
  <line x1="34" y1="171.0" x2="392" y2="171.0" stroke="#e5e7eb" stroke-width="0.5"/>
  <line x1="34" y1="140.0" x2="392" y2="140.0" stroke="#e5e7eb" stroke-width="0.5"/>
  <line x1="34" y1="109.0" x2="392" y2="109.0" stroke="#e5e7eb" stroke-width="0.5"/>
  <line x1="34" y1="78.0" x2="392" y2="78.0" stroke="#e5e7eb" stroke-width="0.5"/>
  <line x1="34" y1="16.0" x2="392" y2="16.0" stroke="#e5e7eb" stroke-width="0.5"/>
  <line x1="34" y1="62.5" x2="392" y2="62.5" stroke="#e5e7eb" stroke-width="0.5"/>
  <line x1="34" y1="31.5" x2="392" y2="31.5" stroke="#e5e7eb" stroke-width="0.5"/>
  <text x="30" y="174.0" text-anchor="end" font-size="8" fill="#6b7280">-80</text>
  <text x="30" y="143.0" text-anchor="end" font-size="8" fill="#6b7280">-60</text>
  <text x="30" y="112.0" text-anchor="end" font-size="8" fill="#6b7280">-40</text>
  <text x="30" y="81.0" text-anchor="end" font-size="8" fill="#6b7280">-20</text>
  <text x="30" y="50.0" text-anchor="end" font-size="8" fill="#6b7280">0</text>
  <text x="30" y="19.0" text-anchor="end" font-size="8" fill="#6b7280">+20</text>
  <line x1="442" y1="16" x2="442" y2="171" stroke="#d1d5db"/>
  <line x1="442" y1="93.5" x2="800" y2="93.5" stroke="#d1d5db"/>
  <text x="621" y="197" text-anchor="middle" font-size="9" fill="#6b7280">Hz</text>
  <text x="420" y="93.5" text-anchor="middle" font-size="9" fill="#6b7280" transform="rotate(-90 420 93.5)">Phase (deg)</text>
  <line x1="474.6" y1="16" x2="474.6" y2="171" stroke="#e5e7eb" stroke-width="0.5"/>
  <line x1="493.7" y1="16" x2="493.7" y2="171" stroke="#e5e7eb" stroke-width="0.5"/>
  <line x1="507.3" y1="16" x2="507.3" y2="171" stroke="#e5e7eb" stroke-width="0.5"/>
  <line x1="517.8" y1="16" x2="517.8" y2="171" stroke="#e5e7eb" stroke-width="0.5"/>
  <line x1="526.4" y1="16" x2="526.4" y2="171" stroke="#e5e7eb" stroke-width="0.5"/>
  <line x1="533.7" y1="16" x2="533.7" y2="171" stroke="#e5e7eb" stroke-width="0.5"/>
  <line x1="539.9" y1="16" x2="539.9" y2="171" stroke="#e5e7eb" stroke-width="0.5"/>
  <line x1="545.5" y1="16" x2="545.5" y2="171" stroke="#e5e7eb" stroke-width="0.5"/>
  <line x1="583.1" y1="16" x2="583.1" y2="171" stroke="#e5e7eb" stroke-width="0.5"/>
  <line x1="602.2" y1="16" x2="602.2" y2="171" stroke="#e5e7eb" stroke-width="0.5"/>
  <line x1="615.7" y1="16" x2="615.7" y2="171" stroke="#e5e7eb" stroke-width="0.5"/>
  <line x1="626.3" y1="16" x2="626.3" y2="171" stroke="#e5e7eb" stroke-width="0.5"/>
  <line x1="634.8" y1="16" x2="634.8" y2="171" stroke="#e5e7eb" stroke-width="0.5"/>
  <line x1="642.1" y1="16" x2="642.1" y2="171" stroke="#e5e7eb" stroke-width="0.5"/>
  <line x1="648.4" y1="16" x2="648.4" y2="171" stroke="#e5e7eb" stroke-width="0.5"/>
  <line x1="653.9" y1="16" x2="653.9" y2="171" stroke="#e5e7eb" stroke-width="0.5"/>
  <line x1="691.5" y1="16" x2="691.5" y2="171" stroke="#e5e7eb" stroke-width="0.5"/>
  <line x1="710.6" y1="16" x2="710.6" y2="171" stroke="#e5e7eb" stroke-width="0.5"/>
  <line x1="724.2" y1="16" x2="724.2" y2="171" stroke="#e5e7eb" stroke-width="0.5"/>
  <line x1="734.7" y1="16" x2="734.7" y2="171" stroke="#e5e7eb" stroke-width="0.5"/>
  <line x1="743.3" y1="16" x2="743.3" y2="171" stroke="#e5e7eb" stroke-width="0.5"/>
  <line x1="750.6" y1="16" x2="750.6" y2="171" stroke="#e5e7eb" stroke-width="0.5"/>
  <line x1="756.8" y1="16" x2="756.8" y2="171" stroke="#e5e7eb" stroke-width="0.5"/>
  <line x1="762.4" y1="16" x2="762.4" y2="171" stroke="#e5e7eb" stroke-width="0.5"/>
  <line x1="800.0" y1="16" x2="800.0" y2="171" stroke="#e5e7eb" stroke-width="0.5"/>
  <line x1="442.0" y1="16" x2="442.0" y2="171" stroke="#e5e7eb" stroke-width="0.5"/>
  <text x="442.0" y="183" text-anchor="middle" font-size="8" fill="#6b7280">10</text>
  <line x1="550.5" y1="16" x2="550.5" y2="171" stroke="#e5e7eb" stroke-width="0.5"/>
  <text x="550.5" y="183" text-anchor="middle" font-size="8" fill="#6b7280">100</text>
  <line x1="658.9" y1="16" x2="658.9" y2="171" stroke="#e5e7eb" stroke-width="0.5"/>
  <text x="658.9" y="183" text-anchor="middle" font-size="8" fill="#6b7280">1k</text>
  <line x1="767.4" y1="16" x2="767.4" y2="171" stroke="#e5e7eb" stroke-width="0.5"/>
  <text x="767.4" y="183" text-anchor="middle" font-size="8" fill="#6b7280">10k</text>
  <line x1="442" y1="54.8" x2="800" y2="54.8" stroke="#e5e7eb" stroke-width="0.5"/>
  <line x1="442" y1="132.3" x2="800" y2="132.3" stroke="#e5e7eb" stroke-width="0.5"/>
  <line x1="442" y1="16.0" x2="800" y2="16.0" stroke="#e5e7eb" stroke-width="0.5"/>
  <text x="438" y="19.0" text-anchor="end" font-size="8" fill="#6b7280">+180</text>
  <text x="438" y="96.5" text-anchor="end" font-size="8" fill="#6b7280">0</text>
  <line x1="442" y1="171.0" x2="800" y2="171.0" stroke="#e5e7eb" stroke-width="0.5"/>
  <text x="438" y="174.0" text-anchor="end" font-size="8" fill="#6b7280">-180</text>
  <line x1="34" y1="221" x2="34" y2="376" stroke="#d1d5db"/>
  <line x1="34" y1="298.5" x2="392" y2="298.5" stroke="#d1d5db"/>
  <text x="213" y="402" text-anchor="middle" font-size="9" fill="#6b7280">Hz</text>
  <text x="12" y="298.5" text-anchor="middle" font-size="9" fill="#6b7280" transform="rotate(-90 12 298.5)">Delay (smp)</text>
  <line x1="66.6" y1="221" x2="66.6" y2="376" stroke="#e5e7eb" stroke-width="0.5"/>
  <line x1="85.7" y1="221" x2="85.7" y2="376" stroke="#e5e7eb" stroke-width="0.5"/>
  <line x1="99.3" y1="221" x2="99.3" y2="376" stroke="#e5e7eb" stroke-width="0.5"/>
  <line x1="109.8" y1="221" x2="109.8" y2="376" stroke="#e5e7eb" stroke-width="0.5"/>
  <line x1="118.4" y1="221" x2="118.4" y2="376" stroke="#e5e7eb" stroke-width="0.5"/>
  <line x1="125.7" y1="221" x2="125.7" y2="376" stroke="#e5e7eb" stroke-width="0.5"/>
  <line x1="131.9" y1="221" x2="131.9" y2="376" stroke="#e5e7eb" stroke-width="0.5"/>
  <line x1="137.5" y1="221" x2="137.5" y2="376" stroke="#e5e7eb" stroke-width="0.5"/>
  <line x1="175.1" y1="221" x2="175.1" y2="376" stroke="#e5e7eb" stroke-width="0.5"/>
  <line x1="194.2" y1="221" x2="194.2" y2="376" stroke="#e5e7eb" stroke-width="0.5"/>
  <line x1="207.7" y1="221" x2="207.7" y2="376" stroke="#e5e7eb" stroke-width="0.5"/>
  <line x1="218.3" y1="221" x2="218.3" y2="376" stroke="#e5e7eb" stroke-width="0.5"/>
  <line x1="226.8" y1="221" x2="226.8" y2="376" stroke="#e5e7eb" stroke-width="0.5"/>
  <line x1="234.1" y1="221" x2="234.1" y2="376" stroke="#e5e7eb" stroke-width="0.5"/>
  <line x1="240.4" y1="221" x2="240.4" y2="376" stroke="#e5e7eb" stroke-width="0.5"/>
  <line x1="245.9" y1="221" x2="245.9" y2="376" stroke="#e5e7eb" stroke-width="0.5"/>
  <line x1="283.5" y1="221" x2="283.5" y2="376" stroke="#e5e7eb" stroke-width="0.5"/>
  <line x1="302.6" y1="221" x2="302.6" y2="376" stroke="#e5e7eb" stroke-width="0.5"/>
  <line x1="316.2" y1="221" x2="316.2" y2="376" stroke="#e5e7eb" stroke-width="0.5"/>
  <line x1="326.7" y1="221" x2="326.7" y2="376" stroke="#e5e7eb" stroke-width="0.5"/>
  <line x1="335.3" y1="221" x2="335.3" y2="376" stroke="#e5e7eb" stroke-width="0.5"/>
  <line x1="342.6" y1="221" x2="342.6" y2="376" stroke="#e5e7eb" stroke-width="0.5"/>
  <line x1="348.8" y1="221" x2="348.8" y2="376" stroke="#e5e7eb" stroke-width="0.5"/>
  <line x1="354.4" y1="221" x2="354.4" y2="376" stroke="#e5e7eb" stroke-width="0.5"/>
  <line x1="392.0" y1="221" x2="392.0" y2="376" stroke="#e5e7eb" stroke-width="0.5"/>
  <line x1="34.0" y1="221" x2="34.0" y2="376" stroke="#e5e7eb" stroke-width="0.5"/>
  <text x="34.0" y="388" text-anchor="middle" font-size="8" fill="#6b7280">10</text>
  <line x1="142.5" y1="221" x2="142.5" y2="376" stroke="#e5e7eb" stroke-width="0.5"/>
  <text x="142.5" y="388" text-anchor="middle" font-size="8" fill="#6b7280">100</text>
  <line x1="250.9" y1="221" x2="250.9" y2="376" stroke="#e5e7eb" stroke-width="0.5"/>
  <text x="250.9" y="388" text-anchor="middle" font-size="8" fill="#6b7280">1k</text>
  <line x1="359.4" y1="221" x2="359.4" y2="376" stroke="#e5e7eb" stroke-width="0.5"/>
  <text x="359.4" y="388" text-anchor="middle" font-size="8" fill="#6b7280">10k</text>
  <line x1="34" y1="376.0" x2="392" y2="376.0" stroke="#e5e7eb" stroke-width="0.5"/>
  <text x="30" y="379.0" text-anchor="end" font-size="8" fill="#6b7280">-100</text>
  <line x1="34" y1="337.3" x2="392" y2="337.3" stroke="#e5e7eb" stroke-width="0.5"/>
  <text x="30" y="340.3" text-anchor="end" font-size="8" fill="#6b7280">-50</text>
  <text x="30" y="301.5" text-anchor="end" font-size="8" fill="#6b7280">0</text>
  <line x1="34" y1="259.8" x2="392" y2="259.8" stroke="#e5e7eb" stroke-width="0.5"/>
  <text x="30" y="262.8" text-anchor="end" font-size="8" fill="#6b7280">50</text>
  <line x1="34" y1="221.0" x2="392" y2="221.0" stroke="#e5e7eb" stroke-width="0.5"/>
  <text x="30" y="224.0" text-anchor="end" font-size="8" fill="#6b7280">100</text>
  <line x1="442" y1="221" x2="442" y2="376" stroke="#d1d5db"/>
  <line x1="442" y1="298.5" x2="800" y2="298.5" stroke="#d1d5db"/>
  <text x="621" y="402" text-anchor="middle" font-size="9" fill="#6b7280">Samples</text>
  <text x="420" y="298.5" text-anchor="middle" font-size="9" fill="#6b7280" transform="rotate(-90 420 298.5)">Impulse</text>
  <line x1="442.0" y1="221" x2="442.0" y2="376" stroke="#e5e7eb" stroke-width="0.5"/>
  <text x="442.0" y="388" text-anchor="middle" font-size="8" fill="#6b7280">0</text>
  <line x1="581.8" y1="221" x2="581.8" y2="376" stroke="#e5e7eb" stroke-width="0.5"/>
  <text x="581.8" y="388" text-anchor="middle" font-size="8" fill="#6b7280">200</text>
  <line x1="721.7" y1="221" x2="721.7" y2="376" stroke="#e5e7eb" stroke-width="0.5"/>
  <text x="721.7" y="388" text-anchor="middle" font-size="8" fill="#6b7280">400</text>
  <line x1="442" y1="363.1" x2="800" y2="363.1" stroke="#e5e7eb" stroke-width="0.5"/>
  <text x="438" y="366.1" text-anchor="end" font-size="8" fill="#6b7280">-1</text>
  <text x="438" y="301.5" text-anchor="end" font-size="8" fill="#6b7280">0</text>
  <line x1="442" y1="233.9" x2="800" y2="233.9" stroke="#e5e7eb" stroke-width="0.5"/>
  <text x="438" y="236.9" text-anchor="end" font-size="8" fill="#6b7280">1</text>
  <line x1="442" y1="233.9" x2="800" y2="233.9" stroke="#e5e7eb" stroke-width="0.5" stroke-dasharray="3 2"/>
  <text x="438" y="236.9" text-anchor="end" font-size="7" fill="#6b7280">+1</text>
  <line x1="442" y1="363.1" x2="800" y2="363.1" stroke="#e5e7eb" stroke-width="0.5" stroke-dasharray="3 2"/>
  <text x="438" y="366.1" text-anchor="end" font-size="7" fill="#6b7280">-1</text>
  <g clip-path="url(#clip1)">
  <polyline points="102.8,37.5 135.4,49.1 154.5,54.3 168.1,64.7 178.6,53.0 187.2,45.9 194.4,35.6 200.7,33.7 206.3,40.0 211.2,51.3 215.7,56.8 219.8,60.1 223.6,52.3 227.1,42.6 230.3,34.3 233.4,34.5 236.2,43.1 238.9,52.4 241.5,60.8 243.9,56.3 246.2,51.1 248.4,39.6 250.5,33.6 252.5,35.9 254.4,46.5 256.2,53.2 258.0,65.1 259.7,54.1 261.4,48.7 263.0,37.2 264.5,33.4 266.0,37.9 267.5,49.5 268.9,54.6 270.2,64.0 271.6,52.9 272.8,45.4 274.1,35.5 275.3,33.8 276.5,40.5 277.7,51.5 278.8,57.3 279.9,59.4 281.0,52.1 282.1,42.1 283.1,34.3 284.1,34.8 285.1,43.6 286.1,52.5 287.0,61.4 288.0,55.9 288.9,50.7 289.8,39.3 290.7,33.7 291.5,36.3 292.4,46.9 293.2,53.3 294.0,65.0 294.8,53.8 295.6,48.2 296.4,37.0 297.2,33.6 297.9,38.4 298.7,49.8 299.4,54.9 300.1,63.0 300.8,52.7 301.5,44.9 302.2,35.4 302.9,34.1 303.5,41.0 304.2,51.6 304.9,57.8 305.5,58.7 306.1,51.9 306.7,41.8 307.4,34.3 308.0,35.1 308.6,44.1 309.2,52.5 309.8,61.8 310.3,55.5 310.9,50.3 311.5,39.1 312.0,33.8 312.6,36.7 313.1,47.4 313.7,53.5 314.2,64.5 314.7,53.6 315.2,47.6 315.7,37.0 316.3,33.9 316.8,38.9 317.3,50.0 317.8,55.3 318.2,62.0 318.7,52.6 319.2,44.5 319.7,35.5 320.1,34.5 320.6,41.6 321.1,51.6 321.5,58.2 322.0,58.0 322.4,51.6 322.9,41.5 323.3,34.5 323.7,35.6 324.2,44.6 324.6,52.6 325.0,61.9 325.4,55.1 325.8,49.8 326.3,39.0 326.7,34.1 327.1,37.3 327.5,47.7 327.9,53.7 328.3,63.6 328.7,53.4 329.0,47.2 329.4,37.0 329.8,34.3 330.2,39.5 330.6,50.1 330.9,55.5 331.3,60.9 331.7,52.3 332.0,44.1 332.4,35.6 332.8,34.9 333.1,42.1 333.5,51.6 333.8,58.4 334.2,57.4 334.5,51.2 334.8,41.3 335.2,34.8 335.5,36.1 335.9,45.1 336.2,52.6 336.5,61.6 336.8,54.8 337.2,49.3 337.5,39.0 337.8,34.5 338.1,37.8 338.5,47.9 338.8,53.8 339.1,62.5 339.4,53.2 339.7,46.7 340.0,37.2 340.3,34.8 340.6,40.0 340.9,50.1 341.2,55.7 341.5,59.9 341.8,52.1 342.1,43.9 342.4,35.9 342.7,35.5 343.0,42.6 343.3,51.5 343.5,58.4 343.8,56.8 344.1,50.8 344.4,41.2 344.7,35.2 344.9,36.7 345.2,45.4 345.5,52.6 345.8,61.0 346.0,54.5 346.3,48.9 346.6,39.1 346.8,35.0 347.1,38.4 347.4,48.0 347.6,53.9 347.9,61.3 348.1,53.0 348.4,46.4 348.7,37.4 348.9,35.3 349.2,40.6 349.4,50.1 349.7,55.8 349.9,59.0 350.2,51.8 350.4,43.7 350.6,36.3 350.9,36.1 351.1,43.1 351.4,51.5 351.6,58.2 351.8,56.3 352.1,50.4 352.3,41.3 352.6,35.7 352.8,37.4 353.0,45.7 353.3,52.6 353.5,60.2 353.7,54.2 353.9,48.5 354.2,39.3 354.4,35.6 354.6,39.0 354.8,48.1 355.1,53.9 355.3,60.1 355.5,52.7 355.7,46.1 355.9,37.8 356.2,36.0 356.4,41.1 356.6,50.0 356.8,55.7 357.0,58.1 357.2,51.5 357.4,43.7 357.7,36.8 357.9,36.8 358.1,43.5 358.3,51.3 358.5,57.8 358.7,55.8 358.9,50.0 359.1,41.5 359.3,36.3 359.5,38.0 359.7,45.9 359.9,52.5 360.1,59.2 360.3,53.9 360.5,48.1 360.7,39.7 360.9,36.3 361.1,39.6 361.3,48.0 361.5,53.8 361.7,59.0 361.9,52.5 362.1,46.0 362.3,38.3 362.5,36.6 362.6,41.6 362.8,49.8 363.0,55.5 363.2,57.3 363.4,51.2 363.6,43.7 363.8,37.4 363.9,37.4 364.1,43.8 364.3,51.1 364.5,57.1 364.7,55.3 364.9,49.7 365.0,41.8 365.2,37.0 365.4,38.6 365.6,45.9 365.8,52.3 365.9,58.2 366.1,53.6 366.3,47.9 366.5,40.1 366.6,37.0 366.8,40.2 367.0,47.9 367.1,53.6 367.3,57.9 367.5,52.2 367.7,45.9 367.8,38.9 368.0,37.4 368.2,42.0 368.3,49.5 368.5,55.0 368.7,56.5 368.8,50.9 369.0,43.9 369.2,38.1 369.3,38.1 369.5,44.0 369.7,50.8 369.8,56.4 370.0,54.9 370.1,49.5 370.3,42.2 370.5,37.7 370.6,39.3 370.8,45.9 370.9,52.0 371.1,57.1 371.3,53.3 371.4,47.8 371.6,40.7 371.7,37.7 371.9,40.7 372.0,47.7 372.2,53.2 372.4,56.9 372.5,52.0 372.7,46.0 372.8,39.6 373.0,38.1 373.1,42.3 373.3,49.2 373.4,54.4 373.6,55.8 373.7,50.7 373.9,44.3 374.0,38.9 374.2,38.8 374.3,44.1 374.5,50.5 374.6,55.5 374.8,54.4 374.9,49.3 375.0,42.7 375.2,38.5 375.3,39.8 375.5,45.8 375.6,51.6 375.8,56.0 375.9,53.1 376.1,47.8 376.2,41.4 376.3,38.5 376.5,41.1 376.6,47.4 376.8,52.7 376.9,55.9 377.0,51.8 377.2,46.2 377.3,40.4 377.5,38.8 377.6,42.5 377.7,48.8 377.9,53.7 378.0,55.1 378.1,50.6 378.3,44.7 378.4,39.7 378.5,39.5 378.7,44.1 378.8,50.0 378.9,54.6 379.1,54.0 379.2,49.3 379.3,43.3 379.5,39.3 379.6,40.3 379.7,45.6 379.9,51.1 380.0,55.0 380.1,52.8 380.3,47.9 380.4,42.1 380.5,39.3 380.7,41.4 380.8,47.1 380.9,52.1 381.0,55.0 381.2,51.7 381.3,46.6 381.4,41.2 381.6,39.5 381.7,42.7 381.8,48.3 381.9,52.9 382.1,54.4 382.2,50.5 382.3,45.2 382.4,40.5 382.6,40.0 382.7,44.0 382.8,49.5 382.9,53.7 383.0,53.6 383.2,49.4 383.3,44.0 383.4,40.2 383.5,40.8 383.7,45.3 383.8,50.5 383.9,54.1 384.0,52.6 384.1,48.2 384.3,42.9 384.4,40.1 384.5,41.7 384.6,46.6 384.7,51.3 384.9,54.1 385.0,51.6 385.1,47.0 385.2,42.0 385.3,40.2 385.4,42.7 385.6,47.8 385.7,52.1 385.8,53.8 385.9,50.6 386.0,45.8 386.1,41.4 386.2,40.6 386.4,43.8 386.5,48.8 386.6,52.7 386.7,53.2 386.8,49.6 386.9,44.7 387.0,41.0 387.2,41.1 387.3,45.0 387.4,49.7 387.5,53.2 387.6,52.5 387.7,48.6 387.8,43.8 387.9,40.8 388.0,41.8 388.2,46.1 388.3,50.6 388.4,53.3 388.5,51.6 388.6,47.5 388.7,42.9 388.8,40.8 388.9,42.6 389.0,47.1 389.1,51.3 389.2,53.2 389.4,50.8 389.5,46.5 389.6,42.3 389.7,41.0 389.8,43.5 389.9,48.1 390.0,51.9 390.1,52.9 390.2,49.9 390.3,45.5 390.4,41.8 390.5,41.4 390.6,44.5 390.7,48.9 390.8,52.3 390.9,52.4 391.0,49.0 391.1,44.6 391.2,41.5 391.3,41.9 391.4,45.4 391.6,49.7 391.7,52.6 391.8,51.8 391.9,48.2 392.0,43.8" fill="none" stroke="#3b82f6" stroke-width="1.3" stroke-linejoin="round"/>
  </g>
  <g clip-path="url(#clip2)">
  <polyline points="510.8,112.1 543.4,117.2 562.5,110.5 576.1,86.2 586.6,76.5 595.2,68.4 602.4,79.2 608.7,98.7 614.3,115.7 619.2,114.1 623.7,110.4 627.8,78.3 631.6,75.2 635.1,69.2 638.3,84.0 641.4,103.7 644.2,118.0 646.9,111.5 649.5,108.0 651.9,76.5 654.2,72.4 656.4,71.8 658.5,89.1 660.5,108.5 662.4,118.5 664.2,110.4 666.0,98.7 667.7,76.6 669.4,69.5 671.0,75.5 672.5,94.3 674.0,112.7 675.5,116.7 676.9,110.4 678.2,84.5 679.6,76.4 680.8,68.5 682.1,80.0 683.3,99.4 684.5,116.0 685.7,113.6 686.8,110.1 687.9,78.0 689.0,74.9 690.1,69.7 691.1,84.9 692.1,104.4 693.1,118.0 694.1,111.2 695.0,106.9 696.0,76.7 696.9,72.0 697.8,72.5 698.7,89.9 699.5,109.0 700.4,118.1 701.2,110.3 702.0,96.3 702.8,76.8 703.6,69.5 704.4,76.4 705.2,95.1 705.9,113.0 706.7,116.0 707.4,110.2 708.1,83.4 708.8,76.4 709.5,68.9 710.2,80.9 710.9,100.1 711.5,116.1 712.2,113.0 712.9,109.5 713.5,78.1 714.1,74.7 714.7,70.4 715.4,85.7 716.0,104.9 716.6,117.7 717.2,110.8 717.8,105.2 718.3,77.0 718.9,71.9 719.5,73.4 720.0,90.7 720.6,109.4 721.1,117.4 721.7,110.1 722.2,94.2 722.7,77.0 723.2,69.8 723.7,77.3 724.3,95.8 724.8,113.1 725.3,115.2 725.8,109.8 726.2,82.9 726.7,76.4 727.2,69.6 727.7,81.8 728.1,100.7 728.6,115.9 729.1,112.4 729.5,108.5 730.0,78.4 730.4,74.5 730.9,71.3 731.3,86.6 731.7,105.3 732.2,117.2 732.6,110.5 733.0,103.3 733.4,77.4 733.8,72.0 734.3,74.4 734.7,91.5 735.1,109.5 735.5,116.6 735.9,109.7 736.3,92.4 736.7,77.2 737.0,70.3 737.4,78.3 737.8,96.4 738.2,113.0 738.6,114.4 738.9,109.2 739.3,82.8 739.7,76.4 740.0,70.5 740.4,82.7 740.8,101.1 741.1,115.4 741.5,111.8 741.8,107.2 742.2,79.0 742.5,74.6 742.8,72.4 743.2,87.4 743.5,105.6 743.9,116.4 744.2,110.1 744.5,101.4 744.8,78.0 745.2,72.3 745.5,75.4 745.8,92.1 746.1,109.5 746.5,115.6 746.8,109.2 747.1,91.2 747.4,77.5 747.7,71.1 748.0,79.3 748.3,96.9 748.6,112.7 748.9,113.5 749.2,108.3 749.5,83.1 749.8,76.6 750.1,71.5 750.4,83.6 750.7,101.4 751.0,114.7 751.3,111.1 751.5,105.7 751.8,79.7 752.1,74.8 752.4,73.5 752.7,88.1 752.9,105.6 753.2,115.4 753.5,109.6 753.8,99.6 754.0,78.6 754.3,72.9 754.6,76.6 754.8,92.7 755.1,109.2 755.4,114.5 755.6,108.6 755.9,90.5 756.1,77.9 756.4,72.1 756.7,80.3 756.9,97.2 757.2,112.1 757.4,112.5 757.7,107.2 757.9,83.7 758.2,76.8 758.4,72.7 758.6,84.5 758.9,101.5 759.1,113.8 759.4,110.5 759.6,104.2 759.8,80.5 760.1,75.2 760.3,74.7 760.6,88.8 760.8,105.4 761.0,114.3 761.3,109.0 761.5,98.1 761.7,79.3 761.9,73.7 762.2,77.7 762.4,93.1 762.6,108.7 762.8,113.4 763.1,107.8 763.3,90.3 763.5,78.4 763.7,73.2 763.9,81.3 764.2,97.4 764.4,111.2 764.6,111.6 764.8,106.0 765.0,84.5 765.2,77.3 765.4,74.0 765.7,85.2 765.9,101.4 766.1,112.7 766.3,109.7 766.5,102.7 766.7,81.5 766.9,75.9 767.1,76.0 767.3,89.3 767.5,105.0 767.7,113.0 767.9,108.2 768.1,97.0 768.3,80.0 768.5,74.7 768.7,78.8 768.9,93.4 769.1,108.0 769.3,112.2 769.5,106.8 769.7,90.4 769.9,79.0 770.1,74.5 770.3,82.2 770.5,97.4 770.6,110.2 770.8,110.6 771.0,104.8 771.2,85.4 771.4,77.9 771.6,75.4 771.8,85.9 771.9,101.1 772.1,111.5 772.3,108.9 772.5,101.4 772.7,82.5 772.9,76.7 773.0,77.3 773.2,89.7 773.4,104.3 773.6,111.7 773.8,107.4 773.9,96.3 774.1,80.9 774.3,75.9 774.5,79.9 774.6,93.5 774.8,107.0 775.0,110.9 775.1,105.9 775.3,90.7 775.5,79.8 775.7,75.8 775.8,83.0 776.0,97.2 776.2,109.0 776.3,109.6 776.5,103.7 776.7,86.4 776.8,78.8 777.0,76.8 777.2,86.4 777.3,100.5 777.5,110.1 777.7,108.1 777.8,100.4 778.0,83.6 778.1,77.8 778.3,78.5 778.5,89.9 778.6,103.5 778.8,110.3 778.9,106.6 779.1,96.0 779.3,82.0 779.4,77.2 779.6,80.9 779.7,93.4 779.9,105.9 780.0,109.7 780.2,104.9 780.4,91.3 780.5,80.8 780.7,77.2 780.8,83.7 781.0,96.7 781.1,107.7 781.3,108.5 781.4,102.7 781.6,87.5 781.7,79.8 781.9,78.1 782.0,86.8 782.2,99.8 782.3,108.7 782.5,107.2 782.6,99.7 782.8,84.8 782.9,79.0 783.0,79.7 783.2,90.0 783.3,102.4 783.5,108.9 783.6,105.7 783.8,96.0 783.9,83.1 784.1,78.5 784.2,81.8 784.3,93.1 784.5,104.6 784.6,108.4 784.8,104.1 784.9,92.0 785.0,81.9 785.2,78.6 785.3,84.3 785.5,96.1 785.6,106.2 785.7,107.5 785.9,102.0 786.0,88.7 786.1,81.0 786.3,79.4 786.4,87.0 786.5,98.8 786.7,107.1 786.8,106.3 786.9,99.3 787.1,86.2 787.2,80.3 787.3,80.7 787.5,89.9 787.6,101.2 787.7,107.4 787.9,104.9 788.0,96.2 788.1,84.4 788.3,79.9 788.4,82.6 788.5,92.6 788.7,103.2 788.8,107.1 788.9,103.4 789.0,92.9 789.2,83.2 789.3,80.0 789.4,84.7 789.6,95.3 789.7,104.7 789.8,106.4 789.9,101.5 790.1,90.0 790.2,82.3 790.3,80.6 790.4,87.1 790.6,97.7 790.7,105.6 790.8,105.4 790.9,99.2 791.0,87.6 791.2,81.6 791.3,81.7 791.4,89.5 791.5,99.9 791.7,106.0 791.8,104.3 791.9,96.6 792.0,85.9 792.1,81.3 792.3,83.2 792.4,91.9 792.5,101.7 792.6,105.9 792.7,102.9 792.9,93.9 793.0,84.6 793.1,81.3 793.2,84.9 793.3,94.3 793.4,103.1 793.6,105.4 793.7,101.3 793.8,91.4 793.9,83.7 794.0,81.7 794.1,86.9 794.2,96.4 794.4,104.0 794.5,104.7 794.6,99.4 794.7,89.2 794.8,83.0 794.9,82.5 795.0,89.0 795.2,98.4 795.3,104.6 795.4,103.7 795.5,97.3 795.6,87.5 795.7,82.6 795.8,83.6 795.9,91.1 796.0,100.1 796.2,104.7 796.3,102.6 796.4,95.1 796.5,86.1 796.6,82.4 796.7,85.0 796.8,93.1 796.9,101.4 797.0,104.5 797.1,101.3 797.2,92.9 797.4,85.1 797.5,82.6 797.6,86.6 797.7,95.0 797.8,102.5 797.9,104.0 798.0,99.8 798.1,90.9 798.2,84.3 798.3,83.1 798.4,88.3 798.5,96.8 798.6,103.2 798.7,103.4 798.8,98.1 798.9,89.1 799.0,83.8 799.1,83.8 799.2,90.0 799.3,98.4 799.4,103.6 799.6,102.5 799.7,96.3 799.8,87.7 799.9,83.5 800.0,84.8" fill="none" stroke="#3b82f6" stroke-width="1.3" stroke-linejoin="round"/>
  </g>
  <g clip-path="url(#clip3)">
  <polyline points="102.8,237.9 135.4,302.8 154.5,376.0" fill="none" stroke="#3b82f6" stroke-width="1.3" stroke-linejoin="round"/>
  <polyline points="168.1,376.0 178.6,344.1 187.2,291.6 194.4,221.0" fill="none" stroke="#3b82f6" stroke-width="1.3" stroke-linejoin="round"/>
  <polyline points="200.7,221.0 206.3,258.9 211.2,312.0 215.7,376.0" fill="none" stroke="#3b82f6" stroke-width="1.3" stroke-linejoin="round"/>
  <polyline points="219.8,376.0 223.6,321.6 227.1,275.9 230.3,221.0" fill="none" stroke="#3b82f6" stroke-width="1.3" stroke-linejoin="round"/>
  <polyline points="233.4,221.0 236.2,278.6 238.9,324.1 241.5,376.0" fill="none" stroke="#3b82f6" stroke-width="1.3" stroke-linejoin="round"/>
  <polyline points="243.9,376.0 246.2,310.5 248.4,255.7 250.5,221.0" fill="none" stroke="#3b82f6" stroke-width="1.3" stroke-linejoin="round"/>
  <polyline points="250.5,221.0 252.5,223.4 254.4,293.5 256.2,349.2 258.0,376.0" fill="none" stroke="#3b82f6" stroke-width="1.3" stroke-linejoin="round"/>
  <polyline points="258.0,376.0 259.7,373.1 261.4,301.2 263.0,235.1 264.5,221.0" fill="none" stroke="#3b82f6" stroke-width="1.3" stroke-linejoin="round"/>
  <polyline points="264.5,221.0 266.0,241.2 267.5,304.2 268.9,376.0" fill="none" stroke="#3b82f6" stroke-width="1.3" stroke-linejoin="round"/>
  <polyline points="270.2,376.0 271.6,339.4 272.8,289.4 274.1,221.0" fill="none" stroke="#3b82f6" stroke-width="1.3" stroke-linejoin="round"/>
  <polyline points="275.3,221.0 276.5,262.3 277.7,313.6 278.8,376.0" fill="none" stroke="#3b82f6" stroke-width="1.3" stroke-linejoin="round"/>
  <polyline points="279.9,376.0 281.0,319.7 282.1,273.0 283.1,221.0" fill="none" stroke="#3b82f6" stroke-width="1.3" stroke-linejoin="round"/>
  <polyline points="284.1,221.0 285.1,281.2 286.1,327.1 287.0,376.0" fill="none" stroke="#3b82f6" stroke-width="1.3" stroke-linejoin="round"/>
  <polyline points="288.0,376.0 288.9,309.1 289.8,252.7 290.7,221.0" fill="none" stroke="#3b82f6" stroke-width="1.3" stroke-linejoin="round"/>
  <polyline points="290.7,221.0 291.5,226.5 292.4,295.2 293.2,354.1 294.0,376.0" fill="none" stroke="#3b82f6" stroke-width="1.3" stroke-linejoin="round"/>
  <polyline points="294.0,376.0 294.8,367.1 295.6,299.5 296.4,233.1 297.2,221.0" fill="none" stroke="#3b82f6" stroke-width="1.3" stroke-linejoin="round"/>
  <polyline points="297.2,221.0 297.9,244.9 298.7,305.6 299.4,376.0" fill="none" stroke="#3b82f6" stroke-width="1.3" stroke-linejoin="round"/>
  <polyline points="300.1,376.0 300.8,335.6 301.5,287.1 302.2,221.0" fill="none" stroke="#3b82f6" stroke-width="1.3" stroke-linejoin="round"/>
  <polyline points="302.9,221.0 303.5,265.5 304.2,315.4 304.9,376.0" fill="none" stroke="#3b82f6" stroke-width="1.3" stroke-linejoin="round"/>
  <polyline points="305.5,376.0 306.1,318.1 306.7,270.2 307.4,221.0" fill="none" stroke="#3b82f6" stroke-width="1.3" stroke-linejoin="round"/>
  <polyline points="308.0,221.0 308.6,283.4 309.2,330.4 309.8,376.0" fill="none" stroke="#3b82f6" stroke-width="1.3" stroke-linejoin="round"/>
  <polyline points="310.3,376.0 310.9,307.8 311.5,250.3 312.0,221.0" fill="none" stroke="#3b82f6" stroke-width="1.3" stroke-linejoin="round"/>
  <polyline points="312.0,221.0 312.6,230.2 313.1,296.7 313.7,358.0 314.2,376.0" fill="none" stroke="#3b82f6" stroke-width="1.3" stroke-linejoin="round"/>
  <polyline points="314.2,376.0 314.7,360.9 315.2,297.7 315.7,232.0 316.3,221.0" fill="none" stroke="#3b82f6" stroke-width="1.3" stroke-linejoin="round"/>
  <polyline points="316.3,221.0 316.8,248.7 317.3,307.0 317.8,376.0" fill="none" stroke="#3b82f6" stroke-width="1.3" stroke-linejoin="round"/>
  <polyline points="318.2,376.0 318.7,332.5 319.2,284.7 319.7,221.0" fill="none" stroke="#3b82f6" stroke-width="1.3" stroke-linejoin="round"/>
  <polyline points="320.1,221.0 320.6,268.5 321.1,317.4 321.5,376.0" fill="none" stroke="#3b82f6" stroke-width="1.3" stroke-linejoin="round"/>
  <polyline points="322.0,376.0 322.4,316.7 322.9,267.7 323.3,221.0" fill="none" stroke="#3b82f6" stroke-width="1.3" stroke-linejoin="round"/>
  <polyline points="323.7,221.0 324.2,285.3 324.6,333.9 325.0,376.0" fill="none" stroke="#3b82f6" stroke-width="1.3" stroke-linejoin="round"/>
  <polyline points="325.4,376.0 325.8,306.4 326.3,248.6 326.7,221.0" fill="none" stroke="#3b82f6" stroke-width="1.3" stroke-linejoin="round"/>
  <polyline points="326.7,221.0 327.1,234.3 327.5,298.0 327.9,360.3 328.3,376.0" fill="none" stroke="#3b82f6" stroke-width="1.3" stroke-linejoin="round"/>
  <polyline points="328.3,376.0 328.7,355.1 329.0,295.8 329.4,231.8 329.8,221.0" fill="none" stroke="#3b82f6" stroke-width="1.3" stroke-linejoin="round"/>
  <polyline points="329.8,221.0 330.2,252.5 330.6,308.3 330.9,376.0" fill="none" stroke="#3b82f6" stroke-width="1.3" stroke-linejoin="round"/>
  <polyline points="331.3,376.0 331.7,330.1 332.0,282.5 332.4,221.0" fill="none" stroke="#3b82f6" stroke-width="1.3" stroke-linejoin="round"/>
  <polyline points="332.8,221.0 333.1,271.2 333.5,319.5 333.8,376.0" fill="none" stroke="#3b82f6" stroke-width="1.3" stroke-linejoin="round"/>
  <polyline points="334.2,376.0 334.5,315.5 334.8,265.7 335.2,221.0" fill="none" stroke="#3b82f6" stroke-width="1.3" stroke-linejoin="round"/>
  <polyline points="335.2,221.0 335.5,224.2 335.9,287.0 336.2,336.9 336.5,376.0" fill="none" stroke="#3b82f6" stroke-width="1.3" stroke-linejoin="round"/>
  <polyline points="336.5,376.0 336.8,372.9 337.2,305.0 337.5,247.7 337.8,221.0" fill="none" stroke="#3b82f6" stroke-width="1.3" stroke-linejoin="round"/>
  <polyline points="337.8,221.0 338.1,238.5 338.5,299.2 338.8,360.9 339.1,376.0" fill="none" stroke="#3b82f6" stroke-width="1.3" stroke-linejoin="round"/>
  <polyline points="339.1,376.0 339.4,350.0 339.7,294.0 340.0,232.5 340.3,221.0" fill="none" stroke="#3b82f6" stroke-width="1.3" stroke-linejoin="round"/>
  <polyline points="340.3,221.0 340.6,256.0 340.9,309.7 341.2,376.0" fill="none" stroke="#3b82f6" stroke-width="1.3" stroke-linejoin="round"/>
  <polyline points="341.5,376.0 341.8,328.2 342.1,280.5 342.4,222.1 342.7,221.0" fill="none" stroke="#3b82f6" stroke-width="1.3" stroke-linejoin="round"/>
  <polyline points="342.7,221.0 343.0,273.5 343.3,321.6 343.5,376.0" fill="none" stroke="#3b82f6" stroke-width="1.3" stroke-linejoin="round"/>
  <polyline points="343.8,376.0 344.1,314.4 344.4,264.3 344.7,221.0" fill="none" stroke="#3b82f6" stroke-width="1.3" stroke-linejoin="round"/>
  <polyline points="344.7,221.0 344.9,228.7 345.2,288.3 345.5,339.0 345.8,376.0" fill="none" stroke="#3b82f6" stroke-width="1.3" stroke-linejoin="round"/>
  <polyline points="345.8,376.0 346.0,366.8 346.3,303.6 346.6,247.8 346.8,221.0" fill="none" stroke="#3b82f6" stroke-width="1.3" stroke-linejoin="round"/>
  <polyline points="346.8,221.0 347.1,242.7 347.4,300.2 347.6,359.9 347.9,376.0" fill="none" stroke="#3b82f6" stroke-width="1.3" stroke-linejoin="round"/>
  <polyline points="347.9,376.0 348.1,345.8 348.4,292.4 348.7,234.1 348.9,221.0" fill="none" stroke="#3b82f6" stroke-width="1.3" stroke-linejoin="round"/>
  <polyline points="348.9,221.0 349.2,259.3 349.4,310.9 349.7,372.3 349.9,376.0" fill="none" stroke="#3b82f6" stroke-width="1.3" stroke-linejoin="round"/>
  <polyline points="349.9,376.0 350.2,326.6 350.4,279.0 350.6,224.9 350.9,223.3 351.1,275.5 351.4,323.2 351.6,375.1 351.8,372.6 352.1,313.3 352.3,263.8 352.6,221.0" fill="none" stroke="#3b82f6" stroke-width="1.3" stroke-linejoin="round"/>
  <polyline points="352.6,221.0 352.8,233.3 353.0,289.4 353.3,339.9 353.5,374.5 353.7,360.9 353.9,302.5 354.2,248.8 354.4,221.0" fill="none" stroke="#3b82f6" stroke-width="1.3" stroke-linejoin="round"/>
  <polyline points="354.4,221.0 354.6,246.8 354.8,300.9 355.1,357.5 355.3,373.6 355.5,342.2 355.7,291.1 355.9,236.6 356.2,221.9 356.4,262.2 356.6,311.8 356.8,367.9 357.0,372.1 357.2,325.2 357.4,278.2 357.7,228.5 357.9,228.1 358.1,277.1 358.3,324.2 358.5,370.9 358.7,367.1 358.9,312.5 359.1,264.1 359.3,224.4 359.5,237.8 359.7,290.1 359.9,339.5 360.1,370.7 360.3,355.5 360.5,301.6 360.7,250.7 360.9,223.9 361.1,250.5 361.3,301.4 361.5,354.2 361.7,369.6 361.9,339.2 362.1,290.4 362.3,239.9 362.5,226.8 362.6,264.6 362.8,312.3 363.0,363.1 363.2,367.4 363.4,324.0 363.6,278.1 363.8,232.8 363.9,233.0 364.1,278.3 364.3,324.3 364.5,366.2 364.7,361.7 364.9,311.9 365.0,265.3 365.2,229.2 365.4,242.3 365.6,290.6 365.8,337.8 365.9,366.3 366.1,350.8 366.3,301.1 366.5,253.4 366.6,229.1 366.8,253.9 367.0,301.5 367.1,350.2 367.3,365.2 367.5,336.6 367.7,290.3 367.8,243.9 368.0,232.0 368.2,266.7 368.3,312.1 368.5,357.9 368.7,362.3 368.8,323.1 369.0,278.9 369.2,237.6 369.3,237.9 369.5,279.2 369.7,323.3 369.8,361.1 370.0,356.4 370.1,311.6 370.3,267.4 370.5,234.6 370.6,246.4 370.8,290.6 370.9,335.1 371.1,361.5 371.3,346.7 371.4,301.2 371.6,256.9 371.7,234.5 371.9,256.9 372.0,301.0 372.2,345.5 372.4,360.3 372.5,334.5 372.7,290.9 372.8,248.6 373.0,237.3 373.1,268.3 373.3,311.1 373.4,352.4 373.6,357.3 373.7,322.5 373.9,280.5 374.0,243.0 374.2,242.6 374.3,279.5 374.5,321.3 374.6,355.7 374.8,351.6 374.9,311.8 375.0,270.3 375.2,240.2 375.3,250.2 375.5,290.1 375.6,331.5 375.8,356.4 375.9,343.1 376.1,301.9 376.2,261.1 376.3,240.1 376.5,259.4 376.6,299.9 376.8,340.4 376.9,355.2 377.0,332.8 377.2,292.3 377.3,253.8 377.5,242.5 377.6,269.4 377.7,309.3 377.9,346.6 378.0,352.3 378.1,322.3 378.3,282.9 378.4,248.7 378.5,247.1 378.7,279.4 378.8,318.4 378.9,350.0 379.1,347.3 379.2,312.5 379.3,273.9 379.5,246.0 379.6,253.5 379.7,289.0 379.9,327.3 380.0,351.0 380.1,340.2 380.3,303.3 380.4,265.9 380.5,245.7 380.7,261.4 380.8,298.0 380.9,334.9 381.0,350.2 381.2,331.6 381.3,294.6 381.4,259.3 381.6,247.5 381.7,270.0 381.8,306.6 381.9,340.6 382.1,347.7 382.2,322.6 382.3,286.2 382.4,254.6 382.6,251.1 382.7,278.7 382.8,314.7 382.9,344.1 383.0,343.6 383.2,313.8 383.3,278.3 383.4,251.9 383.5,256.3 383.7,287.3 383.8,322.4 383.9,345.5 384.0,337.9 384.1,305.5 384.3,271.1 384.4,251.1 384.5,262.8 384.6,295.4 384.7,329.1 384.9,345.3 385.0,330.9 385.1,297.6 385.2,265.2 385.3,252.1 385.4,269.9 385.6,303.1 385.7,334.5 385.8,343.6 385.9,323.4 386.0,290.2 386.1,260.7 386.2,254.7 386.4,277.4 386.5,310.4 386.6,338.1 386.7,340.5 386.8,315.8 386.9,283.1 387.0,257.7 387.2,258.6 387.3,284.9 387.4,317.1 387.5,340.1 387.6,336.2 387.7,308.4 387.8,276.7 387.9,256.3 388.0,263.6 388.2,292.0 388.3,323.2 388.4,340.6 388.5,330.8 388.6,301.4 388.7,271.2 388.8,256.4 388.9,269.3 389.0,298.9 389.1,328.3 389.2,339.9 389.4,324.7 389.5,294.8 389.6,266.7 389.7,257.8 389.8,275.4 389.9,305.4 390.0,332.2 390.1,338.0 390.2,318.4 390.3,288.4 390.4,263.4 390.5,260.3 390.6,281.7 390.7,311.5 390.8,334.9 390.9,335.1 391.0,312.1 391.1,282.6 391.2,261.2 391.3,263.8 391.4,288.0 391.6,317.2 391.7,336.4 391.8,331.3 391.9,305.9 392.0,277.2" fill="none" stroke="#3b82f6" stroke-width="1.3" stroke-linejoin="round"/>
  </g>
  <g clip-path="url(#clip4)">
  <polyline points="442.0,233.9 442.7,298.5 443.4,298.5 444.1,298.5 444.8,298.5 445.5,298.5 446.2,298.5 446.9,298.5 447.6,298.5 448.3,298.5 449.0,298.5 449.7,298.5 450.4,298.5 451.1,298.5 451.8,298.5 452.5,298.5 453.2,298.5 453.9,298.5 454.6,298.5 455.3,298.5 456.0,298.5 456.7,298.5 457.4,298.5 458.1,298.5 458.8,298.5 459.5,298.5 460.2,298.5 460.9,298.5 461.6,298.5 462.3,298.5 463.0,298.5 463.7,298.5 464.4,298.5 465.1,298.5 465.8,298.5 466.5,298.5 467.2,298.5 467.9,298.5 468.6,298.5 469.3,298.5 470.0,298.5 470.7,298.5 471.4,298.5 472.1,298.5 472.8,298.5 473.5,298.5 474.2,298.5 474.9,298.5 475.6,298.5 476.3,298.5 477.0,298.5 477.7,298.5 478.4,298.5 479.1,298.5 479.8,298.5 480.5,298.5 481.2,298.5 481.9,298.5 482.6,298.5 483.3,298.5 484.0,298.5 484.7,298.5 485.4,298.5 486.1,298.5 486.8,298.5 487.4,298.5 488.1,298.5 488.8,298.5 489.5,298.5 490.2,298.5 490.9,298.5 491.6,298.5 492.3,298.5 493.0,298.5 493.7,298.5 494.4,298.5 495.1,298.5 495.8,298.5 496.5,298.5 497.2,298.5 497.9,298.5 498.6,298.5 499.3,298.5 500.0,298.5 500.7,298.5 501.4,298.5 502.1,298.5 502.8,298.5 503.5,298.5 504.2,298.5 504.9,298.5 505.6,298.5 506.3,298.5 507.0,298.5 507.7,298.5 508.4,298.5 509.1,298.5 509.8,298.5 510.5,298.5 511.2,298.5 511.9,298.5 512.6,298.5 513.3,298.5 514.0,298.5 514.7,298.5 515.4,298.5 516.1,298.5 516.8,298.5 517.5,298.5 518.2,298.5 518.9,298.5 519.6,298.5 520.3,298.5 521.0,298.5 521.7,298.5 522.4,298.5 523.1,298.5 523.8,298.5 524.5,298.5 525.2,298.5 525.9,298.5 526.6,298.5 527.3,298.5 528.0,298.5 528.7,298.5 529.4,298.5 530.1,298.5 530.8,298.5 531.5,298.5 532.2,298.5 532.9,298.5 533.6,298.5 534.3,253.3 535.0,279.1 535.7,298.5 536.4,298.5 537.1,298.5 537.8,298.5 538.5,298.5 539.2,298.5 539.9,298.5 540.6,298.5 541.3,298.5 542.0,298.5 542.7,298.5 543.4,298.5 544.1,298.5 544.8,298.5 545.5,298.5 546.2,298.5 546.9,298.5 547.6,298.5 548.3,298.5 549.0,298.5 549.7,298.5 550.4,298.5 551.1,298.5 551.8,298.5 552.5,298.5 553.2,298.5 553.9,298.5 554.6,298.5 555.3,298.5 556.0,298.5 556.7,298.5 557.4,298.5 558.1,298.5 558.8,298.5 559.5,298.5 560.2,298.5 560.9,298.5 561.6,298.5 562.3,298.5 563.0,298.5 563.7,298.5 564.4,298.5 565.1,298.5 565.8,298.5 566.5,298.5 567.2,298.5 567.9,298.5 568.6,298.5 569.3,298.5 570.0,298.5 570.7,298.5 571.4,298.5 572.1,298.5 572.8,298.5 573.5,298.5 574.2,298.5 574.9,298.5 575.6,298.5 576.3,298.5 576.9,298.5 577.6,298.5 578.3,298.5 579.0,298.5 579.7,298.5 580.4,298.5 581.1,298.5 581.8,298.5 582.5,298.5 583.2,298.5 583.9,298.5 584.6,298.5 585.3,298.5 586.0,298.5 586.7,298.5 587.4,298.5 588.1,298.5 588.8,298.5 589.5,298.5 590.2,298.5 590.9,298.5 591.6,298.5 592.3,298.5 593.0,298.5 593.7,298.5 594.4,298.5 595.1,298.5 595.8,298.5 596.5,298.5 597.2,298.5 597.9,298.5 598.6,298.5 599.3,298.5 600.0,298.5 600.7,298.5 601.4,298.5 602.1,298.5 602.8,298.5 603.5,298.5 604.2,298.5 604.9,298.5 605.6,298.5 606.3,298.5 607.0,298.5 607.7,298.5 608.4,298.5 609.1,298.5 609.8,298.5 610.5,298.5 611.2,298.5 611.9,298.5 612.6,298.5 613.3,298.5 614.0,298.5 614.7,298.5 615.4,298.5 616.1,298.5 616.8,298.5 617.5,298.5 618.2,298.5 618.9,298.5 619.6,298.5 620.3,298.5 621.0,298.5 621.7,298.5 622.4,298.5 623.1,298.5 623.8,298.5 624.5,298.5 625.2,298.5 625.9,298.5 626.6,282.7 627.3,284.9 628.0,295.6 628.7,298.5 629.4,298.5 630.1,298.5 630.8,298.5 631.5,298.5 632.2,298.5 632.9,298.5 633.6,298.5 634.3,298.5 635.0,298.5 635.7,298.5 636.4,298.5 637.1,298.5 637.8,298.5 638.5,298.5 639.2,298.5 639.9,298.5 640.6,298.5 641.3,298.5 642.0,298.5 642.7,298.5 643.4,298.5 644.1,298.5 644.8,298.5 645.5,298.5 646.2,298.5 646.9,298.5 647.6,298.5 648.3,298.5 649.0,298.5 649.7,298.5 650.4,298.5 651.1,298.5 651.8,298.5 652.5,298.5 653.2,298.5 653.9,298.5 654.6,298.5 655.3,298.5 656.0,298.5 656.7,298.5 657.4,298.5 658.1,298.5 658.8,298.5 659.5,298.5 660.2,298.5 660.9,298.5 661.6,298.5 662.3,298.5 663.0,298.5 663.7,298.5 664.4,298.5 665.1,298.5 665.8,298.5 666.4,298.5 667.1,298.5 667.8,298.5 668.5,298.5 669.2,298.5 669.9,298.5 670.6,298.5 671.3,298.5 672.0,298.5 672.7,298.5 673.4,298.5 674.1,298.5 674.8,298.5 675.5,298.5 676.2,298.5 676.9,298.5 677.6,298.5 678.3,298.5 679.0,298.5 679.7,298.5 680.4,298.5 681.1,298.5 681.8,298.5 682.5,298.5 683.2,298.5 683.9,298.5 684.6,298.5 685.3,298.5 686.0,298.5 686.7,298.5 687.4,298.5 688.1,298.5 688.8,298.5 689.5,298.5 690.2,298.5 690.9,298.5 691.6,298.5 692.3,298.5 693.0,298.5 693.7,298.5 694.4,298.5 695.1,298.5 695.8,298.5 696.5,298.5 697.2,298.5 697.9,298.5 698.6,298.5 699.3,298.5 700.0,298.5 700.7,298.5 701.4,298.5 702.1,298.5 702.8,298.5 703.5,298.5 704.2,298.5 704.9,298.5 705.6,298.5 706.3,298.5 707.0,298.5 707.7,298.5 708.4,298.5 709.1,298.5 709.8,298.5 710.5,298.5 711.2,298.5 711.9,298.5 712.6,298.5 713.3,298.5 714.0,298.5 714.7,298.5 715.4,298.5 716.1,298.5 716.8,298.5 717.5,298.5 718.2,298.5 718.9,293.0 719.6,291.4 720.3,295.4 721.0,298.1 721.7,298.5 722.4,298.5 723.1,298.5 723.8,298.5 724.5,298.5 725.2,298.5 725.9,298.5 726.6,298.5 727.3,298.5 728.0,298.5 728.7,298.5 729.4,298.5 730.1,298.5 730.8,298.5 731.5,298.5 732.2,298.5 732.9,298.5 733.6,298.5 734.3,298.5 735.0,298.5 735.7,298.5 736.4,298.5 737.1,298.5 737.8,298.5 738.5,298.5 739.2,298.5 739.9,298.5 740.6,298.5 741.3,298.5 742.0,298.5 742.7,298.5 743.4,298.5 744.1,298.5 744.8,298.5 745.5,298.5 746.2,298.5 746.9,298.5 747.6,298.5 748.3,298.5 749.0,298.5 749.7,298.5 750.4,298.5 751.1,298.5 751.8,298.5 752.5,298.5 753.2,298.5 753.9,298.5 754.6,298.5 755.3,298.5 755.9,298.5 756.6,298.5 757.3,298.5 758.0,298.5 758.7,298.5 759.4,298.5 760.1,298.5 760.8,298.5 761.5,298.5 762.2,298.5 762.9,298.5 763.6,298.5 764.3,298.5 765.0,298.5 765.7,298.5 766.4,298.5 767.1,298.5 767.8,298.5 768.5,298.5 769.2,298.5 769.9,298.5 770.6,298.5 771.3,298.5 772.0,298.5 772.7,298.5 773.4,298.5 774.1,298.5 774.8,298.5 775.5,298.5 776.2,298.5 776.9,298.5 777.6,298.5 778.3,298.5 779.0,298.5 779.7,298.5 780.4,298.5 781.1,298.5 781.8,298.5 782.5,298.5 783.2,298.5 783.9,298.5 784.6,298.5 785.3,298.5 786.0,298.5 786.7,298.5 787.4,298.5 788.1,298.5 788.8,298.5 789.5,298.5 790.2,298.5 790.9,298.5 791.6,298.5 792.3,298.5 793.0,298.5 793.7,298.5 794.4,298.5 795.1,298.5 795.8,298.5 796.5,298.5 797.2,298.5 797.9,298.5 798.6,298.5 799.3,298.5" fill="none" stroke="#3b82f6" stroke-width="1.2" stroke-linejoin="round"/>
  </g>
  <g clip-path="url(#clip1)">
  <polyline points="102.8,37.5 135.4,49.1 154.5,54.3 168.1,64.7 178.6,53.0 187.2,45.9 194.4,35.6 200.7,33.7 206.3,40.0 211.2,51.3 215.7,56.8 219.8,60.1 223.6,52.3 227.1,42.6 230.3,34.3 233.4,34.5 236.2,43.1 238.9,52.4 241.5,60.8 243.9,56.3 246.2,51.1 248.4,39.6 250.5,33.6 252.5,35.9 254.4,46.5 256.2,53.2 258.0,65.1 259.7,54.1 261.4,48.7 263.0,37.2 264.5,33.4 266.0,37.9 267.5,49.5 268.9,54.6 270.2,64.0 271.6,52.9 272.8,45.4 274.1,35.5 275.3,33.8 276.5,40.5 277.7,51.5 278.8,57.3 279.9,59.4 281.0,52.1 282.1,42.1 283.1,34.3 284.1,34.8 285.1,43.6 286.1,52.5 287.0,61.4 288.0,55.9 288.9,50.7 289.8,39.3 290.7,33.7 291.5,36.3 292.4,46.9 293.2,53.3 294.0,65.0 294.8,53.8 295.6,48.2 296.4,37.0 297.2,33.6 297.9,38.4 298.7,49.8 299.4,54.9 300.1,63.0 300.8,52.7 301.5,44.9 302.2,35.4 302.9,34.1 303.5,41.0 304.2,51.6 304.9,57.8 305.5,58.7 306.1,51.9 306.7,41.8 307.4,34.3 308.0,35.1 308.6,44.1 309.2,52.5 309.8,61.8 310.3,55.5 310.9,50.3 311.5,39.1 312.0,33.8 312.6,36.7 313.1,47.4 313.7,53.5 314.2,64.5 314.7,53.6 315.2,47.6 315.7,37.0 316.3,33.9 316.8,38.9 317.3,50.0 317.8,55.3 318.2,62.0 318.7,52.6 319.2,44.5 319.7,35.5 320.1,34.5 320.6,41.6 321.1,51.6 321.5,58.2 322.0,58.0 322.4,51.6 322.9,41.5 323.3,34.5 323.7,35.6 324.2,44.6 324.6,52.6 325.0,61.9 325.4,55.1 325.8,49.8 326.3,39.0 326.7,34.1 327.1,37.3 327.5,47.7 327.9,53.7 328.3,63.6 328.7,53.4 329.0,47.2 329.4,37.0 329.8,34.3 330.2,39.5 330.6,50.1 330.9,55.5 331.3,60.9 331.7,52.3 332.0,44.1 332.4,35.6 332.8,34.9 333.1,42.1 333.5,51.6 333.8,58.4 334.2,57.4 334.5,51.2 334.8,41.3 335.2,34.8 335.5,36.1 335.9,45.1 336.2,52.6 336.5,61.6 336.8,54.8 337.2,49.3 337.5,39.0 337.8,34.5 338.1,37.8 338.5,47.9 338.8,53.8 339.1,62.5 339.4,53.2 339.7,46.7 340.0,37.2 340.3,34.8 340.6,40.0 340.9,50.1 341.2,55.7 341.5,59.9 341.8,52.1 342.1,43.9 342.4,35.9 342.7,35.5 343.0,42.6 343.3,51.5 343.5,58.4 343.8,56.8 344.1,50.8 344.4,41.2 344.7,35.2 344.9,36.7 345.2,45.4 345.5,52.6 345.8,61.0 346.0,54.5 346.3,48.9 346.6,39.1 346.8,35.0 347.1,38.4 347.4,48.0 347.6,53.9 347.9,61.3 348.1,53.0 348.4,46.4 348.7,37.4 348.9,35.3 349.2,40.6 349.4,50.1 349.7,55.8 349.9,59.0 350.2,51.8 350.4,43.7 350.6,36.3 350.9,36.1 351.1,43.1 351.4,51.5 351.6,58.2 351.8,56.3 352.1,50.4 352.3,41.3 352.6,35.7 352.8,37.4 353.0,45.7 353.3,52.6 353.5,60.2 353.7,54.2 353.9,48.5 354.2,39.3 354.4,35.6 354.6,39.0 354.8,48.1 355.1,53.9 355.3,60.1 355.5,52.7 355.7,46.1 355.9,37.8 356.2,36.0 356.4,41.1 356.6,50.0 356.8,55.7 357.0,58.1 357.2,51.5 357.4,43.7 357.7,36.8 357.9,36.8 358.1,43.5 358.3,51.3 358.5,57.8 358.7,55.8 358.9,50.0 359.1,41.5 359.3,36.3 359.5,38.0 359.7,45.9 359.9,52.5 360.1,59.2 360.3,53.9 360.5,48.1 360.7,39.7 360.9,36.3 361.1,39.6 361.3,48.0 361.5,53.8 361.7,59.0 361.9,52.5 362.1,46.0 362.3,38.3 362.5,36.6 362.6,41.6 362.8,49.8 363.0,55.5 363.2,57.3 363.4,51.2 363.6,43.7 363.8,37.4 363.9,37.4 364.1,43.8 364.3,51.1 364.5,57.1 364.7,55.3 364.9,49.7 365.0,41.8 365.2,37.0 365.4,38.6 365.6,45.9 365.8,52.3 365.9,58.2 366.1,53.6 366.3,47.9 366.5,40.1 366.6,37.0 366.8,40.2 367.0,47.9 367.1,53.6 367.3,57.9 367.5,52.2 367.7,45.9 367.8,38.9 368.0,37.4 368.2,42.0 368.3,49.5 368.5,55.0 368.7,56.5 368.8,50.9 369.0,43.9 369.2,38.1 369.3,38.1 369.5,44.0 369.7,50.8 369.8,56.4 370.0,54.9 370.1,49.5 370.3,42.2 370.5,37.7 370.6,39.3 370.8,45.9 370.9,52.0 371.1,57.1 371.3,53.3 371.4,47.8 371.6,40.7 371.7,37.7 371.9,40.7 372.0,47.7 372.2,53.2 372.4,56.9 372.5,52.0 372.7,46.0 372.8,39.6 373.0,38.1 373.1,42.3 373.3,49.2 373.4,54.4 373.6,55.8 373.7,50.7 373.9,44.3 374.0,38.9 374.2,38.8 374.3,44.1 374.5,50.5 374.6,55.5 374.8,54.4 374.9,49.3 375.0,42.7 375.2,38.5 375.3,39.8 375.5,45.8 375.6,51.6 375.8,56.0 375.9,53.1 376.1,47.8 376.2,41.4 376.3,38.5 376.5,41.1 376.6,47.4 376.8,52.7 376.9,55.9 377.0,51.8 377.2,46.2 377.3,40.4 377.5,38.8 377.6,42.5 377.7,48.8 377.9,53.7 378.0,55.1 378.1,50.6 378.3,44.7 378.4,39.7 378.5,39.5 378.7,44.1 378.8,50.0 378.9,54.6 379.1,54.0 379.2,49.3 379.3,43.3 379.5,39.3 379.6,40.3 379.7,45.6 379.9,51.1 380.0,55.0 380.1,52.8 380.3,47.9 380.4,42.1 380.5,39.3 380.7,41.4 380.8,47.1 380.9,52.1 381.0,55.0 381.2,51.7 381.3,46.6 381.4,41.2 381.6,39.5 381.7,42.7 381.8,48.3 381.9,52.9 382.1,54.4 382.2,50.5 382.3,45.2 382.4,40.5 382.6,40.0 382.7,44.0 382.8,49.5 382.9,53.7 383.0,53.6 383.2,49.4 383.3,44.0 383.4,40.2 383.5,40.8 383.7,45.3 383.8,50.5 383.9,54.1 384.0,52.6 384.1,48.2 384.3,42.9 384.4,40.1 384.5,41.7 384.6,46.6 384.7,51.3 384.9,54.1 385.0,51.6 385.1,47.0 385.2,42.0 385.3,40.2 385.4,42.7 385.6,47.8 385.7,52.1 385.8,53.8 385.9,50.6 386.0,45.8 386.1,41.4 386.2,40.6 386.4,43.8 386.5,48.8 386.6,52.7 386.7,53.2 386.8,49.6 386.9,44.7 387.0,41.0 387.2,41.1 387.3,45.0 387.4,49.7 387.5,53.2 387.6,52.5 387.7,48.6 387.8,43.8 387.9,40.8 388.0,41.8 388.2,46.1 388.3,50.6 388.4,53.3 388.5,51.6 388.6,47.5 388.7,42.9 388.8,40.8 388.9,42.6 389.0,47.1 389.1,51.3 389.2,53.2 389.4,50.8 389.5,46.5 389.6,42.3 389.7,41.0 389.8,43.5 389.9,48.1 390.0,51.9 390.1,52.9 390.2,49.9 390.3,45.5 390.4,41.8 390.5,41.4 390.6,44.5 390.7,48.9 390.8,52.3 390.9,52.4 391.0,49.0 391.1,44.6 391.2,41.5 391.3,41.9 391.4,45.4 391.6,49.7 391.7,52.6 391.8,51.8 391.9,48.2 392.0,43.8" fill="none" stroke="#ef4444" stroke-width="1.3" stroke-linejoin="round"/>
  </g>
  <g clip-path="url(#clip2)">
  <polyline points="510.8,112.1 543.4,117.2 562.5,110.5 576.1,86.2 586.6,76.5 595.2,68.4 602.4,79.2 608.7,98.7 614.3,115.7 619.2,114.1 623.7,110.4 627.8,78.3 631.6,75.2 635.1,69.2 638.3,84.0 641.4,103.7 644.2,118.0 646.9,111.5 649.5,108.0 651.9,76.5 654.2,72.4 656.4,71.8 658.5,89.1 660.5,108.5 662.4,118.5 664.2,110.4 666.0,98.7 667.7,76.6 669.4,69.5 671.0,75.5 672.5,94.3 674.0,112.7 675.5,116.7 676.9,110.4 678.2,84.5 679.6,76.4 680.8,68.5 682.1,80.0 683.3,99.4 684.5,116.0 685.7,113.6 686.8,110.1 687.9,78.0 689.0,74.9 690.1,69.7 691.1,84.9 692.1,104.4 693.1,118.0 694.1,111.2 695.0,106.9 696.0,76.7 696.9,72.0 697.8,72.5 698.7,89.9 699.5,109.0 700.4,118.1 701.2,110.3 702.0,96.3 702.8,76.8 703.6,69.5 704.4,76.4 705.2,95.1 705.9,113.0 706.7,116.0 707.4,110.2 708.1,83.4 708.8,76.4 709.5,68.9 710.2,80.9 710.9,100.1 711.5,116.1 712.2,113.0 712.9,109.5 713.5,78.1 714.1,74.7 714.7,70.4 715.4,85.7 716.0,104.9 716.6,117.7 717.2,110.8 717.8,105.2 718.3,77.0 718.9,71.9 719.5,73.4 720.0,90.7 720.6,109.4 721.1,117.4 721.7,110.1 722.2,94.2 722.7,77.0 723.2,69.8 723.7,77.3 724.3,95.8 724.8,113.1 725.3,115.2 725.8,109.8 726.2,82.9 726.7,76.4 727.2,69.6 727.7,81.8 728.1,100.7 728.6,115.9 729.1,112.4 729.5,108.5 730.0,78.4 730.4,74.5 730.9,71.3 731.3,86.6 731.7,105.3 732.2,117.2 732.6,110.5 733.0,103.3 733.4,77.4 733.8,72.0 734.3,74.4 734.7,91.5 735.1,109.5 735.5,116.6 735.9,109.7 736.3,92.4 736.7,77.2 737.0,70.3 737.4,78.3 737.8,96.4 738.2,113.0 738.6,114.4 738.9,109.2 739.3,82.8 739.7,76.4 740.0,70.5 740.4,82.7 740.8,101.1 741.1,115.4 741.5,111.8 741.8,107.2 742.2,79.0 742.5,74.6 742.8,72.4 743.2,87.4 743.5,105.6 743.9,116.4 744.2,110.1 744.5,101.4 744.8,78.0 745.2,72.3 745.5,75.4 745.8,92.1 746.1,109.5 746.5,115.6 746.8,109.2 747.1,91.2 747.4,77.5 747.7,71.1 748.0,79.3 748.3,96.9 748.6,112.7 748.9,113.5 749.2,108.3 749.5,83.1 749.8,76.6 750.1,71.5 750.4,83.6 750.7,101.4 751.0,114.7 751.3,111.1 751.5,105.7 751.8,79.7 752.1,74.8 752.4,73.5 752.7,88.1 752.9,105.6 753.2,115.4 753.5,109.6 753.8,99.6 754.0,78.6 754.3,72.9 754.6,76.6 754.8,92.7 755.1,109.2 755.4,114.5 755.6,108.6 755.9,90.5 756.1,77.9 756.4,72.1 756.7,80.3 756.9,97.2 757.2,112.1 757.4,112.5 757.7,107.2 757.9,83.7 758.2,76.8 758.4,72.7 758.6,84.5 758.9,101.5 759.1,113.8 759.4,110.5 759.6,104.2 759.8,80.5 760.1,75.2 760.3,74.7 760.6,88.8 760.8,105.4 761.0,114.3 761.3,109.0 761.5,98.1 761.7,79.3 761.9,73.7 762.2,77.7 762.4,93.1 762.6,108.7 762.8,113.4 763.1,107.8 763.3,90.3 763.5,78.4 763.7,73.2 763.9,81.3 764.2,97.4 764.4,111.2 764.6,111.6 764.8,106.0 765.0,84.5 765.2,77.3 765.4,74.0 765.7,85.2 765.9,101.4 766.1,112.7 766.3,109.7 766.5,102.7 766.7,81.5 766.9,75.9 767.1,76.0 767.3,89.3 767.5,105.0 767.7,113.0 767.9,108.2 768.1,97.0 768.3,80.0 768.5,74.7 768.7,78.8 768.9,93.4 769.1,108.0 769.3,112.2 769.5,106.8 769.7,90.4 769.9,79.0 770.1,74.5 770.3,82.2 770.5,97.4 770.6,110.2 770.8,110.6 771.0,104.8 771.2,85.4 771.4,77.9 771.6,75.4 771.8,85.9 771.9,101.1 772.1,111.5 772.3,108.9 772.5,101.4 772.7,82.5 772.9,76.7 773.0,77.3 773.2,89.7 773.4,104.3 773.6,111.7 773.8,107.4 773.9,96.3 774.1,80.9 774.3,75.9 774.5,79.9 774.6,93.5 774.8,107.0 775.0,110.9 775.1,105.9 775.3,90.7 775.5,79.8 775.7,75.8 775.8,83.0 776.0,97.2 776.2,109.0 776.3,109.6 776.5,103.7 776.7,86.4 776.8,78.8 777.0,76.8 777.2,86.4 777.3,100.5 777.5,110.1 777.7,108.1 777.8,100.4 778.0,83.6 778.1,77.8 778.3,78.5 778.5,89.9 778.6,103.5 778.8,110.3 778.9,106.6 779.1,96.0 779.3,82.0 779.4,77.2 779.6,80.9 779.7,93.4 779.9,105.9 780.0,109.7 780.2,104.9 780.4,91.3 780.5,80.8 780.7,77.2 780.8,83.7 781.0,96.7 781.1,107.7 781.3,108.5 781.4,102.7 781.6,87.5 781.7,79.8 781.9,78.1 782.0,86.8 782.2,99.8 782.3,108.7 782.5,107.2 782.6,99.7 782.8,84.8 782.9,79.0 783.0,79.7 783.2,90.0 783.3,102.4 783.5,108.9 783.6,105.7 783.8,96.0 783.9,83.1 784.1,78.5 784.2,81.8 784.3,93.1 784.5,104.6 784.6,108.4 784.8,104.1 784.9,92.0 785.0,81.9 785.2,78.6 785.3,84.3 785.5,96.1 785.6,106.2 785.7,107.5 785.9,102.0 786.0,88.7 786.1,81.0 786.3,79.4 786.4,87.0 786.5,98.8 786.7,107.1 786.8,106.3 786.9,99.3 787.1,86.2 787.2,80.3 787.3,80.7 787.5,89.9 787.6,101.2 787.7,107.4 787.9,104.9 788.0,96.2 788.1,84.4 788.3,79.9 788.4,82.6 788.5,92.6 788.7,103.2 788.8,107.1 788.9,103.4 789.0,92.9 789.2,83.2 789.3,80.0 789.4,84.7 789.6,95.3 789.7,104.7 789.8,106.4 789.9,101.5 790.1,90.0 790.2,82.3 790.3,80.6 790.4,87.1 790.6,97.7 790.7,105.6 790.8,105.4 790.9,99.2 791.0,87.6 791.2,81.6 791.3,81.7 791.4,89.5 791.5,99.9 791.7,106.0 791.8,104.3 791.9,96.6 792.0,85.9 792.1,81.3 792.3,83.2 792.4,91.9 792.5,101.7 792.6,105.9 792.7,102.9 792.9,93.9 793.0,84.6 793.1,81.3 793.2,84.9 793.3,94.3 793.4,103.1 793.6,105.4 793.7,101.3 793.8,91.4 793.9,83.7 794.0,81.7 794.1,86.9 794.2,96.4 794.4,104.0 794.5,104.7 794.6,99.4 794.7,89.2 794.8,83.0 794.9,82.5 795.0,89.0 795.2,98.4 795.3,104.6 795.4,103.7 795.5,97.3 795.6,87.5 795.7,82.6 795.8,83.6 795.9,91.1 796.0,100.1 796.2,104.7 796.3,102.6 796.4,95.1 796.5,86.1 796.6,82.4 796.7,85.0 796.8,93.1 796.9,101.4 797.0,104.5 797.1,101.3 797.2,92.9 797.4,85.1 797.5,82.6 797.6,86.6 797.7,95.0 797.8,102.5 797.9,104.0 798.0,99.8 798.1,90.9 798.2,84.3 798.3,83.1 798.4,88.3 798.5,96.8 798.6,103.2 798.7,103.4 798.8,98.1 798.9,89.1 799.0,83.8 799.1,83.8 799.2,90.0 799.3,98.4 799.4,103.6 799.6,102.5 799.7,96.3 799.8,87.7 799.9,83.5 800.0,84.8" fill="none" stroke="#ef4444" stroke-width="1.3" stroke-linejoin="round"/>
  </g>
  <g clip-path="url(#clip3)">
  <polyline points="102.8,237.9 135.4,302.8 154.5,376.0" fill="none" stroke="#ef4444" stroke-width="1.3" stroke-linejoin="round"/>
  <polyline points="168.1,376.0 178.6,344.1 187.2,291.6 194.4,221.0" fill="none" stroke="#ef4444" stroke-width="1.3" stroke-linejoin="round"/>
  <polyline points="200.7,221.0 206.3,258.9 211.2,312.0 215.7,376.0" fill="none" stroke="#ef4444" stroke-width="1.3" stroke-linejoin="round"/>
  <polyline points="219.8,376.0 223.6,321.6 227.1,275.9 230.3,221.0" fill="none" stroke="#ef4444" stroke-width="1.3" stroke-linejoin="round"/>
  <polyline points="233.4,221.0 236.2,278.6 238.9,324.1 241.5,376.0" fill="none" stroke="#ef4444" stroke-width="1.3" stroke-linejoin="round"/>
  <polyline points="243.9,376.0 246.2,310.5 248.4,255.7 250.5,221.0" fill="none" stroke="#ef4444" stroke-width="1.3" stroke-linejoin="round"/>
  <polyline points="250.5,221.0 252.5,223.4 254.4,293.5 256.2,349.2 258.0,376.0" fill="none" stroke="#ef4444" stroke-width="1.3" stroke-linejoin="round"/>
  <polyline points="258.0,376.0 259.7,373.1 261.4,301.2 263.0,235.1 264.5,221.0" fill="none" stroke="#ef4444" stroke-width="1.3" stroke-linejoin="round"/>
  <polyline points="264.5,221.0 266.0,241.2 267.5,304.2 268.9,376.0" fill="none" stroke="#ef4444" stroke-width="1.3" stroke-linejoin="round"/>
  <polyline points="270.2,376.0 271.6,339.4 272.8,289.4 274.1,221.0" fill="none" stroke="#ef4444" stroke-width="1.3" stroke-linejoin="round"/>
  <polyline points="275.3,221.0 276.5,262.3 277.7,313.6 278.8,376.0" fill="none" stroke="#ef4444" stroke-width="1.3" stroke-linejoin="round"/>
  <polyline points="279.9,376.0 281.0,319.7 282.1,273.0 283.1,221.0" fill="none" stroke="#ef4444" stroke-width="1.3" stroke-linejoin="round"/>
  <polyline points="284.1,221.0 285.1,281.2 286.1,327.1 287.0,376.0" fill="none" stroke="#ef4444" stroke-width="1.3" stroke-linejoin="round"/>
  <polyline points="288.0,376.0 288.9,309.1 289.8,252.7 290.7,221.0" fill="none" stroke="#ef4444" stroke-width="1.3" stroke-linejoin="round"/>
  <polyline points="290.7,221.0 291.5,226.5 292.4,295.2 293.2,354.1 294.0,376.0" fill="none" stroke="#ef4444" stroke-width="1.3" stroke-linejoin="round"/>
  <polyline points="294.0,376.0 294.8,367.1 295.6,299.5 296.4,233.1 297.2,221.0" fill="none" stroke="#ef4444" stroke-width="1.3" stroke-linejoin="round"/>
  <polyline points="297.2,221.0 297.9,244.9 298.7,305.6 299.4,376.0" fill="none" stroke="#ef4444" stroke-width="1.3" stroke-linejoin="round"/>
  <polyline points="300.1,376.0 300.8,335.6 301.5,287.1 302.2,221.0" fill="none" stroke="#ef4444" stroke-width="1.3" stroke-linejoin="round"/>
  <polyline points="302.9,221.0 303.5,265.5 304.2,315.4 304.9,376.0" fill="none" stroke="#ef4444" stroke-width="1.3" stroke-linejoin="round"/>
  <polyline points="305.5,376.0 306.1,318.1 306.7,270.2 307.4,221.0" fill="none" stroke="#ef4444" stroke-width="1.3" stroke-linejoin="round"/>
  <polyline points="308.0,221.0 308.6,283.4 309.2,330.4 309.8,376.0" fill="none" stroke="#ef4444" stroke-width="1.3" stroke-linejoin="round"/>
  <polyline points="310.3,376.0 310.9,307.8 311.5,250.3 312.0,221.0" fill="none" stroke="#ef4444" stroke-width="1.3" stroke-linejoin="round"/>
  <polyline points="312.0,221.0 312.6,230.2 313.1,296.7 313.7,358.0 314.2,376.0" fill="none" stroke="#ef4444" stroke-width="1.3" stroke-linejoin="round"/>
  <polyline points="314.2,376.0 314.7,360.9 315.2,297.7 315.7,232.0 316.3,221.0" fill="none" stroke="#ef4444" stroke-width="1.3" stroke-linejoin="round"/>
  <polyline points="316.3,221.0 316.8,248.7 317.3,307.0 317.8,376.0" fill="none" stroke="#ef4444" stroke-width="1.3" stroke-linejoin="round"/>
  <polyline points="318.2,376.0 318.7,332.5 319.2,284.7 319.7,221.0" fill="none" stroke="#ef4444" stroke-width="1.3" stroke-linejoin="round"/>
  <polyline points="320.1,221.0 320.6,268.5 321.1,317.4 321.5,376.0" fill="none" stroke="#ef4444" stroke-width="1.3" stroke-linejoin="round"/>
  <polyline points="322.0,376.0 322.4,316.7 322.9,267.7 323.3,221.0" fill="none" stroke="#ef4444" stroke-width="1.3" stroke-linejoin="round"/>
  <polyline points="323.7,221.0 324.2,285.3 324.6,333.9 325.0,376.0" fill="none" stroke="#ef4444" stroke-width="1.3" stroke-linejoin="round"/>
  <polyline points="325.4,376.0 325.8,306.4 326.3,248.6 326.7,221.0" fill="none" stroke="#ef4444" stroke-width="1.3" stroke-linejoin="round"/>
  <polyline points="326.7,221.0 327.1,234.3 327.5,298.0 327.9,360.3 328.3,376.0" fill="none" stroke="#ef4444" stroke-width="1.3" stroke-linejoin="round"/>
  <polyline points="328.3,376.0 328.7,355.1 329.0,295.8 329.4,231.8 329.8,221.0" fill="none" stroke="#ef4444" stroke-width="1.3" stroke-linejoin="round"/>
  <polyline points="329.8,221.0 330.2,252.5 330.6,308.3 330.9,376.0" fill="none" stroke="#ef4444" stroke-width="1.3" stroke-linejoin="round"/>
  <polyline points="331.3,376.0 331.7,330.1 332.0,282.5 332.4,221.0" fill="none" stroke="#ef4444" stroke-width="1.3" stroke-linejoin="round"/>
  <polyline points="332.8,221.0 333.1,271.2 333.5,319.5 333.8,376.0" fill="none" stroke="#ef4444" stroke-width="1.3" stroke-linejoin="round"/>
  <polyline points="334.2,376.0 334.5,315.5 334.8,265.7 335.2,221.0" fill="none" stroke="#ef4444" stroke-width="1.3" stroke-linejoin="round"/>
  <polyline points="335.2,221.0 335.5,224.2 335.9,287.0 336.2,336.9 336.5,376.0" fill="none" stroke="#ef4444" stroke-width="1.3" stroke-linejoin="round"/>
  <polyline points="336.5,376.0 336.8,372.9 337.2,305.0 337.5,247.7 337.8,221.0" fill="none" stroke="#ef4444" stroke-width="1.3" stroke-linejoin="round"/>
  <polyline points="337.8,221.0 338.1,238.5 338.5,299.2 338.8,360.9 339.1,376.0" fill="none" stroke="#ef4444" stroke-width="1.3" stroke-linejoin="round"/>
  <polyline points="339.1,376.0 339.4,350.0 339.7,294.0 340.0,232.5 340.3,221.0" fill="none" stroke="#ef4444" stroke-width="1.3" stroke-linejoin="round"/>
  <polyline points="340.3,221.0 340.6,256.0 340.9,309.7 341.2,376.0" fill="none" stroke="#ef4444" stroke-width="1.3" stroke-linejoin="round"/>
  <polyline points="341.5,376.0 341.8,328.2 342.1,280.5 342.4,222.1 342.7,221.0" fill="none" stroke="#ef4444" stroke-width="1.3" stroke-linejoin="round"/>
  <polyline points="342.7,221.0 343.0,273.5 343.3,321.6 343.5,376.0" fill="none" stroke="#ef4444" stroke-width="1.3" stroke-linejoin="round"/>
  <polyline points="343.8,376.0 344.1,314.4 344.4,264.3 344.7,221.0" fill="none" stroke="#ef4444" stroke-width="1.3" stroke-linejoin="round"/>
  <polyline points="344.7,221.0 344.9,228.7 345.2,288.3 345.5,339.0 345.8,376.0" fill="none" stroke="#ef4444" stroke-width="1.3" stroke-linejoin="round"/>
  <polyline points="345.8,376.0 346.0,366.8 346.3,303.6 346.6,247.8 346.8,221.0" fill="none" stroke="#ef4444" stroke-width="1.3" stroke-linejoin="round"/>
  <polyline points="346.8,221.0 347.1,242.7 347.4,300.2 347.6,359.9 347.9,376.0" fill="none" stroke="#ef4444" stroke-width="1.3" stroke-linejoin="round"/>
  <polyline points="347.9,376.0 348.1,345.8 348.4,292.4 348.7,234.1 348.9,221.0" fill="none" stroke="#ef4444" stroke-width="1.3" stroke-linejoin="round"/>
  <polyline points="348.9,221.0 349.2,259.3 349.4,310.9 349.7,372.3 349.9,376.0" fill="none" stroke="#ef4444" stroke-width="1.3" stroke-linejoin="round"/>
  <polyline points="349.9,376.0 350.2,326.6 350.4,279.0 350.6,224.9 350.9,223.3 351.1,275.5 351.4,323.2 351.6,375.1 351.8,372.6 352.1,313.3 352.3,263.8 352.6,221.0" fill="none" stroke="#ef4444" stroke-width="1.3" stroke-linejoin="round"/>
  <polyline points="352.6,221.0 352.8,233.3 353.0,289.4 353.3,339.9 353.5,374.5 353.7,360.9 353.9,302.5 354.2,248.8 354.4,221.0" fill="none" stroke="#ef4444" stroke-width="1.3" stroke-linejoin="round"/>
  <polyline points="354.4,221.0 354.6,246.8 354.8,300.9 355.1,357.5 355.3,373.6 355.5,342.2 355.7,291.1 355.9,236.6 356.2,221.9 356.4,262.2 356.6,311.8 356.8,367.9 357.0,372.1 357.2,325.2 357.4,278.2 357.7,228.5 357.9,228.1 358.1,277.1 358.3,324.2 358.5,370.9 358.7,367.1 358.9,312.5 359.1,264.1 359.3,224.4 359.5,237.8 359.7,290.1 359.9,339.5 360.1,370.7 360.3,355.5 360.5,301.6 360.7,250.7 360.9,223.9 361.1,250.5 361.3,301.4 361.5,354.2 361.7,369.6 361.9,339.2 362.1,290.4 362.3,239.9 362.5,226.8 362.6,264.6 362.8,312.3 363.0,363.1 363.2,367.4 363.4,324.0 363.6,278.1 363.8,232.8 363.9,233.0 364.1,278.3 364.3,324.3 364.5,366.2 364.7,361.7 364.9,311.9 365.0,265.3 365.2,229.2 365.4,242.3 365.6,290.6 365.8,337.8 365.9,366.3 366.1,350.8 366.3,301.1 366.5,253.4 366.6,229.1 366.8,253.9 367.0,301.5 367.1,350.2 367.3,365.2 367.5,336.6 367.7,290.3 367.8,243.9 368.0,232.0 368.2,266.7 368.3,312.1 368.5,357.9 368.7,362.3 368.8,323.1 369.0,278.9 369.2,237.6 369.3,237.9 369.5,279.2 369.7,323.3 369.8,361.1 370.0,356.4 370.1,311.6 370.3,267.4 370.5,234.6 370.6,246.4 370.8,290.6 370.9,335.1 371.1,361.5 371.3,346.7 371.4,301.2 371.6,256.9 371.7,234.5 371.9,256.9 372.0,301.0 372.2,345.5 372.4,360.3 372.5,334.5 372.7,290.9 372.8,248.6 373.0,237.3 373.1,268.3 373.3,311.1 373.4,352.4 373.6,357.3 373.7,322.5 373.9,280.5 374.0,243.0 374.2,242.6 374.3,279.5 374.5,321.3 374.6,355.7 374.8,351.6 374.9,311.8 375.0,270.3 375.2,240.2 375.3,250.2 375.5,290.1 375.6,331.5 375.8,356.4 375.9,343.1 376.1,301.9 376.2,261.1 376.3,240.1 376.5,259.4 376.6,299.9 376.8,340.4 376.9,355.2 377.0,332.8 377.2,292.3 377.3,253.8 377.5,242.5 377.6,269.4 377.7,309.3 377.9,346.6 378.0,352.3 378.1,322.3 378.3,282.9 378.4,248.7 378.5,247.1 378.7,279.4 378.8,318.4 378.9,350.0 379.1,347.3 379.2,312.5 379.3,273.9 379.5,246.0 379.6,253.5 379.7,289.0 379.9,327.3 380.0,351.0 380.1,340.2 380.3,303.3 380.4,265.9 380.5,245.7 380.7,261.4 380.8,298.0 380.9,334.9 381.0,350.2 381.2,331.6 381.3,294.6 381.4,259.3 381.6,247.5 381.7,270.0 381.8,306.6 381.9,340.6 382.1,347.7 382.2,322.6 382.3,286.2 382.4,254.6 382.6,251.1 382.7,278.7 382.8,314.7 382.9,344.1 383.0,343.6 383.2,313.8 383.3,278.3 383.4,251.9 383.5,256.3 383.7,287.3 383.8,322.4 383.9,345.5 384.0,337.9 384.1,305.5 384.3,271.1 384.4,251.1 384.5,262.8 384.6,295.4 384.7,329.1 384.9,345.3 385.0,330.9 385.1,297.6 385.2,265.2 385.3,252.1 385.4,269.9 385.6,303.1 385.7,334.5 385.8,343.6 385.9,323.4 386.0,290.2 386.1,260.7 386.2,254.7 386.4,277.4 386.5,310.4 386.6,338.1 386.7,340.5 386.8,315.8 386.9,283.1 387.0,257.7 387.2,258.6 387.3,284.9 387.4,317.1 387.5,340.1 387.6,336.2 387.7,308.4 387.8,276.7 387.9,256.3 388.0,263.6 388.2,292.0 388.3,323.2 388.4,340.6 388.5,330.8 388.6,301.4 388.7,271.2 388.8,256.4 388.9,269.3 389.0,298.9 389.1,328.3 389.2,339.9 389.4,324.7 389.5,294.8 389.6,266.7 389.7,257.8 389.8,275.4 389.9,305.4 390.0,332.2 390.1,338.0 390.2,318.4 390.3,288.4 390.4,263.4 390.5,260.3 390.6,281.7 390.7,311.5 390.8,334.9 390.9,335.1 391.0,312.1 391.1,282.6 391.2,261.2 391.3,263.8 391.4,288.0 391.6,317.2 391.7,336.4 391.8,331.3 391.9,305.9 392.0,277.2" fill="none" stroke="#ef4444" stroke-width="1.3" stroke-linejoin="round"/>
  </g>
  <g clip-path="url(#clip4)">
  <polyline points="442.0,233.9 442.7,298.5 443.4,298.5 444.1,298.5 444.8,298.5 445.5,298.5 446.2,298.5 446.9,298.5 447.6,298.5 448.3,298.5 449.0,298.5 449.7,298.5 450.4,298.5 451.1,298.5 451.8,298.5 452.5,298.5 453.2,298.5 453.9,298.5 454.6,298.5 455.3,298.5 456.0,298.5 456.7,298.5 457.4,298.5 458.1,298.5 458.8,298.5 459.5,298.5 460.2,298.5 460.9,298.5 461.6,298.5 462.3,298.5 463.0,298.5 463.7,298.5 464.4,298.5 465.1,298.5 465.8,298.5 466.5,298.5 467.2,298.5 467.9,298.5 468.6,298.5 469.3,298.5 470.0,298.5 470.7,298.5 471.4,298.5 472.1,298.5 472.8,298.5 473.5,298.5 474.2,298.5 474.9,298.5 475.6,298.5 476.3,298.5 477.0,298.5 477.7,298.5 478.4,298.5 479.1,298.5 479.8,298.5 480.5,298.5 481.2,298.5 481.9,298.5 482.6,298.5 483.3,298.5 484.0,298.5 484.7,298.5 485.4,298.5 486.1,298.5 486.8,298.5 487.4,298.5 488.1,298.5 488.8,298.5 489.5,298.5 490.2,298.5 490.9,298.5 491.6,298.5 492.3,298.5 493.0,298.5 493.7,298.5 494.4,298.5 495.1,298.5 495.8,298.5 496.5,298.5 497.2,298.5 497.9,298.5 498.6,298.5 499.3,298.5 500.0,298.5 500.7,298.5 501.4,298.5 502.1,298.5 502.8,298.5 503.5,298.5 504.2,298.5 504.9,298.5 505.6,298.5 506.3,298.5 507.0,298.5 507.7,298.5 508.4,298.5 509.1,298.5 509.8,298.5 510.5,298.5 511.2,298.5 511.9,298.5 512.6,298.5 513.3,298.5 514.0,298.5 514.7,298.5 515.4,298.5 516.1,298.5 516.8,298.5 517.5,298.5 518.2,298.5 518.9,298.5 519.6,298.5 520.3,298.5 521.0,298.5 521.7,298.5 522.4,298.5 523.1,298.5 523.8,298.5 524.5,298.5 525.2,298.5 525.9,298.5 526.6,298.5 527.3,298.5 528.0,298.5 528.7,298.5 529.4,298.5 530.1,298.5 530.8,298.5 531.5,298.5 532.2,298.5 532.9,298.5 533.6,298.5 534.3,253.3 535.0,279.1 535.7,298.5 536.4,298.5 537.1,298.5 537.8,298.5 538.5,298.5 539.2,298.5 539.9,298.5 540.6,298.5 541.3,298.5 542.0,298.5 542.7,298.5 543.4,298.5 544.1,298.5 544.8,298.5 545.5,298.5 546.2,298.5 546.9,298.5 547.6,298.5 548.3,298.5 549.0,298.5 549.7,298.5 550.4,298.5 551.1,298.5 551.8,298.5 552.5,298.5 553.2,298.5 553.9,298.5 554.6,298.5 555.3,298.5 556.0,298.5 556.7,298.5 557.4,298.5 558.1,298.5 558.8,298.5 559.5,298.5 560.2,298.5 560.9,298.5 561.6,298.5 562.3,298.5 563.0,298.5 563.7,298.5 564.4,298.5 565.1,298.5 565.8,298.5 566.5,298.5 567.2,298.5 567.9,298.5 568.6,298.5 569.3,298.5 570.0,298.5 570.7,298.5 571.4,298.5 572.1,298.5 572.8,298.5 573.5,298.5 574.2,298.5 574.9,298.5 575.6,298.5 576.3,298.5 576.9,298.5 577.6,298.5 578.3,298.5 579.0,298.5 579.7,298.5 580.4,298.5 581.1,298.5 581.8,298.5 582.5,298.5 583.2,298.5 583.9,298.5 584.6,298.5 585.3,298.5 586.0,298.5 586.7,298.5 587.4,298.5 588.1,298.5 588.8,298.5 589.5,298.5 590.2,298.5 590.9,298.5 591.6,298.5 592.3,298.5 593.0,298.5 593.7,298.5 594.4,298.5 595.1,298.5 595.8,298.5 596.5,298.5 597.2,298.5 597.9,298.5 598.6,298.5 599.3,298.5 600.0,298.5 600.7,298.5 601.4,298.5 602.1,298.5 602.8,298.5 603.5,298.5 604.2,298.5 604.9,298.5 605.6,298.5 606.3,298.5 607.0,298.5 607.7,298.5 608.4,298.5 609.1,298.5 609.8,298.5 610.5,298.5 611.2,298.5 611.9,298.5 612.6,298.5 613.3,298.5 614.0,298.5 614.7,298.5 615.4,298.5 616.1,298.5 616.8,298.5 617.5,298.5 618.2,298.5 618.9,298.5 619.6,298.5 620.3,298.5 621.0,298.5 621.7,298.5 622.4,298.5 623.1,298.5 623.8,298.5 624.5,298.5 625.2,298.5 625.9,298.5 626.6,282.7 627.3,284.9 628.0,295.6 628.7,298.5 629.4,298.5 630.1,298.5 630.8,298.5 631.5,298.5 632.2,298.5 632.9,298.5 633.6,298.5 634.3,298.5 635.0,298.5 635.7,298.5 636.4,298.5 637.1,298.5 637.8,298.5 638.5,298.5 639.2,298.5 639.9,298.5 640.6,298.5 641.3,298.5 642.0,298.5 642.7,298.5 643.4,298.5 644.1,298.5 644.8,298.5 645.5,298.5 646.2,298.5 646.9,298.5 647.6,298.5 648.3,298.5 649.0,298.5 649.7,298.5 650.4,298.5 651.1,298.5 651.8,298.5 652.5,298.5 653.2,298.5 653.9,298.5 654.6,298.5 655.3,298.5 656.0,298.5 656.7,298.5 657.4,298.5 658.1,298.5 658.8,298.5 659.5,298.5 660.2,298.5 660.9,298.5 661.6,298.5 662.3,298.5 663.0,298.5 663.7,298.5 664.4,298.5 665.1,298.5 665.8,298.5 666.4,298.5 667.1,298.5 667.8,298.5 668.5,298.5 669.2,298.5 669.9,298.5 670.6,298.5 671.3,298.5 672.0,298.5 672.7,298.5 673.4,298.5 674.1,298.5 674.8,298.5 675.5,298.5 676.2,298.5 676.9,298.5 677.6,298.5 678.3,298.5 679.0,298.5 679.7,298.5 680.4,298.5 681.1,298.5 681.8,298.5 682.5,298.5 683.2,298.5 683.9,298.5 684.6,298.5 685.3,298.5 686.0,298.5 686.7,298.5 687.4,298.5 688.1,298.5 688.8,298.5 689.5,298.5 690.2,298.5 690.9,298.5 691.6,298.5 692.3,298.5 693.0,298.5 693.7,298.5 694.4,298.5 695.1,298.5 695.8,298.5 696.5,298.5 697.2,298.5 697.9,298.5 698.6,298.5 699.3,298.5 700.0,298.5 700.7,298.5 701.4,298.5 702.1,298.5 702.8,298.5 703.5,298.5 704.2,298.5 704.9,298.5 705.6,298.5 706.3,298.5 707.0,298.5 707.7,298.5 708.4,298.5 709.1,298.5 709.8,298.5 710.5,298.5 711.2,298.5 711.9,298.5 712.6,298.5 713.3,298.5 714.0,298.5 714.7,298.5 715.4,298.5 716.1,298.5 716.8,298.5 717.5,298.5 718.2,298.5 718.9,293.0 719.6,291.4 720.3,295.4 721.0,298.1 721.7,298.5 722.4,298.5 723.1,298.5 723.8,298.5 724.5,298.5 725.2,298.5 725.9,298.5 726.6,298.5 727.3,298.5 728.0,298.5 728.7,298.5 729.4,298.5 730.1,298.5 730.8,298.5 731.5,298.5 732.2,298.5 732.9,298.5 733.6,298.5 734.3,298.5 735.0,298.5 735.7,298.5 736.4,298.5 737.1,298.5 737.8,298.5 738.5,298.5 739.2,298.5 739.9,298.5 740.6,298.5 741.3,298.5 742.0,298.5 742.7,298.5 743.4,298.5 744.1,298.5 744.8,298.5 745.5,298.5 746.2,298.5 746.9,298.5 747.6,298.5 748.3,298.5 749.0,298.5 749.7,298.5 750.4,298.5 751.1,298.5 751.8,298.5 752.5,298.5 753.2,298.5 753.9,298.5 754.6,298.5 755.3,298.5 755.9,298.5 756.6,298.5 757.3,298.5 758.0,298.5 758.7,298.5 759.4,298.5 760.1,298.5 760.8,298.5 761.5,298.5 762.2,298.5 762.9,298.5 763.6,298.5 764.3,298.5 765.0,298.5 765.7,298.5 766.4,298.5 767.1,298.5 767.8,298.5 768.5,298.5 769.2,298.5 769.9,298.5 770.6,298.5 771.3,298.5 772.0,298.5 772.7,298.5 773.4,298.5 774.1,298.5 774.8,298.5 775.5,298.5 776.2,298.5 776.9,298.5 777.6,298.5 778.3,298.5 779.0,298.5 779.7,298.5 780.4,298.5 781.1,298.5 781.8,298.5 782.5,298.5 783.2,298.5 783.9,298.5 784.6,298.5 785.3,298.5 786.0,298.5 786.7,298.5 787.4,298.5 788.1,298.5 788.8,298.5 789.5,298.5 790.2,298.5 790.9,298.5 791.6,298.5 792.3,298.5 793.0,298.5 793.7,298.5 794.4,298.5 795.1,298.5 795.8,298.5 796.5,298.5 797.2,298.5 797.9,298.5 798.6,298.5 799.3,298.5" fill="none" stroke="#ef4444" stroke-width="1.2" stroke-linejoin="round"/>
  </g>
  <g clip-path="url(#clip1)">
  <polyline points="102.8,37.5 135.4,49.1 154.5,54.3 168.1,64.7 178.6,53.0 187.2,45.9 194.4,35.6 200.7,33.7 206.3,40.0 211.2,51.3 215.7,56.8 219.8,60.1 223.6,52.3 227.1,42.6 230.3,34.3 233.4,34.5 236.2,43.1 238.9,52.4 241.5,60.8 243.9,56.3 246.2,51.1 248.4,39.6 250.5,33.6 252.5,35.9 254.4,46.5 256.2,53.2 258.0,65.1 259.7,54.1 261.4,48.7 263.0,37.2 264.5,33.4 266.0,37.9 267.5,49.5 268.9,54.6 270.2,64.0 271.6,52.9 272.8,45.4 274.1,35.5 275.3,33.8 276.5,40.5 277.7,51.5 278.8,57.3 279.9,59.4 281.0,52.1 282.1,42.1 283.1,34.3 284.1,34.8 285.1,43.6 286.1,52.5 287.0,61.4 288.0,55.9 288.9,50.7 289.8,39.3 290.7,33.7 291.5,36.3 292.4,46.9 293.2,53.3 294.0,65.0 294.8,53.8 295.6,48.2 296.4,37.0 297.2,33.6 297.9,38.4 298.7,49.8 299.4,54.9 300.1,63.0 300.8,52.7 301.5,44.9 302.2,35.4 302.9,34.1 303.5,41.0 304.2,51.6 304.9,57.8 305.5,58.7 306.1,51.9 306.7,41.8 307.4,34.3 308.0,35.1 308.6,44.1 309.2,52.5 309.8,61.8 310.3,55.5 310.9,50.3 311.5,39.1 312.0,33.8 312.6,36.7 313.1,47.4 313.7,53.5 314.2,64.5 314.7,53.6 315.2,47.6 315.7,37.0 316.3,33.9 316.8,38.9 317.3,50.0 317.8,55.3 318.2,62.0 318.7,52.6 319.2,44.5 319.7,35.5 320.1,34.5 320.6,41.6 321.1,51.6 321.5,58.2 322.0,58.0 322.4,51.6 322.9,41.5 323.3,34.5 323.7,35.6 324.2,44.6 324.6,52.6 325.0,61.9 325.4,55.1 325.8,49.8 326.3,39.0 326.7,34.1 327.1,37.3 327.5,47.7 327.9,53.7 328.3,63.6 328.7,53.4 329.0,47.2 329.4,37.0 329.8,34.3 330.2,39.5 330.6,50.1 330.9,55.5 331.3,60.9 331.7,52.3 332.0,44.1 332.4,35.6 332.8,34.9 333.1,42.1 333.5,51.6 333.8,58.4 334.2,57.4 334.5,51.2 334.8,41.3 335.2,34.8 335.5,36.1 335.9,45.1 336.2,52.6 336.5,61.6 336.8,54.8 337.2,49.3 337.5,39.0 337.8,34.5 338.1,37.8 338.5,47.9 338.8,53.8 339.1,62.5 339.4,53.2 339.7,46.7 340.0,37.2 340.3,34.8 340.6,40.0 340.9,50.1 341.2,55.7 341.5,59.9 341.8,52.1 342.1,43.9 342.4,35.9 342.7,35.5 343.0,42.6 343.3,51.5 343.5,58.4 343.8,56.8 344.1,50.8 344.4,41.2 344.7,35.2 344.9,36.7 345.2,45.4 345.5,52.6 345.8,61.0 346.0,54.5 346.3,48.9 346.6,39.1 346.8,35.0 347.1,38.4 347.4,48.0 347.6,53.9 347.9,61.3 348.1,53.0 348.4,46.4 348.7,37.4 348.9,35.3 349.2,40.6 349.4,50.1 349.7,55.8 349.9,59.0 350.2,51.8 350.4,43.7 350.6,36.3 350.9,36.1 351.1,43.1 351.4,51.5 351.6,58.2 351.8,56.3 352.1,50.4 352.3,41.3 352.6,35.7 352.8,37.4 353.0,45.7 353.3,52.6 353.5,60.2 353.7,54.2 353.9,48.5 354.2,39.3 354.4,35.6 354.6,39.0 354.8,48.1 355.1,53.9 355.3,60.1 355.5,52.7 355.7,46.1 355.9,37.8 356.2,36.0 356.4,41.1 356.6,50.0 356.8,55.7 357.0,58.1 357.2,51.5 357.4,43.7 357.7,36.8 357.9,36.8 358.1,43.5 358.3,51.3 358.5,57.8 358.7,55.8 358.9,50.0 359.1,41.5 359.3,36.3 359.5,38.0 359.7,45.9 359.9,52.5 360.1,59.2 360.3,53.9 360.5,48.1 360.7,39.7 360.9,36.3 361.1,39.6 361.3,48.0 361.5,53.8 361.7,59.0 361.9,52.5 362.1,46.0 362.3,38.3 362.5,36.6 362.6,41.6 362.8,49.8 363.0,55.5 363.2,57.3 363.4,51.2 363.6,43.7 363.8,37.4 363.9,37.4 364.1,43.8 364.3,51.1 364.5,57.1 364.7,55.3 364.9,49.7 365.0,41.8 365.2,37.0 365.4,38.6 365.6,45.9 365.8,52.3 365.9,58.2 366.1,53.6 366.3,47.9 366.5,40.1 366.6,37.0 366.8,40.2 367.0,47.9 367.1,53.6 367.3,57.9 367.5,52.2 367.7,45.9 367.8,38.9 368.0,37.4 368.2,42.0 368.3,49.5 368.5,55.0 368.7,56.5 368.8,50.9 369.0,43.9 369.2,38.1 369.3,38.1 369.5,44.0 369.7,50.8 369.8,56.4 370.0,54.9 370.1,49.5 370.3,42.2 370.5,37.7 370.6,39.3 370.8,45.9 370.9,52.0 371.1,57.1 371.3,53.3 371.4,47.8 371.6,40.7 371.7,37.7 371.9,40.7 372.0,47.7 372.2,53.2 372.4,56.9 372.5,52.0 372.7,46.0 372.8,39.6 373.0,38.1 373.1,42.3 373.3,49.2 373.4,54.4 373.6,55.8 373.7,50.7 373.9,44.3 374.0,38.9 374.2,38.8 374.3,44.1 374.5,50.5 374.6,55.5 374.8,54.4 374.9,49.3 375.0,42.7 375.2,38.5 375.3,39.8 375.5,45.8 375.6,51.6 375.8,56.0 375.9,53.1 376.1,47.8 376.2,41.4 376.3,38.5 376.5,41.1 376.6,47.4 376.8,52.7 376.9,55.9 377.0,51.8 377.2,46.2 377.3,40.4 377.5,38.8 377.6,42.5 377.7,48.8 377.9,53.7 378.0,55.1 378.1,50.6 378.3,44.7 378.4,39.7 378.5,39.5 378.7,44.1 378.8,50.0 378.9,54.6 379.1,54.0 379.2,49.3 379.3,43.3 379.5,39.3 379.6,40.3 379.7,45.6 379.9,51.1 380.0,55.0 380.1,52.8 380.3,47.9 380.4,42.1 380.5,39.3 380.7,41.4 380.8,47.1 380.9,52.1 381.0,55.0 381.2,51.7 381.3,46.6 381.4,41.2 381.6,39.5 381.7,42.7 381.8,48.3 381.9,52.9 382.1,54.4 382.2,50.5 382.3,45.2 382.4,40.5 382.6,40.0 382.7,44.0 382.8,49.5 382.9,53.7 383.0,53.6 383.2,49.4 383.3,44.0 383.4,40.2 383.5,40.8 383.7,45.3 383.8,50.5 383.9,54.1 384.0,52.6 384.1,48.2 384.3,42.9 384.4,40.1 384.5,41.7 384.6,46.6 384.7,51.3 384.9,54.1 385.0,51.6 385.1,47.0 385.2,42.0 385.3,40.2 385.4,42.7 385.6,47.8 385.7,52.1 385.8,53.8 385.9,50.6 386.0,45.8 386.1,41.4 386.2,40.6 386.4,43.8 386.5,48.8 386.6,52.7 386.7,53.2 386.8,49.6 386.9,44.7 387.0,41.0 387.2,41.1 387.3,45.0 387.4,49.7 387.5,53.2 387.6,52.5 387.7,48.6 387.8,43.8 387.9,40.8 388.0,41.8 388.2,46.1 388.3,50.6 388.4,53.3 388.5,51.6 388.6,47.5 388.7,42.9 388.8,40.8 388.9,42.6 389.0,47.1 389.1,51.3 389.2,53.2 389.4,50.8 389.5,46.5 389.6,42.3 389.7,41.0 389.8,43.5 389.9,48.1 390.0,51.9 390.1,52.9 390.2,49.9 390.3,45.5 390.4,41.8 390.5,41.4 390.6,44.5 390.7,48.9 390.8,52.3 390.9,52.4 391.0,49.0 391.1,44.6 391.2,41.5 391.3,41.9 391.4,45.4 391.6,49.7 391.7,52.6 391.8,51.8 391.9,48.2 392.0,43.8" fill="none" stroke="#22c55e" stroke-width="1.3" stroke-linejoin="round"/>
  </g>
  <g clip-path="url(#clip2)">
  <polyline points="510.8,112.1 543.4,117.2 562.5,110.5 576.1,86.2 586.6,76.5 595.2,68.4 602.4,79.2 608.7,98.7 614.3,115.7 619.2,114.1 623.7,110.4 627.8,78.3 631.6,75.2 635.1,69.2 638.3,84.0 641.4,103.7 644.2,118.0 646.9,111.5 649.5,108.0 651.9,76.5 654.2,72.4 656.4,71.8 658.5,89.1 660.5,108.5 662.4,118.5 664.2,110.4 666.0,98.7 667.7,76.6 669.4,69.5 671.0,75.5 672.5,94.3 674.0,112.7 675.5,116.7 676.9,110.4 678.2,84.5 679.6,76.4 680.8,68.5 682.1,80.0 683.3,99.4 684.5,116.0 685.7,113.6 686.8,110.1 687.9,78.0 689.0,74.9 690.1,69.7 691.1,84.9 692.1,104.4 693.1,118.0 694.1,111.2 695.0,106.9 696.0,76.7 696.9,72.0 697.8,72.5 698.7,89.9 699.5,109.0 700.4,118.1 701.2,110.3 702.0,96.3 702.8,76.8 703.6,69.5 704.4,76.4 705.2,95.1 705.9,113.0 706.7,116.0 707.4,110.2 708.1,83.4 708.8,76.4 709.5,68.9 710.2,80.9 710.9,100.1 711.5,116.1 712.2,113.0 712.9,109.5 713.5,78.1 714.1,74.7 714.7,70.4 715.4,85.7 716.0,104.9 716.6,117.7 717.2,110.8 717.8,105.2 718.3,77.0 718.9,71.9 719.5,73.4 720.0,90.7 720.6,109.4 721.1,117.4 721.7,110.1 722.2,94.2 722.7,77.0 723.2,69.8 723.7,77.3 724.3,95.8 724.8,113.1 725.3,115.2 725.8,109.8 726.2,82.9 726.7,76.4 727.2,69.6 727.7,81.8 728.1,100.7 728.6,115.9 729.1,112.4 729.5,108.5 730.0,78.4 730.4,74.5 730.9,71.3 731.3,86.6 731.7,105.3 732.2,117.2 732.6,110.5 733.0,103.3 733.4,77.4 733.8,72.0 734.3,74.4 734.7,91.5 735.1,109.5 735.5,116.6 735.9,109.7 736.3,92.4 736.7,77.2 737.0,70.3 737.4,78.3 737.8,96.4 738.2,113.0 738.6,114.4 738.9,109.2 739.3,82.8 739.7,76.4 740.0,70.5 740.4,82.7 740.8,101.1 741.1,115.4 741.5,111.8 741.8,107.2 742.2,79.0 742.5,74.6 742.8,72.4 743.2,87.4 743.5,105.6 743.9,116.4 744.2,110.1 744.5,101.4 744.8,78.0 745.2,72.3 745.5,75.4 745.8,92.1 746.1,109.5 746.5,115.6 746.8,109.2 747.1,91.2 747.4,77.5 747.7,71.1 748.0,79.3 748.3,96.9 748.6,112.7 748.9,113.5 749.2,108.3 749.5,83.1 749.8,76.6 750.1,71.5 750.4,83.6 750.7,101.4 751.0,114.7 751.3,111.1 751.5,105.7 751.8,79.7 752.1,74.8 752.4,73.5 752.7,88.1 752.9,105.6 753.2,115.4 753.5,109.6 753.8,99.6 754.0,78.6 754.3,72.9 754.6,76.6 754.8,92.7 755.1,109.2 755.4,114.5 755.6,108.6 755.9,90.5 756.1,77.9 756.4,72.1 756.7,80.3 756.9,97.2 757.2,112.1 757.4,112.5 757.7,107.2 757.9,83.7 758.2,76.8 758.4,72.7 758.6,84.5 758.9,101.5 759.1,113.8 759.4,110.5 759.6,104.2 759.8,80.5 760.1,75.2 760.3,74.7 760.6,88.8 760.8,105.4 761.0,114.3 761.3,109.0 761.5,98.1 761.7,79.3 761.9,73.7 762.2,77.7 762.4,93.1 762.6,108.7 762.8,113.4 763.1,107.8 763.3,90.3 763.5,78.4 763.7,73.2 763.9,81.3 764.2,97.4 764.4,111.2 764.6,111.6 764.8,106.0 765.0,84.5 765.2,77.3 765.4,74.0 765.7,85.2 765.9,101.4 766.1,112.7 766.3,109.7 766.5,102.7 766.7,81.5 766.9,75.9 767.1,76.0 767.3,89.3 767.5,105.0 767.7,113.0 767.9,108.2 768.1,97.0 768.3,80.0 768.5,74.7 768.7,78.8 768.9,93.4 769.1,108.0 769.3,112.2 769.5,106.8 769.7,90.4 769.9,79.0 770.1,74.5 770.3,82.2 770.5,97.4 770.6,110.2 770.8,110.6 771.0,104.8 771.2,85.4 771.4,77.9 771.6,75.4 771.8,85.9 771.9,101.1 772.1,111.5 772.3,108.9 772.5,101.4 772.7,82.5 772.9,76.7 773.0,77.3 773.2,89.7 773.4,104.3 773.6,111.7 773.8,107.4 773.9,96.3 774.1,80.9 774.3,75.9 774.5,79.9 774.6,93.5 774.8,107.0 775.0,110.9 775.1,105.9 775.3,90.7 775.5,79.8 775.7,75.8 775.8,83.0 776.0,97.2 776.2,109.0 776.3,109.6 776.5,103.7 776.7,86.4 776.8,78.8 777.0,76.8 777.2,86.4 777.3,100.5 777.5,110.1 777.7,108.1 777.8,100.4 778.0,83.6 778.1,77.8 778.3,78.5 778.5,89.9 778.6,103.5 778.8,110.3 778.9,106.6 779.1,96.0 779.3,82.0 779.4,77.2 779.6,80.9 779.7,93.4 779.9,105.9 780.0,109.7 780.2,104.9 780.4,91.3 780.5,80.8 780.7,77.2 780.8,83.7 781.0,96.7 781.1,107.7 781.3,108.5 781.4,102.7 781.6,87.5 781.7,79.8 781.9,78.1 782.0,86.8 782.2,99.8 782.3,108.7 782.5,107.2 782.6,99.7 782.8,84.8 782.9,79.0 783.0,79.7 783.2,90.0 783.3,102.4 783.5,108.9 783.6,105.7 783.8,96.0 783.9,83.1 784.1,78.5 784.2,81.8 784.3,93.1 784.5,104.6 784.6,108.4 784.8,104.1 784.9,92.0 785.0,81.9 785.2,78.6 785.3,84.3 785.5,96.1 785.6,106.2 785.7,107.5 785.9,102.0 786.0,88.7 786.1,81.0 786.3,79.4 786.4,87.0 786.5,98.8 786.7,107.1 786.8,106.3 786.9,99.3 787.1,86.2 787.2,80.3 787.3,80.7 787.5,89.9 787.6,101.2 787.7,107.4 787.9,104.9 788.0,96.2 788.1,84.4 788.3,79.9 788.4,82.6 788.5,92.6 788.7,103.2 788.8,107.1 788.9,103.4 789.0,92.9 789.2,83.2 789.3,80.0 789.4,84.7 789.6,95.3 789.7,104.7 789.8,106.4 789.9,101.5 790.1,90.0 790.2,82.3 790.3,80.6 790.4,87.1 790.6,97.7 790.7,105.6 790.8,105.4 790.9,99.2 791.0,87.6 791.2,81.6 791.3,81.7 791.4,89.5 791.5,99.9 791.7,106.0 791.8,104.3 791.9,96.6 792.0,85.9 792.1,81.3 792.3,83.2 792.4,91.9 792.5,101.7 792.6,105.9 792.7,102.9 792.9,93.9 793.0,84.6 793.1,81.3 793.2,84.9 793.3,94.3 793.4,103.1 793.6,105.4 793.7,101.3 793.8,91.4 793.9,83.7 794.0,81.7 794.1,86.9 794.2,96.4 794.4,104.0 794.5,104.7 794.6,99.4 794.7,89.2 794.8,83.0 794.9,82.5 795.0,89.0 795.2,98.4 795.3,104.6 795.4,103.7 795.5,97.3 795.6,87.5 795.7,82.6 795.8,83.6 795.9,91.1 796.0,100.1 796.2,104.7 796.3,102.6 796.4,95.1 796.5,86.1 796.6,82.4 796.7,85.0 796.8,93.1 796.9,101.4 797.0,104.5 797.1,101.3 797.2,92.9 797.4,85.1 797.5,82.6 797.6,86.6 797.7,95.0 797.8,102.5 797.9,104.0 798.0,99.8 798.1,90.9 798.2,84.3 798.3,83.1 798.4,88.3 798.5,96.8 798.6,103.2 798.7,103.4 798.8,98.1 798.9,89.1 799.0,83.8 799.1,83.8 799.2,90.0 799.3,98.4 799.4,103.6 799.6,102.5 799.7,96.3 799.8,87.7 799.9,83.5 800.0,84.8" fill="none" stroke="#22c55e" stroke-width="1.3" stroke-linejoin="round"/>
  </g>
  <g clip-path="url(#clip3)">
  <polyline points="102.8,237.9 135.4,302.8 154.5,376.0" fill="none" stroke="#22c55e" stroke-width="1.3" stroke-linejoin="round"/>
  <polyline points="168.1,376.0 178.6,344.1 187.2,291.6 194.4,221.0" fill="none" stroke="#22c55e" stroke-width="1.3" stroke-linejoin="round"/>
  <polyline points="200.7,221.0 206.3,258.9 211.2,312.0 215.7,376.0" fill="none" stroke="#22c55e" stroke-width="1.3" stroke-linejoin="round"/>
  <polyline points="219.8,376.0 223.6,321.6 227.1,275.9 230.3,221.0" fill="none" stroke="#22c55e" stroke-width="1.3" stroke-linejoin="round"/>
  <polyline points="233.4,221.0 236.2,278.6 238.9,324.1 241.5,376.0" fill="none" stroke="#22c55e" stroke-width="1.3" stroke-linejoin="round"/>
  <polyline points="243.9,376.0 246.2,310.5 248.4,255.7 250.5,221.0" fill="none" stroke="#22c55e" stroke-width="1.3" stroke-linejoin="round"/>
  <polyline points="250.5,221.0 252.5,223.4 254.4,293.5 256.2,349.2 258.0,376.0" fill="none" stroke="#22c55e" stroke-width="1.3" stroke-linejoin="round"/>
  <polyline points="258.0,376.0 259.7,373.1 261.4,301.2 263.0,235.1 264.5,221.0" fill="none" stroke="#22c55e" stroke-width="1.3" stroke-linejoin="round"/>
  <polyline points="264.5,221.0 266.0,241.2 267.5,304.2 268.9,376.0" fill="none" stroke="#22c55e" stroke-width="1.3" stroke-linejoin="round"/>
  <polyline points="270.2,376.0 271.6,339.4 272.8,289.4 274.1,221.0" fill="none" stroke="#22c55e" stroke-width="1.3" stroke-linejoin="round"/>
  <polyline points="275.3,221.0 276.5,262.3 277.7,313.6 278.8,376.0" fill="none" stroke="#22c55e" stroke-width="1.3" stroke-linejoin="round"/>
  <polyline points="279.9,376.0 281.0,319.7 282.1,273.0 283.1,221.0" fill="none" stroke="#22c55e" stroke-width="1.3" stroke-linejoin="round"/>
  <polyline points="284.1,221.0 285.1,281.2 286.1,327.1 287.0,376.0" fill="none" stroke="#22c55e" stroke-width="1.3" stroke-linejoin="round"/>
  <polyline points="288.0,376.0 288.9,309.1 289.8,252.7 290.7,221.0" fill="none" stroke="#22c55e" stroke-width="1.3" stroke-linejoin="round"/>
  <polyline points="290.7,221.0 291.5,226.5 292.4,295.2 293.2,354.1 294.0,376.0" fill="none" stroke="#22c55e" stroke-width="1.3" stroke-linejoin="round"/>
  <polyline points="294.0,376.0 294.8,367.1 295.6,299.5 296.4,233.1 297.2,221.0" fill="none" stroke="#22c55e" stroke-width="1.3" stroke-linejoin="round"/>
  <polyline points="297.2,221.0 297.9,244.9 298.7,305.6 299.4,376.0" fill="none" stroke="#22c55e" stroke-width="1.3" stroke-linejoin="round"/>
  <polyline points="300.1,376.0 300.8,335.6 301.5,287.1 302.2,221.0" fill="none" stroke="#22c55e" stroke-width="1.3" stroke-linejoin="round"/>
  <polyline points="302.9,221.0 303.5,265.5 304.2,315.4 304.9,376.0" fill="none" stroke="#22c55e" stroke-width="1.3" stroke-linejoin="round"/>
  <polyline points="305.5,376.0 306.1,318.1 306.7,270.2 307.4,221.0" fill="none" stroke="#22c55e" stroke-width="1.3" stroke-linejoin="round"/>
  <polyline points="308.0,221.0 308.6,283.4 309.2,330.4 309.8,376.0" fill="none" stroke="#22c55e" stroke-width="1.3" stroke-linejoin="round"/>
  <polyline points="310.3,376.0 310.9,307.8 311.5,250.3 312.0,221.0" fill="none" stroke="#22c55e" stroke-width="1.3" stroke-linejoin="round"/>
  <polyline points="312.0,221.0 312.6,230.2 313.1,296.7 313.7,358.0 314.2,376.0" fill="none" stroke="#22c55e" stroke-width="1.3" stroke-linejoin="round"/>
  <polyline points="314.2,376.0 314.7,360.9 315.2,297.7 315.7,232.0 316.3,221.0" fill="none" stroke="#22c55e" stroke-width="1.3" stroke-linejoin="round"/>
  <polyline points="316.3,221.0 316.8,248.7 317.3,307.0 317.8,376.0" fill="none" stroke="#22c55e" stroke-width="1.3" stroke-linejoin="round"/>
  <polyline points="318.2,376.0 318.7,332.5 319.2,284.7 319.7,221.0" fill="none" stroke="#22c55e" stroke-width="1.3" stroke-linejoin="round"/>
  <polyline points="320.1,221.0 320.6,268.5 321.1,317.4 321.5,376.0" fill="none" stroke="#22c55e" stroke-width="1.3" stroke-linejoin="round"/>
  <polyline points="322.0,376.0 322.4,316.7 322.9,267.7 323.3,221.0" fill="none" stroke="#22c55e" stroke-width="1.3" stroke-linejoin="round"/>
  <polyline points="323.7,221.0 324.2,285.3 324.6,333.9 325.0,376.0" fill="none" stroke="#22c55e" stroke-width="1.3" stroke-linejoin="round"/>
  <polyline points="325.4,376.0 325.8,306.4 326.3,248.6 326.7,221.0" fill="none" stroke="#22c55e" stroke-width="1.3" stroke-linejoin="round"/>
  <polyline points="326.7,221.0 327.1,234.3 327.5,298.0 327.9,360.3 328.3,376.0" fill="none" stroke="#22c55e" stroke-width="1.3" stroke-linejoin="round"/>
  <polyline points="328.3,376.0 328.7,355.1 329.0,295.8 329.4,231.8 329.8,221.0" fill="none" stroke="#22c55e" stroke-width="1.3" stroke-linejoin="round"/>
  <polyline points="329.8,221.0 330.2,252.5 330.6,308.3 330.9,376.0" fill="none" stroke="#22c55e" stroke-width="1.3" stroke-linejoin="round"/>
  <polyline points="331.3,376.0 331.7,330.1 332.0,282.5 332.4,221.0" fill="none" stroke="#22c55e" stroke-width="1.3" stroke-linejoin="round"/>
  <polyline points="332.8,221.0 333.1,271.2 333.5,319.5 333.8,376.0" fill="none" stroke="#22c55e" stroke-width="1.3" stroke-linejoin="round"/>
  <polyline points="334.2,376.0 334.5,315.5 334.8,265.7 335.2,221.0" fill="none" stroke="#22c55e" stroke-width="1.3" stroke-linejoin="round"/>
  <polyline points="335.2,221.0 335.5,224.2 335.9,287.0 336.2,336.9 336.5,376.0" fill="none" stroke="#22c55e" stroke-width="1.3" stroke-linejoin="round"/>
  <polyline points="336.5,376.0 336.8,372.9 337.2,305.0 337.5,247.7 337.8,221.0" fill="none" stroke="#22c55e" stroke-width="1.3" stroke-linejoin="round"/>
  <polyline points="337.8,221.0 338.1,238.5 338.5,299.2 338.8,360.9 339.1,376.0" fill="none" stroke="#22c55e" stroke-width="1.3" stroke-linejoin="round"/>
  <polyline points="339.1,376.0 339.4,350.0 339.7,294.0 340.0,232.5 340.3,221.0" fill="none" stroke="#22c55e" stroke-width="1.3" stroke-linejoin="round"/>
  <polyline points="340.3,221.0 340.6,256.0 340.9,309.7 341.2,376.0" fill="none" stroke="#22c55e" stroke-width="1.3" stroke-linejoin="round"/>
  <polyline points="341.5,376.0 341.8,328.2 342.1,280.5 342.4,222.1 342.7,221.0" fill="none" stroke="#22c55e" stroke-width="1.3" stroke-linejoin="round"/>
  <polyline points="342.7,221.0 343.0,273.5 343.3,321.6 343.5,376.0" fill="none" stroke="#22c55e" stroke-width="1.3" stroke-linejoin="round"/>
  <polyline points="343.8,376.0 344.1,314.4 344.4,264.3 344.7,221.0" fill="none" stroke="#22c55e" stroke-width="1.3" stroke-linejoin="round"/>
  <polyline points="344.7,221.0 344.9,228.7 345.2,288.3 345.5,339.0 345.8,376.0" fill="none" stroke="#22c55e" stroke-width="1.3" stroke-linejoin="round"/>
  <polyline points="345.8,376.0 346.0,366.8 346.3,303.6 346.6,247.8 346.8,221.0" fill="none" stroke="#22c55e" stroke-width="1.3" stroke-linejoin="round"/>
  <polyline points="346.8,221.0 347.1,242.7 347.4,300.2 347.6,359.9 347.9,376.0" fill="none" stroke="#22c55e" stroke-width="1.3" stroke-linejoin="round"/>
  <polyline points="347.9,376.0 348.1,345.8 348.4,292.4 348.7,234.1 348.9,221.0" fill="none" stroke="#22c55e" stroke-width="1.3" stroke-linejoin="round"/>
  <polyline points="348.9,221.0 349.2,259.3 349.4,310.9 349.7,372.3 349.9,376.0" fill="none" stroke="#22c55e" stroke-width="1.3" stroke-linejoin="round"/>
  <polyline points="349.9,376.0 350.2,326.6 350.4,279.0 350.6,224.9 350.9,223.3 351.1,275.5 351.4,323.2 351.6,375.1 351.8,372.6 352.1,313.3 352.3,263.8 352.6,221.0" fill="none" stroke="#22c55e" stroke-width="1.3" stroke-linejoin="round"/>
  <polyline points="352.6,221.0 352.8,233.3 353.0,289.4 353.3,339.9 353.5,374.5 353.7,360.9 353.9,302.5 354.2,248.8 354.4,221.0" fill="none" stroke="#22c55e" stroke-width="1.3" stroke-linejoin="round"/>
  <polyline points="354.4,221.0 354.6,246.8 354.8,300.9 355.1,357.5 355.3,373.6 355.5,342.2 355.7,291.1 355.9,236.6 356.2,221.9 356.4,262.2 356.6,311.8 356.8,367.9 357.0,372.1 357.2,325.2 357.4,278.2 357.7,228.5 357.9,228.1 358.1,277.1 358.3,324.2 358.5,370.9 358.7,367.1 358.9,312.5 359.1,264.1 359.3,224.4 359.5,237.8 359.7,290.1 359.9,339.5 360.1,370.7 360.3,355.5 360.5,301.6 360.7,250.7 360.9,223.9 361.1,250.5 361.3,301.4 361.5,354.2 361.7,369.6 361.9,339.2 362.1,290.4 362.3,239.9 362.5,226.8 362.6,264.6 362.8,312.3 363.0,363.1 363.2,367.4 363.4,324.0 363.6,278.1 363.8,232.8 363.9,233.0 364.1,278.3 364.3,324.3 364.5,366.2 364.7,361.7 364.9,311.9 365.0,265.3 365.2,229.2 365.4,242.3 365.6,290.6 365.8,337.8 365.9,366.3 366.1,350.8 366.3,301.1 366.5,253.4 366.6,229.1 366.8,253.9 367.0,301.5 367.1,350.2 367.3,365.2 367.5,336.6 367.7,290.3 367.8,243.9 368.0,232.0 368.2,266.7 368.3,312.1 368.5,357.9 368.7,362.3 368.8,323.1 369.0,278.9 369.2,237.6 369.3,237.9 369.5,279.2 369.7,323.3 369.8,361.1 370.0,356.4 370.1,311.6 370.3,267.4 370.5,234.6 370.6,246.4 370.8,290.6 370.9,335.1 371.1,361.5 371.3,346.7 371.4,301.2 371.6,256.9 371.7,234.5 371.9,256.9 372.0,301.0 372.2,345.5 372.4,360.3 372.5,334.5 372.7,290.9 372.8,248.6 373.0,237.3 373.1,268.3 373.3,311.1 373.4,352.4 373.6,357.3 373.7,322.5 373.9,280.5 374.0,243.0 374.2,242.6 374.3,279.5 374.5,321.3 374.6,355.7 374.8,351.6 374.9,311.8 375.0,270.3 375.2,240.2 375.3,250.2 375.5,290.1 375.6,331.5 375.8,356.4 375.9,343.1 376.1,301.9 376.2,261.1 376.3,240.1 376.5,259.4 376.6,299.9 376.8,340.4 376.9,355.2 377.0,332.8 377.2,292.3 377.3,253.8 377.5,242.5 377.6,269.4 377.7,309.3 377.9,346.6 378.0,352.3 378.1,322.3 378.3,282.9 378.4,248.7 378.5,247.1 378.7,279.4 378.8,318.4 378.9,350.0 379.1,347.3 379.2,312.5 379.3,273.9 379.5,246.0 379.6,253.5 379.7,289.0 379.9,327.3 380.0,351.0 380.1,340.2 380.3,303.3 380.4,265.9 380.5,245.7 380.7,261.4 380.8,298.0 380.9,334.9 381.0,350.2 381.2,331.6 381.3,294.6 381.4,259.3 381.6,247.5 381.7,270.0 381.8,306.6 381.9,340.6 382.1,347.7 382.2,322.6 382.3,286.2 382.4,254.6 382.6,251.1 382.7,278.7 382.8,314.7 382.9,344.1 383.0,343.6 383.2,313.8 383.3,278.3 383.4,251.9 383.5,256.3 383.7,287.3 383.8,322.4 383.9,345.5 384.0,337.9 384.1,305.5 384.3,271.1 384.4,251.1 384.5,262.8 384.6,295.4 384.7,329.1 384.9,345.3 385.0,330.9 385.1,297.6 385.2,265.2 385.3,252.1 385.4,269.9 385.6,303.1 385.7,334.5 385.8,343.6 385.9,323.4 386.0,290.2 386.1,260.7 386.2,254.7 386.4,277.4 386.5,310.4 386.6,338.1 386.7,340.5 386.8,315.8 386.9,283.1 387.0,257.7 387.2,258.6 387.3,284.9 387.4,317.1 387.5,340.1 387.6,336.2 387.7,308.4 387.8,276.7 387.9,256.3 388.0,263.6 388.2,292.0 388.3,323.2 388.4,340.6 388.5,330.8 388.6,301.4 388.7,271.2 388.8,256.4 388.9,269.3 389.0,298.9 389.1,328.3 389.2,339.9 389.4,324.7 389.5,294.8 389.6,266.7 389.7,257.8 389.8,275.4 389.9,305.4 390.0,332.2 390.1,338.0 390.2,318.4 390.3,288.4 390.4,263.4 390.5,260.3 390.6,281.7 390.7,311.5 390.8,334.9 390.9,335.1 391.0,312.1 391.1,282.6 391.2,261.2 391.3,263.8 391.4,288.0 391.6,317.2 391.7,336.4 391.8,331.3 391.9,305.9 392.0,277.2" fill="none" stroke="#22c55e" stroke-width="1.3" stroke-linejoin="round"/>
  </g>
  <g clip-path="url(#clip4)">
  <polyline points="442.0,233.9 442.7,298.5 443.4,298.5 444.1,298.5 444.8,298.5 445.5,298.5 446.2,298.5 446.9,298.5 447.6,298.5 448.3,298.5 449.0,298.5 449.7,298.5 450.4,298.5 451.1,298.5 451.8,298.5 452.5,298.5 453.2,298.5 453.9,298.5 454.6,298.5 455.3,298.5 456.0,298.5 456.7,298.5 457.4,298.5 458.1,298.5 458.8,298.5 459.5,298.5 460.2,298.5 460.9,298.5 461.6,298.5 462.3,298.5 463.0,298.5 463.7,298.5 464.4,298.5 465.1,298.5 465.8,298.5 466.5,298.5 467.2,298.5 467.9,298.5 468.6,298.5 469.3,298.5 470.0,298.5 470.7,298.5 471.4,298.5 472.1,298.5 472.8,298.5 473.5,298.5 474.2,298.5 474.9,298.5 475.6,298.5 476.3,298.5 477.0,298.5 477.7,298.5 478.4,298.5 479.1,298.5 479.8,298.5 480.5,298.5 481.2,298.5 481.9,298.5 482.6,298.5 483.3,298.5 484.0,298.5 484.7,298.5 485.4,298.5 486.1,298.5 486.8,298.5 487.4,298.5 488.1,298.5 488.8,298.5 489.5,298.5 490.2,298.5 490.9,298.5 491.6,298.5 492.3,298.5 493.0,298.5 493.7,298.5 494.4,298.5 495.1,298.5 495.8,298.5 496.5,298.5 497.2,298.5 497.9,298.5 498.6,298.5 499.3,298.5 500.0,298.5 500.7,298.5 501.4,298.5 502.1,298.5 502.8,298.5 503.5,298.5 504.2,298.5 504.9,298.5 505.6,298.5 506.3,298.5 507.0,298.5 507.7,298.5 508.4,298.5 509.1,298.5 509.8,298.5 510.5,298.5 511.2,298.5 511.9,298.5 512.6,298.5 513.3,298.5 514.0,298.5 514.7,298.5 515.4,298.5 516.1,298.5 516.8,298.5 517.5,298.5 518.2,298.5 518.9,298.5 519.6,298.5 520.3,298.5 521.0,298.5 521.7,298.5 522.4,298.5 523.1,298.5 523.8,298.5 524.5,298.5 525.2,298.5 525.9,298.5 526.6,298.5 527.3,298.5 528.0,298.5 528.7,298.5 529.4,298.5 530.1,298.5 530.8,298.5 531.5,298.5 532.2,298.5 532.9,298.5 533.6,298.5 534.3,253.3 535.0,279.1 535.7,298.5 536.4,298.5 537.1,298.5 537.8,298.5 538.5,298.5 539.2,298.5 539.9,298.5 540.6,298.5 541.3,298.5 542.0,298.5 542.7,298.5 543.4,298.5 544.1,298.5 544.8,298.5 545.5,298.5 546.2,298.5 546.9,298.5 547.6,298.5 548.3,298.5 549.0,298.5 549.7,298.5 550.4,298.5 551.1,298.5 551.8,298.5 552.5,298.5 553.2,298.5 553.9,298.5 554.6,298.5 555.3,298.5 556.0,298.5 556.7,298.5 557.4,298.5 558.1,298.5 558.8,298.5 559.5,298.5 560.2,298.5 560.9,298.5 561.6,298.5 562.3,298.5 563.0,298.5 563.7,298.5 564.4,298.5 565.1,298.5 565.8,298.5 566.5,298.5 567.2,298.5 567.9,298.5 568.6,298.5 569.3,298.5 570.0,298.5 570.7,298.5 571.4,298.5 572.1,298.5 572.8,298.5 573.5,298.5 574.2,298.5 574.9,298.5 575.6,298.5 576.3,298.5 576.9,298.5 577.6,298.5 578.3,298.5 579.0,298.5 579.7,298.5 580.4,298.5 581.1,298.5 581.8,298.5 582.5,298.5 583.2,298.5 583.9,298.5 584.6,298.5 585.3,298.5 586.0,298.5 586.7,298.5 587.4,298.5 588.1,298.5 588.8,298.5 589.5,298.5 590.2,298.5 590.9,298.5 591.6,298.5 592.3,298.5 593.0,298.5 593.7,298.5 594.4,298.5 595.1,298.5 595.8,298.5 596.5,298.5 597.2,298.5 597.9,298.5 598.6,298.5 599.3,298.5 600.0,298.5 600.7,298.5 601.4,298.5 602.1,298.5 602.8,298.5 603.5,298.5 604.2,298.5 604.9,298.5 605.6,298.5 606.3,298.5 607.0,298.5 607.7,298.5 608.4,298.5 609.1,298.5 609.8,298.5 610.5,298.5 611.2,298.5 611.9,298.5 612.6,298.5 613.3,298.5 614.0,298.5 614.7,298.5 615.4,298.5 616.1,298.5 616.8,298.5 617.5,298.5 618.2,298.5 618.9,298.5 619.6,298.5 620.3,298.5 621.0,298.5 621.7,298.5 622.4,298.5 623.1,298.5 623.8,298.5 624.5,298.5 625.2,298.5 625.9,298.5 626.6,282.7 627.3,284.9 628.0,295.6 628.7,298.5 629.4,298.5 630.1,298.5 630.8,298.5 631.5,298.5 632.2,298.5 632.9,298.5 633.6,298.5 634.3,298.5 635.0,298.5 635.7,298.5 636.4,298.5 637.1,298.5 637.8,298.5 638.5,298.5 639.2,298.5 639.9,298.5 640.6,298.5 641.3,298.5 642.0,298.5 642.7,298.5 643.4,298.5 644.1,298.5 644.8,298.5 645.5,298.5 646.2,298.5 646.9,298.5 647.6,298.5 648.3,298.5 649.0,298.5 649.7,298.5 650.4,298.5 651.1,298.5 651.8,298.5 652.5,298.5 653.2,298.5 653.9,298.5 654.6,298.5 655.3,298.5 656.0,298.5 656.7,298.5 657.4,298.5 658.1,298.5 658.8,298.5 659.5,298.5 660.2,298.5 660.9,298.5 661.6,298.5 662.3,298.5 663.0,298.5 663.7,298.5 664.4,298.5 665.1,298.5 665.8,298.5 666.4,298.5 667.1,298.5 667.8,298.5 668.5,298.5 669.2,298.5 669.9,298.5 670.6,298.5 671.3,298.5 672.0,298.5 672.7,298.5 673.4,298.5 674.1,298.5 674.8,298.5 675.5,298.5 676.2,298.5 676.9,298.5 677.6,298.5 678.3,298.5 679.0,298.5 679.7,298.5 680.4,298.5 681.1,298.5 681.8,298.5 682.5,298.5 683.2,298.5 683.9,298.5 684.6,298.5 685.3,298.5 686.0,298.5 686.7,298.5 687.4,298.5 688.1,298.5 688.8,298.5 689.5,298.5 690.2,298.5 690.9,298.5 691.6,298.5 692.3,298.5 693.0,298.5 693.7,298.5 694.4,298.5 695.1,298.5 695.8,298.5 696.5,298.5 697.2,298.5 697.9,298.5 698.6,298.5 699.3,298.5 700.0,298.5 700.7,298.5 701.4,298.5 702.1,298.5 702.8,298.5 703.5,298.5 704.2,298.5 704.9,298.5 705.6,298.5 706.3,298.5 707.0,298.5 707.7,298.5 708.4,298.5 709.1,298.5 709.8,298.5 710.5,298.5 711.2,298.5 711.9,298.5 712.6,298.5 713.3,298.5 714.0,298.5 714.7,298.5 715.4,298.5 716.1,298.5 716.8,298.5 717.5,298.5 718.2,298.5 718.9,293.0 719.6,291.4 720.3,295.4 721.0,298.1 721.7,298.5 722.4,298.5 723.1,298.5 723.8,298.5 724.5,298.5 725.2,298.5 725.9,298.5 726.6,298.5 727.3,298.5 728.0,298.5 728.7,298.5 729.4,298.5 730.1,298.5 730.8,298.5 731.5,298.5 732.2,298.5 732.9,298.5 733.6,298.5 734.3,298.5 735.0,298.5 735.7,298.5 736.4,298.5 737.1,298.5 737.8,298.5 738.5,298.5 739.2,298.5 739.9,298.5 740.6,298.5 741.3,298.5 742.0,298.5 742.7,298.5 743.4,298.5 744.1,298.5 744.8,298.5 745.5,298.5 746.2,298.5 746.9,298.5 747.6,298.5 748.3,298.5 749.0,298.5 749.7,298.5 750.4,298.5 751.1,298.5 751.8,298.5 752.5,298.5 753.2,298.5 753.9,298.5 754.6,298.5 755.3,298.5 755.9,298.5 756.6,298.5 757.3,298.5 758.0,298.5 758.7,298.5 759.4,298.5 760.1,298.5 760.8,298.5 761.5,298.5 762.2,298.5 762.9,298.5 763.6,298.5 764.3,298.5 765.0,298.5 765.7,298.5 766.4,298.5 767.1,298.5 767.8,298.5 768.5,298.5 769.2,298.5 769.9,298.5 770.6,298.5 771.3,298.5 772.0,298.5 772.7,298.5 773.4,298.5 774.1,298.5 774.8,298.5 775.5,298.5 776.2,298.5 776.9,298.5 777.6,298.5 778.3,298.5 779.0,298.5 779.7,298.5 780.4,298.5 781.1,298.5 781.8,298.5 782.5,298.5 783.2,298.5 783.9,298.5 784.6,298.5 785.3,298.5 786.0,298.5 786.7,298.5 787.4,298.5 788.1,298.5 788.8,298.5 789.5,298.5 790.2,298.5 790.9,298.5 791.6,298.5 792.3,298.5 793.0,298.5 793.7,298.5 794.4,298.5 795.1,298.5 795.8,298.5 796.5,298.5 797.2,298.5 797.9,298.5 798.6,298.5 799.3,298.5" fill="none" stroke="#22c55e" stroke-width="1.2" stroke-linejoin="round"/>
  </g>
  <line x1="34" y1="8" x2="46" y2="8" stroke="#3b82f6" stroke-width="2"/>
  <text x="49" y="11.0" font-size="11" fill="#6b7280">min delay</text>
  <line x1="108.5" y1="8" x2="120.5" y2="8" stroke="#ef4444" stroke-width="2"/>
  <text x="123.5" y="11.0" font-size="11" fill="#6b7280">center delay</text>
  <line x1="199.5" y1="8" x2="211.5" y2="8" stroke="#22c55e" stroke-width="2"/>
  <text x="214.5" y="11.0" font-size="11" fill="#6b7280">max delay</text>
</svg>
