<svg xmlns="http://www.w3.org/2000/svg" viewBox="0 0 820 392" style="font-family:system-ui,-apple-system,sans-serif">
  <defs>
    <clipPath id="u38"><rect x="34" y="16" width="766" height="360"/></clipPath>

    <linearGradient id="u39" x1="0" y1="16" x2="0" y2="196" gradientUnits="userSpaceOnUse"><stop offset="0%" stop-color="#3b82f6" stop-opacity="0.15"/><stop offset="100%" stop-color="#3b82f6" stop-opacity="0.01"/></linearGradient>
  </defs>
  <text x="800" y="11" text-anchor="end" font-size="11" fill="#6b7280" font-weight="600">Gain +12 dB — sine at 440Hz</text>
  <line x1="34" y1="16" x2="34" y2="376" stroke="#d1d5db" stroke-width="1"/>
  <line x1="34" y1="376" x2="800" y2="376" stroke="#d1d5db" stroke-width="1"/>
  <line x1="34" y1="16" x2="34" y2="376" stroke="#e5e7eb" stroke-width="0.5"/>
  <text x="34" y="388" text-anchor="middle" font-size="8" fill="#6b7280">0</text>
  <line x1="198.9" y1="16" x2="198.9" y2="376" stroke="#e5e7eb" stroke-width="0.5"/>
  <text x="198.9" y="388" text-anchor="middle" font-size="8" fill="#6b7280">10</text>
  <line x1="363.9" y1="16" x2="363.9" y2="376" stroke="#e5e7eb" stroke-width="0.5"/>
  <text x="363.9" y="388" text-anchor="middle" font-size="8" fill="#6b7280">20</text>
  <line x1="528.8" y1="16" x2="528.8" y2="376" stroke="#e5e7eb" stroke-width="0.5"/>
  <text x="528.8" y="388" text-anchor="middle" font-size="8" fill="#6b7280">30</text>
  <line x1="693.8" y1="16" x2="693.8" y2="376" stroke="#e5e7eb" stroke-width="0.5"/>
  <text x="693.8" y="388" text-anchor="middle" font-size="8" fill="#6b7280">40</text>
  <line x1="34" y1="346" x2="800" y2="346" stroke="#e5e7eb" stroke-width="0.5"/>
  <text x="30" y="349" text-anchor="end" font-size="8" fill="#6b7280">-1</text>
  <line x1="34" y1="271" x2="800" y2="271" stroke="#e5e7eb" stroke-width="0.5"/>
  <text x="30" y="274" text-anchor="end" font-size="8" fill="#6b7280">-0.5</text>
  <line x1="34" y1="196" x2="800" y2="196" stroke="#e5e7eb" stroke-width="0.5"/>
  <text x="30" y="199" text-anchor="end" font-size="8" fill="#6b7280">0</text>
  <line x1="34" y1="121" x2="800" y2="121" stroke="#e5e7eb" stroke-width="0.5"/>
  <text x="30" y="124" text-anchor="end" font-size="8" fill="#6b7280">0.5</text>
  <line x1="34" y1="46" x2="800" y2="46" stroke="#e5e7eb" stroke-width="0.5"/>
  <text x="30" y="49" text-anchor="end" font-size="8" fill="#6b7280">1</text>
  <line x1="34" y1="196" x2="800" y2="196" stroke="#d1d5db" stroke-width="0.5"/>
  <text x="417" y="402" text-anchor="middle" font-size="9" fill="#6b7280">ms</text>
  <text x="12" y="196" text-anchor="middle" font-size="9" fill="#6b7280">amp</text>
  <polygon clip-path="url(#u38)" points="34.0,196.0 34.5,158.6 35.5,47.8 36.5,16.0 37.5,16.0 38.5,16.0 39.5,16.0 40.5,16.0 41.5,16.0 42.5,16.0 43.5,16.0 44.5,16.0 45.5,16.0 46.5,16.0 47.5,16.0 48.5,16.0 49.5,16.0 50.5,16.0 51.5,16.0 52.5,117.1 53.5,191.7 54.5,303.5 55.5,376.0 56.5,376.0 57.5,376.0 58.5,376.0 59.5,376.0 60.5,376.0 61.5,376.0 62.5,376.0 63.5,376.0 64.5,376.0 65.5,376.0 66.5,376.0 67.5,376.0 68.5,376.0 69.5,376.0 70.5,316.0 71.5,204.5 72.5,92.7 73.5,20.0 74.5,16.0 75.5,16.0 76.5,16.0 77.5,16.0 78.5,16.0 79.5,16.0 80.5,16.0 81.5,16.0 82.5,16.0 83.5,16.0 84.5,16.0 85.5,16.0 86.5,16.0 87.5,16.0 88.5,16.0 89.5,71.8 90.5,145.9 91.5,258.0 92.5,367.9 93.5,376.0 94.5,376.0 95.5,376.0 96.5,376.0 97.5,376.0 98.5,376.0 99.5,376.0 100.5,376.0 101.5,376.0 102.5,376.0 103.5,376.0 104.5,376.0 105.5,376.0 106.5,376.0 107.5,360.6 108.5,250.4 109.5,138.2 110.5,64.4 111.5,16.0 112.5,16.0 113.5,16.0 114.5,16.0 115.5,16.0 116.5,16.0 117.5,16.0 118.5,16.0 119.5,16.0 120.5,16.0 121.5,16.0 122.5,16.0 123.5,16.0 124.5,16.0 125.5,16.0 126.5,16.0 127.5,100.3 128.5,212.2 129.5,286.7 130.5,376.0 131.5,376.0 132.5,376.0 133.5,376.0 134.5,376.0 135.5,376.0 136.5,376.0 137.5,376.0 138.5,376.0 139.5,376.0 140.5,376.0 141.5,376.0 142.5,376.0 143.5,376.0 144.5,376.0 145.5,295.9 146.5,184.1 147.5,109.5 148.5,16.0 149.5,16.0 150.5,16.0 151.5,16.0 152.5,16.0 153.5,16.0 154.5,16.0 155.5,16.0 156.5,16.0 157.5,16.0 158.5,16.0 159.5,16.0 160.5,16.0 161.5,16.0 162.5,16.0 163.5,16.0 164.5,55.3 165.5,166.2 166.5,241.1 167.5,351.6 168.5,376.0 169.5,376.0 170.5,376.0 171.5,376.0 172.5,376.0 173.5,376.0 174.5,376.0 175.5,376.0 176.5,376.0 177.5,376.0 178.5,376.0 179.5,376.0 180.5,376.0 181.5,376.0 182.5,340.9 183.5,230.0 184.5,155.2 185.5,44.5 186.5,16.0 187.5,16.0 188.5,16.0 189.5,16.0 190.5,16.0 191.5,16.0 192.5,16.0 193.5,16.0 194.5,16.0 195.5,16.0 196.5,16.0 197.5,16.0 198.5,16.0 199.5,16.0 200.5,16.0 201.5,16.0 202.5,120.5 203.5,195.1 204.5,306.8 205.5,376.0 206.5,376.0 207.5,376.0 208.5,376.0 209.5,376.0 210.5,376.0 211.5,376.0 212.5,376.0 213.5,376.0 214.5,376.0 215.5,376.0 216.5,376.0 217.5,376.0 218.5,376.0 219.5,376.0 220.5,312.7 221.5,201.1 222.5,89.4 223.5,16.7 224.5,16.0 225.5,16.0 226.5,16.0 227.5,16.0 228.5,16.0 229.5,16.0 230.5,16.0 231.5,16.0 232.5,16.0 233.5,16.0 234.5,16.0 235.5,16.0 236.5,16.0 237.5,16.0 238.5,16.0 239.5,75.2 240.5,149.3 241.5,261.4 242.5,371.2 243.5,376.0 244.5,376.0 245.5,376.0 246.5,376.0 247.5,376.0 248.5,376.0 249.5,376.0 250.5,376.0 251.5,376.0 252.5,376.0 253.5,376.0 254.5,376.0 255.5,376.0 256.5,376.0 257.5,357.3 258.5,247.0 259.5,134.8 260.5,61.0 261.5,16.0 262.5,16.0 263.5,16.0 264.5,16.0 265.5,16.0 266.5,16.0 267.5,16.0 268.5,16.0 269.5,16.0 270.5,16.0 271.5,16.0 272.5,16.0 273.5,16.0 274.5,16.0 275.5,16.0 276.5,30.6 277.5,103.6 278.5,215.6 279.5,326.8 280.5,376.0 281.5,376.0 282.5,376.0 283.5,376.0 284.5,376.0 285.5,376.0 286.5,376.0 287.5,376.0 288.5,376.0 289.5,376.0 290.5,376.0 291.5,376.0 292.5,376.0 293.5,376.0 294.5,376.0 295.5,292.6 296.5,180.7 297.5,106.2 298.5,16.0 299.5,16.0 300.5,16.0 301.5,16.0 302.5,16.0 303.5,16.0 304.5,16.0 305.5,16.0 306.5,16.0 307.5,16.0 308.5,16.0 309.5,16.0 310.5,16.0 311.5,16.0 312.5,16.0 313.5,16.0 314.5,58.6 315.5,169.6 316.5,244.4 317.5,354.9 318.5,376.0 319.5,376.0 320.5,376.0 321.5,376.0 322.5,376.0 323.5,376.0 324.5,376.0 325.5,376.0 326.5,376.0 327.5,376.0 328.5,376.0 329.5,376.0 330.5,376.0 331.5,376.0 332.5,337.6 333.5,226.6 334.5,151.8 335.5,41.2 336.5,16.0 337.5,16.0 338.5,16.0 339.5,16.0 340.5,16.0 341.5,16.0 342.5,16.0 343.5,16.0 344.5,16.0 345.5,16.0 346.5,16.0 347.5,16.0 348.5,16.0 349.5,16.0 350.5,16.0 351.5,16.0 352.5,123.9 353.5,198.6 354.5,310.2 355.5,376.0 356.5,376.0 357.5,376.0 358.5,376.0 359.5,376.0 360.5,376.0 361.5,376.0 362.5,376.0 363.5,376.0 364.5,376.0 365.5,376.0 366.5,376.0 367.5,376.0 368.5,376.0 369.5,376.0 370.5,272.4 371.5,197.7 372.5,86.0 373.5,16.0 374.5,16.0 375.5,16.0 376.5,16.0 377.5,16.0 378.5,16.0 379.5,16.0 380.5,16.0 381.5,16.0 382.5,16.0 383.5,16.0 384.5,16.0 385.5,16.0 386.5,16.0 387.5,16.0 388.5,16.0 389.5,78.5 390.5,152.6 391.5,264.8 392.5,374.5 393.5,376.0 394.5,376.0 395.5,376.0 396.5,376.0 397.5,376.0 398.5,376.0 399.5,376.0 400.5,376.0 401.5,376.0 402.5,376.0 403.5,376.0 404.5,376.0 405.5,376.0 406.5,376.0 407.5,354.0 408.5,243.6 409.5,131.5 410.5,57.7 411.5,16.0 412.5,16.0 413.5,16.0 414.5,16.0 415.5,16.0 416.5,16.0 417.5,16.0 418.5,16.0 419.5,16.0 420.5,16.0 421.5,16.0 422.5,16.0 423.5,16.0 424.5,16.0 425.5,16.0 426.5,33.9 427.5,107.0 428.5,219.0 429.5,330.1 430.5,376.0 431.5,376.0 432.5,376.0 433.5,376.0 434.5,376.0 435.5,376.0 436.5,376.0 437.5,376.0 438.5,376.0 439.5,376.0 440.5,376.0 441.5,376.0 442.5,376.0 443.5,376.0 444.5,376.0 445.5,289.2 446.5,177.3 447.5,102.8 448.5,16.0 449.5,16.0 450.5,16.0 451.5,16.0 452.5,16.0 453.5,16.0 454.5,16.0 455.5,16.0 456.5,16.0 457.5,16.0 458.5,16.0 459.5,16.0 460.5,16.0 461.5,16.0 462.5,16.0 463.5,16.0 464.5,61.9 465.5,173.0 466.5,285.0 467.5,358.1 468.5,376.0 469.5,376.0 470.5,376.0 471.5,376.0 472.5,376.0 473.5,376.0 474.5,376.0 475.5,376.0 476.5,376.0 477.5,376.0 478.5,376.0 479.5,376.0 480.5,376.0 481.5,376.0 482.5,334.3 483.5,223.2 484.5,148.4 485.5,38.0 486.5,16.0 487.5,16.0 488.5,16.0 489.5,16.0 490.5,16.0 491.5,16.0 492.5,16.0 493.5,16.0 494.5,16.0 495.5,16.0 496.5,16.0 497.5,16.0 498.5,16.0 499.5,16.0 500.5,16.0 501.5,17.5 502.5,127.2 503.5,202.0 504.5,313.5 505.5,376.0 506.5,376.0 507.5,376.0 508.5,376.0 509.5,376.0 510.5,376.0 511.5,376.0 512.5,376.0 513.5,376.0 514.5,376.0 515.5,376.0 516.5,376.0 517.5,376.0 518.5,376.0 519.5,376.0 520.5,269.0 521.5,194.3 522.5,82.7 523.5,16.0 524.5,16.0 525.5,16.0 526.5,16.0 527.5,16.0 528.5,16.0 529.5,16.0 530.5,16.0 531.5,16.0 532.5,16.0 533.5,16.0 534.5,16.0 535.5,16.0 536.5,16.0 537.5,16.0 538.5,16.0 539.5,81.8 540.5,156.0 541.5,268.1 542.5,376.0 543.5,376.0 544.5,376.0 545.5,376.0 546.5,376.0 547.5,376.0 548.5,376.0 549.5,376.0 550.5,376.0 551.5,376.0 552.5,376.0 553.5,376.0 554.5,376.0 555.5,376.0 556.5,376.0 557.5,350.8 558.5,240.2 559.5,128.1 560.5,18.4 561.5,16.0 562.5,16.0 563.5,16.0 564.5,16.0 565.5,16.0 566.5,16.0 567.5,16.0 568.5,16.0 569.5,16.0 570.5,16.0 571.5,16.0 572.5,16.0 573.5,16.0 574.5,16.0 575.5,16.0 576.5,37.1 577.5,110.4 578.5,222.4 579.5,333.4 580.5,376.0 581.5,376.0 582.5,376.0 583.5,376.0 584.5,376.0 585.5,376.0 586.5,376.0 587.5,376.0 588.5,376.0 589.5,376.0 590.5,376.0 591.5,376.0 592.5,376.0 593.5,376.0 594.5,376.0 595.5,285.8 596.5,173.9 597.5,99.4 598.5,16.0 599.5,16.0 600.5,16.0 601.5,16.0 602.5,16.0 603.5,16.0 604.5,16.0 605.5,16.0 606.5,16.0 607.5,16.0 608.5,16.0 609.5,16.0 610.5,16.0 611.5,16.0 612.5,16.0 613.5,16.0 614.5,65.2 615.5,176.4 616.5,288.4 617.5,361.4 618.5,376.0 619.5,376.0 620.5,376.0 621.5,376.0 622.5,376.0 623.5,376.0 624.5,376.0 625.5,376.0 626.5,376.0 627.5,376.0 628.5,376.0 629.5,376.0 630.5,376.0 631.5,376.0 632.5,331.0 633.5,219.8 634.5,145.0 635.5,34.7 636.5,16.0 637.5,16.0 638.5,16.0 639.5,16.0 640.5,16.0 641.5,16.0 642.5,16.0 643.5,16.0 644.5,16.0 645.5,16.0 646.5,16.0 647.5,16.0 648.5,16.0 649.5,16.0 650.5,16.0 651.5,20.8 652.5,130.6 653.5,205.4 654.5,316.8 655.5,376.0 656.5,376.0 657.5,376.0 658.5,376.0 659.5,376.0 660.5,376.0 661.5,376.0 662.5,376.0 663.5,376.0 664.5,376.0 665.5,376.0 666.5,376.0 667.5,376.0 668.5,376.0 669.5,375.3 670.5,265.6 671.5,190.9 672.5,79.3 673.5,16.0 674.5,16.0 675.5,16.0 676.5,16.0 677.5,16.0 678.5,16.0 679.5,16.0 680.5,16.0 681.5,16.0 682.5,16.0 683.5,16.0 684.5,16.0 685.5,16.0 686.5,16.0 687.5,16.0 688.5,16.0 689.5,85.2 690.5,159.4 691.5,271.5 692.5,376.0 693.5,376.0 694.5,376.0 695.5,376.0 696.5,376.0 697.5,376.0 698.5,376.0 699.5,376.0 700.5,376.0 701.5,376.0 702.5,376.0 703.5,376.0 704.5,376.0 705.5,376.0 706.5,376.0 707.5,311.0 708.5,236.8 709.5,124.7 710.5,16.0 711.5,16.0 712.5,16.0 713.5,16.0 714.5,16.0 715.5,16.0 716.5,16.0 717.5,16.0 718.5,16.0 719.5,16.0 720.5,16.0 721.5,16.0 722.5,16.0 723.5,16.0 724.5,16.0 725.5,16.0 726.5,40.4 727.5,113.7 728.5,225.8 729.5,336.7 730.5,376.0 731.5,376.0 732.5,376.0 733.5,376.0 734.5,376.0 735.5,376.0 736.5,376.0 737.5,376.0 738.5,376.0 739.5,376.0 740.5,376.0 741.5,376.0 742.5,376.0 743.5,376.0 744.5,376.0 745.5,282.5 746.5,170.5 747.5,96.1 748.5,16.0 749.5,16.0 750.5,16.0 751.5,16.0 752.5,16.0 753.5,16.0 754.5,16.0 755.5,16.0 756.5,16.0 757.5,16.0 758.5,16.0 759.5,16.0 760.5,16.0 761.5,16.0 762.5,16.0 763.5,16.0 764.5,68.5 765.5,179.8 766.5,291.7 767.5,364.7 768.5,376.0 769.5,376.0 770.5,376.0 771.5,376.0 772.5,376.0 773.5,376.0 774.5,376.0 775.5,376.0 776.5,376.0 777.5,376.0 778.5,376.0 779.5,376.0 780.5,376.0 781.5,376.0 782.5,327.6 783.5,216.4 784.5,141.6 785.5,31.4 786.5,16.0 787.5,16.0 788.5,16.0 789.5,16.0 790.5,16.0 791.5,16.0 792.5,16.0 793.5,16.0 794.5,16.0 795.5,16.0 796.5,16.0 797.5,16.0 798.5,16.0 799.5,16.0 800.0,196.0" fill="url(#u39)"/>
  <polyline clip-path="url(#u38)" points="34.5,196.0 34.5,158.6 35.5,121.3 35.5,47.8 36.5,16.0 36.5,16.0 37.5,16.0 37.5,16.0 38.5,16.0 38.5,16.0 39.5,16.0 39.5,16.0 40.5,16.0 40.5,16.0 41.5,16.0 41.5,16.0 42.5,16.0 42.5,16.0 43.5,16.0 43.5,16.0 44.5,16.0 44.5,16.0 45.5,16.0 45.5,16.0 46.5,16.0 46.5,16.0 47.5,16.0 47.5,16.0 48.5,16.0 48.5,16.0 49.5,16.0 49.5,16.0 50.5,16.0 50.5,16.0 51.5,80.2 51.5,16.0 52.5,154.3 52.5,117.1 53.5,266.5 53.5,191.7 54.5,376.0 54.5,303.5 55.5,376.0 55.5,376.0 56.5,376.0 56.5,376.0 57.5,376.0 57.5,376.0 58.5,376.0 58.5,376.0 59.5,376.0 59.5,376.0 60.5,376.0 60.5,376.0 61.5,376.0 61.5,376.0 62.5,376.0 62.5,376.0 63.5,376.0 63.5,376.0 64.5,376.0 64.5,376.0 65.5,376.0 65.5,376.0 66.5,376.0 66.5,376.0 67.5,376.0 67.5,376.0 68.5,376.0 68.5,376.0 69.5,376.0 69.5,376.0 70.5,352.4 70.5,316.0 71.5,279.1 71.5,204.5 72.5,167.1 72.5,92.7 73.5,56.1 73.5,20.0 74.5,16.0 74.5,16.0 75.5,16.0 75.5,16.0 76.5,16.0 76.5,16.0 77.5,16.0 77.5,16.0 78.5,16.0 78.5,16.0 79.5,16.0 79.5,16.0 80.5,16.0 80.5,16.0 81.5,16.0 81.5,16.0 82.5,16.0 82.5,16.0 83.5,16.0 83.5,16.0 84.5,16.0 84.5,16.0 85.5,16.0 85.5,16.0 86.5,16.0 86.5,16.0 87.5,16.0 87.5,16.0 88.5,35.5 88.5,16.0 89.5,108.7 89.5,71.8 90.5,220.7 90.5,145.9 91.5,331.8 91.5,258.0 92.5,376.0 92.5,367.9 93.5,376.0 93.5,376.0 94.5,376.0 94.5,376.0 95.5,376.0 95.5,376.0 96.5,376.0 96.5,376.0 97.5,376.0 97.5,376.0 98.5,376.0 98.5,376.0 99.5,376.0 99.5,376.0 100.5,376.0 100.5,376.0 101.5,376.0 101.5,376.0 102.5,376.0 102.5,376.0 103.5,376.0 103.5,376.0 104.5,376.0 104.5,376.0 105.5,376.0 105.5,376.0 106.5,376.0 106.5,376.0 107.5,376.0 107.5,360.6 108.5,324.3 108.5,250.4 109.5,213.0 109.5,138.2 110.5,101.1 110.5,64.4 111.5,28.1 111.5,16.0 112.5,16.0 112.5,16.0 113.5,16.0 113.5,16.0 114.5,16.0 114.5,16.0 115.5,16.0 115.5,16.0 116.5,16.0 116.5,16.0 117.5,16.0 117.5,16.0 118.5,16.0 118.5,16.0 119.5,16.0 119.5,16.0 120.5,16.0 120.5,16.0 121.5,16.0 121.5,16.0 122.5,16.0 122.5,16.0 123.5,16.0 123.5,16.0 124.5,16.0 124.5,16.0 125.5,16.0 125.5,16.0 126.5,63.5 126.5,16.0 127.5,174.7 127.5,100.3 128.5,249.5 128.5,212.2 129.5,359.8 129.5,286.7 130.5,376.0 130.5,376.0 131.5,376.0 131.5,376.0 132.5,376.0 132.5,376.0 133.5,376.0 133.5,376.0 134.5,376.0 134.5,376.0 135.5,376.0 135.5,376.0 136.5,376.0 136.5,376.0 137.5,376.0 137.5,376.0 138.5,376.0 138.5,376.0 139.5,376.0 139.5,376.0 140.5,376.0 140.5,376.0 141.5,376.0 141.5,376.0 142.5,376.0 142.5,376.0 143.5,376.0 143.5,376.0 144.5,376.0 144.5,376.0 145.5,368.8 145.5,295.9 146.5,258.8 146.5,184.1 147.5,146.7 147.5,109.5 148.5,72.7 148.5,16.0 149.5,16.0 149.5,16.0 150.5,16.0 150.5,16.0 151.5,16.0 151.5,16.0 152.5,16.0 152.5,16.0 153.5,16.0 153.5,16.0 154.5,16.0 154.5,16.0 155.5,16.0 155.5,16.0 156.5,16.0 156.5,16.0 157.5,16.0 157.5,16.0 158.5,16.0 158.5,16.0 159.5,16.0 159.5,16.0 160.5,16.0 160.5,16.0 161.5,16.0 161.5,16.0 162.5,16.0 162.5,16.0 163.5,19.2 163.5,16.0 164.5,128.9 164.5,55.3 165.5,203.7 165.5,166.2 166.5,315.2 166.5,241.1 167.5,376.0 167.5,351.6 168.5,376.0 168.5,376.0 169.5,376.0 169.5,376.0 170.5,376.0 170.5,376.0 171.5,376.0 171.5,376.0 172.5,376.0 172.5,376.0 173.5,376.0 173.5,376.0 174.5,376.0 174.5,376.0 175.5,376.0 175.5,376.0 176.5,376.0 176.5,376.0 177.5,376.0 177.5,376.0 178.5,376.0 178.5,376.0 179.5,376.0 179.5,376.0 180.5,376.0 180.5,376.0 181.5,376.0 181.5,376.0 182.5,376.0 182.5,340.9 183.5,304.3 183.5,230.0 184.5,192.6 184.5,155.2 185.5,117.9 185.5,44.5 186.5,16.0 186.5,16.0 187.5,16.0 187.5,16.0 188.5,16.0 188.5,16.0 189.5,16.0 189.5,16.0 190.5,16.0 190.5,16.0 191.5,16.0 191.5,16.0 192.5,16.0 192.5,16.0 193.5,16.0 193.5,16.0 194.5,16.0 194.5,16.0 195.5,16.0 195.5,16.0 196.5,16.0 196.5,16.0 197.5,16.0 197.5,16.0 198.5,16.0 198.5,16.0 199.5,16.0 199.5,16.0 200.5,16.0 200.5,16.0 201.5,83.5 201.5,16.0 202.5,157.7 202.5,120.5 203.5,269.8 203.5,195.1 204.5,376.0 204.5,306.8 205.5,376.0 205.5,376.0 206.5,376.0 206.5,376.0 207.5,376.0 207.5,376.0 208.5,376.0 208.5,376.0 209.5,376.0 209.5,376.0 210.5,376.0 210.5,376.0 211.5,376.0 211.5,376.0 212.5,376.0 212.5,376.0 213.5,376.0 213.5,376.0 214.5,376.0 214.5,376.0 215.5,376.0 215.5,376.0 216.5,376.0 216.5,376.0 217.5,376.0 217.5,376.0 218.5,376.0 218.5,376.0 219.5,376.0 219.5,376.0 220.5,349.1 220.5,312.7 221.5,275.7 221.5,201.1 222.5,163.7 222.5,89.4 223.5,52.8 223.5,16.7 224.5,16.0 224.5,16.0 225.5,16.0 225.5,16.0 226.5,16.0 226.5,16.0 227.5,16.0 227.5,16.0 228.5,16.0 228.5,16.0 229.5,16.0 229.5,16.0 230.5,16.0 230.5,16.0 231.5,16.0 231.5,16.0 232.5,16.0 232.5,16.0 233.5,16.0 233.5,16.0 234.5,16.0 234.5,16.0 235.5,16.0 235.5,16.0 236.5,16.0 236.5,16.0 237.5,16.0 237.5,16.0 238.5,38.8 238.5,16.0 239.5,112.0 239.5,75.2 240.5,224.1 240.5,149.3 241.5,335.1 241.5,261.4 242.5,376.0 242.5,371.2 243.5,376.0 243.5,376.0 244.5,376.0 244.5,376.0 245.5,376.0 245.5,376.0 246.5,376.0 246.5,376.0 247.5,376.0 247.5,376.0 248.5,376.0 248.5,376.0 249.5,376.0 249.5,376.0 250.5,376.0 250.5,376.0 251.5,376.0 251.5,376.0 252.5,376.0 252.5,376.0 253.5,376.0 253.5,376.0 254.5,376.0 254.5,376.0 255.5,376.0 255.5,376.0 256.5,376.0 256.5,376.0 257.5,376.0 257.5,357.3 258.5,321.0 258.5,247.0 259.5,209.6 259.5,134.8 260.5,97.8 260.5,61.0 261.5,24.9 261.5,16.0 262.5,16.0 262.5,16.0 263.5,16.0 263.5,16.0 264.5,16.0 264.5,16.0 265.5,16.0 265.5,16.0 266.5,16.0 266.5,16.0 267.5,16.0 267.5,16.0 268.5,16.0 268.5,16.0 269.5,16.0 269.5,16.0 270.5,16.0 270.5,16.0 271.5,16.0 271.5,16.0 272.5,16.0 272.5,16.0 273.5,16.0 273.5,16.0 274.5,16.0 274.5,16.0 275.5,16.0 275.5,16.0 276.5,66.9 276.5,30.6 277.5,178.1 277.5,103.6 278.5,290.0 278.5,215.6 279.5,363.1 279.5,326.8 280.5,376.0 280.5,376.0 281.5,376.0 281.5,376.0 282.5,376.0 282.5,376.0 283.5,376.0 283.5,376.0 284.5,376.0 284.5,376.0 285.5,376.0 285.5,376.0 286.5,376.0 286.5,376.0 287.5,376.0 287.5,376.0 288.5,376.0 288.5,376.0 289.5,376.0 289.5,376.0 290.5,376.0 290.5,376.0 291.5,376.0 291.5,376.0 292.5,376.0 292.5,376.0 293.5,376.0 293.5,376.0 294.5,376.0 294.5,376.0 295.5,365.5 295.5,292.6 296.5,255.5 296.5,180.7 297.5,143.3 297.5,106.2 298.5,69.3 298.5,16.0 299.5,16.0 299.5,16.0 300.5,16.0 300.5,16.0 301.5,16.0 301.5,16.0 302.5,16.0 302.5,16.0 303.5,16.0 303.5,16.0 304.5,16.0 304.5,16.0 305.5,16.0 305.5,16.0 306.5,16.0 306.5,16.0 307.5,16.0 307.5,16.0 308.5,16.0 308.5,16.0 309.5,16.0 309.5,16.0 310.5,16.0 310.5,16.0 311.5,16.0 311.5,16.0 312.5,16.0 312.5,16.0 313.5,22.4 313.5,16.0 314.5,132.3 314.5,58.6 315.5,207.1 315.5,169.6 316.5,318.5 316.5,244.4 317.5,376.0 317.5,354.9 318.5,376.0 318.5,376.0 319.5,376.0 319.5,376.0 320.5,376.0 320.5,376.0 321.5,376.0 321.5,376.0 322.5,376.0 322.5,376.0 323.5,376.0 323.5,376.0 324.5,376.0 324.5,376.0 325.5,376.0 325.5,376.0 326.5,376.0 326.5,376.0 327.5,376.0 327.5,376.0 328.5,376.0 328.5,376.0 329.5,376.0 329.5,376.0 330.5,376.0 330.5,376.0 331.5,376.0 331.5,376.0 332.5,376.0 332.5,337.6 333.5,301.0 333.5,226.6 334.5,189.2 334.5,151.8 335.5,114.6 335.5,41.2 336.5,16.0 336.5,16.0 337.5,16.0 337.5,16.0 338.5,16.0 338.5,16.0 339.5,16.0 339.5,16.0 340.5,16.0 340.5,16.0 341.5,16.0 341.5,16.0 342.5,16.0 342.5,16.0 343.5,16.0 343.5,16.0 344.5,16.0 344.5,16.0 345.5,16.0 345.5,16.0 346.5,16.0 346.5,16.0 347.5,16.0 347.5,16.0 348.5,16.0 348.5,16.0 349.5,16.0 349.5,16.0 350.5,16.0 350.5,16.0 351.5,86.9 351.5,16.0 352.5,161.1 352.5,123.9 353.5,273.2 353.5,198.6 354.5,376.0 354.5,310.2 355.5,376.0 355.5,376.0 356.5,376.0 356.5,376.0 357.5,376.0 357.5,376.0 358.5,376.0 358.5,376.0 359.5,376.0 359.5,376.0 360.5,376.0 360.5,376.0 361.5,376.0 361.5,376.0 362.5,376.0 362.5,376.0 363.5,376.0 363.5,376.0 364.5,376.0 364.5,376.0 365.5,376.0 365.5,376.0 366.5,376.0 366.5,376.0 367.5,376.0 367.5,376.0 368.5,376.0 368.5,376.0 369.5,376.0 369.5,376.0 370.5,345.8 370.5,272.4 371.5,235.1 371.5,197.7 372.5,160.3 372.5,86.0 373.5,49.5 373.5,16.0 374.5,16.0 374.5,16.0 375.5,16.0 375.5,16.0 376.5,16.0 376.5,16.0 377.5,16.0 377.5,16.0 378.5,16.0 378.5,16.0 379.5,16.0 379.5,16.0 380.5,16.0 380.5,16.0 381.5,16.0 381.5,16.0 382.5,16.0 382.5,16.0 383.5,16.0 383.5,16.0 384.5,16.0 384.5,16.0 385.5,16.0 385.5,16.0 386.5,16.0 386.5,16.0 387.5,16.0 387.5,16.0 388.5,42.1 388.5,16.0 389.5,115.4 389.5,78.5 390.5,227.5 390.5,152.6 391.5,338.4 391.5,264.8 392.5,376.0 392.5,374.5 393.5,376.0 393.5,376.0 394.5,376.0 394.5,376.0 395.5,376.0 395.5,376.0 396.5,376.0 396.5,376.0 397.5,376.0 397.5,376.0 398.5,376.0 398.5,376.0 399.5,376.0 399.5,376.0 400.5,376.0 400.5,376.0 401.5,376.0 401.5,376.0 402.5,376.0 402.5,376.0 403.5,376.0 403.5,376.0 404.5,376.0 404.5,376.0 405.5,376.0 405.5,376.0 406.5,376.0 406.5,376.0 407.5,376.0 407.5,354.0 408.5,317.7 408.5,243.6 409.5,206.2 409.5,131.5 410.5,94.4 410.5,57.7 411.5,21.6 411.5,16.0 412.5,16.0 412.5,16.0 413.5,16.0 413.5,16.0 414.5,16.0 414.5,16.0 415.5,16.0 415.5,16.0 416.5,16.0 416.5,16.0 417.5,16.0 417.5,16.0 418.5,16.0 418.5,16.0 419.5,16.0 419.5,16.0 420.5,16.0 420.5,16.0 421.5,16.0 421.5,16.0 422.5,16.0 422.5,16.0 423.5,16.0 423.5,16.0 424.5,16.0 424.5,16.0 425.5,16.0 425.5,16.0 426.5,70.2 426.5,33.9 427.5,181.5 427.5,107.0 428.5,293.4 428.5,219.0 429.5,366.3 429.5,330.1 430.5,376.0 430.5,376.0 431.5,376.0 431.5,376.0 432.5,376.0 432.5,376.0 433.5,376.0 433.5,376.0 434.5,376.0 434.5,376.0 435.5,376.0 435.5,376.0 436.5,376.0 436.5,376.0 437.5,376.0 437.5,376.0 438.5,376.0 438.5,376.0 439.5,376.0 439.5,376.0 440.5,376.0 440.5,376.0 441.5,376.0 441.5,376.0 442.5,376.0 442.5,376.0 443.5,376.0 443.5,376.0 444.5,376.0 444.5,376.0 445.5,362.2 445.5,289.2 446.5,252.1 446.5,177.3 447.5,139.9 447.5,102.8 448.5,66.0 448.5,16.0 449.5,16.0 449.5,16.0 450.5,16.0 450.5,16.0 451.5,16.0 451.5,16.0 452.5,16.0 452.5,16.0 453.5,16.0 453.5,16.0 454.5,16.0 454.5,16.0 455.5,16.0 455.5,16.0 456.5,16.0 456.5,16.0 457.5,16.0 457.5,16.0 458.5,16.0 458.5,16.0 459.5,16.0 459.5,16.0 460.5,16.0 460.5,16.0 461.5,16.0 461.5,16.0 462.5,16.0 462.5,16.0 463.5,25.7 463.5,16.0 464.5,135.7 464.5,61.9 465.5,247.8 465.5,173.0 466.5,321.8 466.5,285.0 467.5,376.0 467.5,358.1 468.5,376.0 468.5,376.0 469.5,376.0 469.5,376.0 470.5,376.0 470.5,376.0 471.5,376.0 471.5,376.0 472.5,376.0 472.5,376.0 473.5,376.0 473.5,376.0 474.5,376.0 474.5,376.0 475.5,376.0 475.5,376.0 476.5,376.0 476.5,376.0 477.5,376.0 477.5,376.0 478.5,376.0 478.5,376.0 479.5,376.0 479.5,376.0 480.5,376.0 480.5,376.0 481.5,376.0 481.5,376.0 482.5,376.0 482.5,334.3 483.5,297.6 483.5,223.2 484.5,185.8 484.5,148.4 485.5,111.2 485.5,38.0 486.5,16.0 486.5,16.0 487.5,16.0 487.5,16.0 488.5,16.0 488.5,16.0 489.5,16.0 489.5,16.0 490.5,16.0 490.5,16.0 491.5,16.0 491.5,16.0 492.5,16.0 492.5,16.0 493.5,16.0 493.5,16.0 494.5,16.0 494.5,16.0 495.5,16.0 495.5,16.0 496.5,16.0 496.5,16.0 497.5,16.0 497.5,16.0 498.5,16.0 498.5,16.0 499.5,16.0 499.5,16.0 500.5,16.0 500.5,16.0 501.5,90.2 501.5,17.5 502.5,164.5 502.5,127.2 503.5,276.6 503.5,202.0 504.5,376.0 504.5,313.5 505.5,376.0 505.5,376.0 506.5,376.0 506.5,376.0 507.5,376.0 507.5,376.0 508.5,376.0 508.5,376.0 509.5,376.0 509.5,376.0 510.5,376.0 510.5,376.0 511.5,376.0 511.5,376.0 512.5,376.0 512.5,376.0 513.5,376.0 513.5,376.0 514.5,376.0 514.5,376.0 515.5,376.0 515.5,376.0 516.5,376.0 516.5,376.0 517.5,376.0 517.5,376.0 518.5,376.0 518.5,376.0 519.5,376.0 519.5,376.0 520.5,342.5 520.5,269.0 521.5,231.7 521.5,194.3 522.5,156.9 522.5,82.7 523.5,46.2 523.5,16.0 524.5,16.0 524.5,16.0 525.5,16.0 525.5,16.0 526.5,16.0 526.5,16.0 527.5,16.0 527.5,16.0 528.5,16.0 528.5,16.0 529.5,16.0 529.5,16.0 530.5,16.0 530.5,16.0 531.5,16.0 531.5,16.0 532.5,16.0 532.5,16.0 533.5,16.0 533.5,16.0 534.5,16.0 534.5,16.0 535.5,16.0 535.5,16.0 536.5,16.0 536.5,16.0 537.5,16.0 537.5,16.0 538.5,45.4 538.5,16.0 539.5,118.8 539.5,81.8 540.5,230.9 540.5,156.0 541.5,341.7 541.5,268.1 542.5,376.0 542.5,376.0 543.5,376.0 543.5,376.0 544.5,376.0 544.5,376.0 545.5,376.0 545.5,376.0 546.5,376.0 546.5,376.0 547.5,376.0 547.5,376.0 548.5,376.0 548.5,376.0 549.5,376.0 549.5,376.0 550.5,376.0 550.5,376.0 551.5,376.0 551.5,376.0 552.5,376.0 552.5,376.0 553.5,376.0 553.5,376.0 554.5,376.0 554.5,376.0 555.5,376.0 555.5,376.0 556.5,376.0 556.5,376.0 557.5,376.0 557.5,350.8 558.5,314.3 558.5,240.2 559.5,202.8 559.5,128.1 560.5,91.0 560.5,18.4 561.5,16.0 561.5,16.0 562.5,16.0 562.5,16.0 563.5,16.0 563.5,16.0 564.5,16.0 564.5,16.0 565.5,16.0 565.5,16.0 566.5,16.0 566.5,16.0 567.5,16.0 567.5,16.0 568.5,16.0 568.5,16.0 569.5,16.0 569.5,16.0 570.5,16.0 570.5,16.0 571.5,16.0 571.5,16.0 572.5,16.0 572.5,16.0 573.5,16.0 573.5,16.0 574.5,16.0 574.5,16.0 575.5,16.0 575.5,16.0 576.5,73.5 576.5,37.1 577.5,184.9 577.5,110.4 578.5,296.8 578.5,222.4 579.5,369.6 579.5,333.4 580.5,376.0 580.5,376.0 581.5,376.0 581.5,376.0 582.5,376.0 582.5,376.0 583.5,376.0 583.5,376.0 584.5,376.0 584.5,376.0 585.5,376.0 585.5,376.0 586.5,376.0 586.5,376.0 587.5,376.0 587.5,376.0 588.5,376.0 588.5,376.0 589.5,376.0 589.5,376.0 590.5,376.0 590.5,376.0 591.5,376.0 591.5,376.0 592.5,376.0 592.5,376.0 593.5,376.0 593.5,376.0 594.5,376.0 594.5,376.0 595.5,359.0 595.5,285.8 596.5,248.7 596.5,173.9 597.5,136.5 597.5,99.4 598.5,62.7 598.5,16.0 599.5,16.0 599.5,16.0 600.5,16.0 600.5,16.0 601.5,16.0 601.5,16.0 602.5,16.0 602.5,16.0 603.5,16.0 603.5,16.0 604.5,16.0 604.5,16.0 605.5,16.0 605.5,16.0 606.5,16.0 606.5,16.0 607.5,16.0 607.5,16.0 608.5,16.0 608.5,16.0 609.5,16.0 609.5,16.0 610.5,16.0 610.5,16.0 611.5,16.0 611.5,16.0 612.5,16.0 612.5,16.0 613.5,28.9 613.5,16.0 614.5,139.1 614.5,65.2 615.5,251.2 615.5,176.4 616.5,325.1 616.5,288.4 617.5,376.0 617.5,361.4 618.5,376.0 618.5,376.0 619.5,376.0 619.5,376.0 620.5,376.0 620.5,376.0 621.5,376.0 621.5,376.0 622.5,376.0 622.5,376.0 623.5,376.0 623.5,376.0 624.5,376.0 624.5,376.0 625.5,376.0 625.5,376.0 626.5,376.0 626.5,376.0 627.5,376.0 627.5,376.0 628.5,376.0 628.5,376.0 629.5,376.0 629.5,376.0 630.5,376.0 630.5,376.0 631.5,376.0 631.5,376.0 632.5,376.0 632.5,331.0 633.5,294.2 633.5,219.8 634.5,182.4 634.5,145.0 635.5,107.8 635.5,34.7 636.5,16.0 636.5,16.0 637.5,16.0 637.5,16.0 638.5,16.0 638.5,16.0 639.5,16.0 639.5,16.0 640.5,16.0 640.5,16.0 641.5,16.0 641.5,16.0 642.5,16.0 642.5,16.0 643.5,16.0 643.5,16.0 644.5,16.0 644.5,16.0 645.5,16.0 645.5,16.0 646.5,16.0 646.5,16.0 647.5,16.0 647.5,16.0 648.5,16.0 648.5,16.0 649.5,16.0 649.5,16.0 650.5,16.0 650.5,16.0 651.5,93.6 651.5,20.8 652.5,167.9 652.5,130.6 653.5,280.0 653.5,205.4 654.5,376.0 654.5,316.8 655.5,376.0 655.5,376.0 656.5,376.0 656.5,376.0 657.5,376.0 657.5,376.0 658.5,376.0 658.5,376.0 659.5,376.0 659.5,376.0 660.5,376.0 660.5,376.0 661.5,376.0 661.5,376.0 662.5,376.0 662.5,376.0 663.5,376.0 663.5,376.0 664.5,376.0 664.5,376.0 665.5,376.0 665.5,376.0 666.5,376.0 666.5,376.0 667.5,376.0 667.5,376.0 668.5,376.0 668.5,376.0 669.5,376.0 669.5,375.3 670.5,339.2 670.5,265.6 671.5,228.3 671.5,190.9 672.5,153.5 672.5,79.3 673.5,42.9 673.5,16.0 674.5,16.0 674.5,16.0 675.5,16.0 675.5,16.0 676.5,16.0 676.5,16.0 677.5,16.0 677.5,16.0 678.5,16.0 678.5,16.0 679.5,16.0 679.5,16.0 680.5,16.0 680.5,16.0 681.5,16.0 681.5,16.0 682.5,16.0 682.5,16.0 683.5,16.0 683.5,16.0 684.5,16.0 684.5,16.0 685.5,16.0 685.5,16.0 686.5,16.0 686.5,16.0 687.5,16.0 687.5,16.0 688.5,48.6 688.5,16.0 689.5,122.2 689.5,85.2 690.5,234.3 690.5,159.4 691.5,345.0 691.5,271.5 692.5,376.0 692.5,376.0 693.5,376.0 693.5,376.0 694.5,376.0 694.5,376.0 695.5,376.0 695.5,376.0 696.5,376.0 696.5,376.0 697.5,376.0 697.5,376.0 698.5,376.0 698.5,376.0 699.5,376.0 699.5,376.0 700.5,376.0 700.5,376.0 701.5,376.0 701.5,376.0 702.5,376.0 702.5,376.0 703.5,376.0 703.5,376.0 704.5,376.0 704.5,376.0 705.5,376.0 705.5,376.0 706.5,376.0 706.5,376.0 707.5,376.0 707.5,311.0 708.5,274.1 708.5,236.8 709.5,199.4 709.5,124.7 710.5,87.7 710.5,16.0 711.5,16.0 711.5,16.0 712.5,16.0 712.5,16.0 713.5,16.0 713.5,16.0 714.5,16.0 714.5,16.0 715.5,16.0 715.5,16.0 716.5,16.0 716.5,16.0 717.5,16.0 717.5,16.0 718.5,16.0 718.5,16.0 719.5,16.0 719.5,16.0 720.5,16.0 720.5,16.0 721.5,16.0 721.5,16.0 722.5,16.0 722.5,16.0 723.5,16.0 723.5,16.0 724.5,16.0 724.5,16.0 725.5,16.0 725.5,16.0 726.5,76.8 726.5,40.4 727.5,188.3 727.5,113.7 728.5,300.1 728.5,225.8 729.5,372.8 729.5,336.7 730.5,376.0 730.5,376.0 731.5,376.0 731.5,376.0 732.5,376.0 732.5,376.0 733.5,376.0 733.5,376.0 734.5,376.0 734.5,376.0 735.5,376.0 735.5,376.0 736.5,376.0 736.5,376.0 737.5,376.0 737.5,376.0 738.5,376.0 738.5,376.0 739.5,376.0 739.5,376.0 740.5,376.0 740.5,376.0 741.5,376.0 741.5,376.0 742.5,376.0 742.5,376.0 743.5,376.0 743.5,376.0 744.5,376.0 744.5,376.0 745.5,355.7 745.5,282.5 746.5,245.3 746.5,170.5 747.5,133.2 747.5,96.1 748.5,59.4 748.5,16.0 749.5,16.0 749.5,16.0 750.5,16.0 750.5,16.0 751.5,16.0 751.5,16.0 752.5,16.0 752.5,16.0 753.5,16.0 753.5,16.0 754.5,16.0 754.5,16.0 755.5,16.0 755.5,16.0 756.5,16.0 756.5,16.0 757.5,16.0 757.5,16.0 758.5,16.0 758.5,16.0 759.5,16.0 759.5,16.0 760.5,16.0 760.5,16.0 761.5,16.0 761.5,16.0 762.5,16.0 762.5,16.0 763.5,32.2 763.5,16.0 764.5,142.5 764.5,68.5 765.5,254.6 765.5,179.8 766.5,328.5 766.5,291.7 767.5,376.0 767.5,364.7 768.5,376.0 768.5,376.0 769.5,376.0 769.5,376.0 770.5,376.0 770.5,376.0 771.5,376.0 771.5,376.0 772.5,376.0 772.5,376.0 773.5,376.0 773.5,376.0 774.5,376.0 774.5,376.0 775.5,376.0 775.5,376.0 776.5,376.0 776.5,376.0 777.5,376.0 777.5,376.0 778.5,376.0 778.5,376.0 779.5,376.0 779.5,376.0 780.5,376.0 780.5,376.0 781.5,376.0 781.5,376.0 782.5,376.0 782.5,327.6 783.5,290.9 783.5,216.4 784.5,179.0 784.5,141.6 785.5,104.5 785.5,31.4 786.5,16.0 786.5,16.0 787.5,16.0 787.5,16.0 788.5,16.0 788.5,16.0 789.5,16.0 789.5,16.0 790.5,16.0 790.5,16.0 791.5,16.0 791.5,16.0 792.5,16.0 792.5,16.0 793.5,16.0 793.5,16.0 794.5,16.0 794.5,16.0 795.5,16.0 795.5,16.0 796.5,16.0 796.5,16.0 797.5,16.0 797.5,16.0 798.5,16.0 798.5,16.0 799.5,16.0 799.5,16.0" fill="none" stroke="#3b82f6" stroke-width="1.5" stroke-linejoin="round"/>
</svg>
