<svg xmlns="http://www.w3.org/2000/svg" viewBox="0 0 820 392" style="font-family:system-ui,-apple-system,sans-serif">
  <defs>
    <clipPath id="u14"><rect x="34" y="16" width="766" height="360"/></clipPath>
  </defs>
  <text x="800" y="11" text-anchor="end" font-size="11" fill="#6b7280" font-weight="600">Noise gate — threshold=−20dB, loud→quiet transition</text>
  <line x1="34" y1="16" x2="34" y2="376" stroke="#d1d5db" stroke-width="1"/>
  <line x1="34" y1="376" x2="800" y2="376" stroke="#d1d5db" stroke-width="1"/>
  <line x1="34" y1="16" x2="34" y2="376" stroke="#e5e7eb" stroke-width="0.5"/>
  <text x="34" y="388" text-anchor="middle" font-size="8" fill="#6b7280">0</text>
  <line x1="198.9" y1="16" x2="198.9" y2="376" stroke="#e5e7eb" stroke-width="0.5"/>
  <text x="198.9" y="388" text-anchor="middle" font-size="8" fill="#6b7280">20</text>
  <line x1="363.9" y1="16" x2="363.9" y2="376" stroke="#e5e7eb" stroke-width="0.5"/>
  <text x="363.9" y="388" text-anchor="middle" font-size="8" fill="#6b7280">40</text>
  <line x1="528.8" y1="16" x2="528.8" y2="376" stroke="#e5e7eb" stroke-width="0.5"/>
  <text x="528.8" y="388" text-anchor="middle" font-size="8" fill="#6b7280">60</text>
  <line x1="693.8" y1="16" x2="693.8" y2="376" stroke="#e5e7eb" stroke-width="0.5"/>
  <text x="693.8" y="388" text-anchor="middle" font-size="8" fill="#6b7280">80</text>
  <line x1="34" y1="346" x2="800" y2="346" stroke="#e5e7eb" stroke-width="0.5"/>
  <text x="30" y="349" text-anchor="end" font-size="8" fill="#6b7280">-1</text>
  <line x1="34" y1="271" x2="800" y2="271" stroke="#e5e7eb" stroke-width="0.5"/>
  <text x="30" y="274" text-anchor="end" font-size="8" fill="#6b7280">-0.5</text>
  <line x1="34" y1="196" x2="800" y2="196" stroke="#e5e7eb" stroke-width="0.5"/>
  <text x="30" y="199" text-anchor="end" font-size="8" fill="#6b7280">0</text>
  <line x1="34" y1="121" x2="800" y2="121" stroke="#e5e7eb" stroke-width="0.5"/>
  <text x="30" y="124" text-anchor="end" font-size="8" fill="#6b7280">0.5</text>
  <line x1="34" y1="46" x2="800" y2="46" stroke="#e5e7eb" stroke-width="0.5"/>
  <text x="30" y="49" text-anchor="end" font-size="8" fill="#6b7280">1</text>
  <line x1="34" y1="196" x2="800" y2="196" stroke="#d1d5db" stroke-width="0.5"/>
  <text x="417" y="402" text-anchor="middle" font-size="9" fill="#6b7280">ms</text>
  <text x="12" y="196" text-anchor="middle" font-size="9" fill="#6b7280">amp</text>
  <polyline clip-path="url(#u14)" points="34.5,196.0 34.5,166.2 35.5,159.0 35.5,131.8 36.5,125.6 36.5,99.1 37.5,94.8 37.5,82.0 38.5,79.9 38.5,76.0 39.5,84.2 39.5,76.2 40.5,103.1 40.5,87.2 41.5,131.1 41.5,108.1 42.5,172.7 42.5,137.6 43.5,210.2 43.5,180.1 44.5,246.2 44.5,217.6 45.5,282.7 45.5,252.9 46.5,304.1 46.5,287.8 47.5,314.9 47.5,307.1 48.5,316.0 48.5,312.6 49.5,310.5 49.5,298.1 50.5,293.9 50.5,273.7 51.5,267.8 51.5,234.6 52.5,227.4 52.5,197.7 53.5,190.2 53.5,160.6 54.5,153.5 54.5,121.0 55.5,115.3 55.5,95.8 56.5,91.8 56.5,80.3 57.5,78.5 57.5,76.0 58.5,86.5 58.5,77.7 59.5,112.2 59.5,89.8 60.5,142.7 60.5,117.7 61.5,178.5 61.5,149.5 62.5,223.3 62.5,185.9 63.5,258.0 63.5,230.6 64.5,286.6 64.5,264.3 65.5,309.2 65.5,291.4 66.5,316.0 66.5,311.5 67.5,315.9 67.5,311.0 68.5,308.7 68.5,290.5 69.5,285.6 69.5,263.0 70.5,256.7 70.5,229.1 71.5,221.8 71.5,184.4 72.5,176.9 72.5,148.1 73.5,141.3 73.5,116.5 74.5,111.1 74.5,89.1 75.5,85.9 75.5,77.5 76.5,77.5 76.5,76.1 77.5,92.6 77.5,78.9 78.5,116.4 78.5,96.6 79.5,148.0 79.5,122.2 80.5,191.7 80.5,155.0 81.5,228.9 81.5,199.2 82.5,269.0 82.5,236.1 83.5,294.8 83.5,274.8 84.5,311.0 84.5,298.9 85.5,316.0 85.5,312.9 86.5,314.7 86.5,306.5 87.5,303.4 87.5,286.8 88.5,281.7 88.5,251.6 89.5,244.8 89.5,216.1 90.5,208.6 90.5,178.6 91.5,171.2 91.5,136.2 92.5,129.8 92.5,107.1 93.5,102.2 93.5,86.5 94.5,83.7 94.5,76.1 95.5,80.3 95.5,76.0 96.5,95.7 96.5,82.5 97.5,126.9 97.5,100.0 98.5,160.5 98.5,133.1 99.5,197.5 99.5,167.7 100.5,241.5 100.5,205.1 101.5,273.5 101.5,248.4 102.5,298.0 102.5,279.1 103.5,314.1 103.5,301.8 104.5,316.0 104.5,314.9 105.5,313.7 105.5,300.7 106.5,296.8 106.5,277.5 107.5,271.8 107.5,246.4 108.5,239.4 108.5,202.8 109.5,195.3 109.5,165.6 110.5,158.3 110.5,131.3 111.5,125.1 111.5,98.7 112.5,94.5 112.5,81.8 113.5,79.7 113.5,76.0 114.5,84.5 114.5,76.3 115.5,103.6 115.5,87.5 116.5,131.7 116.5,108.6 117.5,173.4 117.5,138.2 118.5,210.8 118.5,180.8 119.5,246.8 119.5,218.3 120.5,283.2 120.5,253.5 121.5,304.4 121.5,288.2 122.5,315.0 122.5,307.4 123.5,316.0 123.5,312.4 124.5,310.3 124.5,297.7 125.5,293.5 125.5,273.1 126.5,267.2 126.5,234.0 127.5,226.8 127.5,197.0 128.5,189.5 128.5,160.0 129.5,152.9 129.5,120.4 130.5,114.8 130.5,95.4 131.5,91.5 131.5,78.4 132.5,77.1 132.5,76.0 133.5,86.8 133.5,77.9 134.5,112.6 134.5,90.1 135.5,143.3 135.5,118.2 136.5,179.1 136.5,150.2 137.5,224.0 137.5,186.6 138.5,258.6 138.5,231.2 139.5,287.1 139.5,264.9 140.5,309.4 140.5,291.8 141.5,316.0 141.5,311.7 142.5,315.9 142.5,310.8 143.5,308.4 143.5,290.0 144.5,285.2 144.5,262.5 145.5,256.1 145.5,228.4 146.5,221.1 146.5,183.7 147.5,176.3 147.5,147.5 148.5,140.7 148.5,116.0 149.5,110.6 149.5,88.8 150.5,85.6 150.5,77.4 151.5,77.6 151.5,76.0 152.5,92.9 152.5,79.0 153.5,116.9 153.5,97.0 154.5,155.6 154.5,122.7 155.5,192.4 155.5,162.8 156.5,229.6 156.5,199.9 157.5,269.5 157.5,236.7 158.5,295.2 158.5,275.3 159.5,311.2 159.5,299.2 160.5,315.9 160.5,313.1 161.5,314.6 161.5,306.3 162.5,303.1 162.5,286.3 163.5,281.2 163.5,251.0 164.5,244.2 164.5,215.4 165.5,207.9 165.5,177.9 166.5,170.5 166.5,135.6 167.5,129.3 167.5,106.6 168.5,101.8 168.5,86.3 169.5,83.4 169.5,76.1 170.5,80.4 170.5,76.0 171.5,96.0 171.5,82.7 172.5,127.4 172.5,100.4 173.5,161.1 173.5,133.7 174.5,198.2 174.5,168.4 175.5,242.1 175.5,205.7 176.5,274.0 176.5,249.0 177.5,302.1 177.5,279.6 178.5,314.2 178.5,305.4 179.5,316.0 179.5,314.8 180.5,313.5 180.5,300.3 181.5,296.4 181.5,277.0 182.5,271.3 182.5,245.7 183.5,238.8 183.5,202.2 184.5,194.6 184.5,164.9 185.5,157.7 185.5,130.7 186.5,124.5 186.5,98.3 187.5,94.1 187.5,81.6 188.5,79.5 188.5,76.0 189.5,84.7 189.5,76.3 190.5,104.0 190.5,87.8 191.5,132.3 191.5,109.0 192.5,174.1 192.5,138.8 193.5,211.5 193.5,181.5 194.5,247.4 194.5,218.9 195.5,283.7 195.5,254.1 196.5,304.7 196.5,288.6 197.5,315.1 197.5,307.6 198.5,316.0 198.5,312.2 199.5,310.1 199.5,297.4 200.5,293.1 200.5,272.6 201.5,266.7 201.5,233.3 202.5,226.1 202.5,196.3 203.5,188.8 203.5,152.2 204.5,145.3 204.5,119.9 205.5,114.3 205.5,95.0 206.5,91.1 206.5,78.3 207.5,77.0 207.5,76.0 208.5,87.0 208.5,78.0 209.5,113.1 209.5,90.4 210.5,143.9 210.5,118.7 211.5,179.8 211.5,150.8 212.5,224.6 212.5,187.3 213.5,259.2 213.5,231.9 214.5,287.5 214.5,265.4 215.5,309.6 215.5,292.2 216.5,316.0 216.5,311.8 217.5,315.9 217.5,310.6 218.5,308.2 218.5,289.6 219.5,284.7 219.5,261.9 220.5,255.5 220.5,227.8 221.5,220.4 221.5,183.0 222.5,175.6 222.5,146.9 223.5,140.1 223.5,115.5 224.5,110.1 224.5,88.4 225.5,85.3 225.5,77.3 226.5,79.2 226.5,76.0 227.5,93.3 227.5,81.1 228.5,117.4 228.5,97.4 229.5,156.2 229.5,123.3 230.5,193.1 230.5,163.4 231.5,230.2 231.5,200.6 232.5,270.1 232.5,237.4 233.5,295.6 233.5,275.8 234.5,311.4 234.5,299.6 235.5,316.0 235.5,313.2 236.5,314.5 236.5,306.0 237.5,302.8 237.5,285.9 238.5,280.7 238.5,250.4 239.5,243.6 239.5,214.7 240.5,207.3 240.5,177.3 241.5,169.9 241.5,135.0 242.5,128.7 242.5,106.1 243.5,101.3 243.5,86.0 244.5,83.2 244.5,76.1 245.5,80.6 245.5,76.0 246.5,96.4 246.5,82.9 247.5,128.0 247.5,100.8 248.5,161.8 248.5,134.3 249.5,206.4 249.5,169.0 250.5,242.8 250.5,213.9 251.5,274.6 251.5,249.6 252.5,302.4 252.5,280.1 253.5,314.3 253.5,305.7 254.5,316.0 254.5,314.7 255.5,313.4 255.5,300.0 256.5,296.1 256.5,276.5 257.5,270.8 257.5,245.1 258.5,238.2 258.5,201.5 259.5,193.9 259.5,164.2 260.5,157.1 260.5,130.1 261.5,124.0 261.5,97.9 262.5,93.7 262.5,81.4 263.5,79.4 263.5,76.0 264.5,85.0 264.5,76.3 265.5,104.5 265.5,88.1 266.5,132.8 266.5,109.5 267.5,174.7 267.5,139.4 268.5,212.2 268.5,182.2 269.5,248.1 269.5,219.6 270.5,284.1 270.5,254.7 271.5,305.0 271.5,289.1 272.5,315.2 272.5,307.9 273.5,316.0 273.5,312.1 274.5,309.9 274.5,297.0 275.5,292.7 275.5,266.1 276.5,259.9 276.5,232.7 277.5,225.4 277.5,195.7 278.5,188.1 278.5,151.6 279.5,144.7 279.5,119.4 280.5,113.8 280.5,94.6 281.5,90.8 281.5,78.1 282.5,77.0 282.5,76.0 283.5,87.3 283.5,78.1 284.5,113.6 284.5,90.7 285.5,144.6 285.5,119.3 286.5,180.5 286.5,151.4 287.5,225.3 287.5,188.0 288.5,259.7 288.5,232.5 289.5,288.0 289.5,266.0 290.5,309.9 290.5,292.6 291.5,316.0 291.5,312.0 292.5,315.8 292.5,310.4 293.5,308.0 293.5,289.2 294.5,284.3 294.5,261.3 295.5,254.9 295.5,227.1 296.5,219.8 296.5,182.4 297.5,174.9 297.5,146.3 298.5,139.5 298.5,109.6 299.5,104.6 299.5,88.1 300.5,85.1 300.5,77.2 301.5,79.3 301.5,76.0 302.5,93.6 302.5,81.3 303.5,118.0 303.5,97.8 304.5,156.9 304.5,123.8 305.5,193.8 305.5,164.1 306.5,230.9 306.5,201.3 307.5,270.6 307.5,238.0 308.5,296.0 308.5,276.4 309.5,311.6 309.5,299.9 310.5,316.0 310.5,313.4 311.5,314.4 311.5,305.7 312.5,302.5 312.5,285.4 313.5,280.2 313.5,249.8 314.5,242.9 314.5,214.1 315.5,206.6 315.5,176.6 316.5,169.2 316.5,134.5 317.5,128.1 317.5,105.7 318.5,100.9 318.5,85.7 319.5,83.0 319.5,76.1 320.5,80.8 320.5,76.1 321.5,101.2 321.5,83.1 322.5,128.5 322.5,106.0 323.5,162.4 323.5,134.9 324.5,207.1 324.5,169.7 325.5,243.4 325.5,214.6 326.5,275.1 326.5,250.2 327.5,302.7 327.5,280.6 328.5,314.4 328.5,305.9 329.5,316.0 329.5,314.6 330.5,313.3 330.5,299.7 331.5,295.7 331.5,276.0 332.5,270.2 332.5,244.5 333.5,237.5 333.5,200.8 334.5,193.3 334.5,163.6 335.5,156.4 335.5,129.5 336.5,123.4 336.5,97.5 337.5,93.4 337.5,81.2 338.5,79.2 338.5,76.0 339.5,85.3 339.5,76.4 340.5,104.9 340.5,88.4 341.5,133.4 341.5,110.0 342.5,175.4 342.5,140.0 343.5,212.9 343.5,182.9 344.5,248.7 344.5,220.3 345.5,284.6 345.5,255.3 346.5,305.2 346.5,289.5 347.5,315.8 347.5,308.1 348.5,316.0 348.5,311.9 349.5,309.7 349.5,296.6 350.5,292.3 350.5,265.6 351.5,259.3 351.5,232.0 352.5,224.8 352.5,195.0 353.5,187.5 353.5,151.0 354.5,144.1 354.5,118.9 355.5,113.3 355.5,94.3 356.5,90.5 356.5,78.0 357.5,77.0 357.5,76.0 358.5,87.6 358.5,78.2 359.5,114.1 359.5,91.1 360.5,145.2 360.5,119.8 361.5,181.2 361.5,152.1 362.5,225.9 362.5,188.7 363.5,260.3 363.5,233.2 364.5,288.4 364.5,266.5 365.5,310.1 365.5,293.0 366.5,316.0 366.5,312.2 367.5,315.8 367.5,310.2 368.5,307.7 368.5,288.7 369.5,283.8 369.5,260.7 370.5,254.3 370.5,219.1 371.5,211.7 371.5,181.7 372.5,174.2 372.5,145.6 373.5,138.9 373.5,109.1 374.5,104.1 374.5,87.8 375.5,84.8 375.5,77.1 376.5,79.5 376.5,76.0 377.5,94.0 377.5,81.5 378.5,118.5 378.5,98.2 379.5,157.5 379.5,124.4 380.5,194.5 380.5,164.7 381.5,231.5 381.5,202.0 382.5,271.2 382.5,238.6 383.5,296.3 383.5,276.9 384.5,311.7 384.5,300.3 385.5,316.0 385.5,313.5 386.5,314.2 386.5,305.5 387.5,302.2 387.5,284.9 388.5,279.7 388.5,249.1 389.5,242.3 389.5,213.4 390.5,205.9 390.5,175.9 391.5,168.5 391.5,133.9 392.5,127.6 392.5,105.2 393.5,100.5 393.5,82.7 394.5,80.5 394.5,76.0 395.5,81.0 395.5,76.1 396.5,101.6 396.5,83.4 397.5,129.1 397.5,106.5 398.5,163.1 398.5,135.5 399.5,207.8 399.5,170.4 400.5,244.0 400.5,215.2 401.5,275.6 401.5,250.8 402.5,303.0 402.5,281.1 403.5,314.5 403.5,306.2 404.5,315.9 404.5,314.5 405.5,313.1 405.5,299.3 406.5,295.3 406.5,275.5 407.5,269.7 407.5,243.9 408.5,236.9 408.5,200.1 409.5,192.6 409.5,162.9 410.5,155.8 410.5,129.0 411.5,122.9 411.5,97.1 412.5,93.0 412.5,81.0 413.5,79.0 413.5,76.0 414.5,85.5 414.5,76.5 415.5,105.4 415.5,88.7 416.5,140.6 416.5,110.5 417.5,195.5 417.5,194.8 418.5,196.4 418.5,195.7 419.5,197.5 419.5,196.6 420.5,198.2 420.5,197.7 421.5,198.7 421.5,198.3 422.5,199.0 422.5,198.8 423.5,199.0 423.5,198.9 424.5,198.8 424.5,198.5 425.5,198.4 425.5,197.7 426.5,197.6 426.5,196.9 427.5,196.7 427.5,196.0 428.5,195.8 428.5,194.9 429.5,194.7 429.5,194.1 430.5,193.9 430.5,193.4 431.5,193.4 431.5,193.0 432.5,193.0 432.5,193.0 433.5,193.3 433.5,193.1 434.5,194.0 434.5,193.4 435.5,194.7 435.5,194.1 436.5,195.6 436.5,194.9 437.5,196.8 437.5,195.8 438.5,197.6 438.5,196.9 439.5,198.3 439.5,197.8 440.5,198.9 440.5,198.4 441.5,199.0 441.5,198.9 442.5,199.0 442.5,198.8 443.5,198.7 443.5,198.3 444.5,198.2 444.5,197.6 445.5,197.4 445.5,196.6 446.5,196.4 446.5,195.6 447.5,195.4 447.5,194.7 448.5,194.6 448.5,193.8 449.5,193.7 449.5,193.3 450.5,193.2 450.5,193.0 451.5,193.1 451.5,193.0 452.5,193.5 452.5,193.1 453.5,194.1 453.5,193.6 454.5,195.1 454.5,194.2 455.5,196.0 455.5,195.2 456.5,196.9 456.5,196.2 457.5,197.9 457.5,197.1 458.5,198.5 458.5,198.0 459.5,198.9 459.5,198.6 460.5,199.0 460.5,198.9 461.5,199.0 461.5,198.7 462.5,198.6 462.5,198.2 463.5,198.1 463.5,197.3 464.5,197.1 464.5,196.4 465.5,196.2 465.5,195.3 466.5,195.1 466.5,194.4 467.5,194.3 467.5,193.7 468.5,193.6 468.5,193.2 469.5,193.1 469.5,193.0 470.5,193.1 470.5,193.0 471.5,193.7 471.5,193.2 472.5,194.3 472.5,193.8 473.5,195.2 473.5,194.5 474.5,196.3 474.5,195.4 475.5,197.2 475.5,196.5 476.5,198.0 476.5,197.4 477.5,198.7 477.5,198.1 478.5,199.0 478.5,198.8 479.5,199.0 479.5,199.0 480.5,198.9 480.5,198.6 481.5,198.5 481.5,198.0 482.5,197.8 482.5,197.2 483.5,197.0 483.5,196.1 484.5,195.9 484.5,195.2 485.5,195.0 485.5,194.3 486.5,194.2 486.5,193.5 487.5,193.4 487.5,193.1 488.5,193.1 488.5,193.0 489.5,193.2 489.5,193.0 490.5,193.7 490.5,193.3 491.5,194.6 491.5,193.9 492.5,195.5 492.5,194.8 493.5,196.5 493.5,195.7 494.5,197.5 494.5,196.6 495.5,198.2 495.5,197.7 496.5,198.7 496.5,198.4 497.5,199.0 497.5,198.8 498.5,199.0 498.5,198.9 499.5,198.8 499.5,198.5 500.5,198.4 500.5,197.7 501.5,197.6 501.5,196.9 502.5,196.7 502.5,195.9 503.5,195.8 503.5,194.8 504.5,194.7 504.5,194.0 505.5,193.9 505.5,193.4 506.5,193.3 506.5,193.0 507.5,193.0 507.5,193.0 508.5,193.3 508.5,193.1 509.5,194.0 509.5,193.4 510.5,194.8 510.5,194.1 511.5,195.7 511.5,194.9 512.5,196.8 512.5,195.9 513.5,197.6 513.5,197.0 514.5,198.4 514.5,197.8 515.5,198.9 515.5,198.5 516.5,199.0 516.5,198.9 517.5,199.0 517.5,198.8 518.5,198.7 518.5,198.3 519.5,198.2 519.5,197.6 520.5,197.4 520.5,196.5 521.5,196.4 521.5,195.6 522.5,195.4 522.5,194.7 523.5,194.5 523.5,193.8 524.5,193.7 524.5,193.3 525.5,193.2 525.5,193.0 526.5,193.1 526.5,193.0 527.5,193.5 527.5,193.1 528.5,194.1 528.5,193.6 529.5,195.1 529.5,194.2 530.5,196.0 530.5,195.3 531.5,196.9 531.5,196.2 532.5,197.9 532.5,197.1 533.5,198.5 533.5,198.0 534.5,198.9 534.5,198.6 535.5,199.0 535.5,198.9 536.5,198.9 536.5,198.7 537.5,198.6 537.5,198.1 538.5,197.9 538.5,197.3 539.5,197.1 539.5,196.4 540.5,196.2 540.5,195.3 541.5,195.1 541.5,194.4 542.5,194.3 542.5,193.7 543.5,193.6 543.5,193.2 544.5,193.1 544.5,193.0 545.5,193.1 545.5,193.0 546.5,193.7 546.5,193.2 547.5,194.4 547.5,193.8 548.5,195.2 548.5,194.5 549.5,196.3 549.5,195.4 550.5,197.2 550.5,196.5 551.5,198.0 551.5,197.4 552.5,198.7 552.5,198.2 553.5,199.0 553.5,198.8 554.5,199.0 554.5,199.0 555.5,198.9 555.5,198.6 556.5,198.5 556.5,198.0 557.5,197.8 557.5,197.2 558.5,197.0 558.5,196.1 559.5,195.9 559.5,195.1 560.5,195.0 560.5,194.1 561.5,194.0 561.5,193.5 562.5,193.4 562.5,193.1 563.5,193.1 563.5,193.0 564.5,193.3 564.5,193.0 565.5,193.8 565.5,193.3 566.5,194.6 566.5,193.9 567.5,195.5 567.5,194.8 568.5,196.5 568.5,195.7 569.5,197.5 569.5,196.7 570.5,198.2 570.5,197.7 571.5,198.8 571.5,198.4 572.5,199.0 572.5,198.8 573.5,199.0 573.5,198.9 574.5,198.8 574.5,198.5 575.5,198.4 575.5,197.7 576.5,197.5 576.5,196.9 577.5,196.7 577.5,195.9 578.5,195.7 578.5,194.8 579.5,194.7 579.5,194.0 580.5,193.9 580.5,193.4 581.5,193.3 581.5,193.0 582.5,193.0 582.5,193.0 583.5,193.3 583.5,193.1 584.5,194.0 584.5,193.4 585.5,194.8 585.5,194.1 586.5,195.9 586.5,194.9 587.5,196.8 587.5,196.1 588.5,197.7 588.5,197.0 589.5,198.5 589.5,197.8 590.5,198.9 590.5,198.6 591.5,199.0 591.5,198.9 592.5,199.0 592.5,198.8 593.5,198.7 593.5,198.3 594.5,198.2 594.5,197.6 595.5,197.4 595.5,196.5 596.5,196.3 596.5,195.6 597.5,195.4 597.5,194.7 598.5,194.5 598.5,193.8 599.5,193.7 599.5,193.3 600.5,193.2 600.5,193.0 601.5,193.1 601.5,193.0 602.5,193.5 602.5,193.2 603.5,194.1 603.5,193.6 604.5,195.1 604.5,194.3 605.5,196.0 605.5,195.3 606.5,196.9 606.5,196.2 607.5,197.9 607.5,197.1 608.5,198.5 608.5,198.1 609.5,198.9 609.5,198.6 610.5,199.0 610.5,199.0 611.5,198.9 611.5,198.7 612.5,198.6 612.5,198.1 613.5,197.9 613.5,197.3 614.5,197.1 614.5,196.4 615.5,196.2 615.5,195.3 616.5,195.1 616.5,194.4 617.5,194.2 617.5,193.7 618.5,193.6 618.5,193.2 619.5,193.1 619.5,193.0 620.5,193.1 620.5,193.0 621.5,193.7 621.5,193.2 622.5,194.4 622.5,193.8 623.5,195.2 623.5,194.5 624.5,196.3 624.5,195.4 625.5,197.2 625.5,196.5 626.5,198.0 626.5,197.4 627.5,198.7 627.5,198.2 628.5,199.0 628.5,198.8 629.5,199.0 629.5,199.0 630.5,198.9 630.5,198.6 631.5,198.5 631.5,197.9 632.5,197.8 632.5,197.0 633.5,196.8 633.5,196.1 634.5,195.9 634.5,195.1 635.5,194.9 635.5,194.1 636.5,194.0 636.5,193.5 637.5,193.4 637.5,193.1 638.5,193.1 638.5,193.0 639.5,193.3 639.5,193.0 640.5,193.8 640.5,193.3 641.5,194.7 641.5,193.9 642.5,195.6 642.5,194.8 643.5,196.5 643.5,195.7 644.5,197.5 644.5,196.7 645.5,198.3 645.5,197.7 646.5,198.8 646.5,198.4 647.5,199.0 647.5,198.8 648.5,199.0 648.5,198.9 649.5,198.8 649.5,198.5 650.5,198.4 650.5,197.7 651.5,197.5 651.5,196.8 652.5,196.7 652.5,195.9 653.5,195.7 653.5,194.8 654.5,194.6 654.5,194.0 655.5,193.9 655.5,193.4 656.5,193.3 656.5,193.0 657.5,193.0 657.5,193.0 658.5,193.4 658.5,193.1 659.5,194.0 659.5,193.5 660.5,194.8 660.5,194.1 661.5,195.9 661.5,195.0 662.5,196.8 662.5,196.1 663.5,197.7 663.5,197.0 664.5,198.5 664.5,197.8 665.5,198.9 665.5,198.6 666.5,199.0 666.5,198.9 667.5,199.0 667.5,198.8 668.5,198.7 668.5,198.3 669.5,198.1 669.5,197.6 670.5,197.4 670.5,196.5 671.5,196.3 671.5,195.6 672.5,195.4 672.5,194.7 673.5,194.5 673.5,193.8 674.5,193.7 674.5,193.3 675.5,193.2 675.5,193.0 676.5,193.1 676.5,193.0 677.5,193.5 677.5,193.2 678.5,194.1 678.5,193.6 679.5,195.1 679.5,194.3 680.5,196.0 680.5,195.3 681.5,197.1 681.5,196.2 682.5,197.9 682.5,197.3 683.5,198.5 683.5,198.1 684.5,199.0 684.5,198.6 685.5,199.0 685.5,199.0 686.5,198.9 686.5,198.7 687.5,198.6 687.5,198.0 688.5,197.9 688.5,197.3 689.5,197.1 689.5,196.4 690.5,196.2 690.5,195.2 691.5,195.1 691.5,194.4 692.5,194.2 692.5,193.7 693.5,193.6 693.5,193.1 694.5,193.1 694.5,193.0 695.5,193.1 695.5,193.0 696.5,193.7 696.5,193.2 697.5,194.4 697.5,193.8 698.5,195.2 698.5,194.5 699.5,196.4 699.5,195.4 700.5,197.3 700.5,196.5 701.5,198.0 701.5,197.4 702.5,198.7 702.5,198.2 703.5,199.0 703.5,198.8 704.5,199.0 704.5,198.9 705.5,198.9 705.5,198.5 706.5,198.4 706.5,197.9 707.5,197.8 707.5,197.0 708.5,196.8 708.5,196.0 709.5,195.8 709.5,195.1 710.5,194.9 710.5,194.1 711.5,194.0 711.5,193.5 712.5,193.4 712.5,193.1 713.5,193.1 713.5,193.0 714.5,193.3 714.5,193.0 715.5,193.8 715.5,193.3 716.5,194.7 716.5,193.9 717.5,195.6 717.5,194.8 718.5,196.5 718.5,195.8 719.5,197.6 719.5,196.7 720.5,198.3 720.5,197.7 721.5,198.8 721.5,198.4 722.5,199.0 722.5,198.8 723.5,199.0 723.5,198.9 724.5,198.8 724.5,198.5 725.5,198.4 725.5,197.7 726.5,197.5 726.5,196.8 727.5,196.6 727.5,195.9 728.5,195.7 728.5,194.8 729.5,194.6 729.5,194.0 730.5,193.9 730.5,193.3 731.5,193.2 731.5,193.0 732.5,193.0 732.5,193.0 733.5,193.4 733.5,193.1 734.5,194.0 734.5,193.5 735.5,194.8 735.5,194.2 736.5,195.9 736.5,195.0 737.5,196.8 737.5,196.1 738.5,197.7 738.5,197.0 739.5,198.5 739.5,197.8 740.5,198.9 740.5,198.6 741.5,199.0 741.5,198.9 742.5,199.0 742.5,198.8 743.5,198.7 743.5,198.3 744.5,198.1 744.5,197.5 745.5,197.4 745.5,196.5 746.5,196.3 746.5,195.6 747.5,195.4 747.5,194.7 748.5,194.5 748.5,193.8 749.5,193.6 749.5,193.3 750.5,193.2 750.5,193.0 751.5,193.1 751.5,193.0 752.5,193.5 752.5,193.2 753.5,194.3 753.5,193.6 754.5,195.1 754.5,194.4 755.5,196.0 755.5,195.3 756.5,197.1 756.5,196.2 757.5,197.9 757.5,197.3 758.5,198.6 758.5,198.1 759.5,199.0 759.5,198.6 760.5,199.0 760.5,199.0 761.5,198.9 761.5,198.7 762.5,198.6 762.5,198.0 763.5,197.9 763.5,197.3 764.5,197.1 764.5,196.3 765.5,196.2 765.5,195.2 766.5,195.1 766.5,194.4 767.5,194.2 767.5,193.7 768.5,193.6 768.5,193.1 769.5,193.1 769.5,193.0 770.5,193.2 770.5,193.0 771.5,193.7 771.5,193.2 772.5,194.4 772.5,193.8 773.5,195.3 773.5,194.6 774.5,196.4 774.5,195.4 775.5,197.3 775.5,196.6 776.5,198.2 776.5,197.4 777.5,198.7 777.5,198.3 778.5,199.0 778.5,198.8 779.5,199.0 779.5,198.9 780.5,198.9 780.5,198.5 781.5,198.4 781.5,197.9 782.5,197.8 782.5,196.9 783.5,196.8 783.5,196.0 784.5,195.8 784.5,195.1 785.5,194.9 785.5,194.1 786.5,194.0 786.5,193.5 787.5,193.4 787.5,193.1 788.5,193.1 788.5,193.0 789.5,193.3 789.5,193.0 790.5,193.8 790.5,193.4 791.5,194.7 791.5,193.9 792.5,195.6 792.5,194.9 793.5,196.5 793.5,195.8 794.5,197.6 794.5,196.7 795.5,198.3 795.5,197.7 796.5,198.8 796.5,198.4 797.5,199.0 797.5,198.8 798.5,199.0 798.5,198.9 799.5,198.8 799.5,198.3" fill="none" stroke="#d1d5db" stroke-width="1.5" stroke-linejoin="round"/>
  <polyline clip-path="url(#u14)" points="34.5,196.0 34.5,196.0 35.5,196.0 35.5,196.0 36.5,196.0 36.5,196.0 37.5,196.0 37.5,196.0 38.5,194.7 38.5,189.4 39.5,188.1 39.5,182.9 40.5,182.1 40.5,180.6 41.5,182.2 41.5,180.6 42.5,189.9 42.5,183.1 43.5,200.3 43.5,191.7 44.5,213.2 44.5,202.7 45.5,229.5 45.5,215.9 46.5,241.4 46.5,232.0 47.5,249.7 47.5,243.4 48.5,252.9 48.5,250.8 49.5,252.5 49.5,248.7 50.5,247.1 50.5,238.1 51.5,235.3 51.5,218.1 52.5,214.2 52.5,197.0 53.5,192.5 53.5,174.1 54.5,169.5 54.5,147.7 55.5,143.7 55.5,129.5 56.5,126.5 56.5,117.1 57.5,115.5 57.5,112.2 58.5,117.2 58.5,112.5 59.5,134.2 59.5,119.3 60.5,155.9 60.5,138.0 61.5,182.6 61.5,160.9 62.5,217.3 62.5,188.3 63.5,245.2 63.5,223.1 64.5,268.9 64.5,250.3 65.5,288.5 65.5,273.0 66.5,295.3 66.5,290.6 67.5,295.5 67.5,292.3 68.5,290.5 68.5,276.1 69.5,272.1 69.5,253.4 70.5,248.0 70.5,224.6 71.5,218.3 71.5,185.9 72.5,179.3 72.5,153.9 73.5,147.8 73.5,125.5 74.5,120.6 74.5,100.4 75.5,97.4 75.5,89.3 76.5,88.7 76.5,87.7 77.5,101.7 77.5,89.8 78.5,123.1 78.5,105.3 79.5,151.8 79.5,128.3 80.5,192.0 80.5,158.2 81.5,226.6 81.5,199.0 82.5,264.3 82.5,233.3 83.5,288.7 83.5,269.8 84.5,304.3 84.5,292.6 85.5,309.4 85.5,306.2 86.5,308.3 86.5,300.9 87.5,298.0 87.5,282.4 88.5,277.6 88.5,249.1 89.5,242.6 89.5,215.2 90.5,208.1 90.5,179.3 91.5,172.2 91.5,138.5 92.5,132.3 92.5,110.2 93.5,105.5 93.5,90.2 94.5,87.4 94.5,79.9 95.5,83.7 95.5,79.8 96.5,98.5 96.5,85.8 97.5,128.7 97.5,102.7 98.5,161.3 98.5,134.8 99.5,197.5 99.5,168.4 100.5,240.5 100.5,204.8 101.5,271.9 101.5,247.2 102.5,296.0 102.5,277.4 103.5,311.9 103.5,299.7 104.5,313.9 104.5,312.9 105.5,311.7 105.5,299.0 106.5,295.2 106.5,276.3 107.5,270.7 107.5,245.6 108.5,238.8 108.5,202.7 109.5,195.3 109.5,165.9 110.5,158.8 110.5,132.0 111.5,125.9 111.5,99.8 112.5,95.6 112.5,83.0 113.5,80.9 113.5,77.2 114.5,85.5 114.5,77.4 115.5,104.4 115.5,88.5 116.5,132.2 116.5,109.3 117.5,173.6 117.5,138.6 118.5,210.7 118.5,180.9 119.5,246.5 119.5,218.1 120.5,282.6 120.5,253.1 121.5,303.7 121.5,287.6 122.5,314.3 122.5,306.7 123.5,315.3 123.5,311.8 124.5,309.7 124.5,297.2 125.5,293.0 125.5,272.8 126.5,266.9 126.5,233.8 127.5,226.6 127.5,197.0 128.5,189.5 128.5,160.1 129.5,153.0 129.5,120.7 130.5,115.1 130.5,95.7 131.5,91.9 131.5,78.8 132.5,77.5 132.5,76.4 133.5,87.1 133.5,78.2 134.5,112.9 134.5,90.4 135.5,143.5 135.5,118.4 136.5,179.2 136.5,150.3 137.5,223.9 137.5,186.6 138.5,258.4 138.5,231.1 139.5,286.9 139.5,264.7 140.5,309.2 140.5,291.6 141.5,315.8 141.5,311.4 142.5,315.7 142.5,310.6 143.5,308.2 143.5,289.9 144.5,285.0 144.5,262.4 145.5,256.0 145.5,228.4 146.5,221.1 146.5,183.7 147.5,176.3 147.5,147.6 148.5,140.8 148.5,116.1 149.5,110.7 149.5,88.9 150.5,85.7 150.5,77.5 151.5,77.7 151.5,76.2 152.5,93.0 152.5,79.1 153.5,117.0 153.5,97.1 154.5,155.6 154.5,122.8 155.5,192.4 155.5,162.8 156.5,229.5 156.5,199.9 157.5,269.5 157.5,236.7 158.5,295.1 158.5,275.3 159.5,311.1 159.5,299.2 160.5,315.9 160.5,313.0 161.5,314.5 161.5,306.2 162.5,303.0 162.5,286.3 163.5,281.1 163.5,250.9 164.5,244.2 164.5,215.4 165.5,207.9 165.5,178.0 166.5,170.6 166.5,135.7 167.5,129.3 167.5,106.6 168.5,101.8 168.5,86.3 169.5,83.5 169.5,76.1 170.5,80.5 170.5,76.1 171.5,96.1 171.5,82.7 172.5,127.4 172.5,100.4 173.5,161.1 173.5,133.7 174.5,198.2 174.5,168.4 175.5,242.1 175.5,205.7 176.5,274.0 176.5,249.0 177.5,302.1 177.5,279.6 178.5,314.2 178.5,305.4 179.5,316.0 179.5,314.8 180.5,313.5 180.5,300.3 181.5,296.4 181.5,277.0 182.5,271.3 182.5,245.7 183.5,238.8 183.5,202.2 184.5,194.6 184.5,164.9 185.5,157.7 185.5,130.7 186.5,124.5 186.5,98.3 187.5,94.1 187.5,81.6 188.5,79.5 188.5,76.0 189.5,84.7 189.5,76.3 190.5,104.0 190.5,87.8 191.5,132.3 191.5,109.0 192.5,174.1 192.5,138.8 193.5,211.5 193.5,181.5 194.5,247.4 194.5,218.9 195.5,283.7 195.5,254.1 196.5,304.7 196.5,288.6 197.5,315.1 197.5,307.6 198.5,316.0 198.5,312.2 199.5,310.1 199.5,297.4 200.5,293.1 200.5,272.6 201.5,266.7 201.5,233.3 202.5,226.1 202.5,196.3 203.5,188.8 203.5,152.2 204.5,145.3 204.5,119.9 205.5,114.3 205.5,95.0 206.5,91.2 206.5,78.3 207.5,77.0 207.5,76.0 208.5,87.0 208.5,78.0 209.5,113.1 209.5,90.4 210.5,143.9 210.5,118.7 211.5,179.8 211.5,150.8 212.5,224.6 212.5,187.3 213.5,259.2 213.5,231.9 214.5,287.5 214.5,265.4 215.5,309.6 215.5,292.2 216.5,316.0 216.5,311.8 217.5,315.9 217.5,310.6 218.5,308.2 218.5,289.6 219.5,284.7 219.5,261.9 220.5,255.5 220.5,227.8 221.5,220.4 221.5,183.0 222.5,175.6 222.5,146.9 223.5,140.1 223.5,115.5 224.5,110.1 224.5,88.4 225.5,85.3 225.5,77.3 226.5,79.2 226.5,76.0 227.5,93.3 227.5,81.1 228.5,117.4 228.5,97.4 229.5,156.2 229.5,123.3 230.5,193.1 230.5,163.4 231.5,230.2 231.5,200.6 232.5,270.1 232.5,237.4 233.5,295.6 233.5,275.8 234.5,311.4 234.5,299.6 235.5,316.0 235.5,313.2 236.5,314.5 236.5,306.0 237.5,302.8 237.5,285.9 238.5,280.7 238.5,250.4 239.5,243.6 239.5,214.7 240.5,207.3 240.5,177.3 241.5,169.9 241.5,135.0 242.5,128.7 242.5,106.1 243.5,101.3 243.5,86.0 244.5,83.2 244.5,76.1 245.5,80.6 245.5,76.0 246.5,96.4 246.5,82.9 247.5,128.0 247.5,100.8 248.5,161.8 248.5,134.3 249.5,206.4 249.5,169.0 250.5,242.8 250.5,213.9 251.5,274.6 251.5,249.6 252.5,302.4 252.5,280.1 253.5,314.3 253.5,305.7 254.5,316.0 254.5,314.7 255.5,313.4 255.5,300.0 256.5,296.1 256.5,276.5 257.5,270.8 257.5,245.1 258.5,238.2 258.5,201.5 259.5,193.9 259.5,164.2 260.5,157.1 260.5,130.1 261.5,124.0 261.5,97.9 262.5,93.7 262.5,81.4 263.5,79.4 263.5,76.0 264.5,85.0 264.5,76.3 265.5,104.5 265.5,88.1 266.5,132.8 266.5,109.5 267.5,174.7 267.5,139.4 268.5,212.2 268.5,182.2 269.5,248.1 269.5,219.6 270.5,284.1 270.5,254.7 271.5,305.0 271.5,289.1 272.5,315.2 272.5,307.9 273.5,316.0 273.5,312.1 274.5,309.9 274.5,297.0 275.5,292.7 275.5,266.1 276.5,259.9 276.5,232.7 277.5,225.4 277.5,195.7 278.5,188.1 278.5,151.6 279.5,144.7 279.5,119.4 280.5,113.8 280.5,94.6 281.5,90.8 281.5,78.1 282.5,77.0 282.5,76.0 283.5,87.3 283.5,78.1 284.5,113.6 284.5,90.7 285.5,144.6 285.5,119.3 286.5,180.5 286.5,151.4 287.5,225.3 287.5,188.0 288.5,259.7 288.5,232.5 289.5,288.0 289.5,266.0 290.5,309.9 290.5,292.6 291.5,316.0 291.5,312.0 292.5,315.8 292.5,310.4 293.5,308.0 293.5,289.2 294.5,284.3 294.5,261.3 295.5,254.9 295.5,227.1 296.5,219.8 296.5,182.4 297.5,174.9 297.5,146.3 298.5,139.5 298.5,109.6 299.5,104.6 299.5,88.1 300.5,85.1 300.5,77.2 301.5,79.3 301.5,76.0 302.5,93.6 302.5,81.3 303.5,118.0 303.5,97.8 304.5,156.9 304.5,123.8 305.5,193.8 305.5,164.1 306.5,230.9 306.5,201.3 307.5,270.6 307.5,238.0 308.5,296.0 308.5,276.4 309.5,311.6 309.5,299.9 310.5,316.0 310.5,313.4 311.5,314.4 311.5,305.7 312.5,302.5 312.5,285.4 313.5,280.2 313.5,249.8 314.5,242.9 314.5,214.1 315.5,206.6 315.5,176.6 316.5,169.2 316.5,134.5 317.5,128.1 317.5,105.7 318.5,100.9 318.5,85.7 319.5,83.0 319.5,76.1 320.5,80.8 320.5,76.1 321.5,101.2 321.5,83.1 322.5,128.5 322.5,106.0 323.5,162.4 323.5,134.9 324.5,207.1 324.5,169.7 325.5,243.4 325.5,214.6 326.5,275.1 326.5,250.2 327.5,302.7 327.5,280.6 328.5,314.4 328.5,305.9 329.5,316.0 329.5,314.6 330.5,313.3 330.5,299.7 331.5,295.7 331.5,276.0 332.5,270.2 332.5,244.5 333.5,237.5 333.5,200.8 334.5,193.3 334.5,163.6 335.5,156.4 335.5,129.5 336.5,123.4 336.5,97.5 337.5,93.4 337.5,81.2 338.5,79.2 338.5,76.0 339.5,85.3 339.5,76.4 340.5,104.9 340.5,88.4 341.5,133.4 341.5,110.0 342.5,175.4 342.5,140.0 343.5,212.9 343.5,182.9 344.5,248.7 344.5,220.3 345.5,284.6 345.5,255.3 346.5,305.2 346.5,289.5 347.5,315.8 347.5,308.1 348.5,316.0 348.5,311.9 349.5,309.7 349.5,296.6 350.5,292.3 350.5,265.6 351.5,259.3 351.5,232.0 352.5,224.8 352.5,195.0 353.5,187.5 353.5,151.0 354.5,144.1 354.5,118.9 355.5,113.3 355.5,94.3 356.5,90.5 356.5,78.0 357.5,77.0 357.5,76.0 358.5,87.6 358.5,78.2 359.5,114.1 359.5,91.1 360.5,145.2 360.5,119.8 361.5,181.2 361.5,152.1 362.5,225.9 362.5,188.7 363.5,260.3 363.5,233.2 364.5,288.4 364.5,266.5 365.5,310.1 365.5,293.0 366.5,316.0 366.5,312.2 367.5,315.8 367.5,310.2 368.5,307.7 368.5,288.7 369.5,283.8 369.5,260.7 370.5,254.3 370.5,219.1 371.5,211.7 371.5,181.7 372.5,174.2 372.5,145.6 373.5,138.9 373.5,109.1 374.5,104.1 374.5,87.8 375.5,84.8 375.5,77.1 376.5,79.5 376.5,76.0 377.5,94.0 377.5,81.5 378.5,118.5 378.5,98.2 379.5,157.5 379.5,124.4 380.5,194.5 380.5,164.7 381.5,231.5 381.5,202.0 382.5,271.2 382.5,238.6 383.5,296.3 383.5,276.9 384.5,311.7 384.5,300.3 385.5,316.0 385.5,313.5 386.5,314.2 386.5,305.5 387.5,302.2 387.5,284.9 388.5,279.7 388.5,249.1 389.5,242.3 389.5,213.4 390.5,205.9 390.5,175.9 391.5,168.5 391.5,133.9 392.5,127.6 392.5,105.2 393.5,100.5 393.5,82.7 394.5,80.5 394.5,76.0 395.5,81.0 395.5,76.1 396.5,101.6 396.5,83.4 397.5,129.1 397.5,106.5 398.5,163.1 398.5,135.5 399.5,207.8 399.5,170.4 400.5,244.0 400.5,215.2 401.5,275.6 401.5,250.8 402.5,303.0 402.5,281.1 403.5,314.5 403.5,306.2 404.5,315.9 404.5,314.5 405.5,313.1 405.5,299.3 406.5,295.3 406.5,275.5 407.5,269.7 407.5,243.9 408.5,236.9 408.5,200.1 409.5,192.6 409.5,162.9 410.5,155.8 410.5,129.0 411.5,122.9 411.5,97.1 412.5,93.0 412.5,81.0 413.5,79.0 413.5,76.0 414.5,85.5 414.5,76.5 415.5,105.4 415.5,88.7 416.5,140.6 416.5,110.5 417.5,195.5 417.5,194.8 418.5,196.4 418.5,195.7 419.5,197.5 419.5,196.6 420.5,198.2 420.5,197.7 421.5,198.7 421.5,198.3 422.5,199.0 422.5,198.8 423.5,199.0 423.5,198.9 424.5,198.8 424.5,198.5 425.5,198.4 425.5,197.7 426.5,197.6 426.5,196.9 427.5,196.7 427.5,196.0 428.5,195.8 428.5,194.9 429.5,194.7 429.5,194.1 430.5,193.9 430.5,193.4 431.5,193.4 431.5,193.0 432.5,193.0 432.5,193.0 433.5,193.3 433.5,193.1 434.5,194.0 434.5,193.4 435.5,194.7 435.5,194.1 436.5,195.6 436.5,194.9 437.5,196.8 437.5,195.8 438.5,197.6 438.5,196.9 439.5,198.3 439.5,197.8 440.5,198.9 440.5,198.4 441.5,199.0 441.5,198.9 442.5,199.0 442.5,198.8 443.5,198.7 443.5,198.3 444.5,198.2 444.5,197.6 445.5,197.4 445.5,196.6 446.5,196.4 446.5,195.6 447.5,195.4 447.5,194.7 448.5,194.6 448.5,193.8 449.5,193.7 449.5,193.3 450.5,193.2 450.5,193.0 451.5,193.1 451.5,193.0 452.5,193.5 452.5,193.1 453.5,194.1 453.5,193.6 454.5,195.1 454.5,194.2 455.5,196.0 455.5,195.2 456.5,196.9 456.5,196.2 457.5,197.9 457.5,197.1 458.5,198.5 458.5,198.0 459.5,198.9 459.5,198.6 460.5,199.0 460.5,198.9 461.5,199.0 461.5,198.7 462.5,198.6 462.5,198.2 463.5,198.1 463.5,197.3 464.5,197.1 464.5,196.4 465.5,196.2 465.5,195.3 466.5,195.1 466.5,194.4 467.5,194.3 467.5,193.7 468.5,193.6 468.5,193.2 469.5,193.1 469.5,193.0 470.5,193.1 470.5,193.0 471.5,193.7 471.5,193.2 472.5,194.3 472.5,193.8 473.5,195.2 473.5,194.5 474.5,196.3 474.5,195.4 475.5,197.2 475.5,196.5 476.5,198.0 476.5,197.4 477.5,198.7 477.5,198.1 478.5,199.0 478.5,198.8 479.5,199.0 479.5,199.0 480.5,198.9 480.5,198.6 481.5,198.5 481.5,198.0 482.5,197.8 482.5,197.2 483.5,197.0 483.5,196.1 484.5,195.9 484.5,195.2 485.5,195.0 485.5,194.3 486.5,194.2 486.5,193.5 487.5,193.4 487.5,193.1 488.5,193.1 488.5,193.0 489.5,193.2 489.5,193.0 490.5,193.7 490.5,193.3 491.5,194.6 491.5,193.9 492.5,195.5 492.5,194.8 493.5,196.5 493.5,195.7 494.5,197.5 494.5,196.6 495.5,198.2 495.5,197.7 496.5,198.7 496.5,198.4 497.5,199.0 497.5,198.8 498.5,199.0 498.5,198.9 499.5,198.8 499.5,198.5 500.5,198.4 500.5,197.7 501.5,197.6 501.5,196.9 502.5,196.7 502.5,195.9 503.5,195.8 503.5,194.8 504.5,194.7 504.5,194.0 505.5,193.9 505.5,193.4 506.5,193.3 506.5,193.0 507.5,193.0 507.5,193.0 508.5,193.3 508.5,193.1 509.5,194.0 509.5,193.4 510.5,194.8 510.5,194.1 511.5,195.7 511.5,194.9 512.5,196.8 512.5,195.9 513.5,197.6 513.5,197.0 514.5,198.4 514.5,197.8 515.5,198.9 515.5,198.5 516.5,199.0 516.5,198.9 517.5,199.0 517.5,198.8 518.5,198.7 518.5,198.3 519.5,198.2 519.5,197.6 520.5,197.4 520.5,196.5 521.5,196.4 521.5,195.6 522.5,195.4 522.5,194.7 523.5,194.5 523.5,193.8 524.5,193.7 524.5,193.3 525.5,193.2 525.5,193.0 526.5,193.1 526.5,193.0 527.5,193.5 527.5,193.1 528.5,194.1 528.5,193.6 529.5,195.1 529.5,194.2 530.5,196.0 530.5,195.3 531.5,196.9 531.5,196.2 532.5,197.9 532.5,197.1 533.5,198.5 533.5,198.0 534.5,198.9 534.5,198.6 535.5,199.0 535.5,198.9 536.5,198.9 536.5,198.7 537.5,198.6 537.5,198.1 538.5,197.9 538.5,197.3 539.5,197.1 539.5,196.4 540.5,196.2 540.5,195.3 541.5,195.1 541.5,194.4 542.5,194.3 542.5,193.7 543.5,193.6 543.5,193.2 544.5,193.1 544.5,193.0 545.5,193.1 545.5,193.0 546.5,193.7 546.5,193.2 547.5,194.4 547.5,193.8 548.5,195.2 548.5,194.5 549.5,196.3 549.5,195.4 550.5,197.2 550.5,196.5 551.5,198.0 551.5,197.4 552.5,198.7 552.5,198.2 553.5,199.0 553.5,198.8 554.5,199.0 554.5,199.0 555.5,198.9 555.5,198.6 556.5,198.5 556.5,198.0 557.5,197.8 557.5,197.2 558.5,197.0 558.5,196.1 559.5,195.9 559.5,195.1 560.5,195.0 560.5,194.1 561.5,194.0 561.5,193.5 562.5,193.4 562.5,193.1 563.5,193.1 563.5,193.0 564.5,193.3 564.5,193.0 565.5,193.8 565.5,193.3 566.5,194.6 566.5,193.9 567.5,195.5 567.5,194.8 568.5,196.5 568.5,195.7 569.5,197.5 569.5,196.7 570.5,198.2 570.5,197.7 571.5,198.8 571.5,198.4 572.5,199.0 572.5,198.8 573.5,199.0 573.5,198.9 574.5,198.8 574.5,198.5 575.5,198.4 575.5,197.7 576.5,197.5 576.5,196.9 577.5,196.7 577.5,195.9 578.5,195.7 578.5,194.8 579.5,194.7 579.5,194.0 580.5,193.9 580.5,193.4 581.5,193.3 581.5,193.0 582.5,193.0 582.5,193.0 583.5,193.3 583.5,193.1 584.5,194.0 584.5,193.4 585.5,194.8 585.5,194.1 586.5,195.9 586.5,194.9 587.5,196.8 587.5,196.1 588.5,197.7 588.5,197.0 589.5,198.5 589.5,197.8 590.5,198.9 590.5,198.6 591.5,199.0 591.5,198.9 592.5,199.0 592.5,198.8 593.5,198.7 593.5,198.3 594.5,198.2 594.5,197.6 595.5,197.4 595.5,196.5 596.5,196.3 596.5,195.6 597.5,195.4 597.5,194.7 598.5,194.5 598.5,193.8 599.5,193.7 599.5,193.3 600.5,193.2 600.5,193.0 601.5,193.1 601.5,193.0 602.5,193.5 602.5,193.2 603.5,194.1 603.5,193.6 604.5,195.1 604.5,194.3 605.5,196.0 605.5,195.3 606.5,196.9 606.5,196.2 607.5,197.9 607.5,197.1 608.5,198.5 608.5,198.1 609.5,198.9 609.5,198.6 610.5,199.0 610.5,199.0 611.5,198.9 611.5,198.7 612.5,198.6 612.5,198.1 613.5,197.9 613.5,197.3 614.5,197.1 614.5,196.4 615.5,196.2 615.5,195.3 616.5,195.1 616.5,194.4 617.5,194.2 617.5,193.7 618.5,193.6 618.5,193.2 619.5,193.1 619.5,193.0 620.5,193.1 620.5,193.0 621.5,193.7 621.5,193.2 622.5,194.4 622.5,193.8 623.5,195.2 623.5,194.5 624.5,196.3 624.5,195.4 625.5,197.2 625.5,196.5 626.5,198.0 626.5,197.4 627.5,198.7 627.5,198.2 628.5,199.0 628.5,198.8 629.5,199.0 629.5,199.0 630.5,198.9 630.5,198.6 631.5,198.5 631.5,197.9 632.5,197.8 632.5,197.0 633.5,196.8 633.5,196.1 634.5,195.9 634.5,195.1 635.5,194.9 635.5,194.1 636.5,194.0 636.5,193.5 637.5,193.4 637.5,193.1 638.5,193.1 638.5,193.0 639.5,193.3 639.5,193.0 640.5,193.8 640.5,193.3 641.5,194.7 641.5,193.9 642.5,195.6 642.5,194.8 643.5,196.5 643.5,195.7 644.5,197.5 644.5,196.7 645.5,198.3 645.5,197.7 646.5,198.8 646.5,198.4 647.5,199.0 647.5,198.8 648.5,199.0 648.5,198.9 649.5,198.8 649.5,198.5 650.5,198.4 650.5,197.7 651.5,197.5 651.5,196.8 652.5,196.7 652.5,195.9 653.5,195.7 653.5,194.8 654.5,194.6 654.5,194.0 655.5,193.9 655.5,193.4 656.5,193.3 656.5,193.0 657.5,193.0 657.5,193.0 658.5,193.4 658.5,193.1 659.5,194.0 659.5,193.5 660.5,194.8 660.5,194.1 661.5,195.9 661.5,195.0 662.5,196.8 662.5,196.1 663.5,197.7 663.5,197.0 664.5,198.5 664.5,197.8 665.5,198.9 665.5,198.6 666.5,199.0 666.5,198.9 667.5,199.0 667.5,198.8 668.5,198.7 668.5,198.3 669.5,198.1 669.5,197.6 670.5,197.4 670.5,196.5 671.5,196.3 671.5,195.6 672.5,195.4 672.5,194.7 673.5,194.5 673.5,193.8 674.5,193.7 674.5,193.3 675.5,193.2 675.5,193.0 676.5,193.1 676.5,193.0 677.5,193.5 677.5,193.2 678.5,194.1 678.5,193.6 679.5,195.1 679.5,194.3 680.5,196.0 680.5,195.3 681.5,197.1 681.5,196.2 682.5,197.9 682.5,197.3 683.5,198.5 683.5,198.1 684.5,199.0 684.5,198.6 685.5,199.0 685.5,199.0 686.5,198.9 686.5,198.7 687.5,198.6 687.5,198.0 688.5,197.9 688.5,197.3 689.5,197.1 689.5,196.4 690.5,196.2 690.5,195.2 691.5,195.1 691.5,194.4 692.5,194.2 692.5,193.7 693.5,193.6 693.5,193.1 694.5,193.1 694.5,193.0 695.5,193.1 695.5,193.0 696.5,193.7 696.5,193.2 697.5,194.4 697.5,193.8 698.5,195.2 698.5,194.5 699.5,196.4 699.5,195.4 700.5,197.3 700.5,196.5 701.5,198.0 701.5,197.4 702.5,198.7 702.5,198.2 703.5,199.0 703.5,198.8 704.5,199.0 704.5,198.9 705.5,198.9 705.5,198.5 706.5,198.4 706.5,197.9 707.5,197.8 707.5,197.0 708.5,196.8 708.5,196.0 709.5,195.8 709.5,195.1 710.5,194.9 710.5,194.1 711.5,194.0 711.5,193.5 712.5,193.4 712.5,193.1 713.5,193.1 713.5,193.0 714.5,193.3 714.5,193.0 715.5,193.8 715.5,193.3 716.5,194.7 716.5,193.9 717.5,195.6 717.5,194.8 718.5,196.5 718.5,195.8 719.5,197.6 719.5,196.7 720.5,198.3 720.5,197.7 721.5,198.8 721.5,198.4 722.5,199.0 722.5,198.8 723.5,199.0 723.5,198.9 724.5,198.8 724.5,198.5 725.5,198.4 725.5,197.7 726.5,197.5 726.5,196.8 727.5,196.6 727.5,195.9 728.5,195.7 728.5,194.8 729.5,194.6 729.5,194.0 730.5,193.9 730.5,193.3 731.5,193.2 731.5,193.0 732.5,193.0 732.5,193.0 733.5,193.4 733.5,193.1 734.5,194.0 734.5,193.5 735.5,194.8 735.5,194.2 736.5,195.9 736.5,195.0 737.5,196.8 737.5,196.1 738.5,197.7 738.5,197.0 739.5,198.5 739.5,197.8 740.5,198.9 740.5,198.6 741.5,199.0 741.5,198.9 742.5,199.0 742.5,198.8 743.5,198.7 743.5,198.3 744.5,198.1 744.5,197.5 745.5,197.4 745.5,196.5 746.5,196.3 746.5,195.6 747.5,195.4 747.5,194.7 748.5,194.5 748.5,193.8 749.5,193.6 749.5,193.3 750.5,193.2 750.5,193.0 751.5,193.1 751.5,193.0 752.5,193.5 752.5,193.2 753.5,194.3 753.5,193.6 754.5,195.1 754.5,194.4 755.5,196.0 755.5,195.3 756.5,197.1 756.5,196.2 757.5,197.9 757.5,197.3 758.5,198.6 758.5,198.1 759.5,199.0 759.5,198.6 760.5,199.0 760.5,199.0 761.5,198.9 761.5,198.7 762.5,198.6 762.5,198.0 763.5,197.9 763.5,197.3 764.5,197.1 764.5,196.3 765.5,196.2 765.5,195.2 766.5,195.1 766.5,194.4 767.5,194.2 767.5,193.7 768.5,193.6 768.5,193.1 769.5,193.1 769.5,193.0 770.5,193.2 770.5,193.0 771.5,193.7 771.5,193.2 772.5,194.4 772.5,193.8 773.5,195.3 773.5,194.6 774.5,196.4 774.5,195.4 775.5,197.3 775.5,196.6 776.5,198.2 776.5,197.4 777.5,198.7 777.5,198.3 778.5,199.0 778.5,198.8 779.5,199.0 779.5,198.9 780.5,198.9 780.5,198.5 781.5,198.4 781.5,197.9 782.5,197.8 782.5,196.9 783.5,196.8 783.5,196.0 784.5,195.8 784.5,195.1 785.5,194.9 785.5,194.1 786.5,194.0 786.5,193.5 787.5,193.4 787.5,193.1 788.5,193.1 788.5,193.0 789.5,193.3 789.5,193.0 790.5,193.8 790.5,193.4 791.5,194.7 791.5,193.9 792.5,195.6 792.5,194.9 793.5,196.5 793.5,195.8 794.5,197.6 794.5,196.7 795.5,198.3 795.5,197.7 796.5,198.8 796.5,198.4 797.5,199.0 797.5,198.8 798.5,199.0 798.5,198.9 799.5,198.8 799.5,198.3" fill="none" stroke="#3b82f6" stroke-width="1.5" stroke-linejoin="round"/>
  <line x1="34" y1="8" x2="46" y2="8" stroke="#d1d5db" stroke-width="2"/>
  <text x="49" y="11" text-anchor="start" font-size="11" fill="#6b7280">input</text>
  <line x1="88" y1="8" x2="100" y2="8" stroke="#3b82f6" stroke-width="2"/>
  <text x="103" y="11" text-anchor="start" font-size="11" fill="#6b7280">gated</text>
</svg>
