<svg xmlns="http://www.w3.org/2000/svg" viewBox="0 0 820 392" style="font-family:system-ui,-apple-system,sans-serif">
  <defs>
    <clipPath id="clip1"><rect x="34" y="16" width="358" height="155"/></clipPath>

    <clipPath id="clip2"><rect x="442" y="16" width="358" height="155"/></clipPath>

    <clipPath id="clip3"><rect x="34" y="221" width="358" height="155"/></clipPath>

    <clipPath id="clip4"><rect x="442" y="221" width="358" height="155"/></clipPath>
  </defs>
  <text x="800" y="11" text-anchor="end" font-size="11" font-weight="600" fill="#6b7280">Haas effect (right ch delayed 20ms)</text>
  <line x1="34" y1="16" x2="34" y2="171" stroke="#d1d5db"/>
  <line x1="34" y1="47.0" x2="392" y2="47.0" stroke="#d1d5db"/>
  <text x="213" y="197" text-anchor="middle" font-size="9" fill="#6b7280">Hz</text>
  <text x="12" y="93.5" text-anchor="middle" font-size="9" fill="#6b7280" transform="rotate(-90 12 93.5)">dB</text>
  <line x1="66.6" y1="16" x2="66.6" y2="171" stroke="#e5e7eb" stroke-width="0.5"/>
  <line x1="85.7" y1="16" x2="85.7" y2="171" stroke="#e5e7eb" stroke-width="0.5"/>
  <line x1="99.3" y1="16" x2="99.3" y2="171" stroke="#e5e7eb" stroke-width="0.5"/>
  <line x1="109.8" y1="16" x2="109.8" y2="171" stroke="#e5e7eb" stroke-width="0.5"/>
  <line x1="118.4" y1="16" x2="118.4" y2="171" stroke="#e5e7eb" stroke-width="0.5"/>
  <line x1="125.7" y1="16" x2="125.7" y2="171" stroke="#e5e7eb" stroke-width="0.5"/>
  <line x1="131.9" y1="16" x2="131.9" y2="171" stroke="#e5e7eb" stroke-width="0.5"/>
  <line x1="137.5" y1="16" x2="137.5" y2="171" stroke="#e5e7eb" stroke-width="0.5"/>
  <line x1="175.1" y1="16" x2="175.1" y2="171" stroke="#e5e7eb" stroke-width="0.5"/>
  <line x1="194.2" y1="16" x2="194.2" y2="171" stroke="#e5e7eb" stroke-width="0.5"/>
  <line x1="207.7" y1="16" x2="207.7" y2="171" stroke="#e5e7eb" stroke-width="0.5"/>
  <line x1="218.3" y1="16" x2="218.3" y2="171" stroke="#e5e7eb" stroke-width="0.5"/>
  <line x1="226.8" y1="16" x2="226.8" y2="171" stroke="#e5e7eb" stroke-width="0.5"/>
  <line x1="234.1" y1="16" x2="234.1" y2="171" stroke="#e5e7eb" stroke-width="0.5"/>
  <line x1="240.4" y1="16" x2="240.4" y2="171" stroke="#e5e7eb" stroke-width="0.5"/>
  <line x1="245.9" y1="16" x2="245.9" y2="171" stroke="#e5e7eb" stroke-width="0.5"/>
  <line x1="283.5" y1="16" x2="283.5" y2="171" stroke="#e5e7eb" stroke-width="0.5"/>
  <line x1="302.6" y1="16" x2="302.6" y2="171" stroke="#e5e7eb" stroke-width="0.5"/>
  <line x1="316.2" y1="16" x2="316.2" y2="171" stroke="#e5e7eb" stroke-width="0.5"/>
  <line x1="326.7" y1="16" x2="326.7" y2="171" stroke="#e5e7eb" stroke-width="0.5"/>
  <line x1="335.3" y1="16" x2="335.3" y2="171" stroke="#e5e7eb" stroke-width="0.5"/>
  <line x1="342.6" y1="16" x2="342.6" y2="171" stroke="#e5e7eb" stroke-width="0.5"/>
  <line x1="348.8" y1="16" x2="348.8" y2="171" stroke="#e5e7eb" stroke-width="0.5"/>
  <line x1="354.4" y1="16" x2="354.4" y2="171" stroke="#e5e7eb" stroke-width="0.5"/>
  <line x1="392.0" y1="16" x2="392.0" y2="171" stroke="#e5e7eb" stroke-width="0.5"/>
  <line x1="34.0" y1="16" x2="34.0" y2="171" stroke="#e5e7eb" stroke-width="0.5"/>
  <text x="34.0" y="183" text-anchor="middle" font-size="8" fill="#6b7280">10</text>
  <line x1="142.5" y1="16" x2="142.5" y2="171" stroke="#e5e7eb" stroke-width="0.5"/>
  <text x="142.5" y="183" text-anchor="middle" font-size="8" fill="#6b7280">100</text>
  <line x1="250.9" y1="16" x2="250.9" y2="171" stroke="#e5e7eb" stroke-width="0.5"/>
  <text x="250.9" y="183" text-anchor="middle" font-size="8" fill="#6b7280">1k</text>
  <line x1="359.4" y1="16" x2="359.4" y2="171" stroke="#e5e7eb" stroke-width="0.5"/>
  <text x="359.4" y="183" text-anchor="middle" font-size="8" fill="#6b7280">10k</text>
  <line x1="34" y1="171.0" x2="392" y2="171.0" stroke="#e5e7eb" stroke-width="0.5"/>
  <line x1="34" y1="140.0" x2="392" y2="140.0" stroke="#e5e7eb" stroke-width="0.5"/>
  <line x1="34" y1="109.0" x2="392" y2="109.0" stroke="#e5e7eb" stroke-width="0.5"/>
  <line x1="34" y1="78.0" x2="392" y2="78.0" stroke="#e5e7eb" stroke-width="0.5"/>
  <line x1="34" y1="16.0" x2="392" y2="16.0" stroke="#e5e7eb" stroke-width="0.5"/>
  <line x1="34" y1="62.5" x2="392" y2="62.5" stroke="#e5e7eb" stroke-width="0.5"/>
  <line x1="34" y1="31.5" x2="392" y2="31.5" stroke="#e5e7eb" stroke-width="0.5"/>
  <text x="30" y="174.0" text-anchor="end" font-size="8" fill="#6b7280">-80</text>
  <text x="30" y="143.0" text-anchor="end" font-size="8" fill="#6b7280">-60</text>
  <text x="30" y="112.0" text-anchor="end" font-size="8" fill="#6b7280">-40</text>
  <text x="30" y="81.0" text-anchor="end" font-size="8" fill="#6b7280">-20</text>
  <text x="30" y="50.0" text-anchor="end" font-size="8" fill="#6b7280">0</text>
  <text x="30" y="19.0" text-anchor="end" font-size="8" fill="#6b7280">+20</text>
  <g clip-path="url(#clip1)">
  </g>
  <line x1="442" y1="16" x2="442" y2="171" stroke="#d1d5db"/>
  <line x1="442" y1="93.5" x2="800" y2="93.5" stroke="#d1d5db"/>
  <text x="621" y="197" text-anchor="middle" font-size="9" fill="#6b7280">Hz</text>
  <text x="420" y="93.5" text-anchor="middle" font-size="9" fill="#6b7280" transform="rotate(-90 420 93.5)">Phase (deg)</text>
  <line x1="474.6" y1="16" x2="474.6" y2="171" stroke="#e5e7eb" stroke-width="0.5"/>
  <line x1="493.7" y1="16" x2="493.7" y2="171" stroke="#e5e7eb" stroke-width="0.5"/>
  <line x1="507.3" y1="16" x2="507.3" y2="171" stroke="#e5e7eb" stroke-width="0.5"/>
  <line x1="517.8" y1="16" x2="517.8" y2="171" stroke="#e5e7eb" stroke-width="0.5"/>
  <line x1="526.4" y1="16" x2="526.4" y2="171" stroke="#e5e7eb" stroke-width="0.5"/>
  <line x1="533.7" y1="16" x2="533.7" y2="171" stroke="#e5e7eb" stroke-width="0.5"/>
  <line x1="539.9" y1="16" x2="539.9" y2="171" stroke="#e5e7eb" stroke-width="0.5"/>
  <line x1="545.5" y1="16" x2="545.5" y2="171" stroke="#e5e7eb" stroke-width="0.5"/>
  <line x1="583.1" y1="16" x2="583.1" y2="171" stroke="#e5e7eb" stroke-width="0.5"/>
  <line x1="602.2" y1="16" x2="602.2" y2="171" stroke="#e5e7eb" stroke-width="0.5"/>
  <line x1="615.7" y1="16" x2="615.7" y2="171" stroke="#e5e7eb" stroke-width="0.5"/>
  <line x1="626.3" y1="16" x2="626.3" y2="171" stroke="#e5e7eb" stroke-width="0.5"/>
  <line x1="634.8" y1="16" x2="634.8" y2="171" stroke="#e5e7eb" stroke-width="0.5"/>
  <line x1="642.1" y1="16" x2="642.1" y2="171" stroke="#e5e7eb" stroke-width="0.5"/>
  <line x1="648.4" y1="16" x2="648.4" y2="171" stroke="#e5e7eb" stroke-width="0.5"/>
  <line x1="653.9" y1="16" x2="653.9" y2="171" stroke="#e5e7eb" stroke-width="0.5"/>
  <line x1="691.5" y1="16" x2="691.5" y2="171" stroke="#e5e7eb" stroke-width="0.5"/>
  <line x1="710.6" y1="16" x2="710.6" y2="171" stroke="#e5e7eb" stroke-width="0.5"/>
  <line x1="724.2" y1="16" x2="724.2" y2="171" stroke="#e5e7eb" stroke-width="0.5"/>
  <line x1="734.7" y1="16" x2="734.7" y2="171" stroke="#e5e7eb" stroke-width="0.5"/>
  <line x1="743.3" y1="16" x2="743.3" y2="171" stroke="#e5e7eb" stroke-width="0.5"/>
  <line x1="750.6" y1="16" x2="750.6" y2="171" stroke="#e5e7eb" stroke-width="0.5"/>
  <line x1="756.8" y1="16" x2="756.8" y2="171" stroke="#e5e7eb" stroke-width="0.5"/>
  <line x1="762.4" y1="16" x2="762.4" y2="171" stroke="#e5e7eb" stroke-width="0.5"/>
  <line x1="800.0" y1="16" x2="800.0" y2="171" stroke="#e5e7eb" stroke-width="0.5"/>
  <line x1="442.0" y1="16" x2="442.0" y2="171" stroke="#e5e7eb" stroke-width="0.5"/>
  <text x="442.0" y="183" text-anchor="middle" font-size="8" fill="#6b7280">10</text>
  <line x1="550.5" y1="16" x2="550.5" y2="171" stroke="#e5e7eb" stroke-width="0.5"/>
  <text x="550.5" y="183" text-anchor="middle" font-size="8" fill="#6b7280">100</text>
  <line x1="658.9" y1="16" x2="658.9" y2="171" stroke="#e5e7eb" stroke-width="0.5"/>
  <text x="658.9" y="183" text-anchor="middle" font-size="8" fill="#6b7280">1k</text>
  <line x1="767.4" y1="16" x2="767.4" y2="171" stroke="#e5e7eb" stroke-width="0.5"/>
  <text x="767.4" y="183" text-anchor="middle" font-size="8" fill="#6b7280">10k</text>
  <line x1="442" y1="54.8" x2="800" y2="54.8" stroke="#e5e7eb" stroke-width="0.5"/>
  <line x1="442" y1="132.3" x2="800" y2="132.3" stroke="#e5e7eb" stroke-width="0.5"/>
  <line x1="442" y1="16.0" x2="800" y2="16.0" stroke="#e5e7eb" stroke-width="0.5"/>
  <text x="438" y="19.0" text-anchor="end" font-size="8" fill="#6b7280">+180</text>
  <text x="438" y="96.5" text-anchor="end" font-size="8" fill="#6b7280">0</text>
  <line x1="442" y1="171.0" x2="800" y2="171.0" stroke="#e5e7eb" stroke-width="0.5"/>
  <text x="438" y="174.0" text-anchor="end" font-size="8" fill="#6b7280">-180</text>
  <g clip-path="url(#clip2)">
  <polyline points="445.5,93.5 478.1,93.5 497.2,93.5 510.8,93.5 521.3,93.5 529.9,93.5 537.1,93.5 543.4,93.5 549.0,93.5 553.9,93.5 558.4,93.5 562.5,93.5 566.3,93.5 569.8,93.5 573.0,93.5 576.1,93.5 578.9,93.5 581.6,93.5 584.2,93.5 586.6,93.5 588.9,93.5 591.1,93.5 593.2,93.5 595.2,93.5 597.1,93.5 598.9,93.5 600.7,93.5 602.4,93.5 604.1,93.5 605.7,93.5 607.2,93.5 608.7,93.5 610.2,93.5 611.6,93.5 612.9,93.5 614.3,93.5 615.6,93.5 616.8,93.5 618.0,93.5 619.2,93.5 620.4,93.5 621.5,93.5 622.6,93.5 623.7,93.5 624.8,93.5 625.8,93.5 626.8,93.5 627.8,93.5 628.8,93.5 629.7,93.5 630.7,93.5 631.6,93.5 632.5,93.5 633.4,93.5 634.2,93.5 635.1,93.5 635.9,93.5 636.7,93.5 637.5,93.5 638.3,93.5 639.1,93.5 639.9,93.5 640.6,93.5 641.4,93.5 642.1,93.5 642.8,93.5 643.5,93.5 644.2,93.5 644.9,93.5 645.6,93.5 646.2,93.5 646.9,93.5 647.6,93.5 648.2,93.5 648.8,93.5 649.5,93.5 650.1,93.5 650.7,93.5 651.3,93.5 651.9,93.5 652.5,93.5 653.0,93.5 653.6,93.5 654.2,93.5 654.7,93.5 655.3,93.5 655.8,93.5 656.4,93.5 656.9,93.5 657.4,93.5 657.9,93.5 658.5,93.5 659.0,93.5 659.5,93.5 660.0,93.5 660.5,93.5 660.9,93.5 661.4,93.5 661.9,93.5 662.4,93.5 662.8,93.5 663.3,93.5 663.8,93.5 664.2,93.5 664.7,93.5 665.1,93.5 665.6,93.5 666.0,93.5 666.4,93.5 666.9,93.5 667.3,93.5 667.7,93.5 668.1,93.5 668.6,93.5 669.0,93.5 669.4,93.5 669.8,93.5 670.2,93.5 670.6,93.5 671.0,93.5 671.4,93.5 671.7,93.5 672.1,93.5 672.5,93.5 672.9,93.5 673.3,93.5 673.6,93.5 674.0,93.5 674.4,93.5 674.7,93.5 675.1,93.5 675.5,93.5 675.8,93.5 676.2,93.5 676.5,93.5 676.9,93.5 677.2,93.5 677.6,93.5 677.9,93.5 678.2,93.5 678.6,93.5 678.9,93.5 679.2,93.5 679.6,93.5 679.9,93.5 680.2,93.5 680.5,93.5 680.8,93.5 681.2,93.5 681.5,93.5 681.8,93.5 682.1,93.5 682.4,93.5 682.7,93.5 683.0,93.5 683.3,93.5 683.6,93.5 683.9,93.5 684.2,93.5 684.5,93.5 684.8,93.5 685.1,93.5 685.4,93.5 685.7,93.5 686.0,93.5 686.3,93.5 686.5,93.5 686.8,93.5 687.1,93.5 687.4,93.5 687.6,93.5 687.9,93.5 688.2,93.5 688.5,93.5 688.7,93.5 689.0,93.5 689.3,93.5 689.5,93.5 689.8,93.5 690.1,93.5 690.3,93.5 690.6,93.5 690.8,93.5 691.1,93.5 691.4,93.5 691.6,93.5 691.9,93.5 692.1,93.5 692.4,93.5 692.6,93.5 692.9,93.5 693.1,93.5 693.3,93.5 693.6,93.5 693.8,93.5 694.1,93.5 694.3,93.5 694.6,93.5 694.8,93.5 695.0,93.5 695.3,93.5 695.5,93.5 695.7,93.5 696.0,93.5 696.2,93.5 696.4,93.5 696.6,93.5 696.9,93.5 697.1,93.5 697.3,93.5 697.5,93.5 697.8,93.5 698.0,93.5 698.2,93.5 698.4,93.5 698.7,93.5 698.9,93.5 699.1,93.5 699.3,93.5 699.5,93.5 699.7,93.5 699.9,93.5 700.2,93.5 700.4,93.5 700.6,93.5 700.8,93.5 701.0,93.5 701.2,93.5 701.4,93.5 701.6,93.5 701.8,93.5 702.0,93.5 702.2,93.5 702.4,93.5 702.6,93.5 702.8,93.5 703.0,93.5 703.2,93.5 703.4,93.5 703.6,93.5 703.8,93.5 704.0,93.5 704.2,93.5 704.4,93.5 704.6,93.5 704.8,93.5 705.0,93.5 705.2,93.5 705.3,93.5 705.5,93.5 705.7,93.5 705.9,93.5 706.1,93.5 706.3,93.5 706.5,93.5 706.7,93.5 706.8,93.5 707.0,93.5 707.2,93.5 707.4,93.5 707.6,93.5 707.7,93.5 707.9,93.5 708.1,93.5 708.3,93.5 708.5,93.5 708.6,93.5 708.8,93.5 709.0,93.5 709.2,93.5 709.3,93.5 709.5,93.5 709.7,93.5 709.9,93.5 710.0,93.5 710.2,93.5 710.4,93.5 710.5,93.5 710.7,93.5 710.9,93.5 711.0,93.5 711.2,93.5 711.4,93.5 711.5,93.5 711.7,93.5 711.9,93.5 712.0,93.5 712.2,93.5 712.4,93.5 712.5,93.5 712.7,93.5 712.9,93.5 713.0,93.5 713.2,93.5 713.3,93.5 713.5,93.5 713.7,93.5 713.8,93.5 714.0,93.5 714.1,93.5 714.3,93.5 714.4,93.5 714.6,93.5 714.7,93.5 714.9,93.5 715.1,93.5 715.2,93.5 715.4,93.5 715.5,93.5 715.7,93.5 715.8,93.5 716.0,93.5 716.1,93.5 716.3,93.5 716.4,93.5 716.6,93.5 716.7,93.5 716.9,93.5 717.0,93.5 717.2,93.5 717.3,93.5 717.5,93.5 717.6,93.5 717.8,93.5 717.9,93.5 718.0,93.5 718.2,93.5 718.3,93.5 718.5,93.5 718.6,93.5 718.8,93.5 718.9,93.5 719.0,93.5 719.2,93.5 719.3,93.5 719.5,93.5 719.6,93.5 719.7,93.5 719.9,93.5 720.0,93.5 720.2,93.5 720.3,93.5 720.4,93.5 720.6,93.5 720.7,93.5 720.8,93.5 721.0,93.5 721.1,93.5 721.3,93.5 721.4,93.5 721.5,93.5 721.7,93.5 721.8,93.5 721.9,93.5 722.1,93.5 722.2,93.5 722.3,93.5 722.5,93.5 722.6,93.5 722.7,93.5 722.8,93.5 723.0,93.5 723.1,93.5 723.2,93.5 723.4,93.5 723.5,93.5 723.6,93.5 723.7,93.5 723.9,93.5 724.0,93.5 724.1,93.5 724.3,93.5 724.4,93.5 724.5,93.5 724.6,93.5 724.8,93.5 724.9,93.5 725.0,93.5 725.1,93.5 725.3,93.5 725.4,93.5 725.5,93.5 725.6,93.5 725.8,93.5 725.9,93.5 726.0,93.5 726.1,93.5 726.2,93.5 726.4,93.5 726.5,93.5 726.6,93.5 726.7,93.5 726.8,93.5 727.0,93.5 727.1,93.5 727.2,93.5 727.3,93.5 727.4,93.5 727.6,93.5 727.7,93.5 727.8,93.5 727.9,93.5 728.0,93.5 728.1,93.5 728.3,93.5 728.4,93.5 728.5,93.5 728.6,93.5 728.7,93.5 728.8,93.5 729.0,93.5 729.1,93.5 729.2,93.5 729.3,93.5 729.4,93.5 729.5,93.5 729.6,93.5 729.7,93.5 729.9,93.5 730.0,93.5 730.1,93.5 730.2,93.5 730.3,93.5 730.4,93.5 730.5,93.5 730.6,93.5 730.8,93.5 730.9,93.5 731.0,93.5 731.1,93.5 731.2,93.5 731.3,93.5 731.4,93.5 731.5,93.5 731.6,93.5 731.7,93.5 731.8,93.5 731.9,93.5 732.1,93.5 732.2,93.5 732.3,93.5 732.4,93.5 732.5,93.5 732.6,93.5 732.7,93.5 732.8,93.5 732.9,93.5 733.0,93.5 733.1,93.5 733.2,93.5 733.3,93.5 733.4,93.5 733.5,93.5 733.6,93.5 733.7,93.5 733.8,93.5 733.9,93.5 734.1,93.5 734.2,93.5 734.3,93.5 734.4,93.5 734.5,93.5 734.6,93.5 734.7,93.5 734.8,93.5 734.9,93.5 735.0,93.5 735.1,93.5 735.2,93.5 735.3,93.5 735.4,93.5 735.5,93.5 735.6,93.5 735.7,93.5 735.8,93.5 735.9,93.5 736.0,93.5 736.1,93.5 736.2,93.5 736.3,93.5 736.4,93.5 736.5,93.5 736.6,93.5 736.7,93.5 736.8,93.5 736.8,93.5 736.9,93.5 737.0,93.5 737.1,93.5 737.2,93.5 737.3,93.5 737.4,93.5 737.5,93.5 737.6,93.5 737.7,93.5 737.8,93.5 737.9,93.5 738.0,93.5 738.1,93.5 738.2,93.5 738.3,93.5 738.4,93.5 738.5,93.5 738.6,93.5 738.7,93.5 738.7,93.5 738.8,93.5 738.9,93.5 739.0,93.5 739.1,93.5 739.2,93.5 739.3,93.5 739.4,93.5 739.5,93.5 739.6,93.5 739.7,93.5 739.8,93.5 739.9,93.5 739.9,93.5 740.0,93.5 740.1,93.5 740.2,93.5 740.3,93.5 740.4,93.5 740.5,93.5 740.6,93.5 740.7,93.5 740.8,93.5 740.8,93.5 740.9,93.5 741.0,93.5 741.1,93.5 741.2,93.5 741.3,93.5 741.4,93.5 741.5,93.5 741.5,93.5 741.6,93.5 741.7,93.5 741.8,93.5 741.9,93.5 742.0,93.5 742.1,93.5 742.2,93.5 742.2,93.5 742.3,93.5 742.4,93.5 742.5,93.5 742.6,93.5 742.7,93.5 742.8,93.5 742.8,93.5 742.9,93.5 743.0,93.5 743.1,93.5 743.2,93.5 743.3,93.5 743.4,93.5 743.4,93.5 743.5,93.5 743.6,93.5 743.7,93.5 743.8,93.5 743.9,93.5 743.9,93.5 744.0,93.5 744.1,93.5 744.2,93.5 744.3,93.5 744.4,93.5 744.4,93.5 744.5,93.5 744.6,93.5 744.7,93.5 744.8,93.5 744.8,93.5 744.9,93.5 745.0,93.5 745.1,93.5 745.2,93.5 745.3,93.5 745.3,93.5 745.4,93.5 745.5,93.5 745.6,93.5 745.7,93.5 745.7,93.5 745.8,93.5 745.9,93.5 746.0,93.5 746.1,93.5 746.1,93.5 746.2,93.5 746.3,93.5 746.4,93.5 746.5,93.5 746.5,93.5 746.6,93.5 746.7,93.5 746.8,93.5 746.9,93.5 746.9,93.5 747.0,93.5 747.1,93.5 747.2,93.5 747.2,93.5 747.3,93.5 747.4,93.5 747.5,93.5 747.6,93.5 747.6,93.5 747.7,93.5 747.8,93.5 747.9,93.5 747.9,93.5 748.0,93.5 748.1,93.5 748.2,93.5 748.2,93.5 748.3,93.5 748.4,93.5 748.5,93.5 748.5,93.5 748.6,93.5 748.7,93.5 748.8,93.5 748.8,93.5 748.9,93.5 749.0,93.5 749.1,93.5 749.1,93.5 749.2,93.5 749.3,93.5 749.4,93.5 749.4,93.5 749.5,93.5 749.6,93.5 749.7,93.5 749.7,93.5 749.8,93.5 749.9,93.5 750.0,93.5 750.0,93.5 750.1,93.5 750.2,93.5 750.3,93.5 750.3,93.5 750.4,93.5 750.5,93.5 750.5,93.5 750.6,93.5 750.7,93.5 750.8,93.5 750.8,93.5 750.9,93.5 751.0,93.5 751.0,93.5 751.1,93.5 751.2,93.5 751.3,93.5 751.3,93.5 751.4,93.5 751.5,93.5 751.5,93.5 751.6,93.5 751.7,93.5 751.8,93.5 751.8,93.5 751.9,93.5 752.0,93.5 752.0,93.5 752.1,93.5 752.2,93.5 752.2,93.5 752.3,93.5 752.4,93.5 752.5,93.5 752.5,93.5 752.6,93.5 752.7,93.5 752.7,93.5 752.8,93.5 752.9,93.5 752.9,93.5 753.0,93.5 753.1,93.5 753.1,93.5 753.2,93.5 753.3,93.5 753.4,93.5 753.4,93.5 753.5,93.5 753.6,93.5 753.6,93.5 753.7,93.5 753.8,93.5 753.8,93.5 753.9,93.5 754.0,93.5 754.0,93.5 754.1,93.5 754.2,93.5 754.2,93.5 754.3,93.5 754.4,93.5 754.4,93.5 754.5,93.5 754.6,93.5 754.6,93.5 754.7,93.5 754.8,93.5 754.8,93.5 754.9,93.5 755.0,93.5 755.0,93.5 755.1,93.5 755.2,93.5 755.2,93.5 755.3,93.5 755.4,93.5 755.4,93.5 755.5,93.5 755.6,93.5 755.6,93.5 755.7,93.5 755.8,93.5 755.8,93.5 755.9,93.5 755.9,93.5 756.0,93.5 756.1,93.5 756.1,93.5 756.2,93.5 756.3,93.5 756.3,93.5 756.4,93.5 756.5,93.5 756.5,93.5 756.6,93.5 756.7,93.5 756.7,93.5 756.8,93.5 756.8,93.5 756.9,93.5 757.0,93.5 757.0,93.5 757.1,93.5 757.2,93.5 757.2,93.5 757.3,93.5 757.3,93.5 757.4,93.5 757.5,93.5 757.5,93.5 757.6,93.5 757.7,93.5 757.7,93.5 757.8,93.5 757.8,93.5 757.9,93.5 758.0,93.5 758.0,93.5 758.1,93.5 758.2,93.5 758.2,93.5 758.3,93.5 758.3,93.5 758.4,93.5 758.5,93.5 758.5,93.5 758.6,93.5 758.6,93.5 758.7,93.5 758.8,93.5 758.8,93.5 758.9,93.5 758.9,93.5 759.0,93.5 759.1,93.5 759.1,93.5 759.2,93.5 759.3,93.5 759.3,93.5 759.4,93.5 759.4,93.5 759.5,93.5 759.6,93.5 759.6,93.5 759.7,93.5 759.7,93.5 759.8,93.5 759.8,93.5 759.9,93.5 760.0,93.5 760.0,93.5 760.1,93.5 760.1,93.5 760.2,93.5 760.3,93.5 760.3,93.5 760.4,93.5 760.4,93.5 760.5,93.5 760.6,93.5 760.6,93.5 760.7,93.5 760.7,93.5 760.8,93.5 760.8,93.5 760.9,93.5 761.0,93.5 761.0,93.5 761.1,93.5 761.1,93.5 761.2,93.5 761.3,93.5 761.3,93.5 761.4,93.5 761.4,93.5 761.5,93.5 761.5,93.5 761.6,93.5 761.7,93.5 761.7,93.5 761.8,93.5 761.8,93.5 761.9,93.5 761.9,93.5 762.0,93.5 762.1,93.5 762.1,93.5 762.2,93.5 762.2,93.5 762.3,93.5 762.3,93.5 762.4,93.5 762.5,93.5 762.5,93.5 762.6,93.5 762.6,93.5 762.7,93.5 762.7,93.5 762.8,93.5 762.8,93.5 762.9,93.5 763.0,93.5 763.0,93.5 763.1,93.5 763.1,93.5 763.2,93.5 763.2,93.5 763.3,93.5 763.3,93.5 763.4,93.5 763.5,93.5 763.5,93.5 763.6,93.5 763.6,93.5 763.7,93.5 763.7,93.5 763.8,93.5 763.8,93.5 763.9,93.5 763.9,93.5 764.0,93.5 764.1,93.5 764.1,93.5 764.2,93.5 764.2,93.5 764.3,93.5 764.3,93.5 764.4,93.5 764.4,93.5 764.5,93.5 764.5,93.5 764.6,93.5 764.7,93.5 764.7,93.5 764.8,93.5 764.8,93.5 764.9,93.5 764.9,93.5 765.0,93.5 765.0,93.5 765.1,93.5 765.1,93.5 765.2,93.5 765.2,93.5 765.3,93.5 765.3,93.5 765.4,93.5 765.4,93.5 765.5,93.5 765.6,93.5 765.6,93.5 765.7,93.5 765.7,93.5 765.8,93.5 765.8,93.5 765.9,93.5 765.9,93.5 766.0,93.5 766.0,93.5 766.1,93.5 766.1,93.5 766.2,93.5 766.2,93.5 766.3,93.5 766.3,93.5 766.4,93.5 766.4,93.5 766.5,93.5 766.5,93.5 766.6,93.5 766.6,93.5 766.7,93.5 766.8,93.5 766.8,93.5 766.9,93.5 766.9,93.5 767.0,93.5 767.0,93.5 767.1,93.5 767.1,93.5 767.2,93.5 767.2,93.5 767.3,93.5 767.3,93.5 767.4,93.5 767.4,93.5 767.5,93.5 767.5,93.5 767.6,93.5 767.6,93.5 767.7,93.5 767.7,93.5 767.8,93.5 767.8,93.5 767.9,93.5 767.9,93.5 768.0,93.5 768.0,93.5 768.1,93.5 768.1,93.5 768.2,93.5 768.2,93.5 768.3,93.5 768.3,93.5 768.4,93.5 768.4,93.5 768.5,93.5 768.5,93.5 768.6,93.5 768.6,93.5 768.7,93.5 768.7,93.5 768.8,93.5 768.8,93.5 768.9,93.5 768.9,93.5 769.0,93.5 769.0,93.5 769.1,93.5 769.1,93.5 769.2,93.5 769.2,93.5 769.3,93.5 769.3,93.5 769.3,93.5 769.4,93.5 769.4,93.5 769.5,93.5 769.5,93.5 769.6,93.5 769.6,93.5 769.7,93.5 769.7,93.5 769.8,93.5 769.8,93.5 769.9,93.5 769.9,93.5 770.0,93.5 770.0,93.5 770.1,93.5 770.1,93.5 770.2,93.5 770.2,93.5 770.3,93.5 770.3,93.5 770.4,93.5 770.4,93.5 770.5,93.5 770.5,93.5 770.5,93.5 770.6,93.5 770.6,93.5 770.7,93.5 770.7,93.5 770.8,93.5 770.8,93.5 770.9,93.5 770.9,93.5 771.0,93.5 771.0,93.5 771.1,93.5 771.1,93.5 771.2,93.5 771.2,93.5 771.3,93.5 771.3,93.5 771.3,93.5 771.4,93.5 771.4,93.5 771.5,93.5 771.5,93.5 771.6,93.5 771.6,93.5 771.7,93.5 771.7,93.5 771.8,93.5 771.8,93.5 771.9,93.5 771.9,93.5 771.9,93.5 772.0,93.5 772.0,93.5 772.1,93.5 772.1,93.5 772.2,93.5 772.2,93.5 772.3,93.5 772.3,93.5 772.4,93.5 772.4,93.5 772.5,93.5 772.5,93.5 772.5,93.5 772.6,93.5 772.6,93.5 772.7,93.5 772.7,93.5 772.8,93.5 772.8,93.5 772.9,93.5 772.9,93.5 773.0,93.5 773.0,93.5 773.0,93.5 773.1,93.5 773.1,93.5 773.2,93.5 773.2,93.5 773.3,93.5 773.3,93.5 773.4,93.5 773.4,93.5 773.4,93.5 773.5,93.5 773.5,93.5 773.6,93.5 773.6,93.5 773.7,93.5 773.7,93.5 773.8,93.5 773.8,93.5 773.8,93.5 773.9,93.5 773.9,93.5 774.0,93.5 774.0,93.5 774.1,93.5 774.1,93.5 774.2,93.5 774.2,93.5 774.2,93.5 774.3,93.5 774.3,93.5 774.4,93.5 774.4,93.5 774.5,93.5 774.5,93.5 774.5,93.5 774.6,93.5 774.6,93.5 774.7,93.5 774.7,93.5 774.8,93.5 774.8,93.5 774.8,93.5 774.9,93.5 774.9,93.5 775.0,93.5 775.0,93.5 775.1,93.5 775.1,93.5 775.1,93.5 775.2,93.5 775.2,93.5 775.3,93.5 775.3,93.5 775.4,93.5 775.4,93.5 775.4,93.5 775.5,93.5 775.5,93.5 775.6,93.5 775.6,93.5 775.7,93.5 775.7,93.5 775.7,93.5 775.8,93.5 775.8,93.5 775.9,93.5 775.9,93.5 776.0,93.5 776.0,93.5 776.0,93.5 776.1,93.5 776.1,93.5 776.2,93.5 776.2,93.5 776.3,93.5 776.3,93.5 776.3,93.5 776.4,93.5 776.4,93.5 776.5,93.5 776.5,93.5 776.5,93.5 776.6,93.5 776.6,93.5 776.7,93.5 776.7,93.5 776.8,93.5 776.8,93.5 776.8,93.5 776.9,93.5 776.9,93.5 777.0,93.5 777.0,93.5 777.0,93.5 777.1,93.5 777.1,93.5 777.2,93.5 777.2,93.5 777.3,93.5 777.3,93.5 777.3,93.5 777.4,93.5 777.4,93.5 777.5,93.5 777.5,93.5 777.5,93.5 777.6,93.5 777.6,93.5 777.7,93.5 777.7,93.5 777.7,93.5 777.8,93.5 777.8,93.5 777.9,93.5 777.9,93.5 777.9,93.5 778.0,93.5 778.0,93.5 778.1,93.5 778.1,93.5 778.1,93.5 778.2,93.5 778.2,93.5 778.3,93.5 778.3,93.5 778.3,93.5 778.4,93.5 778.4,93.5 778.5,93.5 778.5,93.5 778.5,93.5 778.6,93.5 778.6,93.5 778.7,93.5 778.7,93.5 778.7,93.5 778.8,93.5 778.8,93.5 778.9,93.5 778.9,93.5 778.9,93.5 779.0,93.5 779.0,93.5 779.1,93.5 779.1,93.5 779.1,93.5 779.2,93.5 779.2,93.5 779.3,93.5 779.3,93.5 779.3,93.5 779.4,93.5 779.4,93.5 779.5,93.5 779.5,93.5 779.5,93.5 779.6,93.5 779.6,93.5 779.7,93.5 779.7,93.5 779.7,93.5 779.8,93.5 779.8,93.5 779.8,93.5 779.9,93.5 779.9,93.5 780.0,93.5 780.0,93.5 780.0,93.5 780.1,93.5 780.1,93.5 780.2,93.5 780.2,93.5 780.2,93.5 780.3,93.5 780.3,93.5 780.4,93.5 780.4,93.5 780.4,93.5 780.5,93.5 780.5,93.5 780.5,93.5 780.6,93.5 780.6,93.5 780.7,93.5 780.7,93.5 780.7,93.5 780.8,93.5 780.8,93.5 780.8,93.5 780.9,93.5 780.9,93.5 781.0,93.5 781.0,93.5 781.0,93.5 781.1,93.5 781.1,93.5 781.2,93.5 781.2,93.5 781.2,93.5 781.3,93.5 781.3,93.5 781.3,93.5 781.4,93.5 781.4,93.5 781.5,93.5 781.5,93.5 781.5,93.5 781.6,93.5 781.6,93.5 781.6,93.5 781.7,93.5 781.7,93.5 781.8,93.5 781.8,93.5 781.8,93.5 781.9,93.5 781.9,93.5 781.9,93.5 782.0,93.5 782.0,93.5 782.1,93.5 782.1,93.5 782.1,93.5 782.2,93.5 782.2,93.5 782.2,93.5 782.3,93.5 782.3,93.5 782.3,93.5 782.4,93.5 782.4,93.5 782.5,93.5 782.5,93.5 782.5,93.5 782.6,93.5 782.6,93.5 782.6,93.5 782.7,93.5 782.7,93.5 782.8,93.5 782.8,93.5 782.8,93.5 782.9,93.5 782.9,93.5 782.9,93.5 783.0,93.5 783.0,93.5 783.0,93.5 783.1,93.5 783.1,93.5 783.2,93.5 783.2,93.5 783.2,93.5 783.3,93.5 783.3,93.5 783.3,93.5 783.4,93.5 783.4,93.5 783.4,93.5 783.5,93.5 783.5,93.5 783.6,93.5 783.6,93.5 783.6,93.5 783.7,93.5 783.7,93.5 783.7,93.5 783.8,93.5 783.8,93.5 783.8,93.5 783.9,93.5 783.9,93.5 783.9,93.5 784.0,93.5 784.0,93.5 784.1,93.5 784.1,93.5 784.1,93.5 784.2,93.5 784.2,93.5 784.2,93.5 784.3,93.5 784.3,93.5 784.3,93.5 784.4,93.5 784.4,93.5 784.4,93.5 784.5,93.5 784.5,93.5 784.5,93.5 784.6,93.5 784.6,93.5 784.7,93.5 784.7,93.5 784.7,93.5 784.8,93.5 784.8,93.5 784.8,93.5 784.9,93.5 784.9,93.5 784.9,93.5 785.0,93.5 785.0,93.5 785.0,93.5 785.1,93.5 785.1,93.5 785.1,93.5 785.2,93.5 785.2,93.5 785.2,93.5 785.3,93.5 785.3,93.5 785.3,93.5 785.4,93.5 785.4,93.5 785.5,93.5 785.5,93.5 785.5,93.5 785.6,93.5 785.6,93.5 785.6,93.5 785.7,93.5 785.7,93.5 785.7,93.5 785.8,93.5 785.8,93.5 785.8,93.5 785.9,93.5 785.9,93.5 785.9,93.5 786.0,93.5 786.0,93.5 786.0,93.5 786.1,93.5 786.1,93.5 786.1,93.5 786.2,93.5 786.2,93.5 786.2,93.5 786.3,93.5 786.3,93.5 786.3,93.5 786.4,93.5 786.4,93.5 786.4,93.5 786.5,93.5 786.5,93.5 786.5,93.5 786.6,93.5 786.6,93.5 786.6,93.5 786.7,93.5 786.7,93.5 786.7,93.5 786.8,93.5 786.8,93.5 786.8,93.5 786.9,93.5 786.9,93.5 786.9,93.5 787.0,93.5 787.0,93.5 787.0,93.5 787.1,93.5 787.1,93.5 787.1,93.5 787.2,93.5 787.2,93.5 787.2,93.5 787.3,93.5 787.3,93.5 787.3,93.5 787.4,93.5 787.4,93.5 787.4,93.5 787.5,93.5 787.5,93.5 787.5,93.5 787.6,93.5 787.6,93.5 787.6,93.5 787.7,93.5 787.7,93.5 787.7,93.5 787.8,93.5 787.8,93.5 787.8,93.5 787.9,93.5 787.9,93.5 787.9,93.5 788.0,93.5 788.0,93.5 788.0,93.5 788.1,93.5 788.1,93.5 788.1,93.5 788.2,93.5 788.2,93.5 788.2,93.5 788.3,93.5 788.3,93.5 788.3,93.5 788.4,93.5 788.4,93.5 788.4,93.5 788.5,93.5 788.5,93.5 788.5,93.5 788.6,93.5 788.6,93.5 788.6,93.5 788.7,93.5 788.7,93.5 788.7,93.5 788.8,93.5 788.8,93.5 788.8,93.5 788.8,93.5 788.9,93.5 788.9,93.5 788.9,93.5 789.0,93.5 789.0,93.5 789.0,93.5 789.1,93.5 789.1,93.5 789.1,93.5 789.2,93.5 789.2,93.5 789.2,93.5 789.3,93.5 789.3,93.5 789.3,93.5 789.4,93.5 789.4,93.5 789.4,93.5 789.5,93.5 789.5,93.5 789.5,93.5 789.6,93.5 789.6,93.5 789.6,93.5 789.6,93.5 789.7,93.5 789.7,93.5 789.7,93.5 789.8,93.5 789.8,93.5 789.8,93.5 789.9,93.5 789.9,93.5 789.9,93.5 790.0,93.5 790.0,93.5 790.0,93.5 790.1,93.5 790.1,93.5 790.1,93.5 790.1,93.5 790.2,93.5 790.2,93.5 790.2,93.5 790.3,93.5 790.3,93.5 790.3,93.5 790.4,93.5 790.4,93.5 790.4,93.5 790.5,93.5 790.5,93.5 790.5,93.5 790.6,93.5 790.6,93.5 790.6,93.5 790.6,93.5 790.7,93.5 790.7,93.5 790.7,93.5 790.8,93.5 790.8,93.5 790.8,93.5 790.9,93.5 790.9,93.5 790.9,93.5 791.0,93.5 791.0,93.5 791.0,93.5 791.0,93.5 791.1,93.5 791.1,93.5 791.1,93.5 791.2,93.5 791.2,93.5 791.2,93.5 791.3,93.5 791.3,93.5 791.3,93.5 791.4,93.5 791.4,93.5 791.4,93.5 791.4,93.5 791.5,93.5 791.5,93.5 791.5,93.5 791.6,93.5 791.6,93.5 791.6,93.5 791.7,93.5 791.7,93.5 791.7,93.5 791.7,93.5 791.8,93.5 791.8,93.5 791.8,93.5 791.9,93.5 791.9,93.5 791.9,93.5 792.0,93.5 792.0,93.5 792.0,93.5 792.0,93.5 792.1,93.5 792.1,93.5 792.1,93.5 792.2,93.5 792.2,93.5 792.2,93.5 792.3,93.5 792.3,93.5 792.3,93.5 792.3,93.5 792.4,93.5 792.4,93.5 792.4,93.5 792.5,93.5 792.5,93.5 792.5,93.5 792.6,93.5 792.6,93.5 792.6,93.5 792.6,93.5 792.7,93.5 792.7,93.5 792.7,93.5 792.8,93.5 792.8,93.5 792.8,93.5 792.9,93.5 792.9,93.5 792.9,93.5 792.9,93.5 793.0,93.5 793.0,93.5 793.0,93.5 793.1,93.5 793.1,93.5 793.1,93.5 793.1,93.5 793.2,93.5 793.2,93.5 793.2,93.5 793.3,93.5 793.3,93.5 793.3,93.5 793.4,93.5 793.4,93.5 793.4,93.5 793.4,93.5 793.5,93.5 793.5,93.5 793.5,93.5 793.6,93.5 793.6,93.5 793.6,93.5 793.6,93.5 793.7,93.5 793.7,93.5 793.7,93.5 793.8,93.5 793.8,93.5 793.8,93.5 793.8,93.5 793.9,93.5 793.9,93.5 793.9,93.5 794.0,93.5 794.0,93.5 794.0,93.5 794.0,93.5 794.1,93.5 794.1,93.5 794.1,93.5 794.2,93.5 794.2,93.5 794.2,93.5 794.2,93.5 794.3,93.5 794.3,93.5 794.3,93.5 794.4,93.5 794.4,93.5 794.4,93.5 794.4,93.5 794.5,93.5 794.5,93.5 794.5,93.5 794.6,93.5 794.6,93.5 794.6,93.5 794.6,93.5 794.7,93.5 794.7,93.5 794.7,93.5 794.8,93.5 794.8,93.5 794.8,93.5 794.8,93.5 794.9,93.5 794.9,93.5 794.9,93.5 795.0,93.5 795.0,93.5 795.0,93.5 795.0,93.5 795.1,93.5 795.1,93.5 795.1,93.5 795.2,93.5 795.2,93.5 795.2,93.5 795.2,93.5 795.3,93.5 795.3,93.5 795.3,93.5 795.4,93.5 795.4,93.5 795.4,93.5 795.4,93.5 795.5,93.5 795.5,93.5 795.5,93.5 795.5,93.5 795.6,93.5 795.6,93.5 795.6,93.5 795.7,93.5 795.7,93.5 795.7,93.5 795.7,93.5 795.8,93.5 795.8,93.5 795.8,93.5 795.9,93.5 795.9,93.5 795.9,93.5 795.9,93.5 796.0,93.5 796.0,93.5 796.0,93.5 796.0,93.5 796.1,93.5 796.1,93.5 796.1,93.5 796.2,93.5 796.2,93.5 796.2,93.5 796.2,93.5 796.3,93.5 796.3,93.5 796.3,93.5 796.3,93.5 796.4,93.5 796.4,93.5 796.4,93.5 796.5,93.5 796.5,93.5 796.5,93.5 796.5,93.5 796.6,93.5 796.6,93.5 796.6,93.5 796.6,93.5 796.7,93.5 796.7,93.5 796.7,93.5 796.8,93.5 796.8,93.5 796.8,93.5 796.8,93.5 796.9,93.5 796.9,93.5 796.9,93.5 796.9,93.5 797.0,93.5 797.0,93.5 797.0,93.5 797.1,93.5 797.1,93.5 797.1,93.5 797.1,93.5 797.2,93.5 797.2,93.5 797.2,93.5 797.2,93.5 797.3,93.5 797.3,93.5 797.3,93.5 797.4,93.5 797.4,93.5 797.4,93.5 797.4,93.5 797.5,93.5 797.5,93.5 797.5,93.5 797.5,93.5 797.6,93.5 797.6,93.5 797.6,93.5 797.6,93.5 797.7,93.5 797.7,93.5 797.7,93.5 797.8,93.5 797.8,93.5 797.8,93.5 797.8,93.5 797.9,93.5 797.9,93.5 797.9,93.5 797.9,93.5 798.0,93.5 798.0,93.5 798.0,93.5 798.0,93.5 798.1,93.5 798.1,93.5 798.1,93.5 798.1,93.5 798.2,93.5 798.2,93.5 798.2,93.5 798.3,93.5 798.3,93.5 798.3,93.5 798.3,93.5 798.4,93.5 798.4,93.5 798.4,93.5 798.4,93.5 798.5,93.5 798.5,93.5 798.5,93.5 798.5,93.5 798.6,93.5 798.6,93.5 798.6,93.5 798.6,93.5 798.7,93.5 798.7,93.5 798.7,93.5 798.8,93.5 798.8,93.5 798.8,93.5 798.8,93.5 798.9,93.5 798.9,93.5 798.9,93.5 798.9,93.5 799.0,93.5 799.0,93.5 799.0,93.5 799.0,93.5 799.1,93.5 799.1,93.5 799.1,93.5 799.1,93.5 799.2,93.5 799.2,93.5 799.2,93.5 799.2,93.5 799.3,93.5 799.3,93.5 799.3,93.5 799.3,93.5 799.4,93.5 799.4,93.5 799.4,93.5 799.4,93.5 799.5,93.5 799.5,93.5 799.5,93.5 799.6,93.5 799.6,93.5 799.6,93.5 799.6,93.5 799.7,93.5 799.7,93.5 799.7,93.5 799.7,93.5 799.8,93.5 799.8,93.5 799.8,93.5 799.8,93.5 799.9,93.5 799.9,93.5 799.9,93.5 799.9,93.5 800.0,93.5 800.0,93.5" fill="none" stroke="#ef4444" stroke-width="1.5" stroke-linejoin="round"/>
  </g>
  <line x1="34" y1="221" x2="34" y2="376" stroke="#d1d5db"/>
  <line x1="34" y1="298.5" x2="392" y2="298.5" stroke="#d1d5db"/>
  <text x="213" y="402" text-anchor="middle" font-size="9" fill="#6b7280">Hz</text>
  <text x="12" y="298.5" text-anchor="middle" font-size="9" fill="#6b7280" transform="rotate(-90 12 298.5)">Delay (smp)</text>
  <line x1="66.6" y1="221" x2="66.6" y2="376" stroke="#e5e7eb" stroke-width="0.5"/>
  <line x1="85.7" y1="221" x2="85.7" y2="376" stroke="#e5e7eb" stroke-width="0.5"/>
  <line x1="99.3" y1="221" x2="99.3" y2="376" stroke="#e5e7eb" stroke-width="0.5"/>
  <line x1="109.8" y1="221" x2="109.8" y2="376" stroke="#e5e7eb" stroke-width="0.5"/>
  <line x1="118.4" y1="221" x2="118.4" y2="376" stroke="#e5e7eb" stroke-width="0.5"/>
  <line x1="125.7" y1="221" x2="125.7" y2="376" stroke="#e5e7eb" stroke-width="0.5"/>
  <line x1="131.9" y1="221" x2="131.9" y2="376" stroke="#e5e7eb" stroke-width="0.5"/>
  <line x1="137.5" y1="221" x2="137.5" y2="376" stroke="#e5e7eb" stroke-width="0.5"/>
  <line x1="175.1" y1="221" x2="175.1" y2="376" stroke="#e5e7eb" stroke-width="0.5"/>
  <line x1="194.2" y1="221" x2="194.2" y2="376" stroke="#e5e7eb" stroke-width="0.5"/>
  <line x1="207.7" y1="221" x2="207.7" y2="376" stroke="#e5e7eb" stroke-width="0.5"/>
  <line x1="218.3" y1="221" x2="218.3" y2="376" stroke="#e5e7eb" stroke-width="0.5"/>
  <line x1="226.8" y1="221" x2="226.8" y2="376" stroke="#e5e7eb" stroke-width="0.5"/>
  <line x1="234.1" y1="221" x2="234.1" y2="376" stroke="#e5e7eb" stroke-width="0.5"/>
  <line x1="240.4" y1="221" x2="240.4" y2="376" stroke="#e5e7eb" stroke-width="0.5"/>
  <line x1="245.9" y1="221" x2="245.9" y2="376" stroke="#e5e7eb" stroke-width="0.5"/>
  <line x1="283.5" y1="221" x2="283.5" y2="376" stroke="#e5e7eb" stroke-width="0.5"/>
  <line x1="302.6" y1="221" x2="302.6" y2="376" stroke="#e5e7eb" stroke-width="0.5"/>
  <line x1="316.2" y1="221" x2="316.2" y2="376" stroke="#e5e7eb" stroke-width="0.5"/>
  <line x1="326.7" y1="221" x2="326.7" y2="376" stroke="#e5e7eb" stroke-width="0.5"/>
  <line x1="335.3" y1="221" x2="335.3" y2="376" stroke="#e5e7eb" stroke-width="0.5"/>
  <line x1="342.6" y1="221" x2="342.6" y2="376" stroke="#e5e7eb" stroke-width="0.5"/>
  <line x1="348.8" y1="221" x2="348.8" y2="376" stroke="#e5e7eb" stroke-width="0.5"/>
  <line x1="354.4" y1="221" x2="354.4" y2="376" stroke="#e5e7eb" stroke-width="0.5"/>
  <line x1="392.0" y1="221" x2="392.0" y2="376" stroke="#e5e7eb" stroke-width="0.5"/>
  <line x1="142.5" y1="221" x2="142.5" y2="376" stroke="#e5e7eb" stroke-width="0.5"/>
  <text x="142.5" y="388" text-anchor="middle" font-size="8" fill="#6b7280">100</text>
  <line x1="250.9" y1="221" x2="250.9" y2="376" stroke="#e5e7eb" stroke-width="0.5"/>
  <text x="250.9" y="388" text-anchor="middle" font-size="8" fill="#6b7280">1k</text>
  <line x1="359.4" y1="221" x2="359.4" y2="376" stroke="#e5e7eb" stroke-width="0.5"/>
  <text x="359.4" y="388" text-anchor="middle" font-size="8" fill="#6b7280">10k</text>
  <line x1="34" y1="376.0" x2="392" y2="376.0" stroke="#e5e7eb" stroke-width="0.5"/>
  <text x="30" y="379.0" text-anchor="end" font-size="8" fill="#6b7280">-100</text>
  <line x1="34" y1="337.3" x2="392" y2="337.3" stroke="#e5e7eb" stroke-width="0.5"/>
  <text x="30" y="340.3" text-anchor="end" font-size="8" fill="#6b7280">-50</text>
  <text x="30" y="301.5" text-anchor="end" font-size="8" fill="#6b7280">0</text>
  <line x1="34" y1="259.8" x2="392" y2="259.8" stroke="#e5e7eb" stroke-width="0.5"/>
  <text x="30" y="262.8" text-anchor="end" font-size="8" fill="#6b7280">50</text>
  <line x1="34" y1="221.0" x2="392" y2="221.0" stroke="#e5e7eb" stroke-width="0.5"/>
  <text x="30" y="224.0" text-anchor="end" font-size="8" fill="#6b7280">100</text>
  <g clip-path="url(#clip3)">
  <polyline points="37.5,298.5 70.1,298.5 89.2,298.5 102.8,298.5 113.3,298.5 121.9,298.5 129.1,298.5 135.4,298.5 141.0,298.5 145.9,298.5 150.4,298.5 154.5,298.5 158.3,298.5 161.8,298.5 165.0,298.5 168.1,298.5 170.9,298.5 173.6,298.5 176.2,298.5 178.6,298.5 180.9,298.5 183.1,298.5 185.2,298.5 187.2,298.5 189.1,298.5 190.9,298.5 192.7,298.5 194.4,298.5 196.1,298.5 197.7,298.5 199.2,298.5 200.7,298.5 202.2,298.5 203.6,298.5 204.9,298.5 206.3,298.5 207.6,298.5 208.8,298.5 210.0,298.5 211.2,298.5 212.4,298.5 213.5,298.5 214.6,298.5 215.7,298.5 216.8,298.5 217.8,298.5 218.8,298.5 219.8,298.5 220.8,298.5 221.7,298.5 222.7,298.5 223.6,298.5 224.5,298.5 225.4,298.5 226.2,298.5 227.1,298.5 227.9,298.5 228.7,298.5 229.5,298.5 230.3,298.5 231.1,298.5 231.9,298.5 232.6,298.5 233.4,298.5 234.1,298.5 234.8,298.5 235.5,298.5 236.2,298.5 236.9,298.5 237.6,298.5 238.2,298.5 238.9,298.5 239.6,298.5 240.2,298.5 240.8,298.5 241.5,298.5 242.1,298.5 242.7,298.5 243.3,298.5 243.9,298.5 244.5,298.5 245.0,298.5 245.6,298.5 246.2,298.5 246.7,298.5 247.3,298.5 247.8,298.5 248.4,298.5 248.9,298.5 249.4,298.5 249.9,298.5 250.5,298.5 251.0,298.5 251.5,298.5 252.0,298.5 252.5,298.5 252.9,298.5 253.4,298.5 253.9,298.5 254.4,298.5 254.8,298.5 255.3,298.5 255.8,298.5 256.2,298.5 256.7,298.5 257.1,298.5 257.6,298.5 258.0,298.5 258.4,298.5 258.9,298.5 259.3,298.5 259.7,298.5 260.1,298.5 260.6,298.5 261.0,298.5 261.4,298.5 261.8,298.5 262.2,298.5 262.6,298.5 263.0,298.5 263.4,298.5 263.7,298.5 264.1,298.5 264.5,298.5 264.9,298.5 265.3,298.5 265.6,298.5 266.0,298.5 266.4,298.5 266.7,298.5 267.1,298.5 267.5,298.5 267.8,298.5 268.2,298.5 268.5,298.5 268.9,298.5 269.2,298.5 269.6,298.5 269.9,298.5 270.2,298.5 270.6,298.5 270.9,298.5 271.2,298.5 271.6,298.5 271.9,298.5 272.2,298.5 272.5,298.5 272.8,298.5 273.2,298.5 273.5,298.5 273.8,298.5 274.1,298.5 274.4,298.5 274.7,298.5 275.0,298.5 275.3,298.5 275.6,298.5 275.9,298.5 276.2,298.5 276.5,298.5 276.8,298.5 277.1,298.5 277.4,298.5 277.7,298.5 278.0,298.5 278.3,298.5 278.5,298.5 278.8,298.5 279.1,298.5 279.4,298.5 279.6,298.5 279.9,298.5 280.2,298.5 280.5,298.5 280.7,298.5 281.0,298.5 281.3,298.5 281.5,298.5 281.8,298.5 282.1,298.5 282.3,298.5 282.6,298.5 282.8,298.5 283.1,298.5 283.4,298.5 283.6,298.5 283.9,298.5 284.1,298.5 284.4,298.5 284.6,298.5 284.9,298.5 285.1,298.5 285.3,298.5 285.6,298.5 285.8,298.5 286.1,298.5 286.3,298.5 286.6,298.5 286.8,298.5 287.0,298.5 287.3,298.5 287.5,298.5 287.7,298.5 288.0,298.5 288.2,298.5 288.4,298.5 288.6,298.5 288.9,298.5 289.1,298.5 289.3,298.5 289.5,298.5 289.8,298.5 290.0,298.5 290.2,298.5 290.4,298.5 290.7,298.5 290.9,298.5 291.1,298.5 291.3,298.5 291.5,298.5 291.7,298.5 291.9,298.5 292.2,298.5 292.4,298.5 292.6,298.5 292.8,298.5 293.0,298.5 293.2,298.5 293.4,298.5 293.6,298.5 293.8,298.5 294.0,298.5 294.2,298.5 294.4,298.5 294.6,298.5 294.8,298.5 295.0,298.5 295.2,298.5 295.4,298.5 295.6,298.5 295.8,298.5 296.0,298.5 296.2,298.5 296.4,298.5 296.6,298.5 296.8,298.5 297.0,298.5 297.2,298.5 297.3,298.5 297.5,298.5 297.7,298.5 297.9,298.5 298.1,298.5 298.3,298.5 298.5,298.5 298.7,298.5 298.8,298.5 299.0,298.5 299.2,298.5 299.4,298.5 299.6,298.5 299.7,298.5 299.9,298.5 300.1,298.5 300.3,298.5 300.5,298.5 300.6,298.5 300.8,298.5 301.0,298.5 301.2,298.5 301.3,298.5 301.5,298.5 301.7,298.5 301.9,298.5 302.0,298.5 302.2,298.5 302.4,298.5 302.5,298.5 302.7,298.5 302.9,298.5 303.0,298.5 303.2,298.5 303.4,298.5 303.5,298.5 303.7,298.5 303.9,298.5 304.0,298.5 304.2,298.5 304.4,298.5 304.5,298.5 304.7,298.5 304.9,298.5 305.0,298.5 305.2,298.5 305.3,298.5 305.5,298.5 305.7,298.5 305.8,298.5 306.0,298.5 306.1,298.5 306.3,298.5 306.4,298.5 306.6,298.5 306.7,298.5 306.9,298.5 307.1,298.5 307.2,298.5 307.4,298.5 307.5,298.5 307.7,298.5 307.8,298.5 308.0,298.5 308.1,298.5 308.3,298.5 308.4,298.5 308.6,298.5 308.7,298.5 308.9,298.5 309.0,298.5 309.2,298.5 309.3,298.5 309.5,298.5 309.6,298.5 309.8,298.5 309.9,298.5 310.0,298.5 310.2,298.5 310.3,298.5 310.5,298.5 310.6,298.5 310.8,298.5 310.9,298.5 311.0,298.5 311.2,298.5 311.3,298.5 311.5,298.5 311.6,298.5 311.7,298.5 311.9,298.5 312.0,298.5 312.2,298.5 312.3,298.5 312.4,298.5 312.6,298.5 312.7,298.5 312.8,298.5 313.0,298.5 313.1,298.5 313.3,298.5 313.4,298.5 313.5,298.5 313.7,298.5 313.8,298.5 313.9,298.5 314.1,298.5 314.2,298.5 314.3,298.5 314.5,298.5 314.6,298.5 314.7,298.5 314.8,298.5 315.0,298.5 315.1,298.5 315.2,298.5 315.4,298.5 315.5,298.5 315.6,298.5 315.7,298.5 315.9,298.5 316.0,298.5 316.1,298.5 316.3,298.5 316.4,298.5 316.5,298.5 316.6,298.5 316.8,298.5 316.9,298.5 317.0,298.5 317.1,298.5 317.3,298.5 317.4,298.5 317.5,298.5 317.6,298.5 317.8,298.5 317.9,298.5 318.0,298.5 318.1,298.5 318.2,298.5 318.4,298.5 318.5,298.5 318.6,298.5 318.7,298.5 318.8,298.5 319.0,298.5 319.1,298.5 319.2,298.5 319.3,298.5 319.4,298.5 319.6,298.5 319.7,298.5 319.8,298.5 319.9,298.5 320.0,298.5 320.1,298.5 320.3,298.5 320.4,298.5 320.5,298.5 320.6,298.5 320.7,298.5 320.8,298.5 321.0,298.5 321.1,298.5 321.2,298.5 321.3,298.5 321.4,298.5 321.5,298.5 321.6,298.5 321.7,298.5 321.9,298.5 322.0,298.5 322.1,298.5 322.2,298.5 322.3,298.5 322.4,298.5 322.5,298.5 322.6,298.5 322.8,298.5 322.9,298.5 323.0,298.5 323.1,298.5 323.2,298.5 323.3,298.5 323.4,298.5 323.5,298.5 323.6,298.5 323.7,298.5 323.8,298.5 323.9,298.5 324.1,298.5 324.2,298.5 324.3,298.5 324.4,298.5 324.5,298.5 324.6,298.5 324.7,298.5 324.8,298.5 324.9,298.5 325.0,298.5 325.1,298.5 325.2,298.5 325.3,298.5 325.4,298.5 325.5,298.5 325.6,298.5 325.7,298.5 325.8,298.5 325.9,298.5 326.1,298.5 326.2,298.5 326.3,298.5 326.4,298.5 326.5,298.5 326.6,298.5 326.7,298.5 326.8,298.5 326.9,298.5 327.0,298.5 327.1,298.5 327.2,298.5 327.3,298.5 327.4,298.5 327.5,298.5 327.6,298.5 327.7,298.5 327.8,298.5 327.9,298.5 328.0,298.5 328.1,298.5 328.2,298.5 328.3,298.5 328.4,298.5 328.5,298.5 328.6,298.5 328.7,298.5 328.8,298.5 328.8,298.5 328.9,298.5 329.0,298.5 329.1,298.5 329.2,298.5 329.3,298.5 329.4,298.5 329.5,298.5 329.6,298.5 329.7,298.5 329.8,298.5 329.9,298.5 330.0,298.5 330.1,298.5 330.2,298.5 330.3,298.5 330.4,298.5 330.5,298.5 330.6,298.5 330.7,298.5 330.7,298.5 330.8,298.5 330.9,298.5 331.0,298.5 331.1,298.5 331.2,298.5 331.3,298.5 331.4,298.5 331.5,298.5 331.6,298.5 331.7,298.5 331.8,298.5 331.9,298.5 331.9,298.5 332.0,298.5 332.1,298.5 332.2,298.5 332.3,298.5 332.4,298.5 332.5,298.5 332.6,298.5 332.7,298.5 332.8,298.5 332.8,298.5 332.9,298.5 333.0,298.5 333.1,298.5 333.2,298.5 333.3,298.5 333.4,298.5 333.5,298.5 333.5,298.5 333.6,298.5 333.7,298.5 333.8,298.5 333.9,298.5 334.0,298.5 334.1,298.5 334.2,298.5 334.2,298.5 334.3,298.5 334.4,298.5 334.5,298.5 334.6,298.5 334.7,298.5 334.8,298.5 334.8,298.5 334.9,298.5 335.0,298.5 335.1,298.5 335.2,298.5 335.3,298.5 335.4,298.5 335.4,298.5 335.5,298.5 335.6,298.5 335.7,298.5 335.8,298.5 335.9,298.5 335.9,298.5 336.0,298.5 336.1,298.5 336.2,298.5 336.3,298.5 336.4,298.5 336.4,298.5 336.5,298.5 336.6,298.5 336.7,298.5 336.8,298.5 336.8,298.5 336.9,298.5 337.0,298.5 337.1,298.5 337.2,298.5 337.3,298.5 337.3,298.5 337.4,298.5 337.5,298.5 337.6,298.5 337.7,298.5 337.7,298.5 337.8,298.5 337.9,298.5 338.0,298.5 338.1,298.5 338.1,298.5 338.2,298.5 338.3,298.5 338.4,298.5 338.5,298.5 338.5,298.5 338.6,298.5 338.7,298.5 338.8,298.5 338.9,298.5 338.9,298.5 339.0,298.5 339.1,298.5 339.2,298.5 339.2,298.5 339.3,298.5 339.4,298.5 339.5,298.5 339.6,298.5 339.6,298.5 339.7,298.5 339.8,298.5 339.9,298.5 339.9,298.5 340.0,298.5 340.1,298.5 340.2,298.5 340.2,298.5 340.3,298.5 340.4,298.5 340.5,298.5 340.5,298.5 340.6,298.5 340.7,298.5 340.8,298.5 340.8,298.5 340.9,298.5 341.0,298.5 341.1,298.5 341.1,298.5 341.2,298.5 341.3,298.5 341.4,298.5 341.4,298.5 341.5,298.5 341.6,298.5 341.7,298.5 341.7,298.5 341.8,298.5 341.9,298.5 342.0,298.5 342.0,298.5 342.1,298.5 342.2,298.5 342.3,298.5 342.3,298.5 342.4,298.5 342.5,298.5 342.5,298.5 342.6,298.5 342.7,298.5 342.8,298.5 342.8,298.5 342.9,298.5 343.0,298.5 343.0,298.5 343.1,298.5 343.2,298.5 343.3,298.5 343.3,298.5 343.4,298.5 343.5,298.5 343.5,298.5 343.6,298.5 343.7,298.5 343.8,298.5 343.8,298.5 343.9,298.5 344.0,298.5 344.0,298.5 344.1,298.5 344.2,298.5 344.2,298.5 344.3,298.5 344.4,298.5 344.5,298.5 344.5,298.5 344.6,298.5 344.7,298.5 344.7,298.5 344.8,298.5 344.9,298.5 344.9,298.5 345.0,298.5 345.1,298.5 345.1,298.5 345.2,298.5 345.3,298.5 345.4,298.5 345.4,298.5 345.5,298.5 345.6,298.5 345.6,298.5 345.7,298.5 345.8,298.5 345.8,298.5 345.9,298.5 346.0,298.5 346.0,298.5 346.1,298.5 346.2,298.5 346.2,298.5 346.3,298.5 346.4,298.5 346.4,298.5 346.5,298.5 346.6,298.5 346.6,298.5 346.7,298.5 346.8,298.5 346.8,298.5 346.9,298.5 347.0,298.5 347.0,298.5 347.1,298.5 347.2,298.5 347.2,298.5 347.3,298.5 347.4,298.5 347.4,298.5 347.5,298.5 347.6,298.5 347.6,298.5 347.7,298.5 347.8,298.5 347.8,298.5 347.9,298.5 347.9,298.5 348.0,298.5 348.1,298.5 348.1,298.5 348.2,298.5 348.3,298.5 348.3,298.5 348.4,298.5 348.5,298.5 348.5,298.5 348.6,298.5 348.7,298.5 348.7,298.5 348.8,298.5 348.8,298.5 348.9,298.5 349.0,298.5 349.0,298.5 349.1,298.5 349.2,298.5 349.2,298.5 349.3,298.5 349.3,298.5 349.4,298.5 349.5,298.5 349.5,298.5 349.6,298.5 349.7,298.5 349.7,298.5 349.8,298.5 349.8,298.5 349.9,298.5 350.0,298.5 350.0,298.5 350.1,298.5 350.2,298.5 350.2,298.5 350.3,298.5 350.3,298.5 350.4,298.5 350.5,298.5 350.5,298.5 350.6,298.5 350.6,298.5 350.7,298.5 350.8,298.5 350.8,298.5 350.9,298.5 350.9,298.5 351.0,298.5 351.1,298.5 351.1,298.5 351.2,298.5 351.3,298.5 351.3,298.5 351.4,298.5 351.4,298.5 351.5,298.5 351.6,298.5 351.6,298.5 351.7,298.5 351.7,298.5 351.8,298.5 351.8,298.5 351.9,298.5 352.0,298.5 352.0,298.5 352.1,298.5 352.1,298.5 352.2,298.5 352.3,298.5 352.3,298.5 352.4,298.5 352.4,298.5 352.5,298.5 352.6,298.5 352.6,298.5 352.7,298.5 352.7,298.5 352.8,298.5 352.8,298.5 352.9,298.5 353.0,298.5 353.0,298.5 353.1,298.5 353.1,298.5 353.2,298.5 353.3,298.5 353.3,298.5 353.4,298.5 353.4,298.5 353.5,298.5 353.5,298.5 353.6,298.5 353.7,298.5 353.7,298.5 353.8,298.5 353.8,298.5 353.9,298.5 353.9,298.5 354.0,298.5 354.1,298.5 354.1,298.5 354.2,298.5 354.2,298.5 354.3,298.5 354.3,298.5 354.4,298.5 354.5,298.5 354.5,298.5 354.6,298.5 354.6,298.5 354.7,298.5 354.7,298.5 354.8,298.5 354.8,298.5 354.9,298.5 355.0,298.5 355.0,298.5 355.1,298.5 355.1,298.5 355.2,298.5 355.2,298.5 355.3,298.5 355.3,298.5 355.4,298.5 355.5,298.5 355.5,298.5 355.6,298.5 355.6,298.5 355.7,298.5 355.7,298.5 355.8,298.5 355.8,298.5 355.9,298.5 355.9,298.5 356.0,298.5 356.1,298.5 356.1,298.5 356.2,298.5 356.2,298.5 356.3,298.5 356.3,298.5 356.4,298.5 356.4,298.5 356.5,298.5 356.5,298.5 356.6,298.5 356.7,298.5 356.7,298.5 356.8,298.5 356.8,298.5 356.9,298.5 356.9,298.5 357.0,298.5 357.0,298.5 357.1,298.5 357.1,298.5 357.2,298.5 357.2,298.5 357.3,298.5 357.3,298.5 357.4,298.5 357.4,298.5 357.5,298.5 357.6,298.5 357.6,298.5 357.7,298.5 357.7,298.5 357.8,298.5 357.8,298.5 357.9,298.5 357.9,298.5 358.0,298.5 358.0,298.5 358.1,298.5 358.1,298.5 358.2,298.5 358.2,298.5 358.3,298.5 358.3,298.5 358.4,298.5 358.4,298.5 358.5,298.5 358.5,298.5 358.6,298.5 358.6,298.5 358.7,298.5 358.8,298.5 358.8,298.5 358.9,298.5 358.9,298.5 359.0,298.5 359.0,298.5 359.1,298.5 359.1,298.5 359.2,298.5 359.2,298.5 359.3,298.5 359.3,298.5 359.4,298.5 359.4,298.5 359.5,298.5 359.5,298.5 359.6,298.5 359.6,298.5 359.7,298.5 359.7,298.5 359.8,298.5 359.8,298.5 359.9,298.5 359.9,298.5 360.0,298.5 360.0,298.5 360.1,298.5 360.1,298.5 360.2,298.5 360.2,298.5 360.3,298.5 360.3,298.5 360.4,298.5 360.4,298.5 360.5,298.5 360.5,298.5 360.6,298.5 360.6,298.5 360.7,298.5 360.7,298.5 360.8,298.5 360.8,298.5 360.9,298.5 360.9,298.5 361.0,298.5 361.0,298.5 361.1,298.5 361.1,298.5 361.2,298.5 361.2,298.5 361.3,298.5 361.3,298.5 361.3,298.5 361.4,298.5 361.4,298.5 361.5,298.5 361.5,298.5 361.6,298.5 361.6,298.5 361.7,298.5 361.7,298.5 361.8,298.5 361.8,298.5 361.9,298.5 361.9,298.5 362.0,298.5 362.0,298.5 362.1,298.5 362.1,298.5 362.2,298.5 362.2,298.5 362.3,298.5 362.3,298.5 362.4,298.5 362.4,298.5 362.5,298.5 362.5,298.5 362.5,298.5 362.6,298.5 362.6,298.5 362.7,298.5 362.7,298.5 362.8,298.5 362.8,298.5 362.9,298.5 362.9,298.5 363.0,298.5 363.0,298.5 363.1,298.5 363.1,298.5 363.2,298.5 363.2,298.5 363.3,298.5 363.3,298.5 363.3,298.5 363.4,298.5 363.4,298.5 363.5,298.5 363.5,298.5 363.6,298.5 363.6,298.5 363.7,298.5 363.7,298.5 363.8,298.5 363.8,298.5 363.9,298.5 363.9,298.5 363.9,298.5 364.0,298.5 364.0,298.5 364.1,298.5 364.1,298.5 364.2,298.5 364.2,298.5 364.3,298.5 364.3,298.5 364.4,298.5 364.4,298.5 364.5,298.5 364.5,298.5 364.5,298.5 364.6,298.5 364.6,298.5 364.7,298.5 364.7,298.5 364.8,298.5 364.8,298.5 364.9,298.5 364.9,298.5 365.0,298.5 365.0,298.5 365.0,298.5 365.1,298.5 365.1,298.5 365.2,298.5 365.2,298.5 365.3,298.5 365.3,298.5 365.4,298.5 365.4,298.5 365.4,298.5 365.5,298.5 365.5,298.5 365.6,298.5 365.6,298.5 365.7,298.5 365.7,298.5 365.8,298.5 365.8,298.5 365.8,298.5 365.9,298.5 365.9,298.5 366.0,298.5 366.0,298.5 366.1,298.5 366.1,298.5 366.2,298.5 366.2,298.5 366.2,298.5 366.3,298.5 366.3,298.5 366.4,298.5 366.4,298.5 366.5,298.5 366.5,298.5 366.5,298.5 366.6,298.5 366.6,298.5 366.7,298.5 366.7,298.5 366.8,298.5 366.8,298.5 366.8,298.5 366.9,298.5 366.9,298.5 367.0,298.5 367.0,298.5 367.1,298.5 367.1,298.5 367.1,298.5 367.2,298.5 367.2,298.5 367.3,298.5 367.3,298.5 367.4,298.5 367.4,298.5 367.4,298.5 367.5,298.5 367.5,298.5 367.6,298.5 367.6,298.5 367.7,298.5 367.7,298.5 367.7,298.5 367.8,298.5 367.8,298.5 367.9,298.5 367.9,298.5 368.0,298.5 368.0,298.5 368.0,298.5 368.1,298.5 368.1,298.5 368.2,298.5 368.2,298.5 368.3,298.5 368.3,298.5 368.3,298.5 368.4,298.5 368.4,298.5 368.5,298.5 368.5,298.5 368.5,298.5 368.6,298.5 368.6,298.5 368.7,298.5 368.7,298.5 368.8,298.5 368.8,298.5 368.8,298.5 368.9,298.5 368.9,298.5 369.0,298.5 369.0,298.5 369.0,298.5 369.1,298.5 369.1,298.5 369.2,298.5 369.2,298.5 369.3,298.5 369.3,298.5 369.3,298.5 369.4,298.5 369.4,298.5 369.5,298.5 369.5,298.5 369.5,298.5 369.6,298.5 369.6,298.5 369.7,298.5 369.7,298.5 369.7,298.5 369.8,298.5 369.8,298.5 369.9,298.5 369.9,298.5 369.9,298.5 370.0,298.5 370.0,298.5 370.1,298.5 370.1,298.5 370.1,298.5 370.2,298.5 370.2,298.5 370.3,298.5 370.3,298.5 370.3,298.5 370.4,298.5 370.4,298.5 370.5,298.5 370.5,298.5 370.5,298.5 370.6,298.5 370.6,298.5 370.7,298.5 370.7,298.5 370.7,298.5 370.8,298.5 370.8,298.5 370.9,298.5 370.9,298.5 370.9,298.5 371.0,298.5 371.0,298.5 371.1,298.5 371.1,298.5 371.1,298.5 371.2,298.5 371.2,298.5 371.3,298.5 371.3,298.5 371.3,298.5 371.4,298.5 371.4,298.5 371.5,298.5 371.5,298.5 371.5,298.5 371.6,298.5 371.6,298.5 371.7,298.5 371.7,298.5 371.7,298.5 371.8,298.5 371.8,298.5 371.8,298.5 371.9,298.5 371.9,298.5 372.0,298.5 372.0,298.5 372.0,298.5 372.1,298.5 372.1,298.5 372.2,298.5 372.2,298.5 372.2,298.5 372.3,298.5 372.3,298.5 372.4,298.5 372.4,298.5 372.4,298.5 372.5,298.5 372.5,298.5 372.5,298.5 372.6,298.5 372.6,298.5 372.7,298.5 372.7,298.5 372.7,298.5 372.8,298.5 372.8,298.5 372.8,298.5 372.9,298.5 372.9,298.5 373.0,298.5 373.0,298.5 373.0,298.5 373.1,298.5 373.1,298.5 373.2,298.5 373.2,298.5 373.2,298.5 373.3,298.5 373.3,298.5 373.3,298.5 373.4,298.5 373.4,298.5 373.5,298.5 373.5,298.5 373.5,298.5 373.6,298.5 373.6,298.5 373.6,298.5 373.7,298.5 373.7,298.5 373.8,298.5 373.8,298.5 373.8,298.5 373.9,298.5 373.9,298.5 373.9,298.5 374.0,298.5 374.0,298.5 374.1,298.5 374.1,298.5 374.1,298.5 374.2,298.5 374.2,298.5 374.2,298.5 374.3,298.5 374.3,298.5 374.3,298.5 374.4,298.5 374.4,298.5 374.5,298.5 374.5,298.5 374.5,298.5 374.6,298.5 374.6,298.5 374.6,298.5 374.7,298.5 374.7,298.5 374.8,298.5 374.8,298.5 374.8,298.5 374.9,298.5 374.9,298.5 374.9,298.5 375.0,298.5 375.0,298.5 375.0,298.5 375.1,298.5 375.1,298.5 375.2,298.5 375.2,298.5 375.2,298.5 375.3,298.5 375.3,298.5 375.3,298.5 375.4,298.5 375.4,298.5 375.4,298.5 375.5,298.5 375.5,298.5 375.6,298.5 375.6,298.5 375.6,298.5 375.7,298.5 375.7,298.5 375.7,298.5 375.8,298.5 375.8,298.5 375.8,298.5 375.9,298.5 375.9,298.5 375.9,298.5 376.0,298.5 376.0,298.5 376.1,298.5 376.1,298.5 376.1,298.5 376.2,298.5 376.2,298.5 376.2,298.5 376.3,298.5 376.3,298.5 376.3,298.5 376.4,298.5 376.4,298.5 376.4,298.5 376.5,298.5 376.5,298.5 376.5,298.5 376.6,298.5 376.6,298.5 376.7,298.5 376.7,298.5 376.7,298.5 376.8,298.5 376.8,298.5 376.8,298.5 376.9,298.5 376.9,298.5 376.9,298.5 377.0,298.5 377.0,298.5 377.0,298.5 377.1,298.5 377.1,298.5 377.1,298.5 377.2,298.5 377.2,298.5 377.2,298.5 377.3,298.5 377.3,298.5 377.3,298.5 377.4,298.5 377.4,298.5 377.5,298.5 377.5,298.5 377.5,298.5 377.6,298.5 377.6,298.5 377.6,298.5 377.7,298.5 377.7,298.5 377.7,298.5 377.8,298.5 377.8,298.5 377.8,298.5 377.9,298.5 377.9,298.5 377.9,298.5 378.0,298.5 378.0,298.5 378.0,298.5 378.1,298.5 378.1,298.5 378.1,298.5 378.2,298.5 378.2,298.5 378.2,298.5 378.3,298.5 378.3,298.5 378.3,298.5 378.4,298.5 378.4,298.5 378.4,298.5 378.5,298.5 378.5,298.5 378.5,298.5 378.6,298.5 378.6,298.5 378.6,298.5 378.7,298.5 378.7,298.5 378.7,298.5 378.8,298.5 378.8,298.5 378.8,298.5 378.9,298.5 378.9,298.5 378.9,298.5 379.0,298.5 379.0,298.5 379.0,298.5 379.1,298.5 379.1,298.5 379.1,298.5 379.2,298.5 379.2,298.5 379.2,298.5 379.3,298.5 379.3,298.5 379.3,298.5 379.4,298.5 379.4,298.5 379.4,298.5 379.5,298.5 379.5,298.5 379.5,298.5 379.6,298.5 379.6,298.5 379.6,298.5 379.7,298.5 379.7,298.5 379.7,298.5 379.8,298.5 379.8,298.5 379.8,298.5 379.9,298.5 379.9,298.5 379.9,298.5 380.0,298.5 380.0,298.5 380.0,298.5 380.1,298.5 380.1,298.5 380.1,298.5 380.2,298.5 380.2,298.5 380.2,298.5 380.3,298.5 380.3,298.5 380.3,298.5 380.4,298.5 380.4,298.5 380.4,298.5 380.5,298.5 380.5,298.5 380.5,298.5 380.6,298.5 380.6,298.5 380.6,298.5 380.7,298.5 380.7,298.5 380.7,298.5 380.8,298.5 380.8,298.5 380.8,298.5 380.8,298.5 380.9,298.5 380.9,298.5 380.9,298.5 381.0,298.5 381.0,298.5 381.0,298.5 381.1,298.5 381.1,298.5 381.1,298.5 381.2,298.5 381.2,298.5 381.2,298.5 381.3,298.5 381.3,298.5 381.3,298.5 381.4,298.5 381.4,298.5 381.4,298.5 381.5,298.5 381.5,298.5 381.5,298.5 381.6,298.5 381.6,298.5 381.6,298.5 381.6,298.5 381.7,298.5 381.7,298.5 381.7,298.5 381.8,298.5 381.8,298.5 381.8,298.5 381.9,298.5 381.9,298.5 381.9,298.5 382.0,298.5 382.0,298.5 382.0,298.5 382.1,298.5 382.1,298.5 382.1,298.5 382.1,298.5 382.2,298.5 382.2,298.5 382.2,298.5 382.3,298.5 382.3,298.5 382.3,298.5 382.4,298.5 382.4,298.5 382.4,298.5 382.5,298.5 382.5,298.5 382.5,298.5 382.6,298.5 382.6,298.5 382.6,298.5 382.6,298.5 382.7,298.5 382.7,298.5 382.7,298.5 382.8,298.5 382.8,298.5 382.8,298.5 382.9,298.5 382.9,298.5 382.9,298.5 383.0,298.5 383.0,298.5 383.0,298.5 383.0,298.5 383.1,298.5 383.1,298.5 383.1,298.5 383.2,298.5 383.2,298.5 383.2,298.5 383.3,298.5 383.3,298.5 383.3,298.5 383.4,298.5 383.4,298.5 383.4,298.5 383.4,298.5 383.5,298.5 383.5,298.5 383.5,298.5 383.6,298.5 383.6,298.5 383.6,298.5 383.7,298.5 383.7,298.5 383.7,298.5 383.7,298.5 383.8,298.5 383.8,298.5 383.8,298.5 383.9,298.5 383.9,298.5 383.9,298.5 384.0,298.5 384.0,298.5 384.0,298.5 384.0,298.5 384.1,298.5 384.1,298.5 384.1,298.5 384.2,298.5 384.2,298.5 384.2,298.5 384.3,298.5 384.3,298.5 384.3,298.5 384.3,298.5 384.4,298.5 384.4,298.5 384.4,298.5 384.5,298.5 384.5,298.5 384.5,298.5 384.6,298.5 384.6,298.5 384.6,298.5 384.6,298.5 384.7,298.5 384.7,298.5 384.7,298.5 384.8,298.5 384.8,298.5 384.8,298.5 384.9,298.5 384.9,298.5 384.9,298.5 384.9,298.5 385.0,298.5 385.0,298.5 385.0,298.5 385.1,298.5 385.1,298.5 385.1,298.5 385.1,298.5 385.2,298.5 385.2,298.5 385.2,298.5 385.3,298.5 385.3,298.5 385.3,298.5 385.4,298.5 385.4,298.5 385.4,298.5 385.4,298.5 385.5,298.5 385.5,298.5 385.5,298.5 385.6,298.5 385.6,298.5 385.6,298.5 385.6,298.5 385.7,298.5 385.7,298.5 385.7,298.5 385.8,298.5 385.8,298.5 385.8,298.5 385.8,298.5 385.9,298.5 385.9,298.5 385.9,298.5 386.0,298.5 386.0,298.5 386.0,298.5 386.0,298.5 386.1,298.5 386.1,298.5 386.1,298.5 386.2,298.5 386.2,298.5 386.2,298.5 386.2,298.5 386.3,298.5 386.3,298.5 386.3,298.5 386.4,298.5 386.4,298.5 386.4,298.5 386.4,298.5 386.5,298.5 386.5,298.5 386.5,298.5 386.6,298.5 386.6,298.5 386.6,298.5 386.6,298.5 386.7,298.5 386.7,298.5 386.7,298.5 386.8,298.5 386.8,298.5 386.8,298.5 386.8,298.5 386.9,298.5 386.9,298.5 386.9,298.5 387.0,298.5 387.0,298.5 387.0,298.5 387.0,298.5 387.1,298.5 387.1,298.5 387.1,298.5 387.2,298.5 387.2,298.5 387.2,298.5 387.2,298.5 387.3,298.5 387.3,298.5 387.3,298.5 387.4,298.5 387.4,298.5 387.4,298.5 387.4,298.5 387.5,298.5 387.5,298.5 387.5,298.5 387.5,298.5 387.6,298.5 387.6,298.5 387.6,298.5 387.7,298.5 387.7,298.5 387.7,298.5 387.7,298.5 387.8,298.5 387.8,298.5 387.8,298.5 387.9,298.5 387.9,298.5 387.9,298.5 387.9,298.5 388.0,298.5 388.0,298.5 388.0,298.5 388.0,298.5 388.1,298.5 388.1,298.5 388.1,298.5 388.2,298.5 388.2,298.5 388.2,298.5 388.2,298.5 388.3,298.5 388.3,298.5 388.3,298.5 388.3,298.5 388.4,298.5 388.4,298.5 388.4,298.5 388.5,298.5 388.5,298.5 388.5,298.5 388.5,298.5 388.6,298.5 388.6,298.5 388.6,298.5 388.6,298.5 388.7,298.5 388.7,298.5 388.7,298.5 388.8,298.5 388.8,298.5 388.8,298.5 388.8,298.5 388.9,298.5 388.9,298.5 388.9,298.5 388.9,298.5 389.0,298.5 389.0,298.5 389.0,298.5 389.1,298.5 389.1,298.5 389.1,298.5 389.1,298.5 389.2,298.5 389.2,298.5 389.2,298.5 389.2,298.5 389.3,298.5 389.3,298.5 389.3,298.5 389.4,298.5 389.4,298.5 389.4,298.5 389.4,298.5 389.5,298.5 389.5,298.5 389.5,298.5 389.5,298.5 389.6,298.5 389.6,298.5 389.6,298.5 389.6,298.5 389.7,298.5 389.7,298.5 389.7,298.5 389.8,298.5 389.8,298.5 389.8,298.5 389.8,298.5 389.9,298.5 389.9,298.5 389.9,298.5 389.9,298.5 390.0,298.5 390.0,298.5 390.0,298.5 390.0,298.5 390.1,298.5 390.1,298.5 390.1,298.5 390.1,298.5 390.2,298.5 390.2,298.5 390.2,298.5 390.3,298.5 390.3,298.5 390.3,298.5 390.3,298.5 390.4,298.5 390.4,298.5 390.4,298.5 390.4,298.5 390.5,298.5 390.5,298.5 390.5,298.5 390.5,298.5 390.6,298.5 390.6,298.5 390.6,298.5 390.6,298.5 390.7,298.5 390.7,298.5 390.7,298.5 390.8,298.5 390.8,298.5 390.8,298.5 390.8,298.5 390.9,298.5 390.9,298.5 390.9,298.5 390.9,298.5 391.0,298.5 391.0,298.5 391.0,298.5 391.0,298.5 391.1,298.5 391.1,298.5 391.1,298.5 391.1,298.5 391.2,298.5 391.2,298.5 391.2,298.5 391.2,298.5 391.3,298.5 391.3,298.5 391.3,298.5 391.3,298.5 391.4,298.5 391.4,298.5 391.4,298.5 391.4,298.5 391.5,298.5 391.5,298.5 391.5,298.5 391.6,298.5 391.6,298.5 391.6,298.5 391.6,298.5 391.7,298.5 391.7,298.5 391.7,298.5 391.7,298.5 391.8,298.5 391.8,298.5 391.8,298.5 391.8,298.5 391.9,298.5 391.9,298.5 391.9,298.5 391.9,298.5 392.0,298.5 392.0,298.5" fill="none" stroke="#22c55e" stroke-width="1.5" stroke-linejoin="round"/>
  </g>
  <line x1="442" y1="221" x2="442" y2="376" stroke="#d1d5db"/>
  <line x1="442" y1="298.5" x2="800" y2="298.5" stroke="#d1d5db"/>
  <text x="621" y="402" text-anchor="middle" font-size="9" fill="#6b7280">Samples</text>
  <text x="420" y="298.5" text-anchor="middle" font-size="9" fill="#6b7280" transform="rotate(-90 420 298.5)">Impulse</text>
  <line x1="442.0" y1="221" x2="442.0" y2="376" stroke="#e5e7eb" stroke-width="0.5"/>
  <text x="442.0" y="388" text-anchor="middle" font-size="8" fill="#6b7280">0</text>
  <line x1="564.4" y1="221" x2="564.4" y2="376" stroke="#e5e7eb" stroke-width="0.5"/>
  <text x="564.4" y="388" text-anchor="middle" font-size="8" fill="#6b7280">700</text>
  <line x1="686.7" y1="221" x2="686.7" y2="376" stroke="#e5e7eb" stroke-width="0.5"/>
  <text x="686.7" y="388" text-anchor="middle" font-size="8" fill="#6b7280">1400</text>
  <line x1="442" y1="363.1" x2="800" y2="363.1" stroke="#e5e7eb" stroke-width="0.5"/>
  <text x="438" y="366.1" text-anchor="end" font-size="8" fill="#6b7280">-1</text>
  <text x="438" y="301.5" text-anchor="end" font-size="8" fill="#6b7280">0</text>
  <line x1="442" y1="233.9" x2="800" y2="233.9" stroke="#e5e7eb" stroke-width="0.5"/>
  <text x="438" y="236.9" text-anchor="end" font-size="8" fill="#6b7280">1</text>
  <line x1="442" y1="233.9" x2="800" y2="233.9" stroke="#e5e7eb" stroke-width="0.5" stroke-dasharray="3 2"/>
  <text x="438" y="236.9" text-anchor="end" font-size="7" fill="#6b7280">+1</text>
  <line x1="442" y1="363.1" x2="800" y2="363.1" stroke="#e5e7eb" stroke-width="0.5" stroke-dasharray="3 2"/>
  <text x="438" y="366.1" text-anchor="end" font-size="7" fill="#6b7280">-1</text>
  <g clip-path="url(#clip4)">
  <polyline points="442.0,298.5 442.2,298.5 442.3,298.5 442.5,298.5 442.7,298.5 442.9,298.5 443.0,298.5 443.2,298.5 443.4,298.5 443.6,298.5 443.7,298.5 443.9,298.5 444.1,298.5 444.3,298.5 444.4,298.5 444.6,298.5 444.8,298.5 445.0,298.5 445.1,298.5 445.3,298.5 445.5,298.5 445.7,298.5 445.8,298.5 446.0,298.5 446.2,298.5 446.4,298.5 446.5,298.5 446.7,298.5 446.9,298.5 447.1,298.5 447.2,298.5 447.4,298.5 447.6,298.5 447.8,298.5 447.9,298.5 448.1,298.5 448.3,298.5 448.5,298.5 448.6,298.5 448.8,298.5 449.0,298.5 449.2,298.5 449.3,298.5 449.5,298.5 449.7,298.5 449.9,298.5 450.0,298.5 450.2,298.5 450.4,298.5 450.6,298.5 450.7,298.5 450.9,298.5 451.1,298.5 451.3,298.5 451.4,298.5 451.6,298.5 451.8,298.5 452.0,298.5 452.1,298.5 452.3,298.5 452.5,298.5 452.7,298.5 452.8,298.5 453.0,298.5 453.2,298.5 453.4,298.5 453.5,298.5 453.7,298.5 453.9,298.5 454.1,298.5 454.2,298.5 454.4,298.5 454.6,298.5 454.8,298.5 454.9,298.5 455.1,298.5 455.3,298.5 455.5,298.5 455.6,298.5 455.8,298.5 456.0,298.5 456.2,298.5 456.3,298.5 456.5,298.5 456.7,298.5 456.9,298.5 457.0,298.5 457.2,298.5 457.4,298.5 457.6,298.5 457.7,298.5 457.9,298.5 458.1,298.5 458.3,298.5 458.4,298.5 458.6,298.5 458.8,298.5 459.0,298.5 459.1,298.5 459.3,298.5 459.5,298.5 459.7,298.5 459.8,298.5 460.0,298.5 460.2,298.5 460.4,298.5 460.5,298.5 460.7,298.5 460.9,298.5 461.1,298.5 461.2,298.5 461.4,298.5 461.6,298.5 461.8,298.5 461.9,298.5 462.1,298.5 462.3,298.5 462.5,298.5 462.6,298.5 462.8,298.5 463.0,298.5 463.2,298.5 463.3,298.5 463.5,298.5 463.7,298.5 463.9,298.5 464.0,298.5 464.2,298.5 464.4,298.5 464.5,298.5 464.7,298.5 464.9,298.5 465.1,298.5 465.2,298.5 465.4,298.5 465.6,298.5 465.8,298.5 465.9,298.5 466.1,298.5 466.3,298.5 466.5,298.5 466.6,298.5 466.8,298.5 467.0,298.5 467.2,298.5 467.3,298.5 467.5,298.5 467.7,298.5 467.9,298.5 468.0,298.5 468.2,298.5 468.4,298.5 468.6,298.5 468.7,298.5 468.9,298.5 469.1,298.5 469.3,298.5 469.4,298.5 469.6,298.5 469.8,298.5 470.0,298.5 470.1,298.5 470.3,298.5 470.5,298.5 470.7,298.5 470.8,298.5 471.0,298.5 471.2,298.5 471.4,298.5 471.5,298.5 471.7,298.5 471.9,298.5 472.1,298.5 472.2,298.5 472.4,298.5 472.6,298.5 472.8,298.5 472.9,298.5 473.1,298.5 473.3,298.5 473.5,298.5 473.6,298.5 473.8,298.5 474.0,298.5 474.2,298.5 474.3,298.5 474.5,298.5 474.7,298.5 474.9,298.5 475.0,298.5 475.2,298.5 475.4,298.5 475.6,298.5 475.7,298.5 475.9,298.5 476.1,298.5 476.3,298.5 476.4,298.5 476.6,298.5 476.8,298.5 477.0,298.5 477.1,298.5 477.3,298.5 477.5,298.5 477.7,298.5 477.8,298.5 478.0,298.5 478.2,298.5 478.4,298.5 478.5,298.5 478.7,298.5 478.9,298.5 479.1,298.5 479.2,298.5 479.4,298.5 479.6,298.5 479.8,298.5 479.9,298.5 480.1,298.5 480.3,298.5 480.5,298.5 480.6,298.5 480.8,298.5 481.0,298.5 481.2,298.5 481.3,298.5 481.5,298.5 481.7,298.5 481.9,298.5 482.0,298.5 482.2,298.5 482.4,298.5 482.6,298.5 482.7,298.5 482.9,298.5 483.1,298.5 483.3,298.5 483.4,298.5 483.6,298.5 483.8,298.5 484.0,298.5 484.1,298.5 484.3,298.5 484.5,298.5 484.7,298.5 484.8,298.5 485.0,298.5 485.2,298.5 485.4,298.5 485.5,298.5 485.7,298.5 485.9,298.5 486.1,298.5 486.2,298.5 486.4,298.5 486.6,298.5 486.8,298.5 486.9,298.5 487.1,298.5 487.3,298.5 487.4,298.5 487.6,298.5 487.8,298.5 488.0,298.5 488.1,298.5 488.3,298.5 488.5,298.5 488.7,298.5 488.8,298.5 489.0,298.5 489.2,298.5 489.4,298.5 489.5,298.5 489.7,298.5 489.9,298.5 490.1,298.5 490.2,298.5 490.4,298.5 490.6,298.5 490.8,298.5 490.9,298.5 491.1,298.5 491.3,298.5 491.5,298.5 491.6,298.5 491.8,298.5 492.0,298.5 492.2,298.5 492.3,298.5 492.5,298.5 492.7,298.5 492.9,298.5 493.0,298.5 493.2,298.5 493.4,298.5 493.6,298.5 493.7,298.5 493.9,298.5 494.1,298.5 494.3,298.5 494.4,298.5 494.6,298.5 494.8,298.5 495.0,298.5 495.1,298.5 495.3,298.5 495.5,298.5 495.7,298.5 495.8,298.5 496.0,298.5 496.2,298.5 496.4,298.5 496.5,298.5 496.7,298.5 496.9,298.5 497.1,298.5 497.2,298.5 497.4,298.5 497.6,298.5 497.8,298.5 497.9,298.5 498.1,298.5 498.3,298.5 498.5,298.5 498.6,298.5 498.8,298.5 499.0,298.5 499.2,298.5 499.3,298.5 499.5,298.5 499.7,298.5 499.9,298.5 500.0,298.5 500.2,298.5 500.4,298.5 500.6,298.5 500.7,298.5 500.9,298.5 501.1,298.5 501.3,298.5 501.4,298.5 501.6,298.5 501.8,298.5 502.0,298.5 502.1,298.5 502.3,298.5 502.5,298.5 502.7,298.5 502.8,298.5 503.0,298.5 503.2,298.5 503.4,298.5 503.5,298.5 503.7,298.5 503.9,298.5 504.1,298.5 504.2,298.5 504.4,298.5 504.6,298.5 504.8,298.5 504.9,298.5 505.1,298.5 505.3,298.5 505.5,298.5 505.6,298.5 505.8,298.5 506.0,298.5 506.2,298.5 506.3,298.5 506.5,298.5 506.7,298.5 506.9,298.5 507.0,298.5 507.2,298.5 507.4,298.5 507.6,298.5 507.7,298.5 507.9,298.5 508.1,298.5 508.3,298.5 508.4,298.5 508.6,298.5 508.8,298.5 509.0,298.5 509.1,298.5 509.3,298.5 509.5,298.5 509.6,298.5 509.8,298.5 510.0,298.5 510.2,298.5 510.3,298.5 510.5,298.5 510.7,298.5 510.9,298.5 511.0,298.5 511.2,298.5 511.4,298.5 511.6,298.5 511.7,298.5 511.9,298.5 512.1,298.5 512.3,298.5 512.4,298.5 512.6,298.5 512.8,298.5 513.0,298.5 513.1,298.5 513.3,298.5 513.5,298.5 513.7,298.5 513.8,298.5 514.0,298.5 514.2,298.5 514.4,298.5 514.5,298.5 514.7,298.5 514.9,298.5 515.1,298.5 515.2,298.5 515.4,298.5 515.6,298.5 515.8,298.5 515.9,298.5 516.1,298.5 516.3,298.5 516.5,298.5 516.6,298.5 516.8,298.5 517.0,298.5 517.2,298.5 517.3,298.5 517.5,298.5 517.7,298.5 517.9,298.5 518.0,298.5 518.2,298.5 518.4,298.5 518.6,298.5 518.7,298.5 518.9,298.5 519.1,298.5 519.3,298.5 519.4,298.5 519.6,298.5 519.8,298.5 520.0,298.5 520.1,298.5 520.3,298.5 520.5,298.5 520.7,298.5 520.8,298.5 521.0,298.5 521.2,298.5 521.4,298.5 521.5,298.5 521.7,298.5 521.9,298.5 522.1,298.5 522.2,298.5 522.4,298.5 522.6,298.5 522.8,298.5 522.9,298.5 523.1,298.5 523.3,298.5 523.5,298.5 523.6,298.5 523.8,298.5 524.0,298.5 524.2,298.5 524.3,298.5 524.5,298.5 524.7,298.5 524.9,298.5 525.0,298.5 525.2,298.5 525.4,298.5 525.6,298.5 525.7,298.5 525.9,298.5 526.1,298.5 526.3,298.5 526.4,298.5 526.6,298.5 526.8,298.5 527.0,298.5 527.1,298.5 527.3,298.5 527.5,298.5 527.7,298.5 527.8,298.5 528.0,298.5 528.2,298.5 528.4,298.5 528.5,298.5 528.7,298.5 528.9,298.5 529.1,298.5 529.2,298.5 529.4,298.5 529.6,298.5 529.8,298.5 529.9,298.5 530.1,298.5 530.3,298.5 530.5,298.5 530.6,298.5 530.8,298.5 531.0,298.5 531.2,298.5 531.3,298.5 531.5,298.5 531.7,298.5 531.8,298.5 532.0,298.5 532.2,298.5 532.4,298.5 532.5,298.5 532.7,298.5 532.9,298.5 533.1,298.5 533.2,298.5 533.4,298.5 533.6,298.5 533.8,298.5 533.9,298.5 534.1,298.5 534.3,298.5 534.5,298.5 534.6,298.5 534.8,298.5 535.0,298.5 535.2,298.5 535.3,298.5 535.5,298.5 535.7,298.5 535.9,298.5 536.0,298.5 536.2,298.5 536.4,298.5 536.6,298.5 536.7,298.5 536.9,298.5 537.1,298.5 537.3,298.5 537.4,298.5 537.6,298.5 537.8,298.5 538.0,298.5 538.1,298.5 538.3,298.5 538.5,298.5 538.7,298.5 538.8,298.5 539.0,298.5 539.2,298.5 539.4,298.5 539.5,298.5 539.7,298.5 539.9,298.5 540.1,298.5 540.2,298.5 540.4,298.5 540.6,298.5 540.8,298.5 540.9,298.5 541.1,298.5 541.3,298.5 541.5,298.5 541.6,298.5 541.8,298.5 542.0,298.5 542.2,298.5 542.3,298.5 542.5,298.5 542.7,298.5 542.9,298.5 543.0,298.5 543.2,298.5 543.4,298.5 543.6,298.5 543.7,298.5 543.9,298.5 544.1,298.5 544.3,298.5 544.4,298.5 544.6,298.5 544.8,298.5 545.0,298.5 545.1,298.5 545.3,298.5 545.5,298.5 545.7,298.5 545.8,298.5 546.0,298.5 546.2,298.5 546.4,298.5 546.5,298.5 546.7,298.5 546.9,298.5 547.1,298.5 547.2,298.5 547.4,298.5 547.6,298.5 547.8,298.5 547.9,298.5 548.1,298.5 548.3,298.5 548.5,298.5 548.6,298.5 548.8,298.5 549.0,298.5 549.2,298.5 549.3,298.5 549.5,298.5 549.7,298.5 549.9,298.5 550.0,298.5 550.2,298.5 550.4,298.5 550.6,298.5 550.7,298.5 550.9,298.5 551.1,298.5 551.3,298.5 551.4,298.5 551.6,298.5 551.8,298.5 552.0,298.5 552.1,298.5 552.3,298.5 552.5,298.5 552.7,298.5 552.8,298.5 553.0,298.5 553.2,298.5 553.4,298.5 553.5,298.5 553.7,298.5 553.9,298.5 554.0,298.5 554.2,298.5 554.4,298.5 554.6,298.5 554.7,298.5 554.9,298.5 555.1,298.5 555.3,298.5 555.4,298.5 555.6,298.5 555.8,298.5 556.0,298.5 556.1,298.5 556.3,298.5 556.5,298.5 556.7,298.5 556.8,298.5 557.0,298.5 557.2,298.5 557.4,298.5 557.5,298.5 557.7,298.5 557.9,298.5 558.1,298.5 558.2,298.5 558.4,298.5 558.6,298.5 558.8,298.5 558.9,298.5 559.1,298.5 559.3,298.5 559.5,298.5 559.6,298.5 559.8,298.5 560.0,298.5 560.2,298.5 560.3,298.5 560.5,298.5 560.7,298.5 560.9,298.5 561.0,298.5 561.2,298.5 561.4,298.5 561.6,298.5 561.7,298.5 561.9,298.5 562.1,298.5 562.3,298.5 562.4,298.5 562.6,298.5 562.8,298.5 563.0,298.5 563.1,298.5 563.3,298.5 563.5,298.5 563.7,298.5 563.8,298.5 564.0,298.5 564.2,298.5 564.4,298.5 564.5,298.5 564.7,298.5 564.9,298.5 565.1,298.5 565.2,298.5 565.4,298.5 565.6,298.5 565.8,298.5 565.9,298.5 566.1,298.5 566.3,298.5 566.5,298.5 566.6,298.5 566.8,298.5 567.0,298.5 567.2,298.5 567.3,298.5 567.5,298.5 567.7,298.5 567.9,298.5 568.0,298.5 568.2,298.5 568.4,298.5 568.6,298.5 568.7,298.5 568.9,298.5 569.1,298.5 569.3,298.5 569.4,298.5 569.6,298.5 569.8,298.5 570.0,298.5 570.1,298.5 570.3,298.5 570.5,298.5 570.7,298.5 570.8,298.5 571.0,298.5 571.2,298.5 571.4,298.5 571.5,298.5 571.7,298.5 571.9,298.5 572.1,298.5 572.2,298.5 572.4,298.5 572.6,298.5 572.8,298.5 572.9,298.5 573.1,298.5 573.3,298.5 573.5,298.5 573.6,298.5 573.8,298.5 574.0,298.5 574.2,298.5 574.3,298.5 574.5,298.5 574.7,298.5 574.9,298.5 575.0,298.5 575.2,298.5 575.4,298.5 575.6,298.5 575.7,298.5 575.9,298.5 576.1,298.5 576.3,298.5 576.4,298.5 576.6,298.5 576.8,298.5 576.9,298.5 577.1,298.5 577.3,298.5 577.5,298.5 577.6,298.5 577.8,298.5 578.0,298.5 578.2,298.5 578.3,298.5 578.5,298.5 578.7,298.5 578.9,298.5 579.0,298.5 579.2,298.5 579.4,298.5 579.6,298.5 579.7,298.5 579.9,298.5 580.1,298.5 580.3,298.5 580.4,298.5 580.6,298.5 580.8,298.5 581.0,298.5 581.1,298.5 581.3,298.5 581.5,298.5 581.7,298.5 581.8,298.5 582.0,298.5 582.2,298.5 582.4,298.5 582.5,298.5 582.7,298.5 582.9,298.5 583.1,298.5 583.2,298.5 583.4,298.5 583.6,298.5 583.8,298.5 583.9,298.5 584.1,298.5 584.3,298.5 584.5,298.5 584.6,298.5 584.8,298.5 585.0,298.5 585.2,298.5 585.3,298.5 585.5,298.5 585.7,298.5 585.9,298.5 586.0,298.5 586.2,298.5 586.4,298.5 586.6,298.5 586.7,298.5 586.9,298.5 587.1,298.5 587.3,298.5 587.4,298.5 587.6,298.5 587.8,298.5 588.0,298.5 588.1,298.5 588.3,298.5 588.5,298.5 588.7,298.5 588.8,298.5 589.0,298.5 589.2,298.5 589.4,298.5 589.5,298.5 589.7,298.5 589.9,298.5 590.1,298.5 590.2,298.5 590.4,298.5 590.6,298.5 590.8,298.5 590.9,298.5 591.1,298.5 591.3,298.5 591.5,298.5 591.6,298.5 591.8,298.5 592.0,298.5 592.2,298.5 592.3,298.5 592.5,298.5 592.7,298.5 592.9,298.5 593.0,298.5 593.2,298.5 593.4,298.5 593.6,298.5 593.7,298.5 593.9,298.5 594.1,298.5 594.3,298.5 594.4,298.5 594.6,298.5 594.8,298.5 595.0,298.5 595.1,298.5 595.3,298.5 595.5,298.5 595.7,298.5 595.8,298.5 596.0,298.5 596.2,298.5 596.4,298.5 596.5,298.5 596.7,298.5 596.9,298.5 597.1,298.5 597.2,298.5 597.4,298.5 597.6,298.5 597.8,298.5 597.9,298.5 598.1,298.5 598.3,298.5 598.5,298.5 598.6,298.5 598.8,298.5 599.0,298.5 599.1,298.5 599.3,298.5 599.5,298.5 599.7,298.5 599.8,298.5 600.0,298.5 600.2,298.5 600.4,298.5 600.5,298.5 600.7,298.5 600.9,298.5 601.1,298.5 601.2,298.5 601.4,298.5 601.6,298.5 601.8,298.5 601.9,298.5 602.1,298.5 602.3,298.5 602.5,298.5 602.6,298.5 602.8,298.5 603.0,298.5 603.2,298.5 603.3,298.5 603.5,298.5 603.7,298.5 603.9,298.5 604.0,298.5 604.2,298.5 604.4,298.5 604.6,298.5 604.7,298.5 604.9,298.5 605.1,298.5 605.3,298.5 605.4,298.5 605.6,298.5 605.8,298.5 606.0,298.5 606.1,298.5 606.3,298.5 606.5,298.5 606.7,298.5 606.8,298.5 607.0,298.5 607.2,298.5 607.4,298.5 607.5,298.5 607.7,298.5 607.9,298.5 608.1,298.5 608.2,298.5 608.4,298.5 608.6,298.5 608.8,298.5 608.9,298.5 609.1,298.5 609.3,298.5 609.5,298.5 609.6,298.5 609.8,298.5 610.0,298.5 610.2,298.5 610.3,298.5 610.5,298.5 610.7,298.5 610.9,298.5 611.0,298.5 611.2,298.5 611.4,298.5 611.6,298.5 611.7,298.5 611.9,298.5 612.1,298.5 612.3,298.5 612.4,298.5 612.6,298.5 612.8,298.5 613.0,298.5 613.1,298.5 613.3,298.5 613.5,298.5 613.7,298.5 613.8,298.5 614.0,298.5 614.2,298.5 614.4,298.5 614.5,298.5 614.7,298.5 614.9,298.5 615.1,298.5 615.2,298.5 615.4,298.5 615.6,298.5 615.8,298.5 615.9,298.5 616.1,298.5 616.3,298.5 616.5,298.5 616.6,298.5 616.8,298.5 617.0,298.5 617.2,298.5 617.3,298.5 617.5,298.5 617.7,298.5 617.9,298.5 618.0,298.5 618.2,298.5 618.4,298.5 618.6,298.5 618.7,298.5 618.9,298.5 619.1,298.5 619.3,298.5 619.4,298.5 619.6,298.5 619.8,298.5 620.0,298.5 620.1,298.5 620.3,298.5 620.5,298.5 620.7,298.5 620.8,298.5 621.0,298.5 621.2,298.5 621.3,298.5 621.5,298.5 621.7,298.5 621.9,298.5 622.0,298.5 622.2,298.5 622.4,298.5 622.6,298.5 622.7,298.5 622.9,298.5 623.1,298.5 623.3,298.5 623.4,298.5 623.6,298.5 623.8,298.5 624.0,298.5 624.1,298.5 624.3,298.5 624.5,298.5 624.7,298.5 624.8,298.5 625.0,298.5 625.2,298.5 625.4,298.5 625.5,298.5 625.7,298.5 625.9,298.5 626.1,298.5 626.2,298.5 626.4,298.5 626.6,298.5 626.8,298.5 626.9,298.5 627.1,298.5 627.3,298.5 627.5,298.5 627.6,298.5 627.8,298.5 628.0,298.5 628.2,298.5 628.3,298.5 628.5,298.5 628.7,298.5 628.9,298.5 629.0,298.5 629.2,298.5 629.4,298.5 629.6,298.5 629.7,298.5 629.9,298.5 630.1,298.5 630.3,298.5 630.4,298.5 630.6,298.5 630.8,298.5 631.0,298.5 631.1,298.5 631.3,298.5 631.5,298.5 631.7,298.5 631.8,298.5 632.0,298.5 632.2,298.5 632.4,298.5 632.5,298.5 632.7,298.5 632.9,298.5 633.1,298.5 633.2,298.5 633.4,298.5 633.6,298.5 633.8,298.5 633.9,298.5 634.1,298.5 634.3,298.5 634.5,298.5 634.6,298.5 634.8,298.5 635.0,298.5 635.2,298.5 635.3,298.5 635.5,298.5 635.7,298.5 635.9,298.5 636.0,298.5 636.2,298.5 636.4,298.5 636.6,298.5 636.7,298.5 636.9,298.5 637.1,298.5 637.3,298.5 637.4,298.5 637.6,298.5 637.8,298.5 638.0,298.5 638.1,298.5 638.3,298.5 638.5,298.5 638.7,298.5 638.8,298.5 639.0,298.5 639.2,298.5 639.4,298.5 639.5,298.5 639.7,298.5 639.9,298.5 640.1,298.5 640.2,298.5 640.4,298.5 640.6,298.5 640.8,298.5 640.9,298.5 641.1,298.5 641.3,298.5 641.5,298.5 641.6,298.5 641.8,298.5 642.0,298.5 642.2,298.5 642.3,298.5 642.5,298.5 642.7,298.5 642.9,298.5 643.0,298.5 643.2,298.5 643.4,298.5 643.5,298.5 643.7,298.5 643.9,298.5 644.1,298.5 644.2,298.5 644.4,298.5 644.6,298.5 644.8,298.5 644.9,298.5 645.1,298.5 645.3,298.5 645.5,298.5 645.6,298.5 645.8,298.5 646.0,298.5 646.2,298.5 646.3,298.5 646.5,298.5 646.7,298.5 646.9,298.5 647.0,298.5 647.2,298.5 647.4,298.5 647.6,298.5 647.7,298.5 647.9,298.5 648.1,298.5 648.3,298.5 648.4,298.5 648.6,298.5 648.8,298.5 649.0,298.5 649.1,298.5 649.3,298.5 649.5,298.5 649.7,298.5 649.8,298.5 650.0,298.5 650.2,298.5 650.4,298.5 650.5,298.5 650.7,298.5 650.9,298.5 651.1,298.5 651.2,298.5 651.4,298.5 651.6,298.5 651.8,298.5 651.9,298.5 652.1,298.5 652.3,298.5 652.5,298.5 652.6,298.5 652.8,298.5 653.0,298.5 653.2,298.5 653.3,298.5 653.5,298.5 653.7,298.5 653.9,298.5 654.0,298.5 654.2,298.5 654.4,298.5 654.6,298.5 654.7,298.5 654.9,298.5 655.1,298.5 655.3,298.5 655.4,298.5 655.6,298.5 655.8,298.5 656.0,298.5 656.1,298.5 656.3,298.5 656.5,298.5 656.7,298.5 656.8,298.5 657.0,298.5 657.2,298.5 657.4,298.5 657.5,298.5 657.7,298.5 657.9,298.5 658.1,298.5 658.2,298.5 658.4,298.5 658.6,298.5 658.8,298.5 658.9,298.5 659.1,298.5 659.3,298.5 659.5,298.5 659.6,298.5 659.8,298.5 660.0,298.5 660.2,298.5 660.3,298.5 660.5,298.5 660.7,298.5 660.9,298.5 661.0,298.5 661.2,298.5 661.4,298.5 661.6,298.5 661.7,298.5 661.9,298.5 662.1,298.5 662.3,298.5 662.4,298.5 662.6,298.5 662.8,298.5 663.0,298.5 663.1,298.5 663.3,298.5 663.5,298.5 663.7,298.5 663.8,298.5 664.0,298.5 664.2,298.5 664.4,298.5 664.5,298.5 664.7,298.5 664.9,298.5 665.1,298.5 665.2,298.5 665.4,298.5 665.6,298.5 665.8,298.5 665.9,298.5 666.1,298.5 666.3,298.5 666.4,298.5 666.6,298.5 666.8,298.5 667.0,298.5 667.1,298.5 667.3,298.5 667.5,298.5 667.7,298.5 667.8,298.5 668.0,298.5 668.2,298.5 668.4,298.5 668.5,298.5 668.7,298.5 668.9,298.5 669.1,298.5 669.2,298.5 669.4,298.5 669.6,298.5 669.8,298.5 669.9,298.5 670.1,298.5 670.3,298.5 670.5,298.5 670.6,298.5 670.8,298.5 671.0,298.5 671.2,298.5 671.3,298.5 671.5,298.5 671.7,298.5 671.9,298.5 672.0,298.5 672.2,298.5 672.4,298.5 672.6,298.5 672.7,298.5 672.9,298.5 673.1,298.5 673.3,298.5 673.4,298.5 673.6,298.5 673.8,298.5 674.0,298.5 674.1,298.5 674.3,298.5 674.5,298.5 674.7,298.5 674.8,298.5 675.0,298.5 675.2,298.5 675.4,298.5 675.5,298.5 675.7,298.5 675.9,298.5 676.1,298.5 676.2,298.5 676.4,298.5 676.6,298.5 676.8,298.5 676.9,298.5 677.1,298.5 677.3,298.5 677.5,298.5 677.6,298.5 677.8,298.5 678.0,298.5 678.2,298.5 678.3,298.5 678.5,298.5 678.7,298.5 678.9,298.5 679.0,298.5 679.2,298.5 679.4,298.5 679.6,298.5 679.7,298.5 679.9,298.5 680.1,298.5 680.3,298.5 680.4,298.5 680.6,298.5 680.8,298.5 681.0,298.5 681.1,298.5 681.3,298.5 681.5,298.5 681.7,298.5 681.8,298.5 682.0,298.5 682.2,298.5 682.4,298.5 682.5,298.5 682.7,298.5 682.9,298.5 683.1,298.5 683.2,298.5 683.4,298.5 683.6,298.5 683.8,298.5 683.9,298.5 684.1,298.5 684.3,298.5 684.5,298.5 684.6,298.5 684.8,298.5 685.0,298.5 685.2,298.5 685.3,298.5 685.5,298.5 685.7,298.5 685.9,298.5 686.0,298.5 686.2,298.5 686.4,298.5 686.6,298.5 686.7,298.5 686.9,298.5 687.1,298.5 687.3,298.5 687.4,298.5 687.6,298.5 687.8,298.5 688.0,298.5 688.1,298.5 688.3,298.5 688.5,298.5 688.6,298.5 688.8,298.5 689.0,298.5 689.2,298.5 689.3,298.5 689.5,298.5 689.7,298.5 689.9,298.5 690.0,298.5 690.2,298.5 690.4,298.5 690.6,298.5 690.7,298.5 690.9,298.5 691.1,298.5 691.3,298.5 691.4,298.5 691.6,298.5 691.8,298.5 692.0,298.5 692.1,298.5 692.3,298.5 692.5,298.5 692.7,298.5 692.8,298.5 693.0,298.5 693.2,298.5 693.4,298.5 693.5,298.5 693.7,298.5 693.9,298.5 694.1,298.5 694.2,298.5 694.4,298.5 694.6,298.5 694.8,298.5 694.9,298.5 695.1,298.5 695.3,298.5 695.5,298.5 695.6,298.5 695.8,298.5 696.0,298.5 696.2,298.5 696.3,298.5 696.5,298.5 696.7,298.5 696.9,298.5 697.0,298.5 697.2,298.5 697.4,298.5 697.6,298.5 697.7,298.5 697.9,298.5 698.1,298.5 698.3,298.5 698.4,298.5 698.6,298.5 698.8,298.5 699.0,298.5 699.1,298.5 699.3,298.5 699.5,298.5 699.7,298.5 699.8,298.5 700.0,298.5 700.2,298.5 700.4,298.5 700.5,298.5 700.7,298.5 700.9,298.5 701.1,298.5 701.2,298.5 701.4,298.5 701.6,298.5 701.8,298.5 701.9,298.5 702.1,298.5 702.3,298.5 702.5,298.5 702.6,298.5 702.8,298.5 703.0,298.5 703.2,298.5 703.3,298.5 703.5,298.5 703.7,298.5 703.9,298.5 704.0,298.5 704.2,298.5 704.4,298.5 704.6,298.5 704.7,298.5 704.9,298.5 705.1,298.5 705.3,298.5 705.4,298.5 705.6,298.5 705.8,298.5 706.0,298.5 706.1,298.5 706.3,298.5 706.5,298.5 706.7,298.5 706.8,298.5 707.0,298.5 707.2,298.5 707.4,298.5 707.5,298.5 707.7,298.5 707.9,298.5 708.1,298.5 708.2,298.5 708.4,298.5 708.6,298.5 708.8,298.5 708.9,298.5 709.1,298.5 709.3,298.5 709.5,298.5 709.6,298.5 709.8,298.5 710.0,298.5 710.2,298.5 710.3,298.5 710.5,298.5 710.7,298.5 710.8,298.5 711.0,298.5 711.2,298.5 711.4,298.5 711.5,298.5 711.7,298.5 711.9,298.5 712.1,298.5 712.2,298.5 712.4,298.5 712.6,298.5 712.8,298.5 712.9,298.5 713.1,298.5 713.3,298.5 713.5,298.5 713.6,298.5 713.8,298.5 714.0,298.5 714.2,298.5 714.3,298.5 714.5,298.5 714.7,298.5 714.9,298.5 715.0,298.5 715.2,298.5 715.4,298.5 715.6,298.5 715.7,298.5 715.9,298.5 716.1,298.5 716.3,298.5 716.4,298.5 716.6,298.5 716.8,298.5 717.0,298.5 717.1,298.5 717.3,298.5 717.5,298.5 717.7,298.5 717.8,298.5 718.0,298.5 718.2,298.5 718.4,298.5 718.5,298.5 718.7,298.5 718.9,298.5 719.1,298.5 719.2,298.5 719.4,298.5 719.6,298.5 719.8,298.5 719.9,298.5 720.1,298.5 720.3,298.5 720.5,298.5 720.6,298.5 720.8,298.5 721.0,298.5 721.2,298.5 721.3,298.5 721.5,298.5 721.7,298.5 721.9,298.5 722.0,298.5 722.2,298.5 722.4,298.5 722.6,298.5 722.7,298.5 722.9,298.5 723.1,298.5 723.3,298.5 723.4,298.5 723.6,298.5 723.8,298.5 724.0,298.5 724.1,298.5 724.3,298.5 724.5,298.5 724.7,298.5 724.8,298.5 725.0,298.5 725.2,298.5 725.4,298.5 725.5,298.5 725.7,298.5 725.9,298.5 726.1,298.5 726.2,298.5 726.4,298.5 726.6,298.5 726.8,298.5 726.9,298.5 727.1,298.5 727.3,298.5 727.5,298.5 727.6,298.5 727.8,298.5 728.0,298.5 728.2,298.5 728.3,298.5 728.5,298.5 728.7,298.5 728.9,298.5 729.0,298.5 729.2,298.5 729.4,298.5 729.6,298.5 729.7,298.5 729.9,298.5 730.1,298.5 730.3,298.5 730.4,298.5 730.6,298.5 730.8,298.5 731.0,298.5 731.1,298.5 731.3,298.5 731.5,298.5 731.7,298.5 731.8,298.5 732.0,298.5 732.2,298.5 732.4,298.5 732.5,298.5 732.7,298.5 732.9,298.5 733.0,298.5 733.2,298.5 733.4,298.5 733.6,298.5 733.7,298.5 733.9,298.5 734.1,298.5 734.3,298.5 734.4,298.5 734.6,298.5 734.8,298.5 735.0,298.5 735.1,298.5 735.3,298.5 735.5,298.5 735.7,298.5 735.8,298.5 736.0,298.5 736.2,298.5 736.4,298.5 736.5,298.5 736.7,298.5 736.9,298.5 737.1,298.5 737.2,298.5 737.4,298.5 737.6,298.5 737.8,298.5 737.9,298.5 738.1,298.5 738.3,298.5 738.5,298.5 738.6,298.5 738.8,298.5 739.0,298.5 739.2,298.5 739.3,298.5 739.5,298.5 739.7,298.5 739.9,298.5 740.0,298.5 740.2,298.5 740.4,298.5 740.6,298.5 740.7,298.5 740.9,298.5 741.1,298.5 741.3,298.5 741.4,298.5 741.6,298.5 741.8,298.5 742.0,298.5 742.1,298.5 742.3,298.5 742.5,298.5 742.7,298.5 742.8,298.5 743.0,298.5 743.2,298.5 743.4,298.5 743.5,298.5 743.7,298.5 743.9,298.5 744.1,298.5 744.2,298.5 744.4,298.5 744.6,298.5 744.8,298.5 744.9,298.5 745.1,298.5 745.3,298.5 745.5,298.5 745.6,298.5 745.8,298.5 746.0,298.5 746.2,298.5 746.3,298.5 746.5,298.5 746.7,298.5 746.9,298.5 747.0,298.5 747.2,298.5 747.4,298.5 747.6,298.5 747.7,298.5 747.9,298.5 748.1,298.5 748.3,298.5 748.4,298.5 748.6,298.5 748.8,298.5 749.0,298.5 749.1,298.5 749.3,298.5 749.5,298.5 749.7,298.5 749.8,298.5 750.0,298.5 750.2,298.5 750.4,298.5 750.5,298.5 750.7,298.5 750.9,298.5 751.1,298.5 751.2,298.5 751.4,298.5 751.6,298.5 751.8,298.5 751.9,298.5 752.1,298.5 752.3,298.5 752.5,298.5 752.6,298.5 752.8,298.5 753.0,298.5 753.2,298.5 753.3,298.5 753.5,298.5 753.7,298.5 753.9,298.5 754.0,298.5 754.2,298.5 754.4,298.5 754.6,298.5 754.7,298.5 754.9,298.5 755.1,298.5 755.3,298.5 755.4,298.5 755.6,298.5 755.8,298.5 755.9,298.5 756.1,298.5 756.3,298.5 756.5,298.5 756.6,298.5 756.8,298.5 757.0,298.5 757.2,298.5 757.3,298.5 757.5,298.5 757.7,298.5 757.9,298.5 758.0,298.5 758.2,298.5 758.4,298.5 758.6,298.5 758.7,298.5 758.9,298.5 759.1,298.5 759.3,298.5 759.4,298.5 759.6,298.5 759.8,298.5 760.0,298.5 760.1,298.5 760.3,298.5 760.5,298.5 760.7,298.5 760.8,298.5 761.0,298.5 761.2,298.5 761.4,298.5 761.5,298.5 761.7,298.5 761.9,298.5 762.1,298.5 762.2,298.5 762.4,298.5 762.6,298.5 762.8,298.5 762.9,298.5 763.1,298.5 763.3,298.5 763.5,298.5 763.6,298.5 763.8,298.5 764.0,298.5 764.2,298.5 764.3,298.5 764.5,298.5 764.7,298.5 764.9,298.5 765.0,298.5 765.2,298.5 765.4,298.5 765.6,298.5 765.7,298.5 765.9,298.5 766.1,298.5 766.3,298.5 766.4,298.5 766.6,298.5 766.8,298.5 767.0,298.5 767.1,298.5 767.3,298.5 767.5,298.5 767.7,298.5 767.8,298.5 768.0,298.5 768.2,298.5 768.4,298.5 768.5,298.5 768.7,298.5 768.9,298.5 769.1,298.5 769.2,298.5 769.4,298.5 769.6,298.5 769.8,298.5 769.9,298.5 770.1,298.5 770.3,298.5 770.5,298.5 770.6,298.5 770.8,298.5 771.0,298.5 771.2,298.5 771.3,298.5 771.5,298.5 771.7,298.5 771.9,298.5 772.0,298.5 772.2,298.5 772.4,298.5 772.6,298.5 772.7,298.5 772.9,298.5 773.1,298.5 773.3,298.5 773.4,298.5 773.6,298.5 773.8,298.5 774.0,298.5 774.1,298.5 774.3,298.5 774.5,298.5 774.7,298.5 774.8,298.5 775.0,298.5 775.2,298.5 775.4,298.5 775.5,298.5 775.7,298.5 775.9,298.5 776.1,298.5 776.2,298.5 776.4,298.5 776.6,298.5 776.8,298.5 776.9,298.5 777.1,298.5 777.3,298.5 777.5,298.5 777.6,298.5 777.8,298.5 778.0,298.5 778.1,298.5 778.3,298.5 778.5,298.5 778.7,298.5 778.8,298.5 779.0,298.5 779.2,298.5 779.4,298.5 779.5,298.5 779.7,298.5 779.9,298.5 780.1,298.5 780.2,298.5 780.4,298.5 780.6,298.5 780.8,298.5 780.9,298.5 781.1,298.5 781.3,298.5 781.5,298.5 781.6,298.5 781.8,298.5 782.0,298.5 782.2,298.5 782.3,298.5 782.5,298.5 782.7,298.5 782.9,298.5 783.0,298.5 783.2,298.5 783.4,298.5 783.6,298.5 783.7,298.5 783.9,298.5 784.1,298.5 784.3,298.5 784.4,298.5 784.6,298.5 784.8,298.5 785.0,298.5 785.1,298.5 785.3,298.5 785.5,298.5 785.7,298.5 785.8,298.5 786.0,298.5 786.2,298.5 786.4,298.5 786.5,298.5 786.7,298.5 786.9,298.5 787.1,298.5 787.2,298.5 787.4,298.5 787.6,298.5 787.8,298.5 787.9,298.5 788.1,298.5 788.3,298.5 788.5,298.5 788.6,298.5 788.8,298.5 789.0,298.5 789.2,298.5 789.3,298.5 789.5,298.5 789.7,298.5 789.9,298.5 790.0,298.5 790.2,298.5 790.4,298.5 790.6,298.5 790.7,298.5 790.9,298.5 791.1,298.5 791.3,298.5 791.4,298.5 791.6,298.5 791.8,298.5 792.0,298.5 792.1,298.5 792.3,298.5 792.5,298.5 792.7,298.5 792.8,298.5 793.0,298.5 793.2,298.5 793.4,298.5 793.5,298.5 793.7,298.5 793.9,298.5 794.1,298.5 794.2,298.5 794.4,298.5 794.6,298.5 794.8,298.5 794.9,298.5 795.1,298.5 795.3,298.5 795.5,298.5 795.6,298.5 795.8,298.5 796.0,298.5 796.2,298.5 796.3,298.5 796.5,298.5 796.7,298.5 796.9,298.5 797.0,298.5 797.2,298.5 797.4,298.5 797.6,298.5 797.7,298.5 797.9,298.5 798.1,298.5 798.3,298.5 798.4,298.5 798.6,298.5 798.8,298.5 799.0,298.5 799.1,298.5 799.3,298.5 799.5,298.5 799.7,298.5 799.8,298.5" fill="none" stroke="#eab308" stroke-width="1.2" stroke-linejoin="round"/>
  </g>
</svg>
