<svg xmlns="http://www.w3.org/2000/svg" viewBox="0 0 820 392" style="font-family:system-ui,-apple-system,sans-serif">
  <defs>
    <clipPath id="u32"><rect x="34" y="16" width="358" height="360"/></clipPath>

    <linearGradient id="u33" x1="0" y1="64" x2="0" y2="304" gradientUnits="userSpaceOnUse"><stop offset="0%" stop-color="#3b82f6" stop-opacity="0.15"/><stop offset="100%" stop-color="#3b82f6" stop-opacity="0.01"/></linearGradient>

    <clipPath id="u34"><rect x="442" y="16" width="358" height="360"/></clipPath>

    <linearGradient id="u35" x1="0" y1="304" x2="0" y2="304" gradientUnits="userSpaceOnUse"><stop offset="0%" stop-color="#3b82f6" stop-opacity="0.15"/><stop offset="100%" stop-color="#3b82f6" stop-opacity="0.01"/></linearGradient>
  </defs>
  <text x="800" y="11" text-anchor="end" font-size="11" fill="#6b7280" font-weight="600">Haas effect — 20ms delay creates phantom stereo</text>
  <line x1="34" y1="16" x2="34" y2="376" stroke="#d1d5db" stroke-width="1"/>
  <line x1="34" y1="376" x2="392" y2="376" stroke="#d1d5db" stroke-width="1"/>
  <line x1="34" y1="16" x2="34" y2="376" stroke="#e5e7eb" stroke-width="0.5"/>
  <text x="34" y="388" text-anchor="middle" font-size="8" fill="#6b7280">0ms</text>
  <line x1="188.2" y1="16" x2="188.2" y2="376" stroke="#e5e7eb" stroke-width="0.5"/>
  <text x="188.2" y="388" text-anchor="middle" font-size="8" fill="#6b7280">20ms</text>
  <line x1="342.4" y1="16" x2="342.4" y2="376" stroke="#e5e7eb" stroke-width="0.5"/>
  <text x="342.4" y="388" text-anchor="middle" font-size="8" fill="#6b7280">40ms</text>
  <line x1="34" y1="304" x2="392" y2="304" stroke="#e5e7eb" stroke-width="0.5"/>
  <text x="30" y="307" text-anchor="end" font-size="8" fill="#6b7280">0</text>
  <line x1="34" y1="184" x2="392" y2="184" stroke="#e5e7eb" stroke-width="0.5"/>
  <text x="30" y="187" text-anchor="end" font-size="8" fill="#6b7280">0.5</text>
  <line x1="34" y1="64" x2="392" y2="64" stroke="#e5e7eb" stroke-width="0.5"/>
  <text x="30" y="67" text-anchor="end" font-size="8" fill="#6b7280">1</text>
  <line x1="34" y1="304" x2="392" y2="304" stroke="#d1d5db" stroke-width="0.5"/>
  <text x="213" y="402" text-anchor="middle" font-size="9" fill="#6b7280">ms</text>
  <text x="213" y="11" text-anchor="middle" font-size="10" fill="#6b7280" font-weight="600">Left (dry)</text>
  <polygon clip-path="url(#u32)" points="34.0,304.0 34.5,64.0 35.5,304.0 36.5,304.0 37.5,304.0 38.5,304.0 39.5,304.0 40.5,304.0 41.5,304.0 42.5,304.0 43.5,304.0 44.5,304.0 45.5,304.0 46.5,304.0 47.5,304.0 48.5,304.0 49.5,304.0 50.5,304.0 51.5,304.0 52.5,304.0 53.5,304.0 54.5,304.0 55.5,304.0 56.5,304.0 57.5,304.0 58.5,304.0 59.5,304.0 60.5,304.0 61.5,304.0 62.5,304.0 63.5,304.0 64.5,304.0 65.5,304.0 66.5,304.0 67.5,304.0 68.5,304.0 69.5,304.0 70.5,304.0 71.5,304.0 72.5,304.0 73.5,304.0 74.5,304.0 75.5,304.0 76.5,304.0 77.5,304.0 78.5,304.0 79.5,304.0 80.5,304.0 81.5,304.0 82.5,304.0 83.5,304.0 84.5,304.0 85.5,304.0 86.5,304.0 87.5,304.0 88.5,304.0 89.5,304.0 90.5,304.0 91.5,304.0 92.5,304.0 93.5,304.0 94.5,304.0 95.5,304.0 96.5,304.0 97.5,304.0 98.5,304.0 99.5,304.0 100.5,304.0 101.5,304.0 102.5,304.0 103.5,304.0 104.5,304.0 105.5,304.0 106.5,304.0 107.5,304.0 108.5,304.0 109.5,304.0 110.5,304.0 111.5,304.0 112.5,304.0 113.5,304.0 114.5,304.0 115.5,304.0 116.5,304.0 117.5,304.0 118.5,304.0 119.5,304.0 120.5,304.0 121.5,304.0 122.5,304.0 123.5,304.0 124.5,304.0 125.5,304.0 126.5,304.0 127.5,304.0 128.5,304.0 129.5,304.0 130.5,304.0 131.5,304.0 132.5,304.0 133.5,304.0 134.5,304.0 135.5,304.0 136.5,304.0 137.5,304.0 138.5,304.0 139.5,304.0 140.5,304.0 141.5,304.0 142.5,304.0 143.5,304.0 144.5,304.0 145.5,304.0 146.5,304.0 147.5,304.0 148.5,304.0 149.5,304.0 150.5,304.0 151.5,304.0 152.5,304.0 153.5,304.0 154.5,304.0 155.5,304.0 156.5,304.0 157.5,304.0 158.5,304.0 159.5,304.0 160.5,304.0 161.5,304.0 162.5,304.0 163.5,304.0 164.5,304.0 165.5,304.0 166.5,304.0 167.5,304.0 168.5,304.0 169.5,304.0 170.5,304.0 171.5,304.0 172.5,304.0 173.5,304.0 174.5,304.0 175.5,304.0 176.5,304.0 177.5,304.0 178.5,304.0 179.5,304.0 180.5,304.0 181.5,304.0 182.5,304.0 183.5,304.0 184.5,304.0 185.5,304.0 186.5,304.0 187.5,304.0 188.5,304.0 189.5,304.0 190.5,304.0 191.5,304.0 192.5,304.0 193.5,304.0 194.5,304.0 195.5,304.0 196.5,304.0 197.5,304.0 198.5,304.0 199.5,304.0 200.5,304.0 201.5,304.0 202.5,304.0 203.5,304.0 204.5,304.0 205.5,304.0 206.5,304.0 207.5,304.0 208.5,304.0 209.5,304.0 210.5,304.0 211.5,304.0 212.5,304.0 213.5,304.0 214.5,304.0 215.5,304.0 216.5,304.0 217.5,304.0 218.5,304.0 219.5,304.0 220.5,304.0 221.5,304.0 222.5,304.0 223.5,304.0 224.5,304.0 225.5,304.0 226.5,304.0 227.5,304.0 228.5,304.0 229.5,304.0 230.5,304.0 231.5,304.0 232.5,304.0 233.5,304.0 234.5,304.0 235.5,304.0 236.5,304.0 237.5,304.0 238.5,304.0 239.5,304.0 240.5,304.0 241.5,304.0 242.5,304.0 243.5,304.0 244.5,304.0 245.5,304.0 246.5,304.0 247.5,304.0 248.5,304.0 249.5,304.0 250.5,304.0 251.5,304.0 252.5,304.0 253.5,304.0 254.5,304.0 255.5,304.0 256.5,304.0 257.5,304.0 258.5,304.0 259.5,304.0 260.5,304.0 261.5,304.0 262.5,304.0 263.5,304.0 264.5,304.0 265.5,304.0 266.5,304.0 267.5,304.0 268.5,304.0 269.5,304.0 270.5,304.0 271.5,304.0 272.5,304.0 273.5,304.0 274.5,304.0 275.5,304.0 276.5,304.0 277.5,304.0 278.5,304.0 279.5,304.0 280.5,304.0 281.5,304.0 282.5,304.0 283.5,304.0 284.5,304.0 285.5,304.0 286.5,304.0 287.5,304.0 288.5,304.0 289.5,304.0 290.5,304.0 291.5,304.0 292.5,304.0 293.5,304.0 294.5,304.0 295.5,304.0 296.5,304.0 297.5,304.0 298.5,304.0 299.5,304.0 300.5,304.0 301.5,304.0 302.5,304.0 303.5,304.0 304.5,304.0 305.5,304.0 306.5,304.0 307.5,304.0 308.5,304.0 309.5,304.0 310.5,304.0 311.5,304.0 312.5,304.0 313.5,304.0 314.5,304.0 315.5,304.0 316.5,304.0 317.5,304.0 318.5,304.0 319.5,304.0 320.5,304.0 321.5,304.0 322.5,304.0 323.5,304.0 324.5,304.0 325.5,304.0 326.5,304.0 327.5,304.0 328.5,304.0 329.5,304.0 330.5,304.0 331.5,304.0 332.5,304.0 333.5,304.0 334.5,304.0 335.5,304.0 336.5,304.0 337.5,304.0 338.5,304.0 339.5,304.0 340.5,304.0 341.5,304.0 342.5,304.0 343.5,304.0 344.5,304.0 345.5,304.0 346.5,304.0 347.5,304.0 348.5,304.0 349.5,304.0 350.5,304.0 351.5,304.0 352.5,304.0 353.5,304.0 354.5,304.0 355.5,304.0 356.5,304.0 357.5,304.0 358.5,304.0 359.5,304.0 360.5,304.0 361.5,304.0 362.5,304.0 363.5,304.0 364.5,304.0 365.5,304.0 366.5,304.0 367.5,304.0 368.5,304.0 369.5,304.0 370.5,304.0 371.5,304.0 372.5,304.0 373.5,304.0 374.5,304.0 375.5,304.0 376.5,304.0 377.5,304.0 378.5,304.0 379.5,304.0 380.5,304.0 381.5,304.0 382.5,304.0 383.5,304.0 384.5,304.0 385.5,304.0 386.5,304.0 387.5,304.0 388.5,304.0 389.5,304.0 390.5,304.0 391.5,304.0 392.0,304.0" fill="url(#u33)"/>
  <polyline clip-path="url(#u32)" points="34.5,304.0 34.5,64.0 35.5,304.0 35.5,304.0 36.5,304.0 36.5,304.0 37.5,304.0 37.5,304.0 38.5,304.0 38.5,304.0 39.5,304.0 39.5,304.0 40.5,304.0 40.5,304.0 41.5,304.0 41.5,304.0 42.5,304.0 42.5,304.0 43.5,304.0 43.5,304.0 44.5,304.0 44.5,304.0 45.5,304.0 45.5,304.0 46.5,304.0 46.5,304.0 47.5,304.0 47.5,304.0 48.5,304.0 48.5,304.0 49.5,304.0 49.5,304.0 50.5,304.0 50.5,304.0 51.5,304.0 51.5,304.0 52.5,304.0 52.5,304.0 53.5,304.0 53.5,304.0 54.5,304.0 54.5,304.0 55.5,304.0 55.5,304.0 56.5,304.0 56.5,304.0 57.5,304.0 57.5,304.0 58.5,304.0 58.5,304.0 59.5,304.0 59.5,304.0 60.5,304.0 60.5,304.0 61.5,304.0 61.5,304.0 62.5,304.0 62.5,304.0 63.5,304.0 63.5,304.0 64.5,304.0 64.5,304.0 65.5,304.0 65.5,304.0 66.5,304.0 66.5,304.0 67.5,304.0 67.5,304.0 68.5,304.0 68.5,304.0 69.5,304.0 69.5,304.0 70.5,304.0 70.5,304.0 71.5,304.0 71.5,304.0 72.5,304.0 72.5,304.0 73.5,304.0 73.5,304.0 74.5,304.0 74.5,304.0 75.5,304.0 75.5,304.0 76.5,304.0 76.5,304.0 77.5,304.0 77.5,304.0 78.5,304.0 78.5,304.0 79.5,304.0 79.5,304.0 80.5,304.0 80.5,304.0 81.5,304.0 81.5,304.0 82.5,304.0 82.5,304.0 83.5,304.0 83.5,304.0 84.5,304.0 84.5,304.0 85.5,304.0 85.5,304.0 86.5,304.0 86.5,304.0 87.5,304.0 87.5,304.0 88.5,304.0 88.5,304.0 89.5,304.0 89.5,304.0 90.5,304.0 90.5,304.0 91.5,304.0 91.5,304.0 92.5,304.0 92.5,304.0 93.5,304.0 93.5,304.0 94.5,304.0 94.5,304.0 95.5,304.0 95.5,304.0 96.5,304.0 96.5,304.0 97.5,304.0 97.5,304.0 98.5,304.0 98.5,304.0 99.5,304.0 99.5,304.0 100.5,304.0 100.5,304.0 101.5,304.0 101.5,304.0 102.5,304.0 102.5,304.0 103.5,304.0 103.5,304.0 104.5,304.0 104.5,304.0 105.5,304.0 105.5,304.0 106.5,304.0 106.5,304.0 107.5,304.0 107.5,304.0 108.5,304.0 108.5,304.0 109.5,304.0 109.5,304.0 110.5,304.0 110.5,304.0 111.5,304.0 111.5,304.0 112.5,304.0 112.5,304.0 113.5,304.0 113.5,304.0 114.5,304.0 114.5,304.0 115.5,304.0 115.5,304.0 116.5,304.0 116.5,304.0 117.5,304.0 117.5,304.0 118.5,304.0 118.5,304.0 119.5,304.0 119.5,304.0 120.5,304.0 120.5,304.0 121.5,304.0 121.5,304.0 122.5,304.0 122.5,304.0 123.5,304.0 123.5,304.0 124.5,304.0 124.5,304.0 125.5,304.0 125.5,304.0 126.5,304.0 126.5,304.0 127.5,304.0 127.5,304.0 128.5,304.0 128.5,304.0 129.5,304.0 129.5,304.0 130.5,304.0 130.5,304.0 131.5,304.0 131.5,304.0 132.5,304.0 132.5,304.0 133.5,304.0 133.5,304.0 134.5,304.0 134.5,304.0 135.5,304.0 135.5,304.0 136.5,304.0 136.5,304.0 137.5,304.0 137.5,304.0 138.5,304.0 138.5,304.0 139.5,304.0 139.5,304.0 140.5,304.0 140.5,304.0 141.5,304.0 141.5,304.0 142.5,304.0 142.5,304.0 143.5,304.0 143.5,304.0 144.5,304.0 144.5,304.0 145.5,304.0 145.5,304.0 146.5,304.0 146.5,304.0 147.5,304.0 147.5,304.0 148.5,304.0 148.5,304.0 149.5,304.0 149.5,304.0 150.5,304.0 150.5,304.0 151.5,304.0 151.5,304.0 152.5,304.0 152.5,304.0 153.5,304.0 153.5,304.0 154.5,304.0 154.5,304.0 155.5,304.0 155.5,304.0 156.5,304.0 156.5,304.0 157.5,304.0 157.5,304.0 158.5,304.0 158.5,304.0 159.5,304.0 159.5,304.0 160.5,304.0 160.5,304.0 161.5,304.0 161.5,304.0 162.5,304.0 162.5,304.0 163.5,304.0 163.5,304.0 164.5,304.0 164.5,304.0 165.5,304.0 165.5,304.0 166.5,304.0 166.5,304.0 167.5,304.0 167.5,304.0 168.5,304.0 168.5,304.0 169.5,304.0 169.5,304.0 170.5,304.0 170.5,304.0 171.5,304.0 171.5,304.0 172.5,304.0 172.5,304.0 173.5,304.0 173.5,304.0 174.5,304.0 174.5,304.0 175.5,304.0 175.5,304.0 176.5,304.0 176.5,304.0 177.5,304.0 177.5,304.0 178.5,304.0 178.5,304.0 179.5,304.0 179.5,304.0 180.5,304.0 180.5,304.0 181.5,304.0 181.5,304.0 182.5,304.0 182.5,304.0 183.5,304.0 183.5,304.0 184.5,304.0 184.5,304.0 185.5,304.0 185.5,304.0 186.5,304.0 186.5,304.0 187.5,304.0 187.5,304.0 188.5,304.0 188.5,304.0 189.5,304.0 189.5,304.0 190.5,304.0 190.5,304.0 191.5,304.0 191.5,304.0 192.5,304.0 192.5,304.0 193.5,304.0 193.5,304.0 194.5,304.0 194.5,304.0 195.5,304.0 195.5,304.0 196.5,304.0 196.5,304.0 197.5,304.0 197.5,304.0 198.5,304.0 198.5,304.0 199.5,304.0 199.5,304.0 200.5,304.0 200.5,304.0 201.5,304.0 201.5,304.0 202.5,304.0 202.5,304.0 203.5,304.0 203.5,304.0 204.5,304.0 204.5,304.0 205.5,304.0 205.5,304.0 206.5,304.0 206.5,304.0 207.5,304.0 207.5,304.0 208.5,304.0 208.5,304.0 209.5,304.0 209.5,304.0 210.5,304.0 210.5,304.0 211.5,304.0 211.5,304.0 212.5,304.0 212.5,304.0 213.5,304.0 213.5,304.0 214.5,304.0 214.5,304.0 215.5,304.0 215.5,304.0 216.5,304.0 216.5,304.0 217.5,304.0 217.5,304.0 218.5,304.0 218.5,304.0 219.5,304.0 219.5,304.0 220.5,304.0 220.5,304.0 221.5,304.0 221.5,304.0 222.5,304.0 222.5,304.0 223.5,304.0 223.5,304.0 224.5,304.0 224.5,304.0 225.5,304.0 225.5,304.0 226.5,304.0 226.5,304.0 227.5,304.0 227.5,304.0 228.5,304.0 228.5,304.0 229.5,304.0 229.5,304.0 230.5,304.0 230.5,304.0 231.5,304.0 231.5,304.0 232.5,304.0 232.5,304.0 233.5,304.0 233.5,304.0 234.5,304.0 234.5,304.0 235.5,304.0 235.5,304.0 236.5,304.0 236.5,304.0 237.5,304.0 237.5,304.0 238.5,304.0 238.5,304.0 239.5,304.0 239.5,304.0 240.5,304.0 240.5,304.0 241.5,304.0 241.5,304.0 242.5,304.0 242.5,304.0 243.5,304.0 243.5,304.0 244.5,304.0 244.5,304.0 245.5,304.0 245.5,304.0 246.5,304.0 246.5,304.0 247.5,304.0 247.5,304.0 248.5,304.0 248.5,304.0 249.5,304.0 249.5,304.0 250.5,304.0 250.5,304.0 251.5,304.0 251.5,304.0 252.5,304.0 252.5,304.0 253.5,304.0 253.5,304.0 254.5,304.0 254.5,304.0 255.5,304.0 255.5,304.0 256.5,304.0 256.5,304.0 257.5,304.0 257.5,304.0 258.5,304.0 258.5,304.0 259.5,304.0 259.5,304.0 260.5,304.0 260.5,304.0 261.5,304.0 261.5,304.0 262.5,304.0 262.5,304.0 263.5,304.0 263.5,304.0 264.5,304.0 264.5,304.0 265.5,304.0 265.5,304.0 266.5,304.0 266.5,304.0 267.5,304.0 267.5,304.0 268.5,304.0 268.5,304.0 269.5,304.0 269.5,304.0 270.5,304.0 270.5,304.0 271.5,304.0 271.5,304.0 272.5,304.0 272.5,304.0 273.5,304.0 273.5,304.0 274.5,304.0 274.5,304.0 275.5,304.0 275.5,304.0 276.5,304.0 276.5,304.0 277.5,304.0 277.5,304.0 278.5,304.0 278.5,304.0 279.5,304.0 279.5,304.0 280.5,304.0 280.5,304.0 281.5,304.0 281.5,304.0 282.5,304.0 282.5,304.0 283.5,304.0 283.5,304.0 284.5,304.0 284.5,304.0 285.5,304.0 285.5,304.0 286.5,304.0 286.5,304.0 287.5,304.0 287.5,304.0 288.5,304.0 288.5,304.0 289.5,304.0 289.5,304.0 290.5,304.0 290.5,304.0 291.5,304.0 291.5,304.0 292.5,304.0 292.5,304.0 293.5,304.0 293.5,304.0 294.5,304.0 294.5,304.0 295.5,304.0 295.5,304.0 296.5,304.0 296.5,304.0 297.5,304.0 297.5,304.0 298.5,304.0 298.5,304.0 299.5,304.0 299.5,304.0 300.5,304.0 300.5,304.0 301.5,304.0 301.5,304.0 302.5,304.0 302.5,304.0 303.5,304.0 303.5,304.0 304.5,304.0 304.5,304.0 305.5,304.0 305.5,304.0 306.5,304.0 306.5,304.0 307.5,304.0 307.5,304.0 308.5,304.0 308.5,304.0 309.5,304.0 309.5,304.0 310.5,304.0 310.5,304.0 311.5,304.0 311.5,304.0 312.5,304.0 312.5,304.0 313.5,304.0 313.5,304.0 314.5,304.0 314.5,304.0 315.5,304.0 315.5,304.0 316.5,304.0 316.5,304.0 317.5,304.0 317.5,304.0 318.5,304.0 318.5,304.0 319.5,304.0 319.5,304.0 320.5,304.0 320.5,304.0 321.5,304.0 321.5,304.0 322.5,304.0 322.5,304.0 323.5,304.0 323.5,304.0 324.5,304.0 324.5,304.0 325.5,304.0 325.5,304.0 326.5,304.0 326.5,304.0 327.5,304.0 327.5,304.0 328.5,304.0 328.5,304.0 329.5,304.0 329.5,304.0 330.5,304.0 330.5,304.0 331.5,304.0 331.5,304.0 332.5,304.0 332.5,304.0 333.5,304.0 333.5,304.0 334.5,304.0 334.5,304.0 335.5,304.0 335.5,304.0 336.5,304.0 336.5,304.0 337.5,304.0 337.5,304.0 338.5,304.0 338.5,304.0 339.5,304.0 339.5,304.0 340.5,304.0 340.5,304.0 341.5,304.0 341.5,304.0 342.5,304.0 342.5,304.0 343.5,304.0 343.5,304.0 344.5,304.0 344.5,304.0 345.5,304.0 345.5,304.0 346.5,304.0 346.5,304.0 347.5,304.0 347.5,304.0 348.5,304.0 348.5,304.0 349.5,304.0 349.5,304.0 350.5,304.0 350.5,304.0 351.5,304.0 351.5,304.0 352.5,304.0 352.5,304.0 353.5,304.0 353.5,304.0 354.5,304.0 354.5,304.0 355.5,304.0 355.5,304.0 356.5,304.0 356.5,304.0 357.5,304.0 357.5,304.0 358.5,304.0 358.5,304.0 359.5,304.0 359.5,304.0 360.5,304.0 360.5,304.0 361.5,304.0 361.5,304.0 362.5,304.0 362.5,304.0 363.5,304.0 363.5,304.0 364.5,304.0 364.5,304.0 365.5,304.0 365.5,304.0 366.5,304.0 366.5,304.0 367.5,304.0 367.5,304.0 368.5,304.0 368.5,304.0 369.5,304.0 369.5,304.0 370.5,304.0 370.5,304.0 371.5,304.0 371.5,304.0 372.5,304.0 372.5,304.0 373.5,304.0 373.5,304.0 374.5,304.0 374.5,304.0 375.5,304.0 375.5,304.0 376.5,304.0 376.5,304.0 377.5,304.0 377.5,304.0 378.5,304.0 378.5,304.0 379.5,304.0 379.5,304.0 380.5,304.0 380.5,304.0 381.5,304.0 381.5,304.0 382.5,304.0 382.5,304.0 383.5,304.0 383.5,304.0 384.5,304.0 384.5,304.0 385.5,304.0 385.5,304.0 386.5,304.0 386.5,304.0 387.5,304.0 387.5,304.0 388.5,304.0 388.5,304.0 389.5,304.0 389.5,304.0 390.5,304.0 390.5,304.0 391.5,304.0 391.5,304.0" fill="none" stroke="#3b82f6" stroke-width="1.5" stroke-linejoin="round"/>
  <line x1="442" y1="16" x2="442" y2="376" stroke="#d1d5db" stroke-width="1"/>
  <line x1="442" y1="376" x2="800" y2="376" stroke="#d1d5db" stroke-width="1"/>
  <line x1="442" y1="16" x2="442" y2="376" stroke="#e5e7eb" stroke-width="0.5"/>
  <text x="442" y="388" text-anchor="middle" font-size="8" fill="#6b7280">0ms</text>
  <line x1="596.2" y1="16" x2="596.2" y2="376" stroke="#e5e7eb" stroke-width="0.5"/>
  <text x="596.2" y="388" text-anchor="middle" font-size="8" fill="#6b7280">20ms</text>
  <line x1="750.4" y1="16" x2="750.4" y2="376" stroke="#e5e7eb" stroke-width="0.5"/>
  <text x="750.4" y="388" text-anchor="middle" font-size="8" fill="#6b7280">40ms</text>
  <line x1="442" y1="304" x2="800" y2="304" stroke="#e5e7eb" stroke-width="0.5"/>
  <text x="438" y="307" text-anchor="end" font-size="8" fill="#6b7280">0</text>
  <line x1="442" y1="184" x2="800" y2="184" stroke="#e5e7eb" stroke-width="0.5"/>
  <text x="438" y="187" text-anchor="end" font-size="8" fill="#6b7280">0.5</text>
  <line x1="442" y1="64" x2="800" y2="64" stroke="#e5e7eb" stroke-width="0.5"/>
  <text x="438" y="67" text-anchor="end" font-size="8" fill="#6b7280">1</text>
  <line x1="442" y1="304" x2="800" y2="304" stroke="#d1d5db" stroke-width="0.5"/>
  <text x="621" y="402" text-anchor="middle" font-size="9" fill="#6b7280">ms</text>
  <text x="621" y="11" text-anchor="middle" font-size="10" fill="#6b7280" font-weight="600">Right (delayed 20ms)</text>
  <polygon clip-path="url(#u34)" points="442.0,304.0 442.5,304.0 443.5,304.0 444.5,304.0 445.5,304.0 446.5,304.0 447.5,304.0 448.5,304.0 449.5,304.0 450.5,304.0 451.5,304.0 452.5,304.0 453.5,304.0 454.5,304.0 455.5,304.0 456.5,304.0 457.5,304.0 458.5,304.0 459.5,304.0 460.5,304.0 461.5,304.0 462.5,304.0 463.5,304.0 464.5,304.0 465.5,304.0 466.5,304.0 467.5,304.0 468.5,304.0 469.5,304.0 470.5,304.0 471.5,304.0 472.5,304.0 473.5,304.0 474.5,304.0 475.5,304.0 476.5,304.0 477.5,304.0 478.5,304.0 479.5,304.0 480.5,304.0 481.5,304.0 482.5,304.0 483.5,304.0 484.5,304.0 485.5,304.0 486.5,304.0 487.5,304.0 488.5,304.0 489.5,304.0 490.5,304.0 491.5,304.0 492.5,304.0 493.5,304.0 494.5,304.0 495.5,304.0 496.5,304.0 497.5,304.0 498.5,304.0 499.5,304.0 500.5,304.0 501.5,304.0 502.5,304.0 503.5,304.0 504.5,304.0 505.5,304.0 506.5,304.0 507.5,304.0 508.5,304.0 509.5,304.0 510.5,304.0 511.5,304.0 512.5,304.0 513.5,304.0 514.5,304.0 515.5,304.0 516.5,304.0 517.5,304.0 518.5,304.0 519.5,304.0 520.5,304.0 521.5,304.0 522.5,304.0 523.5,304.0 524.5,304.0 525.5,304.0 526.5,304.0 527.5,304.0 528.5,304.0 529.5,304.0 530.5,304.0 531.5,304.0 532.5,304.0 533.5,304.0 534.5,304.0 535.5,304.0 536.5,304.0 537.5,304.0 538.5,304.0 539.5,304.0 540.5,304.0 541.5,304.0 542.5,304.0 543.5,304.0 544.5,304.0 545.5,304.0 546.5,304.0 547.5,304.0 548.5,304.0 549.5,304.0 550.5,304.0 551.5,304.0 552.5,304.0 553.5,304.0 554.5,304.0 555.5,304.0 556.5,304.0 557.5,304.0 558.5,304.0 559.5,304.0 560.5,304.0 561.5,304.0 562.5,304.0 563.5,304.0 564.5,304.0 565.5,304.0 566.5,304.0 567.5,304.0 568.5,304.0 569.5,304.0 570.5,304.0 571.5,304.0 572.5,304.0 573.5,304.0 574.5,304.0 575.5,304.0 576.5,304.0 577.5,304.0 578.5,304.0 579.5,304.0 580.5,304.0 581.5,304.0 582.5,304.0 583.5,304.0 584.5,304.0 585.5,304.0 586.5,304.0 587.5,304.0 588.5,304.0 589.5,304.0 590.5,304.0 591.5,304.0 592.5,304.0 593.5,304.0 594.5,304.0 595.5,304.0 596.5,304.0 597.5,304.0 598.5,304.0 599.5,304.0 600.5,304.0 601.5,304.0 602.5,304.0 603.5,304.0 604.5,304.0 605.5,304.0 606.5,304.0 607.5,304.0 608.5,304.0 609.5,304.0 610.5,304.0 611.5,304.0 612.5,304.0 613.5,304.0 614.5,304.0 615.5,304.0 616.5,304.0 617.5,304.0 618.5,304.0 619.5,304.0 620.5,304.0 621.5,304.0 622.5,304.0 623.5,304.0 624.5,304.0 625.5,304.0 626.5,304.0 627.5,304.0 628.5,304.0 629.5,304.0 630.5,304.0 631.5,304.0 632.5,304.0 633.5,304.0 634.5,304.0 635.5,304.0 636.5,304.0 637.5,304.0 638.5,304.0 639.5,304.0 640.5,304.0 641.5,304.0 642.5,304.0 643.5,304.0 644.5,304.0 645.5,304.0 646.5,304.0 647.5,304.0 648.5,304.0 649.5,304.0 650.5,304.0 651.5,304.0 652.5,304.0 653.5,304.0 654.5,304.0 655.5,304.0 656.5,304.0 657.5,304.0 658.5,304.0 659.5,304.0 660.5,304.0 661.5,304.0 662.5,304.0 663.5,304.0 664.5,304.0 665.5,304.0 666.5,304.0 667.5,304.0 668.5,304.0 669.5,304.0 670.5,304.0 671.5,304.0 672.5,304.0 673.5,304.0 674.5,304.0 675.5,304.0 676.5,304.0 677.5,304.0 678.5,304.0 679.5,304.0 680.5,304.0 681.5,304.0 682.5,304.0 683.5,304.0 684.5,304.0 685.5,304.0 686.5,304.0 687.5,304.0 688.5,304.0 689.5,304.0 690.5,304.0 691.5,304.0 692.5,304.0 693.5,304.0 694.5,304.0 695.5,304.0 696.5,304.0 697.5,304.0 698.5,304.0 699.5,304.0 700.5,304.0 701.5,304.0 702.5,304.0 703.5,304.0 704.5,304.0 705.5,304.0 706.5,304.0 707.5,304.0 708.5,304.0 709.5,304.0 710.5,304.0 711.5,304.0 712.5,304.0 713.5,304.0 714.5,304.0 715.5,304.0 716.5,304.0 717.5,304.0 718.5,304.0 719.5,304.0 720.5,304.0 721.5,304.0 722.5,304.0 723.5,304.0 724.5,304.0 725.5,304.0 726.5,304.0 727.5,304.0 728.5,304.0 729.5,304.0 730.5,304.0 731.5,304.0 732.5,304.0 733.5,304.0 734.5,304.0 735.5,304.0 736.5,304.0 737.5,304.0 738.5,304.0 739.5,304.0 740.5,304.0 741.5,304.0 742.5,304.0 743.5,304.0 744.5,304.0 745.5,304.0 746.5,304.0 747.5,304.0 748.5,304.0 749.5,304.0 750.5,304.0 751.5,304.0 752.5,304.0 753.5,304.0 754.5,304.0 755.5,304.0 756.5,304.0 757.5,304.0 758.5,304.0 759.5,304.0 760.5,304.0 761.5,304.0 762.5,304.0 763.5,304.0 764.5,304.0 765.5,304.0 766.5,304.0 767.5,304.0 768.5,304.0 769.5,304.0 770.5,304.0 771.5,304.0 772.5,304.0 773.5,304.0 774.5,304.0 775.5,304.0 776.5,304.0 777.5,304.0 778.5,304.0 779.5,304.0 780.5,304.0 781.5,304.0 782.5,304.0 783.5,304.0 784.5,304.0 785.5,304.0 786.5,304.0 787.5,304.0 788.5,304.0 789.5,304.0 790.5,304.0 791.5,304.0 792.5,304.0 793.5,304.0 794.5,304.0 795.5,304.0 796.5,304.0 797.5,304.0 798.5,304.0 799.5,304.0 800.0,304.0" fill="url(#u35)"/>
  <polyline clip-path="url(#u34)" points="442.5,304.0 442.5,304.0 443.5,304.0 443.5,304.0 444.5,304.0 444.5,304.0 445.5,304.0 445.5,304.0 446.5,304.0 446.5,304.0 447.5,304.0 447.5,304.0 448.5,304.0 448.5,304.0 449.5,304.0 449.5,304.0 450.5,304.0 450.5,304.0 451.5,304.0 451.5,304.0 452.5,304.0 452.5,304.0 453.5,304.0 453.5,304.0 454.5,304.0 454.5,304.0 455.5,304.0 455.5,304.0 456.5,304.0 456.5,304.0 457.5,304.0 457.5,304.0 458.5,304.0 458.5,304.0 459.5,304.0 459.5,304.0 460.5,304.0 460.5,304.0 461.5,304.0 461.5,304.0 462.5,304.0 462.5,304.0 463.5,304.0 463.5,304.0 464.5,304.0 464.5,304.0 465.5,304.0 465.5,304.0 466.5,304.0 466.5,304.0 467.5,304.0 467.5,304.0 468.5,304.0 468.5,304.0 469.5,304.0 469.5,304.0 470.5,304.0 470.5,304.0 471.5,304.0 471.5,304.0 472.5,304.0 472.5,304.0 473.5,304.0 473.5,304.0 474.5,304.0 474.5,304.0 475.5,304.0 475.5,304.0 476.5,304.0 476.5,304.0 477.5,304.0 477.5,304.0 478.5,304.0 478.5,304.0 479.5,304.0 479.5,304.0 480.5,304.0 480.5,304.0 481.5,304.0 481.5,304.0 482.5,304.0 482.5,304.0 483.5,304.0 483.5,304.0 484.5,304.0 484.5,304.0 485.5,304.0 485.5,304.0 486.5,304.0 486.5,304.0 487.5,304.0 487.5,304.0 488.5,304.0 488.5,304.0 489.5,304.0 489.5,304.0 490.5,304.0 490.5,304.0 491.5,304.0 491.5,304.0 492.5,304.0 492.5,304.0 493.5,304.0 493.5,304.0 494.5,304.0 494.5,304.0 495.5,304.0 495.5,304.0 496.5,304.0 496.5,304.0 497.5,304.0 497.5,304.0 498.5,304.0 498.5,304.0 499.5,304.0 499.5,304.0 500.5,304.0 500.5,304.0 501.5,304.0 501.5,304.0 502.5,304.0 502.5,304.0 503.5,304.0 503.5,304.0 504.5,304.0 504.5,304.0 505.5,304.0 505.5,304.0 506.5,304.0 506.5,304.0 507.5,304.0 507.5,304.0 508.5,304.0 508.5,304.0 509.5,304.0 509.5,304.0 510.5,304.0 510.5,304.0 511.5,304.0 511.5,304.0 512.5,304.0 512.5,304.0 513.5,304.0 513.5,304.0 514.5,304.0 514.5,304.0 515.5,304.0 515.5,304.0 516.5,304.0 516.5,304.0 517.5,304.0 517.5,304.0 518.5,304.0 518.5,304.0 519.5,304.0 519.5,304.0 520.5,304.0 520.5,304.0 521.5,304.0 521.5,304.0 522.5,304.0 522.5,304.0 523.5,304.0 523.5,304.0 524.5,304.0 524.5,304.0 525.5,304.0 525.5,304.0 526.5,304.0 526.5,304.0 527.5,304.0 527.5,304.0 528.5,304.0 528.5,304.0 529.5,304.0 529.5,304.0 530.5,304.0 530.5,304.0 531.5,304.0 531.5,304.0 532.5,304.0 532.5,304.0 533.5,304.0 533.5,304.0 534.5,304.0 534.5,304.0 535.5,304.0 535.5,304.0 536.5,304.0 536.5,304.0 537.5,304.0 537.5,304.0 538.5,304.0 538.5,304.0 539.5,304.0 539.5,304.0 540.5,304.0 540.5,304.0 541.5,304.0 541.5,304.0 542.5,304.0 542.5,304.0 543.5,304.0 543.5,304.0 544.5,304.0 544.5,304.0 545.5,304.0 545.5,304.0 546.5,304.0 546.5,304.0 547.5,304.0 547.5,304.0 548.5,304.0 548.5,304.0 549.5,304.0 549.5,304.0 550.5,304.0 550.5,304.0 551.5,304.0 551.5,304.0 552.5,304.0 552.5,304.0 553.5,304.0 553.5,304.0 554.5,304.0 554.5,304.0 555.5,304.0 555.5,304.0 556.5,304.0 556.5,304.0 557.5,304.0 557.5,304.0 558.5,304.0 558.5,304.0 559.5,304.0 559.5,304.0 560.5,304.0 560.5,304.0 561.5,304.0 561.5,304.0 562.5,304.0 562.5,304.0 563.5,304.0 563.5,304.0 564.5,304.0 564.5,304.0 565.5,304.0 565.5,304.0 566.5,304.0 566.5,304.0 567.5,304.0 567.5,304.0 568.5,304.0 568.5,304.0 569.5,304.0 569.5,304.0 570.5,304.0 570.5,304.0 571.5,304.0 571.5,304.0 572.5,304.0 572.5,304.0 573.5,304.0 573.5,304.0 574.5,304.0 574.5,304.0 575.5,304.0 575.5,304.0 576.5,304.0 576.5,304.0 577.5,304.0 577.5,304.0 578.5,304.0 578.5,304.0 579.5,304.0 579.5,304.0 580.5,304.0 580.5,304.0 581.5,304.0 581.5,304.0 582.5,304.0 582.5,304.0 583.5,304.0 583.5,304.0 584.5,304.0 584.5,304.0 585.5,304.0 585.5,304.0 586.5,304.0 586.5,304.0 587.5,304.0 587.5,304.0 588.5,304.0 588.5,304.0 589.5,304.0 589.5,304.0 590.5,304.0 590.5,304.0 591.5,304.0 591.5,304.0 592.5,304.0 592.5,304.0 593.5,304.0 593.5,304.0 594.5,304.0 594.5,304.0 595.5,304.0 595.5,304.0 596.5,304.0 596.5,304.0 597.5,304.0 597.5,304.0 598.5,304.0 598.5,304.0 599.5,304.0 599.5,304.0 600.5,304.0 600.5,304.0 601.5,304.0 601.5,304.0 602.5,304.0 602.5,304.0 603.5,304.0 603.5,304.0 604.5,304.0 604.5,304.0 605.5,304.0 605.5,304.0 606.5,304.0 606.5,304.0 607.5,304.0 607.5,304.0 608.5,304.0 608.5,304.0 609.5,304.0 609.5,304.0 610.5,304.0 610.5,304.0 611.5,304.0 611.5,304.0 612.5,304.0 612.5,304.0 613.5,304.0 613.5,304.0 614.5,304.0 614.5,304.0 615.5,304.0 615.5,304.0 616.5,304.0 616.5,304.0 617.5,304.0 617.5,304.0 618.5,304.0 618.5,304.0 619.5,304.0 619.5,304.0 620.5,304.0 620.5,304.0 621.5,304.0 621.5,304.0 622.5,304.0 622.5,304.0 623.5,304.0 623.5,304.0 624.5,304.0 624.5,304.0 625.5,304.0 625.5,304.0 626.5,304.0 626.5,304.0 627.5,304.0 627.5,304.0 628.5,304.0 628.5,304.0 629.5,304.0 629.5,304.0 630.5,304.0 630.5,304.0 631.5,304.0 631.5,304.0 632.5,304.0 632.5,304.0 633.5,304.0 633.5,304.0 634.5,304.0 634.5,304.0 635.5,304.0 635.5,304.0 636.5,304.0 636.5,304.0 637.5,304.0 637.5,304.0 638.5,304.0 638.5,304.0 639.5,304.0 639.5,304.0 640.5,304.0 640.5,304.0 641.5,304.0 641.5,304.0 642.5,304.0 642.5,304.0 643.5,304.0 643.5,304.0 644.5,304.0 644.5,304.0 645.5,304.0 645.5,304.0 646.5,304.0 646.5,304.0 647.5,304.0 647.5,304.0 648.5,304.0 648.5,304.0 649.5,304.0 649.5,304.0 650.5,304.0 650.5,304.0 651.5,304.0 651.5,304.0 652.5,304.0 652.5,304.0 653.5,304.0 653.5,304.0 654.5,304.0 654.5,304.0 655.5,304.0 655.5,304.0 656.5,304.0 656.5,304.0 657.5,304.0 657.5,304.0 658.5,304.0 658.5,304.0 659.5,304.0 659.5,304.0 660.5,304.0 660.5,304.0 661.5,304.0 661.5,304.0 662.5,304.0 662.5,304.0 663.5,304.0 663.5,304.0 664.5,304.0 664.5,304.0 665.5,304.0 665.5,304.0 666.5,304.0 666.5,304.0 667.5,304.0 667.5,304.0 668.5,304.0 668.5,304.0 669.5,304.0 669.5,304.0 670.5,304.0 670.5,304.0 671.5,304.0 671.5,304.0 672.5,304.0 672.5,304.0 673.5,304.0 673.5,304.0 674.5,304.0 674.5,304.0 675.5,304.0 675.5,304.0 676.5,304.0 676.5,304.0 677.5,304.0 677.5,304.0 678.5,304.0 678.5,304.0 679.5,304.0 679.5,304.0 680.5,304.0 680.5,304.0 681.5,304.0 681.5,304.0 682.5,304.0 682.5,304.0 683.5,304.0 683.5,304.0 684.5,304.0 684.5,304.0 685.5,304.0 685.5,304.0 686.5,304.0 686.5,304.0 687.5,304.0 687.5,304.0 688.5,304.0 688.5,304.0 689.5,304.0 689.5,304.0 690.5,304.0 690.5,304.0 691.5,304.0 691.5,304.0 692.5,304.0 692.5,304.0 693.5,304.0 693.5,304.0 694.5,304.0 694.5,304.0 695.5,304.0 695.5,304.0 696.5,304.0 696.5,304.0 697.5,304.0 697.5,304.0 698.5,304.0 698.5,304.0 699.5,304.0 699.5,304.0 700.5,304.0 700.5,304.0 701.5,304.0 701.5,304.0 702.5,304.0 702.5,304.0 703.5,304.0 703.5,304.0 704.5,304.0 704.5,304.0 705.5,304.0 705.5,304.0 706.5,304.0 706.5,304.0 707.5,304.0 707.5,304.0 708.5,304.0 708.5,304.0 709.5,304.0 709.5,304.0 710.5,304.0 710.5,304.0 711.5,304.0 711.5,304.0 712.5,304.0 712.5,304.0 713.5,304.0 713.5,304.0 714.5,304.0 714.5,304.0 715.5,304.0 715.5,304.0 716.5,304.0 716.5,304.0 717.5,304.0 717.5,304.0 718.5,304.0 718.5,304.0 719.5,304.0 719.5,304.0 720.5,304.0 720.5,304.0 721.5,304.0 721.5,304.0 722.5,304.0 722.5,304.0 723.5,304.0 723.5,304.0 724.5,304.0 724.5,304.0 725.5,304.0 725.5,304.0 726.5,304.0 726.5,304.0 727.5,304.0 727.5,304.0 728.5,304.0 728.5,304.0 729.5,304.0 729.5,304.0 730.5,304.0 730.5,304.0 731.5,304.0 731.5,304.0 732.5,304.0 732.5,304.0 733.5,304.0 733.5,304.0 734.5,304.0 734.5,304.0 735.5,304.0 735.5,304.0 736.5,304.0 736.5,304.0 737.5,304.0 737.5,304.0 738.5,304.0 738.5,304.0 739.5,304.0 739.5,304.0 740.5,304.0 740.5,304.0 741.5,304.0 741.5,304.0 742.5,304.0 742.5,304.0 743.5,304.0 743.5,304.0 744.5,304.0 744.5,304.0 745.5,304.0 745.5,304.0 746.5,304.0 746.5,304.0 747.5,304.0 747.5,304.0 748.5,304.0 748.5,304.0 749.5,304.0 749.5,304.0 750.5,304.0 750.5,304.0 751.5,304.0 751.5,304.0 752.5,304.0 752.5,304.0 753.5,304.0 753.5,304.0 754.5,304.0 754.5,304.0 755.5,304.0 755.5,304.0 756.5,304.0 756.5,304.0 757.5,304.0 757.5,304.0 758.5,304.0 758.5,304.0 759.5,304.0 759.5,304.0 760.5,304.0 760.5,304.0 761.5,304.0 761.5,304.0 762.5,304.0 762.5,304.0 763.5,304.0 763.5,304.0 764.5,304.0 764.5,304.0 765.5,304.0 765.5,304.0 766.5,304.0 766.5,304.0 767.5,304.0 767.5,304.0 768.5,304.0 768.5,304.0 769.5,304.0 769.5,304.0 770.5,304.0 770.5,304.0 771.5,304.0 771.5,304.0 772.5,304.0 772.5,304.0 773.5,304.0 773.5,304.0 774.5,304.0 774.5,304.0 775.5,304.0 775.5,304.0 776.5,304.0 776.5,304.0 777.5,304.0 777.5,304.0 778.5,304.0 778.5,304.0 779.5,304.0 779.5,304.0 780.5,304.0 780.5,304.0 781.5,304.0 781.5,304.0 782.5,304.0 782.5,304.0 783.5,304.0 783.5,304.0 784.5,304.0 784.5,304.0 785.5,304.0 785.5,304.0 786.5,304.0 786.5,304.0 787.5,304.0 787.5,304.0 788.5,304.0 788.5,304.0 789.5,304.0 789.5,304.0 790.5,304.0 790.5,304.0 791.5,304.0 791.5,304.0 792.5,304.0 792.5,304.0 793.5,304.0 793.5,304.0 794.5,304.0 794.5,304.0 795.5,304.0 795.5,304.0 796.5,304.0 796.5,304.0 797.5,304.0 797.5,304.0 798.5,304.0 798.5,304.0 799.5,304.0 799.5,304.0" fill="none" stroke="#3b82f6" stroke-width="1.5" stroke-linejoin="round"/>
</svg>
