<svg xmlns="http://www.w3.org/2000/svg" viewBox="0 0 820 392" style="font-family:system-ui,-apple-system,sans-serif">
  <defs>
    <clipPath id="u10"><rect x="34" y="16" width="358" height="360"/></clipPath>

    <clipPath id="u11"><rect x="442" y="16" width="358" height="360"/></clipPath>
  </defs>
  <text x="800" y="11" text-anchor="end" font-size="11" fill="#6b7280" font-weight="600">Limiter — threshold=0.5 (−6dB)</text>
  <line x1="34" y1="16" x2="34" y2="376" stroke="#d1d5db" stroke-width="1"/>
  <line x1="34" y1="376" x2="392" y2="376" stroke="#d1d5db" stroke-width="1"/>
  <line x1="34" y1="376" x2="392" y2="376" stroke="#e5e7eb" stroke-width="0.5"/>
  <text x="30" y="379" text-anchor="end" font-size="8" fill="#6b7280">-60</text>
  <line x1="34" y1="316" x2="392" y2="316" stroke="#e5e7eb" stroke-width="0.5"/>
  <text x="30" y="319" text-anchor="end" font-size="8" fill="#6b7280">-50</text>
  <line x1="34" y1="256" x2="392" y2="256" stroke="#e5e7eb" stroke-width="0.5"/>
  <text x="30" y="259" text-anchor="end" font-size="8" fill="#6b7280">-40</text>
  <line x1="34" y1="196" x2="392" y2="196" stroke="#e5e7eb" stroke-width="0.5"/>
  <text x="30" y="199" text-anchor="end" font-size="8" fill="#6b7280">-30</text>
  <line x1="34" y1="136" x2="392" y2="136" stroke="#e5e7eb" stroke-width="0.5"/>
  <text x="30" y="139" text-anchor="end" font-size="8" fill="#6b7280">-20</text>
  <line x1="34" y1="76" x2="392" y2="76" stroke="#e5e7eb" stroke-width="0.5"/>
  <text x="30" y="79" text-anchor="end" font-size="8" fill="#6b7280">-10</text>
  <line x1="34" y1="16" x2="392" y2="16" stroke="#e5e7eb" stroke-width="0.5"/>
  <text x="30" y="19" text-anchor="end" font-size="8" fill="#6b7280">0</text>
  <line x1="34" y1="16" x2="34" y2="376" stroke="#e5e7eb" stroke-width="0.5"/>
  <text x="34" y="388" text-anchor="middle" font-size="8" fill="#6b7280">-60</text>
  <line x1="93.7" y1="16" x2="93.7" y2="376" stroke="#e5e7eb" stroke-width="0.5"/>
  <text x="93.7" y="388" text-anchor="middle" font-size="8" fill="#6b7280">-50</text>
  <line x1="153.3" y1="16" x2="153.3" y2="376" stroke="#e5e7eb" stroke-width="0.5"/>
  <text x="153.3" y="388" text-anchor="middle" font-size="8" fill="#6b7280">-40</text>
  <line x1="213" y1="16" x2="213" y2="376" stroke="#e5e7eb" stroke-width="0.5"/>
  <text x="213" y="388" text-anchor="middle" font-size="8" fill="#6b7280">-30</text>
  <line x1="272.7" y1="16" x2="272.7" y2="376" stroke="#e5e7eb" stroke-width="0.5"/>
  <text x="272.7" y="388" text-anchor="middle" font-size="8" fill="#6b7280">-20</text>
  <line x1="332.3" y1="16" x2="332.3" y2="376" stroke="#e5e7eb" stroke-width="0.5"/>
  <text x="332.3" y="388" text-anchor="middle" font-size="8" fill="#6b7280">-10</text>
  <line x1="392" y1="16" x2="392" y2="376" stroke="#e5e7eb" stroke-width="0.5"/>
  <text x="392" y="388" text-anchor="middle" font-size="8" fill="#6b7280">0</text>
  <polyline points="34.0,376.0 NaN,16.0" fill="none" stroke="#d1d5db" stroke-width="0.8" stroke-linejoin="round"/>
  <text x="213" y="402" text-anchor="middle" font-size="9" fill="#6b7280">input (dB)</text>
  <text x="12" y="196" text-anchor="middle" font-size="9" fill="#6b7280">output (dB)</text>
  <line x1="356.2" y1="16" x2="356.2" y2="376" stroke="#eab308" stroke-width="1"/>
  <text x="359.2" y="28" text-anchor="start" font-size="7" fill="#6b7280">threshold</text>
  <polyline clip-path="url(#u10)" points="34.0,376.0 37.0,373.1 40.0,370.1 43.0,367.1 45.9,364.1 48.9,361.1 51.9,358.1 54.9,355.1 57.9,352.1 60.8,349.1 63.8,346.1 66.8,343.1 69.8,340.1 72.8,337.1 75.8,334.1 78.8,331.1 81.7,328.1 84.7,325.1 87.7,322.1 90.7,319.1 93.7,316.1 96.7,313.1 99.6,310.1 102.6,307.1 105.6,304.1 108.6,301.1 111.6,298.1 114.5,295.1 117.5,292.1 120.5,289.1 123.5,286.1 126.5,283.1 129.5,280.1 132.4,277.1 135.4,274.1 138.4,271.1 141.4,268.1 144.4,265.1 147.4,262.1 150.4,259.1 153.3,256.1 156.3,253.1 159.3,250.1 162.3,247.1 165.3,244.1 168.3,241.1 171.2,238.1 174.2,235.1 177.2,232.1 180.2,229.1 183.2,226.1 186.2,223.1 189.1,220.1 192.1,217.1 195.1,214.1 198.1,211.1 201.1,208.1 204.0,205.1 207.0,202.1 210.0,199.1 213.0,196.1 216.0,193.1 219.0,190.1 222.0,187.1 224.9,184.1 227.9,181.1 230.9,178.1 233.9,175.1 236.9,172.1 239.8,169.1 242.8,166.1 245.8,163.1 248.8,160.1 251.8,157.1 254.8,154.1 257.8,151.1 260.7,148.1 263.7,145.1 266.7,142.1 269.7,139.1 272.7,136.1 275.6,133.1 278.6,130.1 281.6,127.1 284.6,124.1 287.6,121.1 290.6,118.1 293.6,115.1 296.5,112.1 299.5,109.1 302.5,106.1 305.5,103.1 308.5,100.1 311.4,97.1 314.4,94.1 317.4,91.1 320.4,88.1 323.4,85.1 326.4,82.1 329.3,79.1 332.3,76.1 335.3,73.1 338.3,70.1 341.3,67.1 344.3,64.1 347.3,61.1 350.2,58.1 353.2,55.1 356.2,52.2 359.2,52.2 362.2,52.2 365.2,52.2 368.1,52.2 371.1,52.2 374.1,52.2 377.1,52.2 380.1,52.2 383.1,52.2 386.0,52.2 389.0,52.2 392.0,52.2" fill="none" stroke="#3b82f6" stroke-width="1.8" stroke-linejoin="round"/>
  <line x1="442" y1="16" x2="442" y2="376" stroke="#d1d5db" stroke-width="1"/>
  <line x1="442" y1="376" x2="800" y2="376" stroke="#d1d5db" stroke-width="1"/>
  <line x1="442" y1="16" x2="442" y2="376" stroke="#e5e7eb" stroke-width="0.5"/>
  <text x="442" y="388" text-anchor="middle" font-size="8" fill="#6b7280">0ms</text>
  <line x1="557.6" y1="16" x2="557.6" y2="376" stroke="#e5e7eb" stroke-width="0.5"/>
  <text x="557.6" y="388" text-anchor="middle" font-size="8" fill="#6b7280">30ms</text>
  <line x1="673.3" y1="16" x2="673.3" y2="376" stroke="#e5e7eb" stroke-width="0.5"/>
  <text x="673.3" y="388" text-anchor="middle" font-size="8" fill="#6b7280">60ms</text>
  <line x1="788.9" y1="16" x2="788.9" y2="376" stroke="#e5e7eb" stroke-width="0.5"/>
  <text x="788.9" y="388" text-anchor="middle" font-size="8" fill="#6b7280">90ms</text>
  <line x1="442" y1="346" x2="800" y2="346" stroke="#e5e7eb" stroke-width="0.5"/>
  <text x="438" y="349" text-anchor="end" font-size="8" fill="#6b7280">-1</text>
  <line x1="442" y1="196" x2="800" y2="196" stroke="#e5e7eb" stroke-width="0.5"/>
  <text x="438" y="199" text-anchor="end" font-size="8" fill="#6b7280">0</text>
  <line x1="442" y1="46" x2="800" y2="46" stroke="#e5e7eb" stroke-width="0.5"/>
  <text x="438" y="49" text-anchor="end" font-size="8" fill="#6b7280">1</text>
  <line x1="442" y1="196" x2="800" y2="196" stroke="#d1d5db" stroke-width="0.5"/>
  <text x="621" y="402" text-anchor="middle" font-size="9" fill="#6b7280">time</text>
  <polyline clip-path="url(#u11)" points="442.5,196.0 442.5,195.6 443.5,195.5 443.5,194.5 444.5,194.4 444.5,193.9 445.5,194.8 445.5,193.9 446.5,197.5 446.5,195.0 447.5,200.3 447.5,197.7 448.5,201.6 448.5,200.5 449.5,201.6 449.5,199.9 450.5,199.6 450.5,195.6 451.5,195.2 451.5,190.1 452.5,189.7 452.5,186.9 453.5,188.2 453.5,186.8 454.5,193.8 454.5,188.6 455.5,202.0 455.5,194.4 456.5,207.7 456.5,202.7 457.5,208.9 457.5,208.1 458.5,207.9 458.5,202.4 459.5,201.6 459.5,192.7 460.5,191.8 460.5,182.9 461.5,182.3 461.5,179.4 462.5,184.4 462.5,179.5 463.5,195.3 463.5,185.2 464.5,208.6 464.5,196.5 465.5,215.7 465.5,209.5 466.5,216.2 466.5,213.4 467.5,212.7 467.5,202.3 468.5,201.0 468.5,187.3 469.5,186.0 469.5,174.7 470.5,174.1 470.5,172.1 471.5,182.9 471.5,173.1 472.5,199.6 472.5,184.2 473.5,216.8 473.5,201.2 474.5,223.5 474.5,217.9 475.5,223.5 475.5,216.6 476.5,215.3 476.5,199.5 477.5,197.7 477.5,179.8 478.5,178.2 478.5,166.0 479.5,167.3 479.5,164.8 480.5,184.0 480.5,168.2 481.5,206.3 481.5,185.9 482.5,226.0 482.5,208.3 483.5,230.9 483.5,227.0 484.5,230.1 484.5,219.1 485.5,217.3 485.5,194.0 486.5,191.7 486.5,170.6 487.5,168.8 487.5,157.7 488.5,163.9 488.5,157.5 489.5,187.9 489.5,165.4 490.5,215.1 490.5,190.3 491.5,235.5 491.5,217.4 492.5,238.2 492.5,235.9 493.5,235.0 493.5,217.7 494.5,215.4 494.5,186.0 495.5,183.3 495.5,160.2 496.5,158.5 496.5,150.1 497.5,163.0 497.5,150.5 498.5,194.6 498.5,165.1 499.5,225.7 499.5,197.6 500.5,244.7 500.5,228.1 501.5,245.6 501.5,239.3 502.5,237.7 502.5,213.5 503.5,210.5 503.5,175.7 504.5,172.7 504.5,149.3 505.5,147.8 505.5,142.8 506.5,164.9 506.5,145.4 507.5,203.9 507.5,167.8 508.5,237.5 508.5,207.3 509.5,252.9 509.5,239.8 510.5,252.8 510.5,240.0 511.5,237.6 511.5,206.3 512.5,202.7 512.5,163.7 513.5,160.6 513.5,138.6 514.5,140.9 514.5,135.4 515.5,169.9 515.5,142.6 516.5,215.6 516.5,173.5 517.5,249.7 517.5,219.3 518.5,260.2 518.5,251.8 519.5,259.3 519.5,237.7 520.5,234.5 520.5,196.2 521.5,192.0 521.5,150.4 522.5,147.4 522.5,128.8 523.5,140.2 523.5,128.1 524.5,178.1 524.5,142.7 525.5,229.2 525.5,182.3 526.5,261.8 526.5,233.0 527.5,267.6 527.5,263.4 528.5,263.3 528.5,232.1 529.5,228.1 529.5,183.5 530.5,178.9 530.5,136.6 531.5,133.8 531.5,120.8 532.5,142.6 532.5,121.0 533.5,189.3 533.5,146.1 534.5,244.1 534.5,194.1 535.5,272.8 535.5,247.9 536.5,274.9 536.5,266.7 537.5,264.4 537.5,223.2 538.5,218.4 538.5,168.6 539.5,163.8 539.5,123.0 540.5,120.7 540.5,113.4 541.5,148.5 541.5,116.3 542.5,203.3 542.5,152.9 543.5,259.5 543.5,208.6 544.5,282.1 544.5,263.1 545.5,282.3 545.5,265.4 546.5,262.0 546.5,211.0 547.5,205.5 547.5,152.0 548.5,147.3 548.5,110.4 549.5,112.4 549.5,106.1 550.5,158.1 550.5,114.6 551.5,219.7 551.5,163.3 552.5,271.6 552.5,225.3 553.5,289.6 553.5,274.9 554.5,288.1 554.5,260.4 555.5,256.0 555.5,195.7 556.5,189.7 556.5,134.6 557.5,130.0 557.5,99.7 558.5,113.2 558.5,98.7 559.5,171.1 559.5,116.6 560.5,237.9 560.5,177.1 561.5,286.6 561.5,243.5 562.5,296.9 562.5,289.2 563.5,290.6 563.5,251.6 564.5,246.1 564.5,177.9 565.5,171.6 565.5,116.9 566.5,112.8 566.5,91.4 567.5,117.9 567.5,91.9 568.5,187.4 568.5,122.5 569.5,257.2 569.5,194.0 570.5,300.0 570.5,262.7 571.5,304.2 571.5,292.6 572.5,289.3 572.5,238.9 573.5,232.5 573.5,158.1 574.5,151.6 574.5,100.0 575.5,96.6 575.5,84.1 576.5,126.7 576.5,88.2 577.5,206.5 577.5,132.4 578.5,276.8 578.5,213.6 579.5,310.9 579.5,281.8 580.5,311.6 580.5,288.4 581.5,283.9 581.5,222.5 582.5,215.3 582.5,136.9 583.5,130.6 583.5,84.6 584.5,85.5 584.5,76.7 585.5,139.7 585.5,88.5 586.5,220.6 586.5,146.5 587.5,295.9 587.5,228.0 588.5,319.0 588.5,300.1 589.5,318.0 589.5,279.9 590.5,274.1 590.5,202.7 591.5,194.9 591.5,115.3 592.5,109.3 592.5,71.7 593.5,88.8 593.5,69.4 594.5,156.7 594.5,93.2 595.5,243.5 595.5,164.4 596.5,313.4 596.5,251.0 597.5,326.3 597.5,316.7 598.5,320.4 598.5,266.9 599.5,259.9 599.5,180.2 600.5,172.0 600.5,94.1 601.5,88.8 601.5,62.0 602.5,96.7 602.5,62.2 603.5,177.3 603.5,102.6 604.5,267.5 604.5,185.8 605.5,328.5 605.5,274.7 606.5,333.6 606.5,322.0 607.5,318.3 607.5,249.6 608.5,241.5 608.5,155.5 609.5,147.2 609.5,74.3 610.5,70.0 610.5,54.8 611.5,109.4 611.5,58.1 612.5,201.1 612.5,116.6 613.5,291.5 613.5,210.1 614.5,340.2 614.5,298.1 615.5,340.9 615.5,316.5 616.5,311.2 616.5,228.3 617.5,219.3 617.5,129.6 618.5,121.5 618.5,56.8 619.5,55.4 619.5,47.4 620.5,126.7 620.5,58.7 621.5,227.0 621.5,135.2 622.5,312.2 622.5,236.1 623.5,343.6 623.5,317.7 624.5,342.0 624.5,301.4 625.5,294.7 625.5,203.1 626.5,193.9 626.5,109.2 627.5,102.2 627.5,54.0 628.5,71.0 628.5,52.0 629.5,144.6 629.5,75.7 630.5,249.0 630.5,153.0 631.5,319.8 631.5,257.1 632.5,336.3 632.5,323.7 633.5,329.0 633.5,277.7 634.5,270.4 634.5,178.7 635.5,170.1 635.5,95.9 636.5,90.2 636.5,59.3 637.5,90.9 637.5,59.6 638.5,169.8 638.5,96.5 639.5,266.9 639.5,178.2 640.5,322.4 640.5,273.9 641.5,329.0 641.5,316.5 642.5,312.8 642.5,253.6 643.5,246.1 643.5,157.4 644.5,149.7 644.5,87.4 645.5,83.2 645.5,66.7 646.5,112.3 646.5,70.4 647.5,193.3 647.5,118.6 648.5,280.5 648.5,201.3 649.5,320.4 649.5,286.2 650.5,321.6 650.5,299.0 651.5,294.3 651.5,230.2 652.5,222.7 652.5,139.8 653.5,133.1 653.5,83.6 654.5,81.5 654.5,74.0 655.5,134.2 655.5,84.4 656.5,214.2 656.5,140.9 657.5,289.6 657.5,221.6 658.5,314.3 658.5,294.0 659.5,313.8 659.5,279.8 660.5,274.4 660.5,208.3 661.5,201.0 661.5,126.3 662.5,120.7 662.5,84.2 663.5,93.5 663.5,81.4 664.5,155.8 664.5,96.9 665.5,232.0 665.5,162.5 666.5,294.3 666.5,238.6 667.5,307.0 667.5,297.3 668.5,302.9 668.5,259.9 669.5,254.2 669.5,188.5 670.5,181.8 670.5,116.9 671.5,112.4 671.5,88.8 672.5,109.8 672.5,88.7 673.5,176.1 673.5,114.0 674.5,246.3 674.5,182.6 675.5,294.8 675.5,251.9 676.5,299.6 676.5,292.2 677.5,289.6 677.5,240.3 678.5,234.4 678.5,171.7 679.5,165.5 679.5,111.6 680.5,108.4 680.5,96.0 681.5,127.2 681.5,97.8 682.5,194.5 682.5,131.9 683.5,256.7 683.5,200.6 684.5,291.5 684.5,261.3 685.5,292.3 685.5,277.8 686.5,274.5 686.5,221.6 687.5,215.8 687.5,158.0 688.5,152.7 688.5,110.3 689.5,108.3 689.5,103.4 690.5,144.8 690.5,109.4 691.5,210.3 691.5,149.7 692.5,263.3 692.5,215.8 693.5,284.9 693.5,266.9 694.5,284.5 694.5,262.3 695.5,258.5 695.5,204.7 696.5,199.2 696.5,147.9 697.5,143.6 697.5,114.0 698.5,120.1 698.5,110.7 699.5,161.8 699.5,122.7 700.5,223.1 700.5,166.6 701.5,266.2 701.5,227.9 702.5,277.6 702.5,268.6 703.5,274.4 703.5,246.5 704.5,242.5 704.5,190.1 705.5,185.1 705.5,141.4 706.5,138.0 706.5,118.5 707.5,133.8 707.5,118.1 708.5,177.4 708.5,136.9 709.5,232.6 709.5,182.1 710.5,265.5 710.5,236.6 711.5,270.3 711.5,264.6 712.5,262.7 712.5,231.3 713.5,227.2 713.5,178.3 714.5,174.0 714.5,138.5 715.5,136.0 715.5,125.4 716.5,147.9 716.5,126.0 717.5,191.0 717.5,151.2 718.5,238.7 718.5,195.3 719.5,261.8 719.5,241.9 720.5,262.9 720.5,252.5 721.5,250.1 721.5,217.3 722.5,213.3 722.5,169.6 723.5,166.0 723.5,138.8 724.5,137.2 724.5,132.7 725.5,161.5 725.5,135.8 726.5,202.2 726.5,164.9 727.5,241.5 727.5,206.0 728.5,255.6 728.5,243.9 729.5,255.5 729.5,240.0 730.5,237.4 730.5,205.0 731.5,201.4 731.5,167.0 732.5,164.0 732.5,142.0 733.5,145.0 733.5,140.1 734.5,174.0 734.5,146.5 735.5,210.6 735.5,177.2 736.5,241.3 736.5,213.8 737.5,248.2 737.5,242.8 738.5,246.9 738.5,227.9 739.5,225.3 739.5,195.1 740.5,192.0 740.5,163.8 741.5,161.6 741.5,147.6 742.5,155.9 742.5,147.4 743.5,184.8 743.5,157.7 744.5,216.1 744.5,187.7 745.5,238.3 745.5,218.6 746.5,240.9 746.5,238.3 747.5,237.2 747.5,216.9 748.5,214.4 748.5,187.9 749.5,185.3 749.5,163.6 750.5,162.0 750.5,154.8 751.5,166.5 751.5,155.2 752.5,193.4 752.5,168.3 753.5,218.6 753.5,195.8 754.5,233.1 754.5,220.4 755.5,233.6 755.5,228.6 756.5,227.3 756.5,207.5 757.5,205.3 757.5,183.4 758.5,181.4 758.5,166.0 759.5,165.1 759.5,162.1 760.5,176.3 760.5,163.9 761.5,199.4 761.5,178.0 762.5,218.3 762.5,201.4 763.5,226.2 763.5,219.5 764.5,226.2 764.5,219.1 765.5,217.9 765.5,202.1 766.5,200.3 766.5,181.8 767.5,180.3 767.5,170.6 768.5,172.1 768.5,169.4 769.5,184.5 769.5,172.8 770.5,202.8 770.5,186.0 771.5,215.5 771.5,204.2 772.5,218.9 772.5,216.2 773.5,218.1 773.5,210.6 774.5,209.5 774.5,196.8 775.5,195.5 775.5,182.8 776.5,181.9 776.5,176.9 777.5,180.5 777.5,176.8 778.5,190.8 778.5,181.3 779.5,203.4 779.5,191.9 780.5,210.6 780.5,204.3 781.5,211.6 781.5,210.4 782.5,210.0 782.5,203.6 783.5,202.8 783.5,194.2 784.5,193.4 784.5,186.2 785.5,185.8 785.5,184.1 786.5,188.0 786.5,184.2 787.5,194.7 787.5,188.6 788.5,201.5 788.5,195.4 789.5,204.2 789.5,201.9 790.5,204.3 790.5,202.7 791.5,202.4 791.5,198.5 792.5,198.1 792.5,194.2 793.5,193.9 793.5,191.5 794.5,191.7 794.5,191.3 795.5,193.9 795.5,191.9 796.5,196.1 796.5,194.2 797.5,197.3 797.5,196.3 798.5,197.3 798.5,196.9 799.5,196.9 799.5,196.1" fill="none" stroke="#d1d5db" stroke-width="1" stroke-linejoin="round"/>
  <polyline clip-path="url(#u11)" points="442.5,196.0 442.5,195.6 443.5,195.5 443.5,194.5 444.5,194.4 444.5,193.9 445.5,194.8 445.5,193.9 446.5,197.5 446.5,195.0 447.5,200.3 447.5,197.7 448.5,201.6 448.5,200.5 449.5,201.6 449.5,199.9 450.5,199.6 450.5,195.6 451.5,195.2 451.5,190.1 452.5,189.7 452.5,186.9 453.5,188.2 453.5,186.8 454.5,193.8 454.5,188.6 455.5,202.0 455.5,194.4 456.5,207.7 456.5,202.7 457.5,208.9 457.5,208.1 458.5,207.9 458.5,202.4 459.5,201.6 459.5,192.7 460.5,191.8 460.5,182.9 461.5,182.3 461.5,179.4 462.5,184.4 462.5,179.5 463.5,195.3 463.5,185.2 464.5,208.6 464.5,196.5 465.5,215.7 465.5,209.5 466.5,216.2 466.5,213.4 467.5,212.7 467.5,202.3 468.5,201.0 468.5,187.3 469.5,186.0 469.5,174.7 470.5,174.1 470.5,172.1 471.5,182.9 471.5,173.1 472.5,199.6 472.5,184.2 473.5,216.8 473.5,201.2 474.5,223.5 474.5,217.9 475.5,223.5 475.5,216.6 476.5,215.3 476.5,199.5 477.5,197.7 477.5,179.8 478.5,178.2 478.5,166.0 479.5,167.3 479.5,164.8 480.5,184.0 480.5,168.2 481.5,206.3 481.5,185.9 482.5,226.0 482.5,208.3 483.5,230.9 483.5,227.0 484.5,230.1 484.5,219.1 485.5,217.3 485.5,194.0 486.5,191.7 486.5,170.6 487.5,168.8 487.5,157.7 488.5,163.9 488.5,157.5 489.5,187.9 489.5,165.4 490.5,215.1 490.5,190.3 491.5,235.5 491.5,217.4 492.5,238.2 492.5,235.9 493.5,235.0 493.5,217.7 494.5,215.4 494.5,186.0 495.5,183.3 495.5,160.2 496.5,158.5 496.5,150.1 497.5,163.0 497.5,150.5 498.5,194.6 498.5,165.1 499.5,225.7 499.5,197.6 500.5,244.7 500.5,228.1 501.5,245.6 501.5,239.3 502.5,237.7 502.5,213.5 503.5,210.5 503.5,175.7 504.5,172.7 504.5,149.3 505.5,147.8 505.5,142.8 506.5,164.9 506.5,145.4 507.5,203.9 507.5,167.8 508.5,237.5 508.5,207.3 509.5,252.9 509.5,239.8 510.5,252.8 510.5,240.0 511.5,237.6 511.5,206.3 512.5,202.7 512.5,163.7 513.5,160.6 513.5,138.6 514.5,140.9 514.5,135.4 515.5,169.9 515.5,142.6 516.5,215.6 516.5,173.5 517.5,249.7 517.5,219.3 518.5,260.2 518.5,251.8 519.5,259.3 519.5,237.7 520.5,234.5 520.5,196.2 521.5,192.0 521.5,150.4 522.5,147.4 522.5,128.8 523.5,140.2 523.5,128.1 524.5,178.1 524.5,142.7 525.5,229.2 525.5,182.3 526.5,261.8 526.5,233.0 527.5,267.6 527.5,263.4 528.5,263.3 528.5,232.1 529.5,228.1 529.5,183.5 530.5,178.9 530.5,136.6 531.5,133.8 531.5,121.0 532.5,142.8 532.5,121.3 533.5,189.3 533.5,146.2 534.5,243.9 534.5,194.1 535.5,271.0 535.5,247.7 536.5,271.0 536.5,263.2 537.5,261.0 537.5,221.8 538.5,217.3 538.5,169.9 539.5,165.4 539.5,126.6 540.5,124.4 540.5,121.0 541.5,152.9 541.5,123.6 542.5,202.7 542.5,156.9 543.5,253.8 543.5,207.5 544.5,271.0 544.5,257.0 545.5,271.0 545.5,256.4 546.5,253.4 546.5,209.0 547.5,204.3 547.5,157.7 548.5,153.5 548.5,121.4 549.5,126.3 549.5,121.0 550.5,164.3 550.5,128.1 551.5,215.8 551.5,168.7 552.5,259.2 552.5,220.5 553.5,271.0 553.5,262.0 554.5,269.8 554.5,247.6 555.5,244.1 555.5,195.8 556.5,191.0 556.5,146.6 557.5,142.9 557.5,121.0 558.5,132.1 558.5,121.0 559.5,176.7 559.5,134.7 560.5,228.4 560.5,181.4 561.5,266.1 561.5,232.8 562.5,271.0 562.5,267.8 563.5,266.3 563.5,237.4 564.5,233.3 564.5,182.5 565.5,177.8 565.5,137.0 566.5,133.9 566.5,121.0 567.5,140.0 567.5,121.3 568.5,189.8 568.5,143.2 569.5,240.1 569.5,194.6 570.5,271.0 570.5,244.1 571.5,271.0 571.5,262.9 572.5,260.7 572.5,225.8 573.5,221.3 573.5,169.6 574.5,165.1 574.5,129.1 575.5,126.7 575.5,121.0 576.5,149.5 576.5,123.8 577.5,203.1 577.5,153.3 578.5,250.5 578.5,207.9 579.5,271.0 579.5,253.9 580.5,271.0 580.5,256.0 581.5,253.0 581.5,213.2 582.5,208.6 582.5,157.4 583.5,153.3 583.5,123.2 584.5,126.5 584.5,121.0 585.5,160.5 585.5,128.4 586.5,211.5 586.5,164.8 587.5,259.3 587.5,216.2 588.5,271.0 588.5,262.0 589.5,270.4 589.5,247.2 590.5,243.7 590.5,200.1 591.5,195.3 591.5,146.4 592.5,142.7 592.5,121.0 593.5,132.5 593.5,121.0 594.5,172.6 594.5,135.1 595.5,224.3 595.5,177.2 596.5,266.1 596.5,228.8 597.5,271.0 597.5,268.1 598.5,267.6 598.5,236.9 599.5,232.9 599.5,186.9 600.5,182.1 600.5,136.8 601.5,133.8 601.5,121.0 602.5,140.4 602.5,121.1 603.5,185.5 603.5,143.6 604.5,236.3 604.5,190.2 605.5,270.9 605.5,240.4 606.5,271.0 606.5,264.7 607.5,262.6 607.5,225.3 608.5,220.9 608.5,173.8 609.5,169.2 609.5,129.0 610.5,126.7 610.5,121.0 611.5,149.9 611.5,122.8 612.5,198.7 612.5,153.8 613.5,247.2 613.5,203.5 614.5,271.0 614.5,250.8 615.5,271.0 615.5,258.4 616.5,255.7 616.5,212.8 617.5,208.1 617.5,161.3 618.5,157.1 618.5,123.2 619.5,125.1 619.5,121.0 620.5,161.0 620.5,126.7 621.5,211.8 621.5,165.2 622.5,255.3 622.5,216.4 623.5,271.0 623.5,258.1 624.5,270.2 624.5,249.6 625.5,246.2 625.5,199.6 626.5,194.9 626.5,151.5 627.5,147.8 627.5,123.1 628.5,131.8 628.5,122.0 629.5,169.5 629.5,134.2 630.5,223.5 630.5,173.8 631.5,260.3 631.5,227.7 632.5,268.9 632.5,262.4 633.5,265.1 633.5,238.5 634.5,234.8 634.5,186.9 635.5,182.5 635.5,143.4 636.5,140.4 636.5,124.2 637.5,140.7 637.5,124.3 638.5,182.2 638.5,143.7 639.5,233.6 639.5,186.6 640.5,263.2 640.5,237.4 641.5,266.7 641.5,260.1 642.5,258.1 642.5,226.7 643.5,222.7 643.5,175.3 644.5,171.2 644.5,137.6 645.5,135.3 645.5,126.4 646.5,150.9 646.5,128.4 647.5,194.5 647.5,154.3 648.5,242.0 648.5,198.8 649.5,263.7 649.5,245.1 650.5,264.4 650.5,252.1 651.5,249.6 651.5,214.7 652.5,210.6 652.5,165.2 653.5,161.5 653.5,134.1 654.5,132.9 654.5,128.8 655.5,161.9 655.5,134.5 656.5,206.1 656.5,165.5 657.5,248.1 657.5,210.2 658.5,261.9 658.5,250.6 659.5,261.7 659.5,242.8 660.5,239.8 660.5,202.9 661.5,198.8 661.5,156.7 662.5,153.6 662.5,132.9 663.5,138.1 663.5,131.3 664.5,173.2 664.5,140.0 665.5,216.5 665.5,177.0 666.5,252.1 666.5,220.2 667.5,259.4 667.5,253.8 668.5,257.1 668.5,232.6 669.5,229.3 669.5,191.7 670.5,187.8 670.5,150.3 671.5,147.8 671.5,134.0 672.5,146.1 672.5,134.0 673.5,184.4 673.5,148.5 674.5,225.3 674.5,188.2 675.5,253.8 675.5,228.6 676.5,256.7 676.5,252.3 677.5,250.8 677.5,222.0 678.5,218.6 678.5,181.6 679.5,178.0 679.5,146.0 680.5,144.1 680.5,136.7 681.5,155.1 681.5,137.8 682.5,195.1 682.5,157.9 683.5,232.4 683.5,198.8 684.5,253.3 684.5,235.1 685.5,253.8 685.5,245.2 686.5,243.2 686.5,211.4 687.5,208.0 687.5,173.0 688.5,169.8 688.5,144.0 689.5,142.7 689.5,139.7 690.5,164.8 690.5,143.3 691.5,204.7 691.5,167.7 692.5,237.4 692.5,208.1 693.5,250.8 693.5,239.5 694.5,250.5 694.5,236.9 695.5,234.6 695.5,201.4 696.5,198.0 696.5,166.1 697.5,163.4 697.5,144.9 698.5,148.6 698.5,142.8 699.5,174.5 699.5,150.2 700.5,213.0 700.5,177.6 701.5,240.2 701.5,216.1 702.5,247.5 702.5,241.8 703.5,245.6 703.5,228.0 704.5,225.5 704.5,192.2 705.5,189.1 705.5,161.2 706.5,159.0 706.5,146.4 707.5,156.1 707.5,146.1 708.5,184.0 708.5,158.1 709.5,219.6 709.5,187.0 710.5,241.0 710.5,222.2 711.5,244.1 711.5,240.5 712.5,239.3 712.5,219.0 713.5,216.3 713.5,184.4 714.5,181.6 714.5,158.4 715.5,156.8 715.5,149.7 716.5,164.4 716.5,150.1 717.5,192.7 717.5,166.5 718.5,224.3 718.5,195.5 719.5,239.6 719.5,226.4 720.5,240.4 720.5,233.6 721.5,232.0 721.5,210.2 722.5,207.5 722.5,178.3 723.5,175.9 723.5,157.7 724.5,156.6 724.5,153.5 725.5,172.8 725.5,155.5 726.5,200.2 726.5,175.0 727.5,226.8 727.5,202.7 728.5,236.4 728.5,228.4 729.5,236.4 729.5,225.9 730.5,224.2 730.5,202.2 731.5,199.7 731.5,176.2 732.5,174.1 732.5,159.0 733.5,161.0 733.5,157.7 734.5,180.9 734.5,162.0 735.5,206.1 735.5,183.1 736.5,227.3 736.5,208.3 737.5,232.2 737.5,228.4 738.5,231.3 738.5,218.2 739.5,216.3 739.5,195.4 740.5,193.2 740.5,173.5 741.5,172.0 741.5,162.1 742.5,167.9 742.5,162.0 743.5,188.1 743.5,169.1 744.5,210.1 744.5,190.2 745.5,225.8 745.5,211.9 746.5,227.7 746.5,225.9 747.5,225.2 747.5,210.8 748.5,209.0 748.5,190.2 749.5,188.4 749.5,172.9 750.5,171.8 750.5,166.6 751.5,174.9 751.5,166.9 752.5,194.1 752.5,176.2 753.5,212.2 753.5,195.9 754.5,222.7 754.5,213.5 755.5,223.0 755.5,219.5 756.5,218.6 756.5,204.3 757.5,202.7 757.5,186.9 758.5,185.4 758.5,174.3 759.5,173.6 759.5,171.4 760.5,181.6 760.5,172.7 761.5,198.5 761.5,182.9 762.5,212.3 762.5,199.9 763.5,218.1 763.5,213.2 764.5,218.1 764.5,213.0 765.5,212.0 765.5,200.5 766.5,199.2 766.5,185.5 767.5,184.5 767.5,177.3 768.5,178.3 768.5,176.4 769.5,187.5 769.5,178.9 770.5,201.0 770.5,188.6 771.5,210.5 771.5,202.1 772.5,213.0 772.5,211.0 773.5,212.5 773.5,206.9 774.5,206.1 774.5,196.6 775.5,195.6 775.5,186.1 776.5,185.5 776.5,181.7 777.5,184.4 777.5,181.6 778.5,192.1 778.5,184.9 779.5,201.6 779.5,192.9 780.5,207.0 780.5,202.2 781.5,207.8 781.5,206.9 782.5,206.6 782.5,201.7 783.5,201.1 783.5,194.6 784.5,194.0 784.5,188.5 785.5,188.2 785.5,186.9 786.5,189.9 786.5,187.0 787.5,195.0 787.5,190.3 788.5,200.2 788.5,195.5 789.5,202.3 789.5,200.5 790.5,202.3 790.5,201.1 791.5,200.9 791.5,197.9 792.5,197.6 792.5,194.6 793.5,194.3 793.5,192.6 794.5,192.7 794.5,192.4 795.5,194.4 795.5,192.8 796.5,196.1 796.5,194.6 797.5,197.0 797.5,196.2 798.5,197.0 798.5,196.7 799.5,196.7 799.5,196.0" fill="none" stroke="#3b82f6" stroke-width="1.5" stroke-linejoin="round"/>
  <line x1="442" y1="8" x2="454" y2="8" stroke="#d1d5db" stroke-width="2"/>
  <text x="457" y="11" text-anchor="start" font-size="11" fill="#6b7280">input</text>
  <line x1="496" y1="8" x2="508" y2="8" stroke="#3b82f6" stroke-width="2"/>
  <text x="511" y="11" text-anchor="start" font-size="11" fill="#6b7280">output</text>
</svg>
