<svg xmlns="http://www.w3.org/2000/svg" viewBox="0 0 820 392" style="font-family:system-ui,-apple-system,sans-serif">
  <defs>
    <clipPath id="u37"><rect x="34" y="16" width="766" height="360"/></clipPath>
  </defs>
  <text x="800" y="11" text-anchor="end" font-size="11" fill="#6b7280" font-weight="600">Noise shaping — 8-bit: quantization error pushed to HF</text>
  <line x1="34" y1="16" x2="34" y2="376" stroke="#d1d5db" stroke-width="1"/>
  <line x1="34" y1="376" x2="800" y2="376" stroke="#d1d5db" stroke-width="1"/>
  <line x1="132.4" y1="16" x2="132.4" y2="376" stroke="#e5e7eb" stroke-width="0.5"/>
  <line x1="190" y1="16" x2="190" y2="376" stroke="#e5e7eb" stroke-width="0.5"/>
  <line x1="230.9" y1="16" x2="230.9" y2="376" stroke="#e5e7eb" stroke-width="0.5"/>
  <line x1="262.6" y1="16" x2="262.6" y2="376" stroke="#e5e7eb" stroke-width="0.5"/>
  <line x1="288.5" y1="16" x2="288.5" y2="376" stroke="#e5e7eb" stroke-width="0.5"/>
  <line x1="310.4" y1="16" x2="310.4" y2="376" stroke="#e5e7eb" stroke-width="0.5"/>
  <line x1="329.3" y1="16" x2="329.3" y2="376" stroke="#e5e7eb" stroke-width="0.5"/>
  <line x1="346" y1="16" x2="346" y2="376" stroke="#e5e7eb" stroke-width="0.5"/>
  <line x1="459.5" y1="16" x2="459.5" y2="376" stroke="#e5e7eb" stroke-width="0.5"/>
  <line x1="517" y1="16" x2="517" y2="376" stroke="#e5e7eb" stroke-width="0.5"/>
  <line x1="557.9" y1="16" x2="557.9" y2="376" stroke="#e5e7eb" stroke-width="0.5"/>
  <line x1="589.6" y1="16" x2="589.6" y2="376" stroke="#e5e7eb" stroke-width="0.5"/>
  <line x1="615.5" y1="16" x2="615.5" y2="376" stroke="#e5e7eb" stroke-width="0.5"/>
  <line x1="637.4" y1="16" x2="637.4" y2="376" stroke="#e5e7eb" stroke-width="0.5"/>
  <line x1="656.3" y1="16" x2="656.3" y2="376" stroke="#e5e7eb" stroke-width="0.5"/>
  <line x1="673.1" y1="16" x2="673.1" y2="376" stroke="#e5e7eb" stroke-width="0.5"/>
  <line x1="786.5" y1="16" x2="786.5" y2="376" stroke="#e5e7eb" stroke-width="0.5"/>
  <line x1="34" y1="16" x2="34" y2="376" stroke="#e5e7eb" stroke-width="0.5"/>
  <text x="34" y="388" text-anchor="middle" font-size="8" fill="#6b7280">100</text>
  <line x1="361" y1="16" x2="361" y2="376" stroke="#e5e7eb" stroke-width="0.5"/>
  <text x="361" y="388" text-anchor="middle" font-size="8" fill="#6b7280">1k</text>
  <line x1="688" y1="16" x2="688" y2="376" stroke="#e5e7eb" stroke-width="0.5"/>
  <text x="688" y="388" text-anchor="middle" font-size="8" fill="#6b7280">10k</text>
  <line x1="34" y1="304" x2="800" y2="304" stroke="#e5e7eb" stroke-width="0.5"/>
  <text x="30" y="307" text-anchor="end" font-size="8" fill="#6b7280">-80</text>
  <line x1="34" y1="232" x2="800" y2="232" stroke="#e5e7eb" stroke-width="0.5"/>
  <text x="30" y="235" text-anchor="end" font-size="8" fill="#6b7280">-60</text>
  <line x1="34" y1="160" x2="800" y2="160" stroke="#e5e7eb" stroke-width="0.5"/>
  <text x="30" y="163" text-anchor="end" font-size="8" fill="#6b7280">-40</text>
  <line x1="34" y1="88" x2="800" y2="88" stroke="#e5e7eb" stroke-width="0.5"/>
  <text x="30" y="91" text-anchor="end" font-size="8" fill="#6b7280">-20</text>
  <line x1="34" y1="16" x2="800" y2="16" stroke="#e5e7eb" stroke-width="0.5"/>
  <text x="30" y="19" text-anchor="end" font-size="8" fill="#6b7280">0</text>
  <text x="417" y="402" text-anchor="middle" font-size="9" fill="#6b7280">Hz</text>
  <text x="12" y="196" text-anchor="middle" font-size="9" fill="#6b7280">dB</text>
  <polyline clip-path="url(#u37)" points="44.5,216.5 58.0,215.4 70.4,214.3 81.8,213.7 92.3,211.9 102.1,209.8 111.2,209.1 119.8,206.5 128.0,205.4 135.6,204.4 142.9,202.5 149.9,200.6 156.5,198.7 162.8,196.7 168.8,194.2 174.6,192.5 180.2,189.4 185.6,187.6 190.7,184.8 195.7,182.1 200.5,179.1 205.2,175.6 209.7,172.4 214.1,168.1 218.3,163.8 222.4,158.5 226.4,152.4 230.3,145.0 234.1,135.3 237.8,121.7 241.4,97.4 244.9,38.6 248.3,105.3 251.6,124.9 254.9,136.7 258.1,145.2 261.2,151.7 264.3,157.1 267.3,161.7 270.2,165.4 273.1,168.7 275.9,172.0 278.6,174.9 281.3,177.2 284.0,179.7 286.6,181.8 289.2,183.3 291.7,185.5 294.1,186.8 296.6,188.6 299.0,190.2 301.3,191.6 303.6,193.0 305.9,194.6 308.1,195.4 310.3,196.5 312.5,197.8 314.6,199.4 316.7,200.3 318.8,200.0 320.8,201.7 322.9,202.7 324.8,203.6 326.8,204.6 328.7,205.5 330.6,206.1 332.5,207.5 334.4,207.6 336.2,209.3 338.0,209.1 339.8,209.5 341.6,210.4 343.3,211.2 345.0,211.9 346.7,212.4 348.4,213.0 350.1,213.6 351.7,214.3 353.3,214.8 355.0,216.1 356.5,215.7 358.1,217.2 359.7,216.7 361.2,218.0 362.7,217.8 364.2,218.6 365.7,218.6 367.2,220.0 368.6,220.1 370.1,220.4 371.5,220.6 372.9,221.3 374.3,221.2 375.7,222.2 377.1,222.4 378.4,222.8 379.8,225.1 381.1,223.9 382.4,224.7 383.7,224.6 385.0,225.2 386.3,225.5 387.6,225.7 388.9,226.2 390.1,225.9 391.4,223.2 392.6,228.0 393.8,227.5 395.0,228.1 396.2,228.9 397.4,228.5 398.6,230.0 399.7,229.5 400.9,229.9 402.1,230.1 403.2,230.4 404.3,230.6 405.4,231.1 406.6,231.7 407.7,231.6 408.8,235.9 409.9,231.7 410.9,234.7 412.0,232.8 413.1,233.5 414.1,233.3 415.2,234.0 416.2,234.1 417.2,234.5 418.3,235.4 419.3,234.4 420.3,235.7 421.3,234.8 422.3,235.2 423.3,235.3 424.3,237.8 425.2,236.1 426.2,236.8 427.2,236.3 428.1,237.9 429.1,237.7 430.0,237.3 431.0,237.8 431.9,237.9 432.8,238.5 433.7,238.2 434.7,237.6 435.6,238.6 436.5,240.5 437.4,238.9 438.3,241.8 439.1,240.7 440.0,239.6 440.9,240.4 441.8,240.5 442.6,241.1 443.5,240.6 444.3,241.2 445.2,241.0 446.0,238.0 446.9,241.8 447.7,240.3 448.5,241.4 449.3,243.6 450.2,242.2 451.0,243.5 451.8,243.3 452.6,242.6 453.4,241.6 454.2,244.3 455.0,243.4 455.8,244.3 456.5,242.5 457.3,244.6 458.1,245.0 458.9,244.7 459.6,246.2 460.4,245.7 461.2,245.4 461.9,245.9 462.7,245.5 463.4,246.0 464.1,246.1 464.9,246.3 465.6,246.7 466.3,247.6 467.1,247.6 467.8,238.9 468.5,246.3 469.2,246.9 469.9,247.3 470.7,246.5 471.4,247.0 472.1,247.5 472.8,247.0 473.4,248.5 474.1,248.4 474.8,248.4 475.5,247.2 476.2,248.7 476.9,249.6 477.5,248.7 478.2,251.3 478.9,250.3 479.6,248.5 480.2,249.4 480.9,249.6 481.5,249.2 482.2,250.0 482.8,246.8 483.5,252.0 484.1,259.4 484.8,250.8 485.4,249.5 486.0,250.7 486.7,252.3 487.3,251.4 487.9,252.0 488.6,251.9 489.2,251.7 489.8,252.1 490.4,251.3 491.0,247.8 491.6,253.4 492.2,247.5 492.8,253.6 493.4,251.9 494.0,252.9 494.6,255.5 495.2,254.5 495.8,252.6 496.4,253.5 497.0,253.8 497.6,253.4 498.2,254.6 498.8,254.5 499.3,254.7 499.9,256.0 500.5,254.7 501.1,255.9 501.6,255.4 502.2,254.1 502.8,255.4 503.3,254.5 503.9,255.2 504.4,255.4 505.0,256.1 505.6,254.8 506.1,252.6 506.7,256.7 507.2,253.8 507.7,256.8 508.3,256.4 508.8,257.1 509.4,254.5 509.9,256.1 510.4,256.8 511.0,255.9 511.5,257.2 512.0,254.1 512.6,260.9 513.1,265.9 513.6,256.6 514.1,257.2 514.7,257.9 515.2,258.1 515.7,258.4 516.2,259.0 516.7,259.6 517.2,254.3 517.7,257.6 518.2,258.0 518.7,257.8 519.2,258.9 519.7,257.9 520.2,259.5 520.7,262.2 521.2,258.9 521.7,262.6 522.2,259.5 522.7,261.3 523.2,260.3 523.7,260.6 524.2,260.7 524.7,260.6 525.1,262.7 525.6,258.7 526.1,259.3 526.6,260.3 527.1,256.8 527.5,261.4 528.0,256.4 528.5,260.7 528.9,261.6 529.4,261.3 529.9,261.6 530.3,261.9 530.8,261.3 531.3,262.4 531.7,261.8 532.2,265.4 532.6,260.2 533.1,254.7 533.6,262.3 534.0,264.7 534.5,262.8 534.9,261.3 535.4,262.4 535.8,262.8 536.2,263.0 536.7,262.8 537.1,263.5 537.6,262.9 538.0,263.9 538.5,263.3 538.9,268.0 539.3,263.1 539.8,262.5 540.2,263.8 540.6,262.8 541.1,264.4 541.5,260.3 541.9,263.1 542.3,262.4 542.8,262.5 543.2,264.7 543.6,267.2 544.0,263.1 544.5,265.0 544.9,263.4 545.3,266.7 545.7,263.3 546.1,269.1 546.5,265.6 547.0,264.0 547.4,263.8 547.8,265.3 548.2,264.1 548.6,267.1 549.0,271.0 549.4,263.5 549.8,258.4 550.2,265.7 550.6,271.1 551.0,266.2 551.4,264.9 551.8,265.4 552.2,266.2 552.6,265.9 553.0,263.9 553.4,258.7 553.8,271.2 554.2,270.5 554.6,267.7 555.0,271.0 555.4,267.3 555.8,269.6 556.2,268.4 556.5,264.4 556.9,267.4 557.3,266.8 557.7,267.6 558.1,267.7 558.5,268.2 558.8,268.7 559.2,276.0 559.6,264.6 560.0,259.9 560.3,267.8 560.7,268.8 561.1,267.3 561.5,270.9 561.8,268.7 562.2,268.4 562.6,268.5 563.0,268.9 563.3,270.2 563.7,266.6 564.1,264.6 564.4,269.9 564.8,272.0 565.2,268.6 565.5,274.5 565.9,269.5 566.2,267.6 566.6,268.5 567.0,270.1 567.3,269.7 567.7,269.4 568.0,270.1 568.4,268.4 568.7,266.0 569.1,271.1 569.4,276.2 569.8,268.9 570.1,280.9 570.5,269.6 570.8,273.5 571.2,270.7 571.5,270.5 571.9,269.9 572.2,271.1 572.6,271.0 572.9,270.5 573.3,269.1 573.6,272.0 574.0,277.9 574.3,270.3 574.6,269.7 575.0,270.1 575.3,274.8 575.6,271.7 576.0,271.5 576.3,271.6 576.7,270.4 577.0,269.2 577.3,272.7 577.7,271.0 578.0,272.6 578.3,275.1 578.7,271.7 579.0,268.5 579.3,271.0 579.6,275.3 580.0,272.0 580.3,273.4 580.6,272.7 580.9,273.0 581.3,274.1 581.6,270.3 581.9,268.0 582.2,272.6 582.6,261.1 582.9,275.2 583.2,273.2 583.5,273.9 583.8,272.7 584.2,273.5 584.5,273.4 584.8,273.7 585.1,271.8 585.4,271.8 585.7,273.8 586.1,272.2 586.4,274.2 586.7,273.9 587.0,273.7 587.3,273.6 587.6,272.8 587.9,279.7 588.2,275.3 588.5,273.1 588.8,274.0 589.2,273.4 589.5,273.3 589.8,272.1 590.1,264.2 590.4,278.3 590.7,269.8 591.0,277.2 591.3,273.0 591.6,275.9 591.9,276.7 592.2,276.0 592.5,276.5 592.8,276.2 593.1,271.7 593.4,273.1 593.7,276.9 594.0,276.0 594.3,276.7 594.6,280.2 594.9,276.0 595.2,270.3 595.5,276.8 595.7,271.2 596.0,275.7 596.3,274.4 596.6,275.7 596.9,275.1 597.2,274.7 597.5,276.8 597.8,275.8 598.1,277.1 598.4,280.6 598.6,276.1 598.9,267.7 599.2,275.7 599.5,279.8 599.8,277.5 600.1,274.4 600.4,276.2 600.6,274.4 600.9,272.3 601.2,279.2 601.5,276.6 601.8,278.2 602.0,278.1 602.3,277.6 602.6,272.9 602.9,276.8 603.2,281.7 603.4,278.1 603.7,279.2 604.0,279.0 604.3,277.3 604.5,279.5 604.8,276.3 605.1,277.2 605.4,277.3 605.6,274.3 605.9,278.4 606.2,288.5 606.5,278.6 606.7,277.1 607.0,278.2 607.3,278.1 607.5,278.3 607.8,277.7 608.1,277.0 608.3,279.5 608.6,279.6 608.9,278.0 609.2,274.2 609.4,279.5 609.7,274.2 609.9,278.8 610.2,280.9 610.5,279.4 610.7,279.0 611.0,278.5 611.3,280.2 611.5,281.6 611.8,277.3 612.1,276.8 612.3,279.9 612.6,280.2 612.8,279.3 613.1,269.4 613.4,278.6 613.6,283.7 613.9,279.7 614.1,281.0 614.4,280.5 614.6,277.9 614.9,276.2 615.2,282.7 615.4,280.4 615.7,282.3 615.9,291.0 616.2,279.3 616.4,276.4 616.7,279.8 616.9,282.1 617.2,280.6 617.4,279.4 617.7,279.2 617.9,280.6 618.2,279.1 618.4,281.3 618.7,277.3 618.9,283.1 619.2,280.4 619.4,282.3 619.7,280.5 619.9,282.7 620.2,273.0 620.4,278.9 620.7,281.7 620.9,281.6 621.2,280.9 621.4,277.5 621.6,286.0 621.9,284.8 622.1,283.4 622.4,289.8 622.6,281.7 622.9,268.7 623.1,282.4 623.3,283.8 623.6,283.4 623.8,280.9 624.1,282.5 624.3,283.5 624.5,283.7 624.8,285.4 625.0,294.5 625.3,279.6 625.5,287.8 625.7,280.9 626.0,279.8 626.2,282.4 626.4,281.1 626.7,283.0 626.9,280.1 627.1,282.3 627.4,283.6 627.6,285.5 627.8,281.4 628.1,285.3 628.3,281.5 628.5,285.0 628.8,282.0 629.0,285.2 629.2,282.9 629.5,282.7 629.7,283.5 629.9,282.2 630.2,283.6 630.4,284.1 630.6,286.7 630.9,281.9 631.1,290.0 631.3,279.4 631.5,281.8 631.8,281.8 632.0,282.3 632.2,282.4 632.4,280.2 632.7,281.5 632.9,282.1 633.1,279.8 633.3,283.4 633.6,282.9 633.8,284.3 634.0,282.7 634.2,283.8 634.5,277.1 634.7,286.1 634.9,272.7 635.1,285.6 635.4,283.8 635.6,285.4 635.8,283.6 636.0,285.0 636.2,285.9 636.5,287.4 636.7,284.3 636.9,288.2 637.1,285.2 637.3,306.9 637.6,281.1 637.8,280.6 638.0,283.3 638.2,284.4 638.4,283.7 638.6,285.0 638.9,284.2 639.1,285.2 639.3,285.0 639.5,284.9 639.7,285.0 639.9,285.2 640.1,287.3 640.4,284.5 640.6,282.1 640.8,285.1 641.0,285.0 641.2,284.9 641.4,286.6 641.6,286.1 641.9,282.8 642.1,284.8 642.3,284.8 642.5,284.3 642.7,284.7 642.9,277.9 643.1,287.8 643.3,280.8 643.5,286.9 643.7,288.9 644.0,287.6 644.2,285.9 644.4,287.5 644.6,287.3 644.8,290.9 645.0,283.6 645.2,290.8 645.4,282.9 645.6,283.8 645.8,285.5 646.0,284.0 646.2,286.3 646.4,283.2 646.6,286.0 646.8,285.1 647.0,286.0 647.2,286.0 647.5,287.0 647.7,283.3 647.9,279.3 648.1,289.1 648.3,282.1 648.5,289.3 648.7,280.9 648.9,289.3 649.1,282.8 649.3,288.3 649.5,286.6 649.7,288.5 649.9,289.9 650.1,293.4 650.3,285.3 650.5,300.9 650.7,279.9 650.9,280.2 651.1,286.0 651.3,280.3 651.5,286.9 651.7,283.8 651.9,286.6 652.1,284.8 652.3,285.6 652.5,287.2 652.6,286.6 652.8,287.0 653.0,282.4 653.2,293.1 653.4,304.0 653.6,287.1 653.8,314.6 654.0,288.0 654.2,275.5 654.4,285.7 654.6,289.1 654.8,288.6 655.0,286.7 655.2,289.6 655.4,286.2 655.6,291.7 655.8,283.1 655.9,276.3 656.1,289.4 656.3,275.0 656.5,289.1 656.7,290.7 656.9,289.1 657.1,289.1 657.3,288.3 657.5,290.3 657.7,294.3 657.8,283.6 658.0,293.0 658.2,284.0 658.4,286.0 658.6,286.5 658.8,283.3 659.0,286.8 659.2,293.5 659.4,288.7 659.5,282.1 659.7,286.7 659.9,286.7 660.1,285.1 660.3,287.7 660.5,281.4 660.7,290.3 660.8,275.8 661.0,296.5 661.2,322.2 661.4,290.4 661.6,286.2 661.8,289.5 661.9,291.0 662.1,290.3 662.3,291.4 662.5,292.8 662.7,288.0 662.9,290.1 663.0,290.0 663.2,294.8 663.4,288.6 663.6,293.6 663.8,288.8 664.0,294.0 664.1,289.9 664.3,291.1 664.5,290.8 664.7,289.5 664.9,290.5 665.0,289.0 665.2,286.0 665.4,296.2 665.6,319.1 665.8,286.5 665.9,282.4 666.1,290.0 666.3,289.7 666.5,290.1 666.6,290.9 666.8,290.5 667.0,292.1 667.2,293.9 667.4,288.8 667.5,295.1 667.7,286.8 667.9,287.5 668.1,289.6 668.2,284.2 668.4,290.5 668.6,292.5 668.8,291.4 668.9,284.6 669.1,289.8 669.3,286.8 669.5,288.6 669.6,290.8 669.8,290.7 670.0,289.2 670.2,285.0 670.3,291.6 670.5,283.2 670.7,291.5 670.8,297.2 671.0,292.3 671.2,291.0 671.4,291.8 671.5,292.7 671.7,293.9 671.9,291.8 672.1,300.8 672.2,285.1 672.4,283.5 672.6,291.2 672.7,292.4 672.9,290.4 673.1,289.8 673.2,289.9 673.4,289.6 673.6,286.5 673.8,289.4 673.9,287.6 674.1,295.6 674.3,291.8 674.4,295.6 674.6,304.0 674.8,289.9 674.9,288.5 675.1,290.8 675.3,302.0 675.4,291.2 675.6,290.8 675.8,293.5 675.9,294.2 676.1,294.5 676.3,292.4 676.4,295.1 676.6,290.6 676.8,287.7 676.9,294.4 677.1,302.8 677.3,292.5 677.4,292.0 677.6,292.8 677.8,293.0 677.9,293.2 678.1,291.2 678.2,290.9 678.4,295.5 678.6,294.9 678.7,293.7 678.9,296.7 679.1,292.7 679.2,293.9 679.4,293.2 679.5,297.6 679.7,294.1 679.9,295.2 680.0,295.2 680.2,295.4 680.4,299.2 680.5,287.7 680.7,290.0 680.8,298.6 681.0,336.5 681.2,287.1 681.3,285.3 681.5,292.1 681.6,291.5 681.8,292.7 682.0,291.7 682.1,292.6 682.3,292.6 682.4,290.9 682.6,297.6 682.8,300.3 682.9,290.7 683.1,290.8 683.2,294.3 683.4,297.8 683.6,293.8 683.7,294.6 683.9,294.6 684.0,293.0 684.2,294.6 684.3,290.1 684.5,295.7 684.7,292.4 684.8,296.4 685.0,292.3 685.1,295.9 685.3,292.3 685.4,283.8 685.6,295.8 685.7,285.8 685.9,294.8 686.1,294.4 686.2,295.7 686.4,296.6 686.5,300.0 686.7,294.0 686.8,309.8 687.0,287.8 687.1,304.7 687.3,287.9 687.4,283.8 687.6,292.3 687.7,297.7 687.9,293.5 688.1,294.0 688.2,293.4 688.4,295.3 688.5,299.8 688.7,283.9 688.8,290.9 689.0,291.1 689.1,290.5 689.3,293.3 689.4,297.4 689.6,292.5 689.7,296.2 689.9,293.3 690.0,293.0 690.2,292.8 690.3,293.6 690.5,292.4 690.6,294.2 690.8,290.6 690.9,297.0 691.1,294.6 691.2,295.8 691.4,300.8 691.5,294.4 691.7,296.6 691.8,294.9 692.0,293.9 692.1,293.9 692.3,295.7 692.4,296.6 692.6,293.4 692.7,293.1 692.9,296.8 693.0,297.5 693.2,295.9 693.3,305.7 693.5,294.6 693.6,292.4 693.7,295.3 693.9,293.8 694.0,295.0 694.2,296.3 694.3,297.7 694.5,291.8 694.6,289.4 694.8,304.6 694.9,336.0 695.1,289.3 695.2,282.7 695.4,296.3 695.5,290.0 695.6,296.1 695.8,293.8 695.9,296.4 696.1,296.0 696.2,301.4 696.4,284.7 696.5,287.1 696.7,299.1 696.8,302.5 696.9,294.1 697.1,300.3 697.2,294.5 697.4,291.7 697.5,294.9 697.7,295.9 697.8,295.8 697.9,292.7 698.1,291.4 698.2,303.7 698.4,309.5 698.5,289.5 698.7,290.1 698.8,295.9 698.9,290.4 699.1,296.8 699.2,303.2 699.4,298.0 699.5,290.0 699.6,296.6 699.8,298.4 699.9,300.7 700.1,298.6 700.2,310.8 700.3,293.8 700.5,339.8 700.6,286.9 700.8,293.8 700.9,292.1 701.0,292.1 701.2,293.4 701.3,294.4 701.5,294.3 701.6,294.7 701.7,295.1 701.9,294.3 702.0,295.8 702.2,293.2 702.3,291.7 702.4,295.4 702.6,292.8 702.7,295.5 702.8,292.3 703.0,295.1 703.1,293.9 703.3,294.9 703.4,293.4 703.5,295.1 703.7,287.3 703.8,279.5 703.9,306.5 704.1,289.1 704.2,304.3 704.4,300.8 704.5,299.6 704.6,293.3 704.8,298.2 704.9,298.8 705.0,297.5 705.2,296.7 705.3,303.8 705.4,290.1 705.6,302.9 705.7,291.7 705.8,299.5 706.0,292.3 706.1,286.0 706.3,296.6 706.4,291.4 706.5,295.7 706.7,295.8 706.8,294.4 706.9,296.8 707.1,293.8 707.2,302.4 707.3,303.3 707.5,294.0 707.6,293.0 707.7,298.3 707.9,298.4 708.0,297.2 708.1,304.0 708.3,297.7 708.4,297.8 708.5,296.9 708.7,297.6 708.8,301.8 708.9,292.3 709.0,300.8 709.2,290.9 709.3,288.2 709.4,299.0 709.6,302.9 709.7,295.9 709.8,295.5 710.0,295.7 710.1,296.7 710.2,296.6 710.4,291.1 710.5,288.5 710.6,304.6 710.8,299.6 710.9,297.1 711.0,290.9 711.1,300.9 711.3,290.8 711.4,301.0 711.5,300.0 711.7,299.6 711.8,299.3 711.9,299.0 712.0,300.5 712.2,300.9 712.3,299.7 712.4,304.3 712.6,296.7 712.7,304.3 712.8,296.1 713.0,303.0 713.1,296.5 713.2,299.8 713.3,297.7 713.5,296.6 713.6,297.4 713.7,298.8 713.8,299.8 714.0,295.6 714.1,296.8 714.2,299.5 714.4,306.6 714.5,293.4 714.6,284.6 714.7,299.2 714.9,306.3 715.0,298.4 715.1,297.8 715.2,298.3 715.4,298.0 715.5,299.8 715.6,293.5 715.7,296.3 715.9,291.8 716.0,278.9 716.1,312.0 716.2,316.9 716.4,299.2 716.5,301.8 716.6,299.3 716.7,299.9 716.9,298.7 717.0,299.3 717.1,303.8 717.2,292.3 717.4,298.5 717.5,295.7 717.6,294.9 717.7,299.0 717.9,300.4 718.0,297.7 718.1,292.5 718.2,297.5 718.4,298.4 718.5,297.9 718.6,296.5 718.7,295.0 718.9,300.6 719.0,297.3 719.1,296.1 719.2,284.4 719.3,309.5 719.5,311.0 719.6,300.1 719.7,305.1 719.8,299.8 720.0,300.4 720.1,299.6 720.2,300.2 720.3,301.1 720.4,292.1 720.6,287.9 720.7,308.8 720.8,298.8 720.9,304.0 721.1,302.7 721.2,301.7 721.3,298.7 721.4,301.2 721.5,301.5 721.7,300.5 721.8,302.2 721.9,302.4 722.0,303.8 722.1,308.8 722.3,297.6 722.4,307.0 722.5,296.5 722.6,296.9 722.7,299.6 722.9,293.2 723.0,300.0 723.1,300.7 723.2,300.7 723.3,300.1 723.5,301.0 723.6,302.8 723.7,309.9 723.8,293.5 723.9,298.0 724.1,298.0 724.2,298.9 724.3,298.7 724.4,293.8 724.5,298.9 724.6,299.0 724.8,297.9 724.9,299.1 725.0,302.2 725.1,296.6 725.2,297.2 725.4,302.4 725.5,304.5 725.6,299.4 725.7,307.1 725.8,298.1 725.9,305.8 726.1,299.1 726.2,292.3 726.3,298.1 726.4,298.4 726.5,298.5 726.6,295.1 726.8,291.7 726.9,300.5 727.0,285.6 727.1,314.3 727.2,320.5 727.3,301.0 727.5,302.1 727.6,301.3 727.7,303.0 727.8,301.9 727.9,291.1 728.0,298.4 728.1,302.9 728.3,302.7 728.4,300.1 728.5,300.9 728.6,301.9 728.7,311.8 728.8,298.8 728.9,306.5 729.1,300.2 729.2,285.2 729.3,298.7 729.4,299.5 729.5,300.8 729.6,295.5 729.7,299.0 729.9,293.4 730.0,286.6 730.1,301.8 730.2,282.4 730.3,306.2 730.4,305.9 730.5,301.5 730.7,301.9 730.8,301.0 730.9,296.7 731.0,298.3 731.1,296.2 731.2,288.3 731.3,312.3 731.4,298.3 731.6,306.3 731.7,298.4 731.8,304.5 731.9,295.0 732.0,302.9 732.1,303.4 732.2,302.4 732.3,300.7 732.5,299.8 732.6,302.9 732.7,297.6 732.8,306.0 732.9,298.5 733.0,305.5 733.1,294.3 733.2,307.5 733.4,296.3 733.5,306.0 733.6,307.6 733.7,307.1 733.8,308.5 733.9,312.7 734.0,296.6 734.1,326.2 734.2,286.0 734.3,294.8 734.5,296.8 734.6,293.9 734.7,300.3 734.8,303.3 734.9,299.7 735.0,296.8 735.1,299.4 735.2,302.4 735.3,302.1 735.4,301.2 735.6,301.4 735.7,302.7 735.8,306.5 735.9,300.8 736.0,317.2 736.1,296.5 736.2,297.2 736.3,298.5 736.4,297.9 736.5,298.2 736.6,294.5 736.8,292.4 736.9,303.7 737.0,294.1 737.1,302.1 737.2,285.3 737.3,315.2 737.4,295.4 737.5,309.2 737.6,309.7 737.7,305.1 737.8,301.4 737.9,303.7 738.1,304.0 738.2,304.3 738.3,300.2 738.4,301.1 738.5,301.7 738.6,298.1 738.7,303.4 738.8,293.7 738.9,306.3 739.0,312.7 739.1,302.6 739.2,300.5 739.3,303.8 739.4,304.0 739.5,305.4 739.7,297.6 739.8,302.6 739.9,296.1 740.0,293.3 740.1,298.0 740.2,272.4 740.3,315.7 740.4,307.7 740.5,306.6 740.6,302.8 740.7,304.2 740.8,305.9 740.9,303.8 741.0,309.9 741.1,312.3 741.2,298.0 741.3,298.1 741.4,305.6 741.6,303.9 741.7,304.4 741.8,309.2 741.9,303.2 742.0,301.1 742.1,303.1 742.2,304.8 742.3,301.5 742.4,310.9 742.5,306.9 742.6,312.8 742.7,366.3 742.8,289.7 742.9,281.1 743.0,306.7 743.1,301.6 743.2,303.6 743.3,303.4 743.4,302.5 743.5,303.6 743.6,298.2 743.7,313.9 743.8,310.6 743.9,308.9 744.0,323.7 744.2,299.9 744.3,311.7 744.4,301.0 744.5,308.9 744.6,302.3 744.7,300.4 744.8,302.9 744.9,300.9 745.0,301.2 745.1,307.8 745.2,309.3 745.3,297.1 745.4,295.5 745.5,306.4 745.6,302.9 745.7,305.0 745.8,309.9 745.9,302.8 746.0,303.0 746.1,302.5 746.2,301.9 746.3,297.0 746.4,313.0 746.5,304.2 746.6,322.1 746.7,360.8 746.8,297.5 746.9,315.0 747.0,299.6 747.1,302.9 747.2,302.5 747.3,300.7 747.4,302.7 747.5,303.1 747.6,306.1 747.7,298.3 747.8,302.1 747.9,302.9 748.0,303.7 748.1,302.4 748.2,300.2 748.3,304.9 748.4,310.8 748.5,303.7 748.6,292.6 748.7,303.3 748.8,303.5 748.9,304.0 749.0,307.1 749.1,315.0 749.2,291.5 749.3,293.4 749.4,302.8 749.5,293.4 749.6,305.9 749.7,303.7 749.8,303.7 749.9,304.1 750.0,303.6 750.1,301.7 750.2,299.9 750.3,312.9 750.4,315.8 750.5,295.0 750.6,297.7 750.7,304.4 750.8,306.9 750.9,301.3 751.0,298.5 751.1,302.0 751.2,301.3 751.3,302.1 751.4,298.3 751.5,298.6 751.6,301.4 751.7,293.6 751.8,307.2 751.9,286.9 752.0,334.6 752.1,334.3 752.2,304.6 752.3,311.6 752.4,304.1 752.5,304.6 752.6,303.6 752.6,299.3 752.7,296.0 752.8,311.3 752.9,296.2 753.0,327.8 753.1,319.6 753.2,308.6 753.3,312.6 753.4,307.2 753.5,311.5 753.6,306.6 753.7,302.8 753.8,307.4 753.9,308.4 754.0,310.5 754.1,302.1 754.2,304.3 754.3,314.6 754.4,322.2 754.5,306.9 754.6,332.7 754.7,297.7 754.8,293.4 754.9,305.0 755.0,304.6 755.1,306.3 755.1,301.9 755.2,307.3 755.3,305.2 755.4,309.3 755.5,309.4 755.6,339.9 755.7,296.1 755.8,316.9 755.9,296.4 756.0,293.4 756.1,301.4 756.2,301.6 756.3,300.6 756.4,301.2 756.5,300.9 756.6,308.5 756.7,303.5 756.8,310.2 756.9,314.5 756.9,300.0 757.0,297.0 757.1,306.9 757.2,311.1 757.3,304.6 757.4,305.9 757.5,305.3 757.6,305.0 757.7,306.1 757.8,302.8 757.9,302.3 758.0,315.6 758.1,336.1 758.2,295.6 758.3,300.7 758.4,302.5 758.4,304.3 758.5,303.0 758.6,304.0 758.7,303.4 758.8,302.0 758.9,300.5 759.0,311.5 759.1,309.6 759.2,300.7 759.3,300.8 759.4,306.0 759.5,303.5 759.6,305.8 759.7,307.4 759.7,305.0 759.8,296.9 759.9,304.3 760.0,305.5 760.1,305.7 760.2,303.4 760.3,299.2 760.4,327.5 760.5,363.6 760.6,296.7 760.7,316.5 760.8,298.4 760.8,307.5 760.9,300.6 761.0,299.4 761.1,301.3 761.2,301.0 761.3,299.8 761.4,302.1 761.5,294.1 761.6,316.8 761.7,305.5 761.8,307.1 761.8,301.6 761.9,307.5 762.0,306.3 762.1,305.6 762.2,298.9 762.3,304.0 762.4,304.6 762.5,301.1 762.6,311.2 762.7,306.1 762.8,308.7 762.8,304.9 762.9,310.1 763.0,313.3 763.1,305.1 763.2,300.5 763.3,307.3 763.4,307.4 763.5,308.2 763.6,309.1 763.7,312.0 763.7,297.4 763.8,311.8 763.9,297.0 764.0,305.0 764.1,301.3 764.2,305.1 764.3,302.6 764.4,306.5 764.5,302.8 764.6,300.0 764.6,303.0 764.7,302.8 764.8,301.8 764.9,307.1 765.0,304.8 765.1,301.7 765.2,297.6 765.3,310.4 765.4,312.1 765.4,301.8 765.5,289.4 765.6,305.8 765.7,299.6 765.8,303.9 765.9,302.8 766.0,301.8 766.1,302.0 766.1,293.2 766.2,325.5 766.3,316.7 766.4,302.6 766.5,294.9 766.6,311.3 766.7,305.5 766.8,308.4 766.9,296.1 766.9,307.1 767.0,292.2 767.1,309.0 767.2,292.3 767.3,298.5 767.4,304.8 767.5,296.7 767.6,312.5 767.6,304.7 767.7,309.2 767.8,313.7 767.9,304.9 768.0,305.0 768.1,305.2 768.2,300.4 768.2,302.1 768.3,307.8 768.4,302.0 768.5,307.8 768.6,296.7 768.7,323.6 768.8,333.3 768.9,302.0 768.9,301.0 769.0,305.7 769.1,306.2 769.2,305.1 769.3,304.5 769.4,303.2 769.5,306.6 769.5,300.9 769.6,311.8 769.7,304.6 769.8,306.5 769.9,295.4 770.0,313.0 770.1,309.6 770.1,308.0 770.2,292.6 770.3,305.0 770.4,295.5 770.5,306.9 770.6,309.1 770.7,308.7 770.7,301.6 770.8,296.8 770.9,312.8 771.0,297.1 771.1,318.8 771.2,314.7 771.3,307.2 771.3,310.4 771.4,309.1 771.5,309.9 771.6,311.8 771.7,301.1 771.8,311.3 771.9,301.0 771.9,307.9 772.0,302.4 772.1,303.1 772.2,305.2 772.3,299.4 772.4,306.9 772.4,300.5 772.5,306.5 772.6,297.7 772.7,306.0 772.8,301.6 772.9,304.1 773.0,302.8 773.0,302.1 773.1,299.2 773.2,280.9 773.3,322.3 773.4,313.3 773.5,310.3 773.5,307.4 773.6,308.4 773.7,309.6 773.8,307.9 773.9,314.1 774.0,317.6 774.0,295.2 774.1,296.2 774.2,313.8 774.3,313.4 774.4,304.1 774.5,293.6 774.5,307.7 774.6,304.3 774.7,304.9 774.8,306.1 774.9,300.5 775.0,312.9 775.0,305.6 775.1,313.9 775.2,301.5 775.3,322.0 775.4,312.7 775.5,314.2 775.5,316.5 775.6,311.6 775.7,312.6 775.8,312.3 775.9,313.0 775.9,316.6 776.0,297.8 776.1,312.2 776.2,306.0 776.3,313.9 776.4,310.8 776.4,332.0 776.5,297.2 776.6,303.1 776.7,304.9 776.8,302.9 776.8,306.7 776.9,307.9 777.0,309.8 777.1,299.5 777.2,306.0 777.3,310.3 777.3,322.9 777.4,297.8 777.5,305.5 777.6,301.8 777.7,296.9 777.7,305.8 777.8,307.0 777.9,305.6 778.0,282.5 778.1,300.8 778.2,307.8 778.2,302.0 778.3,308.7 778.4,300.1 778.5,313.5 778.6,306.1 778.6,309.1 778.7,303.0 778.8,308.9 778.9,307.4 779.0,307.8 779.0,305.2 779.1,305.9 779.2,307.8 779.3,302.6 779.4,318.3 779.4,312.3 779.5,307.1 779.6,302.5 779.7,311.9 779.8,307.6 779.8,310.6 779.9,308.4 780.0,310.3 780.1,311.4 780.2,313.0 780.2,303.5 780.3,313.4 780.4,302.8 780.5,314.1 780.6,298.2 780.6,293.8 780.7,312.0 780.8,307.0 780.9,309.4 781.0,309.4 781.0,309.1 781.1,310.1 781.2,310.2 781.3,307.8 781.4,307.7 781.4,326.2 781.5,376.0 781.6,292.1 781.7,302.3 781.8,303.2 781.8,304.9 781.9,305.0 782.0,305.6 782.1,305.6 782.1,300.2 782.2,303.2 782.3,310.9 782.4,304.9 782.5,310.9 782.5,305.7 782.6,310.3 782.7,305.8 782.8,310.6 782.9,309.2 782.9,309.2 783.0,306.1 783.1,309.2 783.2,307.6 783.2,308.7 783.3,312.4 783.4,314.3 783.5,300.1 783.6,299.4 783.6,321.7 783.7,327.3 783.8,306.3 783.9,314.9 783.9,307.5 784.0,304.8 784.1,310.0 784.2,305.9 784.3,312.5 784.3,308.3 784.4,322.8 784.5,293.1 784.6,306.1 784.6,300.8 784.7,299.4 784.8,309.2 784.9,307.8 785.0,308.6 785.0,309.9 785.1,309.7 785.2,308.0 785.3,313.1 785.3,302.0 785.4,316.4 785.5,297.7 785.6,308.7 785.7,304.8 785.7,318.5 785.8,299.9 785.9,301.0 786.0,305.8 786.0,306.5 786.1,307.0 786.2,306.0 786.3,308.9 786.3,306.5 786.4,316.3 786.5,292.9 786.6,298.2 786.6,310.8 786.7,313.1 786.8,305.1 786.9,312.0 787.0,304.3 787.0,294.6 787.1,307.0 787.2,299.8 787.3,308.3 787.3,298.1 787.4,302.5 787.5,317.1 787.6,321.3 787.6,302.9 787.7,323.1 787.8,296.0 787.9,299.0 787.9,302.6 788.0,303.0 788.1,303.0 788.2,302.3 788.2,302.4 788.3,298.1 788.4,292.6 788.5,328.9 788.5,302.7 788.6,328.8 788.7,332.4 788.8,303.3 788.8,306.7 788.9,306.7 789.0,305.8 789.1,306.3 789.1,306.6 789.2,303.8 789.3,315.4 789.4,311.4 789.4,302.9 789.5,299.5 789.6,323.5 789.7,327.5 789.7,304.7 789.8,312.0 789.9,306.1 790.0,304.9 790.0,306.9 790.1,306.4 790.2,306.1 790.3,313.7 790.3,311.0 790.4,306.6 790.5,309.4 790.6,308.4 790.6,314.8 790.7,305.6 790.8,313.5 790.9,304.0 790.9,303.2 791.0,305.3 791.1,306.0 791.2,304.0 791.2,313.7 791.3,310.2 791.4,306.4 791.5,308.2 791.5,306.6 791.6,306.7 791.7,307.6 791.7,306.2 791.8,308.3 791.9,297.9 792.0,309.2 792.0,305.8 792.1,310.2 792.2,307.5 792.3,315.0 792.3,301.6 792.4,321.5 792.5,291.6 792.6,291.8 792.6,308.3 792.7,305.2 792.8,305.4 792.8,304.2 792.9,304.7 793.0,301.5 793.1,302.0 793.1,305.5 793.2,295.9 793.3,323.4 793.4,298.4 793.4,336.5 793.5,313.1 793.6,318.9 793.6,320.9 793.7,312.1 793.8,312.1 793.9,312.5 793.9,313.8 794.0,315.7 794.1,304.6 794.2,316.7 794.2,305.0 794.3,318.2 794.4,304.7 794.4,316.5 794.5,307.9 794.6,303.8 794.7,300.5 794.7,307.5 794.8,307.0 794.9,307.9 795.0,312.0 795.0,296.9 795.1,313.6 795.2,299.2 795.2,317.0 795.3,297.0 795.4,310.9 795.5,298.1 795.5,300.2 795.6,303.3 795.7,299.8 795.7,304.4 795.8,300.6 795.9,303.5 796.0,306.3 796.0,302.0 796.1,315.3 796.2,310.7 796.2,303.5 796.3,299.2 796.4,313.5 796.5,316.3 796.5,305.5 796.6,296.6 796.7,307.9 796.7,308.4 796.8,308.6 796.9,308.7 797.0,312.7 797.0,300.8 797.1,311.8 797.2,295.6 797.2,290.7 797.3,314.6 797.4,305.2 797.5,310.5 797.5,308.4 797.6,309.7 797.7,311.2 797.7,312.6 797.8,299.2 797.9,308.4 797.9,311.0 798.0,319.0 798.1,300.9 798.2,304.7 798.2,312.6 798.3,298.8 798.4,300.4 798.4,305.9 798.5,306.7 798.6,306.6 798.6,310.3 798.7,312.3 798.8,323.6 798.9,297.5 798.9,338.1 799.0,287.5 799.1,303.4 799.1,296.6 799.2,301.5 799.3,300.8 799.3,302.3 799.4,302.3 799.5,303.4 799.6,301.1 799.6,312.4 799.7,318.5 799.8,291.2 799.8,302.3 799.9,305.0 800.0,319.0" fill="none" stroke="#ef4444" stroke-width="1.5" stroke-linejoin="round"/>
  <polyline clip-path="url(#u37)" points="44.5,216.6 58.0,215.5 70.4,214.4 81.8,213.5 92.3,211.8 102.1,210.2 111.2,209.0 119.8,207.1 128.0,205.7 135.6,204.2 142.9,202.2 149.9,200.8 156.5,198.8 162.8,196.8 168.8,194.7 174.6,192.5 180.2,190.5 185.6,187.6 190.7,185.0 195.7,182.1 200.5,179.3 205.2,175.8 209.7,172.3 214.1,168.2 218.3,163.7 222.4,158.5 226.4,152.4 230.3,145.0 234.1,135.3 237.8,121.7 241.4,97.4 244.9,38.6 248.3,105.3 251.6,124.9 254.9,136.7 258.1,145.1 261.2,151.7 264.3,157.0 267.3,161.5 270.2,165.4 273.1,168.8 275.9,171.9 278.6,174.4 281.3,177.2 284.0,179.4 286.6,181.5 289.2,184.0 291.7,185.5 294.1,187.1 296.6,188.7 299.0,190.2 301.3,191.7 303.6,193.0 305.9,194.5 308.1,195.5 310.3,196.5 312.5,197.9 314.6,199.0 316.7,200.1 318.8,200.8 320.8,202.1 322.9,202.5 324.8,203.6 326.8,204.5 328.7,205.4 330.6,206.2 332.5,207.0 334.4,207.7 336.2,207.8 338.0,209.2 339.8,209.9 341.6,210.7 343.3,211.0 345.0,211.9 346.7,212.3 348.4,213.0 350.1,213.6 351.7,214.0 353.3,214.9 355.0,215.1 356.5,216.1 358.1,216.5 359.7,217.1 361.2,217.5 362.7,218.0 364.2,219.2 365.7,219.3 367.2,219.6 368.6,220.1 370.1,220.5 371.5,221.0 372.9,221.6 374.3,222.4 375.7,222.3 377.1,222.4 378.4,223.3 379.8,222.7 381.1,224.1 382.4,223.3 383.7,224.4 385.0,225.1 386.3,225.5 387.6,225.9 388.9,226.5 390.1,226.5 391.4,227.4 392.6,227.1 393.8,227.1 395.0,227.9 396.2,228.0 397.4,228.6 398.6,228.8 399.7,229.1 400.9,229.8 402.1,230.0 403.2,230.3 404.3,230.8 405.4,230.8 406.6,231.1 407.7,231.4 408.8,231.1 409.9,232.0 410.9,233.1 412.0,232.7 413.1,233.2 414.1,233.3 415.2,233.7 416.2,234.0 417.2,234.1 418.3,234.9 419.3,234.4 420.3,235.2 421.3,234.9 422.3,234.0 423.3,235.4 424.3,237.1 425.2,236.0 426.2,237.5 427.2,236.8 428.1,237.2 429.1,237.3 430.0,237.4 431.0,237.4 431.9,238.1 432.8,238.1 433.7,238.5 434.7,238.4 435.6,239.0 436.5,239.1 437.4,239.5 438.3,239.5 439.1,239.9 440.0,239.9 440.9,240.2 441.8,240.5 442.6,241.0 443.5,240.8 444.3,241.5 445.2,241.2 446.0,242.3 446.9,241.5 447.7,242.5 448.5,242.1 449.3,242.1 450.2,242.2 451.0,243.3 451.8,243.1 452.6,243.5 453.4,244.1 454.2,243.5 455.0,245.4 455.8,243.4 456.5,243.6 457.3,244.0 458.1,245.4 458.9,244.6 459.6,244.7 460.4,244.7 461.2,245.3 461.9,244.9 462.7,245.8 463.4,245.7 464.1,246.0 464.9,246.1 465.6,246.2 466.3,245.6 467.1,246.5 467.8,249.2 468.5,247.1 469.2,247.8 469.9,247.6 470.7,247.5 471.4,247.7 472.1,247.8 472.8,247.8 473.4,248.3 474.1,247.4 474.8,249.0 475.5,249.8 476.2,249.1 476.9,247.8 477.5,249.1 478.2,249.9 478.9,249.8 479.6,249.6 480.2,250.0 480.9,249.9 481.5,250.4 482.2,250.5 482.8,252.5 483.5,250.0 484.1,250.4 484.8,250.7 485.4,250.3 486.0,250.8 486.7,251.8 487.3,251.6 487.9,251.4 488.6,251.7 489.2,251.3 489.8,251.0 490.4,252.2 491.0,250.1 491.6,253.3 492.2,253.9 492.8,253.0 493.4,253.7 494.0,253.6 494.6,252.0 495.2,253.4 495.8,252.8 496.4,253.3 497.0,253.5 497.6,252.8 498.2,254.8 498.8,255.5 499.3,254.2 499.9,254.5 500.5,254.6 501.1,253.9 501.6,254.7 502.2,255.2 502.8,254.9 503.3,255.9 503.9,255.8 504.4,255.9 505.0,256.9 505.6,255.3 506.1,256.9 506.7,255.5 507.2,256.0 507.7,256.1 508.3,255.9 508.8,256.5 509.4,255.7 509.9,256.4 510.4,256.6 511.0,256.7 511.5,256.6 512.0,256.2 512.6,257.3 513.1,255.5 513.6,258.1 514.1,257.5 514.7,257.8 515.2,260.7 515.7,258.2 516.2,259.6 516.7,259.0 517.2,258.3 517.7,258.8 518.2,258.8 518.7,259.4 519.2,259.0 519.7,260.5 520.2,258.8 520.7,261.4 521.2,259.0 521.7,260.2 522.2,259.5 522.7,259.6 523.2,259.8 523.7,259.9 524.2,260.0 524.7,260.4 525.1,261.2 525.6,259.7 526.1,260.1 526.6,260.3 527.1,259.4 527.5,260.7 528.0,262.9 528.5,261.2 528.9,261.0 529.4,261.3 529.9,261.3 530.3,261.7 530.8,261.4 531.3,262.0 531.7,261.9 532.2,263.8 532.6,261.3 533.1,263.1 533.6,261.8 534.0,262.1 534.5,262.2 534.9,261.8 535.4,262.1 535.8,262.9 536.2,262.7 536.7,263.1 537.1,263.8 537.6,262.3 538.0,262.0 538.5,263.4 538.9,264.0 539.3,263.4 539.8,262.2 540.2,263.5 540.6,263.3 541.1,263.3 541.5,264.7 541.9,264.2 542.3,265.0 542.8,266.3 543.2,263.5 543.6,265.0 544.0,264.4 544.5,270.5 544.9,263.9 545.3,264.1 545.7,264.6 546.1,264.3 546.5,264.9 547.0,264.2 547.4,264.7 547.8,264.9 548.2,264.4 548.6,266.0 549.0,266.9 549.4,265.1 549.8,264.3 550.2,266.0 550.6,259.6 551.0,265.0 551.4,268.3 551.8,266.5 552.2,266.1 552.6,266.3 553.0,267.0 553.4,268.4 553.8,265.1 554.2,265.2 554.6,266.9 555.0,270.4 555.4,266.3 555.8,267.2 556.2,266.9 556.5,266.0 556.9,266.4 557.3,267.9 557.7,267.5 558.1,267.4 558.5,268.2 558.8,266.6 559.2,266.4 559.6,267.5 560.0,265.2 560.3,268.0 560.7,267.3 561.1,267.6 561.5,269.9 561.8,268.3 562.2,268.6 562.6,268.5 563.0,268.4 563.3,268.1 563.7,268.8 564.1,267.6 564.4,269.6 564.8,273.7 565.2,268.5 565.5,269.7 565.9,268.9 566.2,269.4 566.6,269.0 567.0,269.2 567.3,268.5 567.7,269.8 568.0,268.4 568.4,270.9 568.7,271.1 569.1,269.6 569.4,266.6 569.8,270.6 570.1,268.8 570.5,270.2 570.8,270.9 571.2,270.6 571.5,270.0 571.9,269.8 572.2,271.1 572.6,270.8 572.9,271.4 573.3,272.6 573.6,270.8 574.0,273.4 574.3,270.8 574.6,269.3 575.0,271.0 575.3,270.9 575.6,271.3 576.0,270.5 576.3,271.0 576.7,270.7 577.0,269.2 577.3,272.9 577.7,271.7 578.0,272.3 578.3,272.2 578.7,272.2 579.0,273.1 579.3,272.1 579.6,274.9 580.0,273.7 580.3,268.5 580.6,271.8 580.9,272.1 581.3,271.7 581.6,273.6 581.9,275.5 582.2,272.0 582.6,273.5 582.9,272.6 583.2,270.6 583.5,272.8 583.8,273.1 584.2,273.4 584.5,271.3 584.8,272.6 585.1,272.1 585.4,271.3 585.7,273.5 586.1,270.3 586.4,274.9 586.7,274.6 587.0,273.9 587.3,275.1 587.6,273.8 587.9,275.2 588.2,274.3 588.5,274.3 588.8,274.2 589.2,274.6 589.5,275.4 589.8,273.1 590.1,271.8 590.4,275.1 590.7,273.9 591.0,274.9 591.3,272.3 591.6,274.6 591.9,275.8 592.2,275.2 592.5,274.1 592.8,274.6 593.1,275.0 593.4,274.7 593.7,275.0 594.0,273.5 594.3,275.9 594.6,274.9 594.9,275.7 595.2,279.3 595.5,275.5 595.7,278.5 596.0,276.7 596.3,274.6 596.6,275.7 596.9,276.3 597.2,276.6 597.5,276.2 597.8,277.2 598.1,276.3 598.4,281.2 598.6,275.7 598.9,272.7 599.2,276.6 599.5,271.9 599.8,275.4 600.1,275.7 600.4,275.6 600.6,276.1 600.9,275.7 601.2,275.7 601.5,272.9 601.8,277.1 602.0,270.0 602.3,278.3 602.6,275.8 602.9,276.9 603.2,280.5 603.4,277.8 603.7,277.5 604.0,277.1 604.3,277.4 604.5,275.2 604.8,279.7 605.1,277.4 605.4,279.6 605.6,284.2 605.9,277.8 606.2,277.5 606.5,278.5 606.7,276.6 607.0,278.2 607.3,277.2 607.5,277.7 607.8,278.4 608.1,278.4 608.3,277.8 608.6,276.1 608.9,279.2 609.2,276.1 609.4,279.6 609.7,278.1 609.9,279.2 610.2,280.2 610.5,279.9 610.7,277.8 611.0,279.0 611.3,280.0 611.5,281.4 611.8,278.0 612.1,279.6 612.3,279.5 612.6,287.0 612.8,278.0 613.1,277.1 613.4,278.6 613.6,280.7 613.9,279.3 614.1,279.6 614.4,279.3 614.6,279.8 614.9,278.7 615.2,281.5 615.4,283.5 615.7,279.2 615.9,283.0 616.2,279.0 616.4,283.0 616.7,279.2 616.9,283.1 617.2,280.4 617.4,279.9 617.7,279.7 617.9,280.6 618.2,280.5 618.4,279.8 618.7,277.6 618.9,282.1 619.2,283.1 619.4,280.8 619.7,289.3 619.9,281.5 620.2,276.9 620.4,280.2 620.7,281.1 620.9,280.4 621.2,281.7 621.4,281.7 621.6,282.4 621.9,287.7 622.1,277.8 622.4,274.4 622.6,281.6 622.9,283.4 623.1,281.1 623.3,280.9 623.6,281.0 623.8,281.4 624.1,281.0 624.3,281.3 624.5,280.3 624.8,282.3 625.0,281.7 625.3,281.1 625.5,275.3 625.7,283.3 626.0,282.5 626.2,282.6 626.4,280.8 626.7,281.9 626.9,282.9 627.1,282.5 627.4,282.1 627.6,282.2 627.8,282.0 628.1,280.6 628.3,283.5 628.5,284.5 628.8,282.4 629.0,285.5 629.2,282.1 629.5,285.6 629.7,282.8 629.9,283.2 630.2,282.6 630.4,282.8 630.6,280.9 630.9,285.5 631.1,286.0 631.3,282.2 631.5,278.8 631.8,284.4 632.0,289.2 632.2,283.8 632.4,283.0 632.7,283.3 632.9,284.9 633.1,284.4 633.3,284.7 633.6,286.4 633.8,281.8 634.0,284.4 634.2,282.0 634.5,278.3 634.7,284.5 634.9,278.5 635.1,284.5 635.4,280.8 635.6,283.5 635.8,283.7 636.0,283.5 636.2,284.0 636.5,283.1 636.7,285.0 636.9,284.5 637.1,284.1 637.3,282.1 637.6,284.9 637.8,282.1 638.0,284.7 638.2,283.6 638.4,283.9 638.6,285.9 638.9,285.2 639.1,284.0 639.3,284.4 639.5,283.7 639.7,279.9 639.9,287.7 640.1,287.0 640.4,285.7 640.6,292.5 640.8,285.2 641.0,286.3 641.2,285.4 641.4,286.1 641.6,285.9 641.9,284.2 642.1,283.6 642.3,286.8 642.5,284.1 642.7,288.5 642.9,295.9 643.1,284.9 643.3,288.7 643.5,286.0 643.7,283.2 644.0,285.6 644.2,285.3 644.4,285.2 644.6,286.2 644.8,284.7 645.0,288.9 645.2,291.4 645.4,284.9 645.6,287.5 645.8,285.6 646.0,284.3 646.2,286.4 646.4,283.1 646.6,285.8 646.8,285.8 647.0,285.8 647.2,286.4 647.5,285.8 647.7,286.5 647.9,284.3 648.1,289.1 648.3,295.0 648.5,285.5 648.7,281.7 648.9,286.9 649.1,284.9 649.3,286.6 649.5,285.9 649.7,286.4 649.9,286.3 650.1,285.4 650.3,288.0 650.5,287.3 650.7,286.5 650.9,282.7 651.1,288.4 651.3,290.2 651.5,287.7 651.7,284.9 651.9,286.7 652.1,288.5 652.3,287.9 652.5,284.8 652.6,283.6 652.8,290.6 653.0,288.8 653.2,288.0 653.4,284.9 653.6,289.5 653.8,295.9 654.0,288.5 654.2,287.3 654.4,288.4 654.6,289.0 654.8,288.9 655.0,289.1 655.2,290.4 655.4,287.6 655.6,290.6 655.8,287.0 655.9,287.7 656.1,288.3 656.3,294.5 656.5,288.1 656.7,288.4 656.9,288.2 657.1,289.0 657.3,288.5 657.5,288.5 657.7,285.9 657.8,294.7 658.0,301.7 658.2,284.4 658.4,285.8 658.6,288.6 658.8,290.3 659.0,289.1 659.2,284.8 659.4,288.8 659.5,288.3 659.7,289.2 659.9,288.5 660.1,290.4 660.3,287.7 660.5,290.8 660.7,286.8 660.8,285.4 661.0,289.0 661.2,286.5 661.4,288.7 661.6,293.8 661.8,289.7 661.9,289.9 662.1,289.5 662.3,290.7 662.5,292.5 662.7,286.7 662.9,289.3 663.0,288.1 663.2,286.9 663.4,289.6 663.6,288.0 663.8,289.8 664.0,284.9 664.1,288.5 664.3,290.8 664.5,290.2 664.7,287.9 664.9,288.0 665.0,290.6 665.2,288.6 665.4,291.2 665.6,291.5 665.8,290.1 665.9,288.1 666.1,290.8 666.3,284.0 666.5,289.5 666.6,290.3 666.8,289.6 667.0,290.5 667.2,289.7 667.4,290.7 667.5,289.0 667.7,291.0 667.9,286.3 668.1,293.0 668.2,296.9 668.4,291.7 668.6,289.9 668.8,292.0 668.9,289.8 669.1,291.9 669.3,292.3 669.5,296.2 669.6,284.3 669.8,290.0 670.0,287.5 670.2,283.4 670.3,291.7 670.5,290.8 670.7,290.6 670.8,293.7 671.0,290.3 671.2,292.0 671.4,291.8 671.5,291.5 671.7,290.7 671.9,293.9 672.1,295.6 672.2,290.8 672.4,294.3 672.6,291.0 672.7,296.8 672.9,291.1 673.1,290.1 673.2,290.8 673.4,293.7 673.6,293.2 673.8,290.9 673.9,293.6 674.1,291.8 674.3,298.6 674.4,287.3 674.6,287.3 674.8,291.6 674.9,292.9 675.1,291.4 675.3,292.3 675.4,291.9 675.6,291.2 675.8,291.9 675.9,292.5 676.1,293.4 676.3,291.7 676.4,296.6 676.6,287.9 676.8,285.1 676.9,293.3 677.1,300.9 677.3,291.5 677.4,289.9 677.6,291.4 677.8,292.1 677.9,291.4 678.1,292.6 678.2,292.2 678.4,291.7 678.6,289.9 678.7,294.3 678.9,295.5 679.1,292.0 679.2,289.2 679.4,292.9 679.5,293.1 679.7,292.6 679.9,294.8 680.0,294.1 680.2,291.6 680.4,294.7 680.5,291.2 680.7,294.1 680.8,291.4 681.0,292.5 681.2,292.6 681.3,298.7 681.5,292.0 681.6,293.2 681.8,292.5 682.0,293.7 682.1,293.5 682.3,289.7 682.4,293.3 682.6,288.8 682.8,284.8 682.9,299.7 683.1,306.3 683.2,291.6 683.4,297.4 683.6,292.5 683.7,285.8 683.9,291.8 684.0,292.6 684.2,291.9 684.3,292.4 684.5,289.8 684.7,295.9 684.8,293.2 685.0,294.2 685.1,292.8 685.3,293.6 685.4,288.2 685.6,294.2 685.7,294.8 685.9,293.7 686.1,293.3 686.2,293.1 686.4,293.1 686.5,291.3 686.7,294.3 686.8,287.6 687.0,300.6 687.1,299.8 687.3,295.2 687.4,297.6 687.6,294.9 687.7,295.8 687.9,295.5 688.1,292.2 688.2,294.8 688.4,294.2 688.5,297.2 688.7,289.0 688.8,289.5 689.0,294.2 689.1,286.4 689.3,298.1 689.4,296.1 689.6,295.9 689.7,299.2 689.9,296.5 690.0,293.5 690.2,296.0 690.3,295.4 690.5,297.6 690.6,295.0 690.8,302.3 690.9,290.6 691.1,294.5 691.2,292.8 691.4,288.3 691.5,294.7 691.7,294.9 691.8,294.3 692.0,295.3 692.1,294.3 692.3,295.8 692.4,294.0 692.6,299.4 692.7,302.9 692.9,292.0 693.0,293.1 693.2,295.6 693.3,301.5 693.5,294.5 693.6,298.5 693.7,295.6 693.9,295.5 694.0,296.1 694.2,294.0 694.3,296.4 694.5,295.4 694.6,299.6 694.8,292.6 694.9,294.5 695.1,295.2 695.2,304.1 695.4,294.1 695.5,288.3 695.6,294.5 695.8,293.1 695.9,294.5 696.1,292.8 696.2,292.7 696.4,296.3 696.5,294.8 696.7,294.7 696.8,291.2 696.9,296.8 697.1,296.9 697.2,295.3 697.4,299.0 697.5,295.2 697.7,295.9 697.8,294.8 697.9,295.8 698.1,294.2 698.2,296.9 698.4,295.3 698.5,294.1 698.7,284.8 698.8,302.4 698.9,308.6 699.1,296.6 699.2,292.9 699.4,295.6 699.5,295.8 699.6,296.1 699.8,297.9 699.9,297.4 700.1,297.6 700.2,299.1 700.3,293.7 700.5,287.8 700.6,300.6 700.8,298.9 700.9,298.2 701.0,298.1 701.2,298.4 701.3,292.0 701.5,297.0 701.6,297.8 701.7,298.5 701.9,296.6 702.0,299.4 702.2,294.3 702.3,291.8 702.4,298.3 702.6,292.0 702.7,299.0 702.8,294.6 703.0,298.1 703.1,299.6 703.3,298.9 703.4,299.9 703.5,301.4 703.7,298.9 703.8,309.9 703.9,291.1 704.1,298.8 704.2,294.0 704.4,292.7 704.5,296.5 704.6,292.0 704.8,296.0 704.9,297.8 705.0,297.5 705.2,297.3 705.3,297.3 705.4,298.3 705.6,300.0 705.7,295.0 705.8,292.2 706.0,299.9 706.1,303.9 706.3,297.7 706.4,295.8 706.5,298.4 706.7,292.7 706.8,297.3 706.9,298.2 707.1,297.5 707.2,301.5 707.3,305.0 707.5,295.8 707.6,303.7 707.7,295.1 707.9,296.1 708.0,297.3 708.1,294.0 708.3,297.6 708.4,298.0 708.5,298.0 708.7,299.0 708.8,300.3 708.9,298.0 709.0,307.7 709.2,287.5 709.3,281.3 709.4,303.2 709.6,295.1 709.7,300.3 709.8,307.3 710.0,300.8 710.1,292.0 710.2,299.2 710.4,299.4 710.5,304.6 710.6,286.8 710.8,292.3 710.9,300.7 711.0,307.4 711.1,295.0 711.3,295.4 711.4,297.8 711.5,301.5 711.7,298.3 711.8,300.6 711.9,300.1 712.0,298.7 712.2,304.6 712.3,289.8 712.4,298.5 712.6,295.0 712.7,299.5 712.8,296.0 713.0,302.6 713.1,295.9 713.2,298.5 713.3,297.1 713.5,295.9 713.6,297.2 713.7,295.8 713.8,296.2 714.0,297.3 714.1,294.1 714.2,301.9 714.4,303.5 714.5,296.3 714.6,290.7 714.7,299.5 714.9,292.2 715.0,298.8 715.1,297.8 715.2,298.8 715.4,298.7 715.5,301.4 715.6,290.0 715.7,290.1 715.9,300.6 716.0,292.2 716.1,302.0 716.2,292.2 716.4,302.4 716.5,300.6 716.6,301.4 716.7,300.9 716.9,301.9 717.0,299.4 717.1,307.4 717.2,290.4 717.4,303.6 717.5,294.3 717.6,308.1 717.7,291.6 717.9,287.1 718.0,297.7 718.1,292.8 718.2,297.5 718.4,295.3 718.5,297.0 718.6,296.2 718.7,295.9 718.9,295.5 719.0,288.1 719.1,308.6 719.2,302.7 719.3,299.7 719.5,292.5 719.6,301.8 719.7,290.1 719.8,300.3 720.0,302.9 720.1,301.9 720.2,296.2 720.3,303.0 720.4,295.6 720.6,299.9 720.7,299.7 720.8,307.7 720.9,296.0 721.1,300.4 721.2,297.5 721.3,295.3 721.4,298.1 721.5,299.1 721.7,298.6 721.8,297.6 721.9,296.5 722.0,301.5 722.1,298.4 722.3,301.5 722.4,302.9 722.5,297.5 722.6,290.0 722.7,301.5 722.9,302.2 723.0,300.2 723.1,301.4 723.2,300.8 723.3,301.0 723.5,304.0 723.6,290.2 723.7,291.7 723.8,303.0 723.9,297.7 724.1,301.8 724.2,299.4 724.3,301.2 724.4,298.7 724.5,301.3 724.6,294.0 724.8,300.6 724.9,299.9 725.0,301.5 725.1,299.9 725.2,301.8 725.4,302.3 725.5,316.6 725.6,295.3 725.7,306.5 725.8,296.2 725.9,292.3 726.1,297.6 726.2,298.4 726.3,297.8 726.4,293.2 726.5,289.9 726.6,306.8 726.8,300.7 726.9,301.3 727.0,293.9 727.1,307.6 727.2,316.6 727.3,300.2 727.5,300.8 727.6,301.6 727.7,297.2 727.8,301.4 727.9,300.7 728.0,304.5 728.1,296.4 728.3,308.1 728.4,289.8 728.5,289.8 728.6,298.9 728.7,288.2 728.8,301.9 728.9,306.0 729.1,299.3 729.2,299.8 729.3,298.8 729.4,300.1 729.5,300.0 729.6,294.0 729.7,289.9 729.9,306.2 730.0,295.9 730.1,303.0 730.2,291.6 730.3,304.3 730.4,306.6 730.5,300.9 730.7,300.3 730.8,299.1 730.9,300.4 731.0,294.8 731.1,307.9 731.2,301.9 731.3,306.3 731.4,305.6 731.6,302.9 731.7,309.7 731.8,300.3 731.9,293.5 732.0,300.9 732.1,301.2 732.2,301.1 732.3,302.1 732.5,300.0 732.6,306.0 732.7,306.3 732.8,298.8 732.9,299.9 733.0,301.1 733.1,299.3 733.2,301.6 733.4,298.8 733.5,301.5 733.6,298.2 733.7,300.5 733.8,301.4 733.9,302.3 734.0,293.9 734.1,291.0 734.2,309.7 734.3,303.0 734.5,301.8 734.6,293.8 734.7,304.4 734.8,299.0 734.9,303.1 735.0,298.4 735.1,302.0 735.2,302.5 735.3,304.2 735.4,292.7 735.6,293.4 735.7,303.5 735.8,294.3 735.9,305.2 736.0,293.6 736.1,305.8 736.2,308.9 736.3,302.7 736.4,299.7 736.5,300.6 736.6,301.6 736.8,297.8 736.9,307.5 737.0,302.4 737.1,302.9 737.2,292.4 737.3,316.8 737.4,333.6 737.5,301.9 737.6,302.6 737.7,303.8 737.8,302.7 737.9,303.5 738.1,303.1 738.2,305.6 738.3,305.7 738.4,316.6 738.5,288.8 738.6,288.4 738.7,304.6 738.8,292.1 738.9,306.6 739.0,310.2 739.1,303.3 739.2,303.9 739.3,304.8 739.4,297.0 739.5,300.7 739.7,310.1 739.8,311.0 739.9,301.9 740.0,313.1 740.1,298.7 740.2,304.6 740.3,300.7 740.4,302.7 740.5,301.6 740.6,303.2 740.7,302.5 740.8,302.8 740.9,303.2 741.0,302.4 741.1,306.2 741.2,296.4 741.3,294.4 741.4,305.2 741.6,303.5 741.7,302.6 741.8,300.5 741.9,302.7 742.0,303.0 742.1,303.0 742.2,293.9 742.3,302.4 742.4,294.9 742.5,292.4 742.6,312.9 742.7,308.5 742.8,302.5 742.9,306.4 743.0,300.6 743.1,285.3 743.2,302.5 743.3,299.0 743.4,300.5 743.5,301.7 743.6,298.7 743.7,305.1 743.8,297.8 743.9,308.8 744.0,302.3 744.2,304.0 744.3,294.3 744.4,307.2 744.5,309.5 744.6,303.7 744.7,303.9 744.8,302.8 744.9,295.6 745.0,292.4 745.1,310.2 745.2,302.2 745.3,320.5 745.4,333.1 745.5,297.5 745.6,289.4 745.7,310.1 745.8,313.5 745.9,306.8 746.0,293.0 746.1,305.7 746.2,306.6 746.3,307.9 746.4,305.1 746.5,313.3 746.6,297.3 746.7,299.0 746.8,310.9 746.9,328.5 747.0,296.9 747.1,305.8 747.2,300.7 747.3,302.3 747.4,301.8 747.5,296.6 747.6,295.6 747.7,310.3 747.8,303.0 747.9,310.8 748.0,310.0 748.1,305.7 748.2,317.6 748.3,300.9 748.4,288.9 748.5,304.6 748.6,304.6 748.7,303.2 748.8,301.7 748.9,304.7 749.0,311.8 749.1,317.6 749.2,298.2 749.3,313.8 749.4,297.5 749.5,303.8 749.6,300.8 749.7,306.3 749.8,301.4 749.9,302.9 750.0,302.4 750.1,295.6 750.2,300.0 750.3,302.2 750.4,296.2 750.5,315.9 750.6,320.5 750.7,298.2 750.8,298.7 750.9,302.7 751.0,301.8 751.1,302.3 751.2,302.5 751.3,301.6 751.4,301.9 751.5,300.1 751.6,298.6 751.7,287.2 751.8,329.3 751.9,339.4 752.0,301.3 752.1,316.3 752.2,299.6 752.3,292.7 752.4,302.6 752.5,304.1 752.6,302.5 752.6,290.4 752.7,294.4 752.8,309.2 752.9,302.4 753.0,299.7 753.1,284.4 753.2,335.4 753.3,328.7 753.4,307.3 753.5,310.7 753.6,302.8 753.7,303.0 753.8,303.6 753.9,301.2 754.0,296.7 754.1,308.9 754.2,303.0 754.3,309.6 754.4,300.7 754.5,309.7 754.6,294.8 754.7,315.6 754.8,321.9 754.9,306.7 755.0,310.6 755.1,308.4 755.1,302.0 755.2,311.0 755.3,294.1 755.4,299.8 755.5,309.9 755.6,311.8 755.7,299.2 755.8,285.8 755.9,315.5 756.0,314.5 756.1,306.9 756.2,297.2 756.3,306.4 756.4,297.0 756.5,299.1 756.6,311.2 756.7,323.3 756.8,292.4 756.9,300.4 756.9,302.3 757.0,294.2 757.1,309.1 757.2,302.4 757.3,307.8 757.4,288.0 757.5,305.8 757.6,304.8 757.7,303.6 757.8,311.8 757.9,308.0 758.0,312.4 758.1,323.9 758.2,298.5 758.3,294.6 758.4,308.8 758.4,296.9 758.5,309.1 758.6,308.3 758.7,310.1 758.8,310.5 758.9,314.0 759.0,302.3 759.1,326.9 759.2,287.5 759.3,302.1 759.4,292.1 759.5,274.9 759.6,317.5 759.7,292.4 759.7,311.6 759.8,310.5 759.9,310.1 760.0,312.2 760.1,310.5 760.2,324.6 760.3,338.7 760.4,303.5 760.5,335.0 760.6,286.4 760.7,313.8 760.8,293.0 760.8,302.6 760.9,297.7 761.0,298.6 761.1,299.8 761.2,298.8 761.3,296.7 761.4,308.0 761.5,303.8 761.6,300.4 761.7,294.3 761.8,310.0 761.8,303.0 761.9,304.6 762.0,285.1 762.1,307.6 762.2,305.5 762.3,305.3 762.4,305.4 762.5,307.0 762.6,301.8 762.7,302.7 762.8,305.5 762.8,299.6 762.9,311.8 763.0,310.0 763.1,307.2 763.2,313.2 763.3,305.1 763.4,281.4 763.5,303.5 763.6,298.6 763.7,304.9 763.7,303.6 763.8,295.8 763.9,329.7 764.0,342.4 764.1,301.2 764.2,313.2 764.3,304.7 764.4,317.6 764.5,303.4 764.6,306.5 764.6,305.6 764.7,303.7 764.8,308.0 764.9,297.8 765.0,303.5 765.1,303.6 765.2,304.1 765.3,301.8 765.4,290.7 765.4,313.5 765.5,315.0 765.6,307.0 765.7,291.9 765.8,308.6 765.9,309.1 766.0,309.8 766.1,310.1 766.1,318.1 766.2,300.3 766.3,321.5 766.4,293.8 766.5,291.3 766.6,307.1 766.7,300.6 766.8,306.9 766.9,301.7 766.9,306.9 767.0,293.6 767.1,308.7 767.2,299.2 767.3,309.3 767.4,296.5 767.5,297.1 767.6,311.1 767.6,321.9 767.7,299.0 767.8,285.6 767.9,306.4 768.0,301.2 768.1,305.1 768.2,304.7 768.2,301.3 768.3,315.9 768.4,319.4 768.5,301.4 768.6,311.1 768.7,309.0 768.8,321.2 768.9,292.6 768.9,304.3 769.0,298.2 769.1,294.0 769.2,299.6 769.3,300.1 769.4,297.5 769.5,303.6 769.5,297.0 769.6,297.8 769.7,279.4 769.8,358.3 769.9,307.2 770.0,314.7 770.1,293.9 770.1,312.3 770.2,301.4 770.3,305.2 770.4,293.5 770.5,301.4 770.6,296.0 770.7,321.1 770.7,308.9 770.8,331.3 770.9,306.5 771.0,344.0 771.1,296.4 771.2,307.2 771.3,303.1 771.3,298.0 771.4,305.5 771.5,306.3 771.6,308.5 771.7,282.5 771.8,293.1 771.9,314.8 771.9,308.3 772.0,304.4 772.1,300.1 772.2,309.8 772.3,316.5 772.4,304.6 772.4,297.9 772.5,305.7 772.6,303.7 772.7,306.1 772.8,311.9 772.9,318.7 773.0,284.9 773.0,286.6 773.1,312.4 773.2,293.4 773.3,313.8 773.4,297.4 773.5,311.3 773.5,290.8 773.6,308.6 773.7,305.9 773.8,310.4 773.9,303.1 774.0,303.9 774.0,319.8 774.1,318.0 774.2,316.7 774.3,326.1 774.4,296.1 774.5,315.2 774.5,300.2 774.6,284.5 774.7,303.4 774.8,304.4 774.9,306.1 775.0,291.0 775.0,297.8 775.1,303.6 775.2,296.2 775.3,305.4 775.4,283.4 775.5,332.1 775.5,328.5 775.6,310.3 775.7,284.5 775.8,309.0 775.9,285.4 775.9,317.3 776.0,308.0 776.1,328.2 776.2,275.0 776.3,287.9 776.4,306.8 776.4,318.9 776.5,293.2 776.6,271.0 776.7,308.3 776.8,303.8 776.8,306.3 776.9,307.5 777.0,310.7 777.1,279.8 777.2,298.9 777.3,287.1 777.3,276.6 777.4,352.7 777.5,324.6 777.6,298.6 777.7,304.8 777.7,302.1 777.8,285.7 777.9,301.0 778.0,294.5 778.1,302.7 778.2,287.0 778.2,284.5 778.3,318.8 778.4,283.9 778.5,354.6 778.6,362.0 778.6,307.4 778.7,300.1 778.8,310.8 778.9,299.0 779.0,307.9 779.0,307.4 779.1,306.1 779.2,302.3 779.3,295.7 779.4,318.0 779.4,290.9 779.5,376.0 779.6,367.2 779.7,310.1 779.8,316.8 779.8,312.6 779.9,276.2 780.0,313.5 780.1,314.7 780.2,318.1 780.2,296.3 780.3,311.1 780.4,327.0 780.5,334.7 780.6,284.1 780.6,296.2 780.7,301.3 780.8,308.6 780.9,299.4 781.0,273.1 781.0,299.3 781.1,298.7 781.2,290.9 781.3,284.9 781.4,307.7 781.4,301.7 781.5,288.8 781.6,341.5 781.7,317.4 781.8,315.3 781.8,305.5 781.9,316.0 782.0,277.4 782.1,316.2 782.1,305.2 782.2,316.7 782.3,303.2 782.4,329.6 782.5,277.6 782.5,285.1 782.6,344.8 782.7,328.0 782.8,299.1 782.9,315.6 782.9,300.5 783.0,290.2 783.1,306.1 783.2,305.1 783.2,308.9 783.3,288.3 783.4,319.0 783.5,273.5 783.6,272.1 783.6,374.8 783.7,340.3 783.8,300.7 783.9,277.4 783.9,316.0 784.0,305.0 784.1,311.5 784.2,279.3 784.3,306.5 784.3,272.6 784.4,301.3 784.5,298.7 784.6,304.4 784.6,303.3 784.7,311.5 784.8,298.8 784.9,291.8 785.0,304.9 785.0,278.1 785.1,303.4 785.2,304.0 785.3,300.1 785.3,309.0 785.4,297.0 785.5,318.1 785.6,293.2 785.7,376.0 785.7,343.0 785.8,313.4 785.9,307.4 786.0,303.9 786.0,288.1 786.1,307.6 786.2,307.9 786.3,302.6 786.3,310.8 786.4,303.0 786.5,302.8 786.6,296.4 786.6,287.5 786.7,330.9 786.8,298.8 786.9,267.1 787.0,282.7 787.0,291.0 787.1,290.9 787.2,267.4 787.3,295.9 787.3,294.0 787.4,295.6 787.5,283.1 787.6,269.5 787.6,333.9 787.7,284.6 787.8,369.3 787.9,329.3 787.9,311.5 788.0,302.5 788.1,311.6 788.2,308.5 788.2,312.8 788.3,280.6 788.4,309.9 788.5,282.4 788.5,278.8 788.6,372.6 788.7,308.8 788.8,320.0 788.8,321.0 788.9,307.7 789.0,308.6 789.1,306.9 789.1,271.9 789.2,307.9 789.3,300.9 789.4,305.4 789.4,271.4 789.5,283.2 789.6,300.3 789.7,273.1 789.7,331.7 789.8,291.9 789.9,300.4 790.0,267.4 790.0,307.3 790.1,289.9 790.2,305.3 790.3,283.2 790.3,292.7 790.4,297.1 790.5,273.6 790.6,308.3 790.6,332.6 790.7,311.7 790.8,273.7 790.9,354.4 790.9,330.4 791.0,320.6 791.1,281.4 791.2,326.0 791.2,275.7 791.3,332.4 791.4,290.7 791.5,335.0 791.5,286.4 791.6,287.3 791.7,316.3 791.7,307.9 791.8,302.8 791.9,277.8 792.0,309.3 792.0,305.8 792.1,309.0 792.2,319.6 792.3,327.5 792.3,286.9 792.4,291.2 792.5,357.3 792.6,315.7 792.6,295.9 792.7,313.0 792.8,297.9 792.8,305.1 792.9,299.6 793.0,249.4 793.1,288.4 793.1,306.0 793.2,270.7 793.3,257.3 793.4,273.5 793.4,285.9 793.5,322.9 793.6,283.5 793.6,279.2 793.7,313.6 793.8,258.9 793.9,302.7 793.9,278.8 794.0,284.9 794.1,243.4 794.2,273.1 794.2,322.6 794.3,335.7 794.4,276.3 794.4,253.5 794.5,284.0 794.6,262.0 794.7,297.9 794.7,259.8 794.8,316.8 794.9,264.1 795.0,290.1 795.0,270.5 795.1,332.2 795.2,349.1 795.2,350.3 795.3,305.2 795.4,253.8 795.5,262.6 795.5,267.1 795.6,304.0 795.7,298.3 795.7,306.3 795.8,240.6 795.9,293.7 796.0,279.1 796.0,322.2 796.1,259.1 796.2,258.2 796.2,260.7 796.3,241.5 796.4,266.3 796.5,252.6 796.5,263.4 796.6,243.6 796.7,285.9 796.7,265.0 796.8,284.1 796.9,275.1 797.0,283.6 797.0,283.9 797.1,298.6 797.2,275.8 797.2,258.6 797.3,323.3 797.4,313.8 797.5,328.0 797.5,264.2 797.6,301.9 797.7,283.2 797.7,291.3 797.8,245.3 797.9,254.3 797.9,245.5 798.0,305.9 798.1,263.7 798.2,242.5 798.2,276.9 798.3,244.3 798.4,259.0 798.4,226.3 798.5,323.0 798.6,216.7 798.6,278.7 798.7,239.1 798.8,237.8 798.9,231.8 798.9,335.1 799.0,267.3 799.1,257.7 799.1,246.8 799.2,284.8 799.3,245.9 799.3,216.8 799.4,254.9 799.5,186.3 799.6,244.1 799.6,221.1 799.7,241.0 799.8,188.2 799.8,183.4 799.9,185.4 800.0,213.7" fill="none" stroke="#3b82f6" stroke-width="1.5" stroke-linejoin="round"/>
  <line x1="34" y1="8" x2="46" y2="8" stroke="#ef4444" stroke-width="2"/>
  <text x="49" y="11" text-anchor="start" font-size="11" fill="#6b7280">truncated 8-bit</text>
  <line x1="146" y1="8" x2="158" y2="8" stroke="#3b82f6" stroke-width="2"/>
  <text x="161" y="11" text-anchor="start" font-size="11" fill="#6b7280">noise-shaped 8-bit</text>
</svg>
