<svg xmlns="http://www.w3.org/2000/svg" viewBox="0 0 820 392" style="font-family:system-ui,-apple-system,sans-serif">
  <text x="800" y="11" text-anchor="end" font-size="11" fill="#6b7280" font-weight="600">Panner — constant-power L/R balance</text>
  <line x1="34" y1="16" x2="800" y2="16" stroke="#e5e7eb" stroke-width="0.5"/>
  <text x="30" y="19" text-anchor="end" font-size="8" fill="#6b7280">0</text>
  <line x1="34" y1="180.6" x2="800" y2="180.6" stroke="#e5e7eb" stroke-width="0.5"/>
  <text x="30" y="183.6" text-anchor="end" font-size="8" fill="#6b7280">-6</text>
  <line x1="34" y1="263.1" x2="800" y2="263.1" stroke="#e5e7eb" stroke-width="0.5"/>
  <text x="30" y="266.1" text-anchor="end" font-size="8" fill="#6b7280">-12</text>
  <line x1="34" y1="16" x2="34" y2="346" stroke="#d1d5db" stroke-width="1"/>
  <line x1="34" y1="346" x2="800" y2="346" stroke="#d1d5db" stroke-width="1"/>
  <rect x="63.5" y="16.0" width="45" height="330.0" fill="#3b82f6" opacity="0.7"/>
  <rect x="112.5" y="346.0" width="45" height="0.0" fill="#ef4444" opacity="0.7"/>
  <text x="110.5" y="360" text-anchor="middle" font-size="9" fill="#6b7280">-1</text>
  <rect x="216.5" y="41.1" width="45" height="304.9" fill="#3b82f6" opacity="0.7"/>
  <rect x="265.5" y="219.7" width="45" height="126.3" fill="#ef4444" opacity="0.7"/>
  <text x="263.5" y="360" text-anchor="middle" font-size="9" fill="#6b7280">-0.5</text>
  <rect x="369.5" y="112.7" width="45" height="233.3" fill="#3b82f6" opacity="0.7"/>
  <rect x="418.5" y="112.7" width="45" height="233.3" fill="#ef4444" opacity="0.7"/>
  <text x="416.5" y="360" text-anchor="middle" font-size="9" fill="#6b7280">C</text>
  <rect x="522.5" y="219.7" width="45" height="126.3" fill="#3b82f6" opacity="0.7"/>
  <rect x="571.5" y="41.1" width="45" height="304.9" fill="#ef4444" opacity="0.7"/>
  <text x="569.5" y="360" text-anchor="middle" font-size="9" fill="#6b7280">+0.5</text>
  <rect x="675.5" y="346.0" width="45" height="0.0" fill="#3b82f6" opacity="0.7"/>
  <rect x="724.5" y="16.0" width="45" height="330.0" fill="#ef4444" opacity="0.7"/>
  <text x="722.5" y="360" text-anchor="middle" font-size="9" fill="#6b7280">+1</text>
  <line x1="740" y1="10" x2="752" y2="10" stroke="#3b82f6" stroke-width="2"/>
  <text x="755" y="13" text-anchor="start" font-size="11" fill="#6b7280">L</text>
  <line x1="770.8" y1="10" x2="782.8" y2="10" stroke="#ef4444" stroke-width="2"/>
  <text x="785.8" y="13" text-anchor="start" font-size="11" fill="#6b7280">R</text>
  <text x="417" y="374" text-anchor="middle" font-size="9" fill="#6b7280">pan</text>
  <text x="12" y="181" text-anchor="middle" font-size="9" fill="#6b7280">dB</text>
</svg>
