<svg xmlns="http://www.w3.org/2000/svg" viewBox="0 0 820 392" style="font-family:system-ui,-apple-system,sans-serif">
  <defs>
    <clipPath id="u21"><rect x="34" y="16" width="358" height="360"/></clipPath>

    <linearGradient id="u22" x1="0" y1="16" x2="0" y2="196" gradientUnits="userSpaceOnUse"><stop offset="0%" stop-color="#3b82f6" stop-opacity="0.15"/><stop offset="100%" stop-color="#3b82f6" stop-opacity="0.01"/></linearGradient>

    <clipPath id="u23"><rect x="442" y="16" width="358" height="360"/></clipPath>

    <linearGradient id="u24" x1="0" y1="42" x2="0" y2="196" gradientUnits="userSpaceOnUse"><stop offset="0%" stop-color="#3b82f6" stop-opacity="0.15"/><stop offset="100%" stop-color="#3b82f6" stop-opacity="0.01"/></linearGradient>
  </defs>
  <text x="800" y="11" text-anchor="end" font-size="11" fill="#6b7280" font-weight="600">Ping-pong delay — alternating L↔R echoes, time=120ms</text>
  <line x1="34" y1="16" x2="34" y2="376" stroke="#d1d5db" stroke-width="1"/>
  <line x1="34" y1="376" x2="392" y2="376" stroke="#d1d5db" stroke-width="1"/>
  <line x1="34" y1="16" x2="34" y2="376" stroke="#e5e7eb" stroke-width="0.5"/>
  <text x="34" y="388" text-anchor="middle" font-size="8" fill="#6b7280">0ms</text>
  <line x1="177.2" y1="16" x2="177.2" y2="376" stroke="#e5e7eb" stroke-width="0.5"/>
  <text x="177.2" y="388" text-anchor="middle" font-size="8" fill="#6b7280">200ms</text>
  <line x1="320.4" y1="16" x2="320.4" y2="376" stroke="#e5e7eb" stroke-width="0.5"/>
  <text x="320.4" y="388" text-anchor="middle" font-size="8" fill="#6b7280">400ms</text>
  <line x1="34" y1="324.6" x2="392" y2="324.6" stroke="#e5e7eb" stroke-width="0.5"/>
  <text x="30" y="327.6" text-anchor="end" font-size="8" fill="#6b7280">-0.5</text>
  <line x1="34" y1="196" x2="392" y2="196" stroke="#e5e7eb" stroke-width="0.5"/>
  <text x="30" y="199" text-anchor="end" font-size="8" fill="#6b7280">0</text>
  <line x1="34" y1="67.4" x2="392" y2="67.4" stroke="#e5e7eb" stroke-width="0.5"/>
  <text x="30" y="70.4" text-anchor="end" font-size="8" fill="#6b7280">0.5</text>
  <line x1="34" y1="196" x2="392" y2="196" stroke="#d1d5db" stroke-width="0.5"/>
  <text x="213" y="402" text-anchor="middle" font-size="9" fill="#6b7280">ms</text>
  <text x="213" y="11" text-anchor="middle" font-size="10" fill="#6b7280" font-weight="600">Left</text>
  <polygon clip-path="url(#u21)" points="34.0,196.0 34.5,196.0 35.5,196.0 36.5,196.0 37.5,196.0 38.5,196.0 39.5,196.0 40.5,196.0 41.5,196.0 42.5,196.0 43.5,196.0 44.5,196.0 45.5,196.0 46.5,196.0 47.5,196.0 48.5,196.0 49.5,196.0 50.5,196.0 51.5,196.0 52.5,196.0 53.5,196.0 54.5,196.0 55.5,196.0 56.5,196.0 57.5,196.0 58.5,196.0 59.5,196.0 60.5,196.0 61.5,196.0 62.5,196.0 63.5,196.0 64.5,196.0 65.5,196.0 66.5,196.0 67.5,196.0 68.5,196.0 69.5,196.0 70.5,196.0 71.5,196.0 72.5,196.0 73.5,196.0 74.5,196.0 75.5,196.0 76.5,196.0 77.5,196.0 78.5,196.0 79.5,196.0 80.5,196.0 81.5,196.0 82.5,196.0 83.5,196.0 84.5,196.0 85.5,196.0 86.5,196.0 87.5,196.0 88.5,196.0 89.5,196.0 90.5,196.0 91.5,196.0 92.5,196.0 93.5,196.0 94.5,196.0 95.5,196.0 96.5,196.0 97.5,196.0 98.5,196.0 99.5,196.0 100.5,196.0 101.5,196.0 102.5,196.0 103.5,196.0 104.5,196.0 105.5,196.0 106.5,196.0 107.5,196.0 108.5,196.0 109.5,196.0 110.5,196.0 111.5,196.0 112.5,196.0 113.5,196.0 114.5,196.0 115.5,196.0 116.5,196.0 117.5,196.0 118.5,196.0 119.5,16.0 120.5,196.0 121.5,196.0 122.5,196.0 123.5,196.0 124.5,196.0 125.5,196.0 126.5,196.0 127.5,196.0 128.5,196.0 129.5,196.0 130.5,196.0 131.5,196.0 132.5,196.0 133.5,196.0 134.5,196.0 135.5,196.0 136.5,196.0 137.5,196.0 138.5,196.0 139.5,196.0 140.5,196.0 141.5,196.0 142.5,196.0 143.5,196.0 144.5,196.0 145.5,196.0 146.5,196.0 147.5,196.0 148.5,196.0 149.5,196.0 150.5,196.0 151.5,196.0 152.5,196.0 153.5,196.0 154.5,196.0 155.5,196.0 156.5,196.0 157.5,196.0 158.5,196.0 159.5,196.0 160.5,196.0 161.5,196.0 162.5,196.0 163.5,196.0 164.5,196.0 165.5,196.0 166.5,196.0 167.5,196.0 168.5,196.0 169.5,196.0 170.5,196.0 171.5,196.0 172.5,196.0 173.5,196.0 174.5,196.0 175.5,196.0 176.5,196.0 177.5,196.0 178.5,196.0 179.5,196.0 180.5,196.0 181.5,196.0 182.5,196.0 183.5,196.0 184.5,196.0 185.5,196.0 186.5,196.0 187.5,196.0 188.5,196.0 189.5,196.0 190.5,196.0 191.5,196.0 192.5,196.0 193.5,196.0 194.5,196.0 195.5,196.0 196.5,196.0 197.5,196.0 198.5,196.0 199.5,196.0 200.5,196.0 201.5,196.0 202.5,196.0 203.5,196.0 204.5,196.0 205.5,196.0 206.5,196.0 207.5,196.0 208.5,196.0 209.5,196.0 210.5,196.0 211.5,196.0 212.5,196.0 213.5,196.0 214.5,196.0 215.5,196.0 216.5,196.0 217.5,196.0 218.5,196.0 219.5,196.0 220.5,196.0 221.5,196.0 222.5,196.0 223.5,196.0 224.5,196.0 225.5,196.0 226.5,196.0 227.5,196.0 228.5,196.0 229.5,196.0 230.5,196.0 231.5,196.0 232.5,196.0 233.5,196.0 234.5,196.0 235.5,196.0 236.5,196.0 237.5,196.0 238.5,196.0 239.5,196.0 240.5,196.0 241.5,196.0 242.5,196.0 243.5,196.0 244.5,196.0 245.5,196.0 246.5,196.0 247.5,196.0 248.5,196.0 249.5,196.0 250.5,196.0 251.5,196.0 252.5,196.0 253.5,196.0 254.5,196.0 255.5,196.0 256.5,196.0 257.5,196.0 258.5,196.0 259.5,196.0 260.5,196.0 261.5,196.0 262.5,196.0 263.5,196.0 264.5,196.0 265.5,196.0 266.5,196.0 267.5,196.0 268.5,196.0 269.5,196.0 270.5,196.0 271.5,196.0 272.5,196.0 273.5,196.0 274.5,196.0 275.5,196.0 276.5,196.0 277.5,196.0 278.5,196.0 279.5,196.0 280.5,196.0 281.5,196.0 282.5,196.0 283.5,196.0 284.5,196.0 285.5,196.0 286.5,196.0 287.5,196.0 288.5,196.0 289.5,196.0 290.5,196.0 291.5,103.4 292.5,196.0 293.5,196.0 294.5,196.0 295.5,196.0 296.5,196.0 297.5,196.0 298.5,196.0 299.5,196.0 300.5,196.0 301.5,196.0 302.5,196.0 303.5,196.0 304.5,196.0 305.5,196.0 306.5,196.0 307.5,196.0 308.5,196.0 309.5,196.0 310.5,196.0 311.5,196.0 312.5,196.0 313.5,196.0 314.5,196.0 315.5,196.0 316.5,196.0 317.5,196.0 318.5,196.0 319.5,196.0 320.5,196.0 321.5,196.0 322.5,196.0 323.5,196.0 324.5,196.0 325.5,196.0 326.5,196.0 327.5,196.0 328.5,196.0 329.5,196.0 330.5,196.0 331.5,196.0 332.5,196.0 333.5,196.0 334.5,196.0 335.5,196.0 336.5,196.0 337.5,196.0 338.5,196.0 339.5,196.0 340.5,196.0 341.5,196.0 342.5,196.0 343.5,196.0 344.5,196.0 345.5,196.0 346.5,196.0 347.5,196.0 348.5,196.0 349.5,196.0 350.5,196.0 351.5,196.0 352.5,196.0 353.5,196.0 354.5,196.0 355.5,196.0 356.5,196.0 357.5,196.0 358.5,196.0 359.5,196.0 360.5,196.0 361.5,196.0 362.5,196.0 363.5,196.0 364.5,196.0 365.5,196.0 366.5,196.0 367.5,196.0 368.5,196.0 369.5,196.0 370.5,196.0 371.5,196.0 372.5,196.0 373.5,196.0 374.5,196.0 375.5,196.0 376.5,196.0 377.5,196.0 378.5,196.0 379.5,196.0 380.5,196.0 381.5,196.0 382.5,196.0 383.5,196.0 384.5,196.0 385.5,196.0 386.5,196.0 387.5,196.0 388.5,196.0 389.5,196.0 390.5,196.0 391.5,196.0 392.0,196.0" fill="url(#u22)"/>
  <polyline clip-path="url(#u21)" points="34.5,196.0 34.5,196.0 35.5,196.0 35.5,196.0 36.5,196.0 36.5,196.0 37.5,196.0 37.5,196.0 38.5,196.0 38.5,196.0 39.5,196.0 39.5,196.0 40.5,196.0 40.5,196.0 41.5,196.0 41.5,196.0 42.5,196.0 42.5,196.0 43.5,196.0 43.5,196.0 44.5,196.0 44.5,196.0 45.5,196.0 45.5,196.0 46.5,196.0 46.5,196.0 47.5,196.0 47.5,196.0 48.5,196.0 48.5,196.0 49.5,196.0 49.5,196.0 50.5,196.0 50.5,196.0 51.5,196.0 51.5,196.0 52.5,196.0 52.5,196.0 53.5,196.0 53.5,196.0 54.5,196.0 54.5,196.0 55.5,196.0 55.5,196.0 56.5,196.0 56.5,196.0 57.5,196.0 57.5,196.0 58.5,196.0 58.5,196.0 59.5,196.0 59.5,196.0 60.5,196.0 60.5,196.0 61.5,196.0 61.5,196.0 62.5,196.0 62.5,196.0 63.5,196.0 63.5,196.0 64.5,196.0 64.5,196.0 65.5,196.0 65.5,196.0 66.5,196.0 66.5,196.0 67.5,196.0 67.5,196.0 68.5,196.0 68.5,196.0 69.5,196.0 69.5,196.0 70.5,196.0 70.5,196.0 71.5,196.0 71.5,196.0 72.5,196.0 72.5,196.0 73.5,196.0 73.5,196.0 74.5,196.0 74.5,196.0 75.5,196.0 75.5,196.0 76.5,196.0 76.5,196.0 77.5,196.0 77.5,196.0 78.5,196.0 78.5,196.0 79.5,196.0 79.5,196.0 80.5,196.0 80.5,196.0 81.5,196.0 81.5,196.0 82.5,196.0 82.5,196.0 83.5,196.0 83.5,196.0 84.5,196.0 84.5,196.0 85.5,196.0 85.5,196.0 86.5,196.0 86.5,196.0 87.5,196.0 87.5,196.0 88.5,196.0 88.5,196.0 89.5,196.0 89.5,196.0 90.5,196.0 90.5,196.0 91.5,196.0 91.5,196.0 92.5,196.0 92.5,196.0 93.5,196.0 93.5,196.0 94.5,196.0 94.5,196.0 95.5,196.0 95.5,196.0 96.5,196.0 96.5,196.0 97.5,196.0 97.5,196.0 98.5,196.0 98.5,196.0 99.5,196.0 99.5,196.0 100.5,196.0 100.5,196.0 101.5,196.0 101.5,196.0 102.5,196.0 102.5,196.0 103.5,196.0 103.5,196.0 104.5,196.0 104.5,196.0 105.5,196.0 105.5,196.0 106.5,196.0 106.5,196.0 107.5,196.0 107.5,196.0 108.5,196.0 108.5,196.0 109.5,196.0 109.5,196.0 110.5,196.0 110.5,196.0 111.5,196.0 111.5,196.0 112.5,196.0 112.5,196.0 113.5,196.0 113.5,196.0 114.5,196.0 114.5,196.0 115.5,196.0 115.5,196.0 116.5,196.0 116.5,196.0 117.5,196.0 117.5,196.0 118.5,196.0 118.5,196.0 119.5,196.0 119.5,16.0 120.5,196.0 120.5,196.0 121.5,196.0 121.5,196.0 122.5,196.0 122.5,196.0 123.5,196.0 123.5,196.0 124.5,196.0 124.5,196.0 125.5,196.0 125.5,196.0 126.5,196.0 126.5,196.0 127.5,196.0 127.5,196.0 128.5,196.0 128.5,196.0 129.5,196.0 129.5,196.0 130.5,196.0 130.5,196.0 131.5,196.0 131.5,196.0 132.5,196.0 132.5,196.0 133.5,196.0 133.5,196.0 134.5,196.0 134.5,196.0 135.5,196.0 135.5,196.0 136.5,196.0 136.5,196.0 137.5,196.0 137.5,196.0 138.5,196.0 138.5,196.0 139.5,196.0 139.5,196.0 140.5,196.0 140.5,196.0 141.5,196.0 141.5,196.0 142.5,196.0 142.5,196.0 143.5,196.0 143.5,196.0 144.5,196.0 144.5,196.0 145.5,196.0 145.5,196.0 146.5,196.0 146.5,196.0 147.5,196.0 147.5,196.0 148.5,196.0 148.5,196.0 149.5,196.0 149.5,196.0 150.5,196.0 150.5,196.0 151.5,196.0 151.5,196.0 152.5,196.0 152.5,196.0 153.5,196.0 153.5,196.0 154.5,196.0 154.5,196.0 155.5,196.0 155.5,196.0 156.5,196.0 156.5,196.0 157.5,196.0 157.5,196.0 158.5,196.0 158.5,196.0 159.5,196.0 159.5,196.0 160.5,196.0 160.5,196.0 161.5,196.0 161.5,196.0 162.5,196.0 162.5,196.0 163.5,196.0 163.5,196.0 164.5,196.0 164.5,196.0 165.5,196.0 165.5,196.0 166.5,196.0 166.5,196.0 167.5,196.0 167.5,196.0 168.5,196.0 168.5,196.0 169.5,196.0 169.5,196.0 170.5,196.0 170.5,196.0 171.5,196.0 171.5,196.0 172.5,196.0 172.5,196.0 173.5,196.0 173.5,196.0 174.5,196.0 174.5,196.0 175.5,196.0 175.5,196.0 176.5,196.0 176.5,196.0 177.5,196.0 177.5,196.0 178.5,196.0 178.5,196.0 179.5,196.0 179.5,196.0 180.5,196.0 180.5,196.0 181.5,196.0 181.5,196.0 182.5,196.0 182.5,196.0 183.5,196.0 183.5,196.0 184.5,196.0 184.5,196.0 185.5,196.0 185.5,196.0 186.5,196.0 186.5,196.0 187.5,196.0 187.5,196.0 188.5,196.0 188.5,196.0 189.5,196.0 189.5,196.0 190.5,196.0 190.5,196.0 191.5,196.0 191.5,196.0 192.5,196.0 192.5,196.0 193.5,196.0 193.5,196.0 194.5,196.0 194.5,196.0 195.5,196.0 195.5,196.0 196.5,196.0 196.5,196.0 197.5,196.0 197.5,196.0 198.5,196.0 198.5,196.0 199.5,196.0 199.5,196.0 200.5,196.0 200.5,196.0 201.5,196.0 201.5,196.0 202.5,196.0 202.5,196.0 203.5,196.0 203.5,196.0 204.5,196.0 204.5,196.0 205.5,196.0 205.5,196.0 206.5,196.0 206.5,196.0 207.5,196.0 207.5,196.0 208.5,196.0 208.5,196.0 209.5,196.0 209.5,196.0 210.5,196.0 210.5,196.0 211.5,196.0 211.5,196.0 212.5,196.0 212.5,196.0 213.5,196.0 213.5,196.0 214.5,196.0 214.5,196.0 215.5,196.0 215.5,196.0 216.5,196.0 216.5,196.0 217.5,196.0 217.5,196.0 218.5,196.0 218.5,196.0 219.5,196.0 219.5,196.0 220.5,196.0 220.5,196.0 221.5,196.0 221.5,196.0 222.5,196.0 222.5,196.0 223.5,196.0 223.5,196.0 224.5,196.0 224.5,196.0 225.5,196.0 225.5,196.0 226.5,196.0 226.5,196.0 227.5,196.0 227.5,196.0 228.5,196.0 228.5,196.0 229.5,196.0 229.5,196.0 230.5,196.0 230.5,196.0 231.5,196.0 231.5,196.0 232.5,196.0 232.5,196.0 233.5,196.0 233.5,196.0 234.5,196.0 234.5,196.0 235.5,196.0 235.5,196.0 236.5,196.0 236.5,196.0 237.5,196.0 237.5,196.0 238.5,196.0 238.5,196.0 239.5,196.0 239.5,196.0 240.5,196.0 240.5,196.0 241.5,196.0 241.5,196.0 242.5,196.0 242.5,196.0 243.5,196.0 243.5,196.0 244.5,196.0 244.5,196.0 245.5,196.0 245.5,196.0 246.5,196.0 246.5,196.0 247.5,196.0 247.5,196.0 248.5,196.0 248.5,196.0 249.5,196.0 249.5,196.0 250.5,196.0 250.5,196.0 251.5,196.0 251.5,196.0 252.5,196.0 252.5,196.0 253.5,196.0 253.5,196.0 254.5,196.0 254.5,196.0 255.5,196.0 255.5,196.0 256.5,196.0 256.5,196.0 257.5,196.0 257.5,196.0 258.5,196.0 258.5,196.0 259.5,196.0 259.5,196.0 260.5,196.0 260.5,196.0 261.5,196.0 261.5,196.0 262.5,196.0 262.5,196.0 263.5,196.0 263.5,196.0 264.5,196.0 264.5,196.0 265.5,196.0 265.5,196.0 266.5,196.0 266.5,196.0 267.5,196.0 267.5,196.0 268.5,196.0 268.5,196.0 269.5,196.0 269.5,196.0 270.5,196.0 270.5,196.0 271.5,196.0 271.5,196.0 272.5,196.0 272.5,196.0 273.5,196.0 273.5,196.0 274.5,196.0 274.5,196.0 275.5,196.0 275.5,196.0 276.5,196.0 276.5,196.0 277.5,196.0 277.5,196.0 278.5,196.0 278.5,196.0 279.5,196.0 279.5,196.0 280.5,196.0 280.5,196.0 281.5,196.0 281.5,196.0 282.5,196.0 282.5,196.0 283.5,196.0 283.5,196.0 284.5,196.0 284.5,196.0 285.5,196.0 285.5,196.0 286.5,196.0 286.5,196.0 287.5,196.0 287.5,196.0 288.5,196.0 288.5,196.0 289.5,196.0 289.5,196.0 290.5,196.0 290.5,196.0 291.5,196.0 291.5,103.4 292.5,196.0 292.5,196.0 293.5,196.0 293.5,196.0 294.5,196.0 294.5,196.0 295.5,196.0 295.5,196.0 296.5,196.0 296.5,196.0 297.5,196.0 297.5,196.0 298.5,196.0 298.5,196.0 299.5,196.0 299.5,196.0 300.5,196.0 300.5,196.0 301.5,196.0 301.5,196.0 302.5,196.0 302.5,196.0 303.5,196.0 303.5,196.0 304.5,196.0 304.5,196.0 305.5,196.0 305.5,196.0 306.5,196.0 306.5,196.0 307.5,196.0 307.5,196.0 308.5,196.0 308.5,196.0 309.5,196.0 309.5,196.0 310.5,196.0 310.5,196.0 311.5,196.0 311.5,196.0 312.5,196.0 312.5,196.0 313.5,196.0 313.5,196.0 314.5,196.0 314.5,196.0 315.5,196.0 315.5,196.0 316.5,196.0 316.5,196.0 317.5,196.0 317.5,196.0 318.5,196.0 318.5,196.0 319.5,196.0 319.5,196.0 320.5,196.0 320.5,196.0 321.5,196.0 321.5,196.0 322.5,196.0 322.5,196.0 323.5,196.0 323.5,196.0 324.5,196.0 324.5,196.0 325.5,196.0 325.5,196.0 326.5,196.0 326.5,196.0 327.5,196.0 327.5,196.0 328.5,196.0 328.5,196.0 329.5,196.0 329.5,196.0 330.5,196.0 330.5,196.0 331.5,196.0 331.5,196.0 332.5,196.0 332.5,196.0 333.5,196.0 333.5,196.0 334.5,196.0 334.5,196.0 335.5,196.0 335.5,196.0 336.5,196.0 336.5,196.0 337.5,196.0 337.5,196.0 338.5,196.0 338.5,196.0 339.5,196.0 339.5,196.0 340.5,196.0 340.5,196.0 341.5,196.0 341.5,196.0 342.5,196.0 342.5,196.0 343.5,196.0 343.5,196.0 344.5,196.0 344.5,196.0 345.5,196.0 345.5,196.0 346.5,196.0 346.5,196.0 347.5,196.0 347.5,196.0 348.5,196.0 348.5,196.0 349.5,196.0 349.5,196.0 350.5,196.0 350.5,196.0 351.5,196.0 351.5,196.0 352.5,196.0 352.5,196.0 353.5,196.0 353.5,196.0 354.5,196.0 354.5,196.0 355.5,196.0 355.5,196.0 356.5,196.0 356.5,196.0 357.5,196.0 357.5,196.0 358.5,196.0 358.5,196.0 359.5,196.0 359.5,196.0 360.5,196.0 360.5,196.0 361.5,196.0 361.5,196.0 362.5,196.0 362.5,196.0 363.5,196.0 363.5,196.0 364.5,196.0 364.5,196.0 365.5,196.0 365.5,196.0 366.5,196.0 366.5,196.0 367.5,196.0 367.5,196.0 368.5,196.0 368.5,196.0 369.5,196.0 369.5,196.0 370.5,196.0 370.5,196.0 371.5,196.0 371.5,196.0 372.5,196.0 372.5,196.0 373.5,196.0 373.5,196.0 374.5,196.0 374.5,196.0 375.5,196.0 375.5,196.0 376.5,196.0 376.5,196.0 377.5,196.0 377.5,196.0 378.5,196.0 378.5,196.0 379.5,196.0 379.5,196.0 380.5,196.0 380.5,196.0 381.5,196.0 381.5,196.0 382.5,196.0 382.5,196.0 383.5,196.0 383.5,196.0 384.5,196.0 384.5,196.0 385.5,196.0 385.5,196.0 386.5,196.0 386.5,196.0 387.5,196.0 387.5,196.0 388.5,196.0 388.5,196.0 389.5,196.0 389.5,196.0 390.5,196.0 390.5,196.0 391.5,196.0 391.5,196.0" fill="none" stroke="#3b82f6" stroke-width="1.5" stroke-linejoin="round"/>
  <line x1="442" y1="16" x2="442" y2="376" stroke="#d1d5db" stroke-width="1"/>
  <line x1="442" y1="376" x2="800" y2="376" stroke="#d1d5db" stroke-width="1"/>
  <line x1="442" y1="16" x2="442" y2="376" stroke="#e5e7eb" stroke-width="0.5"/>
  <text x="442" y="388" text-anchor="middle" font-size="8" fill="#6b7280">0ms</text>
  <line x1="585.2" y1="16" x2="585.2" y2="376" stroke="#e5e7eb" stroke-width="0.5"/>
  <text x="585.2" y="388" text-anchor="middle" font-size="8" fill="#6b7280">200ms</text>
  <line x1="728.4" y1="16" x2="728.4" y2="376" stroke="#e5e7eb" stroke-width="0.5"/>
  <text x="728.4" y="388" text-anchor="middle" font-size="8" fill="#6b7280">400ms</text>
  <line x1="442" y1="324.6" x2="800" y2="324.6" stroke="#e5e7eb" stroke-width="0.5"/>
  <text x="438" y="327.6" text-anchor="end" font-size="8" fill="#6b7280">-0.5</text>
  <line x1="442" y1="196" x2="800" y2="196" stroke="#e5e7eb" stroke-width="0.5"/>
  <text x="438" y="199" text-anchor="end" font-size="8" fill="#6b7280">0</text>
  <line x1="442" y1="67.4" x2="800" y2="67.4" stroke="#e5e7eb" stroke-width="0.5"/>
  <text x="438" y="70.4" text-anchor="end" font-size="8" fill="#6b7280">0.5</text>
  <line x1="442" y1="196" x2="800" y2="196" stroke="#d1d5db" stroke-width="0.5"/>
  <text x="621" y="402" text-anchor="middle" font-size="9" fill="#6b7280">ms</text>
  <text x="621" y="11" text-anchor="middle" font-size="10" fill="#6b7280" font-weight="600">Right</text>
  <polygon clip-path="url(#u23)" points="442.0,196.0 442.5,196.0 443.5,196.0 444.5,196.0 445.5,196.0 446.5,196.0 447.5,196.0 448.5,196.0 449.5,196.0 450.5,196.0 451.5,196.0 452.5,196.0 453.5,196.0 454.5,196.0 455.5,196.0 456.5,196.0 457.5,196.0 458.5,196.0 459.5,196.0 460.5,196.0 461.5,196.0 462.5,196.0 463.5,196.0 464.5,196.0 465.5,196.0 466.5,196.0 467.5,196.0 468.5,196.0 469.5,196.0 470.5,196.0 471.5,196.0 472.5,196.0 473.5,196.0 474.5,196.0 475.5,196.0 476.5,196.0 477.5,196.0 478.5,196.0 479.5,196.0 480.5,196.0 481.5,196.0 482.5,196.0 483.5,196.0 484.5,196.0 485.5,196.0 486.5,196.0 487.5,196.0 488.5,196.0 489.5,196.0 490.5,196.0 491.5,196.0 492.5,196.0 493.5,196.0 494.5,196.0 495.5,196.0 496.5,196.0 497.5,196.0 498.5,196.0 499.5,196.0 500.5,196.0 501.5,196.0 502.5,196.0 503.5,196.0 504.5,196.0 505.5,196.0 506.5,196.0 507.5,196.0 508.5,196.0 509.5,196.0 510.5,196.0 511.5,196.0 512.5,196.0 513.5,196.0 514.5,196.0 515.5,196.0 516.5,196.0 517.5,196.0 518.5,196.0 519.5,196.0 520.5,196.0 521.5,196.0 522.5,196.0 523.5,196.0 524.5,196.0 525.5,196.0 526.5,196.0 527.5,196.0 528.5,196.0 529.5,196.0 530.5,196.0 531.5,196.0 532.5,196.0 533.5,196.0 534.5,196.0 535.5,196.0 536.5,196.0 537.5,196.0 538.5,196.0 539.5,196.0 540.5,196.0 541.5,196.0 542.5,196.0 543.5,196.0 544.5,196.0 545.5,196.0 546.5,196.0 547.5,196.0 548.5,196.0 549.5,196.0 550.5,196.0 551.5,196.0 552.5,196.0 553.5,196.0 554.5,196.0 555.5,196.0 556.5,196.0 557.5,196.0 558.5,196.0 559.5,196.0 560.5,196.0 561.5,196.0 562.5,196.0 563.5,196.0 564.5,196.0 565.5,196.0 566.5,196.0 567.5,196.0 568.5,196.0 569.5,196.0 570.5,196.0 571.5,196.0 572.5,196.0 573.5,196.0 574.5,196.0 575.5,196.0 576.5,196.0 577.5,196.0 578.5,196.0 579.5,196.0 580.5,196.0 581.5,196.0 582.5,196.0 583.5,196.0 584.5,196.0 585.5,196.0 586.5,196.0 587.5,196.0 588.5,196.0 589.5,196.0 590.5,196.0 591.5,196.0 592.5,196.0 593.5,196.0 594.5,196.0 595.5,196.0 596.5,196.0 597.5,196.0 598.5,196.0 599.5,196.0 600.5,196.0 601.5,196.0 602.5,196.0 603.5,196.0 604.5,196.0 605.5,196.0 606.5,196.0 607.5,196.0 608.5,196.0 609.5,196.0 610.5,196.0 611.5,196.0 612.5,196.0 613.5,41.7 614.5,196.0 615.5,196.0 616.5,196.0 617.5,196.0 618.5,196.0 619.5,196.0 620.5,196.0 621.5,196.0 622.5,196.0 623.5,196.0 624.5,196.0 625.5,196.0 626.5,196.0 627.5,196.0 628.5,196.0 629.5,196.0 630.5,196.0 631.5,196.0 632.5,196.0 633.5,196.0 634.5,196.0 635.5,196.0 636.5,196.0 637.5,196.0 638.5,196.0 639.5,196.0 640.5,196.0 641.5,196.0 642.5,196.0 643.5,196.0 644.5,196.0 645.5,196.0 646.5,196.0 647.5,196.0 648.5,196.0 649.5,196.0 650.5,196.0 651.5,196.0 652.5,196.0 653.5,196.0 654.5,196.0 655.5,196.0 656.5,196.0 657.5,196.0 658.5,196.0 659.5,196.0 660.5,196.0 661.5,196.0 662.5,196.0 663.5,196.0 664.5,196.0 665.5,196.0 666.5,196.0 667.5,196.0 668.5,196.0 669.5,196.0 670.5,196.0 671.5,196.0 672.5,196.0 673.5,196.0 674.5,196.0 675.5,196.0 676.5,196.0 677.5,196.0 678.5,196.0 679.5,196.0 680.5,196.0 681.5,196.0 682.5,196.0 683.5,196.0 684.5,196.0 685.5,196.0 686.5,196.0 687.5,196.0 688.5,196.0 689.5,196.0 690.5,196.0 691.5,196.0 692.5,196.0 693.5,196.0 694.5,196.0 695.5,196.0 696.5,196.0 697.5,196.0 698.5,196.0 699.5,196.0 700.5,196.0 701.5,196.0 702.5,196.0 703.5,196.0 704.5,196.0 705.5,196.0 706.5,196.0 707.5,196.0 708.5,196.0 709.5,196.0 710.5,196.0 711.5,196.0 712.5,196.0 713.5,196.0 714.5,196.0 715.5,196.0 716.5,196.0 717.5,196.0 718.5,196.0 719.5,196.0 720.5,196.0 721.5,196.0 722.5,196.0 723.5,196.0 724.5,196.0 725.5,196.0 726.5,196.0 727.5,196.0 728.5,196.0 729.5,196.0 730.5,196.0 731.5,196.0 732.5,196.0 733.5,196.0 734.5,196.0 735.5,196.0 736.5,196.0 737.5,196.0 738.5,196.0 739.5,196.0 740.5,196.0 741.5,196.0 742.5,196.0 743.5,196.0 744.5,196.0 745.5,196.0 746.5,196.0 747.5,196.0 748.5,196.0 749.5,196.0 750.5,196.0 751.5,196.0 752.5,196.0 753.5,196.0 754.5,196.0 755.5,196.0 756.5,196.0 757.5,196.0 758.5,196.0 759.5,196.0 760.5,196.0 761.5,196.0 762.5,196.0 763.5,196.0 764.5,196.0 765.5,196.0 766.5,196.0 767.5,196.0 768.5,196.0 769.5,196.0 770.5,196.0 771.5,196.0 772.5,196.0 773.5,196.0 774.5,196.0 775.5,196.0 776.5,196.0 777.5,196.0 778.5,196.0 779.5,196.0 780.5,196.0 781.5,196.0 782.5,196.0 783.5,196.0 784.5,196.0 785.5,140.5 786.5,196.0 787.5,196.0 788.5,196.0 789.5,196.0 790.5,196.0 791.5,196.0 792.5,196.0 793.5,196.0 794.5,196.0 795.5,196.0 796.5,196.0 797.5,196.0 798.5,196.0 799.5,196.0 800.0,196.0" fill="url(#u24)"/>
  <polyline clip-path="url(#u23)" points="442.5,196.0 442.5,196.0 443.5,196.0 443.5,196.0 444.5,196.0 444.5,196.0 445.5,196.0 445.5,196.0 446.5,196.0 446.5,196.0 447.5,196.0 447.5,196.0 448.5,196.0 448.5,196.0 449.5,196.0 449.5,196.0 450.5,196.0 450.5,196.0 451.5,196.0 451.5,196.0 452.5,196.0 452.5,196.0 453.5,196.0 453.5,196.0 454.5,196.0 454.5,196.0 455.5,196.0 455.5,196.0 456.5,196.0 456.5,196.0 457.5,196.0 457.5,196.0 458.5,196.0 458.5,196.0 459.5,196.0 459.5,196.0 460.5,196.0 460.5,196.0 461.5,196.0 461.5,196.0 462.5,196.0 462.5,196.0 463.5,196.0 463.5,196.0 464.5,196.0 464.5,196.0 465.5,196.0 465.5,196.0 466.5,196.0 466.5,196.0 467.5,196.0 467.5,196.0 468.5,196.0 468.5,196.0 469.5,196.0 469.5,196.0 470.5,196.0 470.5,196.0 471.5,196.0 471.5,196.0 472.5,196.0 472.5,196.0 473.5,196.0 473.5,196.0 474.5,196.0 474.5,196.0 475.5,196.0 475.5,196.0 476.5,196.0 476.5,196.0 477.5,196.0 477.5,196.0 478.5,196.0 478.5,196.0 479.5,196.0 479.5,196.0 480.5,196.0 480.5,196.0 481.5,196.0 481.5,196.0 482.5,196.0 482.5,196.0 483.5,196.0 483.5,196.0 484.5,196.0 484.5,196.0 485.5,196.0 485.5,196.0 486.5,196.0 486.5,196.0 487.5,196.0 487.5,196.0 488.5,196.0 488.5,196.0 489.5,196.0 489.5,196.0 490.5,196.0 490.5,196.0 491.5,196.0 491.5,196.0 492.5,196.0 492.5,196.0 493.5,196.0 493.5,196.0 494.5,196.0 494.5,196.0 495.5,196.0 495.5,196.0 496.5,196.0 496.5,196.0 497.5,196.0 497.5,196.0 498.5,196.0 498.5,196.0 499.5,196.0 499.5,196.0 500.5,196.0 500.5,196.0 501.5,196.0 501.5,196.0 502.5,196.0 502.5,196.0 503.5,196.0 503.5,196.0 504.5,196.0 504.5,196.0 505.5,196.0 505.5,196.0 506.5,196.0 506.5,196.0 507.5,196.0 507.5,196.0 508.5,196.0 508.5,196.0 509.5,196.0 509.5,196.0 510.5,196.0 510.5,196.0 511.5,196.0 511.5,196.0 512.5,196.0 512.5,196.0 513.5,196.0 513.5,196.0 514.5,196.0 514.5,196.0 515.5,196.0 515.5,196.0 516.5,196.0 516.5,196.0 517.5,196.0 517.5,196.0 518.5,196.0 518.5,196.0 519.5,196.0 519.5,196.0 520.5,196.0 520.5,196.0 521.5,196.0 521.5,196.0 522.5,196.0 522.5,196.0 523.5,196.0 523.5,196.0 524.5,196.0 524.5,196.0 525.5,196.0 525.5,196.0 526.5,196.0 526.5,196.0 527.5,196.0 527.5,196.0 528.5,196.0 528.5,196.0 529.5,196.0 529.5,196.0 530.5,196.0 530.5,196.0 531.5,196.0 531.5,196.0 532.5,196.0 532.5,196.0 533.5,196.0 533.5,196.0 534.5,196.0 534.5,196.0 535.5,196.0 535.5,196.0 536.5,196.0 536.5,196.0 537.5,196.0 537.5,196.0 538.5,196.0 538.5,196.0 539.5,196.0 539.5,196.0 540.5,196.0 540.5,196.0 541.5,196.0 541.5,196.0 542.5,196.0 542.5,196.0 543.5,196.0 543.5,196.0 544.5,196.0 544.5,196.0 545.5,196.0 545.5,196.0 546.5,196.0 546.5,196.0 547.5,196.0 547.5,196.0 548.5,196.0 548.5,196.0 549.5,196.0 549.5,196.0 550.5,196.0 550.5,196.0 551.5,196.0 551.5,196.0 552.5,196.0 552.5,196.0 553.5,196.0 553.5,196.0 554.5,196.0 554.5,196.0 555.5,196.0 555.5,196.0 556.5,196.0 556.5,196.0 557.5,196.0 557.5,196.0 558.5,196.0 558.5,196.0 559.5,196.0 559.5,196.0 560.5,196.0 560.5,196.0 561.5,196.0 561.5,196.0 562.5,196.0 562.5,196.0 563.5,196.0 563.5,196.0 564.5,196.0 564.5,196.0 565.5,196.0 565.5,196.0 566.5,196.0 566.5,196.0 567.5,196.0 567.5,196.0 568.5,196.0 568.5,196.0 569.5,196.0 569.5,196.0 570.5,196.0 570.5,196.0 571.5,196.0 571.5,196.0 572.5,196.0 572.5,196.0 573.5,196.0 573.5,196.0 574.5,196.0 574.5,196.0 575.5,196.0 575.5,196.0 576.5,196.0 576.5,196.0 577.5,196.0 577.5,196.0 578.5,196.0 578.5,196.0 579.5,196.0 579.5,196.0 580.5,196.0 580.5,196.0 581.5,196.0 581.5,196.0 582.5,196.0 582.5,196.0 583.5,196.0 583.5,196.0 584.5,196.0 584.5,196.0 585.5,196.0 585.5,196.0 586.5,196.0 586.5,196.0 587.5,196.0 587.5,196.0 588.5,196.0 588.5,196.0 589.5,196.0 589.5,196.0 590.5,196.0 590.5,196.0 591.5,196.0 591.5,196.0 592.5,196.0 592.5,196.0 593.5,196.0 593.5,196.0 594.5,196.0 594.5,196.0 595.5,196.0 595.5,196.0 596.5,196.0 596.5,196.0 597.5,196.0 597.5,196.0 598.5,196.0 598.5,196.0 599.5,196.0 599.5,196.0 600.5,196.0 600.5,196.0 601.5,196.0 601.5,196.0 602.5,196.0 602.5,196.0 603.5,196.0 603.5,196.0 604.5,196.0 604.5,196.0 605.5,196.0 605.5,196.0 606.5,196.0 606.5,196.0 607.5,196.0 607.5,196.0 608.5,196.0 608.5,196.0 609.5,196.0 609.5,196.0 610.5,196.0 610.5,196.0 611.5,196.0 611.5,196.0 612.5,196.0 612.5,196.0 613.5,196.0 613.5,41.7 614.5,196.0 614.5,196.0 615.5,196.0 615.5,196.0 616.5,196.0 616.5,196.0 617.5,196.0 617.5,196.0 618.5,196.0 618.5,196.0 619.5,196.0 619.5,196.0 620.5,196.0 620.5,196.0 621.5,196.0 621.5,196.0 622.5,196.0 622.5,196.0 623.5,196.0 623.5,196.0 624.5,196.0 624.5,196.0 625.5,196.0 625.5,196.0 626.5,196.0 626.5,196.0 627.5,196.0 627.5,196.0 628.5,196.0 628.5,196.0 629.5,196.0 629.5,196.0 630.5,196.0 630.5,196.0 631.5,196.0 631.5,196.0 632.5,196.0 632.5,196.0 633.5,196.0 633.5,196.0 634.5,196.0 634.5,196.0 635.5,196.0 635.5,196.0 636.5,196.0 636.5,196.0 637.5,196.0 637.5,196.0 638.5,196.0 638.5,196.0 639.5,196.0 639.5,196.0 640.5,196.0 640.5,196.0 641.5,196.0 641.5,196.0 642.5,196.0 642.5,196.0 643.5,196.0 643.5,196.0 644.5,196.0 644.5,196.0 645.5,196.0 645.5,196.0 646.5,196.0 646.5,196.0 647.5,196.0 647.5,196.0 648.5,196.0 648.5,196.0 649.5,196.0 649.5,196.0 650.5,196.0 650.5,196.0 651.5,196.0 651.5,196.0 652.5,196.0 652.5,196.0 653.5,196.0 653.5,196.0 654.5,196.0 654.5,196.0 655.5,196.0 655.5,196.0 656.5,196.0 656.5,196.0 657.5,196.0 657.5,196.0 658.5,196.0 658.5,196.0 659.5,196.0 659.5,196.0 660.5,196.0 660.5,196.0 661.5,196.0 661.5,196.0 662.5,196.0 662.5,196.0 663.5,196.0 663.5,196.0 664.5,196.0 664.5,196.0 665.5,196.0 665.5,196.0 666.5,196.0 666.5,196.0 667.5,196.0 667.5,196.0 668.5,196.0 668.5,196.0 669.5,196.0 669.5,196.0 670.5,196.0 670.5,196.0 671.5,196.0 671.5,196.0 672.5,196.0 672.5,196.0 673.5,196.0 673.5,196.0 674.5,196.0 674.5,196.0 675.5,196.0 675.5,196.0 676.5,196.0 676.5,196.0 677.5,196.0 677.5,196.0 678.5,196.0 678.5,196.0 679.5,196.0 679.5,196.0 680.5,196.0 680.5,196.0 681.5,196.0 681.5,196.0 682.5,196.0 682.5,196.0 683.5,196.0 683.5,196.0 684.5,196.0 684.5,196.0 685.5,196.0 685.5,196.0 686.5,196.0 686.5,196.0 687.5,196.0 687.5,196.0 688.5,196.0 688.5,196.0 689.5,196.0 689.5,196.0 690.5,196.0 690.5,196.0 691.5,196.0 691.5,196.0 692.5,196.0 692.5,196.0 693.5,196.0 693.5,196.0 694.5,196.0 694.5,196.0 695.5,196.0 695.5,196.0 696.5,196.0 696.5,196.0 697.5,196.0 697.5,196.0 698.5,196.0 698.5,196.0 699.5,196.0 699.5,196.0 700.5,196.0 700.5,196.0 701.5,196.0 701.5,196.0 702.5,196.0 702.5,196.0 703.5,196.0 703.5,196.0 704.5,196.0 704.5,196.0 705.5,196.0 705.5,196.0 706.5,196.0 706.5,196.0 707.5,196.0 707.5,196.0 708.5,196.0 708.5,196.0 709.5,196.0 709.5,196.0 710.5,196.0 710.5,196.0 711.5,196.0 711.5,196.0 712.5,196.0 712.5,196.0 713.5,196.0 713.5,196.0 714.5,196.0 714.5,196.0 715.5,196.0 715.5,196.0 716.5,196.0 716.5,196.0 717.5,196.0 717.5,196.0 718.5,196.0 718.5,196.0 719.5,196.0 719.5,196.0 720.5,196.0 720.5,196.0 721.5,196.0 721.5,196.0 722.5,196.0 722.5,196.0 723.5,196.0 723.5,196.0 724.5,196.0 724.5,196.0 725.5,196.0 725.5,196.0 726.5,196.0 726.5,196.0 727.5,196.0 727.5,196.0 728.5,196.0 728.5,196.0 729.5,196.0 729.5,196.0 730.5,196.0 730.5,196.0 731.5,196.0 731.5,196.0 732.5,196.0 732.5,196.0 733.5,196.0 733.5,196.0 734.5,196.0 734.5,196.0 735.5,196.0 735.5,196.0 736.5,196.0 736.5,196.0 737.5,196.0 737.5,196.0 738.5,196.0 738.5,196.0 739.5,196.0 739.5,196.0 740.5,196.0 740.5,196.0 741.5,196.0 741.5,196.0 742.5,196.0 742.5,196.0 743.5,196.0 743.5,196.0 744.5,196.0 744.5,196.0 745.5,196.0 745.5,196.0 746.5,196.0 746.5,196.0 747.5,196.0 747.5,196.0 748.5,196.0 748.5,196.0 749.5,196.0 749.5,196.0 750.5,196.0 750.5,196.0 751.5,196.0 751.5,196.0 752.5,196.0 752.5,196.0 753.5,196.0 753.5,196.0 754.5,196.0 754.5,196.0 755.5,196.0 755.5,196.0 756.5,196.0 756.5,196.0 757.5,196.0 757.5,196.0 758.5,196.0 758.5,196.0 759.5,196.0 759.5,196.0 760.5,196.0 760.5,196.0 761.5,196.0 761.5,196.0 762.5,196.0 762.5,196.0 763.5,196.0 763.5,196.0 764.5,196.0 764.5,196.0 765.5,196.0 765.5,196.0 766.5,196.0 766.5,196.0 767.5,196.0 767.5,196.0 768.5,196.0 768.5,196.0 769.5,196.0 769.5,196.0 770.5,196.0 770.5,196.0 771.5,196.0 771.5,196.0 772.5,196.0 772.5,196.0 773.5,196.0 773.5,196.0 774.5,196.0 774.5,196.0 775.5,196.0 775.5,196.0 776.5,196.0 776.5,196.0 777.5,196.0 777.5,196.0 778.5,196.0 778.5,196.0 779.5,196.0 779.5,196.0 780.5,196.0 780.5,196.0 781.5,196.0 781.5,196.0 782.5,196.0 782.5,196.0 783.5,196.0 783.5,196.0 784.5,196.0 784.5,196.0 785.5,196.0 785.5,140.5 786.5,196.0 786.5,196.0 787.5,196.0 787.5,196.0 788.5,196.0 788.5,196.0 789.5,196.0 789.5,196.0 790.5,196.0 790.5,196.0 791.5,196.0 791.5,196.0 792.5,196.0 792.5,196.0 793.5,196.0 793.5,196.0 794.5,196.0 794.5,196.0 795.5,196.0 795.5,196.0 796.5,196.0 796.5,196.0 797.5,196.0 797.5,196.0 798.5,196.0 798.5,196.0 799.5,196.0 799.5,196.0" fill="none" stroke="#3b82f6" stroke-width="1.5" stroke-linejoin="round"/>
</svg>
