<svg xmlns="http://www.w3.org/2000/svg" viewBox="0 0 820 392" style="font-family:system-ui,-apple-system,sans-serif">
  <defs>
    <clipPath id="u6"><rect x="34" y="16" width="766" height="360"/></clipPath>
  </defs>
  <text x="800" y="11" text-anchor="end" font-size="11" fill="#6b7280" font-weight="600">Pitch shifter — 440Hz → ~660Hz (perfect fifth, shift=1.5)</text>
  <line x1="34" y1="16" x2="34" y2="376" stroke="#d1d5db" stroke-width="1"/>
  <line x1="34" y1="376" x2="800" y2="376" stroke="#d1d5db" stroke-width="1"/>
  <line x1="34" y1="16" x2="34" y2="376" stroke="#e5e7eb" stroke-width="0.5"/>
  <line x1="65.9" y1="16" x2="65.9" y2="376" stroke="#e5e7eb" stroke-width="0.5"/>
  <line x1="92.8" y1="16" x2="92.8" y2="376" stroke="#e5e7eb" stroke-width="0.5"/>
  <line x1="116.2" y1="16" x2="116.2" y2="376" stroke="#e5e7eb" stroke-width="0.5"/>
  <line x1="136.7" y1="16" x2="136.7" y2="376" stroke="#e5e7eb" stroke-width="0.5"/>
  <line x1="276.3" y1="16" x2="276.3" y2="376" stroke="#e5e7eb" stroke-width="0.5"/>
  <line x1="347.2" y1="16" x2="347.2" y2="376" stroke="#e5e7eb" stroke-width="0.5"/>
  <line x1="397.5" y1="16" x2="397.5" y2="376" stroke="#e5e7eb" stroke-width="0.5"/>
  <line x1="436.5" y1="16" x2="436.5" y2="376" stroke="#e5e7eb" stroke-width="0.5"/>
  <line x1="468.4" y1="16" x2="468.4" y2="376" stroke="#e5e7eb" stroke-width="0.5"/>
  <line x1="495.3" y1="16" x2="495.3" y2="376" stroke="#e5e7eb" stroke-width="0.5"/>
  <line x1="518.7" y1="16" x2="518.7" y2="376" stroke="#e5e7eb" stroke-width="0.5"/>
  <line x1="539.3" y1="16" x2="539.3" y2="376" stroke="#e5e7eb" stroke-width="0.5"/>
  <line x1="678.8" y1="16" x2="678.8" y2="376" stroke="#e5e7eb" stroke-width="0.5"/>
  <line x1="749.7" y1="16" x2="749.7" y2="376" stroke="#e5e7eb" stroke-width="0.5"/>
  <line x1="800" y1="16" x2="800" y2="376" stroke="#e5e7eb" stroke-width="0.5"/>
  <line x1="155.2" y1="16" x2="155.2" y2="376" stroke="#e5e7eb" stroke-width="0.5"/>
  <text x="155.2" y="388" text-anchor="middle" font-size="8" fill="#6b7280">100</text>
  <line x1="557.7" y1="16" x2="557.7" y2="376" stroke="#e5e7eb" stroke-width="0.5"/>
  <text x="557.7" y="388" text-anchor="middle" font-size="8" fill="#6b7280">1k</text>
  <line x1="960.2" y1="16" x2="960.2" y2="376" stroke="#e5e7eb" stroke-width="0.5"/>
  <text x="960.2" y="388" text-anchor="middle" font-size="8" fill="#6b7280">10k</text>
  <line x1="34" y1="376" x2="800" y2="376" stroke="#e5e7eb" stroke-width="0.5"/>
  <text x="30" y="379" text-anchor="end" font-size="8" fill="#6b7280">-80</text>
  <line x1="34" y1="286" x2="800" y2="286" stroke="#e5e7eb" stroke-width="0.5"/>
  <text x="30" y="289" text-anchor="end" font-size="8" fill="#6b7280">-60</text>
  <line x1="34" y1="196" x2="800" y2="196" stroke="#e5e7eb" stroke-width="0.5"/>
  <text x="30" y="199" text-anchor="end" font-size="8" fill="#6b7280">-40</text>
  <line x1="34" y1="106" x2="800" y2="106" stroke="#e5e7eb" stroke-width="0.5"/>
  <text x="30" y="109" text-anchor="end" font-size="8" fill="#6b7280">-20</text>
  <line x1="34" y1="16" x2="800" y2="16" stroke="#e5e7eb" stroke-width="0.5"/>
  <text x="30" y="19" text-anchor="end" font-size="8" fill="#6b7280">0</text>
  <text x="417" y="402" text-anchor="middle" font-size="9" fill="#6b7280">Hz</text>
  <text x="12" y="196" text-anchor="middle" font-size="9" fill="#6b7280">dB</text>
  <polyline clip-path="url(#u6)" points="46.9,271.9 78.8,271.1 105.7,270.2 129.1,269.2 149.7,268.0 168.1,266.8 184.7,265.4 199.9,264.0 213.9,262.4 226.9,260.8 239.0,259.1 250.2,257.3 260.8,255.4 270.8,253.4 280.3,251.3 289.2,249.1 297.8,246.9 305.9,244.5 313.7,242.0 321.1,239.4 328.2,236.6 335.1,233.7 341.7,230.6 348.1,227.3 354.2,223.8 360.1,220.0 365.9,215.8 371.4,211.3 376.8,206.3 382.0,200.6 387.1,194.1 392.0,186.5 396.8,177.2 401.4,165.2 406.0,148.1 410.4,117.8 414.7,44.2 418.9,127.7 423.1,152.1 427.1,166.9 431.0,177.4 434.8,185.6 438.6,192.3 442.3,197.9 445.9,202.8 449.4,207.1 452.9,210.9 456.3,214.3 459.6,217.5 462.9,220.3 466.1,223.0 469.2,225.4 472.3,227.7 475.4,229.9 478.3,231.9 481.3,233.8 484.2,235.6 487.0,237.3 489.8,238.9 492.6,240.4 495.3,241.9 497.9,243.3 500.6,244.6 503.2,245.9 505.7,247.2 508.2,248.4 510.7,249.5 513.2,250.6 515.6,251.7 517.9,252.8 520.3,253.8 522.6,254.8 524.9,255.7 527.1,256.6 529.4,257.5 531.6,258.4 533.7,259.3 535.9,260.1 538.0,260.9 540.1,261.7 542.2,262.4 544.2,263.2 546.2,263.9 548.2,264.6 550.2,265.3 552.2,266.0 554.1,266.7 556.0,267.4 557.9,268.0 559.8,268.6 561.6,269.3 563.4,269.9 565.3,270.5 567.0,271.0 568.8,271.6 570.6,272.2 572.3,272.7 574.0,273.3 575.7,273.8 577.4,274.4 579.1,274.9 580.8,275.4 582.4,275.9 584.0,276.4 585.6,276.9 587.2,277.4 588.8,277.8 590.4,278.3 591.9,278.8 593.5,279.2 595.0,279.7 596.5,280.1 598.0,280.6 599.5,281.0 601.0,281.4 602.5,281.8 603.9,282.3 605.3,282.7 606.8,283.1 608.2,283.5 609.6,283.9 611.0,284.3 612.4,284.7 613.7,285.0 615.1,285.4 616.4,285.8 617.8,286.2 619.1,286.5 620.4,286.9 621.7,287.3 623.0,287.6 624.3,288.0 625.6,288.3 626.9,288.7 628.1,289.0 629.4,289.3 630.6,289.7 631.9,290.0 633.1,290.3 634.3,290.6 635.5,291.0 636.7,291.3 637.9,291.6 639.1,291.9 640.3,292.2 641.5,292.5 642.6,292.8 643.8,293.1 644.9,293.4 646.1,293.7 647.2,294.0 648.3,294.3 649.4,294.6 650.5,294.9 651.6,295.2 652.7,295.5 653.8,295.7 654.9,296.0 656.0,296.3 657.1,296.6 658.1,296.8 659.2,297.1 660.2,297.4 661.3,297.6 662.3,297.9 663.3,298.2 664.4,298.4 665.4,298.7 666.4,298.9 667.4,299.2 668.4,299.4 669.4,299.7 670.4,299.9 671.4,300.2 672.4,300.4 673.3,300.7 674.3,300.9 675.3,301.1 676.2,301.4 677.2,301.6 678.1,301.9 679.1,302.1 680.0,302.3 680.9,302.5 681.9,302.8 682.8,303.0 683.7,303.2 684.6,303.5 685.5,303.7 686.4,303.9 687.3,304.1 688.2,304.3 689.1,304.6 690.0,304.8 690.9,305.0 691.7,305.2 692.6,305.4 693.5,305.6 694.3,305.8 695.2,306.0 696.1,306.2 696.9,306.5 697.8,306.7 698.6,306.9 699.4,307.1 700.3,307.3 701.1,307.5 701.9,307.7 702.8,307.9 703.6,308.1 704.4,308.3 705.2,308.5 706.0,308.6 706.8,308.8 707.6,309.0 708.4,309.2 709.2,309.4 710.0,309.6 710.8,309.8 711.6,310.0 712.3,310.2 713.1,310.3 713.9,310.5 714.7,310.7 715.4,310.9 716.2,311.1 716.9,311.3 717.7,311.4 718.4,311.6 719.2,311.8 719.9,312.0 720.7,312.1 721.4,312.3 722.2,312.5 722.9,312.7 723.6,312.8 724.3,313.0 725.1,313.2 725.8,313.3 726.5,313.5 727.2,313.7 727.9,313.8 728.6,314.0 729.3,314.2 730.1,314.3 730.8,314.5 731.5,314.7 732.1,314.8 732.8,315.0 733.5,315.2 734.2,315.3 734.9,315.5 735.6,315.6 736.3,315.8 736.9,316.0 737.6,316.1 738.3,316.3 738.9,316.4 739.6,316.6 740.3,316.7 740.9,316.9 741.6,317.0 742.3,317.2 742.9,317.3 743.6,317.5 744.2,317.6 744.9,317.8 745.5,317.9 746.1,318.1 746.8,318.2 747.4,318.4 748.0,318.5 748.7,318.7 749.3,318.8 749.9,319.0 750.6,319.1 751.2,319.3 751.8,319.4 752.4,319.6 753.0,319.7 753.7,319.8 754.3,320.0 754.9,320.1 755.5,320.3 756.1,320.4 756.7,320.5 757.3,320.7 757.9,320.8 758.5,320.9 759.1,321.1 759.7,321.2 760.3,321.4 760.9,321.5 761.5,321.6 762.0,321.8 762.6,321.9 763.2,322.0 763.8,322.2 764.4,322.3 764.9,322.4 765.5,322.6 766.1,322.7 766.7,322.8 767.2,322.9 767.8,323.1 768.4,323.2 768.9,323.3 769.5,323.5 770.0,323.6 770.6,323.7 771.2,323.8 771.7,324.0 772.3,324.1 772.8,324.2 773.4,324.3 773.9,324.5 774.5,324.6 775.0,324.7 775.5,324.8 776.1,325.0 776.6,325.1 777.2,325.2 777.7,325.3 778.2,325.4 778.8,325.6 779.3,325.7 779.8,325.8 780.3,325.9 780.9,326.0 781.4,326.2 781.9,326.3 782.4,326.4 783.0,326.5 783.5,326.6 784.0,326.8 784.5,326.9 785.0,327.0 785.5,327.1 786.0,327.2 786.5,327.3 787.1,327.4 787.6,327.6 788.1,327.7 788.6,327.8 789.1,327.9 789.6,328.0 790.1,328.1 790.6,328.2 791.1,328.3 791.6,328.5 792.0,328.6 792.5,328.7 793.0,328.8 793.5,328.9 794.0,329.0 794.5,329.1 795.0,329.2 795.5,329.3 795.9,329.4 796.4,329.6 796.9,329.7 797.4,329.8 797.9,329.9 798.3,330.0 798.8,330.1 799.3,330.2 799.8,330.3" fill="none" stroke="#d1d5db" stroke-width="1.5" stroke-linejoin="round"/>
  <polyline clip-path="url(#u6)" points="46.9,163.7 78.8,194.3 105.7,159.5 129.1,201.3 149.7,178.6 168.1,204.5 184.7,176.3 199.9,207.7 213.9,202.5 226.9,236.9 239.0,192.5 250.2,263.2 260.8,194.4 270.8,213.1 280.3,184.7 289.2,229.7 297.8,197.8 305.9,217.8 313.7,195.5 321.1,211.1 328.2,226.4 335.1,255.2 341.7,206.5 348.1,304.3 354.2,191.4 360.1,208.8 365.9,186.6 371.4,241.4 376.8,195.6 382.0,213.3 387.1,198.0 392.0,202.8 396.8,224.8 401.4,250.7 406.0,206.9 410.4,250.9 414.7,177.3 418.9,194.8 423.1,177.3 427.1,244.9 431.0,179.7 434.8,195.6 438.6,187.3 442.3,182.6 445.9,201.2 449.4,225.4 452.9,193.5 456.3,207.5 459.6,145.3 462.9,158.9 466.1,145.7 469.2,223.4 472.3,129.0 475.4,137.5 478.3,142.1 481.3,98.5 484.2,69.0 487.0,125.4 489.8,99.9 492.6,147.1 495.3,114.1 497.9,153.0 500.6,143.6 503.2,243.6 505.7,158.4 508.2,178.1 510.7,181.4 513.2,179.7 515.6,196.2 517.9,229.4 520.3,215.6 522.6,213.7 524.9,173.5 527.1,201.4 529.4,196.5 531.6,287.5 533.7,195.9 535.9,213.2 538.0,220.6 540.1,211.9 542.2,223.6 544.2,252.9 546.2,253.9 548.2,235.2 550.2,197.5 552.2,224.2 554.1,223.5 556.0,291.7 557.9,215.6 559.8,231.8 561.6,242.7 563.4,230.7 565.3,239.2 567.0,266.1 568.8,282.6 570.6,248.2 572.3,213.1 574.0,239.4 575.7,243.1 577.4,293.9 579.1,229.2 580.8,244.5 582.4,258.1 584.0,244.1 585.6,250.3 587.2,275.1 588.8,308.8 590.4,257.6 591.9,224.8 593.5,250.8 595.0,259.1 596.5,296.2 598.0,239.5 599.5,254.1 601.0,269.7 602.5,254.5 603.9,258.8 605.3,281.8 606.8,336.0 608.2,265.0 609.6,234.2 611.0,260.0 612.4,273.2 613.7,298.5 615.1,247.9 616.4,261.9 617.8,278.7 619.1,263.1 620.4,265.8 621.7,287.1 623.0,364.2 624.3,271.1 625.6,242.0 626.9,267.6 628.1,285.9 629.4,300.8 630.6,255.0 631.9,268.3 633.1,285.9 634.3,270.3 635.5,271.7 636.7,291.5 637.9,373.5 639.1,276.4 640.3,248.8 641.5,274.1 642.6,297.7 643.8,303.1 644.9,261.1 646.1,273.8 647.2,291.8 648.3,276.5 649.4,276.9 650.5,295.3 651.6,362.7 652.7,281.0 653.8,254.8 654.9,279.8 656.0,309.1 657.1,305.2 658.1,266.4 659.2,278.7 660.2,296.8 661.3,281.9 662.3,281.4 663.3,298.7 664.4,353.9 665.4,285.0 666.4,260.1 667.4,284.7 668.4,320.0 669.4,307.3 670.4,271.2 671.4,283.0 672.4,301.0 673.3,286.7 674.3,285.5 675.3,301.6 676.2,348.3 677.2,288.7 678.1,264.9 679.1,289.2 680.0,330.7 680.9,309.3 681.9,275.4 682.8,286.8 683.7,304.6 684.6,291.0 685.5,289.2 686.4,304.3 687.3,344.7 688.2,292.0 689.1,269.3 690.0,293.2 690.9,341.1 691.7,311.2 692.6,279.4 693.5,290.3 694.3,307.8 695.2,294.9 696.1,292.5 696.9,306.8 697.8,342.4 698.6,295.1 699.4,273.3 700.3,296.8 701.1,351.1 701.9,313.0 702.8,282.9 703.6,293.5 704.4,310.7 705.2,298.5 706.0,295.6 706.8,309.1 707.6,341.0 708.4,297.9 709.2,277.0 710.0,300.1 710.8,360.2 711.6,314.7 712.3,286.3 713.1,296.5 713.9,313.2 714.7,301.7 715.4,298.5 716.2,311.2 716.9,340.0 717.7,300.6 718.4,280.4 719.2,303.1 719.9,367.7 720.7,316.4 721.4,289.3 722.2,299.2 722.9,315.6 723.6,304.7 724.3,301.2 725.1,313.2 725.8,339.5 726.5,303.0 727.2,283.6 727.9,306.0 728.6,372.7 729.3,318.0 730.1,292.2 730.8,301.7 731.5,317.7 732.1,307.5 732.8,303.6 733.5,315.0 734.2,339.3 734.9,305.3 735.6,286.6 736.3,308.6 736.9,375.1 737.6,319.5 738.3,294.9 738.9,304.1 739.6,319.7 740.3,310.1 740.9,306.0 741.6,316.8 742.3,339.3 742.9,307.5 743.6,289.5 744.2,311.0 744.9,375.3 745.5,320.9 746.1,297.4 746.8,306.4 747.4,321.5 748.0,312.5 748.7,308.2 749.3,318.5 749.9,339.4 750.6,309.6 751.2,292.1 751.8,313.3 752.4,374.2 753.0,322.4 753.7,299.8 754.3,308.5 754.9,323.3 755.5,314.7 756.1,310.3 756.7,320.0 757.3,339.6 757.9,311.5 758.5,294.7 759.1,315.4 759.7,372.6 760.3,323.7 760.9,302.0 761.5,310.5 762.0,324.9 762.6,316.9 763.2,312.3 763.8,321.6 764.4,339.9 764.9,313.4 765.5,297.1 766.1,317.5 766.7,370.9 767.2,325.0 767.8,304.2 768.4,312.4 768.9,326.4 769.5,318.9 770.0,314.1 770.6,323.0 771.2,340.3 771.7,315.1 772.3,299.4 772.8,319.4 773.4,369.3 773.9,326.3 774.5,306.2 775.0,314.2 775.5,327.9 776.1,320.8 776.6,315.9 777.2,324.4 777.7,340.8 778.2,316.8 778.8,301.5 779.3,321.2 779.8,367.9 780.3,327.5 780.9,308.2 781.4,315.9 781.9,329.3 782.4,322.6 783.0,317.6 783.5,325.7 784.0,341.3 784.5,318.4 785.0,303.6 785.5,322.9 786.0,366.7 786.5,328.7 787.1,310.0 787.6,317.5 788.1,330.6 788.6,324.3 789.1,319.2 789.6,327.0 790.1,341.8 790.6,320.0 791.1,305.6 791.6,324.5 792.0,365.7 792.5,329.9 793.0,311.8 793.5,319.1 794.0,331.9 794.5,325.9 795.0,320.8 795.5,328.2 795.9,342.3 796.4,321.5 796.9,307.5 797.4,326.1 797.9,364.8 798.3,331.0 798.8,313.5 799.3,320.6 799.8,333.1" fill="none" stroke="#3b82f6" stroke-width="1.5" stroke-linejoin="round"/>
  <line x1="34" y1="8" x2="46" y2="8" stroke="#d1d5db" stroke-width="2"/>
  <text x="49" y="11" text-anchor="start" font-size="11" fill="#6b7280">440Hz input</text>
  <line x1="122.8" y1="8" x2="134.8" y2="8" stroke="#3b82f6" stroke-width="2"/>
  <text x="137.8" y="11" text-anchor="start" font-size="11" fill="#6b7280">shift=1.5 output</text>
</svg>
