<svg xmlns="http://www.w3.org/2000/svg" viewBox="0 0 820 392" style="font-family:system-ui,-apple-system,sans-serif">
  <defs>
    <clipPath id="u25"><rect x="34" y="16" width="766" height="360"/></clipPath>
  </defs>
  <text x="800" y="11" text-anchor="end" font-size="11" fill="#6b7280" font-weight="600">Reverb — Schroeder, decay=0.84, damping=0.5</text>
  <line x1="34" y1="16" x2="34" y2="376" stroke="#d1d5db" stroke-width="1"/>
  <line x1="34" y1="376" x2="800" y2="376" stroke="#d1d5db" stroke-width="1"/>
  <line x1="34" y1="16" x2="34" y2="376" stroke="#e5e7eb" stroke-width="0.5"/>
  <text x="34" y="388" text-anchor="middle" font-size="8" fill="#6b7280">0</text>
  <line x1="187.2" y1="16" x2="187.2" y2="376" stroke="#e5e7eb" stroke-width="0.5"/>
  <text x="187.2" y="388" text-anchor="middle" font-size="8" fill="#6b7280">200</text>
  <line x1="340.4" y1="16" x2="340.4" y2="376" stroke="#e5e7eb" stroke-width="0.5"/>
  <text x="340.4" y="388" text-anchor="middle" font-size="8" fill="#6b7280">400</text>
  <line x1="493.6" y1="16" x2="493.6" y2="376" stroke="#e5e7eb" stroke-width="0.5"/>
  <text x="493.6" y="388" text-anchor="middle" font-size="8" fill="#6b7280">600</text>
  <line x1="646.8" y1="16" x2="646.8" y2="376" stroke="#e5e7eb" stroke-width="0.5"/>
  <text x="646.8" y="388" text-anchor="middle" font-size="8" fill="#6b7280">800</text>
  <line x1="800" y1="16" x2="800" y2="376" stroke="#e5e7eb" stroke-width="0.5"/>
  <text x="800" y="388" text-anchor="middle" font-size="8" fill="#6b7280">1000</text>
  <line x1="34" y1="340" x2="800" y2="340" stroke="#e5e7eb" stroke-width="0.5"/>
  <text x="30" y="343" text-anchor="end" font-size="8" fill="#6b7280">-0.12</text>
  <line x1="34" y1="268" x2="800" y2="268" stroke="#e5e7eb" stroke-width="0.5"/>
  <text x="30" y="271" text-anchor="end" font-size="8" fill="#6b7280">-0.06</text>
  <line x1="34" y1="196" x2="800" y2="196" stroke="#e5e7eb" stroke-width="0.5"/>
  <text x="30" y="199" text-anchor="end" font-size="8" fill="#6b7280">0</text>
  <line x1="34" y1="124" x2="800" y2="124" stroke="#e5e7eb" stroke-width="0.5"/>
  <text x="30" y="127" text-anchor="end" font-size="8" fill="#6b7280">0.06</text>
  <line x1="34" y1="52" x2="800" y2="52" stroke="#e5e7eb" stroke-width="0.5"/>
  <text x="30" y="55" text-anchor="end" font-size="8" fill="#6b7280">0.12</text>
  <line x1="34" y1="196" x2="800" y2="196" stroke="#d1d5db" stroke-width="0.5"/>
  <text x="417" y="402" text-anchor="middle" font-size="9" fill="#6b7280">ms</text>
  <text x="12" y="196" text-anchor="middle" font-size="9" fill="#6b7280">amp</text>
  <polyline clip-path="url(#u25)" points="34.5,196.0 34.5,196.0 35.5,196.0 35.5,196.0 36.5,196.0 36.5,196.0 37.5,196.0 37.5,196.0 38.5,196.0 38.5,196.0 39.5,196.0 39.5,196.0 40.5,196.0 40.5,196.0 41.5,196.0 41.5,196.0 42.5,196.0 42.5,196.0 43.5,196.0 43.5,196.0 44.5,196.0 44.5,196.0 45.5,196.0 45.5,196.0 46.5,196.0 46.5,196.0 47.5,196.0 47.5,196.0 48.5,196.0 48.5,196.0 49.5,196.0 49.5,196.0 50.5,196.0 50.5,196.0 51.5,196.0 51.5,196.0 52.5,196.0 52.5,196.0 53.5,196.0 53.5,196.0 54.5,196.0 54.5,196.0 55.5,196.0 55.5,196.0 56.5,196.0 56.5,121.0 57.5,196.0 57.5,196.0 58.5,196.0 58.5,121.0 59.5,196.0 59.5,121.0 60.5,196.0 60.5,121.0 61.5,346.0 61.5,196.0 62.5,346.0 62.5,196.0 63.5,346.0 63.5,196.0 64.5,346.0 64.5,196.0 65.5,346.0 65.5,196.0 66.5,346.0 66.5,196.0 67.5,271.0 67.5,16.0 68.5,271.0 68.5,16.0 69.5,196.0 69.5,196.0 70.5,271.0 70.5,16.0 71.5,271.0 71.5,16.0 72.5,271.0 72.5,196.0 73.5,233.5 73.5,46.0 74.5,233.5 74.5,46.0 75.5,214.8 75.5,196.0 76.5,233.5 76.5,46.0 77.5,233.5 77.5,46.0 78.5,233.5 78.5,120.8 79.5,214.8 79.5,121.0 80.5,214.8 80.5,121.0 81.5,196.0 81.5,121.0 82.5,214.7 82.5,120.9 83.5,259.0 83.5,121.0 84.5,258.9 84.5,158.5 85.5,200.7 85.5,158.5 86.5,259.0 86.5,150.7 87.5,196.0 87.5,158.0 88.5,262.9 88.5,158.5 89.5,259.0 89.5,70.1 90.5,259.0 90.5,177.2 91.5,259.2 91.5,177.3 92.5,258.0 92.5,72.0 93.5,227.5 93.5,177.5 94.5,219.6 94.5,133.1 95.5,200.7 95.5,70.0 96.5,227.7 96.5,186.6 97.5,203.9 97.5,69.5 98.5,211.8 98.5,129.1 99.5,227.0 99.5,133.0 100.5,207.8 100.5,164.4 101.5,211.6 101.5,133.0 102.5,212.7 102.5,132.8 103.5,203.9 103.5,132.7 104.5,197.2 104.5,162.5 105.5,222.5 105.5,179.3 106.5,222.5 106.5,157.9 107.5,198.0 107.5,164.3 108.5,201.9 108.5,164.4 109.5,196.1 109.5,164.4 110.5,222.5 110.5,190.2 111.5,203.7 111.5,143.1 112.5,223.4 112.5,180.3 113.5,198.0 113.5,174.6 114.5,222.5 114.5,180.2 115.5,222.5 115.5,180.2 116.5,196.3 116.5,143.1 117.5,199.9 117.5,169.5 118.5,222.0 118.5,189.8 119.5,220.1 119.5,187.6 120.5,200.8 120.5,143.1 121.5,209.2 121.5,170.3 122.5,196.0 122.5,168.3 123.5,205.3 123.5,182.8 124.5,202.6 124.5,142.3 125.5,208.1 125.5,169.5 126.5,196.5 126.5,169.5 127.5,216.6 127.5,182.9 128.5,212.7 128.5,182.7 129.5,197.0 129.5,166.1 130.5,199.5 130.5,169.2 131.5,202.0 131.5,182.8 132.5,204.5 132.5,188.0 133.5,197.7 133.5,162.2 134.5,211.3 134.5,187.5 135.5,197.2 135.5,181.1 136.5,211.4 136.5,182.6 137.5,200.2 137.5,192.0 138.5,196.8 138.5,175.4 139.5,212.6 139.5,180.8 140.5,212.6 140.5,161.7 141.5,197.4 141.5,188.5 142.5,203.9 142.5,189.3 143.5,197.5 143.5,185.7 144.5,210.6 144.5,186.2 145.5,210.7 145.5,162.6 146.5,204.3 146.5,179.0 147.5,196.5 147.5,192.3 148.5,199.3 148.5,190.8 149.5,208.4 149.5,191.1 150.5,200.5 150.5,161.5 151.5,207.6 151.5,179.3 152.5,202.2 152.5,187.0 153.5,198.1 153.5,188.8 154.5,200.9 154.5,189.9 155.5,196.0 155.5,173.0 156.5,196.0 156.5,178.7 157.5,201.8 157.5,187.7 158.5,209.6 158.5,195.3 159.5,198.3 159.5,190.1 160.5,207.4 160.5,183.5 161.5,196.0 161.5,184.5 162.5,196.0 162.5,187.3 163.5,200.6 163.5,193.8 164.5,207.7 164.5,173.2 165.5,207.7 165.5,189.7 166.5,201.8 166.5,189.7 167.5,196.0 167.5,190.1 168.5,198.3 168.5,191.7 169.5,202.0 169.5,182.2 170.5,196.9 170.5,172.6 171.5,207.3 171.5,191.4 172.5,207.7 172.5,192.9 173.5,205.7 173.5,193.7 174.5,198.7 174.5,189.1 175.5,201.6 175.5,184.4 176.5,198.6 176.5,184.3 177.5,199.0 177.5,172.2 178.5,201.9 178.5,176.1 179.5,198.5 179.5,194.9 180.5,198.8 180.5,190.0 181.5,197.3 181.5,186.5 182.5,198.3 182.5,184.1 183.5,197.4 183.5,184.1 184.5,202.1 184.5,190.9 185.5,197.4 185.5,192.6 186.5,196.7 186.5,190.0 187.5,197.2 187.5,193.1 188.5,196.3 188.5,174.1 189.5,204.2 189.5,187.1 190.5,204.2 190.5,193.9 191.5,200.8 191.5,193.0 192.5,196.6 192.5,191.1 193.5,196.2 193.5,185.1 194.5,200.4 194.5,185.1 195.5,200.4 195.5,178.7 196.5,200.1 196.5,194.7 197.5,204.6 197.5,195.5 198.5,204.5 198.5,190.5 199.5,199.0 199.5,190.5 200.5,196.1 200.5,181.7 201.5,198.2 201.5,187.3 202.5,200.2 202.5,192.6 203.5,198.1 203.5,178.8 204.5,200.3 204.5,193.3 205.5,196.0 205.5,189.6 206.5,202.4 206.5,188.9 207.5,198.0 207.5,191.7 208.5,201.9 208.5,187.3 209.5,197.0 209.5,187.4 210.5,198.1 210.5,192.4 211.5,197.9 211.5,192.8 212.5,197.0 212.5,182.6 213.5,196.6 213.5,191.6 214.5,202.5 214.5,191.7 215.5,196.5 215.5,191.7 216.5,202.4 216.5,195.3 217.5,200.2 217.5,191.9 218.5,196.0 218.5,189.3 219.5,199.4 219.5,191.5 220.5,197.5 220.5,183.0 221.5,198.9 221.5,191.0 222.5,199.2 222.5,184.5 223.5,198.1 223.5,193.9 224.5,202.3 224.5,192.7 225.5,202.3 225.5,189.6 226.5,196.7 226.5,189.5 227.5,195.9 227.5,190.3 228.5,199.2 228.5,190.2 229.5,197.0 229.5,195.0 230.5,201.6 230.5,182.9 231.5,199.2 231.5,192.8 232.5,198.1 232.5,193.8 233.5,196.7 233.5,192.8 234.5,196.8 234.5,189.5 235.5,198.8 235.5,190.7 236.5,196.0 236.5,184.5 237.5,197.6 237.5,193.2 238.5,200.5 238.5,195.8 239.5,201.3 239.5,194.4 240.5,201.1 240.5,193.1 241.5,200.9 241.5,190.2 242.5,196.0 242.5,190.2 243.5,198.2 243.5,192.0 244.5,197.6 244.5,186.9 245.5,196.8 245.5,191.6 246.5,196.1 246.5,186.1 247.5,198.5 247.5,193.1 248.5,197.1 248.5,193.4 249.5,197.1 249.5,191.4 250.5,201.0 250.5,190.4 251.5,201.0 251.5,194.4 252.5,196.7 252.5,191.0 253.5,197.2 253.5,194.6 254.5,199.9 254.5,193.7 255.5,198.4 255.5,193.4 256.5,198.8 256.5,186.0 257.5,198.7 257.5,194.6 258.5,196.6 258.5,193.5 259.5,198.0 259.5,194.9 260.5,199.0 260.5,188.8 261.5,198.8 261.5,190.9 262.5,199.2 262.5,191.1 263.5,196.8 263.5,194.6 264.5,196.9 264.5,194.7 265.5,199.5 265.5,192.4 266.5,199.1 266.5,189.2 267.5,196.3 267.5,192.3 268.5,197.6 268.5,193.3 269.5,198.3 269.5,195.3 270.5,198.1 270.5,194.2 271.5,195.9 271.5,187.7 272.5,197.5 272.5,192.6 273.5,195.9 273.5,192.8 274.5,196.7 274.5,194.6 275.5,196.2 275.5,192.3 276.5,199.0 276.5,192.1 277.5,199.8 277.5,192.0 278.5,199.3 278.5,194.7 279.5,196.8 279.5,194.5 280.5,198.9 280.5,193.4 281.5,197.9 281.5,195.1 282.5,198.4 282.5,194.1 283.5,197.6 283.5,188.9 284.5,199.2 284.5,189.7 285.5,195.9 285.5,192.7 286.5,197.1 286.5,194.7 287.5,197.2 287.5,192.4 288.5,196.7 288.5,192.0 289.5,195.8 289.5,189.9 290.5,200.3 290.5,192.7 291.5,199.3 291.5,193.0 292.5,196.6 292.5,194.2 293.5,196.3 293.5,192.9 294.5,196.0 294.5,193.9 295.5,195.9 295.5,193.6 296.5,196.1 296.5,190.6 297.5,197.1 297.5,194.3 298.5,196.3 298.5,193.1 299.5,196.0 299.5,194.9 300.5,196.0 300.5,194.8 301.5,196.0 301.5,191.7 302.5,198.5 302.5,193.0 303.5,198.4 303.5,195.3 304.5,198.8 304.5,195.9 305.5,197.8 305.5,193.8 306.5,197.9 306.5,193.9 307.5,197.2 307.5,193.7 308.5,197.2 308.5,191.0 309.5,196.9 309.5,189.7 310.5,197.3 310.5,194.8 311.5,196.0 311.5,192.1 312.5,197.6 312.5,194.8 313.5,196.6 313.5,193.5 314.5,196.5 314.5,192.8 315.5,198.4 315.5,192.7 316.5,198.4 316.5,194.0 317.5,196.3 317.5,194.3 318.5,196.0 318.5,195.2 319.5,196.2 319.5,194.4 320.5,197.2 320.5,194.4 321.5,195.9 321.5,191.1 322.5,197.3 322.5,194.4 323.5,196.1 323.5,194.4 324.5,196.3 324.5,195.2 325.5,196.4 325.5,194.4 326.5,197.7 326.5,193.6 327.5,197.5 327.5,193.8 328.5,197.6 328.5,196.1 329.5,198.5 329.5,195.2 330.5,197.8 330.5,195.7 331.5,197.6 331.5,195.1 332.5,196.7 332.5,191.8 333.5,196.0 333.5,192.9 334.5,197.8 334.5,196.0 335.5,196.1 335.5,191.3 336.5,196.4 336.5,190.6 337.5,196.8 337.5,193.9 338.5,195.9 338.5,193.9 339.5,195.9 339.5,194.1 340.5,198.0 340.5,193.7 341.5,198.1 341.5,195.6 342.5,196.0 342.5,193.4 343.5,196.4 343.5,194.9 344.5,195.9 344.5,195.1 345.5,196.9 345.5,194.2 346.5,196.1 346.5,192.2 347.5,196.7 347.5,195.4 348.5,196.3 348.5,194.7 349.5,197.3 349.5,195.5 350.5,198.8 350.5,195.1 351.5,196.3 351.5,193.8 352.5,197.4 352.5,193.9 353.5,196.4 353.5,195.4 354.5,196.5 354.5,195.4 355.5,196.2 355.5,194.2 356.5,197.4 356.5,193.3 357.5,197.4 357.5,194.3 358.5,196.7 358.5,195.0 359.5,196.3 359.5,195.6 360.5,196.1 360.5,195.0 361.5,196.7 361.5,193.2 362.5,196.0 362.5,191.8 363.5,196.7 363.5,194.8 364.5,196.4 364.5,195.4 365.5,197.5 365.5,195.5 366.5,197.1 366.5,194.6 367.5,197.1 367.5,193.9 368.5,196.0 368.5,193.9 369.5,196.3 369.5,195.3 370.5,196.8 370.5,195.1 371.5,196.3 371.5,193.7 372.5,197.4 372.5,195.0 373.5,197.7 373.5,195.0 374.5,197.1 374.5,194.9 375.5,196.4 375.5,195.7 376.5,197.0 376.5,194.9 377.5,195.9 377.5,192.6 378.5,196.4 378.5,194.6 379.5,196.9 379.5,195.5 380.5,196.2 380.5,193.3 381.5,196.1 381.5,194.3 382.5,197.3 382.5,194.3 383.5,196.6 383.5,194.3 384.5,197.3 384.5,195.1 385.5,196.4 385.5,194.6 386.5,195.9 386.5,194.6 387.5,196.7 387.5,194.7 388.5,196.2 388.5,192.7 389.5,196.0 389.5,192.8 390.5,197.2 390.5,195.2 391.5,196.5 391.5,195.3 392.5,197.1 392.5,195.4 393.5,196.2 393.5,194.4 394.5,196.2 394.5,194.6 395.5,196.6 395.5,194.4 396.5,196.3 396.5,193.4 397.5,196.2 397.5,193.6 398.5,197.2 398.5,195.2 399.5,196.3 399.5,194.4 400.5,196.3 400.5,194.6 401.5,196.2 401.5,194.7 402.5,196.2 402.5,194.9 403.5,196.6 403.5,194.7 404.5,196.3 404.5,193.3 405.5,196.1 405.5,194.4 406.5,196.1 406.5,195.2 407.5,196.1 407.5,195.4 408.5,196.4 408.5,195.7 409.5,197.2 409.5,194.6 410.5,197.2 410.5,194.6 411.5,196.0 411.5,194.7 412.5,196.0 412.5,195.6 413.5,196.1 413.5,195.7 414.5,196.5 414.5,195.4 415.5,196.7 415.5,193.4 416.5,197.3 416.5,195.4 417.5,197.3 417.5,195.3 418.5,196.3 418.5,195.5 419.5,196.3 419.5,195.6 420.5,196.7 420.5,194.7 421.5,196.4 421.5,194.7 422.5,197.0 422.5,193.1 423.5,196.7 423.5,195.7 424.5,196.6 424.5,195.6 425.5,196.3 425.5,195.3 426.5,196.0 426.5,194.5 427.5,196.2 427.5,194.6 428.5,196.1 428.5,194.3 429.5,196.3 429.5,194.7 430.5,196.3 430.5,195.5 431.5,195.9 431.5,195.3 432.5,196.1 432.5,195.3 433.5,195.9 433.5,194.9 434.5,195.9 434.5,195.2 435.5,196.9 435.5,195.2 436.5,196.3 436.5,195.5 437.5,196.9 437.5,195.6 438.5,196.5 438.5,195.6 439.5,196.4 439.5,195.6 440.5,196.5 440.5,195.6 441.5,196.6 441.5,193.8 442.5,196.8 442.5,194.4 443.5,196.7 443.5,195.8 444.5,196.0 444.5,194.8 445.5,196.3 445.5,195.8 446.5,196.4 446.5,195.1 447.5,196.1 447.5,194.3 448.5,196.4 448.5,195.4 449.5,196.0 449.5,195.7 450.5,196.1 450.5,195.4 451.5,196.3 451.5,195.4 452.5,195.9 452.5,194.4 453.5,196.0 453.5,194.9 454.5,196.2 454.5,195.3 455.5,196.0 455.5,195.8 456.5,196.0 456.5,195.6 457.5,195.9 457.5,195.2 458.5,196.0 458.5,195.1 459.5,196.0 459.5,195.2 460.5,196.5 460.5,195.6 461.5,196.3 461.5,195.6 462.5,196.8 462.5,195.6 463.5,196.7 463.5,195.7 464.5,196.0 464.5,195.6 465.5,196.1 465.5,195.6 466.5,196.7 466.5,195.1 467.5,196.6 467.5,195.8 468.5,196.1 468.5,194.3 469.5,196.4 469.5,195.8 470.5,196.5 470.5,196.0 471.5,196.3 471.5,195.5 472.5,196.5 472.5,194.7 473.5,196.3 473.5,195.1 474.5,196.1 474.5,195.1 475.5,196.4 475.5,196.0 476.5,196.1 476.5,194.9 477.5,195.9 477.5,195.1 478.5,196.1 478.5,195.3 479.5,196.2 479.5,195.6 480.5,196.1 480.5,195.7 481.5,196.0 481.5,195.5 482.5,196.2 482.5,195.4 483.5,196.0 483.5,195.4 484.5,196.1 484.5,195.7 485.5,196.1 485.5,195.9 486.5,196.0 486.5,195.4 487.5,196.1 487.5,195.8 488.5,196.0 488.5,195.6 489.5,196.5 489.5,195.6 490.5,196.6 490.5,195.8 491.5,196.4 491.5,195.8 492.5,196.4 492.5,195.8 493.5,196.0 493.5,195.8 494.5,196.0 494.5,194.7 495.5,196.3 495.5,195.4 496.5,196.8 496.5,195.9 497.5,196.0 497.5,194.8 498.5,196.2 498.5,195.9 499.5,196.0 499.5,195.4 500.5,196.0 500.5,194.2 501.5,196.0 501.5,194.7 502.5,196.4 502.5,195.5 503.5,196.0 503.5,195.4 504.5,196.4 504.5,195.7 505.5,196.3 505.5,195.1 506.5,196.3 506.5,195.1 507.5,196.0 507.5,195.1 508.5,196.2 508.5,195.8 509.5,196.0 509.5,195.8 510.5,196.0 510.5,195.4 511.5,196.0 511.5,195.3 512.5,196.1 512.5,195.7 513.5,196.0 513.5,195.5 514.5,196.1 514.5,195.7 515.5,196.4 515.5,195.6 516.5,196.6 516.5,195.8 517.5,196.2 517.5,195.7 518.5,196.3 518.5,196.0 519.5,196.2 519.5,195.8 520.5,196.5 520.5,195.8 521.5,196.0 521.5,194.9 522.5,196.1 522.5,195.1 523.5,196.2 523.5,195.9 524.5,196.1 524.5,195.3 525.5,196.0 525.5,195.4 526.5,196.0 526.5,195.6 527.5,196.2 527.5,195.2 528.5,196.3 528.5,195.6 529.5,196.0 529.5,195.7 530.5,196.0 530.5,195.4 531.5,196.1 531.5,195.4 532.5,196.1 532.5,195.7 533.5,196.0 533.5,195.5 534.5,196.1 534.5,195.8 535.5,196.0 535.5,195.7 536.5,196.0 536.5,195.4 537.5,196.0 537.5,195.3 538.5,196.0 538.5,195.6 539.5,196.0 539.5,195.7 540.5,196.0 540.5,195.9 541.5,196.7 541.5,195.9 542.5,196.8 542.5,196.0 543.5,196.8 543.5,196.0 544.5,196.2 544.5,195.8 545.5,196.0 545.5,195.8 546.5,196.4 546.5,195.9 547.5,196.0 547.5,194.5 548.5,196.0 548.5,195.3 549.5,196.2 549.5,195.7 550.5,196.2 550.5,196.0 551.5,196.1 551.5,195.9 552.5,196.0 552.5,195.3 553.5,196.0 553.5,195.0 554.5,196.0 554.5,195.5 555.5,196.0 555.5,195.6 556.5,196.1 556.5,196.0 557.5,196.0 557.5,195.6 558.5,196.0 558.5,195.5 559.5,196.0 559.5,195.5 560.5,196.0 560.5,195.6 561.5,196.0 561.5,195.8 562.5,196.0 562.5,195.7 563.5,196.0 563.5,195.6 564.5,196.0 564.5,195.8 565.5,196.0 565.5,195.8 566.5,196.5 566.5,195.8 567.5,196.3 567.5,195.9 568.5,196.8 568.5,196.0 569.5,196.3 569.5,195.9 570.5,196.0 570.5,195.9 571.5,196.3 571.5,195.9 572.5,196.1 572.5,195.2 573.5,196.0 573.5,195.2 574.5,196.0 574.5,195.5 575.5,196.1 575.5,196.0 576.5,196.2 576.5,195.9 577.5,196.0 577.5,195.4 578.5,196.1 578.5,195.4 579.5,196.0 579.5,195.1 580.5,196.0 580.5,195.7 581.5,196.1 581.5,196.0 582.5,196.0 582.5,195.7 583.5,196.0 583.5,195.5 584.5,196.0 584.5,195.7 585.5,196.0 585.5,195.6 586.5,196.0 586.5,195.9 587.5,196.0 587.5,195.7 588.5,196.0 588.5,195.8 589.5,196.0 589.5,195.6 590.5,196.2 590.5,195.7 591.5,196.2 591.5,195.8 592.5,196.4 592.5,195.9 593.5,196.2 593.5,196.0 594.5,196.2 594.5,196.0 595.5,196.2 595.5,196.0 596.5,196.1 596.5,195.7 597.5,196.0 597.5,195.7 598.5,196.0 598.5,195.6 599.5,196.2 599.5,195.7 600.5,196.0 600.5,195.4 601.5,196.0 601.5,195.8 602.5,196.1 602.5,195.5 603.5,196.0 603.5,195.5 604.5,196.0 604.5,195.8 605.5,196.0 605.5,195.7 606.5,196.0 606.5,195.7 607.5,196.0 607.5,195.8 608.5,196.0 608.5,195.8 609.5,196.0 609.5,195.8 610.5,196.0 610.5,195.7 611.5,196.0 611.5,195.9 612.5,196.0 612.5,195.8 613.5,196.0 613.5,195.9 614.5,196.2 614.5,196.0 615.5,196.1 615.5,195.8 616.5,196.2 616.5,195.8 617.5,196.3 617.5,195.9 618.5,196.2 618.5,195.9 619.5,196.1 619.5,195.9 620.5,196.0 620.5,195.7 621.5,196.1 621.5,195.8 622.5,196.2 622.5,195.9 623.5,196.0 623.5,195.6 624.5,196.1 624.5,195.9 625.5,196.0 625.5,195.9 626.5,196.0 626.5,195.8 627.5,196.0 627.5,195.4 628.5,196.1 628.5,195.7 629.5,196.0 629.5,195.8 630.5,196.0 630.5,196.0 631.5,196.0 631.5,195.7 632.5,196.0 632.5,195.7 633.5,196.0 633.5,195.7 634.5,196.0 634.5,195.8 635.5,196.0 635.5,195.9 636.5,196.0 636.5,195.9 637.5,196.0 637.5,195.9 638.5,196.1 638.5,195.9 639.5,196.0 639.5,195.9 640.5,196.1 640.5,196.0 641.5,196.0 641.5,195.9 642.5,196.1 642.5,195.9 643.5,196.2 643.5,195.9 644.5,196.0 644.5,195.7 645.5,196.0 645.5,195.7 646.5,196.0 646.5,196.0 647.5,196.2 647.5,196.0 648.5,196.1 648.5,195.7 649.5,196.0 649.5,195.9 650.5,196.0 650.5,195.9 651.5,196.0 651.5,195.8 652.5,196.1 652.5,196.0 653.5,196.0 653.5,195.6 654.5,196.1 654.5,195.8 655.5,196.0 655.5,196.0 656.5,196.0 656.5,195.9 657.5,196.0 657.5,195.9 658.5,196.0 658.5,195.8 659.5,196.0 659.5,195.8 660.5,196.1 660.5,195.9 661.5,196.1 661.5,196.0 662.5,196.0 662.5,195.9 663.5,196.0 663.5,195.9 664.5,196.1 664.5,195.9 665.5,196.0 665.5,195.9 666.5,196.0 666.5,195.9 667.5,196.2 667.5,196.0 668.5,196.1 668.5,195.8 669.5,196.0 669.5,195.8 670.5,196.0 670.5,195.9 671.5,196.0 671.5,195.9 672.5,196.0 672.5,196.0 673.5,196.0 673.5,195.7 674.5,196.1 674.5,195.9 675.5,196.1 675.5,195.9 676.5,196.0 676.5,196.0 677.5,196.0 677.5,195.9 678.5,196.1 678.5,195.8 679.5,196.0 679.5,195.8 680.5,196.0 680.5,195.7 681.5,196.1 681.5,195.9 682.5,196.1 682.5,196.0 683.5,196.1 683.5,195.9 684.5,196.0 684.5,195.8 685.5,196.0 685.5,195.8 686.5,196.1 686.5,195.8 687.5,196.1 687.5,195.9 688.5,196.0 688.5,195.9 689.5,196.0 689.5,195.9 690.5,196.0 690.5,195.9 691.5,196.0 691.5,195.9 692.5,196.1 692.5,195.8 693.5,196.1 693.5,195.8 694.5,196.1 694.5,195.9 695.5,196.0 695.5,195.9 696.5,196.0 696.5,196.0 697.5,196.0 697.5,195.9 698.5,196.0 698.5,195.8 699.5,196.0 699.5,195.9 700.5,196.1 700.5,196.0 701.5,196.1 701.5,196.0 702.5,196.0 702.5,195.9 703.5,196.0 703.5,195.9 704.5,196.0 704.5,195.9 705.5,196.0 705.5,195.9 706.5,196.0 706.5,195.7 707.5,196.1 707.5,196.0 708.5,196.0 708.5,195.9 709.5,196.0 709.5,196.0 710.5,196.0 710.5,195.9 711.5,196.1 711.5,195.9 712.5,196.1 712.5,195.9 713.5,196.0 713.5,195.9 714.5,196.0 714.5,196.0 715.5,196.0 715.5,196.0 716.5,196.0 716.5,195.8 717.5,196.1 717.5,195.8 718.5,196.0 718.5,195.9 719.5,196.1 719.5,196.0 720.5,196.0 720.5,196.0 721.5,196.0 721.5,195.9 722.5,196.0 722.5,195.9 723.5,196.0 723.5,195.8 724.5,196.0 724.5,195.8 725.5,196.0 725.5,196.0 726.5,196.1 726.5,195.9 727.5,196.1 727.5,195.9 728.5,196.1 728.5,195.9 729.5,196.0 729.5,195.9 730.5,196.0 730.5,195.9 731.5,196.1 731.5,196.0 732.5,196.0 732.5,195.8 733.5,196.0 733.5,195.7 734.5,196.1 734.5,196.0 735.5,196.0 735.5,196.0 736.5,196.0 736.5,196.0 737.5,196.0 737.5,195.9 738.5,196.0 738.5,195.9 739.5,196.0 739.5,195.9 740.5,196.0 740.5,195.9 741.5,196.0 741.5,195.9 742.5,196.1 742.5,195.9 743.5,196.1 743.5,195.9 744.5,196.0 744.5,195.9 745.5,196.0 745.5,195.9 746.5,196.0 746.5,195.9 747.5,196.0 747.5,195.9 748.5,196.0 748.5,195.9 749.5,196.0 749.5,195.9 750.5,196.1 750.5,196.0 751.5,196.0 751.5,196.0 752.5,196.0 752.5,196.0 753.5,196.1 753.5,195.9 754.5,196.1 754.5,195.9 755.5,196.0 755.5,195.9 756.5,196.0 756.5,196.0 757.5,196.0 757.5,196.0 758.5,196.0 758.5,196.0 759.5,196.0 759.5,195.8 760.5,196.0 760.5,195.9 761.5,196.0 761.5,195.9 762.5,196.0 762.5,196.0 763.5,196.0 763.5,196.0 764.5,196.0 764.5,195.9 765.5,196.0 765.5,195.9 766.5,196.0 766.5,196.0 767.5,196.0 767.5,196.0 768.5,196.1 768.5,196.0 769.5,196.0 769.5,195.9 770.5,196.0 770.5,195.9 771.5,196.0 771.5,195.9 772.5,196.0 772.5,196.0 773.5,196.0 773.5,196.0 774.5,196.0 774.5,195.9 775.5,196.0 775.5,195.9 776.5,196.0 776.5,196.0 777.5,196.0 777.5,195.9 778.5,196.0 778.5,195.9 779.5,196.1 779.5,195.9 780.5,196.1 780.5,195.9 781.5,196.1 781.5,196.0 782.5,196.0 782.5,196.0 783.5,196.0 783.5,196.0 784.5,196.0 784.5,196.0 785.5,196.0 785.5,195.9 786.5,196.0 786.5,195.8 787.5,196.0 787.5,196.0 788.5,196.0 788.5,195.9 789.5,196.0 789.5,195.9 790.5,196.0 790.5,195.9 791.5,196.0 791.5,195.9 792.5,196.0 792.5,195.9 793.5,196.1 793.5,196.0 794.5,196.1 794.5,196.0 795.5,196.0 795.5,196.0 796.5,196.0 796.5,196.0 797.5,196.0 797.5,196.0 798.5,196.0 798.5,196.0 799.5,196.0 799.5,195.9" fill="none" stroke="#3b82f6" stroke-width="1.5" stroke-linejoin="round"/>
</svg>
