<svg xmlns="http://www.w3.org/2000/svg" viewBox="0 0 820 392" style="font-family:system-ui,-apple-system,sans-serif">
  <defs>
    <clipPath id="u5"><rect x="34" y="16" width="766" height="360"/></clipPath>
  </defs>
  <text x="800" y="11" text-anchor="end" font-size="11" fill="#6b7280" font-weight="600">Ring mod — 440Hz × 300Hz → sidebands at 140Hz + 740Hz</text>
  <line x1="34" y1="16" x2="34" y2="376" stroke="#d1d5db" stroke-width="1"/>
  <line x1="34" y1="376" x2="800" y2="376" stroke="#d1d5db" stroke-width="1"/>
  <line x1="34" y1="16" x2="34" y2="376" stroke="#e5e7eb" stroke-width="0.5"/>
  <line x1="92.6" y1="16" x2="92.6" y2="376" stroke="#e5e7eb" stroke-width="0.5"/>
  <line x1="134.2" y1="16" x2="134.2" y2="376" stroke="#e5e7eb" stroke-width="0.5"/>
  <line x1="166.5" y1="16" x2="166.5" y2="376" stroke="#e5e7eb" stroke-width="0.5"/>
  <line x1="192.8" y1="16" x2="192.8" y2="376" stroke="#e5e7eb" stroke-width="0.5"/>
  <line x1="215.1" y1="16" x2="215.1" y2="376" stroke="#e5e7eb" stroke-width="0.5"/>
  <line x1="234.4" y1="16" x2="234.4" y2="376" stroke="#e5e7eb" stroke-width="0.5"/>
  <line x1="251.5" y1="16" x2="251.5" y2="376" stroke="#e5e7eb" stroke-width="0.5"/>
  <line x1="366.9" y1="16" x2="366.9" y2="376" stroke="#e5e7eb" stroke-width="0.5"/>
  <line x1="425.5" y1="16" x2="425.5" y2="376" stroke="#e5e7eb" stroke-width="0.5"/>
  <line x1="467.1" y1="16" x2="467.1" y2="376" stroke="#e5e7eb" stroke-width="0.5"/>
  <line x1="499.4" y1="16" x2="499.4" y2="376" stroke="#e5e7eb" stroke-width="0.5"/>
  <line x1="525.7" y1="16" x2="525.7" y2="376" stroke="#e5e7eb" stroke-width="0.5"/>
  <line x1="548" y1="16" x2="548" y2="376" stroke="#e5e7eb" stroke-width="0.5"/>
  <line x1="567.3" y1="16" x2="567.3" y2="376" stroke="#e5e7eb" stroke-width="0.5"/>
  <line x1="584.3" y1="16" x2="584.3" y2="376" stroke="#e5e7eb" stroke-width="0.5"/>
  <line x1="699.8" y1="16" x2="699.8" y2="376" stroke="#e5e7eb" stroke-width="0.5"/>
  <line x1="758.4" y1="16" x2="758.4" y2="376" stroke="#e5e7eb" stroke-width="0.5"/>
  <line x1="800" y1="16" x2="800" y2="376" stroke="#e5e7eb" stroke-width="0.5"/>
  <line x1="266.7" y1="16" x2="266.7" y2="376" stroke="#e5e7eb" stroke-width="0.5"/>
  <text x="266.7" y="388" text-anchor="middle" font-size="8" fill="#6b7280">100</text>
  <line x1="599.6" y1="16" x2="599.6" y2="376" stroke="#e5e7eb" stroke-width="0.5"/>
  <text x="599.6" y="388" text-anchor="middle" font-size="8" fill="#6b7280">1k</text>
  <line x1="932.5" y1="16" x2="932.5" y2="376" stroke="#e5e7eb" stroke-width="0.5"/>
  <text x="932.5" y="388" text-anchor="middle" font-size="8" fill="#6b7280">10k</text>
  <line x1="34" y1="376" x2="800" y2="376" stroke="#e5e7eb" stroke-width="0.5"/>
  <text x="30" y="379" text-anchor="end" font-size="8" fill="#6b7280">-80</text>
  <line x1="34" y1="286" x2="800" y2="286" stroke="#e5e7eb" stroke-width="0.5"/>
  <text x="30" y="289" text-anchor="end" font-size="8" fill="#6b7280">-60</text>
  <line x1="34" y1="196" x2="800" y2="196" stroke="#e5e7eb" stroke-width="0.5"/>
  <text x="30" y="199" text-anchor="end" font-size="8" fill="#6b7280">-40</text>
  <line x1="34" y1="106" x2="800" y2="106" stroke="#e5e7eb" stroke-width="0.5"/>
  <text x="30" y="109" text-anchor="end" font-size="8" fill="#6b7280">-20</text>
  <line x1="34" y1="16" x2="800" y2="16" stroke="#e5e7eb" stroke-width="0.5"/>
  <text x="30" y="19" text-anchor="end" font-size="8" fill="#6b7280">0</text>
  <text x="417" y="402" text-anchor="middle" font-size="9" fill="#6b7280">Hz</text>
  <text x="12" y="196" text-anchor="middle" font-size="9" fill="#6b7280">dB</text>
  <polyline clip-path="url(#u5)" points="44.7,278.7 103.3,278.5 144.9,278.2 177.2,277.8 203.5,277.3 225.8,276.6 245.1,275.7 262.1,274.4 277.4,272.4 291.1,268.8 303.7,259.8 315.3,70.0 326.0,316.3 336.0,293.5 345.3,287.4 354.1,284.4 362.3,282.5 370.2,281.0 377.6,279.8 384.6,278.7 391.4,277.7 397.8,276.8 403.9,275.9 409.8,274.9 415.5,274.0 421.0,273.1 426.2,272.2 431.3,271.2 436.2,270.2 440.9,269.3 445.5,268.2 450.0,267.2 454.3,266.1 458.5,265.0 462.6,263.8 466.5,262.6 470.4,261.3 474.1,260.1 477.8,258.7 481.4,257.3 484.8,255.9 488.2,254.4 491.6,252.8 494.8,251.2 498.0,249.5 501.1,247.7 504.1,245.8 507.1,243.9 510.0,241.8 512.9,239.6 515.7,237.3 518.5,234.9 521.2,232.3 523.8,229.5 526.4,226.5 529.0,223.2 531.5,219.7 534.0,215.8 536.4,211.5 538.8,206.7 541.1,201.2 543.5,194.9 545.7,187.3 548.0,178.0 550.2,165.7 552.4,147.8 554.5,114.1 556.6,74.9 558.7,135.5 560.7,158.2 562.8,172.4 564.8,182.7 566.7,190.9 568.7,197.6 570.6,203.3 572.5,208.3 574.3,212.7 576.2,216.6 578.0,220.2 579.8,223.4 581.6,226.4 583.3,229.2 585.0,231.8 586.8,234.2 588.5,236.4 590.1,238.6 591.8,240.6 593.4,242.5 595.0,244.3 596.6,246.0 598.2,247.7 599.8,249.2 601.3,250.7 602.8,252.2 604.4,253.6 605.9,254.9 607.3,256.2 608.8,257.5 610.3,258.7 611.7,259.8 613.1,260.9 614.5,262.0 615.9,263.1 617.3,264.1 618.7,265.1 620.0,266.1 621.4,267.0 622.7,267.9 624.0,268.8 625.3,269.7 626.6,270.5 627.9,271.4 629.2,272.2 630.5,273.0 631.7,273.7 633.0,274.5 634.2,275.2 635.4,275.9 636.6,276.7 637.8,277.3 639.0,278.0 640.2,278.7 641.4,279.3 642.5,280.0 643.7,280.6 644.8,281.2 645.9,281.8 647.1,282.4 648.2,283.0 649.3,283.6 650.4,284.1 651.5,284.7 652.6,285.2 653.6,285.8 654.7,286.3 655.8,286.8 656.8,287.3 657.9,287.8 658.9,288.3 659.9,288.8 661.0,289.3 662.0,289.8 663.0,290.3 664.0,290.7 665.0,291.2 666.0,291.6 666.9,292.1 667.9,292.5 668.9,292.9 669.8,293.4 670.8,293.8 671.7,294.2 672.7,294.6 673.6,295.0 674.5,295.4 675.5,295.8 676.4,296.2 677.3,296.6 678.2,297.0 679.1,297.3 680.0,297.7 680.9,298.1 681.8,298.4 682.7,298.8 683.5,299.2 684.4,299.5 685.3,299.9 686.1,300.2 687.0,300.6 687.8,300.9 688.7,301.2 689.5,301.6 690.3,301.9 691.2,302.2 692.0,302.5 692.8,302.9 693.6,303.2 694.4,303.5 695.2,303.8 696.0,304.1 696.8,304.4 697.6,304.7 698.4,305.0 699.2,305.3 700.0,305.6 700.8,305.9 701.5,306.2 702.3,306.5 703.1,306.7 703.8,307.0 704.6,307.3 705.3,307.6 706.1,307.9 706.8,308.1 707.5,308.4 708.3,308.7 709.0,308.9 709.7,309.2 710.5,309.4 711.2,309.7 711.9,310.0 712.6,310.2 713.3,310.5 714.0,310.7 714.7,311.0 715.4,311.2 716.1,311.5 716.8,311.7 717.5,312.0 718.2,312.2 718.9,312.4 719.6,312.7 720.2,312.9 720.9,313.1 721.6,313.4 722.3,313.6 722.9,313.8 723.6,314.1 724.2,314.3 724.9,314.5 725.6,314.7 726.2,314.9 726.9,315.2 727.5,315.4 728.1,315.6 728.8,315.8 729.4,316.0 730.0,316.2 730.7,316.5 731.3,316.7 731.9,316.9 732.5,317.1 733.2,317.3 733.8,317.5 734.4,317.7 735.0,317.9 735.6,318.1 736.2,318.3 736.8,318.5 737.4,318.7 738.0,318.9 738.6,319.1 739.2,319.3 739.8,319.5 740.4,319.7 741.0,319.9 741.6,320.1 742.1,320.2 742.7,320.4 743.3,320.6 743.9,320.8 744.5,321.0 745.0,321.2 745.6,321.4 746.2,321.5 746.7,321.7 747.3,321.9 747.8,322.1 748.4,322.2 749.0,322.4 749.5,322.6 750.1,322.8 750.6,323.0 751.2,323.1 751.7,323.3 752.2,323.5 752.8,323.6 753.3,323.8 753.9,324.0 754.4,324.1 754.9,324.3 755.5,324.5 756.0,324.6 756.5,324.8 757.0,325.0 757.6,325.1 758.1,325.3 758.6,325.5 759.1,325.6 759.6,325.8 760.1,325.9 760.7,326.1 761.2,326.3 761.7,326.4 762.2,326.6 762.7,326.7 763.2,326.9 763.7,327.0 764.2,327.2 764.7,327.3 765.2,327.5 765.7,327.6 766.2,327.8 766.7,327.9 767.1,328.1 767.6,328.2 768.1,328.4 768.6,328.5 769.1,328.7 769.6,328.8 770.0,329.0 770.5,329.1 771.0,329.3 771.5,329.4 772.0,329.6 772.4,329.7 772.9,329.8 773.4,330.0 773.8,330.1 774.3,330.3 774.8,330.4 775.2,330.5 775.7,330.7 776.1,330.8 776.6,331.0 777.1,331.1 777.5,331.2 778.0,331.4 778.4,331.5 778.9,331.6 779.3,331.8 779.8,331.9 780.2,332.0 780.7,332.2 781.1,332.3 781.5,332.4 782.0,332.6 782.4,332.7 782.9,332.8 783.3,333.0 783.7,333.1 784.2,333.2 784.6,333.3 785.0,333.5 785.5,333.6 785.9,333.7 786.3,333.9 786.8,334.0 787.2,334.1 787.6,334.2 788.0,334.4 788.5,334.5 788.9,334.6 789.3,334.7 789.7,334.8 790.1,335.0 790.5,335.1 791.0,335.2 791.4,335.3 791.8,335.5 792.2,335.6 792.6,335.7 793.0,335.8 793.4,335.9 793.8,336.0 794.2,336.2 794.6,336.3 795.0,336.4 795.4,336.5 795.8,336.6 796.2,336.7 796.6,336.9 797.0,337.0 797.4,337.1 797.8,337.2 798.2,337.3 798.6,337.4 799.0,337.5 799.4,337.7 799.8,337.8" fill="none" stroke="#3b82f6" stroke-width="1.5" stroke-linejoin="round"/>
  <polyline clip-path="url(#u5)" points="44.7,273.4 103.3,273.0 144.9,272.5 177.2,271.9 203.5,271.1 225.8,270.2 245.1,269.2 262.1,268.0 277.4,266.8 291.1,265.4 303.7,264.0 315.3,262.4 326.0,260.8 336.0,259.1 345.3,257.3 354.1,255.4 362.3,253.4 370.2,251.3 377.6,249.1 384.6,246.9 391.4,244.5 397.8,242.0 403.9,239.4 409.8,236.6 415.5,233.7 421.0,230.6 426.2,227.3 431.3,223.8 436.2,220.0 440.9,215.8 445.5,211.3 450.0,206.3 454.3,200.6 458.5,194.1 462.6,186.5 466.5,177.2 470.4,165.2 474.1,148.1 477.8,117.8 481.4,44.2 484.8,127.7 488.2,152.1 491.6,166.9 494.8,177.4 498.0,185.6 501.1,192.3 504.1,197.9 507.1,202.8 510.0,207.1 512.9,210.9 515.7,214.3 518.5,217.5 521.2,220.3 523.8,223.0 526.4,225.4 529.0,227.7 531.5,229.9 534.0,231.9 536.4,233.8 538.8,235.6 541.1,237.3 543.5,238.9 545.7,240.4 548.0,241.9 550.2,243.3 552.4,244.6 554.5,245.9 556.6,247.2 558.7,248.4 560.7,249.5 562.8,250.6 564.8,251.7 566.7,252.8 568.7,253.8 570.6,254.8 572.5,255.7 574.3,256.6 576.2,257.5 578.0,258.4 579.8,259.3 581.6,260.1 583.3,260.9 585.0,261.7 586.8,262.4 588.5,263.2 590.1,263.9 591.8,264.6 593.4,265.3 595.0,266.0 596.6,266.7 598.2,267.4 599.8,268.0 601.3,268.6 602.8,269.3 604.4,269.9 605.9,270.5 607.3,271.0 608.8,271.6 610.3,272.2 611.7,272.7 613.1,273.3 614.5,273.8 615.9,274.4 617.3,274.9 618.7,275.4 620.0,275.9 621.4,276.4 622.7,276.9 624.0,277.4 625.3,277.8 626.6,278.3 627.9,278.8 629.2,279.2 630.5,279.7 631.7,280.1 633.0,280.6 634.2,281.0 635.4,281.4 636.6,281.8 637.8,282.3 639.0,282.7 640.2,283.1 641.4,283.5 642.5,283.9 643.7,284.3 644.8,284.7 645.9,285.0 647.1,285.4 648.2,285.8 649.3,286.2 650.4,286.5 651.5,286.9 652.6,287.3 653.6,287.6 654.7,288.0 655.8,288.3 656.8,288.7 657.9,289.0 658.9,289.3 659.9,289.7 661.0,290.0 662.0,290.3 663.0,290.6 664.0,291.0 665.0,291.3 666.0,291.6 666.9,291.9 667.9,292.2 668.9,292.5 669.8,292.8 670.8,293.1 671.7,293.4 672.7,293.7 673.6,294.0 674.5,294.3 675.5,294.6 676.4,294.9 677.3,295.2 678.2,295.5 679.1,295.7 680.0,296.0 680.9,296.3 681.8,296.6 682.7,296.8 683.5,297.1 684.4,297.4 685.3,297.6 686.1,297.9 687.0,298.2 687.8,298.4 688.7,298.7 689.5,298.9 690.3,299.2 691.2,299.4 692.0,299.7 692.8,299.9 693.6,300.2 694.4,300.4 695.2,300.7 696.0,300.9 696.8,301.1 697.6,301.4 698.4,301.6 699.2,301.9 700.0,302.1 700.8,302.3 701.5,302.5 702.3,302.8 703.1,303.0 703.8,303.2 704.6,303.5 705.3,303.7 706.1,303.9 706.8,304.1 707.5,304.3 708.3,304.6 709.0,304.8 709.7,305.0 710.5,305.2 711.2,305.4 711.9,305.6 712.6,305.8 713.3,306.0 714.0,306.2 714.7,306.5 715.4,306.7 716.1,306.9 716.8,307.1 717.5,307.3 718.2,307.5 718.9,307.7 719.6,307.9 720.2,308.1 720.9,308.3 721.6,308.5 722.3,308.6 722.9,308.8 723.6,309.0 724.2,309.2 724.9,309.4 725.6,309.6 726.2,309.8 726.9,310.0 727.5,310.2 728.1,310.3 728.8,310.5 729.4,310.7 730.0,310.9 730.7,311.1 731.3,311.3 731.9,311.4 732.5,311.6 733.2,311.8 733.8,312.0 734.4,312.1 735.0,312.3 735.6,312.5 736.2,312.7 736.8,312.8 737.4,313.0 738.0,313.2 738.6,313.3 739.2,313.5 739.8,313.7 740.4,313.8 741.0,314.0 741.6,314.2 742.1,314.3 742.7,314.5 743.3,314.7 743.9,314.8 744.5,315.0 745.0,315.2 745.6,315.3 746.2,315.5 746.7,315.6 747.3,315.8 747.8,316.0 748.4,316.1 749.0,316.3 749.5,316.4 750.1,316.6 750.6,316.7 751.2,316.9 751.7,317.0 752.2,317.2 752.8,317.3 753.3,317.5 753.9,317.6 754.4,317.8 754.9,317.9 755.5,318.1 756.0,318.2 756.5,318.4 757.0,318.5 757.6,318.7 758.1,318.8 758.6,319.0 759.1,319.1 759.6,319.3 760.1,319.4 760.7,319.6 761.2,319.7 761.7,319.8 762.2,320.0 762.7,320.1 763.2,320.3 763.7,320.4 764.2,320.5 764.7,320.7 765.2,320.8 765.7,320.9 766.2,321.1 766.7,321.2 767.1,321.4 767.6,321.5 768.1,321.6 768.6,321.8 769.1,321.9 769.6,322.0 770.0,322.2 770.5,322.3 771.0,322.4 771.5,322.6 772.0,322.7 772.4,322.8 772.9,322.9 773.4,323.1 773.8,323.2 774.3,323.3 774.8,323.5 775.2,323.6 775.7,323.7 776.1,323.8 776.6,324.0 777.1,324.1 777.5,324.2 778.0,324.3 778.4,324.5 778.9,324.6 779.3,324.7 779.8,324.8 780.2,325.0 780.7,325.1 781.1,325.2 781.5,325.3 782.0,325.4 782.4,325.6 782.9,325.7 783.3,325.8 783.7,325.9 784.2,326.0 784.6,326.2 785.0,326.3 785.5,326.4 785.9,326.5 786.3,326.6 786.8,326.8 787.2,326.9 787.6,327.0 788.0,327.1 788.5,327.2 788.9,327.3 789.3,327.4 789.7,327.6 790.1,327.7 790.5,327.8 791.0,327.9 791.4,328.0 791.8,328.1 792.2,328.2 792.6,328.3 793.0,328.5 793.4,328.6 793.8,328.7 794.2,328.8 794.6,328.9 795.0,329.0 795.4,329.1 795.8,329.2 796.2,329.3 796.6,329.4 797.0,329.6 797.4,329.7 797.8,329.8 798.2,329.9 798.6,330.0 799.0,330.1 799.4,330.2 799.8,330.3" fill="none" stroke="#d1d5db" stroke-width="1.5" stroke-linejoin="round"/>
  <line x1="34" y1="8" x2="46" y2="8" stroke="#3b82f6" stroke-width="2"/>
  <text x="49" y="11" text-anchor="start" font-size="11" fill="#6b7280">output</text>
  <line x1="93.8" y1="8" x2="105.8" y2="8" stroke="#d1d5db" stroke-width="2"/>
  <text x="108.8" y="11" text-anchor="start" font-size="11" fill="#6b7280">input (440Hz)</text>
</svg>
