<svg xmlns="http://www.w3.org/2000/svg" viewBox="0 0 820 392" style="font-family:system-ui,-apple-system,sans-serif">
  <defs>
    <clipPath id="u36"><rect x="34" y="16" width="766" height="360"/></clipPath>
  </defs>
  <text x="800" y="11" text-anchor="end" font-size="11" fill="#6b7280" font-weight="600">Slew limiter — square wave, rise=fall=5000/s</text>
  <line x1="34" y1="16" x2="34" y2="376" stroke="#d1d5db" stroke-width="1"/>
  <line x1="34" y1="376" x2="800" y2="376" stroke="#d1d5db" stroke-width="1"/>
  <line x1="34" y1="16" x2="34" y2="376" stroke="#e5e7eb" stroke-width="0.5"/>
  <text x="34" y="388" text-anchor="middle" font-size="8" fill="#6b7280">0</text>
  <line x1="198.9" y1="16" x2="198.9" y2="376" stroke="#e5e7eb" stroke-width="0.5"/>
  <text x="198.9" y="388" text-anchor="middle" font-size="8" fill="#6b7280">10</text>
  <line x1="363.9" y1="16" x2="363.9" y2="376" stroke="#e5e7eb" stroke-width="0.5"/>
  <text x="363.9" y="388" text-anchor="middle" font-size="8" fill="#6b7280">20</text>
  <line x1="528.8" y1="16" x2="528.8" y2="376" stroke="#e5e7eb" stroke-width="0.5"/>
  <text x="528.8" y="388" text-anchor="middle" font-size="8" fill="#6b7280">30</text>
  <line x1="693.8" y1="16" x2="693.8" y2="376" stroke="#e5e7eb" stroke-width="0.5"/>
  <text x="693.8" y="388" text-anchor="middle" font-size="8" fill="#6b7280">40</text>
  <line x1="34" y1="346" x2="800" y2="346" stroke="#e5e7eb" stroke-width="0.5"/>
  <text x="30" y="349" text-anchor="end" font-size="8" fill="#6b7280">-1</text>
  <line x1="34" y1="271" x2="800" y2="271" stroke="#e5e7eb" stroke-width="0.5"/>
  <text x="30" y="274" text-anchor="end" font-size="8" fill="#6b7280">-0.5</text>
  <line x1="34" y1="196" x2="800" y2="196" stroke="#e5e7eb" stroke-width="0.5"/>
  <text x="30" y="199" text-anchor="end" font-size="8" fill="#6b7280">0</text>
  <line x1="34" y1="121" x2="800" y2="121" stroke="#e5e7eb" stroke-width="0.5"/>
  <text x="30" y="124" text-anchor="end" font-size="8" fill="#6b7280">0.5</text>
  <line x1="34" y1="46" x2="800" y2="46" stroke="#e5e7eb" stroke-width="0.5"/>
  <text x="30" y="49" text-anchor="end" font-size="8" fill="#6b7280">1</text>
  <line x1="34" y1="196" x2="800" y2="196" stroke="#d1d5db" stroke-width="0.5"/>
  <text x="417" y="402" text-anchor="middle" font-size="9" fill="#6b7280">ms</text>
  <text x="12" y="196" text-anchor="middle" font-size="9" fill="#6b7280">amp</text>
  <polyline clip-path="url(#u36)" points="34.5,76.0 34.5,76.0 35.5,76.0 35.5,76.0 36.5,76.0 36.5,76.0 37.5,76.0 37.5,76.0 38.5,76.0 38.5,76.0 39.5,76.0 39.5,76.0 40.5,76.0 40.5,76.0 41.5,76.0 41.5,76.0 42.5,76.0 42.5,76.0 43.5,76.0 43.5,76.0 44.5,76.0 44.5,76.0 45.5,76.0 45.5,76.0 46.5,76.0 46.5,76.0 47.5,76.0 47.5,76.0 48.5,76.0 48.5,76.0 49.5,76.0 49.5,76.0 50.5,76.0 50.5,76.0 51.5,76.0 51.5,76.0 52.5,76.0 52.5,76.0 53.5,76.0 53.5,76.0 54.5,76.0 54.5,76.0 55.5,76.0 55.5,76.0 56.5,76.0 56.5,76.0 57.5,76.0 57.5,76.0 58.5,76.0 58.5,76.0 59.5,76.0 59.5,76.0 60.5,76.0 60.5,76.0 61.5,76.0 61.5,76.0 62.5,76.0 62.5,76.0 63.5,76.0 63.5,76.0 64.5,76.0 64.5,76.0 65.5,76.0 65.5,76.0 66.5,76.0 66.5,76.0 67.5,76.0 67.5,76.0 68.5,76.0 68.5,76.0 69.5,76.0 69.5,76.0 70.5,76.0 70.5,76.0 71.5,316.0 71.5,76.0 72.5,316.0 72.5,316.0 73.5,316.0 73.5,316.0 74.5,316.0 74.5,316.0 75.5,316.0 75.5,316.0 76.5,316.0 76.5,316.0 77.5,316.0 77.5,316.0 78.5,316.0 78.5,316.0 79.5,316.0 79.5,316.0 80.5,316.0 80.5,316.0 81.5,316.0 81.5,316.0 82.5,316.0 82.5,316.0 83.5,316.0 83.5,316.0 84.5,316.0 84.5,316.0 85.5,316.0 85.5,316.0 86.5,316.0 86.5,316.0 87.5,316.0 87.5,316.0 88.5,316.0 88.5,316.0 89.5,316.0 89.5,316.0 90.5,316.0 90.5,316.0 91.5,316.0 91.5,316.0 92.5,316.0 92.5,316.0 93.5,316.0 93.5,316.0 94.5,316.0 94.5,316.0 95.5,316.0 95.5,316.0 96.5,316.0 96.5,316.0 97.5,316.0 97.5,316.0 98.5,316.0 98.5,316.0 99.5,316.0 99.5,316.0 100.5,316.0 100.5,316.0 101.5,316.0 101.5,316.0 102.5,316.0 102.5,316.0 103.5,316.0 103.5,316.0 104.5,316.0 104.5,316.0 105.5,316.0 105.5,316.0 106.5,316.0 106.5,316.0 107.5,316.0 107.5,316.0 108.5,316.0 108.5,316.0 109.5,76.0 109.5,76.0 110.5,76.0 110.5,76.0 111.5,76.0 111.5,76.0 112.5,76.0 112.5,76.0 113.5,76.0 113.5,76.0 114.5,76.0 114.5,76.0 115.5,76.0 115.5,76.0 116.5,76.0 116.5,76.0 117.5,76.0 117.5,76.0 118.5,76.0 118.5,76.0 119.5,76.0 119.5,76.0 120.5,76.0 120.5,76.0 121.5,76.0 121.5,76.0 122.5,76.0 122.5,76.0 123.5,76.0 123.5,76.0 124.5,76.0 124.5,76.0 125.5,76.0 125.5,76.0 126.5,76.0 126.5,76.0 127.5,76.0 127.5,76.0 128.5,76.0 128.5,76.0 129.5,76.0 129.5,76.0 130.5,76.0 130.5,76.0 131.5,76.0 131.5,76.0 132.5,76.0 132.5,76.0 133.5,76.0 133.5,76.0 134.5,76.0 134.5,76.0 135.5,76.0 135.5,76.0 136.5,76.0 136.5,76.0 137.5,76.0 137.5,76.0 138.5,76.0 138.5,76.0 139.5,76.0 139.5,76.0 140.5,76.0 140.5,76.0 141.5,76.0 141.5,76.0 142.5,76.0 142.5,76.0 143.5,76.0 143.5,76.0 144.5,76.0 144.5,76.0 145.5,76.0 145.5,76.0 146.5,316.0 146.5,76.0 147.5,316.0 147.5,316.0 148.5,316.0 148.5,316.0 149.5,316.0 149.5,316.0 150.5,316.0 150.5,316.0 151.5,316.0 151.5,316.0 152.5,316.0 152.5,316.0 153.5,316.0 153.5,316.0 154.5,316.0 154.5,316.0 155.5,316.0 155.5,316.0 156.5,316.0 156.5,316.0 157.5,316.0 157.5,316.0 158.5,316.0 158.5,316.0 159.5,316.0 159.5,316.0 160.5,316.0 160.5,316.0 161.5,316.0 161.5,316.0 162.5,316.0 162.5,316.0 163.5,316.0 163.5,316.0 164.5,316.0 164.5,316.0 165.5,316.0 165.5,316.0 166.5,316.0 166.5,316.0 167.5,316.0 167.5,316.0 168.5,316.0 168.5,316.0 169.5,316.0 169.5,316.0 170.5,316.0 170.5,316.0 171.5,316.0 171.5,316.0 172.5,316.0 172.5,316.0 173.5,316.0 173.5,316.0 174.5,316.0 174.5,316.0 175.5,316.0 175.5,316.0 176.5,316.0 176.5,316.0 177.5,316.0 177.5,316.0 178.5,316.0 178.5,316.0 179.5,316.0 179.5,316.0 180.5,316.0 180.5,316.0 181.5,316.0 181.5,316.0 182.5,316.0 182.5,316.0 183.5,316.0 183.5,76.0 184.5,76.0 184.5,76.0 185.5,76.0 185.5,76.0 186.5,76.0 186.5,76.0 187.5,76.0 187.5,76.0 188.5,76.0 188.5,76.0 189.5,76.0 189.5,76.0 190.5,76.0 190.5,76.0 191.5,76.0 191.5,76.0 192.5,76.0 192.5,76.0 193.5,76.0 193.5,76.0 194.5,76.0 194.5,76.0 195.5,76.0 195.5,76.0 196.5,76.0 196.5,76.0 197.5,76.0 197.5,76.0 198.5,76.0 198.5,76.0 199.5,76.0 199.5,76.0 200.5,76.0 200.5,76.0 201.5,76.0 201.5,76.0 202.5,76.0 202.5,76.0 203.5,76.0 203.5,76.0 204.5,76.0 204.5,76.0 205.5,76.0 205.5,76.0 206.5,76.0 206.5,76.0 207.5,76.0 207.5,76.0 208.5,76.0 208.5,76.0 209.5,76.0 209.5,76.0 210.5,76.0 210.5,76.0 211.5,76.0 211.5,76.0 212.5,76.0 212.5,76.0 213.5,76.0 213.5,76.0 214.5,76.0 214.5,76.0 215.5,76.0 215.5,76.0 216.5,76.0 216.5,76.0 217.5,76.0 217.5,76.0 218.5,76.0 218.5,76.0 219.5,76.0 219.5,76.0 220.5,76.0 220.5,76.0 221.5,316.0 221.5,76.0 222.5,316.0 222.5,316.0 223.5,316.0 223.5,316.0 224.5,316.0 224.5,316.0 225.5,316.0 225.5,316.0 226.5,316.0 226.5,316.0 227.5,316.0 227.5,316.0 228.5,316.0 228.5,316.0 229.5,316.0 229.5,316.0 230.5,316.0 230.5,316.0 231.5,316.0 231.5,316.0 232.5,316.0 232.5,316.0 233.5,316.0 233.5,316.0 234.5,316.0 234.5,316.0 235.5,316.0 235.5,316.0 236.5,316.0 236.5,316.0 237.5,316.0 237.5,316.0 238.5,316.0 238.5,316.0 239.5,316.0 239.5,316.0 240.5,316.0 240.5,316.0 241.5,316.0 241.5,316.0 242.5,316.0 242.5,316.0 243.5,316.0 243.5,316.0 244.5,316.0 244.5,316.0 245.5,316.0 245.5,316.0 246.5,316.0 246.5,316.0 247.5,316.0 247.5,316.0 248.5,316.0 248.5,316.0 249.5,316.0 249.5,316.0 250.5,316.0 250.5,316.0 251.5,316.0 251.5,316.0 252.5,316.0 252.5,316.0 253.5,316.0 253.5,316.0 254.5,316.0 254.5,316.0 255.5,316.0 255.5,316.0 256.5,316.0 256.5,316.0 257.5,316.0 257.5,316.0 258.5,316.0 258.5,76.0 259.5,76.0 259.5,76.0 260.5,76.0 260.5,76.0 261.5,76.0 261.5,76.0 262.5,76.0 262.5,76.0 263.5,76.0 263.5,76.0 264.5,76.0 264.5,76.0 265.5,76.0 265.5,76.0 266.5,76.0 266.5,76.0 267.5,76.0 267.5,76.0 268.5,76.0 268.5,76.0 269.5,76.0 269.5,76.0 270.5,76.0 270.5,76.0 271.5,76.0 271.5,76.0 272.5,76.0 272.5,76.0 273.5,76.0 273.5,76.0 274.5,76.0 274.5,76.0 275.5,76.0 275.5,76.0 276.5,76.0 276.5,76.0 277.5,76.0 277.5,76.0 278.5,76.0 278.5,76.0 279.5,76.0 279.5,76.0 280.5,76.0 280.5,76.0 281.5,76.0 281.5,76.0 282.5,76.0 282.5,76.0 283.5,76.0 283.5,76.0 284.5,76.0 284.5,76.0 285.5,76.0 285.5,76.0 286.5,76.0 286.5,76.0 287.5,76.0 287.5,76.0 288.5,76.0 288.5,76.0 289.5,76.0 289.5,76.0 290.5,76.0 290.5,76.0 291.5,76.0 291.5,76.0 292.5,76.0 292.5,76.0 293.5,76.0 293.5,76.0 294.5,76.0 294.5,76.0 295.5,76.0 295.5,76.0 296.5,316.0 296.5,316.0 297.5,316.0 297.5,316.0 298.5,316.0 298.5,316.0 299.5,316.0 299.5,316.0 300.5,316.0 300.5,316.0 301.5,316.0 301.5,316.0 302.5,316.0 302.5,316.0 303.5,316.0 303.5,316.0 304.5,316.0 304.5,316.0 305.5,316.0 305.5,316.0 306.5,316.0 306.5,316.0 307.5,316.0 307.5,316.0 308.5,316.0 308.5,316.0 309.5,316.0 309.5,316.0 310.5,316.0 310.5,316.0 311.5,316.0 311.5,316.0 312.5,316.0 312.5,316.0 313.5,316.0 313.5,316.0 314.5,316.0 314.5,316.0 315.5,316.0 315.5,316.0 316.5,316.0 316.5,316.0 317.5,316.0 317.5,316.0 318.5,316.0 318.5,316.0 319.5,316.0 319.5,316.0 320.5,316.0 320.5,316.0 321.5,316.0 321.5,316.0 322.5,316.0 322.5,316.0 323.5,316.0 323.5,316.0 324.5,316.0 324.5,316.0 325.5,316.0 325.5,316.0 326.5,316.0 326.5,316.0 327.5,316.0 327.5,316.0 328.5,316.0 328.5,316.0 329.5,316.0 329.5,316.0 330.5,316.0 330.5,316.0 331.5,316.0 331.5,316.0 332.5,316.0 332.5,316.0 333.5,316.0 333.5,76.0 334.5,76.0 334.5,76.0 335.5,76.0 335.5,76.0 336.5,76.0 336.5,76.0 337.5,76.0 337.5,76.0 338.5,76.0 338.5,76.0 339.5,76.0 339.5,76.0 340.5,76.0 340.5,76.0 341.5,76.0 341.5,76.0 342.5,76.0 342.5,76.0 343.5,76.0 343.5,76.0 344.5,76.0 344.5,76.0 345.5,76.0 345.5,76.0 346.5,76.0 346.5,76.0 347.5,76.0 347.5,76.0 348.5,76.0 348.5,76.0 349.5,76.0 349.5,76.0 350.5,76.0 350.5,76.0 351.5,76.0 351.5,76.0 352.5,76.0 352.5,76.0 353.5,76.0 353.5,76.0 354.5,76.0 354.5,76.0 355.5,76.0 355.5,76.0 356.5,76.0 356.5,76.0 357.5,76.0 357.5,76.0 358.5,76.0 358.5,76.0 359.5,76.0 359.5,76.0 360.5,76.0 360.5,76.0 361.5,76.0 361.5,76.0 362.5,76.0 362.5,76.0 363.5,76.0 363.5,76.0 364.5,76.0 364.5,76.0 365.5,76.0 365.5,76.0 366.5,76.0 366.5,76.0 367.5,76.0 367.5,76.0 368.5,76.0 368.5,76.0 369.5,76.0 369.5,76.0 370.5,316.0 370.5,76.0 371.5,316.0 371.5,316.0 372.5,316.0 372.5,316.0 373.5,316.0 373.5,316.0 374.5,316.0 374.5,316.0 375.5,316.0 375.5,316.0 376.5,316.0 376.5,316.0 377.5,316.0 377.5,316.0 378.5,316.0 378.5,316.0 379.5,316.0 379.5,316.0 380.5,316.0 380.5,316.0 381.5,316.0 381.5,316.0 382.5,316.0 382.5,316.0 383.5,316.0 383.5,316.0 384.5,316.0 384.5,316.0 385.5,316.0 385.5,316.0 386.5,316.0 386.5,316.0 387.5,316.0 387.5,316.0 388.5,316.0 388.5,316.0 389.5,316.0 389.5,316.0 390.5,316.0 390.5,316.0 391.5,316.0 391.5,316.0 392.5,316.0 392.5,316.0 393.5,316.0 393.5,316.0 394.5,316.0 394.5,316.0 395.5,316.0 395.5,316.0 396.5,316.0 396.5,316.0 397.5,316.0 397.5,316.0 398.5,316.0 398.5,316.0 399.5,316.0 399.5,316.0 400.5,316.0 400.5,316.0 401.5,316.0 401.5,316.0 402.5,316.0 402.5,316.0 403.5,316.0 403.5,316.0 404.5,316.0 404.5,316.0 405.5,316.0 405.5,316.0 406.5,316.0 406.5,316.0 407.5,316.0 407.5,316.0 408.5,316.0 408.5,76.0 409.5,76.0 409.5,76.0 410.5,76.0 410.5,76.0 411.5,76.0 411.5,76.0 412.5,76.0 412.5,76.0 413.5,76.0 413.5,76.0 414.5,76.0 414.5,76.0 415.5,76.0 415.5,76.0 416.5,76.0 416.5,76.0 417.5,76.0 417.5,76.0 418.5,76.0 418.5,76.0 419.5,76.0 419.5,76.0 420.5,76.0 420.5,76.0 421.5,76.0 421.5,76.0 422.5,76.0 422.5,76.0 423.5,76.0 423.5,76.0 424.5,76.0 424.5,76.0 425.5,76.0 425.5,76.0 426.5,76.0 426.5,76.0 427.5,76.0 427.5,76.0 428.5,76.0 428.5,76.0 429.5,76.0 429.5,76.0 430.5,76.0 430.5,76.0 431.5,76.0 431.5,76.0 432.5,76.0 432.5,76.0 433.5,76.0 433.5,76.0 434.5,76.0 434.5,76.0 435.5,76.0 435.5,76.0 436.5,76.0 436.5,76.0 437.5,76.0 437.5,76.0 438.5,76.0 438.5,76.0 439.5,76.0 439.5,76.0 440.5,76.0 440.5,76.0 441.5,76.0 441.5,76.0 442.5,76.0 442.5,76.0 443.5,76.0 443.5,76.0 444.5,76.0 444.5,76.0 445.5,316.0 445.5,76.0 446.5,316.0 446.5,316.0 447.5,316.0 447.5,316.0 448.5,316.0 448.5,316.0 449.5,316.0 449.5,316.0 450.5,316.0 450.5,316.0 451.5,316.0 451.5,316.0 452.5,316.0 452.5,316.0 453.5,316.0 453.5,316.0 454.5,316.0 454.5,316.0 455.5,316.0 455.5,316.0 456.5,316.0 456.5,316.0 457.5,316.0 457.5,316.0 458.5,316.0 458.5,316.0 459.5,316.0 459.5,316.0 460.5,316.0 460.5,316.0 461.5,316.0 461.5,316.0 462.5,316.0 462.5,316.0 463.5,316.0 463.5,316.0 464.5,316.0 464.5,316.0 465.5,316.0 465.5,316.0 466.5,316.0 466.5,316.0 467.5,316.0 467.5,316.0 468.5,316.0 468.5,316.0 469.5,316.0 469.5,316.0 470.5,316.0 470.5,316.0 471.5,316.0 471.5,316.0 472.5,316.0 472.5,316.0 473.5,316.0 473.5,316.0 474.5,316.0 474.5,316.0 475.5,316.0 475.5,316.0 476.5,316.0 476.5,316.0 477.5,316.0 477.5,316.0 478.5,316.0 478.5,316.0 479.5,316.0 479.5,316.0 480.5,316.0 480.5,316.0 481.5,316.0 481.5,316.0 482.5,316.0 482.5,316.0 483.5,76.0 483.5,76.0 484.5,76.0 484.5,76.0 485.5,76.0 485.5,76.0 486.5,76.0 486.5,76.0 487.5,76.0 487.5,76.0 488.5,76.0 488.5,76.0 489.5,76.0 489.5,76.0 490.5,76.0 490.5,76.0 491.5,76.0 491.5,76.0 492.5,76.0 492.5,76.0 493.5,76.0 493.5,76.0 494.5,76.0 494.5,76.0 495.5,76.0 495.5,76.0 496.5,76.0 496.5,76.0 497.5,76.0 497.5,76.0 498.5,76.0 498.5,76.0 499.5,76.0 499.5,76.0 500.5,76.0 500.5,76.0 501.5,76.0 501.5,76.0 502.5,76.0 502.5,76.0 503.5,76.0 503.5,76.0 504.5,76.0 504.5,76.0 505.5,76.0 505.5,76.0 506.5,76.0 506.5,76.0 507.5,76.0 507.5,76.0 508.5,76.0 508.5,76.0 509.5,76.0 509.5,76.0 510.5,76.0 510.5,76.0 511.5,76.0 511.5,76.0 512.5,76.0 512.5,76.0 513.5,76.0 513.5,76.0 514.5,76.0 514.5,76.0 515.5,76.0 515.5,76.0 516.5,76.0 516.5,76.0 517.5,76.0 517.5,76.0 518.5,76.0 518.5,76.0 519.5,76.0 519.5,76.0 520.5,316.0 520.5,76.0 521.5,316.0 521.5,316.0 522.5,316.0 522.5,316.0 523.5,316.0 523.5,316.0 524.5,316.0 524.5,316.0 525.5,316.0 525.5,316.0 526.5,316.0 526.5,316.0 527.5,316.0 527.5,316.0 528.5,316.0 528.5,316.0 529.5,316.0 529.5,316.0 530.5,316.0 530.5,316.0 531.5,316.0 531.5,316.0 532.5,316.0 532.5,316.0 533.5,316.0 533.5,316.0 534.5,316.0 534.5,316.0 535.5,316.0 535.5,316.0 536.5,316.0 536.5,316.0 537.5,316.0 537.5,316.0 538.5,316.0 538.5,316.0 539.5,316.0 539.5,316.0 540.5,316.0 540.5,316.0 541.5,316.0 541.5,316.0 542.5,316.0 542.5,316.0 543.5,316.0 543.5,316.0 544.5,316.0 544.5,316.0 545.5,316.0 545.5,316.0 546.5,316.0 546.5,316.0 547.5,316.0 547.5,316.0 548.5,316.0 548.5,316.0 549.5,316.0 549.5,316.0 550.5,316.0 550.5,316.0 551.5,316.0 551.5,316.0 552.5,316.0 552.5,316.0 553.5,316.0 553.5,316.0 554.5,316.0 554.5,316.0 555.5,316.0 555.5,316.0 556.5,316.0 556.5,316.0 557.5,316.0 557.5,316.0 558.5,76.0 558.5,76.0 559.5,76.0 559.5,76.0 560.5,76.0 560.5,76.0 561.5,76.0 561.5,76.0 562.5,76.0 562.5,76.0 563.5,76.0 563.5,76.0 564.5,76.0 564.5,76.0 565.5,76.0 565.5,76.0 566.5,76.0 566.5,76.0 567.5,76.0 567.5,76.0 568.5,76.0 568.5,76.0 569.5,76.0 569.5,76.0 570.5,76.0 570.5,76.0 571.5,76.0 571.5,76.0 572.5,76.0 572.5,76.0 573.5,76.0 573.5,76.0 574.5,76.0 574.5,76.0 575.5,76.0 575.5,76.0 576.5,76.0 576.5,76.0 577.5,76.0 577.5,76.0 578.5,76.0 578.5,76.0 579.5,76.0 579.5,76.0 580.5,76.0 580.5,76.0 581.5,76.0 581.5,76.0 582.5,76.0 582.5,76.0 583.5,76.0 583.5,76.0 584.5,76.0 584.5,76.0 585.5,76.0 585.5,76.0 586.5,76.0 586.5,76.0 587.5,76.0 587.5,76.0 588.5,76.0 588.5,76.0 589.5,76.0 589.5,76.0 590.5,76.0 590.5,76.0 591.5,76.0 591.5,76.0 592.5,76.0 592.5,76.0 593.5,76.0 593.5,76.0 594.5,76.0 594.5,76.0 595.5,316.0 595.5,76.0 596.5,316.0 596.5,316.0 597.5,316.0 597.5,316.0 598.5,316.0 598.5,316.0 599.5,316.0 599.5,316.0 600.5,316.0 600.5,316.0 601.5,316.0 601.5,316.0 602.5,316.0 602.5,316.0 603.5,316.0 603.5,316.0 604.5,316.0 604.5,316.0 605.5,316.0 605.5,316.0 606.5,316.0 606.5,316.0 607.5,316.0 607.5,316.0 608.5,316.0 608.5,316.0 609.5,316.0 609.5,316.0 610.5,316.0 610.5,316.0 611.5,316.0 611.5,316.0 612.5,316.0 612.5,316.0 613.5,316.0 613.5,316.0 614.5,316.0 614.5,316.0 615.5,316.0 615.5,316.0 616.5,316.0 616.5,316.0 617.5,316.0 617.5,316.0 618.5,316.0 618.5,316.0 619.5,316.0 619.5,316.0 620.5,316.0 620.5,316.0 621.5,316.0 621.5,316.0 622.5,316.0 622.5,316.0 623.5,316.0 623.5,316.0 624.5,316.0 624.5,316.0 625.5,316.0 625.5,316.0 626.5,316.0 626.5,316.0 627.5,316.0 627.5,316.0 628.5,316.0 628.5,316.0 629.5,316.0 629.5,316.0 630.5,316.0 630.5,316.0 631.5,316.0 631.5,316.0 632.5,316.0 632.5,76.0 633.5,76.0 633.5,76.0 634.5,76.0 634.5,76.0 635.5,76.0 635.5,76.0 636.5,76.0 636.5,76.0 637.5,76.0 637.5,76.0 638.5,76.0 638.5,76.0 639.5,76.0 639.5,76.0 640.5,76.0 640.5,76.0 641.5,76.0 641.5,76.0 642.5,76.0 642.5,76.0 643.5,76.0 643.5,76.0 644.5,76.0 644.5,76.0 645.5,76.0 645.5,76.0 646.5,76.0 646.5,76.0 647.5,76.0 647.5,76.0 648.5,76.0 648.5,76.0 649.5,76.0 649.5,76.0 650.5,76.0 650.5,76.0 651.5,76.0 651.5,76.0 652.5,76.0 652.5,76.0 653.5,76.0 653.5,76.0 654.5,76.0 654.5,76.0 655.5,76.0 655.5,76.0 656.5,76.0 656.5,76.0 657.5,76.0 657.5,76.0 658.5,76.0 658.5,76.0 659.5,76.0 659.5,76.0 660.5,76.0 660.5,76.0 661.5,76.0 661.5,76.0 662.5,76.0 662.5,76.0 663.5,76.0 663.5,76.0 664.5,76.0 664.5,76.0 665.5,76.0 665.5,76.0 666.5,76.0 666.5,76.0 667.5,76.0 667.5,76.0 668.5,76.0 668.5,76.0 669.5,76.0 669.5,76.0 670.5,316.0 670.5,316.0 671.5,316.0 671.5,316.0 672.5,316.0 672.5,316.0 673.5,316.0 673.5,316.0 674.5,316.0 674.5,316.0 675.5,316.0 675.5,316.0 676.5,316.0 676.5,316.0 677.5,316.0 677.5,316.0 678.5,316.0 678.5,316.0 679.5,316.0 679.5,316.0 680.5,316.0 680.5,316.0 681.5,316.0 681.5,316.0 682.5,316.0 682.5,316.0 683.5,316.0 683.5,316.0 684.5,316.0 684.5,316.0 685.5,316.0 685.5,316.0 686.5,316.0 686.5,316.0 687.5,316.0 687.5,316.0 688.5,316.0 688.5,316.0 689.5,316.0 689.5,316.0 690.5,316.0 690.5,316.0 691.5,316.0 691.5,316.0 692.5,316.0 692.5,316.0 693.5,316.0 693.5,316.0 694.5,316.0 694.5,316.0 695.5,316.0 695.5,316.0 696.5,316.0 696.5,316.0 697.5,316.0 697.5,316.0 698.5,316.0 698.5,316.0 699.5,316.0 699.5,316.0 700.5,316.0 700.5,316.0 701.5,316.0 701.5,316.0 702.5,316.0 702.5,316.0 703.5,316.0 703.5,316.0 704.5,316.0 704.5,316.0 705.5,316.0 705.5,316.0 706.5,316.0 706.5,316.0 707.5,316.0 707.5,76.0 708.5,76.0 708.5,76.0 709.5,76.0 709.5,76.0 710.5,76.0 710.5,76.0 711.5,76.0 711.5,76.0 712.5,76.0 712.5,76.0 713.5,76.0 713.5,76.0 714.5,76.0 714.5,76.0 715.5,76.0 715.5,76.0 716.5,76.0 716.5,76.0 717.5,76.0 717.5,76.0 718.5,76.0 718.5,76.0 719.5,76.0 719.5,76.0 720.5,76.0 720.5,76.0 721.5,76.0 721.5,76.0 722.5,76.0 722.5,76.0 723.5,76.0 723.5,76.0 724.5,76.0 724.5,76.0 725.5,76.0 725.5,76.0 726.5,76.0 726.5,76.0 727.5,76.0 727.5,76.0 728.5,76.0 728.5,76.0 729.5,76.0 729.5,76.0 730.5,76.0 730.5,76.0 731.5,76.0 731.5,76.0 732.5,76.0 732.5,76.0 733.5,76.0 733.5,76.0 734.5,76.0 734.5,76.0 735.5,76.0 735.5,76.0 736.5,76.0 736.5,76.0 737.5,76.0 737.5,76.0 738.5,76.0 738.5,76.0 739.5,76.0 739.5,76.0 740.5,76.0 740.5,76.0 741.5,76.0 741.5,76.0 742.5,76.0 742.5,76.0 743.5,76.0 743.5,76.0 744.5,76.0 744.5,76.0 745.5,316.0 745.5,316.0 746.5,316.0 746.5,316.0 747.5,316.0 747.5,316.0 748.5,316.0 748.5,316.0 749.5,316.0 749.5,316.0 750.5,316.0 750.5,316.0 751.5,316.0 751.5,316.0 752.5,316.0 752.5,316.0 753.5,316.0 753.5,316.0 754.5,316.0 754.5,316.0 755.5,316.0 755.5,316.0 756.5,316.0 756.5,316.0 757.5,316.0 757.5,316.0 758.5,316.0 758.5,316.0 759.5,316.0 759.5,316.0 760.5,316.0 760.5,316.0 761.5,316.0 761.5,316.0 762.5,316.0 762.5,316.0 763.5,316.0 763.5,316.0 764.5,316.0 764.5,316.0 765.5,316.0 765.5,316.0 766.5,316.0 766.5,316.0 767.5,316.0 767.5,316.0 768.5,316.0 768.5,316.0 769.5,316.0 769.5,316.0 770.5,316.0 770.5,316.0 771.5,316.0 771.5,316.0 772.5,316.0 772.5,316.0 773.5,316.0 773.5,316.0 774.5,316.0 774.5,316.0 775.5,316.0 775.5,316.0 776.5,316.0 776.5,316.0 777.5,316.0 777.5,316.0 778.5,316.0 778.5,316.0 779.5,316.0 779.5,316.0 780.5,316.0 780.5,316.0 781.5,316.0 781.5,316.0 782.5,316.0 782.5,76.0 783.5,76.0 783.5,76.0 784.5,76.0 784.5,76.0 785.5,76.0 785.5,76.0 786.5,76.0 786.5,76.0 787.5,76.0 787.5,76.0 788.5,76.0 788.5,76.0 789.5,76.0 789.5,76.0 790.5,76.0 790.5,76.0 791.5,76.0 791.5,76.0 792.5,76.0 792.5,76.0 793.5,76.0 793.5,76.0 794.5,76.0 794.5,76.0 795.5,76.0 795.5,76.0 796.5,76.0 796.5,76.0 797.5,76.0 797.5,76.0 798.5,76.0 798.5,76.0 799.5,76.0 799.5,76.0" fill="none" stroke="#d1d5db" stroke-width="1.5" stroke-linejoin="round"/>
  <polyline clip-path="url(#u36)" points="34.5,76.0 34.5,76.0 35.5,76.0 35.5,76.0 36.5,76.0 36.5,76.0 37.5,76.0 37.5,76.0 38.5,76.0 38.5,76.0 39.5,76.0 39.5,76.0 40.5,76.0 40.5,76.0 41.5,76.0 41.5,76.0 42.5,76.0 42.5,76.0 43.5,76.0 43.5,76.0 44.5,76.0 44.5,76.0 45.5,76.0 45.5,76.0 46.5,76.0 46.5,76.0 47.5,76.0 47.5,76.0 48.5,76.0 48.5,76.0 49.5,76.0 49.5,76.0 50.5,76.0 50.5,76.0 51.5,76.0 51.5,76.0 52.5,76.0 52.5,76.0 53.5,76.0 53.5,76.0 54.5,76.0 54.5,76.0 55.5,76.0 55.5,76.0 56.5,76.0 56.5,76.0 57.5,76.0 57.5,76.0 58.5,76.0 58.5,76.0 59.5,76.0 59.5,76.0 60.5,76.0 60.5,76.0 61.5,76.0 61.5,76.0 62.5,76.0 62.5,76.0 63.5,76.0 63.5,76.0 64.5,76.0 64.5,76.0 65.5,76.0 65.5,76.0 66.5,76.0 66.5,76.0 67.5,76.0 67.5,76.0 68.5,76.0 68.5,76.0 69.5,76.0 69.5,76.0 70.5,76.0 70.5,76.0 71.5,93.0 71.5,76.0 72.5,144.0 72.5,110.0 73.5,178.0 73.5,161.0 74.5,229.1 74.5,195.0 75.5,280.1 75.5,246.1 76.5,314.1 76.5,297.1 77.5,316.0 77.5,316.0 78.5,316.0 78.5,316.0 79.5,316.0 79.5,316.0 80.5,316.0 80.5,316.0 81.5,316.0 81.5,316.0 82.5,316.0 82.5,316.0 83.5,316.0 83.5,316.0 84.5,316.0 84.5,316.0 85.5,316.0 85.5,316.0 86.5,316.0 86.5,316.0 87.5,316.0 87.5,316.0 88.5,316.0 88.5,316.0 89.5,316.0 89.5,316.0 90.5,316.0 90.5,316.0 91.5,316.0 91.5,316.0 92.5,316.0 92.5,316.0 93.5,316.0 93.5,316.0 94.5,316.0 94.5,316.0 95.5,316.0 95.5,316.0 96.5,316.0 96.5,316.0 97.5,316.0 97.5,316.0 98.5,316.0 98.5,316.0 99.5,316.0 99.5,316.0 100.5,316.0 100.5,316.0 101.5,316.0 101.5,316.0 102.5,316.0 102.5,316.0 103.5,316.0 103.5,316.0 104.5,316.0 104.5,316.0 105.5,316.0 105.5,316.0 106.5,316.0 106.5,316.0 107.5,316.0 107.5,316.0 108.5,316.0 108.5,316.0 109.5,299.0 109.5,265.0 110.5,248.0 110.5,231.0 111.5,214.0 111.5,179.9 112.5,162.9 112.5,128.9 113.5,111.9 113.5,94.9 114.5,77.9 114.5,76.0 115.5,76.0 115.5,76.0 116.5,76.0 116.5,76.0 117.5,76.0 117.5,76.0 118.5,76.0 118.5,76.0 119.5,76.0 119.5,76.0 120.5,76.0 120.5,76.0 121.5,76.0 121.5,76.0 122.5,76.0 122.5,76.0 123.5,76.0 123.5,76.0 124.5,76.0 124.5,76.0 125.5,76.0 125.5,76.0 126.5,76.0 126.5,76.0 127.5,76.0 127.5,76.0 128.5,76.0 128.5,76.0 129.5,76.0 129.5,76.0 130.5,76.0 130.5,76.0 131.5,76.0 131.5,76.0 132.5,76.0 132.5,76.0 133.5,76.0 133.5,76.0 134.5,76.0 134.5,76.0 135.5,76.0 135.5,76.0 136.5,76.0 136.5,76.0 137.5,76.0 137.5,76.0 138.5,76.0 138.5,76.0 139.5,76.0 139.5,76.0 140.5,76.0 140.5,76.0 141.5,76.0 141.5,76.0 142.5,76.0 142.5,76.0 143.5,76.0 143.5,76.0 144.5,76.0 144.5,76.0 145.5,76.0 145.5,76.0 146.5,110.0 146.5,76.0 147.5,144.0 147.5,127.0 148.5,195.0 148.5,161.0 149.5,246.1 149.5,212.1 150.5,280.1 150.5,263.1 151.5,316.0 151.5,297.1 152.5,316.0 152.5,316.0 153.5,316.0 153.5,316.0 154.5,316.0 154.5,316.0 155.5,316.0 155.5,316.0 156.5,316.0 156.5,316.0 157.5,316.0 157.5,316.0 158.5,316.0 158.5,316.0 159.5,316.0 159.5,316.0 160.5,316.0 160.5,316.0 161.5,316.0 161.5,316.0 162.5,316.0 162.5,316.0 163.5,316.0 163.5,316.0 164.5,316.0 164.5,316.0 165.5,316.0 165.5,316.0 166.5,316.0 166.5,316.0 167.5,316.0 167.5,316.0 168.5,316.0 168.5,316.0 169.5,316.0 169.5,316.0 170.5,316.0 170.5,316.0 171.5,316.0 171.5,316.0 172.5,316.0 172.5,316.0 173.5,316.0 173.5,316.0 174.5,316.0 174.5,316.0 175.5,316.0 175.5,316.0 176.5,316.0 176.5,316.0 177.5,316.0 177.5,316.0 178.5,316.0 178.5,316.0 179.5,316.0 179.5,316.0 180.5,316.0 180.5,316.0 181.5,316.0 181.5,316.0 182.5,316.0 182.5,316.0 183.5,316.0 183.5,299.0 184.5,282.0 184.5,265.0 185.5,248.0 185.5,214.0 186.5,197.0 186.5,162.9 187.5,145.9 187.5,128.9 188.5,111.9 188.5,77.9 189.5,76.0 189.5,76.0 190.5,76.0 190.5,76.0 191.5,76.0 191.5,76.0 192.5,76.0 192.5,76.0 193.5,76.0 193.5,76.0 194.5,76.0 194.5,76.0 195.5,76.0 195.5,76.0 196.5,76.0 196.5,76.0 197.5,76.0 197.5,76.0 198.5,76.0 198.5,76.0 199.5,76.0 199.5,76.0 200.5,76.0 200.5,76.0 201.5,76.0 201.5,76.0 202.5,76.0 202.5,76.0 203.5,76.0 203.5,76.0 204.5,76.0 204.5,76.0 205.5,76.0 205.5,76.0 206.5,76.0 206.5,76.0 207.5,76.0 207.5,76.0 208.5,76.0 208.5,76.0 209.5,76.0 209.5,76.0 210.5,76.0 210.5,76.0 211.5,76.0 211.5,76.0 212.5,76.0 212.5,76.0 213.5,76.0 213.5,76.0 214.5,76.0 214.5,76.0 215.5,76.0 215.5,76.0 216.5,76.0 216.5,76.0 217.5,76.0 217.5,76.0 218.5,76.0 218.5,76.0 219.5,76.0 219.5,76.0 220.5,76.0 220.5,76.0 221.5,110.0 221.5,76.0 222.5,161.0 222.5,127.0 223.5,195.0 223.5,178.0 224.5,246.1 224.5,212.1 225.5,297.1 225.5,263.1 226.5,316.0 226.5,314.1 227.5,316.0 227.5,316.0 228.5,316.0 228.5,316.0 229.5,316.0 229.5,316.0 230.5,316.0 230.5,316.0 231.5,316.0 231.5,316.0 232.5,316.0 232.5,316.0 233.5,316.0 233.5,316.0 234.5,316.0 234.5,316.0 235.5,316.0 235.5,316.0 236.5,316.0 236.5,316.0 237.5,316.0 237.5,316.0 238.5,316.0 238.5,316.0 239.5,316.0 239.5,316.0 240.5,316.0 240.5,316.0 241.5,316.0 241.5,316.0 242.5,316.0 242.5,316.0 243.5,316.0 243.5,316.0 244.5,316.0 244.5,316.0 245.5,316.0 245.5,316.0 246.5,316.0 246.5,316.0 247.5,316.0 247.5,316.0 248.5,316.0 248.5,316.0 249.5,316.0 249.5,316.0 250.5,316.0 250.5,316.0 251.5,316.0 251.5,316.0 252.5,316.0 252.5,316.0 253.5,316.0 253.5,316.0 254.5,316.0 254.5,316.0 255.5,316.0 255.5,316.0 256.5,316.0 256.5,316.0 257.5,316.0 257.5,316.0 258.5,316.0 258.5,299.0 259.5,282.0 259.5,248.0 260.5,231.0 260.5,214.0 261.5,197.0 261.5,162.9 262.5,145.9 262.5,111.9 263.5,94.9 263.5,77.9 264.5,76.0 264.5,76.0 265.5,76.0 265.5,76.0 266.5,76.0 266.5,76.0 267.5,76.0 267.5,76.0 268.5,76.0 268.5,76.0 269.5,76.0 269.5,76.0 270.5,76.0 270.5,76.0 271.5,76.0 271.5,76.0 272.5,76.0 272.5,76.0 273.5,76.0 273.5,76.0 274.5,76.0 274.5,76.0 275.5,76.0 275.5,76.0 276.5,76.0 276.5,76.0 277.5,76.0 277.5,76.0 278.5,76.0 278.5,76.0 279.5,76.0 279.5,76.0 280.5,76.0 280.5,76.0 281.5,76.0 281.5,76.0 282.5,76.0 282.5,76.0 283.5,76.0 283.5,76.0 284.5,76.0 284.5,76.0 285.5,76.0 285.5,76.0 286.5,76.0 286.5,76.0 287.5,76.0 287.5,76.0 288.5,76.0 288.5,76.0 289.5,76.0 289.5,76.0 290.5,76.0 290.5,76.0 291.5,76.0 291.5,76.0 292.5,76.0 292.5,76.0 293.5,76.0 293.5,76.0 294.5,76.0 294.5,76.0 295.5,76.0 295.5,76.0 296.5,127.0 296.5,93.0 297.5,161.0 297.5,144.0 298.5,212.1 298.5,178.0 299.5,263.1 299.5,229.1 300.5,297.1 300.5,280.1 301.5,316.0 301.5,314.1 302.5,316.0 302.5,316.0 303.5,316.0 303.5,316.0 304.5,316.0 304.5,316.0 305.5,316.0 305.5,316.0 306.5,316.0 306.5,316.0 307.5,316.0 307.5,316.0 308.5,316.0 308.5,316.0 309.5,316.0 309.5,316.0 310.5,316.0 310.5,316.0 311.5,316.0 311.5,316.0 312.5,316.0 312.5,316.0 313.5,316.0 313.5,316.0 314.5,316.0 314.5,316.0 315.5,316.0 315.5,316.0 316.5,316.0 316.5,316.0 317.5,316.0 317.5,316.0 318.5,316.0 318.5,316.0 319.5,316.0 319.5,316.0 320.5,316.0 320.5,316.0 321.5,316.0 321.5,316.0 322.5,316.0 322.5,316.0 323.5,316.0 323.5,316.0 324.5,316.0 324.5,316.0 325.5,316.0 325.5,316.0 326.5,316.0 326.5,316.0 327.5,316.0 327.5,316.0 328.5,316.0 328.5,316.0 329.5,316.0 329.5,316.0 330.5,316.0 330.5,316.0 331.5,316.0 331.5,316.0 332.5,316.0 332.5,316.0 333.5,316.0 333.5,282.0 334.5,265.0 334.5,248.0 335.5,231.0 335.5,197.0 336.5,179.9 336.5,145.9 337.5,128.9 337.5,111.9 338.5,94.9 338.5,76.0 339.5,76.0 339.5,76.0 340.5,76.0 340.5,76.0 341.5,76.0 341.5,76.0 342.5,76.0 342.5,76.0 343.5,76.0 343.5,76.0 344.5,76.0 344.5,76.0 345.5,76.0 345.5,76.0 346.5,76.0 346.5,76.0 347.5,76.0 347.5,76.0 348.5,76.0 348.5,76.0 349.5,76.0 349.5,76.0 350.5,76.0 350.5,76.0 351.5,76.0 351.5,76.0 352.5,76.0 352.5,76.0 353.5,76.0 353.5,76.0 354.5,76.0 354.5,76.0 355.5,76.0 355.5,76.0 356.5,76.0 356.5,76.0 357.5,76.0 357.5,76.0 358.5,76.0 358.5,76.0 359.5,76.0 359.5,76.0 360.5,76.0 360.5,76.0 361.5,76.0 361.5,76.0 362.5,76.0 362.5,76.0 363.5,76.0 363.5,76.0 364.5,76.0 364.5,76.0 365.5,76.0 365.5,76.0 366.5,76.0 366.5,76.0 367.5,76.0 367.5,76.0 368.5,76.0 368.5,76.0 369.5,76.0 369.5,76.0 370.5,93.0 370.5,76.0 371.5,127.0 371.5,110.0 372.5,178.0 372.5,144.0 373.5,229.1 373.5,195.0 374.5,263.1 374.5,246.1 375.5,314.1 375.5,280.1 376.5,316.0 376.5,316.0 377.5,316.0 377.5,316.0 378.5,316.0 378.5,316.0 379.5,316.0 379.5,316.0 380.5,316.0 380.5,316.0 381.5,316.0 381.5,316.0 382.5,316.0 382.5,316.0 383.5,316.0 383.5,316.0 384.5,316.0 384.5,316.0 385.5,316.0 385.5,316.0 386.5,316.0 386.5,316.0 387.5,316.0 387.5,316.0 388.5,316.0 388.5,316.0 389.5,316.0 389.5,316.0 390.5,316.0 390.5,316.0 391.5,316.0 391.5,316.0 392.5,316.0 392.5,316.0 393.5,316.0 393.5,316.0 394.5,316.0 394.5,316.0 395.5,316.0 395.5,316.0 396.5,316.0 396.5,316.0 397.5,316.0 397.5,316.0 398.5,316.0 398.5,316.0 399.5,316.0 399.5,316.0 400.5,316.0 400.5,316.0 401.5,316.0 401.5,316.0 402.5,316.0 402.5,316.0 403.5,316.0 403.5,316.0 404.5,316.0 404.5,316.0 405.5,316.0 405.5,316.0 406.5,316.0 406.5,316.0 407.5,316.0 407.5,316.0 408.5,316.0 408.5,282.0 409.5,265.0 409.5,231.0 410.5,214.0 410.5,197.0 411.5,179.9 411.5,145.9 412.5,128.9 412.5,94.9 413.5,77.9 413.5,76.0 414.5,76.0 414.5,76.0 415.5,76.0 415.5,76.0 416.5,76.0 416.5,76.0 417.5,76.0 417.5,76.0 418.5,76.0 418.5,76.0 419.5,76.0 419.5,76.0 420.5,76.0 420.5,76.0 421.5,76.0 421.5,76.0 422.5,76.0 422.5,76.0 423.5,76.0 423.5,76.0 424.5,76.0 424.5,76.0 425.5,76.0 425.5,76.0 426.5,76.0 426.5,76.0 427.5,76.0 427.5,76.0 428.5,76.0 428.5,76.0 429.5,76.0 429.5,76.0 430.5,76.0 430.5,76.0 431.5,76.0 431.5,76.0 432.5,76.0 432.5,76.0 433.5,76.0 433.5,76.0 434.5,76.0 434.5,76.0 435.5,76.0 435.5,76.0 436.5,76.0 436.5,76.0 437.5,76.0 437.5,76.0 438.5,76.0 438.5,76.0 439.5,76.0 439.5,76.0 440.5,76.0 440.5,76.0 441.5,76.0 441.5,76.0 442.5,76.0 442.5,76.0 443.5,76.0 443.5,76.0 444.5,76.0 444.5,76.0 445.5,93.0 445.5,76.0 446.5,144.0 446.5,110.0 447.5,178.0 447.5,161.0 448.5,229.1 448.5,195.0 449.5,280.1 449.5,246.1 450.5,314.1 450.5,297.1 451.5,316.0 451.5,316.0 452.5,316.0 452.5,316.0 453.5,316.0 453.5,316.0 454.5,316.0 454.5,316.0 455.5,316.0 455.5,316.0 456.5,316.0 456.5,316.0 457.5,316.0 457.5,316.0 458.5,316.0 458.5,316.0 459.5,316.0 459.5,316.0 460.5,316.0 460.5,316.0 461.5,316.0 461.5,316.0 462.5,316.0 462.5,316.0 463.5,316.0 463.5,316.0 464.5,316.0 464.5,316.0 465.5,316.0 465.5,316.0 466.5,316.0 466.5,316.0 467.5,316.0 467.5,316.0 468.5,316.0 468.5,316.0 469.5,316.0 469.5,316.0 470.5,316.0 470.5,316.0 471.5,316.0 471.5,316.0 472.5,316.0 472.5,316.0 473.5,316.0 473.5,316.0 474.5,316.0 474.5,316.0 475.5,316.0 475.5,316.0 476.5,316.0 476.5,316.0 477.5,316.0 477.5,316.0 478.5,316.0 478.5,316.0 479.5,316.0 479.5,316.0 480.5,316.0 480.5,316.0 481.5,316.0 481.5,316.0 482.5,316.0 482.5,316.0 483.5,299.0 483.5,265.0 484.5,248.0 484.5,231.0 485.5,214.0 485.5,179.9 486.5,162.9 486.5,128.9 487.5,111.9 487.5,94.9 488.5,77.9 488.5,76.0 489.5,76.0 489.5,76.0 490.5,76.0 490.5,76.0 491.5,76.0 491.5,76.0 492.5,76.0 492.5,76.0 493.5,76.0 493.5,76.0 494.5,76.0 494.5,76.0 495.5,76.0 495.5,76.0 496.5,76.0 496.5,76.0 497.5,76.0 497.5,76.0 498.5,76.0 498.5,76.0 499.5,76.0 499.5,76.0 500.5,76.0 500.5,76.0 501.5,76.0 501.5,76.0 502.5,76.0 502.5,76.0 503.5,76.0 503.5,76.0 504.5,76.0 504.5,76.0 505.5,76.0 505.5,76.0 506.5,76.0 506.5,76.0 507.5,76.0 507.5,76.0 508.5,76.0 508.5,76.0 509.5,76.0 509.5,76.0 510.5,76.0 510.5,76.0 511.5,76.0 511.5,76.0 512.5,76.0 512.5,76.0 513.5,76.0 513.5,76.0 514.5,76.0 514.5,76.0 515.5,76.0 515.5,76.0 516.5,76.0 516.5,76.0 517.5,76.0 517.5,76.0 518.5,76.0 518.5,76.0 519.5,76.0 519.5,76.0 520.5,110.0 520.5,76.0 521.5,144.0 521.5,127.0 522.5,195.0 522.5,161.0 523.5,246.1 523.5,212.1 524.5,280.1 524.5,263.1 525.5,316.0 525.5,297.1 526.5,316.0 526.5,316.0 527.5,316.0 527.5,316.0 528.5,316.0 528.5,316.0 529.5,316.0 529.5,316.0 530.5,316.0 530.5,316.0 531.5,316.0 531.5,316.0 532.5,316.0 532.5,316.0 533.5,316.0 533.5,316.0 534.5,316.0 534.5,316.0 535.5,316.0 535.5,316.0 536.5,316.0 536.5,316.0 537.5,316.0 537.5,316.0 538.5,316.0 538.5,316.0 539.5,316.0 539.5,316.0 540.5,316.0 540.5,316.0 541.5,316.0 541.5,316.0 542.5,316.0 542.5,316.0 543.5,316.0 543.5,316.0 544.5,316.0 544.5,316.0 545.5,316.0 545.5,316.0 546.5,316.0 546.5,316.0 547.5,316.0 547.5,316.0 548.5,316.0 548.5,316.0 549.5,316.0 549.5,316.0 550.5,316.0 550.5,316.0 551.5,316.0 551.5,316.0 552.5,316.0 552.5,316.0 553.5,316.0 553.5,316.0 554.5,316.0 554.5,316.0 555.5,316.0 555.5,316.0 556.5,316.0 556.5,316.0 557.5,316.0 557.5,316.0 558.5,299.0 558.5,265.0 559.5,248.0 559.5,214.0 560.5,197.0 560.5,162.9 561.5,145.9 561.5,128.9 562.5,111.9 562.5,77.9 563.5,76.0 563.5,76.0 564.5,76.0 564.5,76.0 565.5,76.0 565.5,76.0 566.5,76.0 566.5,76.0 567.5,76.0 567.5,76.0 568.5,76.0 568.5,76.0 569.5,76.0 569.5,76.0 570.5,76.0 570.5,76.0 571.5,76.0 571.5,76.0 572.5,76.0 572.5,76.0 573.5,76.0 573.5,76.0 574.5,76.0 574.5,76.0 575.5,76.0 575.5,76.0 576.5,76.0 576.5,76.0 577.5,76.0 577.5,76.0 578.5,76.0 578.5,76.0 579.5,76.0 579.5,76.0 580.5,76.0 580.5,76.0 581.5,76.0 581.5,76.0 582.5,76.0 582.5,76.0 583.5,76.0 583.5,76.0 584.5,76.0 584.5,76.0 585.5,76.0 585.5,76.0 586.5,76.0 586.5,76.0 587.5,76.0 587.5,76.0 588.5,76.0 588.5,76.0 589.5,76.0 589.5,76.0 590.5,76.0 590.5,76.0 591.5,76.0 591.5,76.0 592.5,76.0 592.5,76.0 593.5,76.0 593.5,76.0 594.5,76.0 594.5,76.0 595.5,110.0 595.5,76.0 596.5,161.0 596.5,127.0 597.5,195.0 597.5,178.0 598.5,246.1 598.5,212.1 599.5,297.1 599.5,263.1 600.5,316.0 600.5,314.1 601.5,316.0 601.5,316.0 602.5,316.0 602.5,316.0 603.5,316.0 603.5,316.0 604.5,316.0 604.5,316.0 605.5,316.0 605.5,316.0 606.5,316.0 606.5,316.0 607.5,316.0 607.5,316.0 608.5,316.0 608.5,316.0 609.5,316.0 609.5,316.0 610.5,316.0 610.5,316.0 611.5,316.0 611.5,316.0 612.5,316.0 612.5,316.0 613.5,316.0 613.5,316.0 614.5,316.0 614.5,316.0 615.5,316.0 615.5,316.0 616.5,316.0 616.5,316.0 617.5,316.0 617.5,316.0 618.5,316.0 618.5,316.0 619.5,316.0 619.5,316.0 620.5,316.0 620.5,316.0 621.5,316.0 621.5,316.0 622.5,316.0 622.5,316.0 623.5,316.0 623.5,316.0 624.5,316.0 624.5,316.0 625.5,316.0 625.5,316.0 626.5,316.0 626.5,316.0 627.5,316.0 627.5,316.0 628.5,316.0 628.5,316.0 629.5,316.0 629.5,316.0 630.5,316.0 630.5,316.0 631.5,316.0 631.5,316.0 632.5,316.0 632.5,299.0 633.5,282.0 633.5,248.0 634.5,231.0 634.5,214.0 635.5,197.0 635.5,162.9 636.5,145.9 636.5,111.9 637.5,94.9 637.5,77.9 638.5,76.0 638.5,76.0 639.5,76.0 639.5,76.0 640.5,76.0 640.5,76.0 641.5,76.0 641.5,76.0 642.5,76.0 642.5,76.0 643.5,76.0 643.5,76.0 644.5,76.0 644.5,76.0 645.5,76.0 645.5,76.0 646.5,76.0 646.5,76.0 647.5,76.0 647.5,76.0 648.5,76.0 648.5,76.0 649.5,76.0 649.5,76.0 650.5,76.0 650.5,76.0 651.5,76.0 651.5,76.0 652.5,76.0 652.5,76.0 653.5,76.0 653.5,76.0 654.5,76.0 654.5,76.0 655.5,76.0 655.5,76.0 656.5,76.0 656.5,76.0 657.5,76.0 657.5,76.0 658.5,76.0 658.5,76.0 659.5,76.0 659.5,76.0 660.5,76.0 660.5,76.0 661.5,76.0 661.5,76.0 662.5,76.0 662.5,76.0 663.5,76.0 663.5,76.0 664.5,76.0 664.5,76.0 665.5,76.0 665.5,76.0 666.5,76.0 666.5,76.0 667.5,76.0 667.5,76.0 668.5,76.0 668.5,76.0 669.5,76.0 669.5,76.0 670.5,127.0 670.5,93.0 671.5,161.0 671.5,144.0 672.5,212.1 672.5,178.0 673.5,263.1 673.5,229.1 674.5,297.1 674.5,280.1 675.5,316.0 675.5,314.1 676.5,316.0 676.5,316.0 677.5,316.0 677.5,316.0 678.5,316.0 678.5,316.0 679.5,316.0 679.5,316.0 680.5,316.0 680.5,316.0 681.5,316.0 681.5,316.0 682.5,316.0 682.5,316.0 683.5,316.0 683.5,316.0 684.5,316.0 684.5,316.0 685.5,316.0 685.5,316.0 686.5,316.0 686.5,316.0 687.5,316.0 687.5,316.0 688.5,316.0 688.5,316.0 689.5,316.0 689.5,316.0 690.5,316.0 690.5,316.0 691.5,316.0 691.5,316.0 692.5,316.0 692.5,316.0 693.5,316.0 693.5,316.0 694.5,316.0 694.5,316.0 695.5,316.0 695.5,316.0 696.5,316.0 696.5,316.0 697.5,316.0 697.5,316.0 698.5,316.0 698.5,316.0 699.5,316.0 699.5,316.0 700.5,316.0 700.5,316.0 701.5,316.0 701.5,316.0 702.5,316.0 702.5,316.0 703.5,316.0 703.5,316.0 704.5,316.0 704.5,316.0 705.5,316.0 705.5,316.0 706.5,316.0 706.5,316.0 707.5,316.0 707.5,282.0 708.5,265.0 708.5,248.0 709.5,231.0 709.5,197.0 710.5,179.9 710.5,145.9 711.5,128.9 711.5,111.9 712.5,94.9 712.5,76.0 713.5,76.0 713.5,76.0 714.5,76.0 714.5,76.0 715.5,76.0 715.5,76.0 716.5,76.0 716.5,76.0 717.5,76.0 717.5,76.0 718.5,76.0 718.5,76.0 719.5,76.0 719.5,76.0 720.5,76.0 720.5,76.0 721.5,76.0 721.5,76.0 722.5,76.0 722.5,76.0 723.5,76.0 723.5,76.0 724.5,76.0 724.5,76.0 725.5,76.0 725.5,76.0 726.5,76.0 726.5,76.0 727.5,76.0 727.5,76.0 728.5,76.0 728.5,76.0 729.5,76.0 729.5,76.0 730.5,76.0 730.5,76.0 731.5,76.0 731.5,76.0 732.5,76.0 732.5,76.0 733.5,76.0 733.5,76.0 734.5,76.0 734.5,76.0 735.5,76.0 735.5,76.0 736.5,76.0 736.5,76.0 737.5,76.0 737.5,76.0 738.5,76.0 738.5,76.0 739.5,76.0 739.5,76.0 740.5,76.0 740.5,76.0 741.5,76.0 741.5,76.0 742.5,76.0 742.5,76.0 743.5,76.0 743.5,76.0 744.5,76.0 744.5,76.0 745.5,127.0 745.5,93.0 746.5,178.0 746.5,144.0 747.5,212.1 747.5,195.0 748.5,263.1 748.5,229.1 749.5,314.1 749.5,280.1 750.5,316.0 750.5,316.0 751.5,316.0 751.5,316.0 752.5,316.0 752.5,316.0 753.5,316.0 753.5,316.0 754.5,316.0 754.5,316.0 755.5,316.0 755.5,316.0 756.5,316.0 756.5,316.0 757.5,316.0 757.5,316.0 758.5,316.0 758.5,316.0 759.5,316.0 759.5,316.0 760.5,316.0 760.5,316.0 761.5,316.0 761.5,316.0 762.5,316.0 762.5,316.0 763.5,316.0 763.5,316.0 764.5,316.0 764.5,316.0 765.5,316.0 765.5,316.0 766.5,316.0 766.5,316.0 767.5,316.0 767.5,316.0 768.5,316.0 768.5,316.0 769.5,316.0 769.5,316.0 770.5,316.0 770.5,316.0 771.5,316.0 771.5,316.0 772.5,316.0 772.5,316.0 773.5,316.0 773.5,316.0 774.5,316.0 774.5,316.0 775.5,316.0 775.5,316.0 776.5,316.0 776.5,316.0 777.5,316.0 777.5,316.0 778.5,316.0 778.5,316.0 779.5,316.0 779.5,316.0 780.5,316.0 780.5,316.0 781.5,316.0 781.5,316.0 782.5,316.0 782.5,282.0 783.5,265.0 783.5,231.0 784.5,214.0 784.5,197.0 785.5,179.9 785.5,145.9 786.5,128.9 786.5,94.9 787.5,77.9 787.5,76.0 788.5,76.0 788.5,76.0 789.5,76.0 789.5,76.0 790.5,76.0 790.5,76.0 791.5,76.0 791.5,76.0 792.5,76.0 792.5,76.0 793.5,76.0 793.5,76.0 794.5,76.0 794.5,76.0 795.5,76.0 795.5,76.0 796.5,76.0 796.5,76.0 797.5,76.0 797.5,76.0 798.5,76.0 798.5,76.0 799.5,76.0 799.5,76.0" fill="none" stroke="#3b82f6" stroke-width="1.5" stroke-linejoin="round"/>
  <line x1="34" y1="8" x2="46" y2="8" stroke="#d1d5db" stroke-width="2"/>
  <text x="49" y="11" text-anchor="start" font-size="11" fill="#6b7280">square wave</text>
  <line x1="122.8" y1="8" x2="134.8" y2="8" stroke="#3b82f6" stroke-width="2"/>
  <text x="137.8" y="11" text-anchor="start" font-size="11" fill="#6b7280">slew limited</text>
</svg>
