<svg xmlns="http://www.w3.org/2000/svg" viewBox="0 0 820 392" style="font-family:system-ui,-apple-system,sans-serif">
  <defs>
    <clipPath id="u29"><rect x="47" y="76" width="240" height="240"/></clipPath>

    <clipPath id="u30"><rect x="297" y="76" width="240" height="240"/></clipPath>

    <clipPath id="u31"><rect x="547" y="76" width="240" height="240"/></clipPath>
  </defs>
  <text x="417" y="13" text-anchor="middle" font-size="11" fill="#6b7280" font-weight="600">Stereo widener — goniometer at width 0/1/2</text>
  <line x1="47" y1="76" x2="47" y2="316" stroke="#d1d5db" stroke-width="1"/>
  <line x1="47" y1="316" x2="287" y2="316" stroke="#d1d5db" stroke-width="1"/>
  <line x1="47" y1="196" x2="287" y2="196" stroke="#e5e7eb" stroke-width="0.5"/>
  <line x1="167" y1="76" x2="167" y2="316" stroke="#e5e7eb" stroke-width="0.5"/>
  <line x1="47" y1="316" x2="287" y2="76" stroke="#d1d5db" stroke-width="0.5" stroke-dasharray="3 2"/>
  <polyline clip-path="url(#u29)" points="205.7,157.3 212.2,150.8 218.6,144.4 224.8,138.2 230.7,132.3 236.4,126.6 241.8,121.2 247.0,116.0 251.8,111.2 256.3,106.7 260.4,102.6 264.2,98.8 267.6,95.4 270.6,92.4 273.2,89.8 275.3,87.7 277.1,85.9 278.4,84.6 279.2,83.8 279.7,83.3 279.7,83.3 279.2,83.8 278.3,84.7 277.0,86.0 275.2,87.8 273.0,90.0 270.4,92.6 267.4,95.6 264.0,99.0 260.2,102.8 256.1,106.9 251.6,111.4 246.7,116.3 241.6,121.4 236.1,126.9 230.4,132.6 224.4,138.6 218.3,144.7 211.9,151.1 205.3,157.7 198.6,164.4 191.7,171.3 184.8,178.2 177.8,185.2 170.7,192.3 163.7,199.3 156.6,206.4 149.6,213.4 142.7,220.3 135.8,227.2 129.1,233.9 122.5,240.5 116.1,246.9 109.9,253.1 103.9,259.1 98.2,264.8 92.8,270.2 87.6,275.4 82.7,280.3 78.2,284.8 74.0,289.0 70.2,292.8 66.8,296.2 63.8,299.2 61.1,301.9 58.9,304.1 57.1,305.9 55.8,307.2 54.8,308.2 54.4,308.6 54.3,308.7 54.7,308.3 55.6,307.4 56.8,306.2 58.6,304.4 60.7,302.3 63.3,299.7 66.2,296.8 69.6,293.4 73.3,289.7 77.5,285.5 81.9,281.1 86.7,276.3 91.8,271.2 97.2,265.8 102.9,260.1 108.9,254.1 115.0,248.0 121.4,241.6 127.9,235.1 134.6,228.4 141.5,221.5 148.4,214.6 155.4,207.6 162.4,200.6 169.5,193.5 176.6,186.4 183.6,179.4 190.5,172.5 197.4,165.6 204.1,158.9 210.7,152.3 217.2,145.8 223.4,139.6 229.4,133.6 235.1,127.9 240.6,122.4 245.8,117.2 250.7,112.3 255.3,107.7 259.5,103.5 263.4,99.6 266.8,96.2 269.9,93.1 272.6,90.4 274.9,88.1 276.7,86.3 278.1,84.9 279.1,83.9 279.6,83.4 279.7,83.3 279.4,83.6 278.6,84.4 277.3,85.7 275.7,87.3 273.6,89.4 271.0,92.0 268.1,94.9 264.8,98.2 261.1,101.9 257.0,106.0 252.6,110.4 247.8,115.2 242.8,120.2 237.4,125.6 231.7,131.3 225.8,137.2 219.7,143.3 213.3,149.7 206.8,156.2 200.1,162.9 193.3,169.7 186.4,176.6 179.4,183.6 172.4,190.6 165.3,197.7 158.2,204.8 151.2,211.8 144.2,218.8 137.4,225.6 130.6,232.4 124.0,239.0 117.6,245.4 111.3,251.7 105.3,257.7 99.5,263.5 94.0,269.0 88.7,274.3 83.8,279.2 79.2,283.8 74.9,288.1 71.1,291.9 67.5,295.5 64.4,298.6 61.7,301.3 59.4,303.6 57.5,305.5 56.0,307.0 55.0,308.0 54.4,308.6 54.3,308.7 54.6,308.4 55.3,307.7 56.5,306.5 58.1,304.9 60.2,302.8 62.6,300.4 65.5,297.5 68.8,294.2 72.5,290.5 76.5,286.5 80.9,282.1 85.6,277.4 90.6,272.4 96.0,267.0 101.6,261.4 107.5,255.5 113.6,249.4 119.9,243.1 126.4,236.6 133.1,229.9 139.9,223.1 146.8,216.2 153.8,209.2 160.8,202.2 167.9,195.1 175.0,188.0 182.0,181.0 189.0,174.0 195.9,167.1 202.6,160.4 209.3,153.7 215.7,147.3 222.0,141.0 228.0,135.0 233.9,129.1 239.4,123.6 244.7,118.3 249.7,113.3 254.3,108.7 258.6,104.4 262.5,100.5 266.1,96.9 269.3,93.7 272.0,91.0 274.4,88.6 276.3,86.7 277.8,85.2 278.9,84.1 279.5,83.5 279.7,83.3 279.5,83.5 278.8,84.2 277.6,85.4 276.1,86.9 274.1,88.9 271.7,91.3 268.8,94.2 265.6,97.4 262.0,101.0 258.0,105.0 253.6,109.4 249.0,114.0 243.9,119.1 238.6,124.4 233.0,130.0 227.2,135.8 221.1,141.9 214.8,148.2 208.3,154.7 201.7,161.3 194.9,168.1 188.0,175.0 181.0,182.0 174.0,189.0 166.9,196.1 159.8,203.2 152.8,210.2 145.8,217.2 138.9,224.1 132.1,230.9 125.5,237.5 119.0,244.0 112.7,250.3 106.6,256.4 100.8,262.2 95.2,267.8 89.9,273.1 84.9,278.1 80.2,282.8 75.9,287.1 71.9,291.1 68.3,294.7 65.1,297.9 62.3,300.7 59.9,303.1 57.9,305.1 56.3,306.7 55.2,307.8 54.5,308.5 54.3,308.7 54.5,308.5 55.1,307.9 56.2,306.8 57.7,305.3 59.7,303.3 62.0,301.0 64.8,298.2 68.0,295.0 71.6,291.4 75.5,287.5 79.8,283.2 84.5,278.5 89.5,273.5 94.7,268.3 100.3,262.7 106.1,256.9 112.2,250.8 118.5,244.5 124.9,238.1 131.6,231.4 138.4,224.6 145.2,217.8 152.2,210.8 159.2,203.8 166.3,196.7 173.4,189.6 180.4,182.6 187.4,175.6 194.3,168.7 201.1,161.9 207.8,155.2 214.3,148.7 220.6,142.4 226.7,136.3 232.6,130.4 238.2,124.8 243.5,119.5 248.5,114.5 253.3,109.7 257.6,105.4 261.7,101.3 265.3,97.7 268.6,94.4 271.4,91.6 273.9,89.1 275.9,87.1 277.5,85.5 278.7,84.3 279.4,83.6 279.7,83.3 279.6,83.4 279.0,84.0 277.9,85.1 276.5,86.5 274.6,88.4 272.2,90.8 269.5,93.5 266.4,96.6 262.8,100.2 258.9,104.1 254.7,108.3 250.1,112.9 245.1,117.9 239.9,123.1 234.3,128.7 228.5,134.5 222.5,140.5 216.2,146.8 209.8,153.2 203.2,159.8 196.4,166.6 189.5,173.5 182.6,180.4 175.6,187.4 168.5,194.5 161.4,201.6 154.4,208.6 147.4,215.6 140.5,222.5 133.7,229.3 127.0,236.0 120.5,242.5 114.1,248.9 108.0,255.0 102.1,260.9 96.4,266.6 91.1,271.9 86.0,277.0 81.3,281.7 76.8,286.2 72.8,290.2 69.1,293.9 65.8,297.2 62.9,300.1 60.4,302.6 58.3,304.7 56.6,306.4 55.4,307.6 54.6,308.4 54.3,308.7 54.4,308.6 54.9,308.1 55.9,307.1 57.3,305.7 59.2,303.8 61.5,301.5 64.2,298.8 67.3,295.7 70.7,292.3 74.6,288.4 78.8,284.2 83.4,279.6 88.3,274.7 93.5,269.5 99.0,264.0 104.8,258.2 110.8,252.2 117.0,246.0 123.5,239.5 130.1,232.9 136.8,226.2 143.7,219.3 150.6,212.4 157.6,205.4 164.7,198.3 171.8,191.2 178.8,184.2 185.8,177.2 192.7,170.3 199.6,163.4 206.3,156.7 212.8,150.2 219.2,143.8 225.3,137.7 231.2,131.8 236.9,126.1 242.3,120.7 247.4,115.6 252.2,110.8 256.7,106.3 260.8,102.2 264.5,98.5 267.9,95.1 270.8,92.2 273.4,89.6 275.5,87.5 277.2,85.8 278.5,84.5 279.3,83.7 279.7,83.3 279.6,83.4 279.1,83.9 278.2,84.8 276.8,86.2 275.0,88.0 272.8,90.2 270.2,92.8 267.1,95.9 263.7,99.3 259.9,103.1 255.7,107.3 251.1,111.9 246.3,116.7 241.1,121.9 235.6,127.4 229.9,133.1 223.9,139.1 217.7,145.3 211.3,151.7 204.7,158.3 198.0,165.0 191.1,171.9 184.2,178.8 177.2,185.8 170.1,192.9 163.0,200.0 156.0,207.0 149.0,214.0 142.0,221.0 135.2,227.8 128.5,234.5 121.9,241.1 115.6,247.4 109.4,253.6 103.4,259.6 97.7,265.3 92.3,270.7 87.1,275.9 82.3,280.7 77.8,285.2 73.7,289.3 69.9,293.1 66.5,296.5 63.5,299.5 60.9,302.1 58.7,304.3 57.0,306.0 55.7,307.3 54.8,308.2 54.3,308.7 54.3,308.7 54.8,308.2 55.7,307.3 57.0,306.0 58.7,304.3 60.9,302.1 63.5,299.5 66.5,296.5 69.9,293.1 73.7,289.3 77.8,285.2 82.3,280.7 87.2,275.8 92.3,270.7 97.7,265.3 103.5,259.5 109.4,253.6 115.6,247.4 122.0,241.0 128.5,234.5 135.3,227.7 142.1,220.9 149.0,214.0 156.0,207.0 163.1,199.9 170.2,192.8 177.2,185.8 184.2,178.8 191.2,171.8 198.0,165.0 204.7,158.3 211.3,151.7 217.7,145.3 223.9,139.1 229.9,133.1 235.7,127.3 241.1,121.9 246.3,116.7 251.2,111.8 255.7,107.3 259.9,103.1 263.7,99.3 267.1,95.9 270.2,92.8 272.8,90.2 275.0,88.0 276.9,86.1 278.2,84.8 279.2,83.8 279.6,83.4 279.7,83.3 279.3,83.7 278.5,84.5 277.2,85.8 275.5,87.5 273.4,89.6 270.8,92.2 267.8,95.2 264.5,98.5 260.8,102.2 256.6,106.4 252.2,110.8 247.4,115.6 242.3,120.7 236.9,126.1 231.2,131.8 225.3,137.7 219.1,143.9 212.8,150.2 206.2,156.8 199.5,163.5 192.7,170.3 185.8,177.2 178.8,184.2 171.7,191.3 164.6,198.4 157.6,205.4 150.6,212.4 143.6,219.4 136.8,226.2 130.0,233.0 123.4,239.6 117.0,246.0 110.8,252.2 104.7,258.3 99.0,264.0 93.5,269.5 88.3,274.7 83.4,279.6 78.8,284.2 74.6,288.4 70.7,292.3 67.2,295.8 64.1,298.9 61.5,301.5 59.2,303.8 57.3,305.7 55.9,307.1 54.9,308.1 54.4,308.6 54.3,308.7 54.6,308.4 55.4,307.6 56.6,306.4 58.3,304.7 60.4,302.6 62.9,300.1 65.8,297.2 69.1,293.9 72.8,290.2 76.9,286.1 81.3,281.7 86.0,277.0 91.1,271.9 96.5,266.5 102.1,260.9 108.0,255.0 114.2,248.8 120.5,242.5 127.0,236.0 133.7,229.3 140.5,222.5 147.5,215.5 154.4,208.6 161.5,201.5 168.6,194.4 175.6,187.4 182.6,180.4 189.6,173.4 196.5,166.5 203.2,159.8 209.8,153.2 216.3,146.7 222.5,140.5 228.6,134.4 234.4,128.6 239.9,123.1 245.1,117.9 250.1,112.9 254.7,108.3 259.0,104.0 262.9,100.1 266.4,96.6 269.5,93.5 272.3,90.7 274.6,88.4 276.5,86.5 277.9,85.1 279.0,84.0 279.6,83.4 279.7,83.3 279.4,83.6 278.7,84.3 277.5,85.5 275.9,87.1 273.9,89.1 271.4,91.6 268.6,94.4 265.3,97.7 261.6,101.4 257.6,105.4 253.2,109.8 248.5,114.5 243.5,119.5 238.1,124.9 232.5,130.5 226.6,136.4 220.5,142.5 214.2,148.8 207.7,155.3 201.0,162.0 194.2,168.8 187.3,175.7 180.4,182.6 173.3,189.7 166.3,196.7 159.2,203.8 152.2,210.8 145.2,217.8 138.3,224.7 131.5,231.5 124.9,238.1 118.4,244.6 112.2,250.8 106.1,256.9 100.3,262.7 94.7,268.3 89.4,273.6 84.5,278.5 79.8,283.2 75.5,287.5 71.6,291.4 68.0,295.0 64.8,298.2 62.0,301.0 59.7,303.3 57.7,305.3 56.2,306.8 55.1,307.9 54.5,308.5 54.3,308.7 54.5,308.5 55.2,307.8 56.3,306.7 57.9,305.1 59.9,303.1 62.3,300.7 65.1,297.9 68.3,294.7 71.9,291.1 75.9,287.1 80.3,282.7 84.9,278.1 89.9,273.1 95.2,267.8 100.8,262.2 106.7,256.3 112.8,250.2 119.1,243.9 125.5,237.5 132.2,230.8 139.0,224.0 145.9,217.1 152.8,210.2 159.9,203.1 166.9,196.1 174.0,189.0 181.0,182.0 188.0,175.0 194.9,168.1 201.7,161.3 208.4,154.6 214.8,148.2 221.1,141.9 227.2,135.8 233.1,129.9 238.7,124.3 244.0,119.0 249.0,114.0 253.7,109.3 258.0,105.0 262.0,101.0 265.6,97.4 268.8,94.2 271.7,91.3 274.1,88.9 276.1,86.9 277.7,85.3 278.8,84.2 279.5,83.5 279.7,83.3 279.5,83.5 278.9,84.1 277.8,85.2 276.3,86.7 274.4,88.6 272.0,91.0 269.2,93.8 266.1,96.9 262.5,100.5 258.6,104.4 254.3,108.7 249.6,113.4 244.6,118.4 239.4,123.6 233.8,129.2 228.0,135.0 221.9,141.1 215.7,147.3 209.2,153.8 202.6,160.4 195.8,167.2 188.9,174.1 181.9,181.1 174.9,188.1 167.9,195.1 160.8,202.2 153.8,209.2 146.8,216.2 139.9,223.1 133.1,229.9 126.4,236.6 119.9,243.1 113.6,249.4 107.4,255.6 101.6,261.4 95.9,267.1 90.6,272.4 85.6,277.4 80.8,282.2 76.5,286.5 72.4,290.6 68.8,294.2 65.5,297.5 62.6,300.4 60.2,302.8 58.1,304.9 56.5,306.5 55.3,307.7 54.6,308.4 54.3,308.7 54.4,308.6 55.0,308.0 56.0,307.0 57.5,305.5 59.4,303.6 61.7,301.3 64.4,298.6 67.6,295.4 71.1,291.9 75.0,288.0 79.2,283.8 83.8,279.2 88.8,274.2 94.0,269.0 99.5,263.5 105.3,257.7 111.4,251.6 117.6,245.4 124.1,238.9 130.7,232.3 137.4,225.6 144.3,218.7 151.3,211.7 158.3,204.7 165.3,197.7 172.4,190.6 179.4,183.6 186.4,176.6 193.4,169.6 200.2,162.8 206.9,156.1 213.4,149.6 219.7,143.3 225.9,137.1 231.8,131.2 237.4,125.6 242.8,120.2 247.9,115.1 252.6,110.4 257.1,105.9 261.1,101.9 264.8,98.2 268.2,94.8 271.1,91.9 273.6,89.4 275.7,87.3 277.3,85.7 278.6,84.4 279.4,83.6 279.7,83.3 279.6,83.4 279.1,83.9 278.1,84.9 276.7,86.3 274.9,88.1 272.6,90.4 269.9,93.1 266.8,96.2 263.3,99.7 259.5,103.5 255.3,107.7 250.7,112.3 245.8,117.2 240.6,122.4 235.1,127.9 229.3,133.7 223.3,139.7 217.1,145.9 210.7,152.3 204.1,158.9 197.4,165.6 190.5,172.5 183.5,179.5 176.5,186.5 169.5,193.5 162.4,200.6 155.4,207.6 148.4,214.6 141.4,221.6 134.6,228.4 127.9,235.1 121.3,241.7 115.0,248.0 108.8,254.2 102.9,260.1 97.2,265.8 91.8,271.2 86.7,276.3 81.9,281.1 77.4,285.6 73.3,289.7 69.6,293.4 66.2,296.8 63.2,299.8 60.7,302.3 58.5,304.5 56.8,306.2 55.6,307.4 54.7,308.3 54.3,308.7 54.4,308.6 54.8,308.2 55.8,307.2 57.1,305.9 58.9,304.1 61.1,301.9 63.8,299.2 66.8,296.2 70.2,292.8 74.1,288.9 78.2,284.8 82.8,280.2 87.6,275.4 92.8,270.2 98.3,264.7 104.0,259.0 110.0,253.0 116.2,246.8 122.6,240.4 129.1,233.9 135.9,227.1 142.7,220.3 149.7,213.3 156.7,206.3 163.7,199.3 170.8,192.2 177.8,185.2 184.9,178.1 191.8,171.2 198.6,164.4 205.4,157.6 211.9,151.1 218.3,144.7 224.5,138.5 230.5,132.5 236.2,126.8 241.6,121.4 246.8,116.2 251.6,111.4 256.1,106.9 260.2,102.8 264.0,99.0 267.4,95.6 270.4,92.6 273.0,90.0 275.2,87.8 277.0,86.0 278.3,84.7 279.2,83.8 279.7,83.3 279.7,83.3 279.2,83.8 278.4,84.6 277.1,85.9 275.3,87.7 273.1,89.9 270.5,92.5 267.6,95.4 264.2,98.8 260.4,102.6 256.3,106.7 251.8,111.2 246.9,116.1 241.8,121.2 236.4,126.6 230.7,132.3 224.7,138.3 218.5,144.5 212.2,150.8 205.6,157.4 198.9,164.1 192.1,170.9 185.1,177.9 178.1,184.9 171.1,191.9 164.0,199.0 157.0,206.0 149.9,213.1 143.0,220.0 136.1,226.9 129.4,233.6 122.8,240.2 116.4,246.6 110.2,252.8 104.2,258.8 98.5,264.5 93.0,270.0 87.8,275.2 82.9,280.1 78.4,284.6 74.2,288.8 70.4,292.6 66.9,296.1 63.9,299.1 61.2,301.8 59.0,304.0 57.2,305.8 55.8,307.2 54.9,308.1 54.4,308.6 54.3,308.7 54.7,308.3 55.5,307.5 56.8,306.2 58.5,304.5 60.6,302.4 63.1,299.9 66.1,296.9 69.4,293.6 73.2,289.8 77.3,285.7 81.7,281.3 86.5,276.5 91.6,271.4 97.0,266.0 102.7,260.3 108.6,254.4 114.7,248.3 121.1,241.9 127.6,235.4 134.3,228.7 141.2,221.8 148.1,214.9 155.1,207.9 162.1,200.9 169.2,193.8 176.2,186.8 183.3,179.7 190.2,172.8 197.1,165.9 203.8,159.2 210.4,152.6 216.9,146.1 223.1,139.9 229.1,133.9 234.9,128.1 240.4,122.6 245.6,117.4 250.5,112.5 255.1,107.9 259.3,103.7 263.2,99.8 266.7,96.3 269.8,93.2 272.5,90.5 274.8,88.2 276.6,86.4 278.1,84.9 279.0,84.0 279.6,83.4 279.7,83.3 279.4,83.6 278.6,84.4 277.4,85.6 275.7,87.3 273.7,89.3 271.2,91.8 268.3,94.7 265.0,98.0 261.3,101.7 257.2,105.8 252.8,110.2 248.1,114.9 243.0,120.0 237.6,125.4 232.0,131.0 226.1,136.9 220.0,143.0 213.6,149.4 207.1,155.9 200.4,162.6 193.6,169.4 186.7,176.3 179.7,183.3 172.7,190.3 165.6,197.4 158.6,204.4 151.5,211.5 144.6,218.4 137.7,225.3 130.9,232.1 124.3,238.7 117.9,245.1 111.6,251.4 105.6,257.4 99.8,263.2 94.2,268.8 89.0,274.0 84.0,279.0 79.4,283.6 75.1,287.9 71.2,291.8 67.7,295.3 64.5,298.5 61.8,301.2 59.5,303.5 57.6,305.4 56.1,306.9 55.0,308.0 54.4,308.6 54.3,308.7 54.6,308.4 55.3,307.7 56.5,306.5 58.1,304.9 60.1,302.9 62.5,300.5 65.4,297.6 68.6,294.4 72.3,290.7 76.3,286.7 80.7,282.3 85.4,277.6 90.4,272.6 95.7,267.3 101.3,261.7 107.2,255.8 113.3,249.7 119.6,243.4 126.1,236.9 132.8,230.2 139.6,223.4 146.5,216.5 153.5,209.5 160.5,202.5 167.6,195.4 174.6,188.4 181.7,181.3 188.7,174.3 195.5,167.5 202.3,160.7 209.0,154.0 215.4,147.6 221.7,141.3 227.8,135.2 233.6,129.4 239.2,123.8 244.5,118.5 249.4,113.6 254.1,108.9 258.4,104.6 262.4,100.6 265.9,97.1 269.1,93.9 271.9,91.1 274.3,88.7 276.2,86.8 277.8,85.2 278.9,84.1 279.5,83.5 279.7,83.3 279.5,83.5 278.8,84.2 277.7,85.3 276.2,86.8 274.2,88.8 271.8,91.2 269.0,94.0 265.8,97.2 262.2,100.8 258.2,104.8 253.9,109.1 249.2,113.8 244.2,118.8 238.9,124.1 233.3,129.7 227.5,135.5 221.4,141.6 215.1,147.9 208.6,154.4 202.0,161.0 195.2,167.8 188.3,174.7 181.3,181.7 174.3,188.7 167.2,195.8 160.2,202.8 153.1,209.9 146.1,216.9 139.2,223.8 132.4,230.6 125.8,237.2 119.3,243.7 113.0,250.0 106.9,256.1 101.0,262.0 95.4,267.6 90.1,272.9 85.1,277.9 80.4,282.6 76.1,286.9 72.1,290.9 68.5,294.5 65.2,297.8 62.4,300.6 60.0,303.0 58.0,305.0 56.4,306.6 55.2,307.8 54.5,308.5 54.3,308.7 54.5,308.5 55.1,307.9 56.1,306.9 57.6,305.4 59.6,303.4 61.9,301.1 64.7,298.3 67.9,295.1 71.4,291.6 75.3,287.7 79.6,283.4 84.3,278.7 89.2,273.8 94.5,268.5 100.0,263.0 105.9,257.1 111.9,251.1 118.2,244.8 124.6,238.4 131.3,231.7 138.0,225.0 144.9,218.1 151.9,211.1 158.9,204.1 166.0,197.0 173.0,190.0 180.1,182.9 187.1,175.9 194.0,169.0 200.8,162.2 207.5,155.5 214.0,149.0 220.3,142.7 226.4,136.6 232.3,130.7 237.9,125.1 243.3,119.7 248.3,114.7 253.1,109.9 257.5,105.5 261.5,101.5 265.2,97.8 268.4,94.6 271.3,91.7 273.8,89.2 275.8,87.2 277.5,85.5 278.7,84.3 279.4,83.6 279.7,83.3 279.6,83.4 279.0,84.0 278.0,85.0 276.5,86.5 274.7,88.3 272.4,90.6 269.6,93.4 266.5,96.5 263.0,100.0 259.1,103.9 254.9,108.1 250.3,112.7 245.3,117.7 240.1,122.9 234.6,128.4 228.8,134.2 222.8,140.2 216.5,146.5 210.1,152.9 203.5,159.5 196.7,166.3 189.9,173.1 182.9,180.1 175.9,187.1 168.8,194.2 161.8,201.2 154.7,208.3 147.7,215.3 140.8,222.2 134.0,229.0 127.3,235.7 120.8,242.2 114.4,248.6 108.3,254.7 102.4,260.6 96.7,266.3 91.3,271.7 86.2,276.8 81.5,281.5 77.0,286.0 73.0,290.0 69.2,293.8 65.9,297.1 63.0,300.0 60.5,302.5 58.4,304.6 56.7,306.3 55.5,307.5 54.7,308.3 54.3,308.7 54.4,308.6 54.9,308.1 55.9,307.1 57.3,305.7 59.1,303.9 61.4,301.6 64.0,299.0 67.1,295.9 70.6,292.4 74.4,288.6 78.6,284.4 83.2,279.8 88.1,274.9 93.3,269.7 98.8,264.2 104.5,258.5 110.5,252.5 116.7,246.3 123.2,239.8 129.8,233.2 136.5,226.5 143.4,219.6 150.3,212.7 157.3,205.7 164.4,198.6 171.4,191.6 178.5,184.5 185.5,177.5 192.4,170.6 199.3,163.7 206.0,157.0 212.5,150.5 218.9,144.1 225.0,138.0 231.0,132.0 236.7,126.3 242.1,120.9 247.2,115.8 252.0,111.0 256.5,106.5 260.6,102.4 264.4,98.6 267.7,95.3 270.7,92.3 273.3,89.7 275.4,87.6 277.1,85.9 278.4,84.6 279.3,83.7 279.7,83.3 279.7,83.3 279.2,83.8 278.3,84.7 276.9,86.1 275.1,87.9 272.9,90.1 270.3,92.7 267.3,95.7 263.8,99.2 260.0,103.0 255.9,107.1 251.3,111.7 246.5,116.5 241.3,121.7 235.9,127.1 230.1,132.9 224.2,138.8 218.0,145.0 211.6,151.4 205.0,158.0 198.3,164.7 191.4,171.6 184.5,178.5 177.5,185.5 170.4,192.6 163.4,199.6 156.3,206.7 149.3,213.7 142.4,220.6 135.5,227.5 128.8,234.2 122.2,240.8 115.8,247.2 109.6,253.4 103.7,259.3 98.0,265.0 92.5,270.5 87.4,275.6 82.5,280.5 78.0,285.0 73.8,289.2 70.1,292.9 66.6,296.4 63.6,299.4 61.0,302.0 58.8,304.2 57.0,306.0 55.7,307.3 54.8,308.2 54.3,308.7 54.3,308.7 54.7,308.3 55.6,307.4 56.9,306.1 58.6,304.4 60.8,302.2 63.4,299.6 66.4,296.6 69.8,293.2 73.5,289.5 77.6,285.4 82.1,280.9 86.9,276.1 92.1,270.9 97.5,265.5 103.2,259.8 109.1,253.9 115.3,247.7 121.7,241.3 128.2,234.8 135.0,228.0 141.8,221.2 148.7,214.3 155.7,207.3 162.8,200.2 169.8,193.2 176.9,186.1 183.9,179.1 190.9,172.1 197.7,165.3 204.4,158.6 211.0,152.0 217.4,145.6 223.7,139.3 229.7,133.3 235.4,127.6 240.9,122.1 246.1,116.9 250.9,112.1 255.5,107.5 259.7,103.3 263.5,99.5 267.0,96.0 270.1,92.9 272.7,90.3 275.0,88.0 276.8,86.2 278.2,84.8 279.1,83.9 279.6,83.4 279.7,83.3 279.3,83.7 278.5,84.5 277.3,85.7 275.6,87.4 273.5,89.5 270.9,92.1 268.0,95.0 264.7,98.3 260.9,102.1 256.8,106.2 252.4,110.6 247.6,115.4 242.5,120.5 237.1,125.9 231.5,131.5 225.6,137.4 219.4,143.6 213.0,150.0 206.5,156.5 199.8,163.2 193.0,170.0 186.1,176.9 179.1,183.9 172.0,191.0 165.0,198.0 157.9,205.1 150.9,212.1 143.9,219.1 137.1,225.9 130.3,232.7 123.7,239.3 117.3,245.7 111.0,252.0 105.0,258.0 99.2,263.8 93.7,269.3 88.5,274.5 83.6,279.4 79.0,284.0 74.8,288.2 70.9,292.1 67.4,295.6 64.3,298.7 61.6,301.4 59.3,303.7 57.4,305.6 56.0,307.0 55.0,308.0 54.4,308.6 54.3,308.7 54.6,308.4 55.4,307.6 56.6,306.4 58.2,304.8 60.3,302.7 62.8,300.2 65.7,297.3 69.0,294.0 72.6,290.4 76.7,286.3 81.1,281.9 85.8,277.2 90.9,272.1 96.2,266.8 101.9,261.1 107.8,255.2 113.9,249.1 120.2,242.8 126.7,236.3 133.4,229.6 140.2,222.8 147.1,215.9 154.1,208.9 161.2,201.8 168.2,194.8 175.3,187.7 182.3,180.7 189.3,173.7 196.2,166.8 202.9,160.1 209.5,153.5 216.0,147.0 222.3,140.7 228.3,134.7 234.1,128.9 239.7,123.3 244.9,118.1 249.9,113.1 254.5,108.5 258.8,104.2 262.7,100.3 266.2,96.8 269.4,93.6 272.1,90.9 274.5,88.5 276.4,86.6 277.9,85.1 278.9,84.1 279.6,83.4 279.7,83.3 279.4,83.6 278.7,84.3 277.6,85.4 276.0,87.0 274.0,89.0 271.5,91.5 268.7,94.3 265.4,97.6 261.8,101.2 257.8,105.2 253.4,109.6 248.7,114.3 243.7,119.3 238.4,124.6 232.8,130.2 226.9,136.1 220.8,142.2 214.5,148.5 208.0,155.0 201.4,161.6 194.6,168.4 187.7,175.3 180.7,182.3 173.6,189.4 166.6,196.4 159.5,203.5 152.5,210.5 145.5,217.5 138.6,224.4 131.8,231.2 125.2,237.8 118.7,244.3 112.4,250.6 106.4,256.6 100.5,262.5 95.0,268.0 89.7,273.3 84.7,278.3 80.0,283.0 75.7,287.3 71.7,291.3 68.1,294.9 64.9,298.1 62.1,300.9 59.8,303.2 57.8,305.2 56.3,306.7 55.2,307.8 54.5,308.5 54.3,308.7 54.5,308.5 55.2,307.8 56.3,306.7 57.8,305.2 59.8,303.2 62.2,300.8 65.0,298.0 68.2,294.8 71.8,291.2 75.7,287.3 80.0,283.0 84.7,278.3 89.7,273.3 95.0,268.0 100.6,262.4 106.4,256.6 112.5,250.5 118.8,244.2 125.2,237.8 131.9,231.1 138.7,224.3 145.6,217.4 152.5,210.5 159.6,203.4 166.6,196.4 173.7,189.3 180.7,182.3 187.7,175.3 194.6,168.4 201.4,161.6 208.1,154.9 214.6,148.4 220.9,142.1 227.0,136.0 232.8,130.2 238.4,124.6 243.7,119.3 248.8,114.2 253.5,109.5 257.8,105.2 261.8,101.2 265.5,97.5 268.7,94.3 271.6,91.4 274.0,89.0 276.0,87.0 277.6,85.4 278.7,84.3 279.5,83.5 279.7,83.3 279.5,83.5 278.9,84.1 277.9,85.1 276.4,86.6 274.5,88.5 272.1,90.9 269.4,93.6 266.2,96.8 262.7,100.3 258.7,104.3 254.5,108.5 249.8,113.2 244.9,118.1 239.6,123.4 234.1,128.9 228.3,134.7 222.2,140.8 216.0,147.0 209.5,153.5 202.9,160.1 196.1,166.9 189.2,173.8 182.3,180.7 175.2,187.8 168.2,194.8 161.1,201.9 154.1,208.9 147.1,215.9 140.2,222.8 133.4,229.6 126.7,236.3 120.2,242.8 113.8,249.2 107.7,255.3 101.8,261.2 96.2,266.8 90.8,272.2 85.8,277.2 81.0,282.0 76.6,286.4 72.6,290.4 68.9,294.1 65.6,297.4 62.7,300.3 60.3,302.7 58.2,304.8 56.6,306.4 55.4,307.6 54.6,308.4 54.3,308.7 54.4,308.6 55.0,308.0 56.0,307.0 57.4,305.6 59.3,303.7 61.6,301.4 64.3,298.7 67.4,295.6 70.9,292.1 74.8,288.2 79.0,284.0 83.6,279.4 88.5,274.5 93.8,269.2 99.3,263.7 105.1,257.9 111.1,251.9 117.3,245.7 123.8,239.2 130.4,232.6 137.1,225.9 144.0,219.0 150.9,212.1 158.0,205.0 165.0,198.0 172.1,190.9 179.1,183.9 186.1,176.9 193.0,170.0 199.9,163.1 206.6,156.4 213.1,149.9 219.4,143.6 225.6,137.4 231.5,131.5 237.2,125.8 242.6,120.4 247.7,115.3 252.4,110.6 256.9,106.1 261.0,102.0 264.7,98.3 268.0,95.0 270.9,92.1 273.5,89.5 275.6,87.4 277.3,85.7 278.5,84.5 279.3,83.7 279.7,83.3 279.6,83.4 279.1,83.9 278.2,84.8 276.8,86.2 274.9,88.1 272.7,90.3 270.0,93.0 267.0,96.0 263.5,99.5 259.7,103.3 255.5,107.5 250.9,112.1 246.0,117.0 240.8,122.2 235.4,127.6 229.6,133.4 223.6,139.4 217.4,145.6 211.0,152.0 204.4,158.6 197.7,165.3 190.8,172.2 183.9,179.1 176.8,186.2 169.8,193.2 162.7,200.3 155.7,207.3 148.7,214.3 141.7,221.3 134.9,228.1 128.2,234.8 121.6,241.4 115.3,247.7 109.1,253.9 103.1,259.9 97.5,265.5 92.0,271.0 86.9,276.1 82.1,280.9 77.6,285.4 73.5,289.5 69.7,293.3 66.4,296.6 63.4,299.6 60.8,302.2 58.6,304.4 56.9,306.1 55.6,307.4 54.7,308.3 54.3,308.7 54.3,308.7 54.8,308.2 55.7,307.3 57.1,305.9 58.8,304.2 61.0,302.0 63.6,299.4 66.7,296.3 70.1,292.9 73.9,289.1 78.0,285.0 82.6,280.4 87.4,275.6 92.6,270.4 98.0,265.0 103.7,259.3 109.7,253.3 115.9,247.1 122.3,240.7 128.8,234.2 135.6,227.4 142.4,220.6 149.4,213.6 156.4,206.6 163.4,199.6 170.5,192.5 177.5,185.5 184.5,178.5 191.5,171.5 198.3,164.7 205.0,158.0 211.6,151.4 218.0,145.0 224.2,138.8 230.2,132.8 235.9,127.1 241.4,121.6 246.5,116.5 251.4,111.6 255.9,107.1 260.1,102.9 263.9,99.1 267.3,95.7 270.3,92.7 272.9,90.1 275.1,87.9 276.9,86.1 278.3,84.7 279.2,83.8 279.7,83.3 279.7,83.3 279.3,83.7 278.4,84.6 277.1,85.9 275.4,87.6 273.2,89.8 270.7,92.3 267.7,95.3 264.3,98.7 260.6,102.4 256.5,106.5 252.0,111.0 247.2,115.8 242.1,120.9 236.6,126.4 230.9,132.1 225.0,138.0 218.8,144.2 212.5,150.5 205.9,157.1 199.2,163.8 192.4,170.6 185.4,177.6 178.4,184.6 171.4,191.6 164.3,198.7 157.3,205.7 150.3,212.7 143.3,219.7 136.4,226.6 129.7,233.3 123.1,239.9 116.7,246.3 110.5,252.5 104.5,258.5 98.7,264.3 93.2,269.8 88.0,275.0 83.2,279.8 78.6,284.4 74.4,288.6 70.5,292.5 67.1,295.9 64.0,299.0 61.3,301.7 59.1,303.9 57.3,305.7 55.9,307.1 54.9,308.1 54.4,308.6 54.3,308.7 54.7,308.3 55.5,307.5 56.7,306.3 58.4,304.6 60.5,302.5 63.0,300.0 65.9,297.1 69.3,293.7 73.0,290.0 77.1,285.9 81.5,281.5 86.3,276.7 91.4,271.6 96.7,266.3 102.4,260.6 108.3,254.7 114.5,248.5 120.8,242.2 127.3,235.7 134.0,229.0 140.8,222.2 147.8,215.2 154.8,208.2 161.8,201.2 168.9,194.1 175.9,187.1 183.0,180.0 189.9,173.1 196.8,166.2 203.5,159.5 210.1,152.9 216.6,146.4 222.8,140.2 228.9,134.1 234.6,128.4 240.2,122.8 245.4,117.6 250.3,112.7 254.9,108.1 259.1,103.9 263.0,100.0 266.5,96.5 269.7,93.3 272.4,90.6 274.7,88.3 276.6,86.4 278.0,85.0 279.0,84.0 279.6,83.4 279.7,83.3 279.4,83.6 278.6,84.4 277.5,85.5 275.8,87.2 273.8,89.2 271.3,91.7 268.4,94.6 265.1,97.9 261.5,101.5 257.4,105.6 253.0,110.0 248.3,114.7 243.2,119.8 237.9,125.1 232.3,130.7 226.4,136.6 220.3,142.7 213.9,149.1 207.4,155.6 200.7,162.3 193.9,169.1 187.0,176.0 180.0,183.0 173.0,190.0 165.9,197.1 158.9,204.1 151.8,211.2 144.9,218.1 138.0,225.0 131.2,231.8 124.6,238.4 118.1,244.9 111.9,251.1 105.8,257.2 100.0,263.0 94.5,268.5 89.2,273.8 84.2,278.8 79.6,283.4 75.3,287.7 71.4,291.6 67.8,295.2 64.7,298.3 61.9,301.1 59.6,303.4 57.6,305.4 56.1,306.9 55.1,307.9 54.5,308.5 54.3,308.7 54.5,308.5 55.2,307.8 56.4,306.6 58.0,305.0 60.0,303.0 62.4,300.6 65.2,297.8 68.5,294.5 72.1,290.9 76.1,286.9 80.5,282.5 85.2,277.8 90.2,272.8 95.5,267.5 101.1,261.9 106.9,256.1 113.0,250.0 119.3,243.7 125.8,237.2 132.5,230.5 139.3,223.7 146.2,216.8 153.2,209.8 160.2,202.8 167.3,195.7 174.3,188.7 181.4,181.6 188.3,174.7 195.2,167.8 202.0,161.0 208.7,154.3 215.1,147.9 221.4,141.6 227.5,135.5 233.3,129.7 238.9,124.1 244.2,118.8 249.2,113.8 253.9,109.1 258.2,104.8 262.2,100.8 265.8,97.2 269.0,94.0 271.8,91.2 274.2,88.8 276.2,86.8 277.7,85.3 278.8,84.2 279.5,83.5 279.7,83.3 279.5,83.5 278.9,84.1 277.8,85.2 276.2,86.8 274.3,88.7 271.9,91.1 269.1,93.9 265.9,97.1 262.3,100.7 258.4,104.6 254.1,108.9 249.4,113.6 244.4,118.6 239.1,123.9 233.6,129.4 227.7,135.3 221.7,141.3 215.4,147.6 208.9,154.1 202.3,160.7 195.5,167.5 188.6,174.4 181.6,181.4" fill="none" stroke="#3b82f6" stroke-width="0.6" stroke-opacity="0.6"/>
  <text x="41" y="196" text-anchor="end" font-size="8" fill="#6b7280">R</text>
  <text x="167" y="328" text-anchor="middle" font-size="8" fill="#6b7280">L</text>
  <text x="167" y="71" text-anchor="middle" font-size="9" fill="#6b7280" font-weight="600">width=0</text>
  <line x1="297" y1="76" x2="297" y2="316" stroke="#d1d5db" stroke-width="1"/>
  <line x1="297" y1="316" x2="537" y2="316" stroke="#d1d5db" stroke-width="1"/>
  <line x1="297" y1="196" x2="537" y2="196" stroke="#e5e7eb" stroke-width="0.5"/>
  <line x1="417" y1="76" x2="417" y2="316" stroke="#e5e7eb" stroke-width="0.5"/>
  <line x1="297" y1="316" x2="537" y2="76" stroke="#d1d5db" stroke-width="0.5" stroke-dasharray="3 2"/>
  <polyline clip-path="url(#u30)" points="417.0,118.7 424.5,113.1 432.0,107.8 439.4,102.9 446.8,98.3 454.0,94.2 461.1,90.4 468.0,87.0 474.7,84.1 481.2,81.6 487.4,79.6 493.3,78.0 499.0,76.8 504.3,76.2 509.3,76.0 513.9,76.3 518.2,77.0 522.0,78.3 525.4,80.0 528.5,82.1 531.0,84.7 533.1,87.7 534.8,91.2 536.0,95.0 536.7,99.3 537.0,103.9 536.8,108.9 536.1,114.3 535.0,120.0 533.4,125.9 531.3,132.2 528.8,138.7 525.8,145.4 522.4,152.3 518.6,159.4 514.4,166.6 509.9,174.0 504.9,181.4 499.6,188.9 494.0,196.4 488.1,203.9 481.9,211.4 475.4,218.8 468.8,226.2 461.9,233.4 454.8,240.4 447.6,247.3 440.3,254.0 432.9,260.5 425.4,266.7 417.9,272.7 410.3,278.3 402.8,283.6 395.4,288.6 388.1,293.2 380.8,297.4 373.7,301.2 366.8,304.6 360.1,307.6 353.6,310.1 347.3,312.2 341.3,313.9 335.6,315.1 330.3,315.8 325.2,316.0 320.6,315.8 316.3,315.1 312.4,313.9 308.9,312.3 305.9,310.2 303.2,307.6 301.1,304.6 299.4,301.2 298.1,297.4 297.3,293.2 297.0,288.6 297.2,283.6 297.8,278.3 298.9,272.7 300.4,266.8 302.5,260.6 304.9,254.1 307.8,247.4 311.2,240.5 314.9,233.4 319.1,226.2 323.6,218.9 328.5,211.5 333.8,204.0 339.3,196.5 345.2,188.9 351.4,181.5 357.8,174.0 364.5,166.7 371.3,159.4 378.4,152.3 385.6,145.4 392.9,138.7 400.3,132.2 407.8,126.0 415.3,120.0 422.8,114.3 430.3,109.0 437.8,104.0 445.1,99.3 452.4,95.1 459.5,91.2 466.4,87.7 473.2,84.7 479.7,82.1 486.0,80.0 492.0,78.3 497.7,77.1 503.1,76.3 508.2,76.0 512.9,76.2 517.2,76.8 521.2,78.0 524.7,79.5 527.8,81.6 530.5,84.1 532.7,87.0 534.5,90.4 535.8,94.1 536.6,98.3 537.0,102.9 536.9,107.8 536.3,113.0 535.3,118.6 533.8,124.5 531.8,130.7 529.4,137.2 526.5,143.8 523.2,150.7 519.5,157.8 515.4,165.0 510.9,172.3 506.1,179.7 500.8,187.2 495.3,194.7 489.5,202.2 483.3,209.7 476.9,217.1 470.3,224.5 463.5,231.7 456.4,238.9 449.3,245.8 441.9,252.5 434.5,259.1 427.1,265.3 419.6,271.3 412.0,277.0 404.5,282.4 397.1,287.5 389.7,292.2 382.4,296.5 375.3,300.4 368.3,303.9 361.6,307.0 355.0,309.6 348.7,311.8 342.6,313.5 336.9,314.8 331.5,315.6 326.4,316.0 321.6,315.9 317.2,315.3 313.2,314.2 309.7,312.7 306.5,310.7 303.8,308.2 301.5,305.4 299.7,302.0 298.4,298.3 297.5,294.2 297.0,289.7 297.1,284.8 297.6,279.6 298.6,274.0 300.0,268.1 302.0,262.0 304.3,255.6 307.1,248.9 310.4,242.1 314.0,235.1 318.1,227.9 322.5,220.6 327.4,213.2 332.5,205.7 338.0,198.2 343.9,190.6 350.0,183.1 356.3,175.7 362.9,168.3 369.8,161.1 376.8,153.9 383.9,147.0 391.2,140.2 398.6,133.7 406.1,127.4 413.6,121.3 421.1,115.6 428.6,110.2 436.1,105.1 443.5,100.4 450.7,96.0 457.9,92.1 464.9,88.5 471.7,85.4 478.3,82.7 484.6,80.4 490.7,78.6 496.5,77.3 501.9,76.4 507.1,76.0 511.9,76.1 516.3,76.6 520.3,77.7 523.9,79.1 527.1,81.1 529.9,83.5 532.2,86.3 534.1,89.6 535.5,93.2 536.5,97.3 536.9,101.8 536.9,106.6 536.5,111.8 535.5,117.3 534.1,123.2 532.3,129.3 530.0,135.7 527.2,142.3 524.0,149.1 520.4,156.1 516.4,163.3 512.0,170.6 507.2,178.0 502.1,185.5 496.6,193.0 490.8,200.5 484.7,208.0 478.4,215.5 471.8,222.8 465.0,230.1 458.0,237.3 450.9,244.2 443.6,251.0 436.2,257.6 428.8,263.9 421.3,270.0 413.8,275.8 406.2,281.2 398.8,286.3 391.4,291.1 384.1,295.5 376.9,299.5 369.9,303.1 363.1,306.3 356.5,309.0 350.1,311.3 344.0,313.2 338.2,314.6 332.7,315.5 327.5,316.0 322.6,315.9 318.2,315.4 314.1,314.5 310.5,313.1 307.2,311.2 304.4,308.8 302.0,306.1 300.1,302.8 298.6,299.2 297.6,295.2 297.1,290.7 297.0,285.9 297.4,280.8 298.3,275.3 299.7,269.5 301.5,263.4 303.7,257.1 306.5,250.5 309.6,243.7 313.2,236.7 317.1,229.5 321.5,222.2 326.2,214.8 331.3,207.4 336.8,199.9 342.5,192.4 348.6,184.8 354.9,177.4 361.4,170.0 368.2,162.7 375.2,155.6 382.3,148.6 389.5,141.7 396.9,135.1 404.4,128.8 411.9,122.7 419.4,116.9 426.9,111.4 434.4,106.2 441.8,101.4 449.1,97.0 456.3,92.9 463.3,89.3 470.1,86.0 476.8,83.2 483.2,80.9 489.3,79.0 495.2,77.6 500.7,76.6 505.9,76.1 510.8,76.0 515.3,76.5 519.4,77.4 523.2,78.8 526.5,80.6 529.3,82.9 531.7,85.6 533.7,88.8 535.2,92.4 536.3,96.4 536.9,100.7 537.0,105.5 536.6,110.6 535.8,116.1 534.5,121.8 532.7,127.9 530.5,134.2 527.9,140.8 524.8,147.6 521.3,154.5 517.3,161.7 513.0,168.9 508.3,176.3 503.3,183.8 497.9,191.3 492.2,198.8 486.1,206.3 479.9,213.8 473.3,221.2 466.6,228.5 459.6,235.6 452.5,242.7 445.3,249.5 437.9,256.1 430.5,262.5 423.0,268.6 415.5,274.5 407.9,280.0 400.5,285.2 393.1,290.1 385.7,294.5 378.5,298.6 371.5,302.3 364.6,305.6 358.0,308.5 351.5,310.9 345.4,312.8 339.5,314.3 333.9,315.3 328.6,315.9 323.7,316.0 319.2,315.6 315.0,314.7 311.2,313.4 307.9,311.6 305.0,309.4 302.5,306.7 300.5,303.6 298.9,300.1 297.8,296.1 297.2,291.8 297.0,287.1 297.3,282.0 298.1,276.6 299.3,270.8 301.0,264.8 303.2,258.5 305.8,252.0 308.8,245.2 312.3,238.3 316.2,231.2 320.5,223.9 325.1,216.5 330.1,209.1 335.5,201.6 341.2,194.1 347.2,186.6 353.4,179.1 359.9,171.7 366.6,164.4 373.6,157.2 380.7,150.1 387.9,143.3 395.2,136.6 402.7,130.2 410.2,124.0 417.7,118.2 425.2,112.6 432.7,107.4 440.1,102.5 447.4,97.9 454.7,93.8 461.7,90.1 468.6,86.7 475.3,83.8 481.7,81.4 487.9,79.4 493.9,77.8 499.5,76.8 504.8,76.2 509.7,76.0 514.3,76.3 518.5,77.1 522.3,78.4 525.7,80.1 528.7,82.3 531.2,85.0 533.3,88.0 534.9,91.5 536.1,95.4 536.8,99.7 537.0,104.4 536.7,109.4 536.0,114.8 534.8,120.5 533.2,126.5 531.1,132.7 528.5,139.3 525.5,146.0 522.1,152.9 518.3,160.0 514.0,167.3 509.4,174.6 504.4,182.1 499.1,189.6 493.5,197.1 487.5,204.6 481.3,212.1 474.8,219.5 468.1,226.8 461.2,234.0 454.2,241.1 446.9,248.0 439.6,254.6 432.2,261.1 424.7,267.3 417.2,273.2 409.7,278.8 402.2,284.1 394.7,289.0 387.4,293.6 380.2,297.7 373.1,301.5 366.2,304.9 359.5,307.8 353.0,310.4 346.7,312.4 340.8,314.0 335.1,315.1 329.8,315.8 324.8,316.0 320.2,315.7 315.9,315.0 312.1,313.8 308.6,312.1 305.6,310.0 303.0,307.4 300.9,304.4 299.2,300.9 298.0,297.1 297.3,292.8 297.0,288.2 297.2,283.2 297.9,277.8 299.0,272.2 300.6,266.2 302.7,260.0 305.2,253.5 308.1,246.8 311.5,239.9 315.3,232.8 319.5,225.6 324.0,218.2 329.0,210.8 334.3,203.3 339.9,195.8 345.8,188.3 352.0,180.8 358.4,173.3 365.1,166.0 372.0,158.8 379.0,151.7 386.2,144.8 393.6,138.1 401.0,131.6 408.5,125.4 416.0,119.5 423.5,113.8 431.0,108.5 438.4,103.5 445.8,98.9 453.0,94.7 460.1,90.9 467.1,87.5 473.8,84.5 480.3,81.9 486.6,79.8 492.6,78.2 498.2,77.0 503.6,76.2 508.7,76.0 513.3,76.2 517.6,76.9 521.5,78.1 525.0,79.7 528.1,81.8 530.7,84.3 532.9,87.3 534.6,90.7 535.9,94.5 536.7,98.7 537.0,103.3 536.8,108.2 536.2,113.5 535.1,119.2 533.6,125.1 531.6,131.3 529.1,137.8 526.2,144.4 522.9,151.3 519.2,158.4 515.0,165.6 510.5,172.9 505.6,180.4 500.4,187.9 494.8,195.4 488.9,202.9 482.8,210.4 476.3,217.8 469.7,225.2 462.8,232.4 455.8,239.5 448.6,246.4 441.3,253.1 433.9,259.6 426.4,265.9 418.9,271.9 411.4,277.5 403.9,282.9 396.4,287.9 389.0,292.6 381.8,296.8 374.7,300.7 367.7,304.2 361.0,307.2 354.4,309.8 348.1,312.0 342.1,313.7 336.4,314.9 331.0,315.7 325.9,316.0 321.2,315.8 316.9,315.2 312.9,314.1 309.4,312.5 306.3,310.5 303.6,308.0 301.3,305.1 299.6,301.7 298.3,298.0 297.4,293.8 297.0,289.3 297.1,284.3 297.7,279.1 298.7,273.5 300.2,267.6 302.2,261.4 304.6,255.0 307.4,248.3 310.7,241.5 314.4,234.4 318.5,227.2 323.0,219.9 327.8,212.5 333.0,205.0 338.6,197.5 344.4,190.0 350.5,182.5 356.9,175.0 363.6,167.7 370.4,160.4 377.4,153.3 384.6,146.4 391.9,139.6 399.3,133.1 406.8,126.8 414.3,120.8 421.8,115.1 429.3,109.7 436.7,104.6 444.1,100.0 451.4,95.6 458.5,91.7 465.5,88.2 472.3,85.1 478.8,82.5 485.2,80.2 491.2,78.5 497.0,77.2 502.4,76.4 507.5,76.0 512.3,76.1 516.7,76.7 520.7,77.8 524.2,79.3 527.4,81.3 530.1,83.7 532.4,86.6 534.3,89.9 535.6,93.6 536.5,97.7 537.0,102.2 536.9,107.1 536.4,112.3 535.4,117.9 534.0,123.7 532.1,129.9 529.7,136.3 526.9,142.9 523.7,149.8 520.1,156.8 516.0,164.0 511.6,171.3 506.7,178.7 501.6,186.1 496.1,193.7 490.3,201.2 484.2,208.7 477.8,216.1 471.2,223.5 464.4,230.8 457.4,237.9 450.2,244.9 443.0,251.6 435.6,258.2 428.1,264.5 420.6,270.5 413.1,276.3 405.6,281.7 398.1,286.8 390.7,291.5 383.4,295.9 376.3,299.9 369.3,303.4 362.5,306.6 355.9,309.3 349.5,311.5 343.5,313.3 337.7,314.7 332.2,315.6 327.0,316.0 322.2,315.9 317.8,315.4 313.8,314.4 310.1,312.9 306.9,311.0 304.1,308.6 301.8,305.8 299.9,302.5 298.5,298.9 297.6,294.8 297.1,290.3 297.1,285.5 297.5,280.3 298.4,274.8 299.8,269.0 301.7,262.8 304.0,256.5 306.7,249.9 309.9,243.0 313.5,236.0 317.5,228.9 321.9,221.6 326.7,214.2 331.8,206.7 337.3,199.2 343.1,191.7 349.1,184.2 355.5,176.7 362.0,169.3 368.8,162.1 375.8,154.9 382.9,147.9 390.2,141.1 397.6,134.6 405.1,128.2 412.6,122.1 420.1,116.4 427.6,110.9 435.1,105.8 442.5,101.0 449.7,96.6 456.9,92.6 463.9,89.0 470.8,85.8 477.4,83.0 483.7,80.7 489.9,78.8 495.7,77.4 501.2,76.5 506.4,76.1 511.2,76.1 515.7,76.5 519.8,77.5 523.5,78.9 526.7,80.8 529.6,83.1 531.9,85.9 533.9,89.1 535.4,92.7 536.4,96.7 536.9,101.2 537.0,105.9 536.6,111.1 535.7,116.6 534.4,122.4 532.6,128.4 530.3,134.8 527.6,141.4 524.5,148.2 520.9,155.2 517.0,162.3 512.6,169.6 507.9,177.0 502.8,184.4 497.4,192.0 491.6,199.5 485.6,207.0 479.3,214.4 472.7,221.8 466.0,229.1 459.0,236.3 451.9,243.3 444.6,250.1 437.2,256.7 429.8,263.1 422.3,269.2 414.8,275.0 407.3,280.5 399.8,285.7 392.4,290.5 385.1,294.9 377.9,299.0 370.9,302.7 364.0,305.9 357.4,308.7 351.0,311.1 344.8,313.0 339.0,314.4 333.4,315.4 328.2,315.9 323.3,316.0 318.8,315.5 314.6,314.6 310.9,313.3 307.6,311.5 304.7,309.2 302.3,306.5 300.3,303.3 298.8,299.7 297.7,295.7 297.1,291.4 297.0,286.6 297.4,281.5 298.2,276.1 299.5,270.3 301.2,264.3 303.4,257.9 306.1,251.4 309.1,244.6 312.7,237.6 316.6,230.5 320.9,223.2 325.6,215.9 330.6,208.4 336.0,200.9 341.7,193.4 347.7,185.9 354.0,178.4 360.5,171.0 367.3,163.7 374.2,156.5 381.3,149.5 388.6,142.7 395.9,136.0 403.4,129.6 410.8,123.5 418.4,117.7 425.9,112.1 433.4,106.9 440.8,102.0 448.1,97.5 455.3,93.4 462.3,89.7 469.2,86.5 475.9,83.6 482.3,81.2 488.5,79.2 494.4,77.7 500.0,76.7 505.3,76.1 510.2,76.0 514.7,76.4 518.9,77.2 522.7,78.5 526.0,80.3 529.0,82.5 531.4,85.2 533.5,88.3 535.1,91.8 536.2,95.8 536.8,100.1 537.0,104.8 536.7,109.9 535.9,115.3 534.7,121.0 533.0,127.0 530.9,133.3 528.3,139.9 525.2,146.6 521.8,153.6 517.9,160.7 513.6,167.9 509.0,175.3 504.0,182.7 498.6,190.2 492.9,197.8 487.0,205.3 480.7,212.8 474.2,220.2 467.5,227.5 460.6,234.7 453.5,241.7 446.3,248.6 438.9,255.2 431.5,261.7 424.0,267.8 416.5,273.7 409.0,279.3 401.5,284.5 394.1,289.4 386.7,294.0 379.5,298.1 372.4,301.9 365.6,305.2 358.9,308.1 352.4,310.6 346.2,312.6 340.3,314.1 334.6,315.2 329.3,315.8 324.4,316.0 319.8,315.7 315.6,314.9 311.7,313.6 308.3,311.9 305.4,309.7 302.8,307.1 300.7,304.1 299.1,300.6 297.9,296.7 297.2,292.4 297.0,287.7 297.2,282.7 298.0,277.3 299.1,271.6 300.8,265.7 302.9,259.4 305.4,252.9 308.4,246.2 311.8,239.2 315.6,232.1 319.9,224.9 324.5,217.5 329.4,210.1 334.8,202.6 340.4,195.1 346.3,187.6 352.5,180.1 359.0,172.7 365.7,165.3 372.6,158.1 379.7,151.1 386.9,144.2 394.2,137.5 401.7,131.1 409.1,124.9 416.7,119.0 424.2,113.3 431.7,108.1 439.1,103.1 446.4,98.5 453.7,94.3 460.8,90.5 467.7,87.2 474.4,84.2 480.9,81.7 487.1,79.6 493.1,78.0 498.7,76.9 504.1,76.2 509.1,76.0 513.7,76.3 518.0,77.0 521.9,78.2 525.3,79.9 528.3,82.0 530.9,84.6 533.1,87.6 534.7,91.0 536.0,94.9 536.7,99.1 537.0,103.7 536.8,108.7 536.2,114.0 535.0,119.7 533.4,125.6 531.4,131.9 528.9,138.4 526.0,145.1 522.6,152.0 518.8,159.0 514.6,166.3 510.1,173.6 505.1,181.0 499.9,188.5 494.3,196.1 488.4,203.6 482.2,211.1 475.7,218.5 469.1,225.8 462.2,233.1 455.1,240.1 447.9,247.0 440.6,253.7 433.2,260.2 425.7,266.4 418.2,272.4 410.7,278.0 403.2,283.4 395.7,288.3 388.4,293.0 381.1,297.2 374.0,301.0 367.1,304.5 360.4,307.5 353.8,310.0 347.6,312.2 341.6,313.8 335.9,315.0 330.5,315.7 325.5,316.0 320.8,315.8 316.5,315.1 312.6,314.0 309.1,312.3 306.0,310.3 303.4,307.7 301.2,304.8 299.4,301.4 298.2,297.6 297.3,293.4 297.0,288.8 297.1,283.9 297.7,278.6 298.8,273.0 300.4,267.0 302.4,260.8 304.8,254.4 307.7,247.7 311.0,240.8 314.7,233.8 318.9,226.6 323.4,219.2 328.3,211.8 333.5,204.3 339.1,196.8 345.0,189.3 351.1,181.8 357.5,174.4 364.2,167.0 371.0,159.8 378.1,152.7 385.2,145.7 392.6,139.0 400.0,132.5 407.4,126.3 414.9,120.3 422.5,114.6 430.0,109.2 437.4,104.2 444.8,99.5 452.0,95.3 459.2,91.4 466.1,87.9 472.9,84.8 479.4,82.2 485.7,80.1 491.8,78.4 497.5,77.1 502.9,76.3 508.0,76.0 512.7,76.2 517.1,76.8 521.0,77.9 524.6,79.5 527.7,81.5 530.4,83.9 532.6,86.9 534.4,90.2 535.7,93.9 536.6,98.1 537.0,102.6 536.9,107.5 536.3,112.8 535.3,118.4 533.8,124.3 531.9,130.4 529.5,136.9 526.7,143.5 523.4,150.4 519.7,157.4 515.6,164.6 511.1,171.9 506.3,179.4 501.1,186.8 495.6,194.3 489.7,201.9 483.6,209.4 477.2,216.8 470.6,224.2 463.8,231.4 456.8,238.5 449.6,245.5 442.3,252.2 434.9,258.8 427.4,265.0 419.9,271.1 412.4,276.8 404.9,282.2 397.4,287.2 390.0,291.9 382.8,296.3 375.6,300.2 368.7,303.7 361.9,306.8 355.3,309.5 349.0,311.7 342.9,313.5 337.2,314.8 331.7,315.6 326.6,316.0 321.8,315.9 317.4,315.3 313.4,314.3 309.8,312.7 306.7,310.8 303.9,308.4 301.6,305.5 299.8,302.2 298.4,298.5 297.5,294.4 297.0,289.9 297.1,285.0 297.6,279.8 298.5,274.3 300.0,268.4 301.9,262.3 304.2,255.9 307.0,249.2 310.2,242.4 313.9,235.4 317.9,228.2 322.3,220.9 327.1,213.5 332.3,206.0 337.8,198.5 343.6,191.0 349.7,183.5 356.0,176.0 362.6,168.7 369.4,161.4 376.4,154.3 383.6,147.3 390.9,140.5 398.3,134.0 405.7,127.7 413.2,121.6 420.8,115.9 428.3,110.4 435.7,105.3 443.1,100.6 450.4,96.2 457.6,92.2 464.6,88.7 471.4,85.5 478.0,82.8 484.3,80.5 490.4,78.7 496.2,77.3 501.7,76.5 506.9,76.0 511.7,76.1 516.1,76.6 520.1,77.6 523.8,79.1 527.0,81.0 529.8,83.3 532.1,86.2 534.0,89.4 535.5,93.1 536.4,97.1 536.9,101.6 537.0,106.4 536.5,111.6 535.6,117.1 534.2,122.9 532.4,129.0 530.1,135.4 527.3,142.0 524.2,148.8 520.6,155.8 516.6,163.0 512.2,170.3 507.4,177.7 502.3,185.1 496.8,192.6 491.1,200.2 485.0,207.7 478.7,215.1 472.1,222.5 465.3,229.8 458.4,236.9 451.2,243.9 444.0,250.7 436.6,257.3 429.1,263.6 421.6,269.7 414.1,275.5 406.6,281.0 399.1,286.1 391.7,290.9 384.4,295.3 377.2,299.3 370.2,303.0 363.4,306.2 356.8,308.9 350.4,311.2 344.3,313.1 338.4,314.5 332.9,315.5 327.7,315.9 322.9,315.9 318.4,315.5 314.3,314.5 310.6,313.1 307.3,311.3 304.5,308.9 302.1,306.2 300.2,303.0 298.7,299.4 297.7,295.4 297.1,290.9 297.0,286.2 297.4,281.0 298.3,275.6 299.6,269.8 301.4,263.7 303.6,257.4 306.3,250.8 309.4,244.0 313.0,237.0 316.9,229.8 321.3,222.6 326.0,215.2 331.1,207.7 336.5,200.2 342.2,192.7 348.3,185.2 354.6,177.7 361.1,170.3 367.9,163.0 374.8,155.9 382.0,148.9 389.2,142.0 396.6,135.4 404.0,129.1 411.5,123.0 419.1,117.1 426.6,111.6 434.0,106.4 441.4,101.6 448.8,97.2 455.9,93.1 463.0,89.4 469.8,86.2 476.5,83.4 482.9,81.0 489.0,79.1 494.9,77.6 500.5,76.6 505.7,76.1 510.6,76.0 515.1,76.5 519.3,77.3 523.0,78.7 526.3,80.5 529.2,82.8 531.6,85.5 533.6,88.6 535.2,92.2 536.3,96.2 536.9,100.5 537.0,105.3 536.7,110.4 535.8,115.8 534.6,121.6 532.8,127.6 530.6,133.9 528.0,140.5 524.9,147.2 521.4,154.2 517.5,161.3 513.2,168.6 508.5,176.0 503.5,183.4 498.1,190.9 492.4,198.4 486.4,206.0 480.2,213.4 473.6,220.8 466.9,228.1 460.0,235.3 452.9,242.3 445.6,249.2 438.3,255.8 430.8,262.2 423.3,268.4 415.8,274.2 408.3,279.8 400.8,285.0 393.4,289.9 386.1,294.4 378.9,298.5 371.8,302.2 364.9,305.5 358.3,308.3 351.8,310.8 345.6,312.7 339.7,314.2 334.1,315.3 328.9,315.9 323.9,316.0 319.4,315.6 315.2,314.8 311.4,313.5 308.0,311.7 305.1,309.5 302.6,306.9 300.6,303.8 299.0,300.2 297.8,296.3 297.2,292.0 297.0,287.3 297.3,282.2 298.0,276.8 299.3,271.1 300.9,265.1 303.1,258.8 305.7,252.3 308.7,245.5 312.1,238.6 316.0,231.5 320.3,224.2 324.9,216.9 329.9,209.4 335.3,201.9 340.9,194.4 346.9,186.9 353.1,179.4 359.6,172.0 366.3,164.7 373.2,157.5 380.3,150.4 387.6,143.6 394.9,136.9 402.3,130.5 409.8,124.3 417.3,118.4 424.9,112.8 432.3,107.6 439.8,102.7 447.1,98.1 454.3,94.0 461.4,90.2 468.3,86.9 475.0,84.0 481.5,81.5 487.7,79.5 493.6,77.9 499.2,76.8 504.6,76.2 509.5,76.0 514.1,76.3 518.4,77.1 522.2,78.3 525.6,80.0 528.6,82.2 531.1,84.8 533.2,87.9 534.9,91.3 536.0,95.2 536.8,99.5 537.0,104.2 536.8,109.2 536.1,114.5 534.9,120.2 533.3,126.2 531.2,132.5 528.6,139.0 525.7,145.7 522.3,152.6 518.4,159.7 514.2,166.9 509.6,174.3 504.7,181.7 499.4,189.2 493.7,196.7 487.8,204.3 481.6,211.7 475.1,219.2 468.4,226.5 461.6,233.7 454.5,240.8 447.3,247.7 439.9,254.3 432.5,260.8 425.0,267.0 417.5,272.9 410.0,278.5 402.5,283.8 395.1,288.8 387.7,293.4 380.5,297.6 373.4,301.4 366.5,304.8 359.8,307.7 353.3,310.2 347.0,312.3 341.1,313.9 335.4,315.1 330.0,315.8 325.0,316.0 320.4,315.7 316.1,315.0 312.2,313.8 308.8,312.2 305.7,310.1 303.1,307.5 301.0,304.5 299.3,301.1 298.1,297.2 297.3,293.0 297.0,288.4 297.2,283.4 297.8,278.1 298.9,272.4 300.5,266.5 302.6,260.3 305.0,253.8 308.0,247.1 311.3,240.2 315.1,233.1 319.3,225.9 323.8,218.6 328.7,211.1 334.0,203.6 339.6,196.1 345.5,188.6 351.7,181.1 358.1,173.7 364.8,166.3 371.7,159.1 378.7,152.0 385.9,145.1 393.2,138.4 400.6,131.9 408.1,125.7 415.6,119.7 423.2,114.1 430.6,108.8 438.1,103.8 445.4,99.1 452.7,94.9 459.8,91.0 466.7,87.6 473.5,84.6 480.0,82.0 486.3,79.9 492.3,78.2 498.0,77.0 503.4,76.3 508.4,76.0 513.1,76.2 517.4,76.9 521.3,78.0 524.9,79.6 527.9,81.7 530.6,84.2 532.8,87.1 534.5,90.5 535.8,94.3 536.6,98.5 537.0,103.1 536.9,108.0 536.3,113.3 535.2,118.9 533.7,124.8 531.7,131.0 529.3,137.5 526.4,144.1 523.1,151.0 519.4,158.1 515.2,165.3 510.7,172.6 505.8,180.0 500.6,187.5 495.0,195.0 489.2,202.5 483.0,210.0 476.6,217.5 470.0,224.8 463.1,232.1 456.1,239.2 448.9,246.1 441.6,252.8 434.2,259.3 426.7,265.6 419.2,271.6 411.7,277.3 404.2,282.7 396.8,287.7 389.4,292.4 382.1,296.6 375.0,300.5 368.0,304.0 361.3,307.1 354.7,309.7 348.4,311.9 342.4,313.6 336.6,314.9 331.2,315.7 326.1,316.0 321.4,315.8 317.0,315.2 313.1,314.1 309.5,312.6 306.4,310.6 303.7,308.1 301.4,305.2 299.6,301.9 298.3,298.1 297.4,294.0 297.0,289.5 297.1,284.6 297.6,279.3 298.6,273.7 300.1,267.9 302.1,261.7 304.4,255.3 307.3,248.6 310.5,241.8 314.2,234.7 318.3,227.5 322.8,220.2 327.6,212.8 332.8,205.3 338.3,197.8 344.1,190.3 350.3,182.8 356.6,175.4 363.2,168.0 370.1,160.7 377.1,153.6 384.3,146.7 391.5,139.9 398.9,133.4 406.4,127.1 413.9,121.1 421.4,115.3 428.9,109.9 436.4,104.9 443.8,100.2 451.1,95.8 458.2,91.9 465.2,88.3 472.0,85.2 478.5,82.6 484.9,80.3 490.9,78.6 496.7,77.2 502.2,76.4 507.3,76.0 512.1,76.1 516.5,76.7 520.5,77.7 524.1,79.2 527.3,81.2 530.0,83.6 532.3,86.4 534.2,89.7 535.6,93.4 536.5,97.5 536.9,102.0 536.9,106.9 536.4,112.1 535.5,117.6 534.1,123.4 532.2,129.6 529.9,136.0 527.1,142.6 523.9,149.4 520.2,156.5 516.2,163.6 511.8,170.9 507.0,178.3 501.8,185.8 496.3,193.3 490.5,200.8 484.5,208.3 478.1,215.8 471.5,223.2 464.7,230.4 457.7,237.6 450.6,244.5 443.3,251.3 435.9,257.9 428.4,264.2 420.9,270.3 413.4,276.0 405.9,281.5 398.4,286.6 391.0,291.3 383.8,295.7 376.6,299.7 369.6,303.3 362.8,306.4 356.2,309.2 349.8,311.4 343.7,313.3 337.9,314.6 332.4,315.5 327.3,316.0 322.4,315.9 318.0,315.4 313.9,314.4 310.3,313.0 307.1,311.1 304.3,308.7 301.9,305.9 300.0,302.7 298.6,299.0 297.6,295.0 297.1,290.5 297.0,285.7 297.5,280.5 298.4,275.0 299.7,269.2 301.6,263.1 303.9,256.8 306.6,250.2 309.8,243.3 313.3,236.3 317.3,229.2 321.7,221.9 326.5,214.5 331.6,207.0 337.0,199.5 342.8,192.0 348.8,184.5 355.2,177.0 361.7,169.7 368.5,162.4 375.5,155.2 382.6,148.2 389.9,141.4 397.3,134.8 404.7,128.5 412.2,122.4 419.7,116.6 427.2,111.1 434.7,106.0 442.1,101.2 449.4,96.8 456.6,92.7 463.6,89.1 470.4,85.9 477.1,83.1 483.5,80.8 489.6,78.9 495.4,77.5 501.0,76.5 506.2,76.1 511.0,76.1 515.5,76.5 519.6,77.4 523.3,78.8 526.6,80.7 529.4,83.0 531.8,85.7 533.8,88.9 535.3,92.5 536.3,96.5 536.9,100.9 537.0,105.7 536.6,110.9 535.7,116.3 534.4,122.1 532.7,128.2 530.4,134.5 527.7,141.1 524.6,147.9 521.1,154.8 517.1,162.0 512.8,169.3 508.1,176.6 503.0,184.1 497.6,191.6 491.9,199.1 485.9,206.6 479.6,214.1 473.0,221.5 466.3,228.8 459.3,236.0 452.2,243.0 445.0,249.8 437.6,256.4 430.1,262.8 422.6,268.9 415.1,274.7 407.6,280.3 400.1,285.4 392.7,290.3 385.4,294.7 378.2,298.8 371.2,302.5 364.3,305.8 357.7,308.6 351.2,311.0 345.1,312.9 339.2,314.4 333.6,315.4 328.4,315.9 323.5,316.0 319.0,315.6 314.8,314.7 311.1,313.3 307.8,311.5 304.9,309.3 302.4,306.6 300.4,303.5 298.9,299.9 297.8,295.9 297.2,291.6 297.0,286.8 297.3,281.7 298.1,276.3 299.4,270.6 301.1,264.5 303.3,258.2 305.9,251.7 309.0,244.9 312.5,238.0 316.4,230.8 320.7,223.6 325.3,216.2 330.4,208.7 335.8,201.2 341.4,193.7 347.4,186.2 353.7,178.7 360.2,171.3 366.9,164.0 373.9,156.8 381.0,149.8 388.2,143.0 395.6,136.3 403.0,129.9 410.5,123.8 418.0,117.9 425.5,112.4 433.0,107.1 440.4,102.3 447.8,97.7 455.0,93.6 462.0,89.9 468.9,86.6 475.6,83.7 482.0,81.3 488.2,79.3 494.1,77.8 499.7,76.7 505.0,76.1 510.0,76.0 514.5,76.4 518.7,77.2 522.5,78.5 525.9,80.2 528.8,82.4 531.3,85.1 533.4,88.2 535.0,91.7 536.1,95.6 536.8,99.9 537.0,104.6 536.7,109.7 536.0,115.0 534.8,120.8 533.1,126.8 531.0,133.0 528.4,139.6 525.4,146.3 521.9,153.2 518.1,160.4 513.8,167.6 509.2,175.0 504.2,182.4 498.9,189.9 493.2,197.4 487.3,204.9 481.0,212.4 474.5,219.8 467.8,227.2 460.9,234.3 453.8,241.4 446.6,248.3 439.3,254.9 431.8,261.4 424.3,267.5 416.8,273.4 409.3,279.0 401.8,284.3 394.4,289.2 387.1,293.8 379.8,297.9 372.8,301.7 365.9,305.0 359.2,308.0 352.7,310.5 346.5,312.5 340.5,314.1 334.9,315.2 329.6,315.8 324.6,316.0 320.0,315.7 315.7,314.9 311.9,313.7 308.5,312.0 305.5,309.8 302.9,307.2 300.8,304.2 299.2,300.7 298.0,296.9 297.3,292.6 297.0,287.9 297.2,282.9 297.9,277.6 299.1,271.9 300.7,265.9 302.8,259.7 305.3,253.2 308.3,246.5 311.7,239.6 315.5,232.5 319.7,225.2 324.3,217.9 329.2,210.4 334.5,203.0 340.1,195.4 346.1,187.9 352.3,180.4 358.7,173.0 365.4,165.7 372.3,158.5 379.3,151.4 386.6,144.5 393.9,137.8 401.3,131.4 408.8,125.1 416.3,119.2 423.8,113.6 431.3,108.3 438.8,103.3 446.1,98.7 453.3,94.5 460.4,90.7 467.4,87.3 474.1,84.3 480.6,81.8 486.8,79.7 492.8,78.1 498.5,76.9 503.9,76.2 508.9,76.0 513.5,76.2 517.8,77.0 521.7,78.1 525.2,79.8 528.2,81.9 530.8,84.4 533.0,87.4 534.7,90.8 535.9,94.7 536.7,98.9 537.0,103.5 536.8,108.5 536.2,113.8 535.1,119.4 533.5,125.4 531.5,131.6 529.0,138.1 526.1,144.8 522.8,151.7 519.0,158.7 514.8,165.9 510.3,173.3 505.4,180.7 500.1,188.2 494.5,195.7 488.6,203.2 482.5,210.7 476.0,218.2 469.4,225.5 462.5,232.7 455.5,239.8 448.3,246.7 440.9,253.4 433.5,259.9 426.1,266.2 418.5,272.1 411.0,277.8 403.5,283.1 396.1,288.1 388.7,292.8 381.5,297.0 374.4,300.9 367.4,304.3 360.7,307.3 354.1,309.9 347.9,312.1 341.8,313.7 336.1,315.0 330.7,315.7 325.7,316.0 321.0,315.8 316.7,315.1 312.7,314.0 309.2,312.4 306.1,310.4 303.5,307.9 301.3,304.9 299.5,301.6 298.2,297.8 297.4,293.6 297.0,289.0 297.1,284.1 297.7,278.8 298.8,273.2 300.3,267.3 302.3,261.1 304.7,254.7 307.5,248.0 310.8,241.1 314.6,234.1 318.7,226.9 323.2,219.6 328.1,212.1 333.3,204.7 338.8,197.1 344.7,189.6 350.8,182.1 357.2,174.7 363.9,167.3 370.7,160.1 377.7,153.0 384.9,146.1 392.2,139.3 399.6,132.8 407.1,126.5 414.6,120.5 422.1,114.8 429.6,109.5 437.1,104.4 444.5,99.7 451.7,95.4 458.8,91.5 465.8,88.0 472.6,85.0 479.1,82.3 485.4,80.2 491.5,78.4 497.2,77.1 502.7,76.3 507.8,76.0 512.5,76.1 516.9,76.8 520.8,77.8 524.4,79.4 527.5,81.4 530.3,83.8 532.5,86.7 534.3,90.0 535.7,93.8 536.6,97.9 537.0,102.4 536.9,107.3 536.4,112.6 535.4,118.1 533.9,124.0 532.0,130.2 529.6,136.6 526.8,143.2 523.5,150.1 519.9,157.1 515.8,164.3 511.4,171.6 506.5,179.0 501.3,186.5 495.8,194.0 490.0,201.5 483.9,209.0 477.5,216.5 470.9,223.8 464.1,231.1 457.1,238.2 449.9,245.2 442.6,251.9 435.2,258.5 427.8,264.8 420.2,270.8 412.7,276.5 405.2,281.9 397.8,287.0 390.4,291.7 383.1,296.1 376.0,300.0 369.0,303.6 362.2,306.7 355.6,309.4 349.3,311.6 343.2,313.4 337.4,314.7 331.9,315.6 326.8,316.0 322.0,315.9 317.6,315.3 313.6,314.3 310.0,312.8 306.8,310.9 304.0,308.5 301.7,305.6 299.9,302.4 298.5,298.7 297.5,294.6 297.1,290.1 297.1,285.3 297.5,280.1 298.5,274.5 299.9,268.7 301.8,262.6 304.1,256.2 306.9,249.6 310.1,242.7 313.7,235.7 317.7,228.5 322.1,221.2 326.9,213.8 332.1,206.4 337.5,198.9 343.3,191.3 349.4,183.8 355.7,176.4 362.3,169.0 369.1,161.7 376.1,154.6 383.3,147.6 390.5,140.8 397.9,134.3 405.4,127.9 412.9,121.9 420.4,116.1 427.9,110.7 435.4,105.5 442.8,100.8 450.1,96.4 457.2,92.4 464.2,88.8 471.1,85.6 477.7,82.9 484.0,80.6 490.1,78.8 496.0,77.4 501.5,76.5 506.6,76.0 511.5,76.1 515.9,76.6 520.0,77.5 523.6,79.0 526.9,80.9 529.7,83.2 532.0,86.0 534.0,89.2 535.4,92.9 536.4,96.9 536.9,101.4 537.0,106.2 536.5,111.3 535.6,116.8 534.3,122.6 532.5,128.7 530.2,135.1 527.5,141.7 524.3,148.5 520.8,155.5 516.8,162.6 512.4,169.9 507.6,177.3 502.5,184.8 497.1,192.3 491.4,199.8 485.3,207.3 479.0,214.8 472.4,222.2" fill="none" stroke="#3b82f6" stroke-width="0.6" stroke-opacity="0.6"/>
  <text x="291" y="196" text-anchor="end" font-size="8" fill="#6b7280">R</text>
  <text x="417" y="328" text-anchor="middle" font-size="8" fill="#6b7280">L</text>
  <text x="417" y="71" text-anchor="middle" font-size="9" fill="#6b7280" font-weight="600">width=1</text>
  <line x1="547" y1="76" x2="547" y2="316" stroke="#d1d5db" stroke-width="1"/>
  <line x1="547" y1="316" x2="787" y2="316" stroke="#d1d5db" stroke-width="1"/>
  <line x1="547" y1="196" x2="787" y2="196" stroke="#e5e7eb" stroke-width="0.5"/>
  <line x1="667" y1="76" x2="667" y2="316" stroke="#e5e7eb" stroke-width="0.5"/>
  <line x1="547" y1="316" x2="787" y2="76" stroke="#d1d5db" stroke-width="0.5" stroke-dasharray="3 2"/>
  <polyline clip-path="url(#u31)" points="628.3,80.0 636.8,76.0 645.4,76.0 654.1,76.0 662.8,76.0 671.6,76.0 680.3,76.0 689.0,76.0 697.6,76.0 706.1,76.0 714.4,76.0 722.5,76.0 730.4,76.0 738.1,76.0 745.5,76.0 752.5,76.0 759.3,76.0 765.7,76.0 771.7,76.2 777.2,80.9 782.4,86.1 787.0,91.7 787.0,97.7 787.0,104.1 787.0,110.8 787.0,117.9 787.0,125.3 787.0,133.0 787.0,140.9 787.0,149.1 787.0,157.4 787.0,165.9 787.0,174.5 787.0,183.1 787.0,191.9 787.0,200.6 787.0,209.4 787.0,218.0 787.0,226.6 782.7,235.1 777.6,243.4 772.0,251.5 766.1,259.5 759.7,267.1 753.0,274.5 745.9,281.6 738.6,288.3 730.9,294.7 723.0,300.7 714.9,306.3 706.6,311.4 698.1,316.0 689.6,316.0 680.9,316.0 672.2,316.0 663.4,316.0 654.7,316.0 646.0,316.0 637.4,316.0 628.9,316.0 620.6,316.0 612.4,316.0 604.5,316.0 596.8,316.0 589.4,316.0 582.2,316.0 575.5,316.0 569.0,316.0 563.0,316.0 557.4,311.7 552.2,306.6 547.4,301.0 547.0,295.0 547.0,288.7 547.0,282.0 547.0,274.9 547.0,267.5 547.0,259.9 547.0,252.0 547.0,243.9 547.0,235.6 547.0,227.1 547.0,218.5 547.0,209.8 547.0,201.1 547.0,192.4 547.0,183.6 547.0,174.9 547.0,166.3 550.7,157.9 555.8,149.5 561.3,141.4 567.2,133.4 573.5,125.7 580.2,118.3 587.2,111.2 594.6,104.4 602.2,98.0 610.1,92.0 618.2,86.4 626.4,81.2 634.9,76.4 643.5,76.0 652.1,76.0 660.8,76.0 669.6,76.0 678.3,76.0 687.0,76.0 695.6,76.0 704.1,76.0 712.5,76.0 720.7,76.0 728.6,76.0 736.4,76.0 743.8,76.0 751.0,76.0 757.8,76.0 764.2,76.0 770.3,76.0 776.0,79.8 781.2,84.8 786.0,90.3 787.0,96.3 787.0,102.6 787.0,109.3 787.0,116.3 787.0,123.6 787.0,131.2 787.0,139.1 787.0,147.2 787.0,155.5 787.0,163.9 787.0,172.5 787.0,181.2 787.0,189.9 787.0,198.6 787.0,207.4 787.0,216.1 787.0,224.7 783.8,233.2 778.8,241.5 773.3,249.7 767.5,257.7 761.2,265.4 754.6,272.8 747.6,280.0 740.3,286.8 732.7,293.3 724.8,299.4 716.8,305.0 708.5,310.3 700.1,315.1 691.5,316.0 682.9,316.0 674.1,316.0 665.4,316.0 656.7,316.0 648.0,316.0 639.3,316.0 630.8,316.0 622.4,316.0 614.2,316.0 606.3,316.0 598.5,316.0 591.0,316.0 583.8,316.0 577.0,316.0 570.5,316.0 564.3,316.0 558.6,312.8 553.3,307.8 548.5,302.3 547.0,296.4 547.0,290.2 547.0,283.5 547.0,276.5 547.0,269.2 547.0,261.7 547.0,253.8 547.0,245.7 547.0,237.5 547.0,229.0 547.0,220.5 547.0,211.8 547.0,203.1 547.0,194.4 547.0,185.6 547.0,176.9 547.0,168.3 549.7,159.8 554.6,151.4 560.0,143.2 565.9,135.2 572.1,127.5 578.7,120.0 585.6,112.8 592.9,105.9 600.4,99.4 608.2,93.3 616.3,87.6 624.5,82.3 633.0,77.5 641.5,76.0 650.1,76.0 658.9,76.0 667.6,76.0 676.3,76.0 685.1,76.0 693.7,76.0 702.2,76.0 710.6,76.0 718.8,76.0 726.8,76.0 734.6,76.0 742.1,76.0 749.4,76.0 756.3,76.0 762.8,76.0 769.0,76.0 774.7,78.7 780.1,83.6 785.0,89.1 787.0,94.9 787.0,101.1 787.0,107.7 787.0,114.7 787.0,121.9 787.0,129.5 787.0,137.3 787.0,145.3 787.0,153.6 787.0,162.0 787.0,170.5 787.0,179.2 787.0,187.9 787.0,196.6 787.0,205.4 787.0,214.1 787.0,222.7 784.9,231.3 780.0,239.7 774.6,247.9 768.8,255.9 762.7,263.7 756.1,271.2 749.2,278.4 742.0,285.3 734.4,291.8 726.7,298.0 718.6,303.8 710.4,309.1 702.0,314.0 693.5,316.0 684.8,316.0 676.1,316.0 667.4,316.0 658.6,316.0 649.9,316.0 641.3,316.0 632.7,316.0 624.3,316.0 616.1,316.0 608.1,316.0 600.2,316.0 592.7,316.0 585.4,316.0 578.5,316.0 571.9,316.0 565.7,316.0 559.9,313.9 554.5,308.9 549.5,303.6 547.0,297.8 547.0,291.6 547.0,285.1 547.0,278.2 547.0,270.9 547.0,263.4 547.0,255.6 547.0,247.6 547.0,239.4 547.0,231.0 547.0,222.4 547.0,213.8 547.0,205.1 547.0,196.3 547.0,187.6 547.0,178.9 547.0,170.2 548.6,161.7 553.5,153.3 558.8,145.1 564.5,137.0 570.6,129.2 577.1,121.7 584.0,114.4 591.2,107.5 598.7,100.9 606.5,94.7 614.4,88.9 622.7,83.5 631.0,78.5 639.5,76.0 648.2,76.0 656.9,76.0 665.6,76.0 674.4,76.0 683.1,76.0 691.7,76.0 700.3,76.0 708.7,76.0 717.0,76.0 725.0,76.0 732.9,76.0 740.5,76.0 747.8,76.0 754.7,76.0 761.4,76.0 767.6,76.0 773.5,77.6 778.9,82.5 783.9,87.8 787.0,93.5 787.0,99.7 787.0,106.2 787.0,113.0 787.0,120.2 787.0,127.7 787.0,135.5 787.0,143.5 787.0,151.7 787.0,160.1 787.0,168.6 787.0,177.2 787.0,185.9 787.0,194.7 787.0,203.4 787.0,212.1 787.0,220.8 785.9,229.3 781.1,237.8 775.9,246.0 770.2,254.1 764.1,261.9 757.6,269.5 750.8,276.8 743.6,283.8 736.2,290.4 728.4,296.6 720.5,302.5 712.3,307.9 703.9,312.9 695.4,316.0 686.8,316.0 678.1,316.0 669.4,316.0 660.6,316.0 651.9,316.0 643.2,316.0 634.7,316.0 626.2,316.0 618.0,316.0 609.9,316.0 602.0,316.0 594.4,316.0 587.1,316.0 580.1,316.0 573.4,316.0 567.1,316.0 561.2,314.9 555.7,310.1 550.6,304.8 547.0,299.1 547.0,293.1 547.0,286.6 547.0,279.8 547.0,272.6 547.0,265.1 547.0,257.4 547.0,249.4 547.0,241.2 547.0,232.9 547.0,224.4 547.0,215.8 547.0,207.1 547.0,198.3 547.0,189.6 547.0,180.9 547.0,172.2 547.6,163.6 552.3,155.2 557.5,146.9 563.2,138.8 569.2,131.0 575.6,123.3 582.4,116.0 589.5,109.0 597.0,102.3 604.7,96.1 612.6,90.1 620.8,84.7 629.1,79.6 637.6,76.0 646.2,76.0 654.9,76.0 663.6,76.0 672.4,76.0 681.1,76.0 689.8,76.0 698.4,76.0 706.8,76.0 715.1,76.0 723.2,76.0 731.1,76.0 738.8,76.0 746.1,76.0 753.2,76.0 759.9,76.0 766.2,76.0 772.2,76.6 777.7,81.3 782.8,86.5 787.0,92.2 787.0,98.2 787.0,104.7 787.0,111.5 787.0,118.6 787.0,126.0 787.0,133.7 787.0,141.7 787.0,149.8 787.0,158.2 787.0,166.6 787.0,175.3 787.0,183.9 787.0,192.7 787.0,201.4 787.0,210.1 787.0,218.8 787.0,227.4 782.3,235.9 777.1,244.2 771.5,252.3 765.5,260.2 759.1,267.8 752.4,275.2 745.3,282.2 737.9,288.9 730.2,295.3 722.3,301.2 714.2,306.7 705.8,311.8 697.4,316.0 688.8,316.0 680.1,316.0 671.4,316.0 662.6,316.0 653.9,316.0 645.2,316.0 636.6,316.0 628.1,316.0 619.8,316.0 611.7,316.0 603.8,316.0 596.1,316.0 588.7,316.0 581.6,316.0 574.9,316.0 568.5,316.0 562.5,315.9 556.9,311.2 551.7,306.1 547.0,300.5 547.0,294.5 547.0,288.1 547.0,281.3 547.0,274.2 547.0,266.9 547.0,259.2 547.0,251.3 547.0,243.1 547.0,234.8 547.0,226.3 547.0,217.7 547.0,209.1 547.0,200.3 547.0,191.6 547.0,182.8 547.0,174.2 547.0,165.6 551.2,157.1 556.3,148.8 561.8,140.6 567.8,132.7 574.1,125.1 580.8,117.7 587.9,110.6 595.3,103.8 602.9,97.4 610.8,91.5 618.9,85.9 627.2,80.7 635.7,76.0 644.2,76.0 652.9,76.0 661.6,76.0 670.4,76.0 679.1,76.0 687.8,76.0 696.4,76.0 704.9,76.0 713.2,76.0 721.4,76.0 729.3,76.0 737.1,76.0 744.5,76.0 751.6,76.0 758.4,76.0 764.8,76.0 770.9,76.0 776.5,80.2 781.7,85.3 786.5,90.9 787.0,96.8 787.0,103.2 787.0,109.9 787.0,116.9 787.0,124.3 787.0,131.9 787.0,139.8 787.0,147.9 787.0,156.2 787.0,164.7 787.0,173.3 787.0,182.0 787.0,190.7 787.0,199.4 787.0,208.2 787.0,216.9 787.0,225.5 783.4,233.9 778.3,242.3 772.8,250.4 766.9,258.4 760.6,266.1 753.9,273.5 746.9,280.6 739.6,287.4 732.0,293.8 724.1,299.9 716.0,305.5 707.8,310.7 699.3,315.5 690.7,316.0 682.1,316.0 673.4,316.0 664.6,316.0 655.9,316.0 647.2,316.0 638.6,316.0 630.1,316.0 621.7,316.0 613.5,316.0 605.5,316.0 597.8,316.0 590.4,316.0 583.2,316.0 576.4,316.0 569.9,316.0 563.8,316.0 558.1,312.3 552.9,307.3 548.1,301.8 547.0,295.9 547.0,289.6 547.0,282.9 547.0,275.9 547.0,268.6 547.0,260.9 547.0,253.1 547.0,245.0 547.0,236.7 547.0,228.3 547.0,219.7 547.0,211.0 547.0,202.3 547.0,193.6 547.0,184.8 547.0,176.1 547.0,167.5 550.1,159.0 555.1,150.7 560.5,142.5 566.4,134.5 572.7,126.8 579.3,119.3 586.3,112.2 593.6,105.3 601.1,98.9 609.0,92.8 617.0,87.1 625.3,81.8 633.7,77.0 642.3,76.0 650.9,76.0 659.7,76.0 668.4,76.0 677.1,76.0 685.8,76.0 694.5,76.0 703.0,76.0 711.4,76.0 719.6,76.0 727.6,76.0 735.3,76.0 742.8,76.0 750.0,76.0 756.9,76.0 763.4,76.0 769.5,76.0 775.3,79.1 780.6,84.1 785.4,89.6 787.0,95.4 787.0,101.7 787.0,108.3 787.0,115.3 787.0,122.6 787.0,130.2 787.0,138.0 787.0,146.1 787.0,154.3 787.0,162.8 787.0,171.3 787.0,180.0 787.0,188.7 787.0,197.4 787.0,206.2 787.0,214.9 787.0,223.5 784.5,232.0 779.5,240.4 774.1,248.6 768.3,256.6 762.1,264.4 755.5,271.9 748.5,279.0 741.3,285.9 733.7,292.4 725.9,298.5 717.9,304.3 709.6,309.6 701.2,314.4 692.7,316.0 684.0,316.0 675.3,316.0 666.6,316.0 657.9,316.0 649.1,316.0 640.5,316.0 632.0,316.0 623.6,316.0 615.4,316.0 607.3,316.0 599.5,316.0 592.0,316.0 584.8,316.0 577.9,316.0 571.3,316.0 565.2,316.0 559.4,313.4 554.0,308.5 549.1,303.1 547.0,297.3 547.0,291.0 547.0,284.4 547.0,277.5 547.0,270.3 547.0,262.7 547.0,254.9 547.0,246.8 547.0,238.6 547.0,230.2 547.0,221.7 547.0,213.0 547.0,204.3 547.0,195.5 547.0,186.8 547.0,178.1 547.0,169.5 549.0,160.9 553.9,152.5 559.3,144.3 565.0,136.3 571.2,128.5 577.8,121.0 584.6,113.8 591.9,106.9 599.4,100.3 607.2,94.1 615.2,88.4 623.4,83.0 631.8,78.1 640.3,76.0 649.0,76.0 657.7,76.0 666.4,76.0 675.2,76.0 683.9,76.0 692.5,76.0 701.1,76.0 709.5,76.0 717.7,76.0 725.8,76.0 733.6,76.0 741.1,76.0 748.4,76.0 755.3,76.0 761.9,76.0 768.2,76.0 774.0,78.0 779.4,82.9 784.4,88.3 787.0,94.1 787.0,100.2 787.0,106.8 787.0,113.7 787.0,120.9 787.0,128.4 787.0,136.2 787.0,144.2 787.0,152.4 787.0,160.8 787.0,169.4 787.0,178.0 787.0,186.7 787.0,195.5 787.0,204.2 787.0,212.9 787.0,221.6 785.5,230.1 780.7,238.5 775.4,246.8 769.6,254.8 763.5,262.6 757.0,270.2 750.2,277.4 743.0,284.4 735.5,291.0 727.7,297.2 719.7,303.0 711.5,308.4 703.2,313.4 694.6,316.0 686.0,316.0 677.3,316.0 668.6,316.0 659.8,316.0 651.1,316.0 642.5,316.0 633.9,316.0 625.5,316.0 617.2,316.0 609.1,316.0 601.3,316.0 593.7,316.0 586.4,316.0 579.4,316.0 572.8,316.0 566.5,316.0 560.7,314.5 555.2,309.6 550.2,304.3 547.0,298.6 547.0,292.5 547.0,286.0 547.0,279.1 547.0,271.9 547.0,264.4 547.0,256.7 547.0,248.7 547.0,240.5 547.0,232.1 547.0,223.6 547.0,215.0 547.0,206.3 547.0,197.5 547.0,188.8 547.0,180.1 547.0,171.4 548.0,162.9 552.8,154.4 558.0,146.2 563.7,138.1 569.8,130.3 576.2,122.7 583.1,115.4 590.2,108.4 597.7,101.8 605.4,95.5 613.3,89.6 621.5,84.2 629.9,79.2 638.4,76.0 647.0,76.0 655.7,76.0 664.4,76.0 673.2,76.0 681.9,76.0 690.6,76.0 699.1,76.0 707.6,76.0 715.9,76.0 724.0,76.0 731.8,76.0 739.4,76.0 746.8,76.0 753.8,76.0 760.5,76.0 766.8,76.0 772.7,77.0 778.2,81.8 783.3,87.0 787.0,92.7 787.0,98.8 787.0,105.3 787.0,112.1 787.0,119.2 787.0,126.7 787.0,134.4 787.0,142.4 787.0,150.6 787.0,158.9 787.0,167.4 787.0,176.0 787.0,184.7 787.0,193.5 787.0,202.2 787.0,210.9 787.0,219.6 786.6,228.2 781.8,236.6 776.6,244.9 771.0,253.0 764.9,260.9 758.5,268.5 751.7,275.8 744.6,282.8 737.2,289.5 729.5,295.8 721.6,301.7 713.4,307.2 705.1,312.3 696.6,316.0 688.0,316.0 679.3,316.0 670.6,316.0 661.8,316.0 653.1,316.0 644.4,316.0 635.8,316.0 627.4,316.0 619.1,316.0 611.0,316.0 603.1,316.0 595.4,316.0 588.0,316.0 581.0,316.0 574.3,316.0 567.9,316.0 562.0,315.5 556.4,310.8 551.3,305.6 547.0,299.9 547.0,293.9 547.0,287.5 547.0,280.7 547.0,273.6 547.0,266.2 547.0,258.5 547.0,250.5 547.0,242.4 547.0,234.0 547.0,225.5 547.0,216.9 547.0,208.3 547.0,199.5 547.0,190.8 547.0,182.1 547.0,173.4 547.0,164.8 551.6,156.3 556.8,148.0 562.4,139.9 568.4,132.0 574.7,124.4 581.5,117.0 588.5,110.0 595.9,103.2 603.6,96.9 611.5,90.9 619.6,85.4 628.0,80.3 636.4,76.0 645.0,76.0 653.7,76.0 662.4,76.0 671.2,76.0 679.9,76.0 688.6,76.0 697.2,76.0 705.7,76.0 714.0,76.0 722.1,76.0 730.1,76.0 737.7,76.0 745.1,76.0 752.2,76.0 759.0,76.0 765.4,76.0 771.4,76.0 777.0,80.7 782.2,85.8 786.9,91.4 787.0,97.4 787.0,103.8 787.0,110.5 787.0,117.6 787.0,125.0 787.0,132.6 787.0,140.6 787.0,148.7 787.0,157.0 787.0,165.5 787.0,174.1 787.0,182.8 787.0,191.5 787.0,200.2 787.0,209.0 787.0,217.6 787.0,226.2 782.9,234.7 777.8,243.0 772.3,251.2 766.3,259.1 760.0,266.8 753.3,274.2 746.3,281.3 738.9,288.0 731.3,294.4 723.4,300.4 715.3,306.0 707.0,311.2 698.5,315.9 690.0,316.0 681.3,316.0 672.6,316.0 663.8,316.0 655.1,316.0 646.4,316.0 637.8,316.0 629.3,316.0 620.9,316.0 612.8,316.0 604.8,316.0 597.1,316.0 589.7,316.0 582.6,316.0 575.8,316.0 569.3,316.0 563.3,316.0 557.6,311.9 552.4,306.8 547.6,301.3 547.0,295.3 547.0,289.0 547.0,282.3 547.0,275.2 547.0,267.9 547.0,260.2 547.0,252.4 547.0,244.2 547.0,235.9 547.0,227.5 547.0,218.9 547.0,210.2 547.0,201.5 547.0,192.8 547.0,184.0 547.0,175.3 547.0,166.7 550.5,158.2 555.6,149.9 561.1,141.7 567.0,133.8 573.2,126.1 579.9,118.7 586.9,111.5 594.2,104.7 601.8,98.3 609.7,92.2 617.8,86.6 626.1,81.4 634.5,76.6 643.1,76.0 651.7,76.0 660.4,76.0 669.2,76.0 677.9,76.0 686.6,76.0 695.2,76.0 703.8,76.0 712.1,76.0 720.3,76.0 728.3,76.0 736.0,76.0 743.5,76.0 750.6,76.0 757.5,76.0 764.0,76.0 770.1,76.0 775.8,79.5 781.0,84.6 785.8,90.1 787.0,96.0 787.0,102.3 787.0,108.9 787.0,115.9 787.0,123.3 787.0,130.9 787.0,138.7 787.0,146.8 787.0,155.1 787.0,163.5 787.0,172.1 787.0,180.8 787.0,189.5 787.0,198.2 787.0,207.0 787.0,215.7 787.0,224.3 784.0,232.8 779.0,241.2 773.6,249.3 767.7,257.3 761.5,265.1 754.9,272.5 747.9,279.7 740.6,286.5 733.0,293.0 725.2,299.1 717.1,304.8 708.9,310.0 700.5,314.9 691.9,316.0 683.3,316.0 674.5,316.0 665.8,316.0 657.1,316.0 648.4,316.0 639.7,316.0 631.2,316.0 622.8,316.0 614.6,316.0 606.6,316.0 598.9,316.0 591.4,316.0 584.2,316.0 577.3,316.0 570.8,316.0 564.6,316.0 558.9,313.0 553.6,308.0 548.7,302.6 547.0,296.7 547.0,290.5 547.0,283.8 547.0,276.9 547.0,269.6 547.0,262.0 547.0,254.2 547.0,246.1 547.0,237.8 547.0,229.4 547.0,220.9 547.0,212.2 547.0,203.5 547.0,194.8 547.0,186.0 547.0,177.3 547.0,168.7 549.4,160.2 554.4,151.8 559.8,143.6 565.6,135.6 571.8,127.8 578.4,120.3 585.3,113.1 592.5,106.2 600.1,99.7 607.9,93.6 615.9,87.8 624.2,82.5 632.6,77.7 641.1,76.0 649.8,76.0 658.5,76.0 667.2,76.0 676.0,76.0 684.7,76.0 693.3,76.0 701.8,76.0 710.2,76.0 718.5,76.0 726.5,76.0 734.3,76.0 741.8,76.0 749.0,76.0 756.0,76.0 762.5,76.0 768.7,76.0 774.5,78.5 779.9,83.4 784.8,88.8 787.0,94.6 787.0,100.8 787.0,107.4 787.0,114.3 787.0,121.6 787.0,129.1 787.0,136.9 787.0,145.0 787.0,153.2 787.0,161.6 787.0,170.2 787.0,178.8 787.0,187.5 787.0,196.3 787.0,205.0 787.0,213.7 787.0,222.3 785.1,230.9 780.2,239.3 774.9,247.5 769.1,255.5 762.9,263.3 756.4,270.8 749.5,278.1 742.3,285.0 734.8,291.6 727.0,297.7 719.0,303.5 710.8,308.9 702.4,313.8 693.9,316.0 685.2,316.0 676.5,316.0 667.8,316.0 659.0,316.0 650.3,316.0 641.7,316.0 633.1,316.0 624.7,316.0 616.5,316.0 608.4,316.0 600.6,316.0 593.0,316.0 585.8,316.0 578.8,316.0 572.2,316.0 566.0,316.0 560.1,314.1 554.7,309.2 549.8,303.8 547.0,298.1 547.0,291.9 547.0,285.4 547.0,278.5 547.0,271.3 547.0,263.7 547.0,256.0 547.0,248.0 547.0,239.7 547.0,231.4 547.0,222.8 547.0,214.2 547.0,205.5 547.0,196.7 547.0,188.0 547.0,179.3 547.0,170.6 548.4,162.1 553.2,153.7 558.5,145.4 564.2,137.4 570.3,129.6 576.8,122.0 583.7,114.7 590.9,107.8 598.3,101.2 606.1,94.9 614.1,89.1 622.3,83.7 630.6,78.7 639.2,76.0 647.8,76.0 656.5,76.0 665.2,76.0 674.0,76.0 682.7,76.0 691.3,76.0 699.9,76.0 708.3,76.0 716.6,76.0 724.7,76.0 732.5,76.0 740.1,76.0 747.4,76.0 754.4,76.0 761.1,76.0 767.3,76.0 773.2,77.4 778.7,82.2 783.7,87.5 787.0,93.3 787.0,99.4 787.0,105.9 787.0,112.7 787.0,119.9 787.0,127.4 787.0,135.1 787.0,143.1 787.0,151.3 787.0,159.7 787.0,168.2 787.0,176.8 787.0,185.5 787.0,194.3 787.0,203.0 787.0,211.7 787.0,220.4 786.1,228.9 781.4,237.4 776.1,245.6 770.4,253.7 764.4,261.6 757.9,269.2 751.1,276.5 744.0,283.4 736.5,290.1 728.8,296.4 720.8,302.2 712.7,307.7 704.3,312.7 695.8,316.0 687.2,316.0 678.5,316.0 669.8,316.0 661.0,316.0 652.3,316.0 643.6,316.0 635.1,316.0 626.6,316.0 618.3,316.0 610.2,316.0 602.3,316.0 594.7,316.0 587.4,316.0 580.4,316.0 573.7,316.0 567.4,316.0 561.4,315.1 555.9,310.3 550.8,305.1 547.0,299.4 547.0,293.3 547.0,286.9 547.0,280.1 547.0,272.9 547.0,265.5 547.0,257.8 547.0,249.8 547.0,241.6 547.0,233.3 547.0,224.8 547.0,216.2 547.0,207.5 547.0,198.7 547.0,190.0 547.0,181.3 547.0,172.6 547.3,164.0 552.1,155.6 557.3,147.3 562.9,139.2 568.9,131.3 575.3,123.7 582.1,116.4 589.2,109.3 596.6,102.6 604.3,96.3 612.2,90.4 620.4,84.9 628.7,79.8 637.2,76.0 645.8,76.0 654.5,76.0 663.2,76.0 672.0,76.0 680.7,76.0 689.4,76.0 698.0,76.0 706.4,76.0 714.7,76.0 722.9,76.0 730.8,76.0 738.4,76.0 745.8,76.0 752.9,76.0 759.6,76.0 765.9,76.0 771.9,76.4 777.5,81.1 782.6,86.3 787.0,91.9 787.0,97.9 787.0,104.4 787.0,111.1 787.0,118.2 787.0,125.7 787.0,133.3 787.0,141.3 787.0,149.4 787.0,157.8 787.0,166.3 787.0,174.9 787.0,183.5 787.0,192.3 787.0,201.0 787.0,209.8 787.0,218.4 787.0,227.0 782.5,235.5 777.3,243.8 771.8,251.9 765.8,259.8 759.4,267.5 752.7,274.8 745.6,281.9 738.2,288.6 730.6,295.0 722.7,300.9 714.5,306.5 706.2,311.6 697.8,316.0 689.2,316.0 680.5,316.0 671.8,316.0 663.0,316.0 654.3,316.0 645.6,316.0 637.0,316.0 628.5,316.0 620.2,316.0 612.0,316.0 604.1,316.0 596.4,316.0 589.0,316.0 581.9,316.0 575.2,316.0 568.8,316.0 562.7,316.0 557.1,311.5 552.0,306.3 547.2,300.7 547.0,294.8 547.0,288.4 547.0,281.6 547.0,274.6 547.0,267.2 547.0,259.5 547.0,251.6 547.0,243.5 547.0,235.2 547.0,226.7 547.0,218.1 547.0,209.4 547.0,200.7 547.0,192.0 547.0,183.2 547.0,174.6 547.0,166.0 551.0,157.5 556.1,149.2 561.6,141.0 567.5,133.1 573.8,125.4 580.5,118.0 587.6,110.9 594.9,104.1 602.5,97.7 610.4,91.7 618.5,86.1 626.8,80.9 635.3,76.2 643.9,76.0 652.5,76.0 661.2,76.0 670.0,76.0 678.7,76.0 687.4,76.0 696.0,76.0 704.5,76.0 712.9,76.0 721.0,76.0 729.0,76.0 736.7,76.0 744.1,76.0 751.3,76.0 758.1,76.0 764.5,76.0 770.6,76.0 776.2,80.0 781.5,85.1 786.3,90.6 787.0,96.5 787.0,102.9 787.0,109.6 787.0,116.6 787.0,123.9 787.0,131.6 787.0,139.5 787.0,147.6 787.0,155.9 787.0,164.3 787.0,172.9 787.0,181.6 787.0,190.3 787.0,199.0 787.0,207.8 787.0,216.5 787.0,225.1 783.6,233.6 778.5,241.9 773.1,250.1 767.2,258.0 760.9,265.7 754.2,273.2 747.2,280.3 739.9,287.1 732.3,293.6 724.5,299.6 716.4,305.3 708.1,310.5 699.7,315.3 691.1,316.0 682.5,316.0 673.7,316.0 665.0,316.0 656.3,316.0 647.6,316.0 638.9,316.0 630.4,316.0 622.1,316.0 613.9,316.0 605.9,316.0 598.2,316.0 590.7,316.0 583.5,316.0 576.7,316.0 570.2,316.0 564.1,316.0 558.4,312.6 553.1,307.5 548.3,302.0 547.0,296.2 547.0,289.9 547.0,283.2 547.0,276.2 547.0,268.9 547.0,261.3 547.0,253.4 547.0,245.4 547.0,237.1 547.0,228.7 547.0,220.1 547.0,211.4 547.0,202.7 547.0,194.0 547.0,185.2 547.0,176.5 547.0,167.9 549.9,159.4 554.9,151.0 560.3,142.8 566.1,134.9 572.4,127.1 579.0,119.6 585.9,112.5 593.2,105.6 600.8,99.2 608.6,93.0 616.7,87.3 624.9,82.1 633.3,77.2 641.9,76.0 650.5,76.0 659.3,76.0 668.0,76.0 676.7,76.0 685.4,76.0 694.1,76.0 702.6,76.0 711.0,76.0 719.2,76.0 727.2,76.0 735.0,76.0 742.5,76.0 749.7,76.0 756.6,76.0 763.1,76.0 769.2,76.0 775.0,78.9 780.3,83.9 785.2,89.3 787.0,95.2 787.0,101.4 787.0,108.0 787.0,115.0 787.0,122.3 787.0,129.8 787.0,137.7 787.0,145.7 787.0,154.0 787.0,162.4 787.0,170.9 787.0,179.6 787.0,188.3 787.0,197.0 787.0,205.8 787.0,214.5 787.0,223.1 784.7,231.6 779.7,240.0 774.4,248.2 768.6,256.2 762.4,264.0 755.8,271.5 748.9,278.7 741.6,285.6 734.1,292.1 726.3,298.3 718.3,304.0 710.0,309.4 701.6,314.2 693.1,316.0 684.4,316.0 675.7,316.0 667.0,316.0 658.2,316.0 649.5,316.0 640.9,316.0 632.4,316.0 624.0,316.0 615.7,316.0 607.7,316.0 599.9,316.0 592.4,316.0 585.1,316.0 578.2,316.0 571.6,316.0 565.4,316.0 559.6,313.6 554.3,308.7 549.3,303.3 547.0,297.5 547.0,291.3 547.0,284.8 547.0,277.8 547.0,270.6 547.0,263.1 547.0,255.3 547.0,247.2 547.0,239.0 547.0,230.6 547.0,222.0 547.0,213.4 547.0,204.7 547.0,195.9 547.0,187.2 547.0,178.5 547.0,169.9 548.8,161.3 553.7,152.9 559.0,144.7 564.8,136.7 570.9,128.9 577.4,121.3 584.3,114.1 591.5,107.2 599.0,100.6 606.8,94.4 614.8,88.6 623.0,83.2 631.4,78.3 639.9,76.0 648.6,76.0 657.3,76.0 666.0,76.0 674.8,76.0 683.5,76.0 692.1,76.0 700.7,76.0 709.1,76.0 717.3,76.0 725.4,76.0 733.2,76.0 740.8,76.0 748.1,76.0 755.0,76.0 761.6,76.0 767.9,76.0 773.7,77.8 779.2,82.7 784.1,88.0 787.0,93.8 787.0,99.9 787.0,106.5 787.0,113.4 787.0,120.6 787.0,128.1 787.0,135.8 787.0,143.9 787.0,152.1 787.0,160.5 787.0,169.0 787.0,177.6 787.0,186.3 787.0,195.1 787.0,203.8 787.0,212.5 787.0,221.2 785.7,229.7 780.9,238.1 775.6,246.4 769.9,254.4 763.8,262.3 757.3,269.8 750.5,277.1 743.3,284.1 735.8,290.7 728.1,296.9 720.1,302.8 711.9,308.2 703.5,313.2 695.0,316.0 686.4,316.0 677.7,316.0 669.0,316.0 660.2,316.0 651.5,316.0 642.9,316.0 634.3,316.0 625.9,316.0 617.6,316.0 609.5,316.0 601.6,316.0 594.0,316.0 586.7,316.0 579.7,316.0 573.1,316.0 566.8,316.0 560.9,314.7 555.4,309.9 550.4,304.6 547.0,298.9 547.0,292.8 547.0,286.3 547.0,279.4 547.0,272.3 547.0,264.8 547.0,257.0 547.0,249.1 547.0,240.9 547.0,232.5 547.0,224.0 547.0,215.4 547.0,206.7 547.0,197.9 547.0,189.2 547.0,180.5 547.0,171.8 547.8,163.2 552.5,154.8 557.8,146.5 563.4,138.5 569.5,130.6 575.9,123.0 582.7,115.7 589.9,108.7 597.3,102.1 605.0,95.8 613.0,89.9 621.1,84.4 629.5,79.4 638.0,76.0 646.6,76.0 655.3,76.0 664.0,76.0 672.8,76.0 681.5,76.0 690.2,76.0 698.7,76.0 707.2,76.0 715.5,76.0 723.6,76.0 731.5,76.0 739.1,76.0 746.4,76.0 753.5,76.0 760.2,76.0 766.5,76.0 772.4,76.8 778.0,81.6 783.0,86.8 787.0,92.4 787.0,98.5 787.0,105.0 787.0,111.8 787.0,118.9 787.0,126.3 787.0,134.1 787.0,142.0 787.0,150.2 787.0,158.5 787.0,167.0 787.0,175.6 787.0,184.3 787.0,193.1 787.0,201.8 787.0,210.5 787.0,219.2 786.8,227.8 782.0,236.2 776.9,244.5 771.2,252.6 765.2,260.5 758.8,268.1 752.1,275.5 745.0,282.5 737.6,289.2 729.9,295.5 721.9,301.5 713.8,307.0 705.5,312.1 697.0,316.0 688.4,316.0 679.7,316.0 671.0,316.0 662.2,316.0 653.5,316.0 644.8,316.0 636.2,316.0 627.8,316.0 619.4,316.0 611.3,316.0 603.4,316.0 595.7,316.0 588.4,316.0 581.3,316.0 574.6,316.0 568.2,316.0 562.2,315.7 556.6,311.0 551.5,305.8 547.0,300.2 547.0,294.2 547.0,287.8 547.0,281.0 547.0,273.9 547.0,266.5 547.0,258.8 547.0,250.9 547.0,242.7 547.0,234.4 547.0,225.9 547.0,217.3 547.0,208.7 547.0,199.9 547.0,191.2 547.0,182.4 547.0,173.8 547.0,165.2 551.4,156.7 556.5,148.4 562.1,140.3 568.1,132.4 574.4,124.7 581.2,117.3 588.2,110.3 595.6,103.5 603.2,97.2 611.2,91.2 619.3,85.6 627.6,80.5 636.0,76.0 644.6,76.0 653.3,76.0 662.0,76.0 670.8,76.0 679.5,76.0 688.2,76.0 696.8,76.0 705.3,76.0 713.6,76.0 721.8,76.0 729.7,76.0 737.4,76.0 744.8,76.0 751.9,76.0 758.7,76.0 765.1,76.0 771.1,76.0 776.7,80.4 781.9,85.6 786.7,91.1 787.0,97.1 787.0,103.5 787.0,110.2 787.0,117.3 787.0,124.6 787.0,132.3 787.0,140.2 787.0,148.3 787.0,156.6 787.0,165.1 787.0,173.7 787.0,182.4 787.0,191.1 787.0,199.8 787.0,208.6 787.0,217.2 787.0,225.8 783.1,234.3 778.1,242.7 772.6,250.8 766.6,258.7 760.3,266.4 753.6,273.8 746.6,280.9 739.3,287.7 731.6,294.1 723.8,300.2 715.7,305.8 707.4,311.0 698.9,315.7 690.3,316.0 681.7,316.0 673.0,316.0 664.2,316.0 655.5,316.0 646.8,316.0 638.2,316.0 629.7,316.0 621.3,316.0 613.1,316.0 605.2,316.0 597.5,316.0 590.0,316.0 582.9,316.0 576.1,316.0 569.6,316.0 563.5,316.0 557.9,312.1 552.6,307.0 547.9,301.5 547.0,295.6 547.0,289.3 547.0,282.6 547.0,275.6 547.0,268.2 547.0,260.6 547.0,252.7 547.0,244.6 547.0,236.3 547.0,227.9 547.0,219.3 547.0,210.6 547.0,201.9 547.0,193.2 547.0,184.4 547.0,175.7 547.0,167.1 550.3,158.6 555.3,150.3 560.8,142.1 566.7,134.1 573.0,126.4 579.6,119.0 586.6,111.8 593.9,105.0 601.5,98.6 609.3,92.5 617.4,86.8 625.7,81.6 634.1,76.8 642.7,76.0 651.3,76.0 660.1,76.0 668.8,76.0 677.5,76.0 686.2,76.0 694.9,76.0 703.4,76.0 711.7,76.0 719.9,76.0 727.9,76.0 735.7,76.0 743.1,76.0 750.3,76.0 757.2,76.0 763.7,76.0 769.8,76.0 775.5,79.3 780.8,84.4 785.6,89.8 787.0,95.7 787.0,102.0 787.0,108.6 787.0,115.6 787.0,122.9 787.0,130.5 787.0,138.4 787.0,146.5 787.0,154.7 787.0,163.2 787.0,171.7 787.0,180.4 787.0,189.1 787.0,197.8 787.0,206.6 787.0,215.3 787.0,223.9 784.2,232.4 779.3,240.8 773.8,249.0 768.0,257.0 761.8,264.7 755.2,272.2 748.2,279.4 741.0,286.2 733.4,292.7 725.6,298.8 717.5,304.5 709.3,309.8 700.9,314.7 692.3,316.0 683.7,316.0 674.9,316.0 666.2,316.0 657.5,316.0 648.7,316.0 640.1,316.0 631.6,316.0 623.2,316.0 615.0,316.0 607.0,316.0 599.2,316.0 591.7,316.0 584.5,316.0 577.6,316.0 571.0,316.0 564.9,316.0 559.1,313.2 553.8,308.2 548.9,302.8 547.0,297.0 547.0,290.7 547.0,284.1 547.0,277.2 547.0,269.9 547.0,262.4 547.0,254.5 547.0,246.5 547.0,238.2 547.0,229.8 547.0,221.3 547.0,212.6 547.0,203.9 547.0,195.2 547.0,186.4 547.0,177.7 547.0,169.1 549.2,160.5 554.2,152.2 559.5,143.9 565.3,135.9 571.5,128.2 578.1,120.7 585.0,113.4 592.2,106.6 599.7,100.0 607.5,93.9 615.6,88.1 623.8,82.8 632.2,77.9 640.7,76.0 649.4,76.0 658.1,76.0 666.8,76.0 675.6,76.0 684.3,76.0 692.9,76.0 701.4,76.0 709.9,76.0 718.1,76.0 726.1,76.0 733.9,76.0 741.5,76.0 748.7,76.0 755.6,76.0 762.2,76.0 768.4,76.0 774.2,78.3 779.6,83.2 784.6,88.5 787.0,94.3 787.0,100.5 787.0,107.1 787.0,114.0 787.0,121.2 787.0,128.8 787.0,136.6 787.0,144.6 787.0,152.8 787.0,161.2 787.0,169.8 787.0,178.4 787.0,187.1 787.0,195.9 787.0,204.6 787.0,213.3 787.0,222.0 785.3,230.5 780.4,238.9 775.1,247.1 769.4,255.2 763.2,263.0" fill="none" stroke="#3b82f6" stroke-width="0.6" stroke-opacity="0.6"/>
  <text x="541" y="196" text-anchor="end" font-size="8" fill="#6b7280">R</text>
  <text x="667" y="328" text-anchor="middle" font-size="8" fill="#6b7280">L</text>
  <text x="667" y="71" text-anchor="middle" font-size="9" fill="#6b7280" font-weight="600">width=2</text>
</svg>
