<svg xmlns="http://www.w3.org/2000/svg" viewBox="0 0 820 392" style="font-family:system-ui,-apple-system,sans-serif">
  <defs>
    <clipPath id="u15"><rect x="34" y="16" width="766" height="360"/></clipPath>
  </defs>
  <text x="800" y="11" text-anchor="end" font-size="11" fill="#6b7280" font-weight="600">Transient shaper — attackGain=3, sustainGain=−0.7</text>
  <line x1="34" y1="16" x2="34" y2="376" stroke="#d1d5db" stroke-width="1"/>
  <line x1="34" y1="376" x2="800" y2="376" stroke="#d1d5db" stroke-width="1"/>
  <line x1="34" y1="16" x2="34" y2="376" stroke="#e5e7eb" stroke-width="0.5"/>
  <text x="34" y="388" text-anchor="middle" font-size="8" fill="#6b7280">0</text>
  <line x1="198.9" y1="16" x2="198.9" y2="376" stroke="#e5e7eb" stroke-width="0.5"/>
  <text x="198.9" y="388" text-anchor="middle" font-size="8" fill="#6b7280">10</text>
  <line x1="363.9" y1="16" x2="363.9" y2="376" stroke="#e5e7eb" stroke-width="0.5"/>
  <text x="363.9" y="388" text-anchor="middle" font-size="8" fill="#6b7280">20</text>
  <line x1="528.8" y1="16" x2="528.8" y2="376" stroke="#e5e7eb" stroke-width="0.5"/>
  <text x="528.8" y="388" text-anchor="middle" font-size="8" fill="#6b7280">30</text>
  <line x1="693.8" y1="16" x2="693.8" y2="376" stroke="#e5e7eb" stroke-width="0.5"/>
  <text x="693.8" y="388" text-anchor="middle" font-size="8" fill="#6b7280">40</text>
  <line x1="34" y1="346" x2="800" y2="346" stroke="#e5e7eb" stroke-width="0.5"/>
  <text x="30" y="349" text-anchor="end" font-size="8" fill="#6b7280">-1</text>
  <line x1="34" y1="271" x2="800" y2="271" stroke="#e5e7eb" stroke-width="0.5"/>
  <text x="30" y="274" text-anchor="end" font-size="8" fill="#6b7280">-0.5</text>
  <line x1="34" y1="196" x2="800" y2="196" stroke="#e5e7eb" stroke-width="0.5"/>
  <text x="30" y="199" text-anchor="end" font-size="8" fill="#6b7280">0</text>
  <line x1="34" y1="121" x2="800" y2="121" stroke="#e5e7eb" stroke-width="0.5"/>
  <text x="30" y="124" text-anchor="end" font-size="8" fill="#6b7280">0.5</text>
  <line x1="34" y1="46" x2="800" y2="46" stroke="#e5e7eb" stroke-width="0.5"/>
  <text x="30" y="49" text-anchor="end" font-size="8" fill="#6b7280">1</text>
  <line x1="34" y1="196" x2="800" y2="196" stroke="#d1d5db" stroke-width="0.5"/>
  <text x="417" y="402" text-anchor="middle" font-size="9" fill="#6b7280">ms</text>
  <text x="12" y="196" text-anchor="middle" font-size="9" fill="#6b7280">amp</text>
  <polyline clip-path="url(#u15)" points="34.5,196.0 34.5,193.7 35.5,191.5 35.5,187.2 36.5,185.2 36.5,181.2 37.5,179.3 37.5,177.5 38.5,175.7 38.5,172.3 39.5,170.7 39.5,167.6 40.5,166.1 40.5,164.7 41.5,163.3 41.5,160.7 42.5,159.5 42.5,157.2 43.5,156.1 43.5,155.1 44.5,154.1 44.5,152.2 45.5,151.3 45.5,149.7 46.5,148.9 46.5,148.2 47.5,147.5 47.5,146.3 48.5,145.7 48.5,144.7 49.5,144.3 49.5,143.8 50.5,143.5 50.5,142.8 51.5,142.5 51.5,142.0 52.5,141.8 52.5,141.6 53.5,141.5 53.5,141.3 54.5,141.2 54.5,141.2 55.5,141.2 55.5,141.2 56.5,141.5 56.5,141.3 57.5,141.9 57.5,141.6 58.5,142.3 58.5,142.1 59.5,143.0 59.5,142.5 60.5,143.9 60.5,143.3 61.5,144.6 61.5,144.3 62.5,145.7 62.5,144.9 63.5,146.9 63.5,146.1 64.5,147.8 64.5,147.4 65.5,149.2 65.5,148.3 66.5,150.7 66.5,149.7 67.5,151.7 67.5,151.2 68.5,153.3 68.5,152.2 69.5,154.9 69.5,153.8 70.5,156.0 70.5,155.4 71.5,157.7 71.5,156.6 72.5,159.4 72.5,158.3 73.5,160.6 73.5,160.0 74.5,162.3 74.5,161.2 75.5,164.1 75.5,162.9 76.5,165.2 76.5,164.7 77.5,167.0 77.5,165.8 78.5,168.7 78.5,167.6 79.5,169.9 79.5,169.3 80.5,171.6 80.5,170.4 81.5,173.2 81.5,172.1 82.5,174.9 82.5,173.8 83.5,175.9 83.5,175.4 84.5,177.5 84.5,176.5 85.5,179.0 85.5,178.0 86.5,180.0 86.5,179.5 87.5,181.5 87.5,180.5 88.5,182.9 88.5,182.0 89.5,183.8 89.5,183.4 90.5,185.1 90.5,184.3 91.5,186.4 91.5,185.6 92.5,187.2 92.5,186.8 93.5,188.4 93.5,187.6 94.5,189.5 94.5,188.8 95.5,190.2 95.5,189.9 96.5,191.3 96.5,190.6 97.5,192.2 97.5,191.6 98.5,192.9 98.5,192.6 99.5,193.7 99.5,193.2 100.5,194.6 100.5,194.0 101.5,195.1 101.5,194.8 102.5,195.8 102.5,195.3 103.5,196.5 103.5,196.1 104.5,196.9 104.5,196.7 105.5,197.5 105.5,197.1 106.5,198.1 106.5,197.7 107.5,198.4 107.5,198.3 108.5,198.9 108.5,198.6 109.5,199.3 109.5,199.0 110.5,199.6 110.5,199.4 111.5,199.9 111.5,199.7 112.5,200.2 112.5,200.0 113.5,200.4 113.5,200.3 114.5,200.7 114.5,200.5 115.5,200.9 115.5,200.8 116.5,201.0 116.5,201.0 117.5,201.2 117.5,201.1 118.5,201.3 118.5,201.2 119.5,201.4 119.5,201.3 120.5,201.4 120.5,201.4 121.5,201.5 121.5,201.5 122.5,201.5 122.5,201.5 123.5,201.5 123.5,201.5 124.5,201.5 124.5,201.5 125.5,201.5 125.5,201.5 126.5,201.5 126.5,201.4 127.5,201.4 127.5,201.4 128.5,201.3 128.5,201.3 129.5,201.3 129.5,201.2 130.5,201.2 130.5,201.1 131.5,201.1 131.5,201.0 132.5,201.0 132.5,200.9 133.5,200.9 133.5,200.8 134.5,200.7 134.5,200.6 135.5,200.6 135.5,200.5 136.5,200.5 136.5,200.4 137.5,200.3 137.5,200.2 138.5,200.2 138.5,200.1 139.5,200.1 139.5,200.0 140.5,199.9 140.5,199.8 141.5,199.7 141.5,199.7 142.5,199.6 142.5,199.5 143.5,199.4 143.5,199.3 144.5,199.3 144.5,199.2 145.5,199.1 145.5,199.0 146.5,199.0 146.5,198.8 147.5,198.8 147.5,198.7 148.5,198.7 148.5,198.6 149.5,198.5 149.5,198.4 150.5,198.3 150.5,198.3 151.5,198.2 151.5,198.1 152.5,198.1 152.5,198.0 153.5,197.9 153.5,197.8 154.5,197.8 154.5,197.7 155.5,197.6 155.5,197.5 156.5,197.5 156.5,197.4 157.5,197.4 157.5,197.3 158.5,197.3 158.5,197.2 159.5,197.1 159.5,197.1 160.5,197.0 160.5,197.0 161.5,196.9 161.5,196.8 162.5,196.8 162.5,196.8 163.5,196.7 163.5,196.6 164.5,196.6 164.5,196.5 165.5,196.5 165.5,196.5 166.5,196.4 166.5,196.4 167.5,196.3 167.5,196.3 168.5,196.2 168.5,196.2 169.5,196.2 169.5,196.1 170.5,196.1 170.5,196.1 171.5,196.0 171.5,196.0 172.5,196.0 172.5,195.9 173.5,195.9 173.5,195.9 174.5,195.9 174.5,195.8 175.5,195.8 175.5,195.8 176.5,195.8 176.5,195.7 177.5,195.7 177.5,195.7 178.5,195.7 178.5,195.7 179.5,195.6 179.5,195.6 180.5,195.6 180.5,195.6 181.5,195.6 181.5,195.6 182.5,195.6 182.5,195.5 183.5,195.5 183.5,195.5 184.5,195.5 184.5,195.5 185.5,195.5 185.5,195.5 186.5,195.5 186.5,195.5 187.5,195.5 187.5,195.5 188.5,195.5 188.5,195.5 189.5,195.5 189.5,195.5 190.5,195.4 190.5,195.4 191.5,195.4 191.5,195.4 192.5,195.4 192.5,195.4 193.5,195.4 193.5,195.4 194.5,195.5 194.5,195.4 195.5,195.5 195.5,195.5 196.5,195.5 196.5,195.5 197.5,195.5 197.5,195.5 198.5,195.5 198.5,195.5 199.5,195.5 199.5,195.5 200.5,195.5 200.5,195.5 201.5,195.5 201.5,195.5 202.5,195.5 202.5,195.5 203.5,195.5 203.5,195.5 204.5,195.5 204.5,195.5 205.5,195.6 205.5,195.6 206.5,195.6 206.5,195.6 207.5,195.6 207.5,195.6 208.5,195.6 208.5,195.6 209.5,195.6 209.5,195.6 210.5,195.6 210.5,195.6 211.5,195.7 211.5,195.6 212.5,195.7 212.5,195.7 213.5,195.7 213.5,195.7 214.5,195.7 214.5,195.7 215.5,195.7 215.5,195.7 216.5,195.7 216.5,195.7 217.5,195.7 217.5,195.7 218.5,195.8 218.5,195.7 219.5,195.8 219.5,195.8 220.5,195.8 220.5,195.8 221.5,195.8 221.5,195.8 222.5,195.8 222.5,195.8 223.5,195.8 223.5,195.8 224.5,195.8 224.5,195.8 225.5,195.9 225.5,195.9 226.5,195.9 226.5,195.9 227.5,195.9 227.5,195.9 228.5,195.9 228.5,195.9 229.5,195.9 229.5,195.9 230.5,195.9 230.5,195.9 231.5,195.9 231.5,195.9 232.5,195.9 232.5,195.9 233.5,195.9 233.5,195.9 234.5,196.0 234.5,196.0 235.5,196.0 235.5,196.0 236.5,196.0 236.5,196.0 237.5,196.0 237.5,196.0 238.5,196.0 238.5,196.0 239.5,196.0 239.5,196.0 240.5,196.0 240.5,196.0 241.5,196.0 241.5,196.0 242.5,196.0 242.5,196.0 243.5,196.0 243.5,196.0 244.5,196.0 244.5,196.0 245.5,196.0 245.5,196.0 246.5,196.0 246.5,196.0 247.5,196.0 247.5,196.0 248.5,196.0 248.5,196.0 249.5,196.0 249.5,196.0 250.5,196.0 250.5,196.0 251.5,196.0 251.5,196.0 252.5,196.0 252.5,196.0 253.5,196.1 253.5,196.0 254.5,196.1 254.5,196.1 255.5,196.1 255.5,196.1 256.5,196.1 256.5,196.1 257.5,196.1 257.5,196.1 258.5,196.1 258.5,196.1 259.5,196.1 259.5,196.1 260.5,196.1 260.5,196.1 261.5,196.1 261.5,196.1 262.5,196.1 262.5,196.1 263.5,196.1 263.5,196.1 264.5,196.1 264.5,196.1 265.5,196.1 265.5,196.1 266.5,196.1 266.5,196.1 267.5,196.1 267.5,196.1 268.5,196.1 268.5,196.1 269.5,196.1 269.5,196.1 270.5,196.1 270.5,196.0 271.5,196.0 271.5,196.0 272.5,196.0 272.5,196.0 273.5,196.0 273.5,196.0 274.5,196.0 274.5,196.0 275.5,196.0 275.5,196.0 276.5,196.0 276.5,196.0 277.5,196.0 277.5,196.0 278.5,196.0 278.5,196.0 279.5,196.0 279.5,196.0 280.5,196.0 280.5,196.0 281.5,196.0 281.5,196.0 282.5,196.0 282.5,196.0 283.5,196.0 283.5,196.0 284.5,196.0 284.5,196.0 285.5,196.0 285.5,196.0 286.5,196.0 286.5,196.0 287.5,196.0 287.5,196.0 288.5,196.0 288.5,196.0 289.5,196.0 289.5,196.0 290.5,196.0 290.5,196.0 291.5,196.0 291.5,196.0 292.5,196.0 292.5,196.0 293.5,196.0 293.5,196.0 294.5,196.0 294.5,196.0 295.5,196.0 295.5,196.0 296.5,196.0 296.5,196.0 297.5,196.0 297.5,196.0 298.5,196.0 298.5,196.0 299.5,196.0 299.5,196.0 300.5,196.0 300.5,196.0 301.5,196.0 301.5,196.0 302.5,196.0 302.5,196.0 303.5,196.0 303.5,196.0 304.5,196.0 304.5,196.0 305.5,196.0 305.5,196.0 306.5,196.0 306.5,196.0 307.5,196.0 307.5,196.0 308.5,196.0 308.5,196.0 309.5,196.0 309.5,196.0 310.5,196.0 310.5,196.0 311.5,196.0 311.5,196.0 312.5,196.0 312.5,196.0 313.5,196.0 313.5,196.0 314.5,196.0 314.5,196.0 315.5,196.0 315.5,196.0 316.5,196.0 316.5,196.0 317.5,196.0 317.5,196.0 318.5,196.0 318.5,196.0 319.5,196.0 319.5,196.0 320.5,196.0 320.5,196.0 321.5,196.0 321.5,196.0 322.5,196.0 322.5,196.0 323.5,196.0 323.5,196.0 324.5,196.0 324.5,196.0 325.5,196.0 325.5,196.0 326.5,196.0 326.5,196.0 327.5,196.0 327.5,196.0 328.5,196.0 328.5,196.0 329.5,196.0 329.5,196.0 330.5,196.0 330.5,196.0 331.5,196.0 331.5,196.0 332.5,196.0 332.5,196.0 333.5,196.0 333.5,196.0 334.5,196.0 334.5,196.0 335.5,196.0 335.5,196.0 336.5,196.0 336.5,196.0 337.5,196.0 337.5,196.0 338.5,196.0 338.5,196.0 339.5,196.0 339.5,196.0 340.5,196.0 340.5,196.0 341.5,196.0 341.5,196.0 342.5,196.0 342.5,196.0 343.5,196.0 343.5,196.0 344.5,196.0 344.5,196.0 345.5,196.0 345.5,196.0 346.5,196.0 346.5,196.0 347.5,196.0 347.5,196.0 348.5,196.0 348.5,196.0 349.5,196.0 349.5,196.0 350.5,196.0 350.5,196.0 351.5,196.0 351.5,196.0 352.5,196.0 352.5,196.0 353.5,196.0 353.5,196.0 354.5,196.0 354.5,196.0 355.5,196.0 355.5,196.0 356.5,196.0 356.5,196.0 357.5,196.0 357.5,196.0 358.5,196.0 358.5,196.0 359.5,196.0 359.5,196.0 360.5,196.0 360.5,196.0 361.5,196.0 361.5,196.0 362.5,196.0 362.5,196.0 363.5,196.0 363.5,196.0 364.5,196.0 364.5,196.0 365.5,196.0 365.5,196.0 366.5,196.0 366.5,196.0 367.5,196.0 367.5,196.0 368.5,196.0 368.5,196.0 369.5,196.0 369.5,196.0 370.5,196.0 370.5,196.0 371.5,196.0 371.5,196.0 372.5,196.0 372.5,196.0 373.5,196.0 373.5,196.0 374.5,196.0 374.5,196.0 375.5,196.0 375.5,196.0 376.5,196.0 376.5,196.0 377.5,196.0 377.5,196.0 378.5,196.0 378.5,196.0 379.5,196.0 379.5,196.0 380.5,196.0 380.5,196.0 381.5,196.0 381.5,196.0 382.5,196.0 382.5,196.0 383.5,196.0 383.5,196.0 384.5,196.0 384.5,196.0 385.5,196.0 385.5,196.0 386.5,196.0 386.5,196.0 387.5,196.0 387.5,196.0 388.5,196.0 388.5,196.0 389.5,196.0 389.5,196.0 390.5,196.0 390.5,196.0 391.5,196.0 391.5,196.0 392.5,196.0 392.5,196.0 393.5,196.0 393.5,196.0 394.5,196.0 394.5,196.0 395.5,196.0 395.5,196.0 396.5,196.0 396.5,196.0 397.5,196.0 397.5,196.0 398.5,196.0 398.5,196.0 399.5,196.0 399.5,196.0 400.5,196.0 400.5,196.0 401.5,196.0 401.5,196.0 402.5,196.0 402.5,196.0 403.5,196.0 403.5,196.0 404.5,196.0 404.5,196.0 405.5,196.0 405.5,196.0 406.5,196.0 406.5,196.0 407.5,196.0 407.5,196.0 408.5,196.0 408.5,196.0 409.5,196.0 409.5,196.0 410.5,196.0 410.5,196.0 411.5,196.0 411.5,196.0 412.5,196.0 412.5,196.0 413.5,196.0 413.5,196.0 414.5,196.0 414.5,196.0 415.5,196.0 415.5,196.0 416.5,196.0 416.5,196.0 417.5,196.0 417.5,196.0 418.5,196.0 418.5,196.0 419.5,196.0 419.5,196.0 420.5,196.0 420.5,196.0 421.5,196.0 421.5,196.0 422.5,196.0 422.5,196.0 423.5,196.0 423.5,196.0 424.5,196.0 424.5,196.0 425.5,196.0 425.5,196.0 426.5,196.0 426.5,196.0 427.5,196.0 427.5,196.0 428.5,196.0 428.5,196.0 429.5,196.0 429.5,196.0 430.5,196.0 430.5,196.0 431.5,196.0 431.5,196.0 432.5,196.0 432.5,196.0 433.5,196.0 433.5,196.0 434.5,196.0 434.5,196.0 435.5,196.0 435.5,196.0 436.5,196.0 436.5,196.0 437.5,196.0 437.5,196.0 438.5,196.0 438.5,196.0 439.5,196.0 439.5,196.0 440.5,196.0 440.5,196.0 441.5,196.0 441.5,196.0 442.5,196.0 442.5,196.0 443.5,196.0 443.5,196.0 444.5,196.0 444.5,196.0 445.5,196.0 445.5,196.0 446.5,196.0 446.5,196.0 447.5,196.0 447.5,196.0 448.5,196.0 448.5,196.0 449.5,196.0 449.5,196.0 450.5,196.0 450.5,196.0 451.5,196.0 451.5,196.0 452.5,196.0 452.5,196.0 453.5,196.0 453.5,196.0 454.5,196.0 454.5,196.0 455.5,196.0 455.5,196.0 456.5,196.0 456.5,196.0 457.5,196.0 457.5,196.0 458.5,196.0 458.5,196.0 459.5,196.0 459.5,196.0 460.5,196.0 460.5,196.0 461.5,196.0 461.5,196.0 462.5,196.0 462.5,196.0 463.5,196.0 463.5,196.0 464.5,196.0 464.5,196.0 465.5,196.0 465.5,196.0 466.5,196.0 466.5,196.0 467.5,196.0 467.5,196.0 468.5,196.0 468.5,196.0 469.5,196.0 469.5,196.0 470.5,196.0 470.5,196.0 471.5,196.0 471.5,196.0 472.5,196.0 472.5,196.0 473.5,196.0 473.5,196.0 474.5,196.0 474.5,196.0 475.5,196.0 475.5,196.0 476.5,196.0 476.5,196.0 477.5,196.0 477.5,196.0 478.5,196.0 478.5,196.0 479.5,196.0 479.5,196.0 480.5,196.0 480.5,196.0 481.5,196.0 481.5,196.0 482.5,196.0 482.5,196.0 483.5,196.0 483.5,196.0 484.5,196.0 484.5,196.0 485.5,196.0 485.5,196.0 486.5,196.0 486.5,196.0 487.5,196.0 487.5,196.0 488.5,196.0 488.5,196.0 489.5,196.0 489.5,196.0 490.5,196.0 490.5,196.0 491.5,196.0 491.5,196.0 492.5,196.0 492.5,196.0 493.5,196.0 493.5,196.0 494.5,196.0 494.5,196.0 495.5,196.0 495.5,196.0 496.5,196.0 496.5,196.0 497.5,196.0 497.5,196.0 498.5,196.0 498.5,196.0 499.5,196.0 499.5,196.0 500.5,196.0 500.5,196.0 501.5,196.0 501.5,196.0 502.5,196.0 502.5,196.0 503.5,196.0 503.5,196.0 504.5,196.0 504.5,196.0 505.5,196.0 505.5,196.0 506.5,196.0 506.5,196.0 507.5,196.0 507.5,196.0 508.5,196.0 508.5,196.0 509.5,196.0 509.5,196.0 510.5,196.0 510.5,196.0 511.5,196.0 511.5,196.0 512.5,196.0 512.5,196.0 513.5,196.0 513.5,196.0 514.5,196.0 514.5,196.0 515.5,196.0 515.5,196.0 516.5,196.0 516.5,196.0 517.5,196.0 517.5,196.0 518.5,196.0 518.5,196.0 519.5,196.0 519.5,196.0 520.5,196.0 520.5,196.0 521.5,196.0 521.5,196.0 522.5,196.0 522.5,196.0 523.5,196.0 523.5,196.0 524.5,196.0 524.5,196.0 525.5,196.0 525.5,196.0 526.5,196.0 526.5,196.0 527.5,196.0 527.5,196.0 528.5,196.0 528.5,196.0 529.5,196.0 529.5,196.0 530.5,196.0 530.5,196.0 531.5,196.0 531.5,196.0 532.5,196.0 532.5,196.0 533.5,196.0 533.5,196.0 534.5,196.0 534.5,196.0 535.5,196.0 535.5,196.0 536.5,196.0 536.5,196.0 537.5,196.0 537.5,196.0 538.5,196.0 538.5,196.0 539.5,196.0 539.5,196.0 540.5,196.0 540.5,196.0 541.5,196.0 541.5,196.0 542.5,196.0 542.5,196.0 543.5,196.0 543.5,196.0 544.5,196.0 544.5,196.0 545.5,196.0 545.5,196.0 546.5,196.0 546.5,196.0 547.5,196.0 547.5,196.0 548.5,196.0 548.5,196.0 549.5,196.0 549.5,196.0 550.5,196.0 550.5,196.0 551.5,196.0 551.5,196.0 552.5,196.0 552.5,196.0 553.5,196.0 553.5,196.0 554.5,196.0 554.5,196.0 555.5,196.0 555.5,196.0 556.5,196.0 556.5,196.0 557.5,196.0 557.5,196.0 558.5,196.0 558.5,196.0 559.5,196.0 559.5,196.0 560.5,196.0 560.5,196.0 561.5,196.0 561.5,196.0 562.5,196.0 562.5,196.0 563.5,196.0 563.5,196.0 564.5,196.0 564.5,196.0 565.5,196.0 565.5,196.0 566.5,196.0 566.5,196.0 567.5,196.0 567.5,196.0 568.5,196.0 568.5,196.0 569.5,196.0 569.5,196.0 570.5,196.0 570.5,196.0 571.5,196.0 571.5,196.0 572.5,196.0 572.5,196.0 573.5,196.0 573.5,196.0 574.5,196.0 574.5,196.0 575.5,196.0 575.5,196.0 576.5,196.0 576.5,196.0 577.5,196.0 577.5,196.0 578.5,196.0 578.5,196.0 579.5,196.0 579.5,196.0 580.5,196.0 580.5,196.0 581.5,196.0 581.5,196.0 582.5,196.0 582.5,196.0 583.5,196.0 583.5,196.0 584.5,196.0 584.5,196.0 585.5,196.0 585.5,196.0 586.5,196.0 586.5,196.0 587.5,196.0 587.5,196.0 588.5,196.0 588.5,196.0 589.5,196.0 589.5,196.0 590.5,196.0 590.5,196.0 591.5,196.0 591.5,196.0 592.5,196.0 592.5,196.0 593.5,196.0 593.5,196.0 594.5,196.0 594.5,196.0 595.5,196.0 595.5,196.0 596.5,196.0 596.5,196.0 597.5,196.0 597.5,196.0 598.5,196.0 598.5,196.0 599.5,196.0 599.5,196.0 600.5,196.0 600.5,196.0 601.5,196.0 601.5,196.0 602.5,196.0 602.5,196.0 603.5,196.0 603.5,196.0 604.5,196.0 604.5,196.0 605.5,196.0 605.5,196.0 606.5,196.0 606.5,196.0 607.5,196.0 607.5,196.0 608.5,196.0 608.5,196.0 609.5,196.0 609.5,196.0 610.5,196.0 610.5,196.0 611.5,196.0 611.5,196.0 612.5,196.0 612.5,196.0 613.5,196.0 613.5,196.0 614.5,196.0 614.5,196.0 615.5,196.0 615.5,196.0 616.5,196.0 616.5,196.0 617.5,196.0 617.5,196.0 618.5,196.0 618.5,196.0 619.5,196.0 619.5,196.0 620.5,196.0 620.5,196.0 621.5,196.0 621.5,196.0 622.5,196.0 622.5,196.0 623.5,196.0 623.5,196.0 624.5,196.0 624.5,196.0 625.5,196.0 625.5,196.0 626.5,196.0 626.5,196.0 627.5,196.0 627.5,196.0 628.5,196.0 628.5,196.0 629.5,196.0 629.5,196.0 630.5,196.0 630.5,196.0 631.5,196.0 631.5,196.0 632.5,196.0 632.5,196.0 633.5,196.0 633.5,196.0 634.5,196.0 634.5,196.0 635.5,196.0 635.5,196.0 636.5,196.0 636.5,196.0 637.5,196.0 637.5,196.0 638.5,196.0 638.5,196.0 639.5,196.0 639.5,196.0 640.5,196.0 640.5,196.0 641.5,196.0 641.5,196.0 642.5,196.0 642.5,196.0 643.5,196.0 643.5,196.0 644.5,196.0 644.5,196.0 645.5,196.0 645.5,196.0 646.5,196.0 646.5,196.0 647.5,196.0 647.5,196.0 648.5,196.0 648.5,196.0 649.5,196.0 649.5,196.0 650.5,196.0 650.5,196.0 651.5,196.0 651.5,196.0 652.5,196.0 652.5,196.0 653.5,196.0 653.5,196.0 654.5,196.0 654.5,196.0 655.5,196.0 655.5,196.0 656.5,196.0 656.5,196.0 657.5,196.0 657.5,196.0 658.5,196.0 658.5,196.0 659.5,196.0 659.5,196.0 660.5,196.0 660.5,196.0 661.5,196.0 661.5,196.0 662.5,196.0 662.5,196.0 663.5,196.0 663.5,196.0 664.5,196.0 664.5,196.0 665.5,196.0 665.5,196.0 666.5,196.0 666.5,196.0 667.5,196.0 667.5,196.0 668.5,196.0 668.5,196.0 669.5,196.0 669.5,196.0 670.5,196.0 670.5,196.0 671.5,196.0 671.5,196.0 672.5,196.0 672.5,196.0 673.5,196.0 673.5,196.0 674.5,196.0 674.5,196.0 675.5,196.0 675.5,196.0 676.5,196.0 676.5,196.0 677.5,196.0 677.5,196.0 678.5,196.0 678.5,196.0 679.5,196.0 679.5,196.0 680.5,196.0 680.5,196.0 681.5,196.0 681.5,196.0 682.5,196.0 682.5,196.0 683.5,196.0 683.5,196.0 684.5,196.0 684.5,196.0 685.5,196.0 685.5,196.0 686.5,196.0 686.5,196.0 687.5,196.0 687.5,196.0 688.5,196.0 688.5,196.0 689.5,196.0 689.5,196.0 690.5,196.0 690.5,196.0 691.5,196.0 691.5,196.0 692.5,196.0 692.5,196.0 693.5,196.0 693.5,196.0 694.5,196.0 694.5,196.0 695.5,196.0 695.5,196.0 696.5,196.0 696.5,196.0 697.5,196.0 697.5,196.0 698.5,196.0 698.5,196.0 699.5,196.0 699.5,196.0 700.5,196.0 700.5,196.0 701.5,196.0 701.5,196.0 702.5,196.0 702.5,196.0 703.5,196.0 703.5,196.0 704.5,196.0 704.5,196.0 705.5,196.0 705.5,196.0 706.5,196.0 706.5,196.0 707.5,196.0 707.5,196.0 708.5,196.0 708.5,196.0 709.5,196.0 709.5,196.0 710.5,196.0 710.5,196.0 711.5,196.0 711.5,196.0 712.5,196.0 712.5,196.0 713.5,196.0 713.5,196.0 714.5,196.0 714.5,196.0 715.5,196.0 715.5,196.0 716.5,196.0 716.5,196.0 717.5,196.0 717.5,196.0 718.5,196.0 718.5,196.0 719.5,196.0 719.5,196.0 720.5,196.0 720.5,196.0 721.5,196.0 721.5,196.0 722.5,196.0 722.5,196.0 723.5,196.0 723.5,196.0 724.5,196.0 724.5,196.0 725.5,196.0 725.5,196.0 726.5,196.0 726.5,196.0 727.5,196.0 727.5,196.0 728.5,196.0 728.5,196.0 729.5,196.0 729.5,196.0 730.5,196.0 730.5,196.0 731.5,196.0 731.5,196.0 732.5,196.0 732.5,196.0 733.5,196.0 733.5,196.0 734.5,196.0 734.5,196.0 735.5,196.0 735.5,196.0 736.5,196.0 736.5,196.0 737.5,196.0 737.5,196.0 738.5,196.0 738.5,196.0 739.5,196.0 739.5,196.0 740.5,196.0 740.5,196.0 741.5,196.0 741.5,196.0 742.5,196.0 742.5,196.0 743.5,196.0 743.5,196.0 744.5,196.0 744.5,196.0 745.5,196.0 745.5,196.0 746.5,196.0 746.5,196.0 747.5,196.0 747.5,196.0 748.5,196.0 748.5,196.0 749.5,196.0 749.5,196.0 750.5,196.0 750.5,196.0 751.5,196.0 751.5,196.0 752.5,196.0 752.5,196.0 753.5,196.0 753.5,196.0 754.5,196.0 754.5,196.0 755.5,196.0 755.5,196.0 756.5,196.0 756.5,196.0 757.5,196.0 757.5,196.0 758.5,196.0 758.5,196.0 759.5,196.0 759.5,196.0 760.5,196.0 760.5,196.0 761.5,196.0 761.5,196.0 762.5,196.0 762.5,196.0 763.5,196.0 763.5,196.0 764.5,196.0 764.5,196.0 765.5,196.0 765.5,196.0 766.5,196.0 766.5,196.0 767.5,196.0 767.5,196.0 768.5,196.0 768.5,196.0 769.5,196.0 769.5,196.0 770.5,196.0 770.5,196.0 771.5,196.0 771.5,196.0 772.5,196.0 772.5,196.0 773.5,196.0 773.5,196.0 774.5,196.0 774.5,196.0 775.5,196.0 775.5,196.0 776.5,196.0 776.5,196.0 777.5,196.0 777.5,196.0 778.5,196.0 778.5,196.0 779.5,196.0 779.5,196.0 780.5,196.0 780.5,196.0 781.5,196.0 781.5,196.0 782.5,196.0 782.5,196.0 783.5,196.0 783.5,196.0 784.5,196.0 784.5,196.0 785.5,196.0 785.5,196.0 786.5,196.0 786.5,196.0 787.5,196.0 787.5,196.0 788.5,196.0 788.5,196.0 789.5,196.0 789.5,196.0 790.5,196.0 790.5,196.0 791.5,196.0 791.5,196.0 792.5,196.0 792.5,196.0 793.5,196.0 793.5,196.0 794.5,196.0 794.5,196.0 795.5,196.0 795.5,196.0 796.5,196.0 796.5,196.0 797.5,196.0 797.5,196.0 798.5,196.0 798.5,196.0 799.5,196.0 799.5,196.0" fill="none" stroke="#d1d5db" stroke-width="1.5" stroke-linejoin="round"/>
  <polyline clip-path="url(#u15)" points="34.5,196.0 34.5,16.0 35.5,16.0 35.5,16.0 36.5,16.0 36.5,16.0 37.5,16.0 37.5,16.0 38.5,16.0 38.5,16.0 39.5,16.0 39.5,16.0 40.5,16.0 40.5,16.0 41.5,16.0 41.5,16.0 42.5,16.0 42.5,16.0 43.5,16.0 43.5,16.0 44.5,16.0 44.5,16.0 45.5,16.0 45.5,16.0 46.5,16.0 46.5,16.0 47.5,16.0 47.5,16.0 48.5,16.0 48.5,16.0 49.5,16.0 49.5,16.0 50.5,16.0 50.5,16.0 51.5,16.0 51.5,16.0 52.5,16.0 52.5,16.0 53.5,16.0 53.5,16.0 54.5,16.0 54.5,16.0 55.5,16.0 55.5,16.0 56.5,16.0 56.5,16.0 57.5,16.0 57.5,16.0 58.5,16.0 58.5,16.0 59.5,16.0 59.5,16.0 60.5,16.0 60.5,16.0 61.5,16.0 61.5,16.0 62.5,16.0 62.5,16.0 63.5,16.0 63.5,16.0 64.5,16.0 64.5,16.0 65.5,16.0 65.5,16.0 66.5,16.0 66.5,16.0 67.5,16.0 67.5,16.0 68.5,16.0 68.5,16.0 69.5,16.0 69.5,16.0 70.5,16.0 70.5,16.0 71.5,16.0 71.5,16.0 72.5,16.0 72.5,16.0 73.5,16.0 73.5,16.0 74.5,16.0 74.5,16.0 75.5,16.0 75.5,16.0 76.5,16.0 76.5,16.0 77.5,16.0 77.5,16.0 78.5,16.0 78.5,16.0 79.5,16.0 79.5,16.0 80.5,16.0 80.5,16.0 81.5,16.0 81.5,16.0 82.5,16.0 82.5,16.0 83.5,16.0 83.5,16.0 84.5,16.0 84.5,16.0 85.5,16.0 85.5,16.0 86.5,16.0 86.5,16.0 87.5,16.0 87.5,16.0 88.5,16.0 88.5,16.0 89.5,16.0 89.5,16.0 90.5,16.0 90.5,16.0 91.5,16.0 91.5,16.0 92.5,16.0 92.5,16.0 93.5,16.0 93.5,16.0 94.5,16.0 94.5,16.0 95.5,16.0 95.5,16.0 96.5,16.0 96.5,16.0 97.5,16.0 97.5,16.0 98.5,16.8 98.5,16.0 99.5,67.3 99.5,34.0 100.5,114.4 100.5,83.4 101.5,144.1 101.5,129.4 102.5,186.0 102.5,158.4 103.5,224.9 103.5,199.3 104.5,249.2 104.5,237.2 105.5,283.2 105.5,260.8 106.5,314.2 106.5,293.8 107.5,333.4 107.5,324.0 108.5,359.8 108.5,342.5 109.5,376.0 109.5,368.0 110.5,376.0 110.5,376.0 111.5,376.0 111.5,376.0 112.5,376.0 112.5,376.0 113.5,376.0 113.5,376.0 114.5,376.0 114.5,376.0 115.5,376.0 115.5,376.0 116.5,376.0 116.5,376.0 117.5,376.0 117.5,376.0 118.5,376.0 118.5,376.0 119.5,376.0 119.5,376.0 120.5,376.0 120.5,376.0 121.5,376.0 121.5,376.0 122.5,376.0 122.5,376.0 123.5,376.0 123.5,376.0 124.5,376.0 124.5,376.0 125.5,376.0 125.5,376.0 126.5,376.0 126.5,376.0 127.5,376.0 127.5,376.0 128.5,376.0 128.5,376.0 129.5,376.0 129.5,376.0 130.5,376.0 130.5,376.0 131.5,376.0 131.5,376.0 132.5,376.0 132.5,376.0 133.5,376.0 133.5,376.0 134.5,376.0 134.5,376.0 135.5,376.0 135.5,376.0 136.5,376.0 136.5,376.0 137.5,376.0 137.5,376.0 138.5,376.0 138.5,376.0 139.5,376.0 139.5,376.0 140.5,376.0 140.5,376.0 141.5,376.0 141.5,376.0 142.5,376.0 142.5,376.0 143.5,374.6 143.5,368.3 144.5,365.1 144.5,362.0 145.5,358.8 145.5,352.6 146.5,349.4 146.5,343.2 147.5,340.2 147.5,337.1 148.5,334.1 148.5,328.0 149.5,325.0 149.5,319.1 150.5,316.1 150.5,313.2 151.5,310.3 151.5,304.6 152.5,301.8 152.5,296.3 153.5,293.5 153.5,290.8 154.5,288.1 154.5,282.8 155.5,280.2 155.5,275.1 156.5,272.6 156.5,270.1 157.5,267.6 157.5,262.8 158.5,260.4 158.5,255.8 159.5,253.5 159.5,251.3 160.5,249.1 160.5,244.7 161.5,242.6 161.5,238.5 162.5,236.5 162.5,234.5 163.5,232.6 163.5,228.8 164.5,226.9 164.5,223.3 165.5,221.6 165.5,219.8 166.5,218.1 166.5,214.9 167.5,213.3 167.5,210.2 168.5,208.7 168.5,207.2 169.5,205.8 169.5,203.0 170.5,201.7 170.5,199.1 171.5,197.8 171.5,196.6 172.5,195.4 172.5,193.1 173.5,192.0 173.5,189.9 174.5,188.9 174.5,187.9 175.5,186.9 175.5,185.1 176.5,184.2 176.5,182.6 177.5,181.8 177.5,180.2 178.5,179.5 178.5,178.8 179.5,178.2 179.5,176.9 180.5,176.3 180.5,175.2 181.5,174.7 181.5,174.2 182.5,173.7 182.5,172.8 183.5,172.4 183.5,171.6 184.5,171.2 184.5,170.9 185.5,170.6 185.5,170.0 186.5,169.8 186.5,169.3 187.5,169.1 187.5,168.9 188.5,168.7 188.5,168.4 189.5,168.3 189.5,168.1 190.5,168.0 190.5,168.0 191.5,167.9 191.5,167.9 192.5,167.9 192.5,167.8 193.5,167.9 193.5,167.9 194.5,168.1 194.5,168.0 195.5,168.4 195.5,168.2 196.5,168.6 196.5,168.5 197.5,169.1 197.5,168.8 198.5,169.6 198.5,169.2 199.5,169.9 199.5,169.7 200.5,170.5 200.5,170.1 201.5,171.2 201.5,170.8 202.5,171.7 202.5,171.4 203.5,172.4 203.5,171.9 204.5,173.2 204.5,172.7 205.5,173.7 205.5,173.5 206.5,174.6 206.5,174.0 207.5,175.4 207.5,174.8 208.5,176.0 208.5,175.7 209.5,176.9 209.5,176.3 210.5,177.8 210.5,177.2 211.5,178.3 211.5,178.0 212.5,179.2 212.5,178.6 213.5,180.1 213.5,179.5 214.5,180.7 214.5,180.4 215.5,181.6 215.5,181.0 216.5,182.5 216.5,181.9 217.5,183.1 217.5,182.8 218.5,184.0 218.5,183.4 219.5,184.8 219.5,184.2 220.5,185.4 220.5,185.1 221.5,186.2 221.5,185.6 222.5,187.0 222.5,186.4 223.5,187.5 223.5,187.2 224.5,188.2 224.5,187.7 225.5,189.0 225.5,188.5 226.5,189.7 226.5,189.2 227.5,190.1 227.5,189.9 228.5,190.8 228.5,190.4 229.5,191.4 229.5,191.0 230.5,191.8 230.5,191.6 231.5,192.4 231.5,192.0 232.5,193.0 232.5,192.6 233.5,193.3 233.5,193.2 234.5,193.8 234.5,193.5 235.5,194.3 235.5,194.0 236.5,194.6 236.5,194.5 237.5,195.1 237.5,194.8 238.5,195.5 238.5,195.2 239.5,195.7 239.5,195.6 240.5,196.1 240.5,195.8 241.5,196.4 241.5,196.2 242.5,196.6 242.5,196.5 243.5,196.9 243.5,196.7 244.5,197.2 244.5,197.0 245.5,197.4 245.5,197.3 246.5,197.6 246.5,197.4 247.5,197.8 247.5,197.7 248.5,197.9 248.5,197.9 249.5,198.1 249.5,198.0 250.5,198.2 250.5,198.1 251.5,198.3 251.5,198.3 252.5,198.4 252.5,198.4 253.5,198.5 253.5,198.5 254.5,198.6 254.5,198.6 255.5,198.7 255.5,198.6 256.5,198.7 256.5,198.7 257.5,198.8 257.5,198.7 258.5,198.8 258.5,198.8 259.5,198.8 259.5,198.8 260.5,198.8 260.5,198.8 261.5,198.8 261.5,198.8 262.5,198.8 262.5,198.8 263.5,198.8 263.5,198.8 264.5,198.8 264.5,198.8 265.5,198.7 265.5,198.7 266.5,198.7 266.5,198.7 267.5,198.7 267.5,198.6 268.5,198.6 268.5,198.6 269.5,198.6 269.5,198.5 270.5,198.5 270.5,198.5 271.5,198.5 271.5,198.4 272.5,198.4 272.5,198.4 273.5,198.3 273.5,198.3 274.5,198.3 274.5,198.2 275.5,198.2 275.5,198.1 276.5,198.1 276.5,198.1 277.5,198.0 277.5,198.0 278.5,197.9 278.5,197.9 279.5,197.9 279.5,197.8 280.5,197.8 280.5,197.7 281.5,197.7 281.5,197.6 282.5,197.6 282.5,197.6 283.5,197.6 283.5,197.5 284.5,197.5 284.5,197.4 285.5,197.4 285.5,197.3 286.5,197.3 286.5,197.3 287.5,197.2 287.5,197.2 288.5,197.1 288.5,197.1 289.5,197.1 289.5,197.0 290.5,197.0 290.5,197.0 291.5,196.9 291.5,196.9 292.5,196.9 292.5,196.8 293.5,196.8 293.5,196.7 294.5,196.7 294.5,196.7 295.5,196.7 295.5,196.6 296.5,196.6 296.5,196.6 297.5,196.5 297.5,196.5 298.5,196.5 298.5,196.5 299.5,196.4 299.5,196.4 300.5,196.4 300.5,196.4 301.5,196.3 301.5,196.3 302.5,196.3 302.5,196.2 303.5,196.2 303.5,196.2 304.5,196.2 304.5,196.2 305.5,196.1 305.5,196.1 306.5,196.1 306.5,196.1 307.5,196.1 307.5,196.0 308.5,196.0 308.5,196.0 309.5,196.0 309.5,196.0 310.5,196.0 310.5,196.0 311.5,195.9 311.5,195.9 312.5,195.9 312.5,195.9 313.5,195.9 313.5,195.9 314.5,195.9 314.5,195.9 315.5,195.8 315.5,195.8 316.5,195.8 316.5,195.8 317.5,195.8 317.5,195.8 318.5,195.8 318.5,195.8 319.5,195.8 319.5,195.8 320.5,195.8 320.5,195.8 321.5,195.8 321.5,195.8 322.5,195.7 322.5,195.7 323.5,195.7 323.5,195.7 324.5,195.7 324.5,195.7 325.5,195.7 325.5,195.7 326.5,195.7 326.5,195.7 327.5,195.7 327.5,195.7 328.5,195.7 328.5,195.7 329.5,195.7 329.5,195.7 330.5,195.7 330.5,195.7 331.5,195.7 331.5,195.7 332.5,195.7 332.5,195.7 333.5,195.7 333.5,195.7 334.5,195.7 334.5,195.7 335.5,195.7 335.5,195.7 336.5,195.7 336.5,195.7 337.5,195.7 337.5,195.7 338.5,195.7 338.5,195.7 339.5,195.8 339.5,195.7 340.5,195.8 340.5,195.8 341.5,195.8 341.5,195.8 342.5,195.8 342.5,195.8 343.5,195.8 343.5,195.8 344.5,195.8 344.5,195.8 345.5,195.8 345.5,195.8 346.5,195.8 346.5,195.8 347.5,195.8 347.5,195.8 348.5,195.8 348.5,195.8 349.5,195.8 349.5,195.8 350.5,195.8 350.5,195.8 351.5,195.8 351.5,195.8 352.5,195.9 352.5,195.8 353.5,195.9 353.5,195.9 354.5,195.9 354.5,195.9 355.5,195.9 355.5,195.9 356.5,195.9 356.5,195.9 357.5,195.9 357.5,195.9 358.5,195.9 358.5,195.9 359.5,195.9 359.5,195.9 360.5,195.9 360.5,195.9 361.5,195.9 361.5,195.9 362.5,195.9 362.5,195.9 363.5,195.9 363.5,195.9 364.5,195.9 364.5,195.9 365.5,195.9 365.5,195.9 366.5,196.0 366.5,195.9 367.5,196.0 367.5,196.0 368.5,196.0 368.5,196.0 369.5,196.0 369.5,196.0 370.5,196.0 370.5,196.0 371.5,196.0 371.5,196.0 372.5,196.0 372.5,196.0 373.5,196.0 373.5,196.0 374.5,196.0 374.5,196.0 375.5,196.0 375.5,196.0 376.5,196.0 376.5,196.0 377.5,196.0 377.5,196.0 378.5,196.0 378.5,196.0 379.5,196.0 379.5,196.0 380.5,196.0 380.5,196.0 381.5,196.0 381.5,196.0 382.5,196.0 382.5,196.0 383.5,196.0 383.5,196.0 384.5,196.0 384.5,196.0 385.5,196.0 385.5,196.0 386.5,196.0 386.5,196.0 387.5,196.0 387.5,196.0 388.5,196.0 388.5,196.0 389.5,196.0 389.5,196.0 390.5,196.0 390.5,196.0 391.5,196.0 391.5,196.0 392.5,196.0 392.5,196.0 393.5,196.0 393.5,196.0 394.5,196.0 394.5,196.0 395.5,196.0 395.5,196.0 396.5,196.0 396.5,196.0 397.5,196.0 397.5,196.0 398.5,196.0 398.5,196.0 399.5,196.0 399.5,196.0 400.5,196.0 400.5,196.0 401.5,196.0 401.5,196.0 402.5,196.0 402.5,196.0 403.5,196.0 403.5,196.0 404.5,196.0 404.5,196.0 405.5,196.0 405.5,196.0 406.5,196.0 406.5,196.0 407.5,196.0 407.5,196.0 408.5,196.0 408.5,196.0 409.5,196.0 409.5,196.0 410.5,196.0 410.5,196.0 411.5,196.0 411.5,196.0 412.5,196.0 412.5,196.0 413.5,196.0 413.5,196.0 414.5,196.0 414.5,196.0 415.5,196.0 415.5,196.0 416.5,196.0 416.5,196.0 417.5,196.0 417.5,196.0 418.5,196.0 418.5,196.0 419.5,196.0 419.5,196.0 420.5,196.0 420.5,196.0 421.5,196.0 421.5,196.0 422.5,196.0 422.5,196.0 423.5,196.0 423.5,196.0 424.5,196.0 424.5,196.0 425.5,196.0 425.5,196.0 426.5,196.0 426.5,196.0 427.5,196.0 427.5,196.0 428.5,196.0 428.5,196.0 429.5,196.0 429.5,196.0 430.5,196.0 430.5,196.0 431.5,196.0 431.5,196.0 432.5,196.0 432.5,196.0 433.5,196.0 433.5,196.0 434.5,196.0 434.5,196.0 435.5,196.0 435.5,196.0 436.5,196.0 436.5,196.0 437.5,196.0 437.5,196.0 438.5,196.0 438.5,196.0 439.5,196.0 439.5,196.0 440.5,196.0 440.5,196.0 441.5,196.0 441.5,196.0 442.5,196.0 442.5,196.0 443.5,196.0 443.5,196.0 444.5,196.0 444.5,196.0 445.5,196.0 445.5,196.0 446.5,196.0 446.5,196.0 447.5,196.0 447.5,196.0 448.5,196.0 448.5,196.0 449.5,196.0 449.5,196.0 450.5,196.0 450.5,196.0 451.5,196.0 451.5,196.0 452.5,196.0 452.5,196.0 453.5,196.0 453.5,196.0 454.5,196.0 454.5,196.0 455.5,196.0 455.5,196.0 456.5,196.0 456.5,196.0 457.5,196.0 457.5,196.0 458.5,196.0 458.5,196.0 459.5,196.0 459.5,196.0 460.5,196.0 460.5,196.0 461.5,196.0 461.5,196.0 462.5,196.0 462.5,196.0 463.5,196.0 463.5,196.0 464.5,196.0 464.5,196.0 465.5,196.0 465.5,196.0 466.5,196.0 466.5,196.0 467.5,196.0 467.5,196.0 468.5,196.0 468.5,196.0 469.5,196.0 469.5,196.0 470.5,196.0 470.5,196.0 471.5,196.0 471.5,196.0 472.5,196.0 472.5,196.0 473.5,196.0 473.5,196.0 474.5,196.0 474.5,196.0 475.5,196.0 475.5,196.0 476.5,196.0 476.5,196.0 477.5,196.0 477.5,196.0 478.5,196.0 478.5,196.0 479.5,196.0 479.5,196.0 480.5,196.0 480.5,196.0 481.5,196.0 481.5,196.0 482.5,196.0 482.5,196.0 483.5,196.0 483.5,196.0 484.5,196.0 484.5,196.0 485.5,196.0 485.5,196.0 486.5,196.0 486.5,196.0 487.5,196.0 487.5,196.0 488.5,196.0 488.5,196.0 489.5,196.0 489.5,196.0 490.5,196.0 490.5,196.0 491.5,196.0 491.5,196.0 492.5,196.0 492.5,196.0 493.5,196.0 493.5,196.0 494.5,196.0 494.5,196.0 495.5,196.0 495.5,196.0 496.5,196.0 496.5,196.0 497.5,196.0 497.5,196.0 498.5,196.0 498.5,196.0 499.5,196.0 499.5,196.0 500.5,196.0 500.5,196.0 501.5,196.0 501.5,196.0 502.5,196.0 502.5,196.0 503.5,196.0 503.5,196.0 504.5,196.0 504.5,196.0 505.5,196.0 505.5,196.0 506.5,196.0 506.5,196.0 507.5,196.0 507.5,196.0 508.5,196.0 508.5,196.0 509.5,196.0 509.5,196.0 510.5,196.0 510.5,196.0 511.5,196.0 511.5,196.0 512.5,196.0 512.5,196.0 513.5,196.0 513.5,196.0 514.5,196.0 514.5,196.0 515.5,196.0 515.5,196.0 516.5,196.0 516.5,196.0 517.5,196.0 517.5,196.0 518.5,196.0 518.5,196.0 519.5,196.0 519.5,196.0 520.5,196.0 520.5,196.0 521.5,196.0 521.5,196.0 522.5,196.0 522.5,196.0 523.5,196.0 523.5,196.0 524.5,196.0 524.5,196.0 525.5,196.0 525.5,196.0 526.5,196.0 526.5,196.0 527.5,196.0 527.5,196.0 528.5,196.0 528.5,196.0 529.5,196.0 529.5,196.0 530.5,196.0 530.5,196.0 531.5,196.0 531.5,196.0 532.5,196.0 532.5,196.0 533.5,196.0 533.5,196.0 534.5,196.0 534.5,196.0 535.5,196.0 535.5,196.0 536.5,196.0 536.5,196.0 537.5,196.0 537.5,196.0 538.5,196.0 538.5,196.0 539.5,196.0 539.5,196.0 540.5,196.0 540.5,196.0 541.5,196.0 541.5,196.0 542.5,196.0 542.5,196.0 543.5,196.0 543.5,196.0 544.5,196.0 544.5,196.0 545.5,196.0 545.5,196.0 546.5,196.0 546.5,196.0 547.5,196.0 547.5,196.0 548.5,196.0 548.5,196.0 549.5,196.0 549.5,196.0 550.5,196.0 550.5,196.0 551.5,196.0 551.5,196.0 552.5,196.0 552.5,196.0 553.5,196.0 553.5,196.0 554.5,196.0 554.5,196.0 555.5,196.0 555.5,196.0 556.5,196.0 556.5,196.0 557.5,196.0 557.5,196.0 558.5,196.0 558.5,196.0 559.5,196.0 559.5,196.0 560.5,196.0 560.5,196.0 561.5,196.0 561.5,196.0 562.5,196.0 562.5,196.0 563.5,196.0 563.5,196.0 564.5,196.0 564.5,196.0 565.5,196.0 565.5,196.0 566.5,196.0 566.5,196.0 567.5,196.0 567.5,196.0 568.5,196.0 568.5,196.0 569.5,196.0 569.5,196.0 570.5,196.0 570.5,196.0 571.5,196.0 571.5,196.0 572.5,196.0 572.5,196.0 573.5,196.0 573.5,196.0 574.5,196.0 574.5,196.0 575.5,196.0 575.5,196.0 576.5,196.0 576.5,196.0 577.5,196.0 577.5,196.0 578.5,196.0 578.5,196.0 579.5,196.0 579.5,196.0 580.5,196.0 580.5,196.0 581.5,196.0 581.5,196.0 582.5,196.0 582.5,196.0 583.5,196.0 583.5,196.0 584.5,196.0 584.5,196.0 585.5,196.0 585.5,196.0 586.5,196.0 586.5,196.0 587.5,196.0 587.5,196.0 588.5,196.0 588.5,196.0 589.5,196.0 589.5,196.0 590.5,196.0 590.5,196.0 591.5,196.0 591.5,196.0 592.5,196.0 592.5,196.0 593.5,196.0 593.5,196.0 594.5,196.0 594.5,196.0 595.5,196.0 595.5,196.0 596.5,196.0 596.5,196.0 597.5,196.0 597.5,196.0 598.5,196.0 598.5,196.0 599.5,196.0 599.5,196.0 600.5,196.0 600.5,196.0 601.5,196.0 601.5,196.0 602.5,196.0 602.5,196.0 603.5,196.0 603.5,196.0 604.5,196.0 604.5,196.0 605.5,196.0 605.5,196.0 606.5,196.0 606.5,196.0 607.5,196.0 607.5,196.0 608.5,196.0 608.5,196.0 609.5,196.0 609.5,196.0 610.5,196.0 610.5,196.0 611.5,196.0 611.5,196.0 612.5,196.0 612.5,196.0 613.5,196.0 613.5,196.0 614.5,196.0 614.5,196.0 615.5,196.0 615.5,196.0 616.5,196.0 616.5,196.0 617.5,196.0 617.5,196.0 618.5,196.0 618.5,196.0 619.5,196.0 619.5,196.0 620.5,196.0 620.5,196.0 621.5,196.0 621.5,196.0 622.5,196.0 622.5,196.0 623.5,196.0 623.5,196.0 624.5,196.0 624.5,196.0 625.5,196.0 625.5,196.0 626.5,196.0 626.5,196.0 627.5,196.0 627.5,196.0 628.5,196.0 628.5,196.0 629.5,196.0 629.5,196.0 630.5,196.0 630.5,196.0 631.5,196.0 631.5,196.0 632.5,196.0 632.5,196.0 633.5,196.0 633.5,196.0 634.5,196.0 634.5,196.0 635.5,196.0 635.5,196.0 636.5,196.0 636.5,196.0 637.5,196.0 637.5,196.0 638.5,196.0 638.5,196.0 639.5,196.0 639.5,196.0 640.5,196.0 640.5,196.0 641.5,196.0 641.5,196.0 642.5,196.0 642.5,196.0 643.5,196.0 643.5,196.0 644.5,196.0 644.5,196.0 645.5,196.0 645.5,196.0 646.5,196.0 646.5,196.0 647.5,196.0 647.5,196.0 648.5,196.0 648.5,196.0 649.5,196.0 649.5,196.0 650.5,196.0 650.5,196.0 651.5,196.0 651.5,196.0 652.5,196.0 652.5,196.0 653.5,196.0 653.5,196.0 654.5,196.0 654.5,196.0 655.5,196.0 655.5,196.0 656.5,196.0 656.5,196.0 657.5,196.0 657.5,196.0 658.5,196.0 658.5,196.0 659.5,196.0 659.5,196.0 660.5,196.0 660.5,196.0 661.5,196.0 661.5,196.0 662.5,196.0 662.5,196.0 663.5,196.0 663.5,196.0 664.5,196.0 664.5,196.0 665.5,196.0 665.5,196.0 666.5,196.0 666.5,196.0 667.5,196.0 667.5,196.0 668.5,196.0 668.5,196.0 669.5,196.0 669.5,196.0 670.5,196.0 670.5,196.0 671.5,196.0 671.5,196.0 672.5,196.0 672.5,196.0 673.5,196.0 673.5,196.0 674.5,196.0 674.5,196.0 675.5,196.0 675.5,196.0 676.5,196.0 676.5,196.0 677.5,196.0 677.5,196.0 678.5,196.0 678.5,196.0 679.5,196.0 679.5,196.0 680.5,196.0 680.5,196.0 681.5,196.0 681.5,196.0 682.5,196.0 682.5,196.0 683.5,196.0 683.5,196.0 684.5,196.0 684.5,196.0 685.5,196.0 685.5,196.0 686.5,196.0 686.5,196.0 687.5,196.0 687.5,196.0 688.5,196.0 688.5,196.0 689.5,196.0 689.5,196.0 690.5,196.0 690.5,196.0 691.5,196.0 691.5,196.0 692.5,196.0 692.5,196.0 693.5,196.0 693.5,196.0 694.5,196.0 694.5,196.0 695.5,196.0 695.5,196.0 696.5,196.0 696.5,196.0 697.5,196.0 697.5,196.0 698.5,196.0 698.5,196.0 699.5,196.0 699.5,196.0 700.5,196.0 700.5,196.0 701.5,196.0 701.5,196.0 702.5,196.0 702.5,196.0 703.5,196.0 703.5,196.0 704.5,196.0 704.5,196.0 705.5,196.0 705.5,196.0 706.5,196.0 706.5,196.0 707.5,196.0 707.5,196.0 708.5,196.0 708.5,196.0 709.5,196.0 709.5,196.0 710.5,196.0 710.5,196.0 711.5,196.0 711.5,196.0 712.5,196.0 712.5,196.0 713.5,196.0 713.5,196.0 714.5,196.0 714.5,196.0 715.5,196.0 715.5,196.0 716.5,196.0 716.5,196.0 717.5,196.0 717.5,196.0 718.5,196.0 718.5,196.0 719.5,196.0 719.5,196.0 720.5,196.0 720.5,196.0 721.5,196.0 721.5,196.0 722.5,196.0 722.5,196.0 723.5,196.0 723.5,196.0 724.5,196.0 724.5,196.0 725.5,196.0 725.5,196.0 726.5,196.0 726.5,196.0 727.5,196.0 727.5,196.0 728.5,196.0 728.5,196.0 729.5,196.0 729.5,196.0 730.5,196.0 730.5,196.0 731.5,196.0 731.5,196.0 732.5,196.0 732.5,196.0 733.5,196.0 733.5,196.0 734.5,196.0 734.5,196.0 735.5,196.0 735.5,196.0 736.5,196.0 736.5,196.0 737.5,196.0 737.5,196.0 738.5,196.0 738.5,196.0 739.5,196.0 739.5,196.0 740.5,196.0 740.5,196.0 741.5,196.0 741.5,196.0 742.5,196.0 742.5,196.0 743.5,196.0 743.5,196.0 744.5,196.0 744.5,196.0 745.5,196.0 745.5,196.0 746.5,196.0 746.5,196.0 747.5,196.0 747.5,196.0 748.5,196.0 748.5,196.0 749.5,196.0 749.5,196.0 750.5,196.0 750.5,196.0 751.5,196.0 751.5,196.0 752.5,196.0 752.5,196.0 753.5,196.0 753.5,196.0 754.5,196.0 754.5,196.0 755.5,196.0 755.5,196.0 756.5,196.0 756.5,196.0 757.5,196.0 757.5,196.0 758.5,196.0 758.5,196.0 759.5,196.0 759.5,196.0 760.5,196.0 760.5,196.0 761.5,196.0 761.5,196.0 762.5,196.0 762.5,196.0 763.5,196.0 763.5,196.0 764.5,196.0 764.5,196.0 765.5,196.0 765.5,196.0 766.5,196.0 766.5,196.0 767.5,196.0 767.5,196.0 768.5,196.0 768.5,196.0 769.5,196.0 769.5,196.0 770.5,196.0 770.5,196.0 771.5,196.0 771.5,196.0 772.5,196.0 772.5,196.0 773.5,196.0 773.5,196.0 774.5,196.0 774.5,196.0 775.5,196.0 775.5,196.0 776.5,196.0 776.5,196.0 777.5,196.0 777.5,196.0 778.5,196.0 778.5,196.0 779.5,196.0 779.5,196.0 780.5,196.0 780.5,196.0 781.5,196.0 781.5,196.0 782.5,196.0 782.5,196.0 783.5,196.0 783.5,196.0 784.5,196.0 784.5,196.0 785.5,196.0 785.5,196.0 786.5,196.0 786.5,196.0 787.5,196.0 787.5,196.0 788.5,196.0 788.5,196.0 789.5,196.0 789.5,196.0 790.5,196.0 790.5,196.0 791.5,196.0 791.5,196.0 792.5,196.0 792.5,196.0 793.5,196.0 793.5,196.0 794.5,196.0 794.5,196.0 795.5,196.0 795.5,196.0 796.5,196.0 796.5,196.0 797.5,196.0 797.5,196.0 798.5,196.0 798.5,196.0 799.5,196.0 799.5,196.0" fill="none" stroke="#3b82f6" stroke-width="1.5" stroke-linejoin="round"/>
  <line x1="34" y1="8" x2="46" y2="8" stroke="#d1d5db" stroke-width="2"/>
  <text x="49" y="11" text-anchor="start" font-size="11" fill="#6b7280">input</text>
  <line x1="88" y1="8" x2="100" y2="8" stroke="#3b82f6" stroke-width="2"/>
  <text x="103" y="11" text-anchor="start" font-size="11" fill="#6b7280">shaped</text>
</svg>
