<svg xmlns="http://www.w3.org/2000/svg" viewBox="0 0 820 392" style="font-family:system-ui,-apple-system,sans-serif">
  <defs>
    <clipPath id="u3"><rect x="34" y="16" width="766" height="360"/></clipPath>
  </defs>
  <text x="800" y="11" text-anchor="end" font-size="11" fill="#6b7280" font-weight="600">Tremolo — DC signal, rate=5Hz, depth=0.9</text>
  <line x1="34" y1="16" x2="34" y2="376" stroke="#d1d5db" stroke-width="1"/>
  <line x1="34" y1="376" x2="800" y2="376" stroke="#d1d5db" stroke-width="1"/>
  <line x1="34" y1="16" x2="34" y2="376" stroke="#e5e7eb" stroke-width="0.5"/>
  <text x="34" y="388" text-anchor="middle" font-size="8" fill="#6b7280">0</text>
  <line x1="198.9" y1="16" x2="198.9" y2="376" stroke="#e5e7eb" stroke-width="0.5"/>
  <text x="198.9" y="388" text-anchor="middle" font-size="8" fill="#6b7280">10</text>
  <line x1="363.9" y1="16" x2="363.9" y2="376" stroke="#e5e7eb" stroke-width="0.5"/>
  <text x="363.9" y="388" text-anchor="middle" font-size="8" fill="#6b7280">20</text>
  <line x1="528.8" y1="16" x2="528.8" y2="376" stroke="#e5e7eb" stroke-width="0.5"/>
  <text x="528.8" y="388" text-anchor="middle" font-size="8" fill="#6b7280">30</text>
  <line x1="693.8" y1="16" x2="693.8" y2="376" stroke="#e5e7eb" stroke-width="0.5"/>
  <text x="693.8" y="388" text-anchor="middle" font-size="8" fill="#6b7280">40</text>
  <line x1="34" y1="357.1" x2="800" y2="357.1" stroke="#e5e7eb" stroke-width="0.5"/>
  <text x="30" y="360.1" text-anchor="end" font-size="8" fill="#6b7280">0</text>
  <line x1="34" y1="281.3" x2="800" y2="281.3" stroke="#e5e7eb" stroke-width="0.5"/>
  <text x="30" y="284.3" text-anchor="end" font-size="8" fill="#6b7280">0.2</text>
  <line x1="34" y1="205.5" x2="800" y2="205.5" stroke="#e5e7eb" stroke-width="0.5"/>
  <text x="30" y="208.5" text-anchor="end" font-size="8" fill="#6b7280">0.4</text>
  <line x1="34" y1="129.7" x2="800" y2="129.7" stroke="#e5e7eb" stroke-width="0.5"/>
  <text x="30" y="132.7" text-anchor="end" font-size="8" fill="#6b7280">0.6</text>
  <line x1="34" y1="53.9" x2="800" y2="53.9" stroke="#e5e7eb" stroke-width="0.5"/>
  <text x="30" y="56.9" text-anchor="end" font-size="8" fill="#6b7280">0.8</text>
  <line x1="34" y1="357.1" x2="800" y2="357.1" stroke="#d1d5db" stroke-width="0.5"/>
  <text x="417" y="402" text-anchor="middle" font-size="9" fill="#6b7280">ms</text>
  <text x="12" y="196" text-anchor="middle" font-size="9" fill="#6b7280">amp</text>
  <polyline clip-path="url(#u3)" points="34.5,190.4 34.5,190.3 35.5,190.7 35.5,190.5 36.5,191.0 36.5,190.8 37.5,191.2 37.5,191.1 38.5,191.5 38.5,191.3 39.5,191.8 39.5,191.6 40.5,192.0 40.5,191.9 41.5,192.3 41.5,192.1 42.5,192.6 42.5,192.4 43.5,192.7 43.5,192.6 44.5,193.0 44.5,192.8 45.5,193.3 45.5,193.1 46.5,193.5 46.5,193.4 47.5,193.8 47.5,193.6 48.5,194.1 48.5,193.9 49.5,194.3 49.5,194.2 50.5,194.6 50.5,194.4 51.5,194.9 51.5,194.7 52.5,195.1 52.5,195.0 53.5,195.4 53.5,195.2 54.5,195.7 54.5,195.5 55.5,195.9 55.5,195.8 56.5,196.1 56.5,196.0 57.5,196.4 57.5,196.2 58.5,196.6 58.5,196.5 59.5,196.9 59.5,196.7 60.5,197.2 60.5,197.0 61.5,197.4 61.5,197.3 62.5,197.7 62.5,197.5 63.5,198.0 63.5,197.8 64.5,198.2 64.5,198.1 65.5,198.5 65.5,198.3 66.5,198.8 66.5,198.6 67.5,199.0 67.5,198.9 68.5,199.3 68.5,199.1 69.5,199.5 69.5,199.3 70.5,199.7 70.5,199.6 71.5,200.0 71.5,199.8 72.5,200.3 72.5,200.1 73.5,200.5 73.5,200.4 74.5,200.8 74.5,200.6 75.5,201.1 75.5,200.9 76.5,201.3 76.5,201.2 77.5,201.6 77.5,201.4 78.5,201.9 78.5,201.7 79.5,202.1 79.5,202.0 80.5,202.4 80.5,202.2 81.5,202.6 81.5,202.4 82.5,202.9 82.5,202.7 83.5,203.1 83.5,203.0 84.5,203.4 84.5,203.2 85.5,203.7 85.5,203.5 86.5,203.9 86.5,203.8 87.5,204.2 87.5,204.0 88.5,204.5 88.5,204.3 89.5,204.7 89.5,204.6 90.5,205.0 90.5,204.8 91.5,205.3 91.5,205.1 92.5,205.4 92.5,205.3 93.5,205.7 93.5,205.5 94.5,206.0 94.5,205.8 95.5,206.2 95.5,206.1 96.5,206.5 96.5,206.3 97.5,206.8 97.5,206.6 98.5,207.0 98.5,206.9 99.5,207.3 99.5,207.1 100.5,207.6 100.5,207.4 101.5,207.8 101.5,207.7 102.5,208.1 102.5,207.9 103.5,208.3 103.5,208.1 104.5,208.5 104.5,208.4 105.5,208.8 105.5,208.6 106.5,209.1 106.5,208.9 107.5,209.3 107.5,209.2 108.5,209.6 108.5,209.4 109.5,209.9 109.5,209.7 110.5,210.1 110.5,210.0 111.5,210.4 111.5,210.2 112.5,210.6 112.5,210.5 113.5,210.8 113.5,210.7 114.5,211.1 114.5,210.9 115.5,211.4 115.5,211.2 116.5,211.6 116.5,211.5 117.5,211.9 117.5,211.7 118.5,212.2 118.5,212.0 119.5,212.4 119.5,212.3 120.5,212.7 120.5,212.5 121.5,213.0 121.5,212.8 122.5,213.1 122.5,213.0 123.5,213.4 123.5,213.2 124.5,213.7 124.5,213.5 125.5,213.9 125.5,213.8 126.5,214.2 126.5,214.0 127.5,214.5 127.5,214.3 128.5,214.7 128.5,214.6 129.5,215.0 129.5,214.8 130.5,215.2 130.5,215.1 131.5,215.5 131.5,215.3 132.5,215.7 132.5,215.6 133.5,216.0 133.5,215.8 134.5,216.3 134.5,216.1 135.5,216.5 135.5,216.4 136.5,216.8 136.5,216.6 137.5,217.1 137.5,216.9 138.5,217.3 138.5,217.2 139.5,217.5 139.5,217.3 140.5,217.8 140.5,217.6 141.5,218.0 141.5,217.9 142.5,218.3 142.5,218.1 143.5,218.6 143.5,218.4 144.5,218.8 144.5,218.7 145.5,219.1 145.5,218.9 146.5,219.3 146.5,219.2 147.5,219.5 147.5,219.4 148.5,219.8 148.5,219.6 149.5,220.1 149.5,219.9 150.5,220.3 150.5,220.2 151.5,220.6 151.5,220.4 152.5,220.9 152.5,220.7 153.5,221.1 153.5,221.0 154.5,221.3 154.5,221.1 155.5,221.6 155.5,221.4 156.5,221.8 156.5,221.7 157.5,222.1 157.5,221.9 158.5,222.4 158.5,222.2 159.5,222.6 159.5,222.5 160.5,222.8 160.5,222.7 161.5,223.1 161.5,222.9 162.5,223.3 162.5,223.2 163.5,223.6 163.5,223.4 164.5,223.9 164.5,223.7 165.5,224.1 165.5,224.0 166.5,224.4 166.5,224.2 167.5,224.6 167.5,224.4 168.5,224.8 168.5,224.7 169.5,225.1 169.5,224.9 170.5,225.4 170.5,225.2 171.5,225.6 171.5,225.5 172.5,225.9 172.5,225.7 173.5,226.1 173.5,226.0 174.5,226.3 174.5,226.2 175.5,226.6 175.5,226.4 176.5,226.9 176.5,226.7 177.5,227.2 177.5,227.0 178.5,227.4 178.5,227.3 179.5,227.6 179.5,227.5 180.5,227.9 180.5,227.7 181.5,228.1 181.5,228.0 182.5,228.4 182.5,228.2 183.5,228.7 183.5,228.5 184.5,228.9 184.5,228.8 185.5,229.1 185.5,228.9 186.5,229.4 186.5,229.2 187.5,229.6 187.5,229.5 188.5,229.9 188.5,229.7 189.5,230.2 189.5,230.0 190.5,230.3 190.5,230.2 191.5,230.6 191.5,230.4 192.5,230.9 192.5,230.7 193.5,231.1 193.5,231.0 194.5,231.4 194.5,231.2 195.5,231.6 195.5,231.5 196.5,231.8 196.5,231.7 197.5,232.1 197.5,231.9 198.5,232.4 198.5,232.2 199.5,232.6 199.5,232.5 200.5,232.8 200.5,232.7 201.5,233.1 201.5,232.9 202.5,233.3 202.5,233.2 203.5,233.6 203.5,233.4 204.5,233.9 204.5,233.7 205.5,234.0 205.5,233.9 206.5,234.3 206.5,234.1 207.5,234.6 207.5,234.4 208.5,234.8 208.5,234.7 209.5,235.1 209.5,234.9 210.5,235.3 210.5,235.1 211.5,235.5 211.5,235.4 212.5,235.8 212.5,235.6 213.5,236.1 213.5,235.9 214.5,236.2 214.5,236.2 215.5,236.5 215.5,236.3 216.5,236.8 216.5,236.6 217.5,237.0 217.5,236.9 218.5,237.2 218.5,237.1 219.5,237.5 219.5,237.3 220.5,237.7 220.5,237.6 221.5,238.0 221.5,237.8 222.5,238.3 222.5,238.1 223.5,238.4 223.5,238.3 224.5,238.7 224.5,238.5 225.5,239.0 225.5,238.8 226.5,239.3 226.5,239.1 227.5,239.4 227.5,239.3 228.5,239.7 228.5,239.5 229.5,240.0 229.5,239.8 230.5,240.2 230.5,240.1 231.5,240.4 231.5,240.2 232.5,240.7 232.5,240.5 233.5,240.9 233.5,240.8 234.5,241.1 234.5,241.0 235.5,241.4 235.5,241.2 236.5,241.6 236.5,241.5 237.5,241.9 237.5,241.7 238.5,242.1 238.5,242.0 239.5,242.3 239.5,242.2 240.5,242.6 240.5,242.4 241.5,242.9 241.5,242.7 242.5,243.0 242.5,242.9 243.5,243.3 243.5,243.1 244.5,243.6 244.5,243.4 245.5,243.8 245.5,243.7 246.5,244.0 246.5,243.8 247.5,244.3 247.5,244.1 248.5,244.5 248.5,244.4 249.5,244.7 249.5,244.6 250.5,245.0 250.5,244.8 251.5,245.2 251.5,245.1 252.5,245.4 252.5,245.3 253.5,245.7 253.5,245.5 254.5,245.9 254.5,245.8 255.5,246.2 255.5,246.0 256.5,246.4 256.5,246.2 257.5,246.6 257.5,246.5 258.5,246.9 258.5,246.7 259.5,247.1 259.5,247.0 260.5,247.3 260.5,247.2 261.5,247.6 261.5,247.4 262.5,247.8 262.5,247.7 263.5,248.0 263.5,247.9 264.5,248.3 264.5,248.1 265.5,248.5 265.5,248.4 266.5,248.7 266.5,248.6 267.5,249.0 267.5,248.8 268.5,249.2 268.5,249.1 269.5,249.4 269.5,249.3 270.5,249.7 270.5,249.5 271.5,249.9 271.5,249.8 272.5,250.1 272.5,250.0 273.5,250.4 273.5,250.2 274.5,250.6 274.5,250.5 275.5,250.9 275.5,250.7 276.5,251.1 276.5,251.0 277.5,251.3 277.5,251.2 278.5,251.6 278.5,251.4 279.5,251.8 279.5,251.7 280.5,252.0 280.5,251.9 281.5,252.3 281.5,252.1 282.5,252.5 282.5,252.4 283.5,252.7 283.5,252.6 284.5,253.0 284.5,252.8 285.5,253.2 285.5,253.1 286.5,253.4 286.5,253.2 287.5,253.7 287.5,253.5 288.5,253.8 288.5,253.8 289.5,254.1 289.5,253.9 290.5,254.4 290.5,254.2 291.5,254.5 291.5,254.4 292.5,254.8 292.5,254.6 293.5,255.0 293.5,254.9 294.5,255.2 294.5,255.1 295.5,255.5 295.5,255.3 296.5,255.7 296.5,255.6 297.5,255.9 297.5,255.8 298.5,256.2 298.5,256.0 299.5,256.4 299.5,256.2 300.5,256.6 300.5,256.5 301.5,256.8 301.5,256.7 302.5,257.1 302.5,256.9 303.5,257.3 303.5,257.2 304.5,257.5 304.5,257.3 305.5,257.8 305.5,257.6 306.5,257.9 306.5,257.9 307.5,258.2 307.5,258.0 308.5,258.4 308.5,258.3 309.5,258.6 309.5,258.5 310.5,258.9 310.5,258.7 311.5,259.1 311.5,258.9 312.5,259.3 312.5,259.2 313.5,259.5 313.5,259.4 314.5,259.8 314.5,259.6 315.5,260.0 315.5,259.9 316.5,260.2 316.5,260.0 317.5,260.5 317.5,260.3 318.5,260.6 318.5,260.5 319.5,260.9 319.5,260.7 320.5,261.1 320.5,261.0 321.5,261.4 321.5,261.2 322.5,261.5 322.5,261.5 323.5,261.8 323.5,261.6 324.5,262.0 324.5,261.9 325.5,262.2 325.5,262.1 326.5,262.4 326.5,262.3 327.5,262.7 327.5,262.5 328.5,262.9 328.5,262.8 329.5,263.1 329.5,262.9 330.5,263.3 330.5,263.2 331.5,263.5 331.5,263.4 332.5,263.8 332.5,263.6 333.5,264.0 333.5,263.8 334.5,264.2 334.5,264.1 335.5,264.4 335.5,264.2 336.5,264.7 336.5,264.5 337.5,264.8 337.5,264.7 338.5,265.1 338.5,264.9 339.5,265.3 339.5,265.1 340.5,265.5 340.5,265.4 341.5,265.7 341.5,265.6 342.5,266.0 342.5,265.8 343.5,266.1 343.5,266.0 344.5,266.4 344.5,266.2 345.5,266.6 345.5,266.4 346.5,266.8 346.5,266.7 347.5,267.0 347.5,266.8 348.5,267.2 348.5,267.1 349.5,267.4 349.5,267.3 350.5,267.6 350.5,267.5 351.5,267.9 351.5,267.7 352.5,268.0 352.5,268.0 353.5,268.3 353.5,268.1 354.5,268.5 354.5,268.4 355.5,268.7 355.5,268.6 356.5,268.9 356.5,268.8 357.5,269.2 357.5,269.0 358.5,269.3 358.5,269.2 359.5,269.6 359.5,269.4 360.5,269.8 360.5,269.6 361.5,270.0 361.5,269.9 362.5,270.2 362.5,270.0 363.5,270.4 363.5,270.3 364.5,270.6 364.5,270.5 365.5,270.8 365.5,270.7 366.5,271.1 366.5,270.9 367.5,271.2 367.5,271.1 368.5,271.4 368.5,271.3 369.5,271.7 369.5,271.5 370.5,271.9 370.5,271.8 371.5,272.1 371.5,272.0 372.5,272.3 372.5,272.1 373.5,272.5 373.5,272.4 374.5,272.7 374.5,272.6 375.5,272.9 375.5,272.8 376.5,273.2 376.5,273.0 377.5,273.3 377.5,273.2 378.5,273.5 378.5,273.4 379.5,273.8 379.5,273.6 380.5,273.9 380.5,273.8 381.5,274.2 381.5,274.0 382.5,274.4 382.5,274.2 383.5,274.5 383.5,274.5 384.5,274.8 384.5,274.6 385.5,275.0 385.5,274.8 386.5,275.1 386.5,275.1 387.5,275.4 387.5,275.2 388.5,275.6 388.5,275.4 389.5,275.8 389.5,275.7 390.5,276.0 390.5,275.8 391.5,276.2 391.5,276.1 392.5,276.4 392.5,276.3 393.5,276.6 393.5,276.4 394.5,276.8 394.5,276.7 395.5,277.0 395.5,276.9 396.5,277.2 396.5,277.0 397.5,277.4 397.5,277.3 398.5,277.6 398.5,277.5 399.5,277.8 399.5,277.6 400.5,278.0 400.5,277.9 401.5,278.2 401.5,278.1 402.5,278.4 402.5,278.2 403.5,278.6 403.5,278.5 404.5,278.7 404.5,278.7 405.5,279.0 405.5,278.8 406.5,279.2 406.5,279.0 407.5,279.3 407.5,279.3 408.5,279.6 408.5,279.4 409.5,279.8 409.5,279.6 410.5,279.9 410.5,279.9 411.5,280.1 411.5,280.0 412.5,280.4 412.5,280.2 413.5,280.5 413.5,280.4 414.5,280.7 414.5,280.6 415.5,280.9 415.5,280.8 416.5,281.2 416.5,281.0 417.5,281.3 417.5,281.2 418.5,281.5 418.5,281.4 419.5,281.7 419.5,281.6 420.5,281.9 420.5,281.8 421.5,282.1 421.5,282.0 422.5,282.3 422.5,282.2 423.5,282.5 423.5,282.4 424.5,282.7 424.5,282.5 425.5,282.9 425.5,282.7 426.5,283.0 426.5,283.0 427.5,283.2 427.5,283.1 428.5,283.5 428.5,283.3 429.5,283.6 429.5,283.5 430.5,283.8 430.5,283.7 431.5,284.0 431.5,283.9 432.5,284.2 432.5,284.1 433.5,284.4 433.5,284.2 434.5,284.6 434.5,284.5 435.5,284.7 435.5,284.7 436.5,284.9 436.5,284.8 437.5,285.2 437.5,285.0 438.5,285.3 438.5,285.2 439.5,285.5 439.5,285.4 440.5,285.7 440.5,285.6 441.5,285.8 441.5,285.8 442.5,286.1 442.5,285.9 443.5,286.3 443.5,286.1 444.5,286.4 444.5,286.3 445.5,286.6 445.5,286.5 446.5,286.8 446.5,286.7 447.5,287.0 447.5,286.9 448.5,287.2 448.5,287.0 449.5,287.4 449.5,287.2 450.5,287.5 450.5,287.4 451.5,287.7 451.5,287.6 452.5,287.9 452.5,287.8 453.5,288.0 453.5,288.0 454.5,288.2 454.5,288.1 455.5,288.4 455.5,288.3 456.5,288.6 456.5,288.5 457.5,288.8 457.5,288.7 458.5,289.0 458.5,288.9 459.5,289.1 459.5,289.1 460.5,289.3 460.5,289.2 461.5,289.5 461.5,289.4 462.5,289.7 462.5,289.6 463.5,289.9 463.5,289.7 464.5,290.1 464.5,289.9 465.5,290.3 465.5,290.1 466.5,290.4 466.5,290.3 467.5,290.6 467.5,290.5 468.5,290.8 468.5,290.6 469.5,290.9 469.5,290.8 470.5,291.1 470.5,291.0 471.5,291.3 471.5,291.2 472.5,291.4 472.5,291.4 473.5,291.6 473.5,291.5 474.5,291.8 474.5,291.7 475.5,292.0 475.5,291.9 476.5,292.2 476.5,292.0 477.5,292.3 477.5,292.2 478.5,292.5 478.5,292.4 479.5,292.7 479.5,292.5 480.5,292.9 480.5,292.7 481.5,293.0 481.5,292.9 482.5,293.2 482.5,293.1 483.5,293.4 483.5,293.2 484.5,293.5 484.5,293.4 485.5,293.7 485.5,293.6 486.5,293.9 486.5,293.8 487.5,294.0 487.5,293.9 488.5,294.2 488.5,294.1 489.5,294.4 489.5,294.3 490.5,294.5 490.5,294.4 491.5,294.7 491.5,294.6 492.5,294.9 492.5,294.8 493.5,295.0 493.5,294.9 494.5,295.2 494.5,295.1 495.5,295.4 495.5,295.3 496.5,295.5 496.5,295.4 497.5,295.7 497.5,295.6 498.5,295.9 498.5,295.8 499.5,296.0 499.5,295.9 500.5,296.2 500.5,296.1 501.5,296.4 501.5,296.2 502.5,296.5 502.5,296.4 503.5,296.7 503.5,296.5 504.5,296.9 504.5,296.7 505.5,297.0 505.5,296.9 506.5,297.2 506.5,297.0 507.5,297.3 507.5,297.2 508.5,297.5 508.5,297.4 509.5,297.6 509.5,297.5 510.5,297.8 510.5,297.7 511.5,297.9 511.5,297.9 512.5,298.1 512.5,298.0 513.5,298.3 513.5,298.2 514.5,298.5 514.5,298.4 515.5,298.6 515.5,298.5 516.5,298.8 516.5,298.6 517.5,298.9 517.5,298.8 518.5,299.1 518.5,299.0 519.5,299.2 519.5,299.1 520.5,299.4 520.5,299.3 521.5,299.5 521.5,299.5 522.5,299.7 522.5,299.6 523.5,299.9 523.5,299.8 524.5,300.0 524.5,299.9 525.5,300.2 525.5,300.1 526.5,300.3 526.5,300.2 527.5,300.5 527.5,300.4 528.5,300.6 528.5,300.5 529.5,300.8 529.5,300.7 530.5,300.9 530.5,300.9 531.5,301.1 531.5,301.0 532.5,301.3 532.5,301.1 533.5,301.4 533.5,301.3 534.5,301.5 534.5,301.4 535.5,301.7 535.5,301.6 536.5,301.8 536.5,301.8 537.5,302.0 537.5,301.9 538.5,302.1 538.5,302.0 539.5,302.3 539.5,302.2 540.5,302.4 540.5,302.3 541.5,302.6 541.5,302.5 542.5,302.7 542.5,302.6 543.5,302.9 543.5,302.8 544.5,303.0 544.5,302.9 545.5,303.1 545.5,303.1 546.5,303.3 546.5,303.2 547.5,303.5 547.5,303.4 548.5,303.6 548.5,303.5 549.5,303.7 549.5,303.6 550.5,303.9 550.5,303.8 551.5,304.0 551.5,304.0 552.5,304.2 552.5,304.1 553.5,304.3 553.5,304.2 554.5,304.4 554.5,304.4 555.5,304.6 555.5,304.5 556.5,304.8 556.5,304.6 557.5,304.9 557.5,304.8 558.5,305.0 558.5,304.9 559.5,305.2 559.5,305.1 560.5,305.3 560.5,305.2 561.5,305.4 561.5,305.4 562.5,305.6 562.5,305.5 563.5,305.7 563.5,305.6 564.5,305.9 564.5,305.8 565.5,306.0 565.5,305.9 566.5,306.2 566.5,306.1 567.5,306.3 567.5,306.2 568.5,306.4 568.5,306.3 569.5,306.6 569.5,306.5 570.5,306.7 570.5,306.6 571.5,306.8 571.5,306.7 572.5,307.0 572.5,306.9 573.5,307.1 573.5,307.0 574.5,307.2 574.5,307.1 575.5,307.4 575.5,307.3 576.5,307.5 576.5,307.4 577.5,307.6 577.5,307.5 578.5,307.8 578.5,307.7 579.5,307.9 579.5,307.8 580.5,308.0 580.5,307.9 581.5,308.2 581.5,308.1 582.5,308.3 582.5,308.2 583.5,308.4 583.5,308.3 584.5,308.6 584.5,308.5 585.5,308.7 585.5,308.6 586.5,308.8 586.5,308.7 587.5,308.9 587.5,308.8 588.5,309.0 588.5,309.0 589.5,309.2 589.5,309.1 590.5,309.3 590.5,309.2 591.5,309.4 591.5,309.4 592.5,309.6 592.5,309.5 593.5,309.7 593.5,309.6 594.5,309.8 594.5,309.7 595.5,309.9 595.5,309.8 596.5,310.1 596.5,310.0 597.5,310.2 597.5,310.1 598.5,310.3 598.5,310.2 599.5,310.4 599.5,310.4 600.5,310.5 600.5,310.5 601.5,310.7 601.5,310.6 602.5,310.8 602.5,310.7 603.5,310.9 603.5,310.9 604.5,311.0 604.5,311.0 605.5,311.2 605.5,311.1 606.5,311.3 606.5,311.2 607.5,311.4 607.5,311.3 608.5,311.5 608.5,311.4 609.5,311.7 609.5,311.6 610.5,311.8 610.5,311.7 611.5,311.9 611.5,311.8 612.5,312.0 612.5,311.9 613.5,312.1 613.5,312.1 614.5,312.2 614.5,312.2 615.5,312.4 615.5,312.3 616.5,312.5 616.5,312.4 617.5,312.6 617.5,312.5 618.5,312.7 618.5,312.6 619.5,312.8 619.5,312.8 620.5,312.9 620.5,312.8 621.5,313.1 621.5,313.0 622.5,313.1 622.5,313.1 623.5,313.3 623.5,313.2 624.5,313.4 624.5,313.3 625.5,313.5 625.5,313.4 626.5,313.6 626.5,313.5 627.5,313.7 627.5,313.6 628.5,313.8 628.5,313.8 629.5,313.9 629.5,313.9 630.5,314.1 630.5,314.0 631.5,314.1 631.5,314.1 632.5,314.3 632.5,314.2 633.5,314.4 633.5,314.3 634.5,314.5 634.5,314.4 635.5,314.6 635.5,314.5 636.5,314.7 636.5,314.6 637.5,314.8 637.5,314.7 638.5,314.9 638.5,314.8 639.5,315.0 639.5,314.9 640.5,315.1 640.5,315.1 641.5,315.2 641.5,315.1 642.5,315.3 642.5,315.3 643.5,315.4 643.5,315.4 644.5,315.5 644.5,315.5 645.5,315.6 645.5,315.6 646.5,315.7 646.5,315.7 647.5,315.8 647.5,315.8 648.5,315.9 648.5,315.9 649.5,316.0 649.5,316.0 650.5,316.1 650.5,316.1 651.5,316.2 651.5,316.2 652.5,316.3 652.5,316.3 653.5,316.4 653.5,316.4 654.5,316.5 654.5,316.5 655.5,316.6 655.5,316.6 656.5,316.7 656.5,316.7 657.5,316.8 657.5,316.8 658.5,316.9 658.5,316.9 659.5,317.0 659.5,317.0 660.5,317.1 660.5,317.1 661.5,317.2 661.5,317.2 662.5,317.3 662.5,317.3 663.5,317.4 663.5,317.3 664.5,317.5 664.5,317.4 665.5,317.6 665.5,317.6 666.5,317.7 666.5,317.6 667.5,317.8 667.5,317.7 668.5,317.9 668.5,317.8 669.5,318.0 669.5,317.9 670.5,318.1 670.5,318.0 671.5,318.1 671.5,318.1 672.5,318.2 672.5,318.2 673.5,318.3 673.5,318.3 674.5,318.4 674.5,318.4 675.5,318.5 675.5,318.4 676.5,318.6 676.5,318.5 677.5,318.7 677.5,318.6 678.5,318.8 678.5,318.7 679.5,318.9 679.5,318.8 680.5,318.9 680.5,318.9 681.5,319.0 681.5,319.0 682.5,319.1 682.5,319.1 683.5,319.2 683.5,319.2 684.5,319.3 684.5,319.2 685.5,319.4 685.5,319.3 686.5,319.4 686.5,319.4 687.5,319.5 687.5,319.5 688.5,319.6 688.5,319.6 689.5,319.7 689.5,319.7 690.5,319.8 690.5,319.7 691.5,319.9 691.5,319.8 692.5,319.9 692.5,319.9 693.5,320.0 693.5,320.0 694.5,320.1 694.5,320.1 695.5,320.2 695.5,320.1 696.5,320.3 696.5,320.2 697.5,320.4 697.5,320.3 698.5,320.4 698.5,320.4 699.5,320.5 699.5,320.4 700.5,320.6 700.5,320.5 701.5,320.6 701.5,320.6 702.5,320.7 702.5,320.7 703.5,320.8 703.5,320.8 704.5,320.9 704.5,320.8 705.5,321.0 705.5,320.9 706.5,321.0 706.5,321.0 707.5,321.1 707.5,321.1 708.5,321.2 708.5,321.2 709.5,321.3 709.5,321.2 710.5,321.3 710.5,321.3 711.5,321.4 711.5,321.4 712.5,321.5 712.5,321.4 713.5,321.6 713.5,321.5 714.5,321.6 714.5,321.6 715.5,321.7 715.5,321.6 716.5,321.8 716.5,321.7 717.5,321.8 717.5,321.8 718.5,321.9 718.5,321.8 719.5,322.0 719.5,321.9 720.5,322.0 720.5,322.0 721.5,322.1 721.5,322.1 722.5,322.2 722.5,322.1 723.5,322.2 723.5,322.2 724.5,322.3 724.5,322.3 725.5,322.4 725.5,322.3 726.5,322.4 726.5,322.4 727.5,322.5 727.5,322.4 728.5,322.6 728.5,322.5 729.5,322.6 729.5,322.6 730.5,322.7 730.5,322.6 731.5,322.8 731.5,322.7 732.5,322.8 732.5,322.8 733.5,322.9 733.5,322.8 734.5,322.9 734.5,322.9 735.5,323.0 735.5,323.0 736.5,323.1 736.5,323.0 737.5,323.1 737.5,323.1 738.5,323.2 738.5,323.1 739.5,323.2 739.5,323.2 740.5,323.3 740.5,323.3 741.5,323.3 741.5,323.3 742.5,323.4 742.5,323.4 743.5,323.5 743.5,323.4 744.5,323.5 744.5,323.5 745.5,323.6 745.5,323.5 746.5,323.6 746.5,323.6 747.5,323.7 747.5,323.7 748.5,323.7 748.5,323.7 749.5,323.8 749.5,323.8 750.5,323.8 750.5,323.8 751.5,323.9 751.5,323.9 752.5,324.0 752.5,323.9 753.5,324.0 753.5,324.0 754.5,324.1 754.5,324.0 755.5,324.1 755.5,324.1 756.5,324.2 756.5,324.1 757.5,324.2 757.5,324.2 758.5,324.3 758.5,324.2 759.5,324.3 759.5,324.3 760.5,324.3 760.5,324.3 761.5,324.4 761.5,324.4 762.5,324.5 762.5,324.4 763.5,324.5 763.5,324.5 764.5,324.5 764.5,324.5 765.5,324.6 765.5,324.6 766.5,324.6 766.5,324.6 767.5,324.7 767.5,324.6 768.5,324.7 768.5,324.7 769.5,324.8 769.5,324.7 770.5,324.8 770.5,324.8 771.5,324.9 771.5,324.8 772.5,324.9 772.5,324.9 773.5,324.9 773.5,324.9 774.5,325.0 774.5,325.0 775.5,325.0 775.5,325.0 776.5,325.1 776.5,325.0 777.5,325.1 777.5,325.1 778.5,325.1 778.5,325.1 779.5,325.2 779.5,325.2 780.5,325.2 780.5,325.2 781.5,325.3 781.5,325.2 782.5,325.3 782.5,325.3 783.5,325.3 783.5,325.3 784.5,325.4 784.5,325.4 785.5,325.4 785.5,325.4 786.5,325.4 786.5,325.4 787.5,325.5 787.5,325.5 788.5,325.5 788.5,325.5 789.5,325.6 789.5,325.5 790.5,325.6 790.5,325.6 791.5,325.6 791.5,325.6 792.5,325.7 792.5,325.6 793.5,325.7 793.5,325.7 794.5,325.7 794.5,325.7 795.5,325.7 795.5,325.7 796.5,325.8 796.5,325.8 797.5,325.8 797.5,325.8 798.5,325.8 798.5,325.8 799.5,325.9 799.5,325.9" fill="none" stroke="#3b82f6" stroke-width="1.5" stroke-linejoin="round"/>
</svg>
